M48
; DRILL file {KiCad (6.0.0-0)} date Sunday, August 21, 2022 at 04:00:52 PM
; FORMAT={-:-/ absolute / inch / decimal}
; #@! TF.CreationDate,2022-08-21T16:00:52-04:00
; #@! TF.GenerationSoftware,Kicad,Pcbnew,(6.0.0-0)
; #@! TF.FileFunction,Plated,1,2,PTH
FMAT,2
INCH
; #@! TA.AperFunction,Plated,PTH,ComponentDrill
T1C0.0276
; #@! TA.AperFunction,Plated,PTH,ComponentDrill
T2C0.0315
; #@! TA.AperFunction,Plated,PTH,ComponentDrill
T3C0.0354
; #@! TA.AperFunction,Plated,PTH,ComponentDrill
T4C0.0394
; #@! TA.AperFunction,Plated,PTH,ComponentDrill
T5C0.0433
; #@! TA.AperFunction,Plated,PTH,ComponentDrill
T6C0.0591
%
G90
G05
T1
X1.125Y-2.65
X1.125Y-2.85
X1.125Y-3.175
X1.125Y-3.375
X3.8256Y-2.3642
X3.8256Y-2.5642
T2
X0.6803Y-2.3827
X0.6803Y-2.4614
X0.8189Y-3.2929
X0.8976Y-3.2929
X1.564Y-2.7049
X1.564Y-3.3049
X1.664Y-2.7049
X1.664Y-3.3049
X1.764Y-2.7049
X1.764Y-3.3049
X1.864Y-2.7049
X1.864Y-3.3049
X1.964Y-2.7049
X1.964Y-3.3049
X2.064Y-2.7049
X2.064Y-3.3049
X2.164Y-2.7049
X2.164Y-3.3049
X2.2354Y-2.212
X2.2354Y-2.2908
X2.264Y-2.7049
X2.264Y-3.3049
X2.364Y-2.7049
X2.364Y-3.3049
X2.3679Y-3.5272
X2.4466Y-3.5272
X2.464Y-2.7049
X2.464Y-3.3049
X2.5242Y-2.4837
X2.5272Y-2.2276
X2.5272Y-2.326
X2.564Y-2.7049
X2.564Y-3.3049
X2.664Y-2.7049
X2.664Y-3.3049
X2.7142Y-2.2268
X2.7142Y-2.3252
X2.7163Y-2.4837
X2.764Y-2.7049
X2.764Y-3.3049
X2.864Y-2.7049
X2.864Y-3.3049
X2.964Y-2.7049
X2.964Y-3.3049
X3.064Y-2.7049
X3.064Y-3.3049
X3.164Y-2.7049
X3.164Y-3.3049
X3.264Y-2.7049
X3.264Y-3.3049
X3.364Y-2.7049
X3.364Y-3.3049
X3.464Y-2.7049
X3.464Y-3.3049
T3
X1.275Y-2.85
X1.275Y-3.15
X1.375Y-2.85
X1.375Y-3.15
T4
X1.4012Y-2.4417
X1.5012Y-2.4417
X1.6012Y-2.4417
X1.7012Y-2.4417
X1.8012Y-2.4417
X1.9012Y-2.4417
X2.0012Y-2.4417
X2.1012Y-2.4417
X2.9722Y-2.5181
X3.0169Y-1.9783
X3.0169Y-2.0783
X3.0169Y-2.1783
X3.0722Y-2.5181
X3.1169Y-1.9783
X3.1169Y-2.0783
X3.1169Y-2.1783
X3.1722Y-2.5181
X3.2722Y-2.5181
X3.3722Y-2.5181
X3.4722Y-2.5181
X3.5722Y-2.5181
X3.6722Y-2.5181
T5
X0.75Y-3.825
X0.75Y-4.575
X0.75Y-5.325
X0.75Y-6.075
X1.05Y-3.825
X1.05Y-4.575
X1.05Y-5.325
X1.05Y-6.075
X1.5Y-3.825
X1.5Y-4.575
X1.5Y-5.325
X1.5Y-6.075
X1.8Y-3.825
X1.8Y-4.575
X1.8Y-5.325
X1.8Y-6.075
X2.25Y-3.825
X2.25Y-4.575
X2.25Y-5.325
X2.25Y-6.075
X2.55Y-3.825
X2.55Y-4.575
X2.55Y-5.325
X2.55Y-6.075
X3.0Y-3.825
X3.0Y-4.575
X3.0Y-5.325
X3.0Y-6.075
X3.3Y-3.825
X3.3Y-4.575
X3.3Y-5.325
X3.3Y-6.075
X3.75Y-3.825
X3.75Y-4.575
X3.75Y-5.325
X3.75Y-6.075
X4.05Y-3.825
X4.05Y-4.575
X4.05Y-5.325
X4.05Y-6.075
X4.5Y-3.825
X4.5Y-4.575
X4.5Y-5.325
X4.5Y-6.075
X4.8Y-3.825
X4.8Y-4.575
X4.8Y-5.325
X4.8Y-6.075
X5.25Y-3.825
X5.25Y-4.575
X5.25Y-5.325
X5.25Y-6.075
X5.55Y-3.825
X5.55Y-4.575
X5.55Y-5.325
X5.55Y-6.075
X6.0Y-3.825
X6.0Y-4.575
X6.0Y-5.325
X6.0Y-6.075
X6.3Y-3.825
X6.3Y-4.575
X6.3Y-5.325
X6.3Y-6.075
X6.75Y-3.825
X6.75Y-4.575
X6.75Y-5.325
X6.75Y-6.075
X7.05Y-3.825
X7.05Y-4.575
X7.05Y-5.325
X7.05Y-6.075
X7.5Y-3.825
X7.5Y-4.575
X7.5Y-5.325
X7.5Y-6.075
X7.8Y-3.825
X7.8Y-4.575
X7.8Y-5.325
X7.8Y-6.075
X8.25Y-3.825
X8.25Y-4.575
X8.25Y-5.32
X8.25Y-6.075
X8.55Y-3.825
X8.55Y-4.575
X8.55Y-5.32
X8.55Y-6.075
X9.0Y-3.825
X9.0Y-4.575
X9.0Y-5.325
X9.0Y-6.075
X9.3Y-3.825
X9.3Y-4.575
X9.3Y-5.325
X9.3Y-6.075
T6
X0.75Y-4.1
X0.75Y-4.85
X0.75Y-5.6
X0.75Y-6.35
X1.0Y-4.0
X1.0Y-4.75
X1.0Y-5.5
X1.0Y-6.25
X1.5Y-4.1
X1.5Y-4.85
X1.5Y-6.35
X1.505Y-5.6
X1.75Y-4.0
X1.75Y-4.75
X1.75Y-6.25
X1.755Y-5.5
X2.25Y-4.1
X2.25Y-4.85
X2.25Y-5.6
X2.25Y-6.35
X2.5Y-4.0
X2.5Y-4.75
X2.5Y-5.5
X2.5Y-6.25
X3.0Y-4.1
X3.0Y-4.85
X3.0Y-5.6
X3.0Y-6.35
X3.25Y-4.0
X3.25Y-4.75
X3.25Y-5.5
X3.25Y-6.25
X3.75Y-4.1
X3.75Y-4.85
X3.75Y-5.6
X3.75Y-6.35
X3.8449Y-2.8976
X4.0Y-4.0
X4.0Y-4.75
X4.0Y-5.5
X4.0Y-6.25
X4.0949Y-2.7976
X4.5Y-4.1
X4.5Y-4.85
X4.5Y-5.6
X4.5Y-6.35
X4.75Y-4.0
X4.75Y-4.75
X4.75Y-5.5
X4.75Y-6.25
X5.25Y-4.1
X5.25Y-4.85
X5.25Y-5.6
X5.25Y-6.35
X5.5Y-4.0
X5.5Y-4.75
X5.5Y-5.5
X5.5Y-6.25
X6.0Y-4.1
X6.0Y-4.85
X6.0Y-5.6
X6.0Y-6.35
X6.25Y-4.0
X6.25Y-4.75
X6.25Y-5.5
X6.25Y-6.25
X6.75Y-4.1
X6.75Y-4.85
X6.75Y-5.6
X6.75Y-6.35
X7.0Y-4.0
X7.0Y-4.75
X7.0Y-5.5
X7.0Y-6.25
X7.5Y-4.1
X7.5Y-4.85
X7.5Y-5.6
X7.5Y-6.35
X7.75Y-4.0
X7.75Y-4.75
X7.75Y-5.5
X7.75Y-6.25
X8.25Y-4.1
X8.25Y-4.85
X8.25Y-5.6
X8.25Y-6.35
X8.5Y-4.0
X8.5Y-4.75
X8.5Y-5.5
X8.5Y-6.25
X9.0Y-4.1
X9.0Y-4.85
X9.0Y-5.6
X9.0Y-6.35
X9.25Y-4.0
X9.25Y-4.75
X9.25Y-5.5
X9.25Y-6.25
T4
G00X0.685Y-2.8355
M15
G01X0.685Y-2.9143
M16
G05
G00X0.7638Y-3.0599
M15
G01X0.8425Y-3.0599
M16
G05
G00X0.9213Y-2.8355
M15
G01X0.9213Y-2.9143
M16
G05
T0
M30
