%TF.GenerationSoftware,KiCad,Pcbnew,(6.0.0-0)*%
%TF.CreationDate,2022-08-21T16:01:54-04:00*%
%TF.ProjectId,justin-freetracing,6a757374-696e-42d6-9672-656574726163,rev?*%
%TF.SameCoordinates,Original*%
%TF.FileFunction,Soldermask,Bot*%
%TF.FilePolarity,Negative*%
%FSLAX46Y46*%
G04 Gerber Fmt 4.6, Leading zero omitted, Abs format (unit mm)*
G04 Created by KiCad (PCBNEW (6.0.0-0)) date 2022-08-21 16:01:54*
%MOMM*%
%LPD*%
G01*
G04 APERTURE LIST*
G04 Aperture macros list*
%AMRoundRect*
0 Rectangle with rounded corners*
0 $1 Rounding radius*
0 $2 $3 $4 $5 $6 $7 $8 $9 X,Y pos of 4 corners*
0 Add a 4 corners polygon primitive as box body*
4,1,4,$2,$3,$4,$5,$6,$7,$8,$9,$2,$3,0*
0 Add four circle primitives for the rounded corners*
1,1,$1+$1,$2,$3*
1,1,$1+$1,$4,$5*
1,1,$1+$1,$6,$7*
1,1,$1+$1,$8,$9*
0 Add four rect primitives between the rounded corners*
20,1,$1+$1,$2,$3,$4,$5,0*
20,1,$1+$1,$4,$5,$6,$7,0*
20,1,$1+$1,$6,$7,$8,$9,0*
20,1,$1+$1,$8,$9,$2,$3,0*%
G04 Aperture macros list end*
%ADD10C,1.700000*%
%ADD11C,4.000000*%
%ADD12C,2.200000*%
%ADD13C,2.100000*%
%ADD14R,1.700000X1.700000*%
%ADD15O,1.700000X1.700000*%
%ADD16R,1.600000X1.600000*%
%ADD17C,1.600000*%
%ADD18O,1.600000X1.600000*%
%ADD19R,1.800000X1.800000*%
%ADD20C,1.800000*%
%ADD21R,3.500000X3.500000*%
%ADD22RoundRect,0.750000X-0.750000X-1.000000X0.750000X-1.000000X0.750000X1.000000X-0.750000X1.000000X0*%
%ADD23RoundRect,0.875000X-0.875000X-0.875000X0.875000X-0.875000X0.875000X0.875000X-0.875000X0.875000X0*%
%ADD24C,1.500000*%
%ADD25R,2.200000X2.200000*%
%ADD26O,2.200000X2.200000*%
%ADD27C,1.400000*%
%ADD28O,1.400000X1.400000*%
G04 APERTURE END LIST*
D10*
%TO.C,K27*%
X132080000Y-144780000D03*
D11*
X137160000Y-144780000D03*
D10*
X142240000Y-144780000D03*
D12*
X139700000Y-139700000D03*
X133350000Y-142240000D03*
%TD*%
D13*
%TO.C,REF2*%
X14490000Y-49100000D03*
%TD*%
D10*
%TO.C,K6*%
X46990000Y-125730000D03*
D11*
X41910000Y-125730000D03*
D10*
X36830000Y-125730000D03*
D12*
X44450000Y-120650000D03*
X38100000Y-123190000D03*
%TD*%
D10*
%TO.C,K26*%
X132080000Y-125730000D03*
X142240000Y-125730000D03*
D11*
X137160000Y-125730000D03*
D12*
X139700000Y-120650000D03*
X133350000Y-123190000D03*
%TD*%
D13*
%TO.C,REF1*%
X104540000Y-49980000D03*
%TD*%
D10*
%TO.C,K25*%
X142240000Y-106680000D03*
X132080000Y-106680000D03*
D11*
X137160000Y-106680000D03*
D12*
X139700000Y-101600000D03*
X133350000Y-104140000D03*
%TD*%
D14*
%TO.C,J3*%
X93275000Y-63960000D03*
D15*
X90735000Y-63960000D03*
X88195000Y-63960000D03*
X85655000Y-63960000D03*
X83115000Y-63960000D03*
X80575000Y-63960000D03*
X78035000Y-63960000D03*
X75495000Y-63960000D03*
%TD*%
D16*
%TO.C,C5*%
X17280000Y-62520000D03*
D17*
X17280000Y-60520000D03*
%TD*%
D16*
%TO.C,U1*%
X87985000Y-68705000D03*
D18*
X85445000Y-68705000D03*
X82905000Y-68705000D03*
X80365000Y-68705000D03*
X77825000Y-68705000D03*
X75285000Y-68705000D03*
X72745000Y-68705000D03*
X70205000Y-68705000D03*
X67665000Y-68705000D03*
X65125000Y-68705000D03*
X62585000Y-68705000D03*
X60045000Y-68705000D03*
X57505000Y-68705000D03*
X54965000Y-68705000D03*
X52425000Y-68705000D03*
X49885000Y-68705000D03*
X47345000Y-68705000D03*
X44805000Y-68705000D03*
X42265000Y-68705000D03*
X39725000Y-68705000D03*
X39725000Y-83945000D03*
X42265000Y-83945000D03*
X44805000Y-83945000D03*
X47345000Y-83945000D03*
X49885000Y-83945000D03*
X52425000Y-83945000D03*
X54965000Y-83945000D03*
X57505000Y-83945000D03*
X60045000Y-83945000D03*
X62585000Y-83945000D03*
X65125000Y-83945000D03*
X67665000Y-83945000D03*
X70205000Y-83945000D03*
X72745000Y-83945000D03*
X75285000Y-83945000D03*
X77825000Y-83945000D03*
X80365000Y-83945000D03*
X82905000Y-83945000D03*
X85445000Y-83945000D03*
X87985000Y-83945000D03*
%TD*%
D11*
%TO.C,K44*%
X213360000Y-163830000D03*
D10*
X218440000Y-163830000D03*
X208280000Y-163830000D03*
D12*
X215900000Y-158750000D03*
X209550000Y-161290000D03*
%TD*%
D10*
%TO.C,K33*%
X170180000Y-106680000D03*
D11*
X175260000Y-106680000D03*
D10*
X180340000Y-106680000D03*
D12*
X177800000Y-101600000D03*
X171450000Y-104140000D03*
%TD*%
D10*
%TO.C,K2*%
X27940000Y-125730000D03*
X17780000Y-125730000D03*
D11*
X22860000Y-125730000D03*
D12*
X25400000Y-120650000D03*
X19050000Y-123190000D03*
%TD*%
D16*
%TO.C,C3*%
X60144900Y-89590000D03*
D17*
X62144900Y-89590000D03*
%TD*%
D10*
%TO.C,K36*%
X180340000Y-163830000D03*
X170180000Y-163830000D03*
D11*
X175260000Y-163830000D03*
D12*
X177800000Y-158750000D03*
X171450000Y-161290000D03*
%TD*%
D10*
%TO.C,K8*%
X46990000Y-163830000D03*
D11*
X41910000Y-163830000D03*
D10*
X36830000Y-163830000D03*
D12*
X44450000Y-158750000D03*
X38100000Y-161290000D03*
%TD*%
D19*
%TO.C,D50*%
X32385000Y-80010000D03*
D20*
X34925000Y-80010000D03*
%TD*%
D10*
%TO.C,K12*%
X66040000Y-163830000D03*
D11*
X60960000Y-163830000D03*
D10*
X55880000Y-163830000D03*
D12*
X63500000Y-158750000D03*
X57150000Y-161290000D03*
%TD*%
D10*
%TO.C,K5*%
X46990000Y-106680000D03*
X36830000Y-106680000D03*
D11*
X41910000Y-106680000D03*
D12*
X44450000Y-101600000D03*
X38100000Y-104140000D03*
%TD*%
D10*
%TO.C,K14*%
X74930000Y-125730000D03*
D11*
X80010000Y-125730000D03*
D10*
X85090000Y-125730000D03*
D12*
X82550000Y-120650000D03*
X76200000Y-123190000D03*
%TD*%
D10*
%TO.C,K38*%
X189230000Y-125730000D03*
D11*
X194310000Y-125730000D03*
D10*
X199390000Y-125730000D03*
D12*
X196850000Y-120650000D03*
X190500000Y-123190000D03*
%TD*%
D16*
%TO.C,C4*%
X56780000Y-58185100D03*
D17*
X56780000Y-56185100D03*
%TD*%
D11*
%TO.C,K23*%
X118110000Y-144780000D03*
D10*
X123190000Y-144780000D03*
X113030000Y-144780000D03*
D12*
X120650000Y-139700000D03*
X114300000Y-142240000D03*
%TD*%
D10*
%TO.C,K16*%
X74930000Y-163830000D03*
X85090000Y-163830000D03*
D11*
X80010000Y-163830000D03*
D12*
X82550000Y-158750000D03*
X76200000Y-161290000D03*
%TD*%
D10*
%TO.C,K10*%
X66040000Y-125730000D03*
X55880000Y-125730000D03*
D11*
X60960000Y-125730000D03*
D12*
X63500000Y-120650000D03*
X57150000Y-123190000D03*
%TD*%
D11*
%TO.C,K43*%
X213360000Y-144780000D03*
D10*
X208280000Y-144780000D03*
X218440000Y-144780000D03*
D12*
X215900000Y-139700000D03*
X209550000Y-142240000D03*
%TD*%
D11*
%TO.C,K49*%
X101470000Y-76140000D03*
D10*
X106550000Y-76140000D03*
X96390000Y-76140000D03*
D12*
X104010000Y-71060000D03*
X97660000Y-73600000D03*
%TD*%
D10*
%TO.C,K48*%
X237490000Y-144780000D03*
D11*
X232410000Y-144780000D03*
D10*
X227330000Y-144780000D03*
D12*
X234950000Y-139700000D03*
X228600000Y-142240000D03*
%TD*%
D11*
%TO.C,K13*%
X80010000Y-106680000D03*
D10*
X85090000Y-106680000D03*
X74930000Y-106680000D03*
D12*
X82550000Y-101600000D03*
X76200000Y-104140000D03*
%TD*%
D13*
%TO.C,REF4*%
X242600000Y-176020000D03*
%TD*%
D10*
%TO.C,K29*%
X161290000Y-106680000D03*
D11*
X156210000Y-106680000D03*
D10*
X151130000Y-106680000D03*
D12*
X158750000Y-101600000D03*
X152400000Y-104140000D03*
%TD*%
D10*
%TO.C,K15*%
X85090000Y-144780000D03*
D11*
X80010000Y-144780000D03*
D10*
X74930000Y-144780000D03*
D12*
X82550000Y-139700000D03*
X76200000Y-142240000D03*
%TD*%
D13*
%TO.C,REF6*%
X132080000Y-175895000D03*
%TD*%
D10*
%TO.C,K7*%
X47117000Y-144780000D03*
X36957000Y-144780000D03*
D11*
X42037000Y-144780000D03*
D12*
X44577000Y-139700000D03*
X38227000Y-142240000D03*
%TD*%
D10*
%TO.C,K47*%
X227330000Y-125730000D03*
D11*
X232410000Y-125730000D03*
D10*
X237490000Y-125730000D03*
D12*
X234950000Y-120650000D03*
X228600000Y-123190000D03*
%TD*%
D10*
%TO.C,K28*%
X132080000Y-163830000D03*
D11*
X137160000Y-163830000D03*
D10*
X142240000Y-163830000D03*
D12*
X139700000Y-158750000D03*
X133350000Y-161290000D03*
%TD*%
D11*
%TO.C,K46*%
X232410000Y-106680000D03*
D10*
X237490000Y-106680000D03*
X227330000Y-106680000D03*
D12*
X234950000Y-101600000D03*
X228600000Y-104140000D03*
%TD*%
D10*
%TO.C,K9*%
X55880000Y-106680000D03*
D11*
X60960000Y-106680000D03*
D10*
X66040000Y-106680000D03*
D12*
X63500000Y-101600000D03*
X57150000Y-104140000D03*
%TD*%
D16*
%TO.C,C6*%
X22800000Y-83640000D03*
D17*
X20800000Y-83640000D03*
%TD*%
D13*
%TO.C,REF3*%
X12250000Y-175650000D03*
%TD*%
D10*
%TO.C,K20*%
X93980000Y-163830000D03*
X104140000Y-163830000D03*
D11*
X99060000Y-163830000D03*
D12*
X101600000Y-158750000D03*
X95250000Y-161290000D03*
%TD*%
D11*
%TO.C,K45*%
X232410000Y-163830000D03*
D10*
X237490000Y-163830000D03*
X227330000Y-163830000D03*
D12*
X234950000Y-158750000D03*
X228600000Y-161290000D03*
%TD*%
D11*
%TO.C,K17*%
X99060000Y-106680000D03*
D10*
X93980000Y-106680000D03*
X104140000Y-106680000D03*
D12*
X101600000Y-101600000D03*
X95250000Y-104140000D03*
%TD*%
D11*
%TO.C,K34*%
X175260000Y-125730000D03*
D10*
X180340000Y-125730000D03*
X170180000Y-125730000D03*
D12*
X177800000Y-120650000D03*
X171450000Y-123190000D03*
%TD*%
D10*
%TO.C,K32*%
X161290000Y-163830000D03*
D11*
X156210000Y-163830000D03*
D10*
X151130000Y-163830000D03*
D12*
X158750000Y-158750000D03*
X152400000Y-161290000D03*
%TD*%
D10*
%TO.C,K40*%
X189230000Y-163830000D03*
X199390000Y-163830000D03*
D11*
X194310000Y-163830000D03*
D12*
X196850000Y-158750000D03*
X190500000Y-161290000D03*
%TD*%
D10*
%TO.C,K31*%
X161290000Y-144780000D03*
X151130000Y-144780000D03*
D11*
X156210000Y-144780000D03*
D12*
X158750000Y-139700000D03*
X152400000Y-142240000D03*
%TD*%
D10*
%TO.C,K18*%
X104140000Y-125730000D03*
D11*
X99060000Y-125730000D03*
D10*
X93980000Y-125730000D03*
D12*
X101600000Y-120650000D03*
X95250000Y-123190000D03*
%TD*%
D10*
%TO.C,K41*%
X218440000Y-106680000D03*
X208280000Y-106680000D03*
D11*
X213360000Y-106680000D03*
D12*
X215900000Y-101600000D03*
X209550000Y-104140000D03*
%TD*%
D10*
%TO.C,K39*%
X199390000Y-144780000D03*
X189230000Y-144780000D03*
D11*
X194310000Y-144780000D03*
D12*
X196850000Y-139700000D03*
X190500000Y-142240000D03*
%TD*%
D10*
%TO.C,K21*%
X113030000Y-106680000D03*
D11*
X118110000Y-106680000D03*
D10*
X123190000Y-106680000D03*
D12*
X120650000Y-101600000D03*
X114300000Y-104140000D03*
%TD*%
D14*
%TO.C,J2*%
X79170000Y-55330000D03*
D15*
X76630000Y-55330000D03*
X79170000Y-52790000D03*
X76630000Y-52790000D03*
X79170000Y-50250000D03*
X76630000Y-50250000D03*
%TD*%
D21*
%TO.C,J5*%
X23400000Y-73022500D03*
D22*
X17400000Y-73022500D03*
D23*
X20400000Y-77722500D03*
%TD*%
D17*
%TO.C,C2*%
X68940000Y-56560000D03*
X68940000Y-59060000D03*
%TD*%
D10*
%TO.C,K37*%
X189230000Y-106680000D03*
D11*
X194310000Y-106680000D03*
D10*
X199390000Y-106680000D03*
D12*
X196850000Y-101600000D03*
X190500000Y-104140000D03*
%TD*%
D19*
%TO.C,D49*%
X32385000Y-72390000D03*
D20*
X34925000Y-72390000D03*
%TD*%
D14*
%TO.C,J1*%
X53370000Y-62020000D03*
D15*
X50830000Y-62020000D03*
X48290000Y-62020000D03*
X45750000Y-62020000D03*
X43210000Y-62020000D03*
X40670000Y-62020000D03*
X38130000Y-62020000D03*
X35590000Y-62020000D03*
%TD*%
D11*
%TO.C,K3*%
X22860000Y-144780000D03*
D10*
X17780000Y-144780000D03*
X27940000Y-144780000D03*
D12*
X25400000Y-139700000D03*
X19050000Y-142240000D03*
%TD*%
D10*
%TO.C,K24*%
X113030000Y-163830000D03*
X123190000Y-163830000D03*
D11*
X118110000Y-163830000D03*
D12*
X120650000Y-158750000D03*
X114300000Y-161290000D03*
%TD*%
D17*
%TO.C,C1*%
X64190000Y-56580000D03*
X64190000Y-59080000D03*
%TD*%
D10*
%TO.C,K1*%
X17780000Y-106680000D03*
X27940000Y-106680000D03*
D11*
X22860000Y-106680000D03*
D12*
X25400000Y-101600000D03*
X19050000Y-104140000D03*
%TD*%
D10*
%TO.C,K42*%
X208280000Y-125730000D03*
X218440000Y-125730000D03*
D11*
X213360000Y-125730000D03*
D12*
X215900000Y-120650000D03*
X209550000Y-123190000D03*
%TD*%
D10*
%TO.C,K19*%
X104140000Y-144780000D03*
D11*
X99060000Y-144780000D03*
D10*
X93980000Y-144780000D03*
D12*
X101600000Y-139700000D03*
X95250000Y-142240000D03*
%TD*%
D10*
%TO.C,K35*%
X180340000Y-144780000D03*
D11*
X175260000Y-144780000D03*
D10*
X170180000Y-144780000D03*
D12*
X177800000Y-139700000D03*
X171450000Y-142240000D03*
%TD*%
D11*
%TO.C,K11*%
X60960000Y-144780000D03*
D10*
X55880000Y-144780000D03*
X66040000Y-144780000D03*
D12*
X63500000Y-139700000D03*
X57150000Y-142240000D03*
%TD*%
D10*
%TO.C,K22*%
X123190000Y-125730000D03*
D11*
X118110000Y-125730000D03*
D10*
X113030000Y-125730000D03*
D12*
X120650000Y-120650000D03*
X114300000Y-123190000D03*
%TD*%
D10*
%TO.C,K4*%
X27940000Y-163830000D03*
D11*
X22860000Y-163830000D03*
D10*
X17780000Y-163830000D03*
D12*
X25400000Y-158750000D03*
X19050000Y-161290000D03*
%TD*%
D24*
%TO.C,Y1*%
X68995000Y-63085000D03*
X64115000Y-63085000D03*
%TD*%
D13*
%TO.C,REF7*%
X242030000Y-94170000D03*
%TD*%
D11*
%TO.C,K30*%
X156210000Y-125730000D03*
D10*
X151130000Y-125730000D03*
X161290000Y-125730000D03*
D12*
X158750000Y-120650000D03*
X152400000Y-123190000D03*
%TD*%
D25*
%TO.C,D45*%
X236220000Y-154305000D03*
D26*
X228600000Y-154305000D03*
%TD*%
D25*
%TO.C,D17*%
X102870000Y-97155000D03*
D26*
X95250000Y-97155000D03*
%TD*%
D25*
%TO.C,D25*%
X140970000Y-97155000D03*
D26*
X133350000Y-97155000D03*
%TD*%
D25*
%TO.C,D23*%
X121920000Y-135255000D03*
D26*
X114300000Y-135255000D03*
%TD*%
D25*
%TO.C,D7*%
X45720000Y-135255000D03*
D26*
X38100000Y-135255000D03*
%TD*%
D25*
%TO.C,D37*%
X198120000Y-97155000D03*
D26*
X190500000Y-97155000D03*
%TD*%
D25*
%TO.C,D41*%
X217170000Y-97155000D03*
D26*
X209550000Y-97155000D03*
%TD*%
D25*
%TO.C,D28*%
X140970000Y-154305000D03*
D26*
X133350000Y-154305000D03*
%TD*%
D25*
%TO.C,D11*%
X64770000Y-135255000D03*
D26*
X57150000Y-135255000D03*
%TD*%
D25*
%TO.C,D43*%
X217170000Y-135128000D03*
D26*
X209550000Y-135128000D03*
%TD*%
D27*
%TO.C,R1*%
X28575000Y-72390000D03*
D28*
X28575000Y-67310000D03*
%TD*%
D25*
%TO.C,D21*%
X121920000Y-97155000D03*
D26*
X114300000Y-97155000D03*
%TD*%
D25*
%TO.C,D27*%
X140970000Y-135255000D03*
D26*
X133350000Y-135255000D03*
%TD*%
D25*
%TO.C,D35*%
X179070000Y-135255000D03*
D26*
X171450000Y-135255000D03*
%TD*%
D25*
%TO.C,D16*%
X83820000Y-154305000D03*
D26*
X76200000Y-154305000D03*
%TD*%
D25*
%TO.C,D19*%
X102870000Y-135255000D03*
D26*
X95250000Y-135255000D03*
%TD*%
D25*
%TO.C,D42*%
X217170000Y-116205000D03*
D26*
X209550000Y-116205000D03*
%TD*%
D25*
%TO.C,D31*%
X160020000Y-135255000D03*
D26*
X152400000Y-135255000D03*
%TD*%
D25*
%TO.C,D38*%
X198120000Y-116205000D03*
D26*
X190500000Y-116205000D03*
%TD*%
D25*
%TO.C,D15*%
X83820000Y-135255000D03*
D26*
X76200000Y-135255000D03*
%TD*%
D25*
%TO.C,D34*%
X179070000Y-116205000D03*
D26*
X171450000Y-116205000D03*
%TD*%
D25*
%TO.C,D10*%
X64770000Y-116205000D03*
D26*
X57150000Y-116205000D03*
%TD*%
D25*
%TO.C,D40*%
X198120000Y-154305000D03*
D26*
X190500000Y-154305000D03*
%TD*%
D25*
%TO.C,D13*%
X83820000Y-97155000D03*
D26*
X76200000Y-97155000D03*
%TD*%
D25*
%TO.C,D29*%
X160020000Y-97155000D03*
D26*
X152400000Y-97155000D03*
%TD*%
D25*
%TO.C,D6*%
X45720000Y-116205000D03*
D26*
X38100000Y-116205000D03*
%TD*%
D25*
%TO.C,D5*%
X45720000Y-97155000D03*
D26*
X38100000Y-97155000D03*
%TD*%
D25*
%TO.C,D12*%
X64770000Y-154305000D03*
D26*
X57150000Y-154305000D03*
%TD*%
D25*
%TO.C,D32*%
X160020000Y-154305000D03*
D26*
X152400000Y-154305000D03*
%TD*%
D25*
%TO.C,D44*%
X217170000Y-154305000D03*
D26*
X209550000Y-154305000D03*
%TD*%
D25*
%TO.C,D8*%
X45720000Y-154305000D03*
D26*
X38100000Y-154305000D03*
%TD*%
D25*
%TO.C,D9*%
X64770000Y-97155000D03*
D26*
X57150000Y-97155000D03*
%TD*%
D25*
%TO.C,D14*%
X83820000Y-116205000D03*
D26*
X76200000Y-116205000D03*
%TD*%
D27*
%TO.C,R2*%
X28575000Y-85725000D03*
D28*
X28575000Y-80645000D03*
%TD*%
D25*
%TO.C,D20*%
X102870000Y-154305000D03*
D26*
X95250000Y-154305000D03*
%TD*%
D25*
%TO.C,D46*%
X236220000Y-97155000D03*
D26*
X228600000Y-97155000D03*
%TD*%
D25*
%TO.C,D18*%
X102870000Y-116205000D03*
D26*
X95250000Y-116205000D03*
%TD*%
D25*
%TO.C,D47*%
X236220000Y-116205000D03*
D26*
X228600000Y-116205000D03*
%TD*%
D25*
%TO.C,D24*%
X121920000Y-154305000D03*
D26*
X114300000Y-154305000D03*
%TD*%
D25*
%TO.C,D22*%
X121920000Y-116205000D03*
D26*
X114300000Y-116205000D03*
%TD*%
D27*
%TO.C,R3*%
X97170000Y-60050000D03*
D28*
X97170000Y-65130000D03*
%TD*%
D25*
%TO.C,D4*%
X26670000Y-154305000D03*
D26*
X19050000Y-154305000D03*
%TD*%
D25*
%TO.C,D3*%
X26670000Y-135255000D03*
D26*
X19050000Y-135255000D03*
%TD*%
D25*
%TO.C,D1*%
X26670000Y-97155000D03*
D26*
X19050000Y-97155000D03*
%TD*%
D25*
%TO.C,D33*%
X179070000Y-97155000D03*
D26*
X171450000Y-97155000D03*
%TD*%
D25*
%TO.C,D2*%
X26670000Y-116205000D03*
D26*
X19050000Y-116205000D03*
%TD*%
D25*
%TO.C,D39*%
X198120000Y-135255000D03*
D26*
X190500000Y-135255000D03*
%TD*%
D25*
%TO.C,D26*%
X140970000Y-116205000D03*
D26*
X133350000Y-116205000D03*
%TD*%
D25*
%TO.C,D48*%
X236220000Y-135255000D03*
D26*
X228600000Y-135255000D03*
%TD*%
D25*
%TO.C,D36*%
X179070000Y-154305000D03*
D26*
X171450000Y-154305000D03*
%TD*%
D25*
%TO.C,D30*%
X160020000Y-116205000D03*
D26*
X152400000Y-116205000D03*
%TD*%
M02*
