M48
; DRILL file {KiCad (6.0.0-0)} date Thursday, September 22, 2022 at 12:13:07 AM
; FORMAT={-:-/ absolute / inch / decimal}
; #@! TF.CreationDate,2022-09-22T00:13:07-04:00
; #@! TF.GenerationSoftware,Kicad,Pcbnew,(6.0.0-0)
; #@! TF.FileFunction,Plated,1,2,PTH
FMAT,2
INCH
; #@! TA.AperFunction,Plated,PTH,ComponentDrill
T1C0.0276
; #@! TA.AperFunction,Plated,PTH,ComponentDrill
T2C0.0315
; #@! TA.AperFunction,Plated,PTH,ComponentDrill
T3C0.0354
; #@! TA.AperFunction,Plated,PTH,ComponentDrill
T4C0.0394
; #@! TA.AperFunction,Plated,PTH,ComponentDrill
T5C0.0433
; #@! TA.AperFunction,Plated,PTH,ComponentDrill
T6C0.0591
%
G90
G05
T1
X1.125Y-2.55
X1.125Y-2.85
X1.125Y-3.075
X1.125Y-3.375
X5.65Y-2.2
X5.65Y-2.5
T2
X0.6803Y-2.3827
X0.6803Y-2.4614
X0.8189Y-3.2929
X0.8976Y-3.2929
X1.85Y-3.5
X1.9287Y-3.5
X2.4Y-2.75
X2.4Y-3.35
X2.5Y-2.75
X2.5Y-3.35
X2.6Y-2.75
X2.6Y-3.35
X2.7Y-2.0213
X2.7Y-2.1
X2.7Y-2.75
X2.7Y-3.35
X2.8Y-2.75
X2.8Y-3.35
X2.9Y-2.75
X2.9Y-3.35
X3.0Y-2.75
X3.0Y-3.35
X3.097Y-2.5061
X3.1Y-2.25
X3.1Y-2.3484
X3.1Y-2.75
X3.1Y-3.35
X3.2Y-2.75
X3.2Y-3.35
X3.287Y-2.2492
X3.287Y-2.3476
X3.2892Y-2.5061
X3.3Y-2.75
X3.3Y-3.35
X3.4Y-2.75
X3.4Y-3.35
X3.5Y-2.75
X3.5Y-3.35
X3.6Y-2.75
X3.6Y-3.35
X3.7Y-2.75
X3.7Y-3.35
X3.8Y-2.75
X3.8Y-3.35
X3.9Y-2.75
X3.9Y-3.35
X4.0Y-2.75
X4.0Y-3.35
X4.1Y-2.75
X4.1Y-3.35
X4.2Y-2.75
X4.2Y-3.35
X4.3Y-2.75
X4.3Y-3.35
T3
X1.45Y-2.85
X1.45Y-3.15
X1.55Y-2.85
X1.55Y-3.15
T4
X1.5953Y-2.0433
X1.5953Y-2.1433
X1.5953Y-2.2433
X1.6953Y-2.0433
X1.6953Y-2.1433
X1.6953Y-2.2433
X1.95Y-2.55
X2.05Y-2.55
X2.15Y-2.55
X2.25Y-2.55
X2.35Y-2.55
X2.45Y-2.55
X2.55Y-2.55
X2.65Y-2.55
X3.4937Y-2.0912
X3.5937Y-2.0912
X3.6Y-2.55
X3.6937Y-2.0912
X3.7Y-2.55
X3.8Y-2.55
X3.9Y-2.55
X4.0Y-2.55
X4.1Y-2.55
X4.2Y-2.55
X4.3Y-2.55
T5
X0.75Y-3.825
X0.75Y-4.575
X0.75Y-5.325
X0.75Y-6.075
X1.05Y-3.825
X1.05Y-4.575
X1.05Y-5.325
X1.05Y-6.075
X1.5Y-3.825
X1.5Y-4.575
X1.5Y-5.325
X1.5Y-6.075
X1.8Y-3.825
X1.8Y-4.575
X1.8Y-5.325
X1.8Y-6.075
X2.25Y-3.825
X2.25Y-4.575
X2.25Y-5.325
X2.25Y-6.075
X2.55Y-3.825
X2.55Y-4.575
X2.55Y-5.325
X2.55Y-6.075
X3.0Y-3.825
X3.0Y-4.575
X3.0Y-5.325
X3.0Y-6.075
X3.3Y-3.825
X3.3Y-4.575
X3.3Y-5.325
X3.3Y-6.075
X3.75Y-3.825
X3.75Y-4.575
X3.75Y-5.325
X3.75Y-6.075
X4.05Y-3.825
X4.05Y-4.575
X4.05Y-5.325
X4.05Y-6.075
X4.5Y-3.825
X4.5Y-4.575
X4.5Y-5.325
X4.5Y-6.075
X4.8Y-3.825
X4.8Y-4.575
X4.8Y-5.325
X4.8Y-6.075
X5.25Y-3.825
X5.25Y-4.575
X5.25Y-5.325
X5.25Y-6.075
X5.55Y-3.825
X5.55Y-4.575
X5.55Y-5.325
X5.55Y-6.075
X6.0Y-3.825
X6.0Y-4.575
X6.0Y-5.325
X6.0Y-6.075
X6.3Y-3.825
X6.3Y-4.575
X6.3Y-5.325
X6.3Y-6.075
X6.75Y-3.825
X6.75Y-4.575
X6.75Y-5.325
X6.75Y-6.075
X7.05Y-3.825
X7.05Y-4.575
X7.05Y-5.325
X7.05Y-6.075
X7.5Y-3.825
X7.5Y-4.575
X7.5Y-5.325
X7.5Y-6.075
X7.8Y-3.825
X7.8Y-4.575
X7.8Y-5.325
X7.8Y-6.075
X8.25Y-3.825
X8.25Y-4.575
X8.25Y-5.32
X8.25Y-6.075
X8.55Y-3.825
X8.55Y-4.575
X8.55Y-5.32
X8.55Y-6.075
X9.0Y-3.825
X9.0Y-4.575
X9.0Y-5.325
X9.0Y-6.075
X9.3Y-3.825
X9.3Y-4.575
X9.3Y-5.325
X9.3Y-6.075
T6
X0.75Y-4.1
X0.75Y-4.85
X0.75Y-5.6
X0.75Y-6.35
X1.0Y-4.0
X1.0Y-4.75
X1.0Y-5.5
X1.0Y-6.25
X1.5Y-4.1
X1.5Y-4.85
X1.5Y-6.35
X1.505Y-5.6
X1.75Y-4.0
X1.75Y-4.75
X1.75Y-6.25
X1.755Y-5.5
X2.25Y-4.1
X2.25Y-4.85
X2.25Y-5.6
X2.25Y-6.35
X2.5Y-4.0
X2.5Y-4.75
X2.5Y-5.5
X2.5Y-6.25
X3.0Y-4.1
X3.0Y-4.85
X3.0Y-5.6
X3.0Y-6.35
X3.25Y-4.0
X3.25Y-4.75
X3.25Y-5.5
X3.25Y-6.25
X3.75Y-4.1
X3.75Y-4.85
X3.75Y-5.6
X3.75Y-6.35
X4.0Y-4.0
X4.0Y-4.75
X4.0Y-5.5
X4.0Y-6.25
X4.5Y-4.1
X4.5Y-4.85
X4.5Y-5.6
X4.5Y-6.35
X4.75Y-4.0
X4.75Y-4.75
X4.75Y-5.5
X4.75Y-6.25
X5.25Y-2.85
X5.25Y-4.1
X5.25Y-4.85
X5.25Y-5.6
X5.25Y-6.35
X5.5Y-2.75
X5.5Y-4.0
X5.5Y-4.75
X5.5Y-5.5
X5.5Y-6.25
X6.0Y-4.1
X6.0Y-4.85
X6.0Y-5.6
X6.0Y-6.35
X6.25Y-4.0
X6.25Y-4.75
X6.25Y-5.5
X6.25Y-6.25
X6.75Y-4.1
X6.75Y-4.85
X6.75Y-5.6
X6.75Y-6.35
X7.0Y-4.0
X7.0Y-4.75
X7.0Y-5.5
X7.0Y-6.25
X7.5Y-4.1
X7.5Y-4.85
X7.5Y-5.6
X7.5Y-6.35
X7.75Y-4.0
X7.75Y-4.75
X7.75Y-5.5
X7.75Y-6.25
X8.25Y-4.1
X8.25Y-4.85
X8.25Y-5.6
X8.25Y-6.35
X8.5Y-4.0
X8.5Y-4.75
X8.5Y-5.5
X8.5Y-6.25
X9.0Y-4.1
X9.0Y-4.85
X9.0Y-5.6
X9.0Y-6.35
X9.25Y-4.0
X9.25Y-4.75
X9.25Y-5.5
X9.25Y-6.25
T4
G00X0.685Y-2.8355
M15
G01X0.685Y-2.9143
M16
G05
G00X0.7638Y-3.0599
M15
G01X0.8425Y-3.0599
M16
G05
G00X0.9213Y-2.8355
M15
G01X0.9213Y-2.9143
M16
G05
T0
M30
