%TF.GenerationSoftware,KiCad,Pcbnew,(6.0.0-0)*%
%TF.CreationDate,2022-08-21T16:01:54-04:00*%
%TF.ProjectId,justin-freetracing,6a757374-696e-42d6-9672-656574726163,rev?*%
%TF.SameCoordinates,Original*%
%TF.FileFunction,Legend,Bot*%
%TF.FilePolarity,Positive*%
%FSLAX46Y46*%
G04 Gerber Fmt 4.6, Leading zero omitted, Abs format (unit mm)*
G04 Created by KiCad (PCBNEW (6.0.0-0)) date 2022-08-21 16:01:54*
%MOMM*%
%LPD*%
G01*
G04 APERTURE LIST*
%ADD10C,0.150000*%
%ADD11C,0.120000*%
G04 APERTURE END LIST*
D10*
X100505238Y-62932380D02*
X101076666Y-62932380D01*
X100790952Y-62932380D02*
X100790952Y-61932380D01*
X100886190Y-62075238D01*
X100981428Y-62170476D01*
X101076666Y-62218095D01*
X99886190Y-61932380D02*
X99790952Y-61932380D01*
X99695714Y-61980000D01*
X99648095Y-62027619D01*
X99600476Y-62122857D01*
X99552857Y-62313333D01*
X99552857Y-62551428D01*
X99600476Y-62741904D01*
X99648095Y-62837142D01*
X99695714Y-62884761D01*
X99790952Y-62932380D01*
X99886190Y-62932380D01*
X99981428Y-62884761D01*
X100029047Y-62837142D01*
X100076666Y-62741904D01*
X100124285Y-62551428D01*
X100124285Y-62313333D01*
X100076666Y-62122857D01*
X100029047Y-62027619D01*
X99981428Y-61980000D01*
X99886190Y-61932380D01*
X99124285Y-62932380D02*
X99124285Y-61932380D01*
X99029047Y-62551428D02*
X98743333Y-62932380D01*
X98743333Y-62265714D02*
X99124285Y-62646666D01*
%TO.C,D45*%
X233624285Y-152287380D02*
X233624285Y-151287380D01*
X233386190Y-151287380D01*
X233243333Y-151335000D01*
X233148095Y-151430238D01*
X233100476Y-151525476D01*
X233052857Y-151715952D01*
X233052857Y-151858809D01*
X233100476Y-152049285D01*
X233148095Y-152144523D01*
X233243333Y-152239761D01*
X233386190Y-152287380D01*
X233624285Y-152287380D01*
X232195714Y-151620714D02*
X232195714Y-152287380D01*
X232433809Y-151239761D02*
X232671904Y-151954047D01*
X232052857Y-151954047D01*
X231195714Y-151287380D02*
X231671904Y-151287380D01*
X231719523Y-151763571D01*
X231671904Y-151715952D01*
X231576666Y-151668333D01*
X231338571Y-151668333D01*
X231243333Y-151715952D01*
X231195714Y-151763571D01*
X231148095Y-151858809D01*
X231148095Y-152096904D01*
X231195714Y-152192142D01*
X231243333Y-152239761D01*
X231338571Y-152287380D01*
X231576666Y-152287380D01*
X231671904Y-152239761D01*
X231719523Y-152192142D01*
%TO.C,D17*%
X100274285Y-95137380D02*
X100274285Y-94137380D01*
X100036190Y-94137380D01*
X99893333Y-94185000D01*
X99798095Y-94280238D01*
X99750476Y-94375476D01*
X99702857Y-94565952D01*
X99702857Y-94708809D01*
X99750476Y-94899285D01*
X99798095Y-94994523D01*
X99893333Y-95089761D01*
X100036190Y-95137380D01*
X100274285Y-95137380D01*
X98750476Y-95137380D02*
X99321904Y-95137380D01*
X99036190Y-95137380D02*
X99036190Y-94137380D01*
X99131428Y-94280238D01*
X99226666Y-94375476D01*
X99321904Y-94423095D01*
X98417142Y-94137380D02*
X97750476Y-94137380D01*
X98179047Y-95137380D01*
X103131904Y-95507380D02*
X103131904Y-94507380D01*
X102560476Y-95507380D02*
X102989047Y-94935952D01*
X102560476Y-94507380D02*
X103131904Y-95078809D01*
%TO.C,D25*%
X138374285Y-95137380D02*
X138374285Y-94137380D01*
X138136190Y-94137380D01*
X137993333Y-94185000D01*
X137898095Y-94280238D01*
X137850476Y-94375476D01*
X137802857Y-94565952D01*
X137802857Y-94708809D01*
X137850476Y-94899285D01*
X137898095Y-94994523D01*
X137993333Y-95089761D01*
X138136190Y-95137380D01*
X138374285Y-95137380D01*
X137421904Y-94232619D02*
X137374285Y-94185000D01*
X137279047Y-94137380D01*
X137040952Y-94137380D01*
X136945714Y-94185000D01*
X136898095Y-94232619D01*
X136850476Y-94327857D01*
X136850476Y-94423095D01*
X136898095Y-94565952D01*
X137469523Y-95137380D01*
X136850476Y-95137380D01*
X135945714Y-94137380D02*
X136421904Y-94137380D01*
X136469523Y-94613571D01*
X136421904Y-94565952D01*
X136326666Y-94518333D01*
X136088571Y-94518333D01*
X135993333Y-94565952D01*
X135945714Y-94613571D01*
X135898095Y-94708809D01*
X135898095Y-94946904D01*
X135945714Y-95042142D01*
X135993333Y-95089761D01*
X136088571Y-95137380D01*
X136326666Y-95137380D01*
X136421904Y-95089761D01*
X136469523Y-95042142D01*
X141231904Y-95507380D02*
X141231904Y-94507380D01*
X140660476Y-95507380D02*
X141089047Y-94935952D01*
X140660476Y-94507380D02*
X141231904Y-95078809D01*
%TO.C,D23*%
X119324285Y-133237380D02*
X119324285Y-132237380D01*
X119086190Y-132237380D01*
X118943333Y-132285000D01*
X118848095Y-132380238D01*
X118800476Y-132475476D01*
X118752857Y-132665952D01*
X118752857Y-132808809D01*
X118800476Y-132999285D01*
X118848095Y-133094523D01*
X118943333Y-133189761D01*
X119086190Y-133237380D01*
X119324285Y-133237380D01*
X118371904Y-132332619D02*
X118324285Y-132285000D01*
X118229047Y-132237380D01*
X117990952Y-132237380D01*
X117895714Y-132285000D01*
X117848095Y-132332619D01*
X117800476Y-132427857D01*
X117800476Y-132523095D01*
X117848095Y-132665952D01*
X118419523Y-133237380D01*
X117800476Y-133237380D01*
X117467142Y-132237380D02*
X116848095Y-132237380D01*
X117181428Y-132618333D01*
X117038571Y-132618333D01*
X116943333Y-132665952D01*
X116895714Y-132713571D01*
X116848095Y-132808809D01*
X116848095Y-133046904D01*
X116895714Y-133142142D01*
X116943333Y-133189761D01*
X117038571Y-133237380D01*
X117324285Y-133237380D01*
X117419523Y-133189761D01*
X117467142Y-133142142D01*
X122181904Y-133607380D02*
X122181904Y-132607380D01*
X121610476Y-133607380D02*
X122039047Y-133035952D01*
X121610476Y-132607380D02*
X122181904Y-133178809D01*
%TO.C,D7*%
X42648095Y-133237380D02*
X42648095Y-132237380D01*
X42410000Y-132237380D01*
X42267142Y-132285000D01*
X42171904Y-132380238D01*
X42124285Y-132475476D01*
X42076666Y-132665952D01*
X42076666Y-132808809D01*
X42124285Y-132999285D01*
X42171904Y-133094523D01*
X42267142Y-133189761D01*
X42410000Y-133237380D01*
X42648095Y-133237380D01*
X41743333Y-132237380D02*
X41076666Y-132237380D01*
X41505238Y-133237380D01*
X45981904Y-133607380D02*
X45981904Y-132607380D01*
X45410476Y-133607380D02*
X45839047Y-133035952D01*
X45410476Y-132607380D02*
X45981904Y-133178809D01*
%TO.C,D37*%
X195524285Y-95137380D02*
X195524285Y-94137380D01*
X195286190Y-94137380D01*
X195143333Y-94185000D01*
X195048095Y-94280238D01*
X195000476Y-94375476D01*
X194952857Y-94565952D01*
X194952857Y-94708809D01*
X195000476Y-94899285D01*
X195048095Y-94994523D01*
X195143333Y-95089761D01*
X195286190Y-95137380D01*
X195524285Y-95137380D01*
X194619523Y-94137380D02*
X194000476Y-94137380D01*
X194333809Y-94518333D01*
X194190952Y-94518333D01*
X194095714Y-94565952D01*
X194048095Y-94613571D01*
X194000476Y-94708809D01*
X194000476Y-94946904D01*
X194048095Y-95042142D01*
X194095714Y-95089761D01*
X194190952Y-95137380D01*
X194476666Y-95137380D01*
X194571904Y-95089761D01*
X194619523Y-95042142D01*
X193667142Y-94137380D02*
X193000476Y-94137380D01*
X193429047Y-95137380D01*
X198381904Y-95507380D02*
X198381904Y-94507380D01*
X197810476Y-95507380D02*
X198239047Y-94935952D01*
X197810476Y-94507380D02*
X198381904Y-95078809D01*
%TO.C,D41*%
X214574285Y-95137380D02*
X214574285Y-94137380D01*
X214336190Y-94137380D01*
X214193333Y-94185000D01*
X214098095Y-94280238D01*
X214050476Y-94375476D01*
X214002857Y-94565952D01*
X214002857Y-94708809D01*
X214050476Y-94899285D01*
X214098095Y-94994523D01*
X214193333Y-95089761D01*
X214336190Y-95137380D01*
X214574285Y-95137380D01*
X213145714Y-94470714D02*
X213145714Y-95137380D01*
X213383809Y-94089761D02*
X213621904Y-94804047D01*
X213002857Y-94804047D01*
X212098095Y-95137380D02*
X212669523Y-95137380D01*
X212383809Y-95137380D02*
X212383809Y-94137380D01*
X212479047Y-94280238D01*
X212574285Y-94375476D01*
X212669523Y-94423095D01*
%TO.C,D28*%
X138374285Y-152287380D02*
X138374285Y-151287380D01*
X138136190Y-151287380D01*
X137993333Y-151335000D01*
X137898095Y-151430238D01*
X137850476Y-151525476D01*
X137802857Y-151715952D01*
X137802857Y-151858809D01*
X137850476Y-152049285D01*
X137898095Y-152144523D01*
X137993333Y-152239761D01*
X138136190Y-152287380D01*
X138374285Y-152287380D01*
X137421904Y-151382619D02*
X137374285Y-151335000D01*
X137279047Y-151287380D01*
X137040952Y-151287380D01*
X136945714Y-151335000D01*
X136898095Y-151382619D01*
X136850476Y-151477857D01*
X136850476Y-151573095D01*
X136898095Y-151715952D01*
X137469523Y-152287380D01*
X136850476Y-152287380D01*
X136279047Y-151715952D02*
X136374285Y-151668333D01*
X136421904Y-151620714D01*
X136469523Y-151525476D01*
X136469523Y-151477857D01*
X136421904Y-151382619D01*
X136374285Y-151335000D01*
X136279047Y-151287380D01*
X136088571Y-151287380D01*
X135993333Y-151335000D01*
X135945714Y-151382619D01*
X135898095Y-151477857D01*
X135898095Y-151525476D01*
X135945714Y-151620714D01*
X135993333Y-151668333D01*
X136088571Y-151715952D01*
X136279047Y-151715952D01*
X136374285Y-151763571D01*
X136421904Y-151811190D01*
X136469523Y-151906428D01*
X136469523Y-152096904D01*
X136421904Y-152192142D01*
X136374285Y-152239761D01*
X136279047Y-152287380D01*
X136088571Y-152287380D01*
X135993333Y-152239761D01*
X135945714Y-152192142D01*
X135898095Y-152096904D01*
X135898095Y-151906428D01*
X135945714Y-151811190D01*
X135993333Y-151763571D01*
X136088571Y-151715952D01*
X141231904Y-152657380D02*
X141231904Y-151657380D01*
X140660476Y-152657380D02*
X141089047Y-152085952D01*
X140660476Y-151657380D02*
X141231904Y-152228809D01*
%TO.C,D11*%
X62174285Y-133237380D02*
X62174285Y-132237380D01*
X61936190Y-132237380D01*
X61793333Y-132285000D01*
X61698095Y-132380238D01*
X61650476Y-132475476D01*
X61602857Y-132665952D01*
X61602857Y-132808809D01*
X61650476Y-132999285D01*
X61698095Y-133094523D01*
X61793333Y-133189761D01*
X61936190Y-133237380D01*
X62174285Y-133237380D01*
X60650476Y-133237380D02*
X61221904Y-133237380D01*
X60936190Y-133237380D02*
X60936190Y-132237380D01*
X61031428Y-132380238D01*
X61126666Y-132475476D01*
X61221904Y-132523095D01*
X59698095Y-133237380D02*
X60269523Y-133237380D01*
X59983809Y-133237380D02*
X59983809Y-132237380D01*
X60079047Y-132380238D01*
X60174285Y-132475476D01*
X60269523Y-132523095D01*
X65031904Y-133607380D02*
X65031904Y-132607380D01*
X64460476Y-133607380D02*
X64889047Y-133035952D01*
X64460476Y-132607380D02*
X65031904Y-133178809D01*
%TO.C,D43*%
X214574285Y-133110380D02*
X214574285Y-132110380D01*
X214336190Y-132110380D01*
X214193333Y-132158000D01*
X214098095Y-132253238D01*
X214050476Y-132348476D01*
X214002857Y-132538952D01*
X214002857Y-132681809D01*
X214050476Y-132872285D01*
X214098095Y-132967523D01*
X214193333Y-133062761D01*
X214336190Y-133110380D01*
X214574285Y-133110380D01*
X213145714Y-132443714D02*
X213145714Y-133110380D01*
X213383809Y-132062761D02*
X213621904Y-132777047D01*
X213002857Y-132777047D01*
X212717142Y-132110380D02*
X212098095Y-132110380D01*
X212431428Y-132491333D01*
X212288571Y-132491333D01*
X212193333Y-132538952D01*
X212145714Y-132586571D01*
X212098095Y-132681809D01*
X212098095Y-132919904D01*
X212145714Y-133015142D01*
X212193333Y-133062761D01*
X212288571Y-133110380D01*
X212574285Y-133110380D01*
X212669523Y-133062761D01*
X212717142Y-133015142D01*
X217431904Y-133480380D02*
X217431904Y-132480380D01*
X216860476Y-133480380D02*
X217289047Y-132908952D01*
X216860476Y-132480380D02*
X217431904Y-133051809D01*
%TO.C,D21*%
X119324285Y-95137380D02*
X119324285Y-94137380D01*
X119086190Y-94137380D01*
X118943333Y-94185000D01*
X118848095Y-94280238D01*
X118800476Y-94375476D01*
X118752857Y-94565952D01*
X118752857Y-94708809D01*
X118800476Y-94899285D01*
X118848095Y-94994523D01*
X118943333Y-95089761D01*
X119086190Y-95137380D01*
X119324285Y-95137380D01*
X118371904Y-94232619D02*
X118324285Y-94185000D01*
X118229047Y-94137380D01*
X117990952Y-94137380D01*
X117895714Y-94185000D01*
X117848095Y-94232619D01*
X117800476Y-94327857D01*
X117800476Y-94423095D01*
X117848095Y-94565952D01*
X118419523Y-95137380D01*
X117800476Y-95137380D01*
X116848095Y-95137380D02*
X117419523Y-95137380D01*
X117133809Y-95137380D02*
X117133809Y-94137380D01*
X117229047Y-94280238D01*
X117324285Y-94375476D01*
X117419523Y-94423095D01*
X122181904Y-95507380D02*
X122181904Y-94507380D01*
X121610476Y-95507380D02*
X122039047Y-94935952D01*
X121610476Y-94507380D02*
X122181904Y-95078809D01*
%TO.C,D27*%
X138374285Y-133237380D02*
X138374285Y-132237380D01*
X138136190Y-132237380D01*
X137993333Y-132285000D01*
X137898095Y-132380238D01*
X137850476Y-132475476D01*
X137802857Y-132665952D01*
X137802857Y-132808809D01*
X137850476Y-132999285D01*
X137898095Y-133094523D01*
X137993333Y-133189761D01*
X138136190Y-133237380D01*
X138374285Y-133237380D01*
X137421904Y-132332619D02*
X137374285Y-132285000D01*
X137279047Y-132237380D01*
X137040952Y-132237380D01*
X136945714Y-132285000D01*
X136898095Y-132332619D01*
X136850476Y-132427857D01*
X136850476Y-132523095D01*
X136898095Y-132665952D01*
X137469523Y-133237380D01*
X136850476Y-133237380D01*
X136517142Y-132237380D02*
X135850476Y-132237380D01*
X136279047Y-133237380D01*
X141231904Y-133607380D02*
X141231904Y-132607380D01*
X140660476Y-133607380D02*
X141089047Y-133035952D01*
X140660476Y-132607380D02*
X141231904Y-133178809D01*
%TO.C,D35*%
X176474285Y-133237380D02*
X176474285Y-132237380D01*
X176236190Y-132237380D01*
X176093333Y-132285000D01*
X175998095Y-132380238D01*
X175950476Y-132475476D01*
X175902857Y-132665952D01*
X175902857Y-132808809D01*
X175950476Y-132999285D01*
X175998095Y-133094523D01*
X176093333Y-133189761D01*
X176236190Y-133237380D01*
X176474285Y-133237380D01*
X175569523Y-132237380D02*
X174950476Y-132237380D01*
X175283809Y-132618333D01*
X175140952Y-132618333D01*
X175045714Y-132665952D01*
X174998095Y-132713571D01*
X174950476Y-132808809D01*
X174950476Y-133046904D01*
X174998095Y-133142142D01*
X175045714Y-133189761D01*
X175140952Y-133237380D01*
X175426666Y-133237380D01*
X175521904Y-133189761D01*
X175569523Y-133142142D01*
X174045714Y-132237380D02*
X174521904Y-132237380D01*
X174569523Y-132713571D01*
X174521904Y-132665952D01*
X174426666Y-132618333D01*
X174188571Y-132618333D01*
X174093333Y-132665952D01*
X174045714Y-132713571D01*
X173998095Y-132808809D01*
X173998095Y-133046904D01*
X174045714Y-133142142D01*
X174093333Y-133189761D01*
X174188571Y-133237380D01*
X174426666Y-133237380D01*
X174521904Y-133189761D01*
X174569523Y-133142142D01*
X179331904Y-133607380D02*
X179331904Y-132607380D01*
X178760476Y-133607380D02*
X179189047Y-133035952D01*
X178760476Y-132607380D02*
X179331904Y-133178809D01*
%TO.C,D16*%
X81224285Y-152287380D02*
X81224285Y-151287380D01*
X80986190Y-151287380D01*
X80843333Y-151335000D01*
X80748095Y-151430238D01*
X80700476Y-151525476D01*
X80652857Y-151715952D01*
X80652857Y-151858809D01*
X80700476Y-152049285D01*
X80748095Y-152144523D01*
X80843333Y-152239761D01*
X80986190Y-152287380D01*
X81224285Y-152287380D01*
X79700476Y-152287380D02*
X80271904Y-152287380D01*
X79986190Y-152287380D02*
X79986190Y-151287380D01*
X80081428Y-151430238D01*
X80176666Y-151525476D01*
X80271904Y-151573095D01*
X78843333Y-151287380D02*
X79033809Y-151287380D01*
X79129047Y-151335000D01*
X79176666Y-151382619D01*
X79271904Y-151525476D01*
X79319523Y-151715952D01*
X79319523Y-152096904D01*
X79271904Y-152192142D01*
X79224285Y-152239761D01*
X79129047Y-152287380D01*
X78938571Y-152287380D01*
X78843333Y-152239761D01*
X78795714Y-152192142D01*
X78748095Y-152096904D01*
X78748095Y-151858809D01*
X78795714Y-151763571D01*
X78843333Y-151715952D01*
X78938571Y-151668333D01*
X79129047Y-151668333D01*
X79224285Y-151715952D01*
X79271904Y-151763571D01*
X79319523Y-151858809D01*
X84081904Y-152657380D02*
X84081904Y-151657380D01*
X83510476Y-152657380D02*
X83939047Y-152085952D01*
X83510476Y-151657380D02*
X84081904Y-152228809D01*
%TO.C,D19*%
X100274285Y-133237380D02*
X100274285Y-132237380D01*
X100036190Y-132237380D01*
X99893333Y-132285000D01*
X99798095Y-132380238D01*
X99750476Y-132475476D01*
X99702857Y-132665952D01*
X99702857Y-132808809D01*
X99750476Y-132999285D01*
X99798095Y-133094523D01*
X99893333Y-133189761D01*
X100036190Y-133237380D01*
X100274285Y-133237380D01*
X98750476Y-133237380D02*
X99321904Y-133237380D01*
X99036190Y-133237380D02*
X99036190Y-132237380D01*
X99131428Y-132380238D01*
X99226666Y-132475476D01*
X99321904Y-132523095D01*
X98274285Y-133237380D02*
X98083809Y-133237380D01*
X97988571Y-133189761D01*
X97940952Y-133142142D01*
X97845714Y-132999285D01*
X97798095Y-132808809D01*
X97798095Y-132427857D01*
X97845714Y-132332619D01*
X97893333Y-132285000D01*
X97988571Y-132237380D01*
X98179047Y-132237380D01*
X98274285Y-132285000D01*
X98321904Y-132332619D01*
X98369523Y-132427857D01*
X98369523Y-132665952D01*
X98321904Y-132761190D01*
X98274285Y-132808809D01*
X98179047Y-132856428D01*
X97988571Y-132856428D01*
X97893333Y-132808809D01*
X97845714Y-132761190D01*
X97798095Y-132665952D01*
X103131904Y-133607380D02*
X103131904Y-132607380D01*
X102560476Y-133607380D02*
X102989047Y-133035952D01*
X102560476Y-132607380D02*
X103131904Y-133178809D01*
%TO.C,D42*%
X214574285Y-114187380D02*
X214574285Y-113187380D01*
X214336190Y-113187380D01*
X214193333Y-113235000D01*
X214098095Y-113330238D01*
X214050476Y-113425476D01*
X214002857Y-113615952D01*
X214002857Y-113758809D01*
X214050476Y-113949285D01*
X214098095Y-114044523D01*
X214193333Y-114139761D01*
X214336190Y-114187380D01*
X214574285Y-114187380D01*
X213145714Y-113520714D02*
X213145714Y-114187380D01*
X213383809Y-113139761D02*
X213621904Y-113854047D01*
X213002857Y-113854047D01*
X212669523Y-113282619D02*
X212621904Y-113235000D01*
X212526666Y-113187380D01*
X212288571Y-113187380D01*
X212193333Y-113235000D01*
X212145714Y-113282619D01*
X212098095Y-113377857D01*
X212098095Y-113473095D01*
X212145714Y-113615952D01*
X212717142Y-114187380D01*
X212098095Y-114187380D01*
X217431904Y-114557380D02*
X217431904Y-113557380D01*
X216860476Y-114557380D02*
X217289047Y-113985952D01*
X216860476Y-113557380D02*
X217431904Y-114128809D01*
%TO.C,D31*%
X157424285Y-133237380D02*
X157424285Y-132237380D01*
X157186190Y-132237380D01*
X157043333Y-132285000D01*
X156948095Y-132380238D01*
X156900476Y-132475476D01*
X156852857Y-132665952D01*
X156852857Y-132808809D01*
X156900476Y-132999285D01*
X156948095Y-133094523D01*
X157043333Y-133189761D01*
X157186190Y-133237380D01*
X157424285Y-133237380D01*
X156519523Y-132237380D02*
X155900476Y-132237380D01*
X156233809Y-132618333D01*
X156090952Y-132618333D01*
X155995714Y-132665952D01*
X155948095Y-132713571D01*
X155900476Y-132808809D01*
X155900476Y-133046904D01*
X155948095Y-133142142D01*
X155995714Y-133189761D01*
X156090952Y-133237380D01*
X156376666Y-133237380D01*
X156471904Y-133189761D01*
X156519523Y-133142142D01*
X154948095Y-133237380D02*
X155519523Y-133237380D01*
X155233809Y-133237380D02*
X155233809Y-132237380D01*
X155329047Y-132380238D01*
X155424285Y-132475476D01*
X155519523Y-132523095D01*
X160281904Y-133607380D02*
X160281904Y-132607380D01*
X159710476Y-133607380D02*
X160139047Y-133035952D01*
X159710476Y-132607380D02*
X160281904Y-133178809D01*
%TO.C,D38*%
X195524285Y-114187380D02*
X195524285Y-113187380D01*
X195286190Y-113187380D01*
X195143333Y-113235000D01*
X195048095Y-113330238D01*
X195000476Y-113425476D01*
X194952857Y-113615952D01*
X194952857Y-113758809D01*
X195000476Y-113949285D01*
X195048095Y-114044523D01*
X195143333Y-114139761D01*
X195286190Y-114187380D01*
X195524285Y-114187380D01*
X194619523Y-113187380D02*
X194000476Y-113187380D01*
X194333809Y-113568333D01*
X194190952Y-113568333D01*
X194095714Y-113615952D01*
X194048095Y-113663571D01*
X194000476Y-113758809D01*
X194000476Y-113996904D01*
X194048095Y-114092142D01*
X194095714Y-114139761D01*
X194190952Y-114187380D01*
X194476666Y-114187380D01*
X194571904Y-114139761D01*
X194619523Y-114092142D01*
X193429047Y-113615952D02*
X193524285Y-113568333D01*
X193571904Y-113520714D01*
X193619523Y-113425476D01*
X193619523Y-113377857D01*
X193571904Y-113282619D01*
X193524285Y-113235000D01*
X193429047Y-113187380D01*
X193238571Y-113187380D01*
X193143333Y-113235000D01*
X193095714Y-113282619D01*
X193048095Y-113377857D01*
X193048095Y-113425476D01*
X193095714Y-113520714D01*
X193143333Y-113568333D01*
X193238571Y-113615952D01*
X193429047Y-113615952D01*
X193524285Y-113663571D01*
X193571904Y-113711190D01*
X193619523Y-113806428D01*
X193619523Y-113996904D01*
X193571904Y-114092142D01*
X193524285Y-114139761D01*
X193429047Y-114187380D01*
X193238571Y-114187380D01*
X193143333Y-114139761D01*
X193095714Y-114092142D01*
X193048095Y-113996904D01*
X193048095Y-113806428D01*
X193095714Y-113711190D01*
X193143333Y-113663571D01*
X193238571Y-113615952D01*
X198381904Y-114557380D02*
X198381904Y-113557380D01*
X197810476Y-114557380D02*
X198239047Y-113985952D01*
X197810476Y-113557380D02*
X198381904Y-114128809D01*
%TO.C,D15*%
X81224285Y-133237380D02*
X81224285Y-132237380D01*
X80986190Y-132237380D01*
X80843333Y-132285000D01*
X80748095Y-132380238D01*
X80700476Y-132475476D01*
X80652857Y-132665952D01*
X80652857Y-132808809D01*
X80700476Y-132999285D01*
X80748095Y-133094523D01*
X80843333Y-133189761D01*
X80986190Y-133237380D01*
X81224285Y-133237380D01*
X79700476Y-133237380D02*
X80271904Y-133237380D01*
X79986190Y-133237380D02*
X79986190Y-132237380D01*
X80081428Y-132380238D01*
X80176666Y-132475476D01*
X80271904Y-132523095D01*
X78795714Y-132237380D02*
X79271904Y-132237380D01*
X79319523Y-132713571D01*
X79271904Y-132665952D01*
X79176666Y-132618333D01*
X78938571Y-132618333D01*
X78843333Y-132665952D01*
X78795714Y-132713571D01*
X78748095Y-132808809D01*
X78748095Y-133046904D01*
X78795714Y-133142142D01*
X78843333Y-133189761D01*
X78938571Y-133237380D01*
X79176666Y-133237380D01*
X79271904Y-133189761D01*
X79319523Y-133142142D01*
X84081904Y-133607380D02*
X84081904Y-132607380D01*
X83510476Y-133607380D02*
X83939047Y-133035952D01*
X83510476Y-132607380D02*
X84081904Y-133178809D01*
%TO.C,D34*%
X176474285Y-114187380D02*
X176474285Y-113187380D01*
X176236190Y-113187380D01*
X176093333Y-113235000D01*
X175998095Y-113330238D01*
X175950476Y-113425476D01*
X175902857Y-113615952D01*
X175902857Y-113758809D01*
X175950476Y-113949285D01*
X175998095Y-114044523D01*
X176093333Y-114139761D01*
X176236190Y-114187380D01*
X176474285Y-114187380D01*
X175569523Y-113187380D02*
X174950476Y-113187380D01*
X175283809Y-113568333D01*
X175140952Y-113568333D01*
X175045714Y-113615952D01*
X174998095Y-113663571D01*
X174950476Y-113758809D01*
X174950476Y-113996904D01*
X174998095Y-114092142D01*
X175045714Y-114139761D01*
X175140952Y-114187380D01*
X175426666Y-114187380D01*
X175521904Y-114139761D01*
X175569523Y-114092142D01*
X174093333Y-113520714D02*
X174093333Y-114187380D01*
X174331428Y-113139761D02*
X174569523Y-113854047D01*
X173950476Y-113854047D01*
X179331904Y-114557380D02*
X179331904Y-113557380D01*
X178760476Y-114557380D02*
X179189047Y-113985952D01*
X178760476Y-113557380D02*
X179331904Y-114128809D01*
%TO.C,D10*%
X62174285Y-114187380D02*
X62174285Y-113187380D01*
X61936190Y-113187380D01*
X61793333Y-113235000D01*
X61698095Y-113330238D01*
X61650476Y-113425476D01*
X61602857Y-113615952D01*
X61602857Y-113758809D01*
X61650476Y-113949285D01*
X61698095Y-114044523D01*
X61793333Y-114139761D01*
X61936190Y-114187380D01*
X62174285Y-114187380D01*
X60650476Y-114187380D02*
X61221904Y-114187380D01*
X60936190Y-114187380D02*
X60936190Y-113187380D01*
X61031428Y-113330238D01*
X61126666Y-113425476D01*
X61221904Y-113473095D01*
X60031428Y-113187380D02*
X59936190Y-113187380D01*
X59840952Y-113235000D01*
X59793333Y-113282619D01*
X59745714Y-113377857D01*
X59698095Y-113568333D01*
X59698095Y-113806428D01*
X59745714Y-113996904D01*
X59793333Y-114092142D01*
X59840952Y-114139761D01*
X59936190Y-114187380D01*
X60031428Y-114187380D01*
X60126666Y-114139761D01*
X60174285Y-114092142D01*
X60221904Y-113996904D01*
X60269523Y-113806428D01*
X60269523Y-113568333D01*
X60221904Y-113377857D01*
X60174285Y-113282619D01*
X60126666Y-113235000D01*
X60031428Y-113187380D01*
X65031904Y-114557380D02*
X65031904Y-113557380D01*
X64460476Y-114557380D02*
X64889047Y-113985952D01*
X64460476Y-113557380D02*
X65031904Y-114128809D01*
%TO.C,D40*%
X195524285Y-152287380D02*
X195524285Y-151287380D01*
X195286190Y-151287380D01*
X195143333Y-151335000D01*
X195048095Y-151430238D01*
X195000476Y-151525476D01*
X194952857Y-151715952D01*
X194952857Y-151858809D01*
X195000476Y-152049285D01*
X195048095Y-152144523D01*
X195143333Y-152239761D01*
X195286190Y-152287380D01*
X195524285Y-152287380D01*
X194095714Y-151620714D02*
X194095714Y-152287380D01*
X194333809Y-151239761D02*
X194571904Y-151954047D01*
X193952857Y-151954047D01*
X193381428Y-151287380D02*
X193286190Y-151287380D01*
X193190952Y-151335000D01*
X193143333Y-151382619D01*
X193095714Y-151477857D01*
X193048095Y-151668333D01*
X193048095Y-151906428D01*
X193095714Y-152096904D01*
X193143333Y-152192142D01*
X193190952Y-152239761D01*
X193286190Y-152287380D01*
X193381428Y-152287380D01*
X193476666Y-152239761D01*
X193524285Y-152192142D01*
X193571904Y-152096904D01*
X193619523Y-151906428D01*
X193619523Y-151668333D01*
X193571904Y-151477857D01*
X193524285Y-151382619D01*
X193476666Y-151335000D01*
X193381428Y-151287380D01*
X198381904Y-152657380D02*
X198381904Y-151657380D01*
X197810476Y-152657380D02*
X198239047Y-152085952D01*
X197810476Y-151657380D02*
X198381904Y-152228809D01*
%TO.C,D13*%
X81224285Y-95137380D02*
X81224285Y-94137380D01*
X80986190Y-94137380D01*
X80843333Y-94185000D01*
X80748095Y-94280238D01*
X80700476Y-94375476D01*
X80652857Y-94565952D01*
X80652857Y-94708809D01*
X80700476Y-94899285D01*
X80748095Y-94994523D01*
X80843333Y-95089761D01*
X80986190Y-95137380D01*
X81224285Y-95137380D01*
X79700476Y-95137380D02*
X80271904Y-95137380D01*
X79986190Y-95137380D02*
X79986190Y-94137380D01*
X80081428Y-94280238D01*
X80176666Y-94375476D01*
X80271904Y-94423095D01*
X79367142Y-94137380D02*
X78748095Y-94137380D01*
X79081428Y-94518333D01*
X78938571Y-94518333D01*
X78843333Y-94565952D01*
X78795714Y-94613571D01*
X78748095Y-94708809D01*
X78748095Y-94946904D01*
X78795714Y-95042142D01*
X78843333Y-95089761D01*
X78938571Y-95137380D01*
X79224285Y-95137380D01*
X79319523Y-95089761D01*
X79367142Y-95042142D01*
X84081904Y-95507380D02*
X84081904Y-94507380D01*
X83510476Y-95507380D02*
X83939047Y-94935952D01*
X83510476Y-94507380D02*
X84081904Y-95078809D01*
%TO.C,D29*%
X157424285Y-95137380D02*
X157424285Y-94137380D01*
X157186190Y-94137380D01*
X157043333Y-94185000D01*
X156948095Y-94280238D01*
X156900476Y-94375476D01*
X156852857Y-94565952D01*
X156852857Y-94708809D01*
X156900476Y-94899285D01*
X156948095Y-94994523D01*
X157043333Y-95089761D01*
X157186190Y-95137380D01*
X157424285Y-95137380D01*
X156471904Y-94232619D02*
X156424285Y-94185000D01*
X156329047Y-94137380D01*
X156090952Y-94137380D01*
X155995714Y-94185000D01*
X155948095Y-94232619D01*
X155900476Y-94327857D01*
X155900476Y-94423095D01*
X155948095Y-94565952D01*
X156519523Y-95137380D01*
X155900476Y-95137380D01*
X155424285Y-95137380D02*
X155233809Y-95137380D01*
X155138571Y-95089761D01*
X155090952Y-95042142D01*
X154995714Y-94899285D01*
X154948095Y-94708809D01*
X154948095Y-94327857D01*
X154995714Y-94232619D01*
X155043333Y-94185000D01*
X155138571Y-94137380D01*
X155329047Y-94137380D01*
X155424285Y-94185000D01*
X155471904Y-94232619D01*
X155519523Y-94327857D01*
X155519523Y-94565952D01*
X155471904Y-94661190D01*
X155424285Y-94708809D01*
X155329047Y-94756428D01*
X155138571Y-94756428D01*
X155043333Y-94708809D01*
X154995714Y-94661190D01*
X154948095Y-94565952D01*
X160281904Y-95507380D02*
X160281904Y-94507380D01*
X159710476Y-95507380D02*
X160139047Y-94935952D01*
X159710476Y-94507380D02*
X160281904Y-95078809D01*
%TO.C,D6*%
X42648095Y-114187380D02*
X42648095Y-113187380D01*
X42410000Y-113187380D01*
X42267142Y-113235000D01*
X42171904Y-113330238D01*
X42124285Y-113425476D01*
X42076666Y-113615952D01*
X42076666Y-113758809D01*
X42124285Y-113949285D01*
X42171904Y-114044523D01*
X42267142Y-114139761D01*
X42410000Y-114187380D01*
X42648095Y-114187380D01*
X41219523Y-113187380D02*
X41410000Y-113187380D01*
X41505238Y-113235000D01*
X41552857Y-113282619D01*
X41648095Y-113425476D01*
X41695714Y-113615952D01*
X41695714Y-113996904D01*
X41648095Y-114092142D01*
X41600476Y-114139761D01*
X41505238Y-114187380D01*
X41314761Y-114187380D01*
X41219523Y-114139761D01*
X41171904Y-114092142D01*
X41124285Y-113996904D01*
X41124285Y-113758809D01*
X41171904Y-113663571D01*
X41219523Y-113615952D01*
X41314761Y-113568333D01*
X41505238Y-113568333D01*
X41600476Y-113615952D01*
X41648095Y-113663571D01*
X41695714Y-113758809D01*
X45981904Y-114557380D02*
X45981904Y-113557380D01*
X45410476Y-114557380D02*
X45839047Y-113985952D01*
X45410476Y-113557380D02*
X45981904Y-114128809D01*
%TO.C,D5*%
X42648095Y-95137380D02*
X42648095Y-94137380D01*
X42410000Y-94137380D01*
X42267142Y-94185000D01*
X42171904Y-94280238D01*
X42124285Y-94375476D01*
X42076666Y-94565952D01*
X42076666Y-94708809D01*
X42124285Y-94899285D01*
X42171904Y-94994523D01*
X42267142Y-95089761D01*
X42410000Y-95137380D01*
X42648095Y-95137380D01*
X41171904Y-94137380D02*
X41648095Y-94137380D01*
X41695714Y-94613571D01*
X41648095Y-94565952D01*
X41552857Y-94518333D01*
X41314761Y-94518333D01*
X41219523Y-94565952D01*
X41171904Y-94613571D01*
X41124285Y-94708809D01*
X41124285Y-94946904D01*
X41171904Y-95042142D01*
X41219523Y-95089761D01*
X41314761Y-95137380D01*
X41552857Y-95137380D01*
X41648095Y-95089761D01*
X41695714Y-95042142D01*
X45981904Y-95507380D02*
X45981904Y-94507380D01*
X45410476Y-95507380D02*
X45839047Y-94935952D01*
X45410476Y-94507380D02*
X45981904Y-95078809D01*
%TO.C,D12*%
X62174285Y-152287380D02*
X62174285Y-151287380D01*
X61936190Y-151287380D01*
X61793333Y-151335000D01*
X61698095Y-151430238D01*
X61650476Y-151525476D01*
X61602857Y-151715952D01*
X61602857Y-151858809D01*
X61650476Y-152049285D01*
X61698095Y-152144523D01*
X61793333Y-152239761D01*
X61936190Y-152287380D01*
X62174285Y-152287380D01*
X60650476Y-152287380D02*
X61221904Y-152287380D01*
X60936190Y-152287380D02*
X60936190Y-151287380D01*
X61031428Y-151430238D01*
X61126666Y-151525476D01*
X61221904Y-151573095D01*
X60269523Y-151382619D02*
X60221904Y-151335000D01*
X60126666Y-151287380D01*
X59888571Y-151287380D01*
X59793333Y-151335000D01*
X59745714Y-151382619D01*
X59698095Y-151477857D01*
X59698095Y-151573095D01*
X59745714Y-151715952D01*
X60317142Y-152287380D01*
X59698095Y-152287380D01*
%TO.C,D32*%
X157424285Y-152287380D02*
X157424285Y-151287380D01*
X157186190Y-151287380D01*
X157043333Y-151335000D01*
X156948095Y-151430238D01*
X156900476Y-151525476D01*
X156852857Y-151715952D01*
X156852857Y-151858809D01*
X156900476Y-152049285D01*
X156948095Y-152144523D01*
X157043333Y-152239761D01*
X157186190Y-152287380D01*
X157424285Y-152287380D01*
X156519523Y-151287380D02*
X155900476Y-151287380D01*
X156233809Y-151668333D01*
X156090952Y-151668333D01*
X155995714Y-151715952D01*
X155948095Y-151763571D01*
X155900476Y-151858809D01*
X155900476Y-152096904D01*
X155948095Y-152192142D01*
X155995714Y-152239761D01*
X156090952Y-152287380D01*
X156376666Y-152287380D01*
X156471904Y-152239761D01*
X156519523Y-152192142D01*
X155519523Y-151382619D02*
X155471904Y-151335000D01*
X155376666Y-151287380D01*
X155138571Y-151287380D01*
X155043333Y-151335000D01*
X154995714Y-151382619D01*
X154948095Y-151477857D01*
X154948095Y-151573095D01*
X154995714Y-151715952D01*
X155567142Y-152287380D01*
X154948095Y-152287380D01*
X160281904Y-152657380D02*
X160281904Y-151657380D01*
X159710476Y-152657380D02*
X160139047Y-152085952D01*
X159710476Y-151657380D02*
X160281904Y-152228809D01*
%TO.C,D44*%
X214574285Y-152287380D02*
X214574285Y-151287380D01*
X214336190Y-151287380D01*
X214193333Y-151335000D01*
X214098095Y-151430238D01*
X214050476Y-151525476D01*
X214002857Y-151715952D01*
X214002857Y-151858809D01*
X214050476Y-152049285D01*
X214098095Y-152144523D01*
X214193333Y-152239761D01*
X214336190Y-152287380D01*
X214574285Y-152287380D01*
X213145714Y-151620714D02*
X213145714Y-152287380D01*
X213383809Y-151239761D02*
X213621904Y-151954047D01*
X213002857Y-151954047D01*
X212193333Y-151620714D02*
X212193333Y-152287380D01*
X212431428Y-151239761D02*
X212669523Y-151954047D01*
X212050476Y-151954047D01*
X217431904Y-152657380D02*
X217431904Y-151657380D01*
X216860476Y-152657380D02*
X217289047Y-152085952D01*
X216860476Y-151657380D02*
X217431904Y-152228809D01*
%TO.C,D8*%
X42648095Y-152287380D02*
X42648095Y-151287380D01*
X42410000Y-151287380D01*
X42267142Y-151335000D01*
X42171904Y-151430238D01*
X42124285Y-151525476D01*
X42076666Y-151715952D01*
X42076666Y-151858809D01*
X42124285Y-152049285D01*
X42171904Y-152144523D01*
X42267142Y-152239761D01*
X42410000Y-152287380D01*
X42648095Y-152287380D01*
X41505238Y-151715952D02*
X41600476Y-151668333D01*
X41648095Y-151620714D01*
X41695714Y-151525476D01*
X41695714Y-151477857D01*
X41648095Y-151382619D01*
X41600476Y-151335000D01*
X41505238Y-151287380D01*
X41314761Y-151287380D01*
X41219523Y-151335000D01*
X41171904Y-151382619D01*
X41124285Y-151477857D01*
X41124285Y-151525476D01*
X41171904Y-151620714D01*
X41219523Y-151668333D01*
X41314761Y-151715952D01*
X41505238Y-151715952D01*
X41600476Y-151763571D01*
X41648095Y-151811190D01*
X41695714Y-151906428D01*
X41695714Y-152096904D01*
X41648095Y-152192142D01*
X41600476Y-152239761D01*
X41505238Y-152287380D01*
X41314761Y-152287380D01*
X41219523Y-152239761D01*
X41171904Y-152192142D01*
X41124285Y-152096904D01*
X41124285Y-151906428D01*
X41171904Y-151811190D01*
X41219523Y-151763571D01*
X41314761Y-151715952D01*
X45981904Y-152657380D02*
X45981904Y-151657380D01*
X45410476Y-152657380D02*
X45839047Y-152085952D01*
X45410476Y-151657380D02*
X45981904Y-152228809D01*
%TO.C,D9*%
X61698095Y-95137380D02*
X61698095Y-94137380D01*
X61460000Y-94137380D01*
X61317142Y-94185000D01*
X61221904Y-94280238D01*
X61174285Y-94375476D01*
X61126666Y-94565952D01*
X61126666Y-94708809D01*
X61174285Y-94899285D01*
X61221904Y-94994523D01*
X61317142Y-95089761D01*
X61460000Y-95137380D01*
X61698095Y-95137380D01*
X60650476Y-95137380D02*
X60460000Y-95137380D01*
X60364761Y-95089761D01*
X60317142Y-95042142D01*
X60221904Y-94899285D01*
X60174285Y-94708809D01*
X60174285Y-94327857D01*
X60221904Y-94232619D01*
X60269523Y-94185000D01*
X60364761Y-94137380D01*
X60555238Y-94137380D01*
X60650476Y-94185000D01*
X60698095Y-94232619D01*
X60745714Y-94327857D01*
X60745714Y-94565952D01*
X60698095Y-94661190D01*
X60650476Y-94708809D01*
X60555238Y-94756428D01*
X60364761Y-94756428D01*
X60269523Y-94708809D01*
X60221904Y-94661190D01*
X60174285Y-94565952D01*
X65031904Y-95507380D02*
X65031904Y-94507380D01*
X64460476Y-95507380D02*
X64889047Y-94935952D01*
X64460476Y-94507380D02*
X65031904Y-95078809D01*
%TO.C,D14*%
X81224285Y-114187380D02*
X81224285Y-113187380D01*
X80986190Y-113187380D01*
X80843333Y-113235000D01*
X80748095Y-113330238D01*
X80700476Y-113425476D01*
X80652857Y-113615952D01*
X80652857Y-113758809D01*
X80700476Y-113949285D01*
X80748095Y-114044523D01*
X80843333Y-114139761D01*
X80986190Y-114187380D01*
X81224285Y-114187380D01*
X79700476Y-114187380D02*
X80271904Y-114187380D01*
X79986190Y-114187380D02*
X79986190Y-113187380D01*
X80081428Y-113330238D01*
X80176666Y-113425476D01*
X80271904Y-113473095D01*
X78843333Y-113520714D02*
X78843333Y-114187380D01*
X79081428Y-113139761D02*
X79319523Y-113854047D01*
X78700476Y-113854047D01*
X84081904Y-114557380D02*
X84081904Y-113557380D01*
X83510476Y-114557380D02*
X83939047Y-113985952D01*
X83510476Y-113557380D02*
X84081904Y-114128809D01*
%TO.C,D20*%
X100274285Y-152287380D02*
X100274285Y-151287380D01*
X100036190Y-151287380D01*
X99893333Y-151335000D01*
X99798095Y-151430238D01*
X99750476Y-151525476D01*
X99702857Y-151715952D01*
X99702857Y-151858809D01*
X99750476Y-152049285D01*
X99798095Y-152144523D01*
X99893333Y-152239761D01*
X100036190Y-152287380D01*
X100274285Y-152287380D01*
X99321904Y-151382619D02*
X99274285Y-151335000D01*
X99179047Y-151287380D01*
X98940952Y-151287380D01*
X98845714Y-151335000D01*
X98798095Y-151382619D01*
X98750476Y-151477857D01*
X98750476Y-151573095D01*
X98798095Y-151715952D01*
X99369523Y-152287380D01*
X98750476Y-152287380D01*
X98131428Y-151287380D02*
X98036190Y-151287380D01*
X97940952Y-151335000D01*
X97893333Y-151382619D01*
X97845714Y-151477857D01*
X97798095Y-151668333D01*
X97798095Y-151906428D01*
X97845714Y-152096904D01*
X97893333Y-152192142D01*
X97940952Y-152239761D01*
X98036190Y-152287380D01*
X98131428Y-152287380D01*
X98226666Y-152239761D01*
X98274285Y-152192142D01*
X98321904Y-152096904D01*
X98369523Y-151906428D01*
X98369523Y-151668333D01*
X98321904Y-151477857D01*
X98274285Y-151382619D01*
X98226666Y-151335000D01*
X98131428Y-151287380D01*
X103131904Y-152657380D02*
X103131904Y-151657380D01*
X102560476Y-152657380D02*
X102989047Y-152085952D01*
X102560476Y-151657380D02*
X103131904Y-152228809D01*
%TO.C,D46*%
X233624285Y-95137380D02*
X233624285Y-94137380D01*
X233386190Y-94137380D01*
X233243333Y-94185000D01*
X233148095Y-94280238D01*
X233100476Y-94375476D01*
X233052857Y-94565952D01*
X233052857Y-94708809D01*
X233100476Y-94899285D01*
X233148095Y-94994523D01*
X233243333Y-95089761D01*
X233386190Y-95137380D01*
X233624285Y-95137380D01*
X232195714Y-94470714D02*
X232195714Y-95137380D01*
X232433809Y-94089761D02*
X232671904Y-94804047D01*
X232052857Y-94804047D01*
X231243333Y-94137380D02*
X231433809Y-94137380D01*
X231529047Y-94185000D01*
X231576666Y-94232619D01*
X231671904Y-94375476D01*
X231719523Y-94565952D01*
X231719523Y-94946904D01*
X231671904Y-95042142D01*
X231624285Y-95089761D01*
X231529047Y-95137380D01*
X231338571Y-95137380D01*
X231243333Y-95089761D01*
X231195714Y-95042142D01*
X231148095Y-94946904D01*
X231148095Y-94708809D01*
X231195714Y-94613571D01*
X231243333Y-94565952D01*
X231338571Y-94518333D01*
X231529047Y-94518333D01*
X231624285Y-94565952D01*
X231671904Y-94613571D01*
X231719523Y-94708809D01*
X236481904Y-95507380D02*
X236481904Y-94507380D01*
X235910476Y-95507380D02*
X236339047Y-94935952D01*
X235910476Y-94507380D02*
X236481904Y-95078809D01*
%TO.C,D18*%
X100274285Y-114187380D02*
X100274285Y-113187380D01*
X100036190Y-113187380D01*
X99893333Y-113235000D01*
X99798095Y-113330238D01*
X99750476Y-113425476D01*
X99702857Y-113615952D01*
X99702857Y-113758809D01*
X99750476Y-113949285D01*
X99798095Y-114044523D01*
X99893333Y-114139761D01*
X100036190Y-114187380D01*
X100274285Y-114187380D01*
X98750476Y-114187380D02*
X99321904Y-114187380D01*
X99036190Y-114187380D02*
X99036190Y-113187380D01*
X99131428Y-113330238D01*
X99226666Y-113425476D01*
X99321904Y-113473095D01*
X98179047Y-113615952D02*
X98274285Y-113568333D01*
X98321904Y-113520714D01*
X98369523Y-113425476D01*
X98369523Y-113377857D01*
X98321904Y-113282619D01*
X98274285Y-113235000D01*
X98179047Y-113187380D01*
X97988571Y-113187380D01*
X97893333Y-113235000D01*
X97845714Y-113282619D01*
X97798095Y-113377857D01*
X97798095Y-113425476D01*
X97845714Y-113520714D01*
X97893333Y-113568333D01*
X97988571Y-113615952D01*
X98179047Y-113615952D01*
X98274285Y-113663571D01*
X98321904Y-113711190D01*
X98369523Y-113806428D01*
X98369523Y-113996904D01*
X98321904Y-114092142D01*
X98274285Y-114139761D01*
X98179047Y-114187380D01*
X97988571Y-114187380D01*
X97893333Y-114139761D01*
X97845714Y-114092142D01*
X97798095Y-113996904D01*
X97798095Y-113806428D01*
X97845714Y-113711190D01*
X97893333Y-113663571D01*
X97988571Y-113615952D01*
X103131904Y-114557380D02*
X103131904Y-113557380D01*
X102560476Y-114557380D02*
X102989047Y-113985952D01*
X102560476Y-113557380D02*
X103131904Y-114128809D01*
%TO.C,D47*%
X233624285Y-114187380D02*
X233624285Y-113187380D01*
X233386190Y-113187380D01*
X233243333Y-113235000D01*
X233148095Y-113330238D01*
X233100476Y-113425476D01*
X233052857Y-113615952D01*
X233052857Y-113758809D01*
X233100476Y-113949285D01*
X233148095Y-114044523D01*
X233243333Y-114139761D01*
X233386190Y-114187380D01*
X233624285Y-114187380D01*
X232195714Y-113520714D02*
X232195714Y-114187380D01*
X232433809Y-113139761D02*
X232671904Y-113854047D01*
X232052857Y-113854047D01*
X231767142Y-113187380D02*
X231100476Y-113187380D01*
X231529047Y-114187380D01*
X236481904Y-114557380D02*
X236481904Y-113557380D01*
X235910476Y-114557380D02*
X236339047Y-113985952D01*
X235910476Y-113557380D02*
X236481904Y-114128809D01*
%TO.C,D24*%
X119324285Y-152287380D02*
X119324285Y-151287380D01*
X119086190Y-151287380D01*
X118943333Y-151335000D01*
X118848095Y-151430238D01*
X118800476Y-151525476D01*
X118752857Y-151715952D01*
X118752857Y-151858809D01*
X118800476Y-152049285D01*
X118848095Y-152144523D01*
X118943333Y-152239761D01*
X119086190Y-152287380D01*
X119324285Y-152287380D01*
X118371904Y-151382619D02*
X118324285Y-151335000D01*
X118229047Y-151287380D01*
X117990952Y-151287380D01*
X117895714Y-151335000D01*
X117848095Y-151382619D01*
X117800476Y-151477857D01*
X117800476Y-151573095D01*
X117848095Y-151715952D01*
X118419523Y-152287380D01*
X117800476Y-152287380D01*
X116943333Y-151620714D02*
X116943333Y-152287380D01*
X117181428Y-151239761D02*
X117419523Y-151954047D01*
X116800476Y-151954047D01*
X122181904Y-152657380D02*
X122181904Y-151657380D01*
X121610476Y-152657380D02*
X122039047Y-152085952D01*
X121610476Y-151657380D02*
X122181904Y-152228809D01*
%TO.C,D22*%
X119324285Y-114187380D02*
X119324285Y-113187380D01*
X119086190Y-113187380D01*
X118943333Y-113235000D01*
X118848095Y-113330238D01*
X118800476Y-113425476D01*
X118752857Y-113615952D01*
X118752857Y-113758809D01*
X118800476Y-113949285D01*
X118848095Y-114044523D01*
X118943333Y-114139761D01*
X119086190Y-114187380D01*
X119324285Y-114187380D01*
X118371904Y-113282619D02*
X118324285Y-113235000D01*
X118229047Y-113187380D01*
X117990952Y-113187380D01*
X117895714Y-113235000D01*
X117848095Y-113282619D01*
X117800476Y-113377857D01*
X117800476Y-113473095D01*
X117848095Y-113615952D01*
X118419523Y-114187380D01*
X117800476Y-114187380D01*
X117419523Y-113282619D02*
X117371904Y-113235000D01*
X117276666Y-113187380D01*
X117038571Y-113187380D01*
X116943333Y-113235000D01*
X116895714Y-113282619D01*
X116848095Y-113377857D01*
X116848095Y-113473095D01*
X116895714Y-113615952D01*
X117467142Y-114187380D01*
X116848095Y-114187380D01*
X122181904Y-114557380D02*
X122181904Y-113557380D01*
X121610476Y-114557380D02*
X122039047Y-113985952D01*
X121610476Y-113557380D02*
X122181904Y-114128809D01*
%TO.C,D4*%
X23598095Y-152287380D02*
X23598095Y-151287380D01*
X23360000Y-151287380D01*
X23217142Y-151335000D01*
X23121904Y-151430238D01*
X23074285Y-151525476D01*
X23026666Y-151715952D01*
X23026666Y-151858809D01*
X23074285Y-152049285D01*
X23121904Y-152144523D01*
X23217142Y-152239761D01*
X23360000Y-152287380D01*
X23598095Y-152287380D01*
X22169523Y-151620714D02*
X22169523Y-152287380D01*
X22407619Y-151239761D02*
X22645714Y-151954047D01*
X22026666Y-151954047D01*
X26931904Y-152657380D02*
X26931904Y-151657380D01*
X26360476Y-152657380D02*
X26789047Y-152085952D01*
X26360476Y-151657380D02*
X26931904Y-152228809D01*
%TO.C,D3*%
X23598095Y-133237380D02*
X23598095Y-132237380D01*
X23360000Y-132237380D01*
X23217142Y-132285000D01*
X23121904Y-132380238D01*
X23074285Y-132475476D01*
X23026666Y-132665952D01*
X23026666Y-132808809D01*
X23074285Y-132999285D01*
X23121904Y-133094523D01*
X23217142Y-133189761D01*
X23360000Y-133237380D01*
X23598095Y-133237380D01*
X22693333Y-132237380D02*
X22074285Y-132237380D01*
X22407619Y-132618333D01*
X22264761Y-132618333D01*
X22169523Y-132665952D01*
X22121904Y-132713571D01*
X22074285Y-132808809D01*
X22074285Y-133046904D01*
X22121904Y-133142142D01*
X22169523Y-133189761D01*
X22264761Y-133237380D01*
X22550476Y-133237380D01*
X22645714Y-133189761D01*
X22693333Y-133142142D01*
X26931904Y-133607380D02*
X26931904Y-132607380D01*
X26360476Y-133607380D02*
X26789047Y-133035952D01*
X26360476Y-132607380D02*
X26931904Y-133178809D01*
%TO.C,D1*%
X23598095Y-95137380D02*
X23598095Y-94137380D01*
X23360000Y-94137380D01*
X23217142Y-94185000D01*
X23121904Y-94280238D01*
X23074285Y-94375476D01*
X23026666Y-94565952D01*
X23026666Y-94708809D01*
X23074285Y-94899285D01*
X23121904Y-94994523D01*
X23217142Y-95089761D01*
X23360000Y-95137380D01*
X23598095Y-95137380D01*
X22074285Y-95137380D02*
X22645714Y-95137380D01*
X22360000Y-95137380D02*
X22360000Y-94137380D01*
X22455238Y-94280238D01*
X22550476Y-94375476D01*
X22645714Y-94423095D01*
X26931904Y-95507380D02*
X26931904Y-94507380D01*
X26360476Y-95507380D02*
X26789047Y-94935952D01*
X26360476Y-94507380D02*
X26931904Y-95078809D01*
%TO.C,D33*%
X176474285Y-95137380D02*
X176474285Y-94137380D01*
X176236190Y-94137380D01*
X176093333Y-94185000D01*
X175998095Y-94280238D01*
X175950476Y-94375476D01*
X175902857Y-94565952D01*
X175902857Y-94708809D01*
X175950476Y-94899285D01*
X175998095Y-94994523D01*
X176093333Y-95089761D01*
X176236190Y-95137380D01*
X176474285Y-95137380D01*
X175569523Y-94137380D02*
X174950476Y-94137380D01*
X175283809Y-94518333D01*
X175140952Y-94518333D01*
X175045714Y-94565952D01*
X174998095Y-94613571D01*
X174950476Y-94708809D01*
X174950476Y-94946904D01*
X174998095Y-95042142D01*
X175045714Y-95089761D01*
X175140952Y-95137380D01*
X175426666Y-95137380D01*
X175521904Y-95089761D01*
X175569523Y-95042142D01*
X174617142Y-94137380D02*
X173998095Y-94137380D01*
X174331428Y-94518333D01*
X174188571Y-94518333D01*
X174093333Y-94565952D01*
X174045714Y-94613571D01*
X173998095Y-94708809D01*
X173998095Y-94946904D01*
X174045714Y-95042142D01*
X174093333Y-95089761D01*
X174188571Y-95137380D01*
X174474285Y-95137380D01*
X174569523Y-95089761D01*
X174617142Y-95042142D01*
X179331904Y-95507380D02*
X179331904Y-94507380D01*
X178760476Y-95507380D02*
X179189047Y-94935952D01*
X178760476Y-94507380D02*
X179331904Y-95078809D01*
%TO.C,D2*%
X23598095Y-114187380D02*
X23598095Y-113187380D01*
X23360000Y-113187380D01*
X23217142Y-113235000D01*
X23121904Y-113330238D01*
X23074285Y-113425476D01*
X23026666Y-113615952D01*
X23026666Y-113758809D01*
X23074285Y-113949285D01*
X23121904Y-114044523D01*
X23217142Y-114139761D01*
X23360000Y-114187380D01*
X23598095Y-114187380D01*
X22645714Y-113282619D02*
X22598095Y-113235000D01*
X22502857Y-113187380D01*
X22264761Y-113187380D01*
X22169523Y-113235000D01*
X22121904Y-113282619D01*
X22074285Y-113377857D01*
X22074285Y-113473095D01*
X22121904Y-113615952D01*
X22693333Y-114187380D01*
X22074285Y-114187380D01*
X26931904Y-114557380D02*
X26931904Y-113557380D01*
X26360476Y-114557380D02*
X26789047Y-113985952D01*
X26360476Y-113557380D02*
X26931904Y-114128809D01*
%TO.C,D39*%
X195524285Y-133237380D02*
X195524285Y-132237380D01*
X195286190Y-132237380D01*
X195143333Y-132285000D01*
X195048095Y-132380238D01*
X195000476Y-132475476D01*
X194952857Y-132665952D01*
X194952857Y-132808809D01*
X195000476Y-132999285D01*
X195048095Y-133094523D01*
X195143333Y-133189761D01*
X195286190Y-133237380D01*
X195524285Y-133237380D01*
X194619523Y-132237380D02*
X194000476Y-132237380D01*
X194333809Y-132618333D01*
X194190952Y-132618333D01*
X194095714Y-132665952D01*
X194048095Y-132713571D01*
X194000476Y-132808809D01*
X194000476Y-133046904D01*
X194048095Y-133142142D01*
X194095714Y-133189761D01*
X194190952Y-133237380D01*
X194476666Y-133237380D01*
X194571904Y-133189761D01*
X194619523Y-133142142D01*
X193524285Y-133237380D02*
X193333809Y-133237380D01*
X193238571Y-133189761D01*
X193190952Y-133142142D01*
X193095714Y-132999285D01*
X193048095Y-132808809D01*
X193048095Y-132427857D01*
X193095714Y-132332619D01*
X193143333Y-132285000D01*
X193238571Y-132237380D01*
X193429047Y-132237380D01*
X193524285Y-132285000D01*
X193571904Y-132332619D01*
X193619523Y-132427857D01*
X193619523Y-132665952D01*
X193571904Y-132761190D01*
X193524285Y-132808809D01*
X193429047Y-132856428D01*
X193238571Y-132856428D01*
X193143333Y-132808809D01*
X193095714Y-132761190D01*
X193048095Y-132665952D01*
X198381904Y-133607380D02*
X198381904Y-132607380D01*
X197810476Y-133607380D02*
X198239047Y-133035952D01*
X197810476Y-132607380D02*
X198381904Y-133178809D01*
%TO.C,D26*%
X138374285Y-114187380D02*
X138374285Y-113187380D01*
X138136190Y-113187380D01*
X137993333Y-113235000D01*
X137898095Y-113330238D01*
X137850476Y-113425476D01*
X137802857Y-113615952D01*
X137802857Y-113758809D01*
X137850476Y-113949285D01*
X137898095Y-114044523D01*
X137993333Y-114139761D01*
X138136190Y-114187380D01*
X138374285Y-114187380D01*
X137421904Y-113282619D02*
X137374285Y-113235000D01*
X137279047Y-113187380D01*
X137040952Y-113187380D01*
X136945714Y-113235000D01*
X136898095Y-113282619D01*
X136850476Y-113377857D01*
X136850476Y-113473095D01*
X136898095Y-113615952D01*
X137469523Y-114187380D01*
X136850476Y-114187380D01*
X135993333Y-113187380D02*
X136183809Y-113187380D01*
X136279047Y-113235000D01*
X136326666Y-113282619D01*
X136421904Y-113425476D01*
X136469523Y-113615952D01*
X136469523Y-113996904D01*
X136421904Y-114092142D01*
X136374285Y-114139761D01*
X136279047Y-114187380D01*
X136088571Y-114187380D01*
X135993333Y-114139761D01*
X135945714Y-114092142D01*
X135898095Y-113996904D01*
X135898095Y-113758809D01*
X135945714Y-113663571D01*
X135993333Y-113615952D01*
X136088571Y-113568333D01*
X136279047Y-113568333D01*
X136374285Y-113615952D01*
X136421904Y-113663571D01*
X136469523Y-113758809D01*
X141231904Y-114557380D02*
X141231904Y-113557380D01*
X140660476Y-114557380D02*
X141089047Y-113985952D01*
X140660476Y-113557380D02*
X141231904Y-114128809D01*
%TO.C,D48*%
X233624285Y-133237380D02*
X233624285Y-132237380D01*
X233386190Y-132237380D01*
X233243333Y-132285000D01*
X233148095Y-132380238D01*
X233100476Y-132475476D01*
X233052857Y-132665952D01*
X233052857Y-132808809D01*
X233100476Y-132999285D01*
X233148095Y-133094523D01*
X233243333Y-133189761D01*
X233386190Y-133237380D01*
X233624285Y-133237380D01*
X232195714Y-132570714D02*
X232195714Y-133237380D01*
X232433809Y-132189761D02*
X232671904Y-132904047D01*
X232052857Y-132904047D01*
X231529047Y-132665952D02*
X231624285Y-132618333D01*
X231671904Y-132570714D01*
X231719523Y-132475476D01*
X231719523Y-132427857D01*
X231671904Y-132332619D01*
X231624285Y-132285000D01*
X231529047Y-132237380D01*
X231338571Y-132237380D01*
X231243333Y-132285000D01*
X231195714Y-132332619D01*
X231148095Y-132427857D01*
X231148095Y-132475476D01*
X231195714Y-132570714D01*
X231243333Y-132618333D01*
X231338571Y-132665952D01*
X231529047Y-132665952D01*
X231624285Y-132713571D01*
X231671904Y-132761190D01*
X231719523Y-132856428D01*
X231719523Y-133046904D01*
X231671904Y-133142142D01*
X231624285Y-133189761D01*
X231529047Y-133237380D01*
X231338571Y-133237380D01*
X231243333Y-133189761D01*
X231195714Y-133142142D01*
X231148095Y-133046904D01*
X231148095Y-132856428D01*
X231195714Y-132761190D01*
X231243333Y-132713571D01*
X231338571Y-132665952D01*
X236481904Y-133607380D02*
X236481904Y-132607380D01*
X235910476Y-133607380D02*
X236339047Y-133035952D01*
X235910476Y-132607380D02*
X236481904Y-133178809D01*
%TO.C,D36*%
X176474285Y-152287380D02*
X176474285Y-151287380D01*
X176236190Y-151287380D01*
X176093333Y-151335000D01*
X175998095Y-151430238D01*
X175950476Y-151525476D01*
X175902857Y-151715952D01*
X175902857Y-151858809D01*
X175950476Y-152049285D01*
X175998095Y-152144523D01*
X176093333Y-152239761D01*
X176236190Y-152287380D01*
X176474285Y-152287380D01*
X175569523Y-151287380D02*
X174950476Y-151287380D01*
X175283809Y-151668333D01*
X175140952Y-151668333D01*
X175045714Y-151715952D01*
X174998095Y-151763571D01*
X174950476Y-151858809D01*
X174950476Y-152096904D01*
X174998095Y-152192142D01*
X175045714Y-152239761D01*
X175140952Y-152287380D01*
X175426666Y-152287380D01*
X175521904Y-152239761D01*
X175569523Y-152192142D01*
X174093333Y-151287380D02*
X174283809Y-151287380D01*
X174379047Y-151335000D01*
X174426666Y-151382619D01*
X174521904Y-151525476D01*
X174569523Y-151715952D01*
X174569523Y-152096904D01*
X174521904Y-152192142D01*
X174474285Y-152239761D01*
X174379047Y-152287380D01*
X174188571Y-152287380D01*
X174093333Y-152239761D01*
X174045714Y-152192142D01*
X173998095Y-152096904D01*
X173998095Y-151858809D01*
X174045714Y-151763571D01*
X174093333Y-151715952D01*
X174188571Y-151668333D01*
X174379047Y-151668333D01*
X174474285Y-151715952D01*
X174521904Y-151763571D01*
X174569523Y-151858809D01*
X179331904Y-152657380D02*
X179331904Y-151657380D01*
X178760476Y-152657380D02*
X179189047Y-152085952D01*
X178760476Y-151657380D02*
X179331904Y-152228809D01*
%TO.C,D30*%
X157424285Y-114187380D02*
X157424285Y-113187380D01*
X157186190Y-113187380D01*
X157043333Y-113235000D01*
X156948095Y-113330238D01*
X156900476Y-113425476D01*
X156852857Y-113615952D01*
X156852857Y-113758809D01*
X156900476Y-113949285D01*
X156948095Y-114044523D01*
X157043333Y-114139761D01*
X157186190Y-114187380D01*
X157424285Y-114187380D01*
X156519523Y-113187380D02*
X155900476Y-113187380D01*
X156233809Y-113568333D01*
X156090952Y-113568333D01*
X155995714Y-113615952D01*
X155948095Y-113663571D01*
X155900476Y-113758809D01*
X155900476Y-113996904D01*
X155948095Y-114092142D01*
X155995714Y-114139761D01*
X156090952Y-114187380D01*
X156376666Y-114187380D01*
X156471904Y-114139761D01*
X156519523Y-114092142D01*
X155281428Y-113187380D02*
X155186190Y-113187380D01*
X155090952Y-113235000D01*
X155043333Y-113282619D01*
X154995714Y-113377857D01*
X154948095Y-113568333D01*
X154948095Y-113806428D01*
X154995714Y-113996904D01*
X155043333Y-114092142D01*
X155090952Y-114139761D01*
X155186190Y-114187380D01*
X155281428Y-114187380D01*
X155376666Y-114139761D01*
X155424285Y-114092142D01*
X155471904Y-113996904D01*
X155519523Y-113806428D01*
X155519523Y-113568333D01*
X155471904Y-113377857D01*
X155424285Y-113282619D01*
X155376666Y-113235000D01*
X155281428Y-113187380D01*
X160281904Y-114557380D02*
X160281904Y-113557380D01*
X159710476Y-114557380D02*
X160139047Y-113985952D01*
X159710476Y-113557380D02*
X160281904Y-114128809D01*
D11*
%TO.C,D45*%
X229690000Y-152835000D02*
X229690000Y-152965000D01*
X235130000Y-152835000D02*
X229690000Y-152835000D01*
X234230000Y-152835000D02*
X234230000Y-155775000D01*
X234110000Y-152835000D02*
X234110000Y-155775000D01*
X235130000Y-152965000D02*
X235130000Y-152835000D01*
X234350000Y-152835000D02*
X234350000Y-155775000D01*
X235130000Y-155645000D02*
X235130000Y-155775000D01*
X229690000Y-155775000D02*
X229690000Y-155645000D01*
X235130000Y-155775000D02*
X229690000Y-155775000D01*
%TO.C,D17*%
X101780000Y-98625000D02*
X96340000Y-98625000D01*
X101780000Y-95685000D02*
X96340000Y-95685000D01*
X96340000Y-98625000D02*
X96340000Y-98495000D01*
X101780000Y-95815000D02*
X101780000Y-95685000D01*
X96340000Y-95685000D02*
X96340000Y-95815000D01*
X101000000Y-95685000D02*
X101000000Y-98625000D01*
X100760000Y-95685000D02*
X100760000Y-98625000D01*
X101780000Y-98495000D02*
X101780000Y-98625000D01*
X100880000Y-95685000D02*
X100880000Y-98625000D01*
%TO.C,D25*%
X139880000Y-95685000D02*
X134440000Y-95685000D01*
X139100000Y-95685000D02*
X139100000Y-98625000D01*
X139880000Y-98625000D02*
X134440000Y-98625000D01*
X139880000Y-95815000D02*
X139880000Y-95685000D01*
X139880000Y-98495000D02*
X139880000Y-98625000D01*
X134440000Y-98625000D02*
X134440000Y-98495000D01*
X138860000Y-95685000D02*
X138860000Y-98625000D01*
X134440000Y-95685000D02*
X134440000Y-95815000D01*
X138980000Y-95685000D02*
X138980000Y-98625000D01*
%TO.C,D23*%
X115390000Y-136725000D02*
X115390000Y-136595000D01*
X119810000Y-133785000D02*
X119810000Y-136725000D01*
X120050000Y-133785000D02*
X120050000Y-136725000D01*
X120830000Y-136725000D02*
X115390000Y-136725000D01*
X120830000Y-136595000D02*
X120830000Y-136725000D01*
X120830000Y-133915000D02*
X120830000Y-133785000D01*
X119930000Y-133785000D02*
X119930000Y-136725000D01*
X115390000Y-133785000D02*
X115390000Y-133915000D01*
X120830000Y-133785000D02*
X115390000Y-133785000D01*
%TO.C,D7*%
X43610000Y-133785000D02*
X43610000Y-136725000D01*
X39190000Y-136725000D02*
X39190000Y-136595000D01*
X43850000Y-133785000D02*
X43850000Y-136725000D01*
X43730000Y-133785000D02*
X43730000Y-136725000D01*
X44630000Y-133915000D02*
X44630000Y-133785000D01*
X39190000Y-133785000D02*
X39190000Y-133915000D01*
X44630000Y-133785000D02*
X39190000Y-133785000D01*
X44630000Y-136595000D02*
X44630000Y-136725000D01*
X44630000Y-136725000D02*
X39190000Y-136725000D01*
%TO.C,D37*%
X197030000Y-98495000D02*
X197030000Y-98625000D01*
X197030000Y-95685000D02*
X191590000Y-95685000D01*
X196010000Y-95685000D02*
X196010000Y-98625000D01*
X197030000Y-98625000D02*
X191590000Y-98625000D01*
X196130000Y-95685000D02*
X196130000Y-98625000D01*
X191590000Y-98625000D02*
X191590000Y-98495000D01*
X191590000Y-95685000D02*
X191590000Y-95815000D01*
X196250000Y-95685000D02*
X196250000Y-98625000D01*
X197030000Y-95815000D02*
X197030000Y-95685000D01*
%TO.C,D41*%
X216080000Y-95815000D02*
X216080000Y-95685000D01*
X216080000Y-95685000D02*
X210640000Y-95685000D01*
X210640000Y-98625000D02*
X210640000Y-98495000D01*
X215300000Y-95685000D02*
X215300000Y-98625000D01*
X210640000Y-95685000D02*
X210640000Y-95815000D01*
X216080000Y-98495000D02*
X216080000Y-98625000D01*
X216080000Y-98625000D02*
X210640000Y-98625000D01*
X215180000Y-95685000D02*
X215180000Y-98625000D01*
X215060000Y-95685000D02*
X215060000Y-98625000D01*
%TO.C,D28*%
X139880000Y-152835000D02*
X134440000Y-152835000D01*
X139880000Y-152965000D02*
X139880000Y-152835000D01*
X134440000Y-155775000D02*
X134440000Y-155645000D01*
X138980000Y-152835000D02*
X138980000Y-155775000D01*
X139880000Y-155645000D02*
X139880000Y-155775000D01*
X138860000Y-152835000D02*
X138860000Y-155775000D01*
X139880000Y-155775000D02*
X134440000Y-155775000D01*
X139100000Y-152835000D02*
X139100000Y-155775000D01*
X134440000Y-152835000D02*
X134440000Y-152965000D01*
%TO.C,D11*%
X62900000Y-133785000D02*
X62900000Y-136725000D01*
X58240000Y-133785000D02*
X58240000Y-133915000D01*
X63680000Y-136725000D02*
X58240000Y-136725000D01*
X62660000Y-133785000D02*
X62660000Y-136725000D01*
X62780000Y-133785000D02*
X62780000Y-136725000D01*
X63680000Y-133785000D02*
X58240000Y-133785000D01*
X63680000Y-136595000D02*
X63680000Y-136725000D01*
X63680000Y-133915000D02*
X63680000Y-133785000D01*
X58240000Y-136725000D02*
X58240000Y-136595000D01*
%TO.C,D43*%
X215180000Y-133658000D02*
X215180000Y-136598000D01*
X210640000Y-133658000D02*
X210640000Y-133788000D01*
X216080000Y-133658000D02*
X210640000Y-133658000D01*
X216080000Y-136468000D02*
X216080000Y-136598000D01*
X210640000Y-136598000D02*
X210640000Y-136468000D01*
X216080000Y-136598000D02*
X210640000Y-136598000D01*
X215060000Y-133658000D02*
X215060000Y-136598000D01*
X215300000Y-133658000D02*
X215300000Y-136598000D01*
X216080000Y-133788000D02*
X216080000Y-133658000D01*
%TO.C,R1*%
X29495000Y-71770000D02*
X29495000Y-67930000D01*
X27655000Y-71770000D02*
X27655000Y-67930000D01*
%TO.C,D21*%
X115390000Y-98625000D02*
X115390000Y-98495000D01*
X120830000Y-95685000D02*
X115390000Y-95685000D01*
X120830000Y-98625000D02*
X115390000Y-98625000D01*
X115390000Y-95685000D02*
X115390000Y-95815000D01*
X120050000Y-95685000D02*
X120050000Y-98625000D01*
X120830000Y-98495000D02*
X120830000Y-98625000D01*
X120830000Y-95815000D02*
X120830000Y-95685000D01*
X119810000Y-95685000D02*
X119810000Y-98625000D01*
X119930000Y-95685000D02*
X119930000Y-98625000D01*
%TO.C,D27*%
X139880000Y-133915000D02*
X139880000Y-133785000D01*
X139880000Y-133785000D02*
X134440000Y-133785000D01*
X134440000Y-136725000D02*
X134440000Y-136595000D01*
X139880000Y-136725000D02*
X134440000Y-136725000D01*
X139880000Y-136595000D02*
X139880000Y-136725000D01*
X139100000Y-133785000D02*
X139100000Y-136725000D01*
X138980000Y-133785000D02*
X138980000Y-136725000D01*
X138860000Y-133785000D02*
X138860000Y-136725000D01*
X134440000Y-133785000D02*
X134440000Y-133915000D01*
%TO.C,D35*%
X176960000Y-133785000D02*
X176960000Y-136725000D01*
X177980000Y-136725000D02*
X172540000Y-136725000D01*
X177080000Y-133785000D02*
X177080000Y-136725000D01*
X177200000Y-133785000D02*
X177200000Y-136725000D01*
X177980000Y-136595000D02*
X177980000Y-136725000D01*
X172540000Y-133785000D02*
X172540000Y-133915000D01*
X177980000Y-133785000D02*
X172540000Y-133785000D01*
X172540000Y-136725000D02*
X172540000Y-136595000D01*
X177980000Y-133915000D02*
X177980000Y-133785000D01*
%TO.C,D16*%
X82730000Y-152835000D02*
X77290000Y-152835000D01*
X77290000Y-155775000D02*
X77290000Y-155645000D01*
X82730000Y-152965000D02*
X82730000Y-152835000D01*
X81950000Y-152835000D02*
X81950000Y-155775000D01*
X77290000Y-152835000D02*
X77290000Y-152965000D01*
X82730000Y-155775000D02*
X77290000Y-155775000D01*
X81710000Y-152835000D02*
X81710000Y-155775000D01*
X81830000Y-152835000D02*
X81830000Y-155775000D01*
X82730000Y-155645000D02*
X82730000Y-155775000D01*
%TO.C,D19*%
X96340000Y-136725000D02*
X96340000Y-136595000D01*
X96340000Y-133785000D02*
X96340000Y-133915000D01*
X100760000Y-133785000D02*
X100760000Y-136725000D01*
X100880000Y-133785000D02*
X100880000Y-136725000D01*
X101780000Y-136595000D02*
X101780000Y-136725000D01*
X101780000Y-133915000D02*
X101780000Y-133785000D01*
X101000000Y-133785000D02*
X101000000Y-136725000D01*
X101780000Y-136725000D02*
X96340000Y-136725000D01*
X101780000Y-133785000D02*
X96340000Y-133785000D01*
%TO.C,D42*%
X215300000Y-114735000D02*
X215300000Y-117675000D01*
X216080000Y-117675000D02*
X210640000Y-117675000D01*
X215060000Y-114735000D02*
X215060000Y-117675000D01*
X210640000Y-117675000D02*
X210640000Y-117545000D01*
X215180000Y-114735000D02*
X215180000Y-117675000D01*
X210640000Y-114735000D02*
X210640000Y-114865000D01*
X216080000Y-114865000D02*
X216080000Y-114735000D01*
X216080000Y-117545000D02*
X216080000Y-117675000D01*
X216080000Y-114735000D02*
X210640000Y-114735000D01*
%TO.C,D31*%
X153490000Y-136725000D02*
X153490000Y-136595000D01*
X158930000Y-136595000D02*
X158930000Y-136725000D01*
X157910000Y-133785000D02*
X157910000Y-136725000D01*
X158030000Y-133785000D02*
X158030000Y-136725000D01*
X153490000Y-133785000D02*
X153490000Y-133915000D01*
X158930000Y-133785000D02*
X153490000Y-133785000D01*
X158930000Y-133915000D02*
X158930000Y-133785000D01*
X158150000Y-133785000D02*
X158150000Y-136725000D01*
X158930000Y-136725000D02*
X153490000Y-136725000D01*
%TO.C,D38*%
X191590000Y-114735000D02*
X191590000Y-114865000D01*
X197030000Y-114735000D02*
X191590000Y-114735000D01*
X197030000Y-117545000D02*
X197030000Y-117675000D01*
X196250000Y-114735000D02*
X196250000Y-117675000D01*
X191590000Y-117675000D02*
X191590000Y-117545000D01*
X197030000Y-114865000D02*
X197030000Y-114735000D01*
X196130000Y-114735000D02*
X196130000Y-117675000D01*
X196010000Y-114735000D02*
X196010000Y-117675000D01*
X197030000Y-117675000D02*
X191590000Y-117675000D01*
%TO.C,D15*%
X81830000Y-133785000D02*
X81830000Y-136725000D01*
X81710000Y-133785000D02*
X81710000Y-136725000D01*
X82730000Y-133785000D02*
X77290000Y-133785000D01*
X77290000Y-133785000D02*
X77290000Y-133915000D01*
X81950000Y-133785000D02*
X81950000Y-136725000D01*
X82730000Y-136725000D02*
X77290000Y-136725000D01*
X77290000Y-136725000D02*
X77290000Y-136595000D01*
X82730000Y-133915000D02*
X82730000Y-133785000D01*
X82730000Y-136595000D02*
X82730000Y-136725000D01*
%TO.C,D34*%
X172540000Y-114735000D02*
X172540000Y-114865000D01*
X176960000Y-114735000D02*
X176960000Y-117675000D01*
X177980000Y-114735000D02*
X172540000Y-114735000D01*
X177980000Y-117545000D02*
X177980000Y-117675000D01*
X177200000Y-114735000D02*
X177200000Y-117675000D01*
X177980000Y-114865000D02*
X177980000Y-114735000D01*
X177980000Y-117675000D02*
X172540000Y-117675000D01*
X172540000Y-117675000D02*
X172540000Y-117545000D01*
X177080000Y-114735000D02*
X177080000Y-117675000D01*
%TO.C,D10*%
X58240000Y-114735000D02*
X58240000Y-114865000D01*
X63680000Y-114735000D02*
X58240000Y-114735000D01*
X62660000Y-114735000D02*
X62660000Y-117675000D01*
X62780000Y-114735000D02*
X62780000Y-117675000D01*
X63680000Y-117545000D02*
X63680000Y-117675000D01*
X63680000Y-114865000D02*
X63680000Y-114735000D01*
X62900000Y-114735000D02*
X62900000Y-117675000D01*
X58240000Y-117675000D02*
X58240000Y-117545000D01*
X63680000Y-117675000D02*
X58240000Y-117675000D01*
%TO.C,D40*%
X197030000Y-152835000D02*
X191590000Y-152835000D01*
X196250000Y-152835000D02*
X196250000Y-155775000D01*
X196010000Y-152835000D02*
X196010000Y-155775000D01*
X191590000Y-152835000D02*
X191590000Y-152965000D01*
X191590000Y-155775000D02*
X191590000Y-155645000D01*
X196130000Y-152835000D02*
X196130000Y-155775000D01*
X197030000Y-155645000D02*
X197030000Y-155775000D01*
X197030000Y-152965000D02*
X197030000Y-152835000D01*
X197030000Y-155775000D02*
X191590000Y-155775000D01*
%TO.C,D13*%
X77290000Y-98625000D02*
X77290000Y-98495000D01*
X81710000Y-95685000D02*
X81710000Y-98625000D01*
X82730000Y-95685000D02*
X77290000Y-95685000D01*
X81830000Y-95685000D02*
X81830000Y-98625000D01*
X77290000Y-95685000D02*
X77290000Y-95815000D01*
X82730000Y-95815000D02*
X82730000Y-95685000D01*
X81950000Y-95685000D02*
X81950000Y-98625000D01*
X82730000Y-98495000D02*
X82730000Y-98625000D01*
X82730000Y-98625000D02*
X77290000Y-98625000D01*
%TO.C,D29*%
X157910000Y-95685000D02*
X157910000Y-98625000D01*
X153490000Y-95685000D02*
X153490000Y-95815000D01*
X158930000Y-95815000D02*
X158930000Y-95685000D01*
X158930000Y-98625000D02*
X153490000Y-98625000D01*
X158150000Y-95685000D02*
X158150000Y-98625000D01*
X158930000Y-95685000D02*
X153490000Y-95685000D01*
X158030000Y-95685000D02*
X158030000Y-98625000D01*
X158930000Y-98495000D02*
X158930000Y-98625000D01*
X153490000Y-98625000D02*
X153490000Y-98495000D01*
%TO.C,D6*%
X44630000Y-117545000D02*
X44630000Y-117675000D01*
X43730000Y-114735000D02*
X43730000Y-117675000D01*
X43610000Y-114735000D02*
X43610000Y-117675000D01*
X43850000Y-114735000D02*
X43850000Y-117675000D01*
X39190000Y-117675000D02*
X39190000Y-117545000D01*
X44630000Y-114735000D02*
X39190000Y-114735000D01*
X39190000Y-114735000D02*
X39190000Y-114865000D01*
X44630000Y-117675000D02*
X39190000Y-117675000D01*
X44630000Y-114865000D02*
X44630000Y-114735000D01*
%TO.C,D5*%
X39190000Y-98625000D02*
X39190000Y-98495000D01*
X39190000Y-95685000D02*
X39190000Y-95815000D01*
X43730000Y-95685000D02*
X43730000Y-98625000D01*
X44630000Y-95685000D02*
X39190000Y-95685000D01*
X43610000Y-95685000D02*
X43610000Y-98625000D01*
X44630000Y-98625000D02*
X39190000Y-98625000D01*
X43850000Y-95685000D02*
X43850000Y-98625000D01*
X44630000Y-95815000D02*
X44630000Y-95685000D01*
X44630000Y-98495000D02*
X44630000Y-98625000D01*
%TO.C,D12*%
X62660000Y-152835000D02*
X62660000Y-155775000D01*
X58240000Y-152835000D02*
X58240000Y-152965000D01*
X62900000Y-152835000D02*
X62900000Y-155775000D01*
X63680000Y-152965000D02*
X63680000Y-152835000D01*
X63680000Y-155645000D02*
X63680000Y-155775000D01*
X62780000Y-152835000D02*
X62780000Y-155775000D01*
X63680000Y-152835000D02*
X58240000Y-152835000D01*
X58240000Y-155775000D02*
X58240000Y-155645000D01*
X63680000Y-155775000D02*
X58240000Y-155775000D01*
%TO.C,D32*%
X158930000Y-152835000D02*
X153490000Y-152835000D01*
X158930000Y-155775000D02*
X153490000Y-155775000D01*
X158030000Y-152835000D02*
X158030000Y-155775000D01*
X158150000Y-152835000D02*
X158150000Y-155775000D01*
X153490000Y-152835000D02*
X153490000Y-152965000D01*
X158930000Y-152965000D02*
X158930000Y-152835000D01*
X157910000Y-152835000D02*
X157910000Y-155775000D01*
X158930000Y-155645000D02*
X158930000Y-155775000D01*
X153490000Y-155775000D02*
X153490000Y-155645000D01*
%TO.C,D44*%
X215300000Y-152835000D02*
X215300000Y-155775000D01*
X215060000Y-152835000D02*
X215060000Y-155775000D01*
X216080000Y-155775000D02*
X210640000Y-155775000D01*
X210640000Y-152835000D02*
X210640000Y-152965000D01*
X216080000Y-152965000D02*
X216080000Y-152835000D01*
X215180000Y-152835000D02*
X215180000Y-155775000D01*
X216080000Y-152835000D02*
X210640000Y-152835000D01*
X216080000Y-155645000D02*
X216080000Y-155775000D01*
X210640000Y-155775000D02*
X210640000Y-155645000D01*
%TO.C,D8*%
X44630000Y-152965000D02*
X44630000Y-152835000D01*
X43850000Y-152835000D02*
X43850000Y-155775000D01*
X44630000Y-152835000D02*
X39190000Y-152835000D01*
X44630000Y-155775000D02*
X39190000Y-155775000D01*
X43730000Y-152835000D02*
X43730000Y-155775000D01*
X39190000Y-155775000D02*
X39190000Y-155645000D01*
X39190000Y-152835000D02*
X39190000Y-152965000D01*
X44630000Y-155645000D02*
X44630000Y-155775000D01*
X43610000Y-152835000D02*
X43610000Y-155775000D01*
%TO.C,D9*%
X58240000Y-95685000D02*
X58240000Y-95815000D01*
X62900000Y-95685000D02*
X62900000Y-98625000D01*
X63680000Y-95815000D02*
X63680000Y-95685000D01*
X63680000Y-98625000D02*
X58240000Y-98625000D01*
X63680000Y-98495000D02*
X63680000Y-98625000D01*
X63680000Y-95685000D02*
X58240000Y-95685000D01*
X62780000Y-95685000D02*
X62780000Y-98625000D01*
X58240000Y-98625000D02*
X58240000Y-98495000D01*
X62660000Y-95685000D02*
X62660000Y-98625000D01*
%TO.C,D14*%
X77290000Y-117675000D02*
X77290000Y-117545000D01*
X82730000Y-114865000D02*
X82730000Y-114735000D01*
X82730000Y-117545000D02*
X82730000Y-117675000D01*
X81950000Y-114735000D02*
X81950000Y-117675000D01*
X81830000Y-114735000D02*
X81830000Y-117675000D01*
X82730000Y-114735000D02*
X77290000Y-114735000D01*
X77290000Y-114735000D02*
X77290000Y-114865000D01*
X81710000Y-114735000D02*
X81710000Y-117675000D01*
X82730000Y-117675000D02*
X77290000Y-117675000D01*
%TO.C,R2*%
X29495000Y-85105000D02*
X29495000Y-81265000D01*
X27655000Y-85105000D02*
X27655000Y-81265000D01*
%TO.C,D20*%
X96340000Y-155775000D02*
X96340000Y-155645000D01*
X101000000Y-152835000D02*
X101000000Y-155775000D01*
X101780000Y-155645000D02*
X101780000Y-155775000D01*
X101780000Y-152835000D02*
X96340000Y-152835000D01*
X100880000Y-152835000D02*
X100880000Y-155775000D01*
X101780000Y-155775000D02*
X96340000Y-155775000D01*
X101780000Y-152965000D02*
X101780000Y-152835000D01*
X100760000Y-152835000D02*
X100760000Y-155775000D01*
X96340000Y-152835000D02*
X96340000Y-152965000D01*
%TO.C,D46*%
X235130000Y-98625000D02*
X229690000Y-98625000D01*
X234230000Y-95685000D02*
X234230000Y-98625000D01*
X235130000Y-95815000D02*
X235130000Y-95685000D01*
X229690000Y-95685000D02*
X229690000Y-95815000D01*
X235130000Y-98495000D02*
X235130000Y-98625000D01*
X234110000Y-95685000D02*
X234110000Y-98625000D01*
X229690000Y-98625000D02*
X229690000Y-98495000D01*
X235130000Y-95685000D02*
X229690000Y-95685000D01*
X234350000Y-95685000D02*
X234350000Y-98625000D01*
%TO.C,D18*%
X100760000Y-114735000D02*
X100760000Y-117675000D01*
X101000000Y-114735000D02*
X101000000Y-117675000D01*
X101780000Y-117545000D02*
X101780000Y-117675000D01*
X100880000Y-114735000D02*
X100880000Y-117675000D01*
X96340000Y-117675000D02*
X96340000Y-117545000D01*
X101780000Y-114865000D02*
X101780000Y-114735000D01*
X101780000Y-114735000D02*
X96340000Y-114735000D01*
X96340000Y-114735000D02*
X96340000Y-114865000D01*
X101780000Y-117675000D02*
X96340000Y-117675000D01*
%TO.C,D47*%
X234110000Y-114735000D02*
X234110000Y-117675000D01*
X235130000Y-114865000D02*
X235130000Y-114735000D01*
X234350000Y-114735000D02*
X234350000Y-117675000D01*
X235130000Y-117545000D02*
X235130000Y-117675000D01*
X229690000Y-114735000D02*
X229690000Y-114865000D01*
X234230000Y-114735000D02*
X234230000Y-117675000D01*
X229690000Y-117675000D02*
X229690000Y-117545000D01*
X235130000Y-114735000D02*
X229690000Y-114735000D01*
X235130000Y-117675000D02*
X229690000Y-117675000D01*
%TO.C,D24*%
X115390000Y-152835000D02*
X115390000Y-152965000D01*
X120830000Y-155775000D02*
X115390000Y-155775000D01*
X120830000Y-152835000D02*
X115390000Y-152835000D01*
X120830000Y-152965000D02*
X120830000Y-152835000D01*
X115390000Y-155775000D02*
X115390000Y-155645000D01*
X119930000Y-152835000D02*
X119930000Y-155775000D01*
X120830000Y-155645000D02*
X120830000Y-155775000D01*
X119810000Y-152835000D02*
X119810000Y-155775000D01*
X120050000Y-152835000D02*
X120050000Y-155775000D01*
%TO.C,D22*%
X120830000Y-117675000D02*
X115390000Y-117675000D01*
X119810000Y-114735000D02*
X119810000Y-117675000D01*
X120050000Y-114735000D02*
X120050000Y-117675000D01*
X119930000Y-114735000D02*
X119930000Y-117675000D01*
X115390000Y-114735000D02*
X115390000Y-114865000D01*
X120830000Y-114735000D02*
X115390000Y-114735000D01*
X115390000Y-117675000D02*
X115390000Y-117545000D01*
X120830000Y-117545000D02*
X120830000Y-117675000D01*
X120830000Y-114865000D02*
X120830000Y-114735000D01*
%TO.C,R3*%
X96250000Y-60670000D02*
X96250000Y-64510000D01*
X98090000Y-60670000D02*
X98090000Y-64510000D01*
%TO.C,D4*%
X24560000Y-152835000D02*
X24560000Y-155775000D01*
X20140000Y-155775000D02*
X20140000Y-155645000D01*
X25580000Y-152965000D02*
X25580000Y-152835000D01*
X24680000Y-152835000D02*
X24680000Y-155775000D01*
X25580000Y-155775000D02*
X20140000Y-155775000D01*
X25580000Y-152835000D02*
X20140000Y-152835000D01*
X20140000Y-152835000D02*
X20140000Y-152965000D01*
X24800000Y-152835000D02*
X24800000Y-155775000D01*
X25580000Y-155645000D02*
X25580000Y-155775000D01*
%TO.C,D3*%
X20140000Y-136725000D02*
X20140000Y-136595000D01*
X25580000Y-136725000D02*
X20140000Y-136725000D01*
X25580000Y-133785000D02*
X20140000Y-133785000D01*
X24560000Y-133785000D02*
X24560000Y-136725000D01*
X24800000Y-133785000D02*
X24800000Y-136725000D01*
X20140000Y-133785000D02*
X20140000Y-133915000D01*
X25580000Y-136595000D02*
X25580000Y-136725000D01*
X25580000Y-133915000D02*
X25580000Y-133785000D01*
X24680000Y-133785000D02*
X24680000Y-136725000D01*
%TO.C,D1*%
X25580000Y-98495000D02*
X25580000Y-98625000D01*
X24560000Y-95685000D02*
X24560000Y-98625000D01*
X24800000Y-95685000D02*
X24800000Y-98625000D01*
X20140000Y-98625000D02*
X20140000Y-98495000D01*
X25580000Y-95685000D02*
X20140000Y-95685000D01*
X25580000Y-95815000D02*
X25580000Y-95685000D01*
X24680000Y-95685000D02*
X24680000Y-98625000D01*
X20140000Y-95685000D02*
X20140000Y-95815000D01*
X25580000Y-98625000D02*
X20140000Y-98625000D01*
%TO.C,D33*%
X177980000Y-95815000D02*
X177980000Y-95685000D01*
X177980000Y-98495000D02*
X177980000Y-98625000D01*
X177980000Y-95685000D02*
X172540000Y-95685000D01*
X177200000Y-95685000D02*
X177200000Y-98625000D01*
X177080000Y-95685000D02*
X177080000Y-98625000D01*
X177980000Y-98625000D02*
X172540000Y-98625000D01*
X176960000Y-95685000D02*
X176960000Y-98625000D01*
X172540000Y-98625000D02*
X172540000Y-98495000D01*
X172540000Y-95685000D02*
X172540000Y-95815000D01*
%TO.C,D2*%
X24560000Y-114735000D02*
X24560000Y-117675000D01*
X24800000Y-114735000D02*
X24800000Y-117675000D01*
X24680000Y-114735000D02*
X24680000Y-117675000D01*
X25580000Y-117675000D02*
X20140000Y-117675000D01*
X20140000Y-117675000D02*
X20140000Y-117545000D01*
X25580000Y-117545000D02*
X25580000Y-117675000D01*
X25580000Y-114735000D02*
X20140000Y-114735000D01*
X25580000Y-114865000D02*
X25580000Y-114735000D01*
X20140000Y-114735000D02*
X20140000Y-114865000D01*
%TO.C,D39*%
X196130000Y-133785000D02*
X196130000Y-136725000D01*
X197030000Y-136595000D02*
X197030000Y-136725000D01*
X191590000Y-136725000D02*
X191590000Y-136595000D01*
X197030000Y-136725000D02*
X191590000Y-136725000D01*
X197030000Y-133915000D02*
X197030000Y-133785000D01*
X191590000Y-133785000D02*
X191590000Y-133915000D01*
X197030000Y-133785000D02*
X191590000Y-133785000D01*
X196010000Y-133785000D02*
X196010000Y-136725000D01*
X196250000Y-133785000D02*
X196250000Y-136725000D01*
%TO.C,D26*%
X138860000Y-114735000D02*
X138860000Y-117675000D01*
X139880000Y-117675000D02*
X134440000Y-117675000D01*
X139880000Y-114865000D02*
X139880000Y-114735000D01*
X139880000Y-114735000D02*
X134440000Y-114735000D01*
X134440000Y-114735000D02*
X134440000Y-114865000D01*
X139880000Y-117545000D02*
X139880000Y-117675000D01*
X139100000Y-114735000D02*
X139100000Y-117675000D01*
X138980000Y-114735000D02*
X138980000Y-117675000D01*
X134440000Y-117675000D02*
X134440000Y-117545000D01*
%TO.C,G3*%
G36*
X60708113Y-81314726D02*
G01*
X60696574Y-81396530D01*
X60627853Y-81445205D01*
X60587783Y-81438256D01*
X60540867Y-81383792D01*
X60544256Y-81364449D01*
X60594469Y-81355506D01*
X60629103Y-81356405D01*
X60674728Y-81286440D01*
X60679701Y-81268236D01*
X60698402Y-81235809D01*
X60708113Y-81314726D01*
G37*
G36*
X64716210Y-76371004D02*
G01*
X64687214Y-76400000D01*
X64658219Y-76371004D01*
X64687214Y-76342009D01*
X64716210Y-76371004D01*
G37*
G36*
X60830821Y-81648173D02*
G01*
X60801826Y-81677169D01*
X60772831Y-81648173D01*
X60801826Y-81619178D01*
X60830821Y-81648173D01*
G37*
G36*
X62662710Y-80413738D02*
G01*
X62674887Y-80490653D01*
X62683355Y-80649431D01*
X62686529Y-80865296D01*
X62685938Y-80952581D01*
X62679394Y-81148196D01*
X62667145Y-81276489D01*
X62651113Y-81313138D01*
X62644761Y-81299829D01*
X62630873Y-81197015D01*
X62623732Y-81027422D01*
X62623082Y-80827541D01*
X62628662Y-80633863D01*
X62640217Y-80482879D01*
X62657488Y-80411080D01*
X62662710Y-80413738D01*
G37*
G36*
X69916767Y-80489647D02*
G01*
X69929167Y-80622541D01*
X69933624Y-80860464D01*
X69933265Y-80952291D01*
X69926873Y-81147548D01*
X69914191Y-81274905D01*
X69897167Y-81310333D01*
X69878568Y-81273941D01*
X69852560Y-81140018D01*
X69837672Y-80952915D01*
X69835121Y-80752917D01*
X69846127Y-80580306D01*
X69871908Y-80475366D01*
X69894696Y-80450998D01*
X69916767Y-80489647D01*
G37*
G36*
X70206012Y-74911567D02*
G01*
X70215084Y-74929010D01*
X70167351Y-74950228D01*
X70136651Y-74946043D01*
X70128691Y-74911567D01*
X70137190Y-74904627D01*
X70206012Y-74911567D01*
G37*
G36*
X64895713Y-79241552D02*
G01*
X64922180Y-79352728D01*
X64942393Y-79488013D01*
X64928994Y-79547824D01*
X64838358Y-79589497D01*
X64811753Y-79588731D01*
X64762065Y-79567913D01*
X64757265Y-79496004D01*
X64791678Y-79343036D01*
X64810480Y-79271068D01*
X64843742Y-79168529D01*
X64868149Y-79162596D01*
X64895713Y-79241552D01*
G37*
G36*
X67639321Y-73429713D02*
G01*
X67611048Y-73567238D01*
X67597720Y-73590148D01*
X67508323Y-73664350D01*
X67385272Y-73643032D01*
X67214762Y-73524714D01*
X67136768Y-73453534D01*
X67075484Y-73359277D01*
X67091616Y-73272639D01*
X67104129Y-73239497D01*
X67383790Y-73239497D01*
X67412785Y-73268493D01*
X67441780Y-73239497D01*
X67412785Y-73210502D01*
X67383790Y-73239497D01*
X67104129Y-73239497D01*
X67114112Y-73213058D01*
X67091384Y-73115265D01*
X67083826Y-73098425D01*
X67146017Y-73081551D01*
X67307572Y-73091884D01*
X67356304Y-73097907D01*
X67504523Y-73129089D01*
X67581529Y-73186065D01*
X67602790Y-73239497D01*
X67623595Y-73291781D01*
X67639321Y-73429713D01*
G37*
G36*
X71641396Y-78038263D02*
G01*
X71675114Y-78105898D01*
X71663180Y-78151025D01*
X71583295Y-78197717D01*
X71519932Y-78164243D01*
X71529669Y-78094754D01*
X71606250Y-78037034D01*
X71641396Y-78038263D01*
G37*
G36*
X65368607Y-77637393D02*
G01*
X65378444Y-77657529D01*
X65296118Y-77666642D01*
X65216345Y-77658559D01*
X65223630Y-77637393D01*
X65249879Y-77629733D01*
X65368607Y-77637393D01*
G37*
G36*
X69819406Y-74138356D02*
G01*
X69815221Y-74169056D01*
X69780745Y-74177016D01*
X69773805Y-74168517D01*
X69780745Y-74099695D01*
X69798188Y-74090623D01*
X69819406Y-74138356D01*
G37*
G36*
X66484346Y-77326908D02*
G01*
X66490091Y-77357313D01*
X66430363Y-77385844D01*
X66401084Y-77384710D01*
X66342517Y-77357317D01*
X66393938Y-77301335D01*
X66414848Y-77293454D01*
X66484346Y-77326908D01*
G37*
G36*
X65644064Y-79995433D02*
G01*
X65639878Y-80026134D01*
X65605403Y-80034094D01*
X65598463Y-80025594D01*
X65605403Y-79956773D01*
X65622846Y-79947700D01*
X65644064Y-79995433D01*
G37*
G36*
X66061268Y-75768078D02*
G01*
X66107990Y-75820091D01*
X66084662Y-75854422D01*
X65988586Y-75878082D01*
X65922778Y-75865735D01*
X65905022Y-75820091D01*
X65925694Y-75797443D01*
X66024427Y-75762100D01*
X66061268Y-75768078D01*
G37*
G36*
X66050000Y-73297488D02*
G01*
X66021004Y-73326484D01*
X65992009Y-73297488D01*
X66021004Y-73268493D01*
X66050000Y-73297488D01*
G37*
G36*
X66436605Y-73345814D02*
G01*
X66445678Y-73363257D01*
X66397945Y-73384475D01*
X66367245Y-73380289D01*
X66359284Y-73345814D01*
X66367784Y-73338874D01*
X66436605Y-73345814D01*
G37*
G36*
X64499471Y-79598359D02*
G01*
X64513242Y-79647488D01*
X64501356Y-79665033D01*
X64455251Y-79705479D01*
X64446863Y-79702750D01*
X64397260Y-79647488D01*
X64392615Y-79616774D01*
X64455251Y-79589497D01*
X64499471Y-79598359D01*
G37*
G36*
X70780966Y-71260561D02*
G01*
X70805251Y-71354794D01*
X70794376Y-71422206D01*
X70747260Y-71470776D01*
X70713554Y-71449027D01*
X70689269Y-71354794D01*
X70700143Y-71287383D01*
X70747260Y-71238812D01*
X70780966Y-71260561D01*
G37*
G36*
X63575554Y-79620629D02*
G01*
X63582372Y-79652539D01*
X63664228Y-79679926D01*
X63834685Y-79706856D01*
X64107306Y-79737400D01*
X64299320Y-79756067D01*
X64554860Y-79774217D01*
X64734664Y-79773923D01*
X64863396Y-79754553D01*
X64965718Y-79715477D01*
X65005200Y-79696248D01*
X65175404Y-79622804D01*
X65367340Y-79550011D01*
X65548830Y-79488904D01*
X65687695Y-79450521D01*
X65751756Y-79445896D01*
X65757360Y-79454800D01*
X65717852Y-79473516D01*
X65678481Y-79481600D01*
X65559055Y-79559432D01*
X65434249Y-79690029D01*
X65335968Y-79836456D01*
X65307665Y-79925462D01*
X65296118Y-79961774D01*
X65299365Y-80030902D01*
X65327418Y-80082420D01*
X65329341Y-80085952D01*
X65415803Y-80105270D01*
X65588391Y-80103201D01*
X65691134Y-80103369D01*
X65852170Y-80120751D01*
X65942430Y-80154622D01*
X65943293Y-80155475D01*
X66034558Y-80183423D01*
X66191933Y-80137945D01*
X66298826Y-80104088D01*
X66534177Y-80099428D01*
X66735812Y-80188551D01*
X66789256Y-80217234D01*
X66855692Y-80179406D01*
X66924554Y-80147458D01*
X67082968Y-80122364D01*
X67300531Y-80106722D01*
X67548129Y-80100641D01*
X67796647Y-80104231D01*
X68016969Y-80117602D01*
X68179981Y-80140862D01*
X68256568Y-80174123D01*
X68296483Y-80213784D01*
X68379712Y-80188551D01*
X68416153Y-80163343D01*
X68604775Y-80098574D01*
X68813315Y-80101374D01*
X69000420Y-80166242D01*
X69124740Y-80287675D01*
X69133157Y-80308838D01*
X69157811Y-80442184D01*
X69175031Y-80646062D01*
X69179973Y-80828904D01*
X69181506Y-80885607D01*
X69181506Y-81377468D01*
X68955696Y-81556314D01*
X68821161Y-81643832D01*
X68622102Y-81721571D01*
X68435308Y-81745698D01*
X68289506Y-81713639D01*
X68213418Y-81622822D01*
X68202629Y-81588450D01*
X68174026Y-81561187D01*
X68311643Y-81561187D01*
X68334077Y-81602940D01*
X68431924Y-81623929D01*
X68577285Y-81602757D01*
X68736917Y-81545478D01*
X68877577Y-81458143D01*
X68956744Y-81389000D01*
X69019039Y-81312042D01*
X69051694Y-81214163D01*
X69064200Y-81063679D01*
X69066047Y-80828904D01*
X69062547Y-80616409D01*
X69042396Y-80428420D01*
X68993724Y-80312349D01*
X68904743Y-80243583D01*
X68763667Y-80197509D01*
X68706075Y-80186837D01*
X68584179Y-80208243D01*
X68453378Y-80312353D01*
X68414579Y-80352320D01*
X68352144Y-80435248D01*
X68320788Y-80533134D01*
X68313090Y-80679540D01*
X68315696Y-80749315D01*
X68321623Y-80908029D01*
X68339338Y-81127367D01*
X68371927Y-81301815D01*
X68414770Y-81373264D01*
X68467671Y-81405879D01*
X68476507Y-81470076D01*
X68398630Y-81503196D01*
X68358614Y-81509739D01*
X68311643Y-81561187D01*
X68174026Y-81561187D01*
X68151217Y-81539447D01*
X68041099Y-81564831D01*
X68027204Y-81569964D01*
X67813971Y-81615087D01*
X67623956Y-81600396D01*
X67496730Y-81528527D01*
X67474527Y-81502567D01*
X67419342Y-81467753D01*
X67384855Y-81510900D01*
X67370766Y-81528527D01*
X67342890Y-81557137D01*
X67223862Y-81602450D01*
X67066285Y-81620509D01*
X66919689Y-81608190D01*
X66833610Y-81562374D01*
X66801094Y-81538357D01*
X66699708Y-81556200D01*
X66660124Y-81570851D01*
X66513683Y-81607889D01*
X66299947Y-81651467D01*
X66050000Y-81694946D01*
X65900594Y-81718244D01*
X65689520Y-81746180D01*
X65556983Y-81752483D01*
X65479780Y-81737386D01*
X65434702Y-81701120D01*
X65424101Y-81689100D01*
X65313000Y-81630716D01*
X65183143Y-81625369D01*
X65093150Y-81677169D01*
X65041662Y-81721157D01*
X64927045Y-81724844D01*
X64801314Y-81666994D01*
X64699897Y-81566681D01*
X64658219Y-81442981D01*
X64650528Y-81419204D01*
X64785240Y-81419204D01*
X64834503Y-81534977D01*
X64841836Y-81543691D01*
X64923271Y-81612220D01*
X64967157Y-81575914D01*
X64974351Y-81488698D01*
X65065009Y-81488698D01*
X65112910Y-81498858D01*
X65232367Y-81503196D01*
X65337038Y-81491375D01*
X65407604Y-81429809D01*
X65458337Y-81285730D01*
X65516095Y-81068264D01*
X65522088Y-81285730D01*
X65522664Y-81304959D01*
X65537167Y-81437877D01*
X65587535Y-81492563D01*
X65702054Y-81503196D01*
X65876027Y-81503196D01*
X65876027Y-81182206D01*
X66050000Y-81182206D01*
X66073613Y-81341212D01*
X66162169Y-81443165D01*
X66281850Y-81483228D01*
X66448835Y-81503196D01*
X66480443Y-81502288D01*
X66631550Y-81458247D01*
X66731557Y-81339241D01*
X66786867Y-81133088D01*
X66803881Y-80827607D01*
X66803772Y-80771975D01*
X66797966Y-80570412D01*
X66776316Y-80444450D01*
X66729181Y-80360837D01*
X66646916Y-80286319D01*
X66544941Y-80227397D01*
X66915939Y-80227397D01*
X66931786Y-80827607D01*
X66932398Y-80850799D01*
X66948858Y-81474201D01*
X67108333Y-81492550D01*
X67267808Y-81510900D01*
X67267808Y-80774168D01*
X67441780Y-80774168D01*
X67444565Y-80995729D01*
X67458459Y-81204373D01*
X67486863Y-81335843D01*
X67532909Y-81412067D01*
X67568890Y-81441699D01*
X67734520Y-81497468D01*
X67921600Y-81478542D01*
X68079680Y-81387214D01*
X68096771Y-81369205D01*
X68147546Y-81291614D01*
X68177615Y-81180793D01*
X68191984Y-81009206D01*
X68195662Y-80749315D01*
X68195662Y-80227397D01*
X67847716Y-80227397D01*
X67847716Y-80749315D01*
X67847074Y-80835650D01*
X67837334Y-81064948D01*
X67817512Y-81216488D01*
X67789726Y-81271233D01*
X67780133Y-81265451D01*
X67754655Y-81177788D01*
X67737817Y-80999396D01*
X67731735Y-80749315D01*
X67731728Y-80703271D01*
X67729970Y-80472440D01*
X67720794Y-80331755D01*
X67697999Y-80258899D01*
X67655387Y-80231553D01*
X67586758Y-80227397D01*
X67563808Y-80227513D01*
X67504459Y-80235722D01*
X67468364Y-80272685D01*
X67449740Y-80360210D01*
X67442807Y-80520101D01*
X67441780Y-80774168D01*
X67267808Y-80774168D01*
X67267808Y-80227397D01*
X66915939Y-80227397D01*
X66544941Y-80227397D01*
X66506508Y-80205190D01*
X66342788Y-80199786D01*
X66180701Y-80260442D01*
X66078949Y-80372080D01*
X66050000Y-80553447D01*
X66055980Y-80662675D01*
X66095668Y-80733396D01*
X66194977Y-80749315D01*
X66258022Y-80745160D01*
X66324350Y-80699675D01*
X66339954Y-80575342D01*
X66339958Y-80573178D01*
X66357228Y-80451762D01*
X66397945Y-80401370D01*
X66400664Y-80401776D01*
X66429262Y-80464401D01*
X66448740Y-80617150D01*
X66455936Y-80836301D01*
X66455881Y-80856697D01*
X66447531Y-81071179D01*
X66427165Y-81217265D01*
X66397945Y-81271233D01*
X66359805Y-81235238D01*
X66339954Y-81126255D01*
X66339342Y-81099538D01*
X66305334Y-81005230D01*
X66194977Y-80981278D01*
X66110833Y-80990375D01*
X66061093Y-81045830D01*
X66050000Y-81182206D01*
X65876027Y-81182206D01*
X65876027Y-80227397D01*
X65702054Y-80227397D01*
X65599299Y-80235031D01*
X65538557Y-80285729D01*
X65522162Y-80415867D01*
X65516241Y-80604338D01*
X65455782Y-80415867D01*
X65441660Y-80375239D01*
X65369158Y-80259872D01*
X65258734Y-80227397D01*
X65171049Y-80235013D01*
X65131092Y-80275594D01*
X65142863Y-80374057D01*
X65202058Y-80555293D01*
X65233365Y-80653952D01*
X65251119Y-80780533D01*
X65232059Y-80923162D01*
X65173917Y-81127995D01*
X65122979Y-81292590D01*
X65081319Y-81430324D01*
X65081212Y-81430707D01*
X65065009Y-81488698D01*
X64974351Y-81488698D01*
X64979134Y-81430707D01*
X64958121Y-81292654D01*
X64890976Y-81242237D01*
X64870284Y-81244492D01*
X64800196Y-81306677D01*
X64785240Y-81419204D01*
X64650528Y-81419204D01*
X64638076Y-81380710D01*
X64545483Y-81313269D01*
X64522720Y-81308231D01*
X64447180Y-81327264D01*
X64415004Y-81436985D01*
X64397260Y-81590182D01*
X63788356Y-81590182D01*
X63688890Y-81590090D01*
X63450113Y-81587410D01*
X63299228Y-81577839D01*
X63215013Y-81557161D01*
X63176242Y-81521154D01*
X63161693Y-81465599D01*
X63158727Y-81445024D01*
X63141108Y-81379114D01*
X63099475Y-81389912D01*
X63004854Y-81480097D01*
X62979754Y-81503104D01*
X62800545Y-81597802D01*
X62592605Y-81627282D01*
X62397154Y-81591072D01*
X62255411Y-81488698D01*
X62235142Y-81462138D01*
X62185090Y-81412018D01*
X62188527Y-81459703D01*
X62195281Y-81516531D01*
X62159369Y-81561187D01*
X62138047Y-81566850D01*
X62138059Y-81623131D01*
X62153869Y-81638508D01*
X62162589Y-81646989D01*
X62255606Y-81654659D01*
X62292707Y-81645680D01*
X62361091Y-81666670D01*
X62368933Y-81670735D01*
X62390282Y-81681802D01*
X62509237Y-81700821D01*
X62682527Y-81707631D01*
X62842528Y-81712542D01*
X62936376Y-81736012D01*
X62948117Y-81783396D01*
X62939083Y-81810880D01*
X62934965Y-81837277D01*
X62918493Y-81942870D01*
X62916078Y-81953723D01*
X62885629Y-81976422D01*
X62810760Y-81993910D01*
X62679548Y-82006814D01*
X62480065Y-82015760D01*
X62200386Y-82021374D01*
X61828586Y-82024283D01*
X61352739Y-82025114D01*
X61143359Y-82024795D01*
X60666940Y-82021061D01*
X60288640Y-82013262D01*
X60012912Y-82001562D01*
X59844210Y-81986128D01*
X59786986Y-81967123D01*
X59802567Y-81947836D01*
X59901838Y-81919313D01*
X60062443Y-81907288D01*
X60305251Y-81880830D01*
X60472145Y-81795805D01*
X60556370Y-81646727D01*
X60566271Y-81611306D01*
X60583227Y-81594621D01*
X60592131Y-81688244D01*
X60605413Y-81770167D01*
X60653412Y-81868081D01*
X60713037Y-81906948D01*
X60759743Y-81861409D01*
X60798234Y-81820545D01*
X60815488Y-81816105D01*
X62702235Y-81816105D01*
X62703133Y-81835901D01*
X62778348Y-81846563D01*
X62835350Y-81837277D01*
X62813384Y-81811527D01*
X62779850Y-81802262D01*
X62702235Y-81816105D01*
X60815488Y-81816105D01*
X60908143Y-81792262D01*
X60926989Y-81791958D01*
X60991381Y-81778856D01*
X60950606Y-81738737D01*
X60935943Y-81715986D01*
X61010665Y-81697492D01*
X61196431Y-81696132D01*
X61336890Y-81694940D01*
X61438002Y-81683222D01*
X61849273Y-81683222D01*
X61865011Y-81702142D01*
X61959831Y-81711963D01*
X62045044Y-81701751D01*
X62073649Y-81670735D01*
X62036792Y-81648177D01*
X61936056Y-81646270D01*
X61849273Y-81683222D01*
X61438002Y-81683222D01*
X61482457Y-81678070D01*
X61530811Y-81655951D01*
X61652951Y-81655951D01*
X61700685Y-81677169D01*
X61731385Y-81672984D01*
X61739345Y-81638508D01*
X61730846Y-81631568D01*
X61662024Y-81638508D01*
X61652951Y-81655951D01*
X61530811Y-81655951D01*
X61547815Y-81648173D01*
X61533337Y-81624664D01*
X61428951Y-81599473D01*
X61243999Y-81590182D01*
X60917808Y-81590182D01*
X60899737Y-81371502D01*
X60895298Y-81328125D01*
X60871246Y-81211935D01*
X60841746Y-81177494D01*
X60826002Y-81163674D01*
X60806899Y-81066078D01*
X60797767Y-80903252D01*
X60789332Y-80606741D01*
X60770587Y-80338029D01*
X60768550Y-80324439D01*
X60900485Y-80324439D01*
X60905475Y-80449803D01*
X60927936Y-80652849D01*
X60966286Y-80952283D01*
X61033790Y-81474201D01*
X61233644Y-81474201D01*
X61329554Y-81470720D01*
X61408203Y-81440561D01*
X61456822Y-81354716D01*
X61502212Y-81184246D01*
X61518139Y-81118394D01*
X61551500Y-81001117D01*
X61569914Y-80987051D01*
X61578606Y-81068264D01*
X61592291Y-81214722D01*
X61621254Y-81372717D01*
X61632668Y-81407478D01*
X61701821Y-81482886D01*
X61844838Y-81503196D01*
X62033456Y-81503196D01*
X62099034Y-80991848D01*
X62101364Y-80973663D01*
X62114069Y-80870806D01*
X62281481Y-80870806D01*
X62283057Y-81026178D01*
X62296877Y-81213923D01*
X62329543Y-81331439D01*
X62386643Y-81407222D01*
X62431864Y-81440732D01*
X62606257Y-81496655D01*
X62792700Y-81481805D01*
X62938500Y-81397146D01*
X62944409Y-81390352D01*
X62997364Y-81286628D01*
X63025598Y-81118505D01*
X63033586Y-80860730D01*
X63033464Y-80835929D01*
X63026288Y-80619987D01*
X63010397Y-80450214D01*
X62988913Y-80361504D01*
X62970329Y-80337278D01*
X63153112Y-80337278D01*
X63169752Y-80502854D01*
X63186166Y-80638964D01*
X63211710Y-80860730D01*
X63215402Y-80892784D01*
X63243048Y-81143787D01*
X63282105Y-81509263D01*
X63491063Y-81491732D01*
X63504623Y-81490563D01*
X63637278Y-81466233D01*
X63701309Y-81400449D01*
X63735164Y-81256094D01*
X63771320Y-81088296D01*
X63807507Y-81006776D01*
X63835263Y-81021444D01*
X63846347Y-81140843D01*
X63855923Y-81288142D01*
X63881546Y-81411467D01*
X63947738Y-81474744D01*
X64106019Y-81503196D01*
X64295293Y-81503196D01*
X64334007Y-81140753D01*
X64351492Y-80980526D01*
X64381090Y-80719788D01*
X64406959Y-80502854D01*
X64420649Y-80382344D01*
X64419498Y-80276134D01*
X64380905Y-80234549D01*
X64292302Y-80227397D01*
X64276745Y-80227551D01*
X64187610Y-80246117D01*
X64140250Y-80317746D01*
X64111634Y-80473858D01*
X64080505Y-80709871D01*
X64057378Y-80864719D01*
X64042731Y-80924417D01*
X64033899Y-80899389D01*
X64028217Y-80800057D01*
X64025330Y-80732915D01*
X64002902Y-80484538D01*
X63959941Y-80329588D01*
X63888619Y-80249921D01*
X63781107Y-80227397D01*
X63771307Y-80227424D01*
X63666372Y-80240797D01*
X63621139Y-80301930D01*
X63608603Y-80444863D01*
X63608166Y-80458332D01*
X63589818Y-80648317D01*
X63556392Y-80807306D01*
X63549205Y-80829028D01*
X63524242Y-80878355D01*
X63510685Y-80832696D01*
X63504182Y-80681569D01*
X63493389Y-80482031D01*
X63459052Y-80326735D01*
X63391895Y-80248773D01*
X63281758Y-80227397D01*
X63219309Y-80229750D01*
X63165543Y-80256298D01*
X63153112Y-80337278D01*
X62970329Y-80337278D01*
X62968234Y-80334547D01*
X62829302Y-80244864D01*
X62651760Y-80207080D01*
X62494262Y-80236070D01*
X62422875Y-80277514D01*
X62364552Y-80332388D01*
X62347649Y-80348292D01*
X62305155Y-80452431D01*
X62286172Y-80617435D01*
X62281481Y-80870806D01*
X62114069Y-80870806D01*
X62138859Y-80670104D01*
X62158595Y-80462388D01*
X62158809Y-80332388D01*
X62137740Y-80261974D01*
X62093623Y-80233020D01*
X62024697Y-80227397D01*
X61951302Y-80236354D01*
X61899810Y-80282348D01*
X61863771Y-80391486D01*
X61829119Y-80589840D01*
X61801481Y-80761165D01*
X61782489Y-80845489D01*
X61771656Y-80829347D01*
X61765273Y-80720319D01*
X61765066Y-80714545D01*
X61746694Y-80470977D01*
X61706450Y-80322125D01*
X61634235Y-80247697D01*
X61519948Y-80227397D01*
X61425484Y-80233040D01*
X61375098Y-80269056D01*
X61355836Y-80363981D01*
X61352739Y-80546347D01*
X61347570Y-80677608D01*
X61326506Y-80812864D01*
X61294748Y-80865296D01*
X61282549Y-80860204D01*
X61249870Y-80781570D01*
X61236758Y-80638076D01*
X61234426Y-80530819D01*
X61207119Y-80349624D01*
X61141388Y-80254797D01*
X61027585Y-80227397D01*
X61006162Y-80227359D01*
X60949247Y-80231924D01*
X60914548Y-80258049D01*
X60900485Y-80324439D01*
X60768550Y-80324439D01*
X60743548Y-80157597D01*
X60709687Y-80079235D01*
X60659919Y-80081350D01*
X60538444Y-80131256D01*
X60386030Y-80216594D01*
X60237613Y-80317295D01*
X60128129Y-80413291D01*
X60057350Y-80478487D01*
X59980215Y-80517351D01*
X59904060Y-80531341D01*
X59773619Y-80588810D01*
X59661371Y-80665757D01*
X59613466Y-80734817D01*
X59608069Y-80761795D01*
X59540525Y-80807548D01*
X59489824Y-80819077D01*
X59354360Y-80871721D01*
X59182751Y-80952525D01*
X59067398Y-81007057D01*
X58900984Y-81071951D01*
X58791313Y-81097260D01*
X58733268Y-81106761D01*
X58685159Y-81155251D01*
X58675346Y-81181928D01*
X58598173Y-81213242D01*
X58593303Y-81213049D01*
X58558420Y-81191843D01*
X58534763Y-81123486D01*
X58520335Y-80990783D01*
X58513141Y-80776537D01*
X58511187Y-80463550D01*
X58511187Y-80042436D01*
X60773250Y-80042436D01*
X60780613Y-80062162D01*
X60837691Y-80088125D01*
X60964257Y-80103053D01*
X61175739Y-80108302D01*
X61487565Y-80105228D01*
X61498991Y-80105022D01*
X61777868Y-80103269D01*
X62015281Y-80107686D01*
X62186410Y-80117430D01*
X62266435Y-80131660D01*
X62294651Y-80142351D01*
X62367883Y-80110924D01*
X62378987Y-80087467D01*
X62376077Y-80084640D01*
X64211353Y-80084640D01*
X64245366Y-80098298D01*
X64379089Y-80086801D01*
X64405790Y-80084095D01*
X64541040Y-80087020D01*
X64571920Y-80130741D01*
X64568560Y-80145221D01*
X64552821Y-80259027D01*
X64540052Y-80382344D01*
X64533359Y-80446978D01*
X64513616Y-80676826D01*
X64499932Y-80930677D01*
X64506951Y-81098727D01*
X64536432Y-81155251D01*
X64562540Y-81142840D01*
X64563208Y-81068264D01*
X64555247Y-81023461D01*
X64594024Y-80981278D01*
X64624769Y-80970162D01*
X64658219Y-80890869D01*
X64666564Y-80849448D01*
X64716210Y-80836301D01*
X64738673Y-80845362D01*
X64774200Y-80810728D01*
X64784043Y-80782438D01*
X64861187Y-80749315D01*
X64899672Y-80759905D01*
X64953340Y-80848590D01*
X64953228Y-81001213D01*
X64956969Y-81020148D01*
X65018849Y-81025736D01*
X65072967Y-80970034D01*
X65111466Y-80846682D01*
X65115144Y-80808843D01*
X65102849Y-80725865D01*
X65038977Y-80726879D01*
X64983652Y-80734292D01*
X64948173Y-80670353D01*
X64936920Y-80624872D01*
X64867053Y-80610111D01*
X64826865Y-80617451D01*
X64747648Y-80579296D01*
X64756280Y-80536446D01*
X64857764Y-80517351D01*
X64955467Y-80500131D01*
X65006164Y-80431815D01*
X65004860Y-80414390D01*
X64959582Y-80370609D01*
X64832191Y-80381073D01*
X64796228Y-80386835D01*
X64684623Y-80376462D01*
X64655325Y-80324306D01*
X64725170Y-80250855D01*
X64757578Y-80236745D01*
X64750743Y-80276428D01*
X64739008Y-80306912D01*
X64773737Y-80343379D01*
X64785971Y-80340399D01*
X64852729Y-80271629D01*
X64922915Y-80140411D01*
X64938300Y-80105976D01*
X64952715Y-80082420D01*
X65006164Y-80082420D01*
X65035159Y-80111415D01*
X65064155Y-80082420D01*
X65122146Y-80082420D01*
X65151141Y-80111415D01*
X65180137Y-80082420D01*
X65151141Y-80053424D01*
X65122146Y-80082420D01*
X65064155Y-80082420D01*
X65035159Y-80053424D01*
X65006164Y-80082420D01*
X64952715Y-80082420D01*
X65011755Y-79985940D01*
X65076531Y-79937443D01*
X65115542Y-79925462D01*
X65075753Y-79867854D01*
X65015488Y-79828124D01*
X64936575Y-79867854D01*
X64918121Y-79881604D01*
X64796360Y-79921429D01*
X64628709Y-79937443D01*
X64587004Y-79938677D01*
X64407778Y-79967957D01*
X64277864Y-80023982D01*
X64261849Y-80036394D01*
X64211353Y-80084640D01*
X62376077Y-80084640D01*
X62357392Y-80066485D01*
X62344294Y-80068743D01*
X62280593Y-80028005D01*
X62311660Y-79983015D01*
X62426339Y-79912659D01*
X62599543Y-79833785D01*
X62769451Y-79761609D01*
X62911208Y-79693131D01*
X62976484Y-79650434D01*
X62997684Y-79628513D01*
X63092465Y-79576110D01*
X63128539Y-79556193D01*
X63113551Y-79517906D01*
X63013762Y-79480063D01*
X62849029Y-79447297D01*
X62639207Y-79424240D01*
X62404153Y-79415525D01*
X62398228Y-79415526D01*
X62155401Y-79421146D01*
X61984764Y-79444424D01*
X61843622Y-79495438D01*
X61689276Y-79584267D01*
X61583836Y-79645608D01*
X61338574Y-79765400D01*
X61098434Y-79859723D01*
X60955849Y-79914321D01*
X60824206Y-79985106D01*
X60773250Y-80042436D01*
X58511187Y-80042436D01*
X58511187Y-79713859D01*
X58815639Y-79743645D01*
X58928336Y-79751760D01*
X59112803Y-79739945D01*
X59236073Y-79683309D01*
X59288137Y-79641189D01*
X59314229Y-79600935D01*
X59250570Y-79591342D01*
X59179813Y-79581968D01*
X59152617Y-79542914D01*
X59218119Y-79486332D01*
X59366552Y-79426137D01*
X59382062Y-79421467D01*
X59536873Y-79391461D01*
X59603348Y-79416407D01*
X59650819Y-79448859D01*
X59768449Y-79469291D01*
X59909256Y-79470489D01*
X60027375Y-79452538D01*
X60076940Y-79415525D01*
X60083595Y-79405305D01*
X60173756Y-79380123D01*
X60354732Y-79363520D01*
X60607882Y-79357534D01*
X60782224Y-79356495D01*
X60985151Y-79347665D01*
X61123790Y-79324297D01*
X61182883Y-79299543D01*
X61468721Y-79299543D01*
X61489807Y-79341344D01*
X61578196Y-79350957D01*
X61700685Y-79299543D01*
X61726377Y-79281096D01*
X61729438Y-79251099D01*
X61628196Y-79242440D01*
X61518737Y-79257744D01*
X61468721Y-79299543D01*
X61182883Y-79299543D01*
X61229865Y-79279862D01*
X61335099Y-79207827D01*
X61381234Y-79173372D01*
X61482607Y-79111583D01*
X61589062Y-79082781D01*
X61737289Y-79080596D01*
X61963975Y-79098659D01*
X62193513Y-79114385D01*
X62346689Y-79108193D01*
X62396575Y-79076721D01*
X62403460Y-79059568D01*
X62484855Y-79001313D01*
X62628538Y-78944746D01*
X62772449Y-78891514D01*
X62843664Y-78823598D01*
X62860502Y-78713878D01*
X62875795Y-78595518D01*
X62918493Y-78516666D01*
X62927009Y-78506322D01*
X62952843Y-78406656D01*
X62971645Y-78229852D01*
X62979826Y-78005824D01*
X62980186Y-77970587D01*
X62988726Y-77710641D01*
X63005445Y-77470745D01*
X63027133Y-77298858D01*
X63071099Y-77066895D01*
X63115310Y-77255020D01*
X63117118Y-77262491D01*
X63170979Y-77403779D01*
X63237291Y-77486983D01*
X63269729Y-77511442D01*
X63334243Y-77616427D01*
X63410985Y-77761722D01*
X63594063Y-77896887D01*
X63716328Y-77962321D01*
X63578369Y-78234824D01*
X63565446Y-78260744D01*
X63501598Y-78412765D01*
X63463540Y-78571721D01*
X63445177Y-78773882D01*
X63440411Y-79055513D01*
X63441317Y-79247240D01*
X63441443Y-79251099D01*
X63447249Y-79428635D01*
X63461607Y-79524467D01*
X63487690Y-79552461D01*
X63528798Y-79530343D01*
X63586854Y-79495626D01*
X63657598Y-79497400D01*
X63666243Y-79526537D01*
X63641803Y-79556193D01*
X63614329Y-79589531D01*
X63575554Y-79620629D01*
G37*
G36*
X60044224Y-71278343D02*
G01*
X60068392Y-71383426D01*
X60076940Y-71583335D01*
X60070687Y-71743447D01*
X60049768Y-71881826D01*
X60018949Y-71934703D01*
X59995409Y-71907377D01*
X59970589Y-71792774D01*
X59960958Y-71619176D01*
X59965637Y-71492465D01*
X59986691Y-71341428D01*
X60018949Y-71267808D01*
X60044224Y-71278343D01*
G37*
G36*
X65180137Y-76428995D02*
G01*
X65151141Y-76457991D01*
X65122146Y-76428995D01*
X65151141Y-76400000D01*
X65180137Y-76428995D01*
G37*
G36*
X66552587Y-78564992D02*
G01*
X66561660Y-78582435D01*
X66513927Y-78603653D01*
X66483226Y-78599468D01*
X66475266Y-78564992D01*
X66483766Y-78558052D01*
X66552587Y-78564992D01*
G37*
G36*
X65508751Y-77289193D02*
G01*
X65517824Y-77306636D01*
X65470091Y-77327854D01*
X65439391Y-77323668D01*
X65431430Y-77289193D01*
X65439930Y-77282253D01*
X65508751Y-77289193D01*
G37*
G36*
X68988204Y-75143531D02*
G01*
X68997276Y-75160973D01*
X68949543Y-75182191D01*
X68918843Y-75178006D01*
X68910882Y-75143531D01*
X68919382Y-75136590D01*
X68988204Y-75143531D01*
G37*
G36*
X65238127Y-78777625D02*
G01*
X65233942Y-78808325D01*
X65199467Y-78816286D01*
X65192526Y-78807786D01*
X65199467Y-78738965D01*
X65216909Y-78729892D01*
X65238127Y-78777625D01*
G37*
G36*
X64890182Y-76428995D02*
G01*
X64861187Y-76457991D01*
X64832191Y-76428995D01*
X64861187Y-76400000D01*
X64890182Y-76428995D01*
G37*
G36*
X69690431Y-74306056D02*
G01*
X69750300Y-74365970D01*
X69746603Y-74398886D01*
X69674429Y-74428310D01*
X69626551Y-74418848D01*
X69598557Y-74365970D01*
X69606433Y-74348777D01*
X69674429Y-74303630D01*
X69690431Y-74306056D01*
G37*
G36*
X60656849Y-80372374D02*
G01*
X60627853Y-80401370D01*
X60598858Y-80372374D01*
X60627853Y-80343379D01*
X60656849Y-80372374D01*
G37*
G36*
X67487326Y-79082083D02*
G01*
X67441780Y-79125570D01*
X67391603Y-79151214D01*
X67267808Y-79178597D01*
X67231444Y-79165121D01*
X67296803Y-79125570D01*
X67337168Y-79109099D01*
X67445164Y-79076592D01*
X67487326Y-79082083D01*
G37*
G36*
X65914688Y-78680974D02*
G01*
X65923760Y-78698416D01*
X65876027Y-78719634D01*
X65845327Y-78715449D01*
X65837366Y-78680974D01*
X65845866Y-78674033D01*
X65914688Y-78680974D01*
G37*
G36*
X64784989Y-77334951D02*
G01*
X64832191Y-77385844D01*
X64830629Y-77399603D01*
X64777623Y-77443835D01*
X64761353Y-77441623D01*
X64687214Y-77385844D01*
X64681759Y-77355967D01*
X64741783Y-77327854D01*
X64784989Y-77334951D01*
G37*
G36*
X70734823Y-78131410D02*
G01*
X70743540Y-78144381D01*
X70834242Y-78182417D01*
X70984056Y-78197717D01*
X71031720Y-78198853D01*
X71159794Y-78216476D01*
X71211187Y-78248654D01*
X71239924Y-78289464D01*
X71357686Y-78335311D01*
X71538213Y-78365295D01*
X71750882Y-78374908D01*
X71965068Y-78359643D01*
X71996796Y-78355486D01*
X72226384Y-78336827D01*
X72508303Y-78327033D01*
X72788795Y-78328161D01*
X73057027Y-78328975D01*
X73263825Y-78310238D01*
X73365804Y-78269949D01*
X73407846Y-78234074D01*
X73484429Y-78197717D01*
X73485091Y-78197787D01*
X73502873Y-78255695D01*
X73517411Y-78406436D01*
X73527222Y-78627656D01*
X73530821Y-78897002D01*
X73530821Y-79596287D01*
X72762443Y-79586549D01*
X72757564Y-79586489D01*
X72441084Y-79587756D01*
X72155742Y-79598347D01*
X71929790Y-79616673D01*
X71791478Y-79641145D01*
X71707193Y-79662507D01*
X71494496Y-79695093D01*
X71269561Y-79709835D01*
X71260510Y-79709985D01*
X71036217Y-79723145D01*
X70758852Y-79751749D01*
X70486301Y-79789884D01*
X70423012Y-79800209D01*
X70211169Y-79834750D01*
X70053059Y-79860500D01*
X69979048Y-79872514D01*
X69947540Y-79860960D01*
X69847207Y-79791290D01*
X69713256Y-79678468D01*
X69628223Y-79589868D01*
X69526830Y-79434720D01*
X69481270Y-79292237D01*
X69497783Y-79187813D01*
X69582610Y-79146841D01*
X69670073Y-79145965D01*
X69869974Y-79138211D01*
X69977588Y-79118545D01*
X70010743Y-79081437D01*
X69987271Y-79021359D01*
X69979168Y-79009243D01*
X69878455Y-78908063D01*
X69742344Y-78815865D01*
X69610932Y-78755996D01*
X69524318Y-78751803D01*
X69506236Y-78759254D01*
X69471461Y-78723057D01*
X69484341Y-78692289D01*
X69566552Y-78661643D01*
X69681205Y-78615853D01*
X69777302Y-78491566D01*
X69817562Y-78328196D01*
X69823268Y-78270010D01*
X69860550Y-78222311D01*
X69957477Y-78201981D01*
X70142168Y-78197717D01*
X70270574Y-78192975D01*
X70461638Y-78168940D01*
X70588825Y-78131410D01*
X70689536Y-78094105D01*
X70734823Y-78131410D01*
G37*
G36*
X65440511Y-76399054D02*
G01*
X65446255Y-76429459D01*
X65386527Y-76457991D01*
X65357248Y-76456856D01*
X65298681Y-76429463D01*
X65350102Y-76373481D01*
X65371012Y-76365600D01*
X65440511Y-76399054D01*
G37*
G36*
X72016023Y-73529452D02*
G01*
X72021686Y-73571854D01*
X72023957Y-73588863D01*
X72047347Y-73703424D01*
X72065718Y-73793403D01*
X72109268Y-73924458D01*
X72136398Y-73987846D01*
X72136326Y-74051370D01*
X72136260Y-74109501D01*
X72042232Y-74169352D01*
X71860993Y-74161034D01*
X71847341Y-74158321D01*
X71734308Y-74145621D01*
X71693223Y-74189846D01*
X71693220Y-74254338D01*
X71693216Y-74320298D01*
X71697630Y-74399315D01*
X71704109Y-74515296D01*
X71211187Y-74577115D01*
X71131520Y-74586606D01*
X70899546Y-74607411D01*
X70732614Y-74611897D01*
X70643302Y-74601126D01*
X70644186Y-74576157D01*
X70747844Y-74538051D01*
X70830255Y-74508644D01*
X70829792Y-74492082D01*
X70792842Y-74441308D01*
X70792509Y-74399315D01*
X71443150Y-74399315D01*
X71472146Y-74428310D01*
X71501141Y-74399315D01*
X71472146Y-74370319D01*
X71443150Y-74399315D01*
X70792509Y-74399315D01*
X70791873Y-74319196D01*
X70795281Y-74292241D01*
X70790892Y-74254338D01*
X70979223Y-74254338D01*
X70981583Y-74270232D01*
X71040637Y-74312328D01*
X71061612Y-74307775D01*
X71066210Y-74254338D01*
X71054307Y-74236983D01*
X71004796Y-74196347D01*
X70999009Y-74197854D01*
X70979223Y-74254338D01*
X70790892Y-74254338D01*
X70779260Y-74153898D01*
X70687050Y-74095741D01*
X70509090Y-74110723D01*
X70331741Y-74149676D01*
X70462408Y-74288764D01*
X70473450Y-74300862D01*
X70543229Y-74405007D01*
X70546246Y-74471575D01*
X70523250Y-74483335D01*
X70473529Y-74442808D01*
X70430017Y-74400521D01*
X70311525Y-74373131D01*
X70173694Y-74383665D01*
X70069513Y-74433363D01*
X70025081Y-74464930D01*
X69966579Y-74431863D01*
X69983247Y-74369681D01*
X70093565Y-74309145D01*
X70169019Y-74277129D01*
X70244203Y-74197185D01*
X70265897Y-74051370D01*
X70921232Y-74051370D01*
X70950228Y-74080365D01*
X70979223Y-74051370D01*
X71153196Y-74051370D01*
X71182191Y-74080365D01*
X71211187Y-74051370D01*
X71182191Y-74022374D01*
X71153196Y-74051370D01*
X70979223Y-74051370D01*
X70950228Y-74022374D01*
X70921232Y-74051370D01*
X70265897Y-74051370D01*
X70266148Y-74049686D01*
X70266148Y-74049685D01*
X70250514Y-73897798D01*
X70190607Y-73848401D01*
X70154343Y-73839560D01*
X70109360Y-73764838D01*
X70122598Y-73716031D01*
X70937368Y-73716031D01*
X70967712Y-73718821D01*
X70989645Y-73703424D01*
X71211187Y-73703424D01*
X71240182Y-73732420D01*
X71269178Y-73703424D01*
X71240182Y-73674429D01*
X71211187Y-73703424D01*
X70989645Y-73703424D01*
X71069624Y-73647278D01*
X71108810Y-73616585D01*
X71143901Y-73571854D01*
X71086912Y-73560291D01*
X71037844Y-73569834D01*
X70958252Y-73645433D01*
X70937368Y-73716031D01*
X70122598Y-73716031D01*
X70132117Y-73680934D01*
X70190614Y-73642739D01*
X70244806Y-73688565D01*
X70263999Y-73715106D01*
X70278755Y-73659931D01*
X70268199Y-73605579D01*
X70200254Y-73558447D01*
X70197032Y-73558414D01*
X70139371Y-73538341D01*
X70134067Y-73529452D01*
X71501141Y-73529452D01*
X71530137Y-73558447D01*
X71559132Y-73529452D01*
X71530137Y-73500456D01*
X71501141Y-73529452D01*
X70134067Y-73529452D01*
X70096617Y-73466689D01*
X70071035Y-73363257D01*
X71221445Y-73363257D01*
X71269178Y-73384475D01*
X71299878Y-73380289D01*
X71307838Y-73345814D01*
X71299339Y-73338874D01*
X71230517Y-73345814D01*
X71221445Y-73363257D01*
X70071035Y-73363257D01*
X70060856Y-73322102D01*
X70036517Y-73163595D01*
X70283333Y-73163595D01*
X70308927Y-73183781D01*
X70412249Y-73203384D01*
X70552381Y-73210549D01*
X70682956Y-73203592D01*
X70757605Y-73180827D01*
X70794280Y-73168096D01*
X70921083Y-73149946D01*
X71100717Y-73137002D01*
X71190259Y-73132105D01*
X71332877Y-73113365D01*
X71398393Y-73075505D01*
X71414155Y-73007203D01*
X71410647Y-72965538D01*
X71382504Y-72926216D01*
X71306699Y-72906683D01*
X71160515Y-72902408D01*
X70921232Y-72908856D01*
X70770970Y-72915659D01*
X70557124Y-72936151D01*
X70426005Y-72969960D01*
X70355821Y-73021424D01*
X70314944Y-73083370D01*
X70283333Y-73163595D01*
X70036517Y-73163595D01*
X70024176Y-73083227D01*
X69987233Y-72810974D01*
X70178776Y-72780952D01*
X70255676Y-72771140D01*
X70449970Y-72752219D01*
X70702830Y-72731714D01*
X70979223Y-72712617D01*
X71162250Y-72700927D01*
X71412013Y-72684399D01*
X71608738Y-72670696D01*
X71721062Y-72661958D01*
X71743492Y-72660587D01*
X71878546Y-72701823D01*
X71941221Y-72833561D01*
X71942087Y-72840107D01*
X71952612Y-72938473D01*
X71959371Y-73007203D01*
X71969854Y-73113803D01*
X71990547Y-73333020D01*
X71991774Y-73345814D01*
X71992477Y-73353139D01*
X72016023Y-73529452D01*
G37*
G36*
X64696879Y-73577777D02*
G01*
X64705952Y-73595220D01*
X64658219Y-73616438D01*
X64627519Y-73612253D01*
X64619558Y-73577777D01*
X64628058Y-73570837D01*
X64696879Y-73577777D01*
G37*
G36*
X69993379Y-72543607D02*
G01*
X69964383Y-72572602D01*
X69935388Y-72543607D01*
X69964383Y-72514612D01*
X69993379Y-72543607D01*
G37*
G36*
X64658219Y-80488356D02*
G01*
X64629223Y-80517351D01*
X64600228Y-80488356D01*
X64629223Y-80459360D01*
X64658219Y-80488356D01*
G37*
G36*
X65180137Y-76950913D02*
G01*
X65151141Y-76979908D01*
X65122146Y-76950913D01*
X65151141Y-76921917D01*
X65180137Y-76950913D01*
G37*
G36*
X67111199Y-78038242D02*
G01*
X67176662Y-78149359D01*
X67250007Y-78197717D01*
X67255221Y-78198018D01*
X67307897Y-78260809D01*
X67325799Y-78429680D01*
X67324320Y-78481677D01*
X67304122Y-78610197D01*
X67267808Y-78661643D01*
X67234102Y-78683392D01*
X67209817Y-78777625D01*
X67198943Y-78845037D01*
X67151826Y-78893607D01*
X67081711Y-78862768D01*
X66977853Y-78777625D01*
X66861872Y-78661643D01*
X67006849Y-78661643D01*
X67019474Y-78661561D01*
X67106588Y-78645555D01*
X67143913Y-78579130D01*
X67151826Y-78429680D01*
X67150347Y-78377683D01*
X67130149Y-78249163D01*
X67093835Y-78197717D01*
X67055674Y-78153808D01*
X67042013Y-78038242D01*
X67048183Y-77878767D01*
X67111199Y-78038242D01*
G37*
G36*
X58801141Y-81503196D02*
G01*
X58796956Y-81533896D01*
X58762481Y-81541857D01*
X58755540Y-81533357D01*
X58762481Y-81464535D01*
X58779923Y-81455463D01*
X58801141Y-81503196D01*
G37*
G36*
X65044825Y-76709284D02*
G01*
X65053897Y-76726727D01*
X65006164Y-76747945D01*
X64975464Y-76743760D01*
X64967503Y-76709284D01*
X64976003Y-76702344D01*
X65044825Y-76709284D01*
G37*
G36*
X64600228Y-80836301D02*
G01*
X64571232Y-80865296D01*
X64542237Y-80836301D01*
X64571232Y-80807306D01*
X64600228Y-80836301D01*
G37*
G36*
X66499463Y-78694301D02*
G01*
X66637726Y-78785443D01*
X66703647Y-78856417D01*
X66723945Y-78915649D01*
X66666721Y-78962297D01*
X66666325Y-78962519D01*
X66581406Y-79035281D01*
X66588437Y-79091509D01*
X66663662Y-79121658D01*
X66783327Y-79116183D01*
X66923675Y-79065539D01*
X66929120Y-79062651D01*
X67013446Y-79035947D01*
X67035844Y-79089702D01*
X67042200Y-79126660D01*
X67108333Y-79203309D01*
X67146886Y-79235724D01*
X67095515Y-79291975D01*
X67059711Y-79319423D01*
X67025906Y-79372881D01*
X67074277Y-79390044D01*
X67183688Y-79369370D01*
X67333001Y-79309316D01*
X67410551Y-79274030D01*
X67552424Y-79226708D01*
X67634327Y-79224036D01*
X67655543Y-79233505D01*
X67655044Y-79200221D01*
X67654337Y-79187117D01*
X67715729Y-79148914D01*
X67839411Y-79113930D01*
X67986018Y-79089447D01*
X68116186Y-79082752D01*
X68190549Y-79101127D01*
X68196392Y-79108169D01*
X68177246Y-79168301D01*
X68056896Y-79238878D01*
X67847301Y-79314430D01*
X67560417Y-79389484D01*
X67290870Y-79461340D01*
X67083176Y-79547800D01*
X66938456Y-79654179D01*
X66894268Y-79696908D01*
X66779842Y-79792477D01*
X66709392Y-79811534D01*
X66658904Y-79763470D01*
X66654322Y-79732696D01*
X66717146Y-79705479D01*
X66770250Y-79686552D01*
X66805156Y-79600998D01*
X66789868Y-79480937D01*
X66731709Y-79364746D01*
X66638003Y-79290802D01*
X66624890Y-79286033D01*
X66542177Y-79266984D01*
X66515176Y-79311064D01*
X66524874Y-79444020D01*
X66531492Y-79521083D01*
X66517131Y-79620330D01*
X66455936Y-79647488D01*
X66421696Y-79642362D01*
X66382904Y-79585603D01*
X66386939Y-79444520D01*
X66388167Y-79433418D01*
X66386169Y-79293309D01*
X66346298Y-79241552D01*
X66345465Y-79241567D01*
X66300587Y-79293403D01*
X66281963Y-79415525D01*
X66281959Y-79417689D01*
X66264689Y-79539105D01*
X66223972Y-79589497D01*
X66184018Y-79544917D01*
X66165981Y-79428490D01*
X66165672Y-79395661D01*
X66149666Y-79310307D01*
X66085143Y-79281587D01*
X65938918Y-79289137D01*
X65905532Y-79291589D01*
X65731592Y-79284211D01*
X65605470Y-79248939D01*
X65595185Y-79242796D01*
X65561049Y-79208150D01*
X65614561Y-79190809D01*
X65769800Y-79185325D01*
X65835146Y-79184520D01*
X66039731Y-79169786D01*
X66157409Y-79125406D01*
X66211162Y-79036303D01*
X66223972Y-78887403D01*
X66223982Y-78878637D01*
X66233345Y-78736126D01*
X66274616Y-78674774D01*
X66368949Y-78661643D01*
X66499463Y-78694301D01*
G37*
G36*
X67759098Y-75441634D02*
G01*
X67653627Y-75558307D01*
X67548872Y-75618165D01*
X67412785Y-75646118D01*
X67392096Y-75648633D01*
X67073905Y-75670272D01*
X66787467Y-75660274D01*
X66573039Y-75619899D01*
X66547655Y-75610818D01*
X66396718Y-75536990D01*
X66258534Y-75443066D01*
X66163668Y-75352551D01*
X66142685Y-75288951D01*
X66149186Y-75272799D01*
X66111413Y-75240182D01*
X66094852Y-75238559D01*
X66050888Y-75196689D01*
X66057772Y-75152829D01*
X66145814Y-75048619D01*
X66460119Y-75048619D01*
X66507684Y-75066210D01*
X66533794Y-75070675D01*
X66546936Y-75117705D01*
X66545748Y-75119898D01*
X66577393Y-75162620D01*
X66688491Y-75194648D01*
X66691691Y-75195115D01*
X66811993Y-75208365D01*
X66861872Y-75205391D01*
X66849518Y-75189333D01*
X66765604Y-75139855D01*
X66683292Y-75102983D01*
X66872130Y-75102983D01*
X66919863Y-75124201D01*
X66950563Y-75120015D01*
X66958523Y-75085540D01*
X66950024Y-75078600D01*
X66881202Y-75085540D01*
X66872130Y-75102983D01*
X66683292Y-75102983D01*
X66642156Y-75084556D01*
X66526472Y-75043553D01*
X66465852Y-75036963D01*
X66460119Y-75048619D01*
X66145814Y-75048619D01*
X66149180Y-75044635D01*
X66339954Y-74979223D01*
X66357541Y-74975896D01*
X66500400Y-74931452D01*
X66581766Y-74876301D01*
X66583787Y-74873052D01*
X66622322Y-74831962D01*
X66664851Y-74861954D01*
X66735574Y-74979223D01*
X66778911Y-75036874D01*
X66802117Y-75019294D01*
X66811514Y-74987942D01*
X66876369Y-74980101D01*
X66898726Y-74983337D01*
X66894475Y-74979223D01*
X66977853Y-74979223D01*
X67006849Y-75008219D01*
X67035844Y-74979223D01*
X67006849Y-74950228D01*
X66977853Y-74979223D01*
X66894475Y-74979223D01*
X66847374Y-74933638D01*
X66759022Y-74846613D01*
X66772460Y-74809641D01*
X66890867Y-74820053D01*
X66987408Y-74823477D01*
X67035844Y-74783016D01*
X67027172Y-74754377D01*
X66952280Y-74718264D01*
X66916948Y-74713076D01*
X66827231Y-74651139D01*
X66819769Y-74611053D01*
X66896297Y-74612860D01*
X66939862Y-74620066D01*
X66996961Y-74585988D01*
X67019779Y-74462520D01*
X67038685Y-74311908D01*
X67107151Y-74139078D01*
X67236853Y-74048555D01*
X67445155Y-74022374D01*
X67572014Y-74028855D01*
X67790068Y-74092490D01*
X67921843Y-74228609D01*
X67974384Y-74442808D01*
X67977465Y-74481779D01*
X68000788Y-74608969D01*
X68033542Y-74660274D01*
X68068588Y-74677006D01*
X68083404Y-74769463D01*
X68049072Y-74920691D01*
X68024791Y-74979223D01*
X67980687Y-75085540D01*
X67972462Y-75105368D01*
X67914350Y-75205391D01*
X67860445Y-75298173D01*
X67759098Y-75441634D01*
G37*
G36*
X66527337Y-77736018D02*
G01*
X66571917Y-77791780D01*
X66571253Y-77804904D01*
X66546344Y-77849771D01*
X66537042Y-77847103D01*
X66484931Y-77791780D01*
X66475870Y-77769317D01*
X66510504Y-77733790D01*
X66527337Y-77736018D01*
G37*
G36*
X72602968Y-78105898D02*
G01*
X72591034Y-78151025D01*
X72511149Y-78197717D01*
X72467524Y-78188008D01*
X72442285Y-78128852D01*
X72499609Y-78052518D01*
X72569164Y-78042392D01*
X72602968Y-78105898D01*
G37*
G36*
X65105002Y-77059416D02*
G01*
X65114896Y-77089857D01*
X65064155Y-77153881D01*
X64992681Y-77184018D01*
X64949465Y-77161608D01*
X64994566Y-77084292D01*
X65034493Y-77056082D01*
X65105002Y-77059416D01*
G37*
G36*
X59219925Y-81679381D02*
G01*
X59294064Y-81735159D01*
X59299519Y-81765037D01*
X59239495Y-81793150D01*
X59196289Y-81786053D01*
X59149086Y-81735159D01*
X59150648Y-81721401D01*
X59203655Y-81677169D01*
X59219925Y-81679381D01*
G37*
G36*
X66803881Y-72485616D02*
G01*
X66774885Y-72514612D01*
X66745890Y-72485616D01*
X66774885Y-72456621D01*
X66803881Y-72485616D01*
G37*
G36*
X60714840Y-81706164D02*
G01*
X60685844Y-81735159D01*
X60656849Y-81706164D01*
X60685844Y-81677169D01*
X60714840Y-81706164D01*
G37*
G36*
X63266438Y-81706164D02*
G01*
X63237443Y-81735159D01*
X63208447Y-81706164D01*
X63237443Y-81677169D01*
X63266438Y-81706164D01*
G37*
G36*
X71153196Y-70861872D02*
G01*
X71124200Y-70890867D01*
X71095205Y-70861872D01*
X71124200Y-70832876D01*
X71153196Y-70861872D01*
G37*
G36*
X71771765Y-74737595D02*
G01*
X71780838Y-74755037D01*
X71733105Y-74776255D01*
X71702404Y-74772070D01*
X71694444Y-74737595D01*
X71702944Y-74730654D01*
X71771765Y-74737595D01*
G37*
G36*
X65644064Y-77936758D02*
G01*
X65615068Y-77965753D01*
X65586073Y-77936758D01*
X65615068Y-77907762D01*
X65644064Y-77936758D01*
G37*
G36*
X60772831Y-80981278D02*
G01*
X60768646Y-81011978D01*
X60734170Y-81019939D01*
X60727230Y-81011439D01*
X60734170Y-80942618D01*
X60751613Y-80933545D01*
X60772831Y-80981278D01*
G37*
G36*
X65305812Y-79258095D02*
G01*
X65441095Y-79299543D01*
X65502384Y-79334512D01*
X65470091Y-79349382D01*
X65402406Y-79340991D01*
X65267123Y-79299543D01*
X65205834Y-79264574D01*
X65238127Y-79249704D01*
X65305812Y-79258095D01*
G37*
G36*
X66745890Y-74631278D02*
G01*
X66716895Y-74660274D01*
X66687899Y-74631278D01*
X66716895Y-74602283D01*
X66745890Y-74631278D01*
G37*
G36*
X71126836Y-81476837D02*
G01*
X71102644Y-81499272D01*
X70904960Y-81600942D01*
X70679767Y-81611959D01*
X70470209Y-81528903D01*
X70407796Y-81488563D01*
X70319132Y-81470268D01*
X70212439Y-81528903D01*
X70184217Y-81547183D01*
X69969645Y-81616163D01*
X69745795Y-81591574D01*
X69555811Y-81476837D01*
X69550787Y-81471784D01*
X69478185Y-81383979D01*
X69436665Y-81281929D01*
X69417877Y-81131775D01*
X69413470Y-80899656D01*
X69413507Y-80884952D01*
X69414096Y-80870806D01*
X69530340Y-80870806D01*
X69531916Y-81026178D01*
X69545735Y-81213923D01*
X69578402Y-81331439D01*
X69635502Y-81407222D01*
X69702403Y-81454144D01*
X69880247Y-81502334D01*
X70059406Y-81474802D01*
X70193058Y-81374311D01*
X70215286Y-81331200D01*
X70235441Y-81249976D01*
X70400350Y-81249976D01*
X70490443Y-81412067D01*
X70557222Y-81458541D01*
X70730503Y-81499913D01*
X70915705Y-81478960D01*
X71057222Y-81397146D01*
X71113768Y-81320471D01*
X71156368Y-81183656D01*
X71119856Y-81080218D01*
X71008219Y-81039269D01*
X70897220Y-81064302D01*
X70863242Y-81155251D01*
X70850028Y-81228048D01*
X70791218Y-81269955D01*
X70716854Y-81210960D01*
X70722524Y-81167104D01*
X70792697Y-81062859D01*
X70916400Y-80934234D01*
X71072236Y-80757057D01*
X71156080Y-80564514D01*
X71139654Y-80393904D01*
X71020782Y-80259291D01*
X70942617Y-80223360D01*
X70773047Y-80201047D01*
X70609441Y-80229187D01*
X70502922Y-80303425D01*
X70454847Y-80429828D01*
X70487133Y-80534748D01*
X70602283Y-80575342D01*
X70696848Y-80558317D01*
X70747260Y-80488356D01*
X70753802Y-80448340D01*
X70805251Y-80401370D01*
X70849705Y-80412936D01*
X70856786Y-80481309D01*
X70781870Y-80599906D01*
X70665585Y-80720319D01*
X70631278Y-80755844D01*
X70531720Y-80859955D01*
X70415181Y-81060944D01*
X70400350Y-81249976D01*
X70235441Y-81249976D01*
X70256834Y-81163761D01*
X70280129Y-80940102D01*
X70283521Y-80720319D01*
X70399315Y-80720319D01*
X70428310Y-80749315D01*
X70457306Y-80720319D01*
X70428310Y-80691324D01*
X70399315Y-80720319D01*
X70283521Y-80720319D01*
X70283809Y-80701665D01*
X70266511Y-80489896D01*
X70226872Y-80346237D01*
X70196249Y-80302343D01*
X70058399Y-80218094D01*
X69881733Y-80201553D01*
X69706721Y-80251461D01*
X69573833Y-80366558D01*
X69570504Y-80372878D01*
X69550448Y-80473144D01*
X69536086Y-80650408D01*
X69530340Y-80870806D01*
X69414096Y-80870806D01*
X69423229Y-80651352D01*
X69446820Y-80448910D01*
X69479454Y-80319998D01*
X69502825Y-80277074D01*
X69645078Y-80147725D01*
X69838483Y-80090653D01*
X70047677Y-80110840D01*
X70237296Y-80213266D01*
X70268021Y-80238574D01*
X70345699Y-80267151D01*
X70429909Y-80205087D01*
X70442061Y-80193732D01*
X70606121Y-80114852D01*
X70813985Y-80097227D01*
X71017295Y-80138745D01*
X71167694Y-80237295D01*
X71246679Y-80398227D01*
X71264972Y-80610179D01*
X71211030Y-80807599D01*
X71184428Y-80875167D01*
X71211030Y-80952186D01*
X71262571Y-81030794D01*
X71267023Y-81175328D01*
X71264591Y-81183656D01*
X71219541Y-81337950D01*
X71126836Y-81476837D01*
G37*
G36*
X58688058Y-81679744D02*
G01*
X58749325Y-81793455D01*
X58751133Y-81799877D01*
X58781078Y-81873925D01*
X58795361Y-81836643D01*
X58795652Y-81832348D01*
X58831328Y-81749697D01*
X58887722Y-81744403D01*
X58917123Y-81822146D01*
X58917163Y-81826090D01*
X58948250Y-81900998D01*
X59004972Y-81892980D01*
X59039832Y-81807648D01*
X59041954Y-81777358D01*
X59051039Y-81736178D01*
X59073079Y-81807648D01*
X59074753Y-81813590D01*
X59118645Y-81872137D01*
X59222635Y-81901250D01*
X59414297Y-81909132D01*
X59541608Y-81914119D01*
X59676600Y-81935181D01*
X59728995Y-81967123D01*
X59712656Y-81982204D01*
X59601567Y-82005045D01*
X59398806Y-82019847D01*
X59120091Y-82025114D01*
X58961738Y-82023558D01*
X58721910Y-82012978D01*
X58566487Y-81993667D01*
X58511187Y-81967123D01*
X58521001Y-81940445D01*
X58598173Y-81909132D01*
X58638290Y-81901851D01*
X58685159Y-81844937D01*
X58672650Y-81816673D01*
X58598173Y-81814121D01*
X58537889Y-81815329D01*
X58511187Y-81729087D01*
X58535648Y-81647808D01*
X58605599Y-81628159D01*
X58688058Y-81679744D01*
G37*
G36*
X67905707Y-70861872D02*
G01*
X67876712Y-70890867D01*
X67847716Y-70861872D01*
X67876712Y-70832876D01*
X67905707Y-70861872D01*
G37*
G36*
X66165981Y-77530822D02*
G01*
X66136986Y-77559817D01*
X66107990Y-77530822D01*
X66136986Y-77501826D01*
X66165981Y-77530822D01*
G37*
G36*
X65599483Y-72284877D02*
G01*
X65644064Y-72340639D01*
X65643399Y-72353763D01*
X65618491Y-72398630D01*
X65609188Y-72395961D01*
X65557077Y-72340639D01*
X65548016Y-72318175D01*
X65582650Y-72282648D01*
X65599483Y-72284877D01*
G37*
G36*
X65345343Y-77922565D02*
G01*
X65449430Y-77947722D01*
X65460265Y-77994621D01*
X65368607Y-78036840D01*
X65257087Y-78056050D01*
X65166478Y-78048115D01*
X65160093Y-77992332D01*
X65209849Y-77947705D01*
X65328536Y-77922260D01*
X65345343Y-77922565D01*
G37*
G36*
X65017268Y-76521332D02*
G01*
X65050031Y-76535663D01*
X64977169Y-76573972D01*
X64871717Y-76617478D01*
X64838463Y-76618874D01*
X64861187Y-76573972D01*
X64890479Y-76546656D01*
X64995089Y-76520057D01*
X65017268Y-76521332D01*
G37*
G36*
X69593227Y-74501615D02*
G01*
X69608472Y-74573136D01*
X69611758Y-74654152D01*
X69669532Y-74693511D01*
X69735696Y-74654972D01*
X69739012Y-74650252D01*
X69804617Y-74649632D01*
X69913676Y-74750033D01*
X69958773Y-74804603D01*
X70038912Y-74932409D01*
X70025246Y-74995431D01*
X69917820Y-74996210D01*
X69821967Y-74996572D01*
X69712565Y-75047440D01*
X69675167Y-75072493D01*
X69559507Y-75106091D01*
X69413509Y-75122917D01*
X69273285Y-75121977D01*
X69174948Y-75102274D01*
X69154609Y-75062815D01*
X69223247Y-75030255D01*
X69353647Y-75036812D01*
X69364620Y-75039143D01*
X69490671Y-75041563D01*
X69553058Y-74972355D01*
X69553078Y-74873218D01*
X69473332Y-74807227D01*
X69340981Y-74810483D01*
X69340121Y-74810747D01*
X69263695Y-74795695D01*
X69237194Y-74715253D01*
X69261227Y-74608675D01*
X69336402Y-74515215D01*
X69394055Y-74484467D01*
X69507809Y-74469090D01*
X69593227Y-74501615D01*
G37*
G36*
X61912797Y-71274807D02*
G01*
X61932648Y-71383790D01*
X61918250Y-71479139D01*
X61874657Y-71528767D01*
X61836517Y-71492772D01*
X61816666Y-71383790D01*
X61831064Y-71288440D01*
X61874657Y-71238812D01*
X61912797Y-71274807D01*
G37*
G36*
X64754870Y-73055860D02*
G01*
X64763943Y-73073302D01*
X64716210Y-73094520D01*
X64685509Y-73090335D01*
X64677549Y-73055860D01*
X64686049Y-73048919D01*
X64754870Y-73055860D01*
G37*
G36*
X64890182Y-80111415D02*
G01*
X64885997Y-80142115D01*
X64851522Y-80150076D01*
X64844581Y-80141576D01*
X64851522Y-80072755D01*
X64868964Y-80063682D01*
X64890182Y-80111415D01*
G37*
G36*
X60656849Y-80140411D02*
G01*
X60627853Y-80169406D01*
X60598858Y-80140411D01*
X60627853Y-80111415D01*
X60656849Y-80140411D01*
G37*
G36*
X65064155Y-76834931D02*
G01*
X65035159Y-76863927D01*
X65006164Y-76834931D01*
X65035159Y-76805936D01*
X65064155Y-76834931D01*
G37*
G36*
X66088660Y-77115220D02*
G01*
X66097733Y-77132663D01*
X66050000Y-77153881D01*
X66019299Y-77149696D01*
X66011339Y-77115220D01*
X66019839Y-77108280D01*
X66088660Y-77115220D01*
G37*
G36*
X65276788Y-78622983D02*
G01*
X65285860Y-78640426D01*
X65238127Y-78661643D01*
X65207427Y-78657458D01*
X65199467Y-78622983D01*
X65207966Y-78616043D01*
X65276788Y-78622983D01*
G37*
G36*
X67209817Y-75849086D02*
G01*
X67180821Y-75878082D01*
X67151826Y-75849086D01*
X67180821Y-75820091D01*
X67209817Y-75849086D01*
G37*
G36*
X67163760Y-77458333D02*
G01*
X67140785Y-77627685D01*
X67100480Y-77711788D01*
X67030005Y-77733790D01*
X66968167Y-77743860D01*
X66919863Y-77791780D01*
X66908692Y-77828285D01*
X66845727Y-77845961D01*
X66775936Y-77793481D01*
X66791906Y-77745210D01*
X66888495Y-77700208D01*
X66983132Y-77656343D01*
X67035844Y-77553530D01*
X67022626Y-77479751D01*
X66958000Y-77449273D01*
X66851516Y-77519569D01*
X66816742Y-77550470D01*
X66706850Y-77618475D01*
X66612181Y-77645511D01*
X66571917Y-77617808D01*
X66559647Y-77594771D01*
X66484931Y-77596837D01*
X66441117Y-77608259D01*
X66397945Y-77590875D01*
X66414318Y-77551596D01*
X66484931Y-77464546D01*
X66533651Y-77401202D01*
X66571917Y-77292896D01*
X66562039Y-77250036D01*
X66556146Y-77244290D01*
X66919863Y-77244290D01*
X66921370Y-77250077D01*
X66977853Y-77269863D01*
X66993748Y-77267503D01*
X67035844Y-77208449D01*
X67031291Y-77187474D01*
X66977853Y-77182876D01*
X66960499Y-77194779D01*
X66919863Y-77244290D01*
X66556146Y-77244290D01*
X66484931Y-77174852D01*
X66444701Y-77150323D01*
X66397945Y-77061795D01*
X66353976Y-76996367D01*
X66238470Y-76943561D01*
X66099083Y-76893847D01*
X65934018Y-76804250D01*
X65806059Y-76730713D01*
X65673059Y-76681635D01*
X65611474Y-76655165D01*
X65546875Y-76562347D01*
X65547186Y-76453124D01*
X65620853Y-76376809D01*
X65627011Y-76374683D01*
X65752907Y-76369173D01*
X65912057Y-76402321D01*
X66065047Y-76435542D01*
X66207658Y-76405661D01*
X66253739Y-76376113D01*
X66254794Y-76350633D01*
X66151484Y-76343772D01*
X66140174Y-76343555D01*
X66024881Y-76315726D01*
X65992009Y-76229449D01*
X66000637Y-76163027D01*
X66045538Y-76083807D01*
X66045936Y-76083557D01*
X66095090Y-76007472D01*
X66138287Y-75872160D01*
X66160855Y-75788070D01*
X66210926Y-75723710D01*
X66302223Y-75734704D01*
X66304460Y-75735430D01*
X66451841Y-75763529D01*
X66629908Y-75774322D01*
X66832876Y-75772833D01*
X66644406Y-75833846D01*
X66520468Y-75887155D01*
X66467175Y-75967321D01*
X66455936Y-76118434D01*
X66457102Y-76163020D01*
X66477062Y-76290688D01*
X66513927Y-76342009D01*
X66538154Y-76349345D01*
X66571917Y-76421746D01*
X66590097Y-76462175D01*
X66701604Y-76520905D01*
X66897781Y-76559861D01*
X67159075Y-76573972D01*
X67179042Y-76574154D01*
X67329565Y-76594838D01*
X67381860Y-76646461D01*
X67360895Y-76714658D01*
X67283335Y-76832497D01*
X67183529Y-76935675D01*
X67099037Y-76979908D01*
X67050872Y-76996809D01*
X67044311Y-77062519D01*
X67111609Y-77136502D01*
X67120651Y-77143106D01*
X67147490Y-77208449D01*
X67164339Y-77249470D01*
X67163760Y-77458333D01*
G37*
G36*
X70225342Y-74598860D02*
G01*
X70223114Y-74615693D01*
X70167351Y-74660274D01*
X70154227Y-74659609D01*
X70109360Y-74634701D01*
X70112029Y-74625398D01*
X70167351Y-74573287D01*
X70189815Y-74564226D01*
X70225342Y-74598860D01*
G37*
G36*
X64160699Y-73794964D02*
G01*
X64165296Y-73848401D01*
X64153394Y-73865756D01*
X64103883Y-73906392D01*
X64098096Y-73904885D01*
X64078310Y-73848401D01*
X64080670Y-73832507D01*
X64139723Y-73790411D01*
X64160699Y-73794964D01*
G37*
G36*
X65856487Y-78839818D02*
G01*
X65961974Y-78884981D01*
X66062927Y-78972643D01*
X66107990Y-79059475D01*
X66096857Y-79091153D01*
X66017582Y-79125570D01*
X65976316Y-79116566D01*
X65965398Y-79063721D01*
X65965310Y-79006367D01*
X65896332Y-78920588D01*
X65840222Y-78867211D01*
X65847032Y-78839305D01*
X65856487Y-78839818D01*
G37*
G36*
X72498007Y-73912935D02*
G01*
X72544977Y-73964383D01*
X72535163Y-73991061D01*
X72457990Y-74022374D01*
X72417974Y-74015832D01*
X72371004Y-73964383D01*
X72380818Y-73937706D01*
X72457990Y-73906392D01*
X72498007Y-73912935D01*
G37*
G36*
X68601598Y-71528767D02*
G01*
X68628285Y-71578570D01*
X68658701Y-71688242D01*
X68654902Y-71715029D01*
X68601598Y-71760730D01*
X68562038Y-71716969D01*
X68544495Y-71601255D01*
X68545783Y-71550510D01*
X68561405Y-71489539D01*
X68601598Y-71528767D01*
G37*
G36*
X69265119Y-74226227D02*
G01*
X69260312Y-74276849D01*
X69182830Y-74384817D01*
X69169259Y-74401683D01*
X69073532Y-74502935D01*
X69008068Y-74544292D01*
X68940520Y-74535763D01*
X68825147Y-74480500D01*
X68775570Y-74400146D01*
X68821569Y-74330931D01*
X68939325Y-74260717D01*
X69084200Y-74212323D01*
X69211447Y-74205709D01*
X69265119Y-74226227D01*
G37*
G36*
X65624733Y-75665449D02*
G01*
X65633806Y-75682891D01*
X65586073Y-75704109D01*
X65555372Y-75699924D01*
X65547412Y-75665449D01*
X65555912Y-75658508D01*
X65624733Y-75665449D01*
G37*
G36*
X68720299Y-80401776D02*
G01*
X68748897Y-80464401D01*
X68768375Y-80617150D01*
X68775570Y-80836301D01*
X68775516Y-80856697D01*
X68767166Y-81071179D01*
X68746800Y-81217265D01*
X68717579Y-81271233D01*
X68714860Y-81270826D01*
X68686262Y-81208201D01*
X68666784Y-81055452D01*
X68659589Y-80836301D01*
X68659643Y-80815905D01*
X68667993Y-80601423D01*
X68688359Y-80455337D01*
X68717579Y-80401370D01*
X68720299Y-80401776D01*
G37*
G36*
X63498401Y-81706164D02*
G01*
X63469406Y-81735159D01*
X63440411Y-81706164D01*
X63469406Y-81677169D01*
X63498401Y-81706164D01*
G37*
G36*
X73476320Y-74466529D02*
G01*
X73455619Y-74505417D01*
X73388728Y-74514059D01*
X73232096Y-74518491D01*
X73018114Y-74517729D01*
X72775671Y-74512619D01*
X72533656Y-74504010D01*
X72320956Y-74492747D01*
X72166461Y-74479678D01*
X72099059Y-74465649D01*
X72106108Y-74406908D01*
X72163483Y-74298420D01*
X72179335Y-74275323D01*
X72281335Y-74189015D01*
X72429076Y-74183989D01*
X72552645Y-74185283D01*
X72602968Y-74144938D01*
X72604560Y-74121993D01*
X72639014Y-74078499D01*
X72692272Y-74112251D01*
X72729414Y-74206302D01*
X72748819Y-74277029D01*
X72806619Y-74348906D01*
X72865782Y-74344061D01*
X72883875Y-74283333D01*
X73066895Y-74283333D01*
X73095890Y-74312328D01*
X73124885Y-74283333D01*
X73095890Y-74254338D01*
X73066895Y-74283333D01*
X72883875Y-74283333D01*
X72892922Y-74252966D01*
X72910331Y-74167832D01*
X72979908Y-74159327D01*
X73024197Y-74169109D01*
X73066895Y-74141279D01*
X73070840Y-74107412D01*
X73102094Y-73998122D01*
X73103471Y-73930593D01*
X73015108Y-73906392D01*
X72932797Y-73886296D01*
X72892922Y-73790411D01*
X72886661Y-73729891D01*
X72835862Y-73676916D01*
X72743663Y-73730902D01*
X72732378Y-73739180D01*
X72625622Y-73761375D01*
X72470273Y-73752175D01*
X72389161Y-73737423D01*
X72307738Y-73707002D01*
X72254502Y-73645825D01*
X72220222Y-73532670D01*
X72195665Y-73346311D01*
X72171599Y-73065525D01*
X72159754Y-72896171D01*
X72158480Y-72765412D01*
X72175072Y-72721981D01*
X72211516Y-72750169D01*
X72256004Y-72796649D01*
X72358725Y-72865418D01*
X72448520Y-72890471D01*
X72486986Y-72856924D01*
X72471597Y-72775436D01*
X72373526Y-72622798D01*
X72211847Y-72503164D01*
X72087619Y-72464341D01*
X71874407Y-72446014D01*
X71568369Y-72455265D01*
X71397633Y-72464181D01*
X71204198Y-72464509D01*
X71092042Y-72445927D01*
X71040450Y-72406523D01*
X70996077Y-72365307D01*
X70870896Y-72367205D01*
X70798959Y-72404762D01*
X70778836Y-72460796D01*
X70786583Y-72479688D01*
X70750682Y-72514612D01*
X70714166Y-72507364D01*
X70695278Y-72447160D01*
X70761758Y-72345719D01*
X70784090Y-72320735D01*
X70787467Y-72290927D01*
X70696505Y-72311338D01*
X70603421Y-72327624D01*
X70598443Y-72288861D01*
X70592426Y-72244005D01*
X70489723Y-72224657D01*
X70413546Y-72218197D01*
X70352782Y-72167360D01*
X70334463Y-72036187D01*
X70327601Y-71847717D01*
X70290709Y-72021689D01*
X70258022Y-72125614D01*
X70184970Y-72188477D01*
X70036611Y-72213660D01*
X69819406Y-72231658D01*
X69819406Y-71981697D01*
X69819091Y-71929771D01*
X69807420Y-71798654D01*
X69765318Y-71743190D01*
X69674429Y-71731735D01*
X69563646Y-71756629D01*
X69528660Y-71847717D01*
X69524828Y-71951676D01*
X69487680Y-72120677D01*
X69399538Y-72204808D01*
X69246219Y-72222911D01*
X69206709Y-72221446D01*
X68994389Y-72219342D01*
X68775570Y-72223769D01*
X68514611Y-72234118D01*
X68593536Y-72268784D01*
X68691553Y-72311836D01*
X68858495Y-72369634D01*
X68868529Y-72373108D01*
X69068494Y-72417775D01*
X69088811Y-72420682D01*
X69225827Y-72442571D01*
X69297488Y-72457997D01*
X69401386Y-72485616D01*
X69404399Y-72486417D01*
X69604590Y-72505779D01*
X69766714Y-72514612D01*
X69732420Y-73297488D01*
X69471461Y-73282772D01*
X69336895Y-73272597D01*
X69037105Y-73234065D01*
X68748071Y-73178293D01*
X68496019Y-73111731D01*
X68307177Y-73040827D01*
X68207774Y-72972032D01*
X68176435Y-72929039D01*
X67955573Y-72709029D01*
X67711691Y-72597196D01*
X67656149Y-72582025D01*
X67500394Y-72515147D01*
X67453040Y-72485616D01*
X67499771Y-72485616D01*
X67528767Y-72514612D01*
X67557762Y-72485616D01*
X67528767Y-72456621D01*
X67499771Y-72485616D01*
X67453040Y-72485616D01*
X67359194Y-72427092D01*
X67296566Y-72369634D01*
X67441780Y-72369634D01*
X67470776Y-72398630D01*
X67499771Y-72369634D01*
X67470776Y-72340639D01*
X67441780Y-72369634D01*
X67296566Y-72369634D01*
X67263562Y-72339354D01*
X67244512Y-72273426D01*
X67246174Y-72270672D01*
X67245768Y-72247612D01*
X68327349Y-72247612D01*
X68328247Y-72267408D01*
X68403462Y-72278070D01*
X68460464Y-72268784D01*
X68438498Y-72243034D01*
X68404964Y-72233768D01*
X68327349Y-72247612D01*
X67245768Y-72247612D01*
X67245417Y-72227628D01*
X67173626Y-72242241D01*
X67056365Y-72309596D01*
X67049708Y-72313239D01*
X66968398Y-72357738D01*
X66903452Y-72362889D01*
X66863469Y-72355488D01*
X66763489Y-72389211D01*
X66754364Y-72393896D01*
X66643159Y-72409639D01*
X66512061Y-72337208D01*
X66492015Y-72323337D01*
X66638413Y-72323337D01*
X66652424Y-72373082D01*
X66739263Y-72344735D01*
X66775229Y-72313239D01*
X66756088Y-72259956D01*
X66730147Y-72250539D01*
X66657104Y-72285560D01*
X66638413Y-72323337D01*
X66492015Y-72323337D01*
X66430529Y-72280790D01*
X66316389Y-72239155D01*
X66514815Y-72239155D01*
X66527839Y-72270908D01*
X66592062Y-72276575D01*
X66658904Y-72224657D01*
X66668711Y-72201114D01*
X66655077Y-72102484D01*
X66603041Y-72086485D01*
X66543928Y-72143104D01*
X66527144Y-72198477D01*
X66514815Y-72239155D01*
X66316389Y-72239155D01*
X66287450Y-72228599D01*
X66198319Y-72277240D01*
X66198241Y-72302846D01*
X66214824Y-72303235D01*
X66267385Y-72304468D01*
X66356165Y-72317280D01*
X66470532Y-72377862D01*
X66576259Y-72461698D01*
X66641739Y-72543561D01*
X66639865Y-72559648D01*
X66635371Y-72598222D01*
X66631078Y-72601063D01*
X66630892Y-72601598D01*
X66602200Y-72683923D01*
X66661940Y-72831659D01*
X66811614Y-73047627D01*
X66911065Y-73180992D01*
X66967898Y-73278984D01*
X66948932Y-73304608D01*
X66855646Y-73265161D01*
X66773647Y-73233364D01*
X66674560Y-73258636D01*
X66625617Y-73286276D01*
X66509595Y-73267516D01*
X66385453Y-73172334D01*
X66281963Y-73018339D01*
X66235233Y-72931823D01*
X66144068Y-72852525D01*
X65994970Y-72833561D01*
X65904427Y-72837806D01*
X65805741Y-72877208D01*
X65757872Y-72978538D01*
X65714725Y-73071155D01*
X65662443Y-73100140D01*
X65649057Y-73107561D01*
X65606224Y-73122381D01*
X65614497Y-73223543D01*
X65621653Y-73249802D01*
X65629737Y-73310021D01*
X65593025Y-73270172D01*
X65553573Y-73230880D01*
X65489421Y-73229832D01*
X65478611Y-73262063D01*
X65529276Y-73327222D01*
X65578204Y-73346933D01*
X65664102Y-73329642D01*
X65683342Y-73319625D01*
X65793919Y-73319115D01*
X65951342Y-73355479D01*
X65954541Y-73356218D01*
X65999131Y-73370175D01*
X66194589Y-73427041D01*
X66354452Y-73467732D01*
X66362863Y-73469691D01*
X66478212Y-73531423D01*
X66506740Y-73600010D01*
X66515098Y-73620105D01*
X66458468Y-73701859D01*
X66435454Y-73731254D01*
X66437923Y-73827116D01*
X66444479Y-73879359D01*
X66391897Y-73969348D01*
X66318588Y-74007497D01*
X66248918Y-74015572D01*
X66252968Y-73964383D01*
X66262029Y-73941920D01*
X66227395Y-73906392D01*
X66204722Y-73911511D01*
X66165093Y-73978881D01*
X66157823Y-74019901D01*
X66120070Y-73981942D01*
X66090315Y-73953285D01*
X65998018Y-73960669D01*
X65989259Y-73966298D01*
X65958574Y-74015726D01*
X66028544Y-74077968D01*
X66076662Y-74109100D01*
X66102536Y-74133390D01*
X66030759Y-74113739D01*
X65967758Y-74096517D01*
X65867862Y-74080365D01*
X65846695Y-74072884D01*
X65853122Y-74012519D01*
X65865252Y-73974927D01*
X65807268Y-73978360D01*
X65795812Y-73981400D01*
X65688420Y-73957657D01*
X65558700Y-73873890D01*
X65546350Y-73863445D01*
X65406200Y-73761825D01*
X65288185Y-73700906D01*
X65229385Y-73671163D01*
X65208204Y-73617940D01*
X65208781Y-73601403D01*
X65150503Y-73532103D01*
X65121439Y-73511656D01*
X65845497Y-73511656D01*
X65846007Y-73537774D01*
X65917019Y-73583714D01*
X65928021Y-73587842D01*
X65986129Y-73600010D01*
X65949482Y-73551251D01*
X65906843Y-73518161D01*
X65845497Y-73511656D01*
X65121439Y-73511656D01*
X65028060Y-73445961D01*
X64981455Y-73418115D01*
X64893257Y-73355479D01*
X65354109Y-73355479D01*
X65383105Y-73384475D01*
X65412100Y-73355479D01*
X65383105Y-73326484D01*
X65354109Y-73355479D01*
X64893257Y-73355479D01*
X64879827Y-73345941D01*
X64860913Y-73290148D01*
X64909231Y-73221493D01*
X64956383Y-73150239D01*
X64948557Y-73037150D01*
X64930120Y-72992568D01*
X64954306Y-72884162D01*
X64980356Y-72848758D01*
X64992075Y-72791316D01*
X64937032Y-72786974D01*
X64839595Y-72831759D01*
X64724135Y-72921697D01*
X64676253Y-72966387D01*
X64568760Y-73058044D01*
X64510500Y-73094520D01*
X64497802Y-73099793D01*
X64422530Y-73162713D01*
X64313853Y-73273919D01*
X64200969Y-73432714D01*
X64181466Y-73573655D01*
X64183810Y-73582875D01*
X64185737Y-73662405D01*
X64120086Y-73658362D01*
X64085664Y-73651294D01*
X64019147Y-73695103D01*
X63958229Y-73837051D01*
X63894230Y-74014545D01*
X63827828Y-74124556D01*
X63757125Y-74141449D01*
X63668494Y-74076485D01*
X63616774Y-74017543D01*
X63571569Y-73921777D01*
X63566747Y-73795362D01*
X63602710Y-73612423D01*
X63679860Y-73347090D01*
X63728847Y-73180694D01*
X63766733Y-73000551D01*
X63768441Y-72855452D01*
X63750552Y-72765862D01*
X65069021Y-72765862D01*
X65088326Y-72830451D01*
X65155388Y-72969629D01*
X65213228Y-73079366D01*
X65259708Y-73143517D01*
X65263302Y-73100140D01*
X65222970Y-72949543D01*
X65212909Y-72918599D01*
X65159166Y-72796181D01*
X65112416Y-72746575D01*
X65091991Y-72747410D01*
X65069021Y-72765862D01*
X63750552Y-72765862D01*
X63737851Y-72702250D01*
X63723390Y-72644784D01*
X63714534Y-72601598D01*
X65006164Y-72601598D01*
X65035159Y-72630593D01*
X65064155Y-72601598D01*
X66107990Y-72601598D01*
X66136986Y-72630593D01*
X66165981Y-72601598D01*
X66136986Y-72572602D01*
X66107990Y-72601598D01*
X65064155Y-72601598D01*
X65035159Y-72572602D01*
X65006164Y-72601598D01*
X63714534Y-72601598D01*
X63686964Y-72467163D01*
X63686531Y-72463384D01*
X65146462Y-72463384D01*
X65151141Y-72514612D01*
X65180189Y-72542164D01*
X65285043Y-72571714D01*
X65298230Y-72571518D01*
X65350462Y-72559648D01*
X65296118Y-72514612D01*
X65215611Y-72471898D01*
X65146462Y-72463384D01*
X63686531Y-72463384D01*
X63676114Y-72372456D01*
X65385432Y-72372456D01*
X65402619Y-72398630D01*
X65431262Y-72404393D01*
X65441095Y-72456621D01*
X65433117Y-72482556D01*
X65481166Y-72519048D01*
X65519954Y-72522418D01*
X65650789Y-72541772D01*
X65748192Y-72542957D01*
X65837816Y-72484731D01*
X65841661Y-72376550D01*
X65829284Y-72336953D01*
X65850184Y-72298806D01*
X65955679Y-72314984D01*
X66060230Y-72327508D01*
X66107990Y-72303235D01*
X66102144Y-72288849D01*
X66022352Y-72257851D01*
X65878694Y-72246036D01*
X65709126Y-72252588D01*
X65551607Y-72276690D01*
X65444096Y-72317525D01*
X65385432Y-72372456D01*
X63676114Y-72372456D01*
X63672374Y-72339807D01*
X63659383Y-72273879D01*
X63635518Y-72259857D01*
X65296118Y-72259857D01*
X65312191Y-72281461D01*
X65378660Y-72273394D01*
X65440685Y-72225321D01*
X65445979Y-72198477D01*
X65386117Y-72202530D01*
X65341607Y-72222613D01*
X65296118Y-72259857D01*
X63635518Y-72259857D01*
X63592289Y-72234458D01*
X63440411Y-72224657D01*
X63208447Y-72224657D01*
X63208447Y-71622040D01*
X63208548Y-71514405D01*
X63210598Y-71339662D01*
X63280279Y-71339662D01*
X63280296Y-71586758D01*
X63280397Y-71605961D01*
X63283265Y-71846399D01*
X63292673Y-71994592D01*
X63314576Y-72072837D01*
X63354931Y-72103432D01*
X63419692Y-72108675D01*
X63496155Y-72099728D01*
X63545099Y-72043442D01*
X63556392Y-71905707D01*
X63556893Y-71879071D01*
X63576053Y-71753718D01*
X63614383Y-71702739D01*
X63621994Y-71704492D01*
X63657809Y-71771552D01*
X63672374Y-71905707D01*
X63676165Y-71997336D01*
X63708419Y-72085971D01*
X63788356Y-72108675D01*
X63834086Y-72103621D01*
X63872179Y-72071084D01*
X63893315Y-71988811D01*
X63902400Y-71834727D01*
X63904337Y-71586758D01*
X63903539Y-71440460D01*
X64047064Y-71440460D01*
X64069902Y-71512608D01*
X64169137Y-71528767D01*
X64192033Y-71528279D01*
X64286047Y-71494427D01*
X64310274Y-71383790D01*
X64324671Y-71288440D01*
X64368264Y-71238812D01*
X64396567Y-71284919D01*
X64418128Y-71420853D01*
X64424927Y-71586758D01*
X64426255Y-71619176D01*
X64421136Y-71795723D01*
X64401302Y-71931933D01*
X64368264Y-71963698D01*
X64336902Y-71926313D01*
X64310274Y-71815299D01*
X64291647Y-71744144D01*
X64194292Y-71702739D01*
X64164195Y-71706855D01*
X64092518Y-71773923D01*
X64072742Y-71890910D01*
X64105264Y-72015815D01*
X64190479Y-72106635D01*
X64289949Y-72148728D01*
X64466158Y-72154894D01*
X64600506Y-72059496D01*
X64686142Y-71869257D01*
X64716210Y-71590900D01*
X64712370Y-71520591D01*
X64832191Y-71520591D01*
X64832568Y-71590900D01*
X64832582Y-71593438D01*
X64843649Y-71834337D01*
X64872677Y-71987614D01*
X64923320Y-72075538D01*
X65051100Y-72150455D01*
X65223426Y-72151916D01*
X65374117Y-72060616D01*
X65385627Y-72046841D01*
X65435459Y-71941148D01*
X65462160Y-71770448D01*
X65468065Y-71576320D01*
X65586073Y-71576320D01*
X65586948Y-71750667D01*
X65593937Y-71936577D01*
X65612145Y-72045364D01*
X65646532Y-72100505D01*
X65702054Y-72125478D01*
X65743595Y-72133500D01*
X65793020Y-72114849D01*
X65816246Y-72031082D01*
X65824892Y-71856785D01*
X65831747Y-71557762D01*
X65889156Y-71833219D01*
X65892779Y-71850109D01*
X65952496Y-72031123D01*
X66020312Y-72102427D01*
X66086455Y-72068488D01*
X66141155Y-71933770D01*
X66174642Y-71702739D01*
X66182130Y-71668931D01*
X66198771Y-71714123D01*
X66218927Y-71848914D01*
X66221666Y-71871782D01*
X66250217Y-72036161D01*
X66290491Y-72110961D01*
X66354452Y-72120119D01*
X66376320Y-72113881D01*
X66417490Y-72076548D01*
X66426748Y-72043584D01*
X66803881Y-72043584D01*
X66814465Y-72106908D01*
X66872119Y-72201114D01*
X66882048Y-72217338D01*
X66912889Y-72238600D01*
X66951891Y-72222527D01*
X66965156Y-72108457D01*
X66951037Y-71986456D01*
X66886989Y-71934703D01*
X66840465Y-71953489D01*
X66803881Y-72043584D01*
X66426748Y-72043584D01*
X66441666Y-71990463D01*
X66453072Y-71833243D01*
X66455936Y-71582506D01*
X66455936Y-71064840D01*
X66288167Y-71064840D01*
X66157046Y-71089917D01*
X66075676Y-71186260D01*
X66042366Y-71374035D01*
X66039630Y-71398203D01*
X66023079Y-71397375D01*
X65998872Y-71296803D01*
X65969943Y-71179097D01*
X65905700Y-71103688D01*
X65774543Y-71075663D01*
X65586073Y-71057491D01*
X65586073Y-71576320D01*
X65468065Y-71576320D01*
X65470091Y-71509703D01*
X65469447Y-71342114D01*
X65462502Y-71184567D01*
X65441380Y-71101945D01*
X65398208Y-71070090D01*
X65325114Y-71064840D01*
X65261229Y-71068362D01*
X65214544Y-71094665D01*
X65188746Y-71167054D01*
X65176257Y-71308823D01*
X65169502Y-71543264D01*
X65158868Y-72021689D01*
X65126009Y-71557762D01*
X65116991Y-71436933D01*
X65097360Y-71250701D01*
X65070601Y-71144610D01*
X65028456Y-71094273D01*
X64962671Y-71075304D01*
X64912586Y-71070863D01*
X64867465Y-71088550D01*
X64843447Y-71154311D01*
X64833900Y-71290780D01*
X64832191Y-71520591D01*
X64712370Y-71520591D01*
X64705048Y-71386546D01*
X64650498Y-71198556D01*
X64542261Y-71095953D01*
X64371223Y-71064840D01*
X64239575Y-71084477D01*
X64121672Y-71180618D01*
X64056591Y-71371093D01*
X64047064Y-71440460D01*
X63903539Y-71440460D01*
X63903214Y-71380972D01*
X63895984Y-71209552D01*
X63877701Y-71114440D01*
X63843460Y-71073561D01*
X63788356Y-71064840D01*
X63761798Y-71066223D01*
X63691422Y-71109586D01*
X63672374Y-71235390D01*
X63656164Y-71363386D01*
X63614383Y-71441780D01*
X63606467Y-71445150D01*
X63570129Y-71403181D01*
X63556392Y-71271230D01*
X63549726Y-71150671D01*
X63510898Y-71080696D01*
X63416996Y-71064840D01*
X63408403Y-71064857D01*
X63345457Y-71071140D01*
X63307016Y-71104163D01*
X63287238Y-71186234D01*
X63280279Y-71339662D01*
X63210598Y-71339662D01*
X63211295Y-71280285D01*
X63221209Y-71132848D01*
X63242787Y-71050458D01*
X63280527Y-71011474D01*
X63338927Y-70994258D01*
X63412744Y-70984418D01*
X63584266Y-70977720D01*
X63767810Y-70983726D01*
X63920772Y-71000407D01*
X64000547Y-71025737D01*
X64046132Y-71034268D01*
X64150032Y-70999500D01*
X64282431Y-70967887D01*
X64475855Y-70982306D01*
X64504721Y-70988059D01*
X64654042Y-71009453D01*
X64745205Y-71009050D01*
X64762335Y-71006413D01*
X64877629Y-70999043D01*
X65077884Y-70991392D01*
X65340797Y-70984224D01*
X65644064Y-70978300D01*
X65966441Y-70976017D01*
X66264469Y-70982886D01*
X66450800Y-71000624D01*
X66527536Y-71029354D01*
X66541787Y-71067095D01*
X66563236Y-71202565D01*
X66572874Y-71383790D01*
X66574976Y-71503946D01*
X66582877Y-71582506D01*
X66585085Y-71604458D01*
X66611204Y-71617241D01*
X66662028Y-71559426D01*
X66663558Y-71556597D01*
X66932253Y-71556597D01*
X66939193Y-71625418D01*
X66956636Y-71634491D01*
X66977853Y-71586758D01*
X66973668Y-71556057D01*
X66939193Y-71548097D01*
X66932253Y-71556597D01*
X66663558Y-71556597D01*
X66710251Y-71470243D01*
X66712281Y-71449558D01*
X66872130Y-71449558D01*
X66919863Y-71470776D01*
X66950563Y-71466591D01*
X66958523Y-71432115D01*
X66950024Y-71425175D01*
X66881202Y-71432115D01*
X66872130Y-71449558D01*
X66712281Y-71449558D01*
X66719994Y-71370956D01*
X66713239Y-71338198D01*
X66747710Y-71296803D01*
X66782881Y-71268196D01*
X66801572Y-71180822D01*
X66919863Y-71180822D01*
X66933682Y-71248393D01*
X66993172Y-71296803D01*
X67035158Y-71337503D01*
X67052128Y-71432115D01*
X67058693Y-71468718D01*
X67062207Y-71586758D01*
X67065660Y-71702733D01*
X67065662Y-71780052D01*
X67070258Y-71961538D01*
X67088045Y-72060039D01*
X67127055Y-72100701D01*
X67193503Y-72108457D01*
X67195319Y-72108669D01*
X67219956Y-72108186D01*
X67278385Y-72092759D01*
X67294022Y-72065182D01*
X67445856Y-72065182D01*
X67447908Y-72155442D01*
X67471644Y-72222943D01*
X67518088Y-72181164D01*
X67523914Y-72133414D01*
X67496591Y-72021689D01*
X67472785Y-71967667D01*
X67452892Y-71962886D01*
X67445856Y-72065182D01*
X67294022Y-72065182D01*
X67310114Y-72036804D01*
X67322706Y-71919987D01*
X67562905Y-71919987D01*
X67648891Y-72075538D01*
X67747606Y-72133414D01*
X67776671Y-72150455D01*
X67948997Y-72151916D01*
X68025206Y-72105743D01*
X68267160Y-72105743D01*
X68301558Y-72128903D01*
X68398350Y-72122257D01*
X68497873Y-72079172D01*
X68543607Y-72017656D01*
X68549483Y-71981379D01*
X68601598Y-71934703D01*
X68628275Y-71944517D01*
X68659589Y-72021689D01*
X68687053Y-72077772D01*
X68800920Y-72108675D01*
X68883712Y-72100573D01*
X68923699Y-72049382D01*
X68917994Y-71963698D01*
X69007534Y-71963698D01*
X69036529Y-71992694D01*
X69065525Y-71963698D01*
X69036529Y-71934703D01*
X69007534Y-71963698D01*
X68917994Y-71963698D01*
X68915098Y-71920205D01*
X68903378Y-71837430D01*
X68875149Y-71632814D01*
X68868934Y-71586758D01*
X68949543Y-71586758D01*
X68965688Y-71654393D01*
X69036529Y-71702739D01*
X69039883Y-71702803D01*
X69103401Y-71751859D01*
X69123516Y-71899503D01*
X69131405Y-71963698D01*
X69139552Y-72029992D01*
X69154122Y-72049382D01*
X69212515Y-72127091D01*
X69340981Y-72124296D01*
X69350680Y-72118848D01*
X69386415Y-72039223D01*
X69406919Y-71863437D01*
X69413470Y-71581925D01*
X69413470Y-71064840D01*
X69181506Y-71064840D01*
X69047618Y-71071406D01*
X68968995Y-71104942D01*
X68949543Y-71180822D01*
X68965688Y-71248457D01*
X69036529Y-71296803D01*
X69077096Y-71306907D01*
X69123516Y-71383790D01*
X69113412Y-71424356D01*
X69036529Y-71470776D01*
X68985803Y-71492303D01*
X68949543Y-71586758D01*
X68868934Y-71586758D01*
X68845457Y-71412785D01*
X68843955Y-71401518D01*
X68816701Y-71224604D01*
X68781788Y-71133154D01*
X68717806Y-71098965D01*
X68603350Y-71093835D01*
X68403731Y-71093835D01*
X68398700Y-71126253D01*
X68367901Y-71324730D01*
X68327702Y-71583787D01*
X68314328Y-71672107D01*
X68285280Y-71883580D01*
X68268456Y-72037628D01*
X68267160Y-72105743D01*
X68025206Y-72105743D01*
X68099688Y-72060616D01*
X68144989Y-72003090D01*
X68195861Y-71878300D01*
X68168229Y-71792367D01*
X68065182Y-71771195D01*
X67984051Y-71797483D01*
X67934703Y-71857382D01*
X67933511Y-71874283D01*
X67891210Y-71968531D01*
X67865109Y-71971924D01*
X67847716Y-71899291D01*
X67850359Y-71877399D01*
X67909405Y-71759222D01*
X68021689Y-71633899D01*
X68145003Y-71489536D01*
X68198202Y-71324730D01*
X68159698Y-71185938D01*
X68036848Y-71095407D01*
X67837007Y-71075381D01*
X67747373Y-71088640D01*
X67659241Y-71139534D01*
X67647323Y-71180822D01*
X67626399Y-71253310D01*
X67626124Y-71255731D01*
X67633763Y-71376742D01*
X67700707Y-71412785D01*
X67746866Y-71403098D01*
X67826618Y-71326132D01*
X67851497Y-71287406D01*
X67918723Y-71275852D01*
X67926416Y-71300646D01*
X67878573Y-71386598D01*
X67767669Y-71504526D01*
X67758754Y-71513227D01*
X67718282Y-71552728D01*
X67586684Y-71742599D01*
X67562905Y-71919987D01*
X67322706Y-71919987D01*
X67323224Y-71915178D01*
X67325799Y-71702739D01*
X67326690Y-71613467D01*
X67441780Y-71613467D01*
X67443155Y-71693383D01*
X67453540Y-71824809D01*
X67470776Y-71876712D01*
X67489031Y-71846765D01*
X67499771Y-71743333D01*
X67510348Y-71652752D01*
X67552914Y-71554863D01*
X67571174Y-71513227D01*
X67523918Y-71424996D01*
X67512534Y-71415046D01*
X67467630Y-71397539D01*
X67446844Y-71457258D01*
X67441780Y-71613467D01*
X67326690Y-71613467D01*
X67327067Y-71575653D01*
X67338475Y-71406516D01*
X67365524Y-71320676D01*
X67412785Y-71296803D01*
X67463511Y-71275277D01*
X67499771Y-71180822D01*
X67498531Y-71153995D01*
X67470471Y-71096865D01*
X67383733Y-71070946D01*
X67209817Y-71064840D01*
X67142751Y-71065336D01*
X66999925Y-71076560D01*
X66935128Y-71111255D01*
X66919863Y-71180822D01*
X66801572Y-71180822D01*
X66804673Y-71166324D01*
X66805826Y-71125549D01*
X66818658Y-71030961D01*
X68227473Y-71030961D01*
X68231526Y-71090823D01*
X68250244Y-71132977D01*
X68293008Y-71178944D01*
X68311643Y-71126253D01*
X68309582Y-71110502D01*
X68254317Y-71036255D01*
X68227473Y-71030961D01*
X66818658Y-71030961D01*
X66828816Y-70956085D01*
X66872366Y-70826523D01*
X66924806Y-70774886D01*
X66945253Y-70787038D01*
X66940834Y-70861872D01*
X66936680Y-70874689D01*
X66950616Y-70920890D01*
X67037260Y-70944860D01*
X67218110Y-70953722D01*
X67323824Y-70955576D01*
X67598211Y-70961479D01*
X67856693Y-70968220D01*
X67995763Y-70967353D01*
X68118406Y-70952383D01*
X68152185Y-70925400D01*
X68146696Y-70903613D01*
X68200492Y-70922848D01*
X68248584Y-70936552D01*
X68398951Y-70952059D01*
X68617273Y-70959960D01*
X68874720Y-70958721D01*
X68880172Y-70958592D01*
X69156333Y-70952709D01*
X69338017Y-70960997D01*
X69446376Y-70998726D01*
X69502557Y-71081171D01*
X69527712Y-71223604D01*
X69542990Y-71441298D01*
X69547797Y-71495780D01*
X69570498Y-71581925D01*
X69585081Y-71637263D01*
X69659931Y-71692012D01*
X69719282Y-71689092D01*
X69761415Y-71616583D01*
X69751325Y-71569037D01*
X69694464Y-71563300D01*
X69662343Y-71577367D01*
X69668410Y-71538506D01*
X69672530Y-71530117D01*
X69680360Y-71422862D01*
X69653772Y-71271208D01*
X69640144Y-71216392D01*
X69633348Y-71080171D01*
X69645519Y-71064840D01*
X69715586Y-71064840D01*
X69825487Y-71417952D01*
X69873285Y-71588435D01*
X69918089Y-71793663D01*
X69935388Y-71939870D01*
X69936205Y-71975910D01*
X69965476Y-72080313D01*
X70051369Y-72108675D01*
X70098996Y-72103447D01*
X70153295Y-72049805D01*
X70167351Y-71912998D01*
X70168938Y-71871313D01*
X70193822Y-71706414D01*
X70465738Y-71706414D01*
X70468554Y-71914015D01*
X70483882Y-72036211D01*
X70517604Y-72098426D01*
X70575603Y-72126084D01*
X70594021Y-72130473D01*
X70655811Y-72125382D01*
X70683123Y-72057465D01*
X70689269Y-71900278D01*
X70691700Y-71827197D01*
X70712370Y-71696513D01*
X70747260Y-71644749D01*
X70760259Y-71650663D01*
X70792389Y-71731456D01*
X70805251Y-71876712D01*
X70811817Y-72010601D01*
X70845353Y-72089223D01*
X70921232Y-72108675D01*
X70966963Y-72103621D01*
X71005056Y-72071084D01*
X71016008Y-72028453D01*
X71153196Y-72028453D01*
X71154270Y-72039527D01*
X71217893Y-72091826D01*
X71385159Y-72108675D01*
X71617123Y-72108675D01*
X71617123Y-71128000D01*
X71736209Y-71128000D01*
X71737577Y-71246695D01*
X71756741Y-71456792D01*
X71770582Y-71592502D01*
X71802157Y-71840596D01*
X71838760Y-71999007D01*
X71888891Y-72086092D01*
X71961052Y-72120207D01*
X72063744Y-72119708D01*
X72143208Y-72108798D01*
X72221122Y-72074750D01*
X72271312Y-71997197D01*
X72306972Y-71852184D01*
X72341296Y-71615753D01*
X72354259Y-71521939D01*
X72384421Y-71330218D01*
X72410448Y-71195319D01*
X72418355Y-71155899D01*
X72400996Y-71082350D01*
X72297553Y-71064840D01*
X72219216Y-71080815D01*
X72145253Y-71159892D01*
X72098519Y-71320490D01*
X72071597Y-71579509D01*
X72063317Y-71613502D01*
X72047330Y-71557062D01*
X72028104Y-71412785D01*
X72015058Y-71303330D01*
X71985536Y-71166072D01*
X71937419Y-71099600D01*
X71855590Y-71074257D01*
X71811665Y-71068822D01*
X71758838Y-71076708D01*
X71736209Y-71128000D01*
X71617123Y-71128000D01*
X71617123Y-71057839D01*
X71400139Y-71075837D01*
X71382465Y-71077446D01*
X71225713Y-71116047D01*
X71163924Y-71195319D01*
X71172475Y-71265556D01*
X71264926Y-71296803D01*
X71336405Y-71313047D01*
X71385159Y-71383790D01*
X71375842Y-71424222D01*
X71304377Y-71470776D01*
X71264689Y-71476458D01*
X71194706Y-71537695D01*
X71193895Y-71586758D01*
X71193265Y-71624847D01*
X71268938Y-71685874D01*
X71286214Y-71691112D01*
X71372769Y-71762029D01*
X71367106Y-71852604D01*
X71269178Y-71917900D01*
X71201782Y-71950560D01*
X71153196Y-72028453D01*
X71016008Y-72028453D01*
X71026192Y-71988811D01*
X71035276Y-71834727D01*
X71037214Y-71586758D01*
X71037214Y-71064840D01*
X70812351Y-71064840D01*
X70774972Y-71065806D01*
X70621181Y-71090251D01*
X70528927Y-71137328D01*
X70524247Y-71144510D01*
X70521134Y-71156173D01*
X70496243Y-71249426D01*
X70475478Y-71430462D01*
X70466152Y-71653088D01*
X70465738Y-71706414D01*
X70193822Y-71706414D01*
X70198732Y-71673875D01*
X70254337Y-71470776D01*
X70310195Y-71298567D01*
X70335583Y-71156173D01*
X70307747Y-71084537D01*
X70225342Y-71064840D01*
X70152023Y-71082917D01*
X70109360Y-71177399D01*
X70100086Y-71244004D01*
X70051369Y-71325799D01*
X70011787Y-71311904D01*
X69993379Y-71213239D01*
X69992759Y-71185668D01*
X69959814Y-71089562D01*
X69854482Y-71064840D01*
X69715586Y-71064840D01*
X69645519Y-71064840D01*
X69695442Y-71001957D01*
X69840929Y-70971953D01*
X70084309Y-70980362D01*
X70323288Y-70995605D01*
X70651778Y-71000367D01*
X70921596Y-70984218D01*
X71118610Y-70949014D01*
X71228690Y-70896613D01*
X71237706Y-70828869D01*
X71273927Y-70811835D01*
X71414935Y-70796431D01*
X71651485Y-70784800D01*
X71972940Y-70777449D01*
X72368663Y-70774886D01*
X73532983Y-70774886D01*
X73532403Y-71057839D01*
X73532202Y-71155899D01*
X73529189Y-72626665D01*
X73527298Y-73113895D01*
X73522993Y-73567271D01*
X73516077Y-73920695D01*
X73506215Y-74182695D01*
X73498831Y-74283333D01*
X73493074Y-74361798D01*
X73476320Y-74466529D01*
G37*
G36*
X63899555Y-74452724D02*
G01*
X63918378Y-74471758D01*
X64036615Y-74638144D01*
X64104849Y-74812551D01*
X64106423Y-74820760D01*
X64151362Y-74953092D01*
X64211720Y-74970867D01*
X64212232Y-74970569D01*
X64230522Y-74976955D01*
X64178331Y-75047927D01*
X64131263Y-75105425D01*
X64108657Y-75175089D01*
X64165235Y-75240131D01*
X64213498Y-75287923D01*
X64232794Y-75336992D01*
X64237790Y-75359113D01*
X64298153Y-75446550D01*
X64405722Y-75572414D01*
X64413338Y-75580788D01*
X64551153Y-75772969D01*
X64586087Y-75933297D01*
X64584606Y-75950452D01*
X64604464Y-76057884D01*
X64701712Y-76099581D01*
X64731626Y-76104944D01*
X64821778Y-76150291D01*
X64808699Y-76201613D01*
X64694315Y-76226027D01*
X64591170Y-76244203D01*
X64495234Y-76299327D01*
X64454725Y-76366239D01*
X64496323Y-76418941D01*
X64540657Y-76451699D01*
X64492553Y-76504318D01*
X64451334Y-76545199D01*
X64478055Y-76599141D01*
X64499601Y-76615867D01*
X64542237Y-76697284D01*
X64528052Y-76722244D01*
X64439522Y-76721616D01*
X64289399Y-76667755D01*
X64100461Y-76567360D01*
X64090949Y-76561729D01*
X63922238Y-76488273D01*
X63767013Y-76457991D01*
X63664195Y-76440988D01*
X63614383Y-76393236D01*
X63638267Y-76359748D01*
X63733679Y-76359678D01*
X63760259Y-76366257D01*
X63818550Y-76366426D01*
X63784569Y-76308451D01*
X63780249Y-76303400D01*
X63686299Y-76239076D01*
X63596472Y-76232296D01*
X63556392Y-76287292D01*
X63538674Y-76296110D01*
X63456488Y-76254154D01*
X63329957Y-76158453D01*
X63260991Y-76099041D01*
X63159000Y-75988894D01*
X63119466Y-75879523D01*
X63119956Y-75724579D01*
X63122995Y-75692689D01*
X63174774Y-75482618D01*
X63263072Y-75302900D01*
X63283406Y-75272860D01*
X63346601Y-75147296D01*
X63353669Y-75066605D01*
X63344049Y-75044180D01*
X63372554Y-75008219D01*
X63392764Y-75003012D01*
X63424832Y-74935730D01*
X63427119Y-74806292D01*
X63464179Y-74693618D01*
X63549143Y-74660274D01*
X63639545Y-74617763D01*
X63694725Y-74476030D01*
X63731574Y-74291787D01*
X63899555Y-74452724D01*
G37*
G36*
X63534068Y-74286712D02*
G01*
X63556392Y-74366897D01*
X63545063Y-74437585D01*
X63498401Y-74486301D01*
X63472834Y-74477687D01*
X63440411Y-74402737D01*
X63445042Y-74367239D01*
X63498401Y-74283333D01*
X63534068Y-74286712D01*
G37*
G36*
X70557686Y-74910041D02*
G01*
X70567657Y-74912910D01*
X70576242Y-74930561D01*
X70486301Y-74938923D01*
X70472568Y-74939002D01*
X70381786Y-74931227D01*
X70383713Y-74912190D01*
X70431364Y-74901551D01*
X70557686Y-74910041D01*
G37*
G36*
X65471877Y-78961541D02*
G01*
X65547830Y-79024086D01*
X65578980Y-79064935D01*
X65632400Y-79017895D01*
X65668296Y-78981277D01*
X65724162Y-78998444D01*
X65732778Y-79026721D01*
X65687918Y-79087044D01*
X65618518Y-79111635D01*
X65539522Y-79107313D01*
X65437682Y-79040428D01*
X65395887Y-79007666D01*
X65362944Y-78964378D01*
X65421765Y-78953442D01*
X65471877Y-78961541D01*
G37*
G36*
X66513927Y-70803881D02*
G01*
X66484931Y-70832876D01*
X66455936Y-70803881D01*
X66484931Y-70774886D01*
X66513927Y-70803881D01*
G37*
G36*
X68137671Y-70803881D02*
G01*
X68108675Y-70832876D01*
X68079680Y-70803881D01*
X68108675Y-70774886D01*
X68137671Y-70803881D01*
G37*
G36*
X60714840Y-81532191D02*
G01*
X60685844Y-81561187D01*
X60656849Y-81532191D01*
X60685844Y-81503196D01*
X60714840Y-81532191D01*
G37*
G36*
X65644064Y-75153196D02*
G01*
X65615068Y-75182191D01*
X65586073Y-75153196D01*
X65615068Y-75124201D01*
X65644064Y-75153196D01*
G37*
G36*
X63823231Y-79302212D02*
G01*
X63875342Y-79357534D01*
X63884403Y-79379997D01*
X63849769Y-79415525D01*
X63832936Y-79413296D01*
X63788356Y-79357534D01*
X63789021Y-79344410D01*
X63813929Y-79299543D01*
X63823231Y-79302212D01*
G37*
G36*
X62280593Y-81590182D02*
G01*
X62251598Y-81619178D01*
X62222602Y-81590182D01*
X62251598Y-81561187D01*
X62280593Y-81590182D01*
G37*
G36*
X66803881Y-76371004D02*
G01*
X66774885Y-76400000D01*
X66745890Y-76371004D01*
X66774885Y-76342009D01*
X66803881Y-76371004D01*
G37*
G36*
X65818036Y-73181507D02*
G01*
X65789041Y-73210502D01*
X65760045Y-73181507D01*
X65789041Y-73152511D01*
X65818036Y-73181507D01*
G37*
G36*
X64774200Y-75965068D02*
G01*
X64745205Y-75994064D01*
X64716210Y-75965068D01*
X64745205Y-75936073D01*
X64774200Y-75965068D01*
G37*
G36*
X67035844Y-79792465D02*
G01*
X67006849Y-79821461D01*
X66977853Y-79792465D01*
X67006849Y-79763470D01*
X67035844Y-79792465D01*
G37*
G36*
X65508751Y-77405175D02*
G01*
X65517824Y-77422617D01*
X65470091Y-77443835D01*
X65439391Y-77439650D01*
X65431430Y-77405175D01*
X65439930Y-77398234D01*
X65508751Y-77405175D01*
G37*
G36*
X65659937Y-74063142D02*
G01*
X65702054Y-74141778D01*
X65698992Y-74174300D01*
X65668733Y-74187974D01*
X65621937Y-74106348D01*
X65611774Y-74061114D01*
X65644728Y-74051780D01*
X65659937Y-74063142D01*
G37*
G36*
X62958746Y-71573578D02*
G01*
X62986277Y-71685544D01*
X63003510Y-71717031D01*
X63015067Y-71851164D01*
X62981003Y-72012635D01*
X62910168Y-72147702D01*
X62909903Y-72148017D01*
X62817577Y-72184971D01*
X62622750Y-72208267D01*
X62338175Y-72216373D01*
X61823174Y-72216373D01*
X61805422Y-72003532D01*
X61804635Y-71994552D01*
X61766406Y-71834771D01*
X61686187Y-71771458D01*
X61628301Y-71774397D01*
X61593562Y-71836919D01*
X61584703Y-71988442D01*
X61584703Y-72224657D01*
X60668447Y-72224657D01*
X60598690Y-72224568D01*
X60214115Y-72219591D01*
X59937649Y-72206659D01*
X59762681Y-72185307D01*
X59682602Y-72155068D01*
X59675384Y-72146313D01*
X59638114Y-72032359D01*
X59617280Y-71845522D01*
X59614655Y-71721201D01*
X59693989Y-71721201D01*
X59695032Y-71910290D01*
X59714575Y-72036187D01*
X59728814Y-72051092D01*
X59824160Y-72082762D01*
X59971796Y-72104475D01*
X60130183Y-72113212D01*
X60257779Y-72105953D01*
X60313046Y-72079680D01*
X60314217Y-72060793D01*
X60315111Y-72015485D01*
X60424885Y-72015485D01*
X60439688Y-72072679D01*
X60536453Y-72124708D01*
X60729337Y-72121076D01*
X60888812Y-72100972D01*
X60888812Y-72014929D01*
X61004794Y-72014929D01*
X61006484Y-72028585D01*
X61072898Y-72094261D01*
X61098680Y-72100972D01*
X61206621Y-72129069D01*
X61367237Y-72121161D01*
X61388828Y-72114800D01*
X61430119Y-72077090D01*
X61454381Y-71990755D01*
X61465840Y-71833368D01*
X61468721Y-71582506D01*
X61468721Y-71374232D01*
X61584703Y-71374232D01*
X61600353Y-71513292D01*
X61640417Y-71582506D01*
X61681890Y-71654153D01*
X61828264Y-71702739D01*
X61865231Y-71707235D01*
X61918134Y-71763425D01*
X61932648Y-71905707D01*
X61936439Y-71997336D01*
X61968693Y-72085971D01*
X62048630Y-72108675D01*
X62094360Y-72103621D01*
X62132453Y-72071084D01*
X62153589Y-71988811D01*
X62158906Y-71898631D01*
X62297642Y-71898631D01*
X62369694Y-72053021D01*
X62464210Y-72125256D01*
X62599543Y-72166666D01*
X62600181Y-72166665D01*
X62747685Y-72117795D01*
X62868457Y-72000578D01*
X62918493Y-71857648D01*
X62895626Y-71789756D01*
X62817849Y-71761348D01*
X62724645Y-71796976D01*
X62658151Y-71891210D01*
X62637459Y-71952155D01*
X62612259Y-71982562D01*
X62587060Y-71909385D01*
X62586418Y-71906817D01*
X62609684Y-71786829D01*
X62738707Y-71648426D01*
X62850526Y-71528072D01*
X62918501Y-71363268D01*
X62900985Y-71214301D01*
X62802742Y-71106412D01*
X62628538Y-71064840D01*
X62524387Y-71077645D01*
X62388207Y-71161037D01*
X62338584Y-71308401D01*
X62356760Y-71371351D01*
X62454566Y-71412785D01*
X62522201Y-71396640D01*
X62570548Y-71325799D01*
X62577090Y-71285783D01*
X62628538Y-71238812D01*
X62668643Y-71248272D01*
X62685217Y-71310659D01*
X62629924Y-71409506D01*
X62533837Y-71499771D01*
X62513378Y-71518990D01*
X62461615Y-71560768D01*
X62441149Y-71586758D01*
X62330106Y-71727769D01*
X62297642Y-71898631D01*
X62158906Y-71898631D01*
X62162673Y-71834727D01*
X62164611Y-71586758D01*
X62164611Y-71499771D01*
X62280593Y-71499771D01*
X62309589Y-71528767D01*
X62338584Y-71499771D01*
X62309589Y-71470776D01*
X62280593Y-71499771D01*
X62164611Y-71499771D01*
X62164611Y-71064840D01*
X61986826Y-71064840D01*
X61963512Y-71065063D01*
X61748053Y-71100922D01*
X61624288Y-71202051D01*
X61584703Y-71374232D01*
X61468721Y-71374232D01*
X61468721Y-71064840D01*
X61242187Y-71064840D01*
X61097492Y-71072373D01*
X61041079Y-71105686D01*
X61045982Y-71180822D01*
X61078642Y-71248217D01*
X61156535Y-71296803D01*
X61193812Y-71306830D01*
X61236758Y-71383790D01*
X61226654Y-71424356D01*
X61149771Y-71470776D01*
X61099045Y-71492303D01*
X61062785Y-71586758D01*
X61078930Y-71654393D01*
X61149771Y-71702739D01*
X61200498Y-71724266D01*
X61221917Y-71780061D01*
X61236758Y-71818721D01*
X61217696Y-71893697D01*
X61120776Y-71934703D01*
X61053121Y-71949868D01*
X61004794Y-72014929D01*
X60888812Y-72014929D01*
X60888812Y-71797503D01*
X61015052Y-71797503D01*
X61062785Y-71818721D01*
X61093485Y-71814536D01*
X61101446Y-71780061D01*
X61092946Y-71773120D01*
X61024124Y-71780061D01*
X61015052Y-71797503D01*
X60888812Y-71797503D01*
X60888812Y-71383790D01*
X61004794Y-71383790D01*
X61033790Y-71412785D01*
X61062785Y-71383790D01*
X61033790Y-71354794D01*
X61004794Y-71383790D01*
X60888812Y-71383790D01*
X60888812Y-71064840D01*
X60692049Y-71064840D01*
X60671009Y-71065310D01*
X60533707Y-71096036D01*
X60455063Y-71157884D01*
X60451797Y-71227101D01*
X60540628Y-71279938D01*
X60580063Y-71295079D01*
X60646839Y-71363587D01*
X60646670Y-71374124D01*
X60645668Y-71436703D01*
X60569863Y-71470776D01*
X60519136Y-71492303D01*
X60482876Y-71586758D01*
X60488304Y-71609497D01*
X60499021Y-71654393D01*
X60569863Y-71702739D01*
X60620589Y-71724266D01*
X60642008Y-71780061D01*
X60656849Y-71818721D01*
X60637788Y-71893697D01*
X60540867Y-71934703D01*
X60473205Y-71949977D01*
X60424885Y-72015485D01*
X60315111Y-72015485D01*
X60316345Y-71952976D01*
X60317148Y-71797503D01*
X60435143Y-71797503D01*
X60482876Y-71818721D01*
X60513576Y-71814536D01*
X60521537Y-71780061D01*
X60513037Y-71773120D01*
X60444216Y-71780061D01*
X60435143Y-71797503D01*
X60317148Y-71797503D01*
X60317188Y-71789726D01*
X60317381Y-71609497D01*
X60316384Y-71391567D01*
X60435143Y-71391567D01*
X60482876Y-71412785D01*
X60513576Y-71408600D01*
X60521537Y-71374124D01*
X60513037Y-71367184D01*
X60444216Y-71374124D01*
X60435143Y-71391567D01*
X60316384Y-71391567D01*
X60316261Y-71364683D01*
X60308102Y-71206569D01*
X60286851Y-71116342D01*
X60246458Y-71075187D01*
X60180872Y-71064291D01*
X60084041Y-71064840D01*
X60073597Y-71064917D01*
X59897183Y-71091161D01*
X59784923Y-71154311D01*
X59769367Y-71182171D01*
X59734407Y-71316404D01*
X59708198Y-71509660D01*
X59693989Y-71721201D01*
X59614655Y-71721201D01*
X59612563Y-71622088D01*
X59623644Y-71398344D01*
X59650203Y-71210577D01*
X59691922Y-71095074D01*
X59731290Y-71054040D01*
X59793178Y-71024611D01*
X59895557Y-71006019D01*
X60057289Y-70996266D01*
X60297240Y-70993355D01*
X60634274Y-70995287D01*
X60758037Y-70996399D01*
X61069791Y-70998735D01*
X61343245Y-71000151D01*
X61552509Y-71000534D01*
X61671689Y-70999773D01*
X61971442Y-70996751D01*
X62251598Y-71002649D01*
X62261344Y-71002978D01*
X62404316Y-70995405D01*
X62579364Y-70972862D01*
X62652596Y-70963078D01*
X62796305Y-70976690D01*
X62912811Y-71059159D01*
X62984844Y-71156473D01*
X63031466Y-71344815D01*
X63026138Y-71363268D01*
X62978913Y-71526822D01*
X62958746Y-71573578D01*
G37*
%TO.C,D48*%
X229690000Y-133785000D02*
X229690000Y-133915000D01*
X234230000Y-133785000D02*
X234230000Y-136725000D01*
X235130000Y-133785000D02*
X229690000Y-133785000D01*
X235130000Y-136595000D02*
X235130000Y-136725000D01*
X235130000Y-136725000D02*
X229690000Y-136725000D01*
X235130000Y-133915000D02*
X235130000Y-133785000D01*
X229690000Y-136725000D02*
X229690000Y-136595000D01*
X234110000Y-133785000D02*
X234110000Y-136725000D01*
X234350000Y-133785000D02*
X234350000Y-136725000D01*
%TO.C,D36*%
X176960000Y-152835000D02*
X176960000Y-155775000D01*
X172540000Y-152835000D02*
X172540000Y-152965000D01*
X177980000Y-155645000D02*
X177980000Y-155775000D01*
X177980000Y-155775000D02*
X172540000Y-155775000D01*
X177980000Y-152965000D02*
X177980000Y-152835000D01*
X177980000Y-152835000D02*
X172540000Y-152835000D01*
X177080000Y-152835000D02*
X177080000Y-155775000D01*
X177200000Y-152835000D02*
X177200000Y-155775000D01*
X172540000Y-155775000D02*
X172540000Y-155645000D01*
%TO.C,D30*%
X153490000Y-117675000D02*
X153490000Y-117545000D01*
X158930000Y-117545000D02*
X158930000Y-117675000D01*
X158930000Y-114735000D02*
X153490000Y-114735000D01*
X158150000Y-114735000D02*
X158150000Y-117675000D01*
X158930000Y-117675000D02*
X153490000Y-117675000D01*
X157910000Y-114735000D02*
X157910000Y-117675000D01*
X158930000Y-114865000D02*
X158930000Y-114735000D01*
X153490000Y-114735000D02*
X153490000Y-114865000D01*
X158030000Y-114735000D02*
X158030000Y-117675000D01*
%TD*%
M02*
