%TF.GenerationSoftware,KiCad,Pcbnew,(6.0.0-0)*%
%TF.CreationDate,2022-09-22T00:13:08-04:00*%
%TF.ProjectId,justin-freetracing,6a757374-696e-42d6-9672-656574726163,rev?*%
%TF.SameCoordinates,Original*%
%TF.FileFunction,Copper,L2,Bot*%
%TF.FilePolarity,Positive*%
%FSLAX46Y46*%
G04 Gerber Fmt 4.6, Leading zero omitted, Abs format (unit mm)*
G04 Created by KiCad (PCBNEW (6.0.0-0)) date 2022-09-22 00:13:08*
%MOMM*%
%LPD*%
G01*
G04 APERTURE LIST*
G04 Aperture macros list*
%AMRoundRect*
0 Rectangle with rounded corners*
0 $1 Rounding radius*
0 $2 $3 $4 $5 $6 $7 $8 $9 X,Y pos of 4 corners*
0 Add a 4 corners polygon primitive as box body*
4,1,4,$2,$3,$4,$5,$6,$7,$8,$9,$2,$3,0*
0 Add four circle primitives for the rounded corners*
1,1,$1+$1,$2,$3*
1,1,$1+$1,$4,$5*
1,1,$1+$1,$6,$7*
1,1,$1+$1,$8,$9*
0 Add four rect primitives between the rounded corners*
20,1,$1+$1,$2,$3,$4,$5,0*
20,1,$1+$1,$4,$5,$6,$7,0*
20,1,$1+$1,$6,$7,$8,$9,0*
20,1,$1+$1,$8,$9,$2,$3,0*%
G04 Aperture macros list end*
%TA.AperFunction,ComponentPad*%
%ADD10C,2.200000*%
%TD*%
%TA.AperFunction,ComponentPad*%
%ADD11R,1.700000X1.700000*%
%TD*%
%TA.AperFunction,ComponentPad*%
%ADD12O,1.700000X1.700000*%
%TD*%
%TA.AperFunction,ComponentPad*%
%ADD13R,1.600000X1.600000*%
%TD*%
%TA.AperFunction,ComponentPad*%
%ADD14C,1.600000*%
%TD*%
%TA.AperFunction,ComponentPad*%
%ADD15O,1.600000X1.600000*%
%TD*%
%TA.AperFunction,ComponentPad*%
%ADD16R,1.800000X1.800000*%
%TD*%
%TA.AperFunction,ComponentPad*%
%ADD17C,1.800000*%
%TD*%
%TA.AperFunction,ComponentPad*%
%ADD18C,1.400000*%
%TD*%
%TA.AperFunction,ComponentPad*%
%ADD19O,1.400000X1.400000*%
%TD*%
%TA.AperFunction,ComponentPad*%
%ADD20R,3.500000X3.500000*%
%TD*%
%TA.AperFunction,ComponentPad*%
%ADD21RoundRect,0.750000X-0.750000X-1.000000X0.750000X-1.000000X0.750000X1.000000X-0.750000X1.000000X0*%
%TD*%
%TA.AperFunction,ComponentPad*%
%ADD22RoundRect,0.875000X-0.875000X-0.875000X0.875000X-0.875000X0.875000X0.875000X-0.875000X0.875000X0*%
%TD*%
%TA.AperFunction,ComponentPad*%
%ADD23C,1.500000*%
%TD*%
%TA.AperFunction,ComponentPad*%
%ADD24R,2.200000X2.200000*%
%TD*%
%TA.AperFunction,ComponentPad*%
%ADD25O,2.200000X2.200000*%
%TD*%
%TA.AperFunction,Conductor*%
%ADD26C,0.250000*%
%TD*%
%TA.AperFunction,Conductor*%
%ADD27C,1.000000*%
%TD*%
G04 APERTURE END LIST*
D10*
%TO.P,K27,1,1*%
%TO.N,/KR2*%
X139700000Y-139700000D03*
%TO.P,K27,2,2*%
%TO.N,Net-(D27-Pad2)*%
X133350000Y-142240000D03*
%TD*%
%TO.P,K6,1,1*%
%TO.N,/KR5*%
X44450000Y-120650000D03*
%TO.P,K6,2,2*%
%TO.N,Net-(D6-Pad2)*%
X38100000Y-123190000D03*
%TD*%
%TO.P,K26,1,1*%
%TO.N,/KR1*%
X139700000Y-120650000D03*
%TO.P,K26,2,2*%
%TO.N,Net-(D26-Pad2)*%
X133350000Y-123190000D03*
%TD*%
%TO.P,K25,1,1*%
%TO.N,/KR0*%
X139700000Y-101600000D03*
%TO.P,K25,2,2*%
%TO.N,Net-(D25-Pad2)*%
X133350000Y-104140000D03*
%TD*%
D11*
%TO.P,J3,1,Pin_1*%
%TO.N,/PB0*%
X109220000Y-64770000D03*
D12*
%TO.P,J3,2,Pin_2*%
%TO.N,/PB1*%
X106680000Y-64770000D03*
%TO.P,J3,3,Pin_3*%
%TO.N,/PB2*%
X104140000Y-64770000D03*
%TO.P,J3,4,Pin_4*%
%TO.N,/PB3*%
X101600000Y-64770000D03*
%TO.P,J3,5,Pin_5*%
%TO.N,/PB4*%
X99060000Y-64770000D03*
%TO.P,J3,6,Pin_6*%
%TO.N,/MOSI*%
X96520000Y-64770000D03*
%TO.P,J3,7,Pin_7*%
%TO.N,/MISO*%
X93980000Y-64770000D03*
%TO.P,J3,8,Pin_8*%
%TO.N,/PB7*%
X91440000Y-64770000D03*
%TD*%
D13*
%TO.P,C5,1*%
%TO.N,VCC*%
X17280000Y-62520000D03*
D14*
%TO.P,C5,2*%
%TO.N,GND*%
X17280000Y-60520000D03*
%TD*%
D13*
%TO.P,U1,1,PB0*%
%TO.N,/PB0*%
X109220000Y-69850000D03*
D15*
%TO.P,U1,2,PB1*%
%TO.N,/PB1*%
X106680000Y-69850000D03*
%TO.P,U1,3,PB2*%
%TO.N,/PB2*%
X104140000Y-69850000D03*
%TO.P,U1,4,PB3*%
%TO.N,/PB3*%
X101600000Y-69850000D03*
%TO.P,U1,5,PB4*%
%TO.N,/PB4*%
X99060000Y-69850000D03*
%TO.P,U1,6,PB5*%
%TO.N,/MOSI*%
X96520000Y-69850000D03*
%TO.P,U1,7,PB6*%
%TO.N,/MISO*%
X93980000Y-69850000D03*
%TO.P,U1,8,PB7*%
%TO.N,/PB7*%
X91440000Y-69850000D03*
%TO.P,U1,9,~{RESET}*%
%TO.N,Net-(SW1-Pad2)*%
X88900000Y-69850000D03*
%TO.P,U1,10,VCC*%
%TO.N,VCC*%
X86360000Y-69850000D03*
%TO.P,U1,11,GND*%
%TO.N,GND*%
X83820000Y-69850000D03*
%TO.P,U1,12,XTAL2*%
%TO.N,Net-(C2-Pad2)*%
X81280000Y-69850000D03*
%TO.P,U1,13,XTAL1*%
%TO.N,Net-(C1-Pad2)*%
X78740000Y-69850000D03*
%TO.P,U1,14,PD0*%
%TO.N,/PD0*%
X76200000Y-69850000D03*
%TO.P,U1,15,PD1*%
%TO.N,/PD1*%
X73660000Y-69850000D03*
%TO.P,U1,16,PD2*%
%TO.N,/PD2*%
X71120000Y-69850000D03*
%TO.P,U1,17,PD3*%
%TO.N,/PD3*%
X68580000Y-69850000D03*
%TO.P,U1,18,PD4*%
%TO.N,/PD4*%
X66040000Y-69850000D03*
%TO.P,U1,19,PD5*%
%TO.N,/PD5*%
X63500000Y-69850000D03*
%TO.P,U1,20,PD6*%
%TO.N,/PD6*%
X60960000Y-69850000D03*
%TO.P,U1,21,PD7*%
%TO.N,/PD7*%
X60960000Y-85090000D03*
%TO.P,U1,22,PC0*%
%TO.N,/KC0*%
X63500000Y-85090000D03*
%TO.P,U1,23,PC1*%
%TO.N,/KC1*%
X66040000Y-85090000D03*
%TO.P,U1,24,PC2*%
%TO.N,/KC2*%
X68580000Y-85090000D03*
%TO.P,U1,25,PC3*%
%TO.N,/KC3*%
X71120000Y-85090000D03*
%TO.P,U1,26,PC4*%
%TO.N,/KC4*%
X73660000Y-85090000D03*
%TO.P,U1,27,PC5*%
%TO.N,/KC5*%
X76200000Y-85090000D03*
%TO.P,U1,28,PC6*%
%TO.N,/KC6*%
X78740000Y-85090000D03*
%TO.P,U1,29,PC7*%
%TO.N,/KC7*%
X81280000Y-85090000D03*
%TO.P,U1,30,AVCC*%
%TO.N,VCC*%
X83820000Y-85090000D03*
%TO.P,U1,31,GND*%
%TO.N,GND*%
X86360000Y-85090000D03*
%TO.P,U1,32,AREF*%
%TO.N,Net-(C3-Pad1)*%
X88900000Y-85090000D03*
%TO.P,U1,33,PA7*%
%TO.N,/PA7*%
X91440000Y-85090000D03*
%TO.P,U1,34,PA6*%
%TO.N,/PA6*%
X93980000Y-85090000D03*
%TO.P,U1,35,PA5*%
%TO.N,/KR5*%
X96520000Y-85090000D03*
%TO.P,U1,36,PA4*%
%TO.N,/KR4*%
X99060000Y-85090000D03*
%TO.P,U1,37,PA3*%
%TO.N,/KR3*%
X101600000Y-85090000D03*
%TO.P,U1,38,PA2*%
%TO.N,/KR2*%
X104140000Y-85090000D03*
%TO.P,U1,39,PA1*%
%TO.N,/KR1*%
X106680000Y-85090000D03*
%TO.P,U1,40,PA0*%
%TO.N,/KR0*%
X109220000Y-85090000D03*
%TD*%
D10*
%TO.P,K44,1,1*%
%TO.N,/KR1*%
X215900000Y-158750000D03*
%TO.P,K44,2,2*%
%TO.N,Net-(D44-Pad2)*%
X209550000Y-161290000D03*
%TD*%
%TO.P,K33,1,1*%
%TO.N,/KR2*%
X177800000Y-101600000D03*
%TO.P,K33,2,2*%
%TO.N,Net-(D33-Pad2)*%
X171450000Y-104140000D03*
%TD*%
%TO.P,K2,1,1*%
%TO.N,/KR1*%
X25400000Y-120650000D03*
%TO.P,K2,2,2*%
%TO.N,Net-(D2-Pad2)*%
X19050000Y-123190000D03*
%TD*%
D13*
%TO.P,C3,1*%
%TO.N,Net-(C3-Pad1)*%
X46990000Y-88900000D03*
D14*
%TO.P,C3,2*%
%TO.N,GND*%
X48990000Y-88900000D03*
%TD*%
D10*
%TO.P,K36,1,1*%
%TO.N,/KR5*%
X177800000Y-158750000D03*
%TO.P,K36,2,2*%
%TO.N,Net-(D36-Pad2)*%
X171450000Y-161290000D03*
%TD*%
%TO.P,K8,1,1*%
%TO.N,/KR1*%
X44450000Y-158750000D03*
%TO.P,K8,2,2*%
%TO.N,Net-(D8-Pad2)*%
X38100000Y-161290000D03*
%TD*%
D16*
%TO.P,D50,1,K*%
%TO.N,Net-(D50-Pad1)*%
X36830000Y-80010000D03*
D17*
%TO.P,D50,2,A*%
%TO.N,/PA7*%
X39370000Y-80010000D03*
%TD*%
D10*
%TO.P,K12,1,1*%
%TO.N,/KR5*%
X63500000Y-158750000D03*
%TO.P,K12,2,2*%
%TO.N,Net-(D12-Pad2)*%
X57150000Y-161290000D03*
%TD*%
%TO.P,K5,1,1*%
%TO.N,/KR4*%
X44450000Y-101600000D03*
%TO.P,K5,2,2*%
%TO.N,Net-(D5-Pad2)*%
X38100000Y-104140000D03*
%TD*%
%TO.P,K14,1,1*%
%TO.N,/KR1*%
X82550000Y-120650000D03*
%TO.P,K14,2,2*%
%TO.N,Net-(D14-Pad2)*%
X76200000Y-123190000D03*
%TD*%
%TO.P,K38,1,1*%
%TO.N,/KR1*%
X196850000Y-120650000D03*
%TO.P,K38,2,2*%
%TO.N,Net-(D38-Pad2)*%
X190500000Y-123190000D03*
%TD*%
D13*
%TO.P,C4,1*%
%TO.N,VCC*%
X68580000Y-53340000D03*
D14*
%TO.P,C4,2*%
%TO.N,GND*%
X68580000Y-51340000D03*
%TD*%
D10*
%TO.P,K23,1,1*%
%TO.N,/KR4*%
X120650000Y-139700000D03*
%TO.P,K23,2,2*%
%TO.N,Net-(D23-Pad2)*%
X114300000Y-142240000D03*
%TD*%
%TO.P,K16,1,1*%
%TO.N,/KR3*%
X82550000Y-158750000D03*
%TO.P,K16,2,2*%
%TO.N,Net-(D16-Pad2)*%
X76200000Y-161290000D03*
%TD*%
D18*
%TO.P,R1,1*%
%TO.N,GND*%
X28575000Y-72390000D03*
D19*
%TO.P,R1,2*%
%TO.N,Net-(D49-Pad1)*%
X28575000Y-64770000D03*
%TD*%
D10*
%TO.P,K10,1,1*%
%TO.N,/KR3*%
X63500000Y-120650000D03*
%TO.P,K10,2,2*%
%TO.N,Net-(D10-Pad2)*%
X57150000Y-123190000D03*
%TD*%
%TO.P,K43,1,1*%
%TO.N,/KR0*%
X215900000Y-139700000D03*
%TO.P,K43,2,2*%
%TO.N,Net-(D43-Pad2)*%
X209550000Y-142240000D03*
%TD*%
%TO.P,K49,1,1*%
%TO.N,Net-(K49-Pad1)*%
X139700000Y-69850000D03*
%TO.P,K49,2,2*%
%TO.N,GND*%
X133350000Y-72390000D03*
%TD*%
%TO.P,K48,1,1*%
%TO.N,/KR5*%
X234950000Y-139700000D03*
%TO.P,K48,2,2*%
%TO.N,Net-(D48-Pad2)*%
X228600000Y-142240000D03*
%TD*%
%TO.P,K13,1,1*%
%TO.N,/KR0*%
X82550000Y-101600000D03*
%TO.P,K13,2,2*%
%TO.N,Net-(D13-Pad2)*%
X76200000Y-104140000D03*
%TD*%
D11*
%TO.P,SW1,1,A*%
%TO.N,/~RESET*%
X88740000Y-53117500D03*
D12*
%TO.P,SW1,2,B*%
%TO.N,Net-(SW1-Pad2)*%
X91280000Y-53117500D03*
%TO.P,SW1,3,C*%
%TO.N,Net-(K49-Pad1)*%
X93820000Y-53117500D03*
%TD*%
D10*
%TO.P,K29,1,1*%
%TO.N,/KR4*%
X158750000Y-101600000D03*
%TO.P,K29,2,2*%
%TO.N,Net-(D29-Pad2)*%
X152400000Y-104140000D03*
%TD*%
%TO.P,K15,1,1*%
%TO.N,/KR2*%
X82550000Y-139700000D03*
%TO.P,K15,2,2*%
%TO.N,Net-(D15-Pad2)*%
X76200000Y-142240000D03*
%TD*%
%TO.P,K7,1,1*%
%TO.N,/KR0*%
X44577000Y-139700000D03*
%TO.P,K7,2,2*%
%TO.N,Net-(D7-Pad2)*%
X38227000Y-142240000D03*
%TD*%
%TO.P,K47,1,1*%
%TO.N,/KR4*%
X234950000Y-120650000D03*
%TO.P,K47,2,2*%
%TO.N,Net-(D47-Pad2)*%
X228600000Y-123190000D03*
%TD*%
%TO.P,K28,1,1*%
%TO.N,/KR3*%
X139700000Y-158750000D03*
%TO.P,K28,2,2*%
%TO.N,Net-(D28-Pad2)*%
X133350000Y-161290000D03*
%TD*%
%TO.P,K46,1,1*%
%TO.N,/KR3*%
X234950000Y-101600000D03*
%TO.P,K46,2,2*%
%TO.N,Net-(D46-Pad2)*%
X228600000Y-104140000D03*
%TD*%
%TO.P,K9,1,1*%
%TO.N,/KR2*%
X63500000Y-101600000D03*
%TO.P,K9,2,2*%
%TO.N,Net-(D9-Pad2)*%
X57150000Y-104140000D03*
%TD*%
D13*
%TO.P,C6,1*%
%TO.N,VCC*%
X22800000Y-83640000D03*
D14*
%TO.P,C6,2*%
%TO.N,GND*%
X20800000Y-83640000D03*
%TD*%
D10*
%TO.P,K20,1,1*%
%TO.N,/KR1*%
X101600000Y-158750000D03*
%TO.P,K20,2,2*%
%TO.N,Net-(D20-Pad2)*%
X95250000Y-161290000D03*
%TD*%
%TO.P,K45,1,1*%
%TO.N,/KR2*%
X234950000Y-158750000D03*
%TO.P,K45,2,2*%
%TO.N,Net-(D45-Pad2)*%
X228600000Y-161290000D03*
%TD*%
D18*
%TO.P,R2,1*%
%TO.N,GND*%
X28575000Y-85725000D03*
D19*
%TO.P,R2,2*%
%TO.N,Net-(D50-Pad1)*%
X28575000Y-78105000D03*
%TD*%
D10*
%TO.P,K17,1,1*%
%TO.N,/KR4*%
X101600000Y-101600000D03*
%TO.P,K17,2,2*%
%TO.N,Net-(D17-Pad2)*%
X95250000Y-104140000D03*
%TD*%
%TO.P,K34,1,1*%
%TO.N,/KR3*%
X177800000Y-120650000D03*
%TO.P,K34,2,2*%
%TO.N,Net-(D34-Pad2)*%
X171450000Y-123190000D03*
%TD*%
%TO.P,K32,1,1*%
%TO.N,/KR1*%
X158750000Y-158750000D03*
%TO.P,K32,2,2*%
%TO.N,Net-(D32-Pad2)*%
X152400000Y-161290000D03*
%TD*%
%TO.P,K40,1,1*%
%TO.N,/KR3*%
X196850000Y-158750000D03*
%TO.P,K40,2,2*%
%TO.N,Net-(D40-Pad2)*%
X190500000Y-161290000D03*
%TD*%
%TO.P,K31,1,1*%
%TO.N,/KR0*%
X158750000Y-139700000D03*
%TO.P,K31,2,2*%
%TO.N,Net-(D31-Pad2)*%
X152400000Y-142240000D03*
%TD*%
%TO.P,K18,1,1*%
%TO.N,/KR5*%
X101600000Y-120650000D03*
%TO.P,K18,2,2*%
%TO.N,Net-(D18-Pad2)*%
X95250000Y-123190000D03*
%TD*%
%TO.P,K41,1,1*%
%TO.N,/KR4*%
X215900000Y-101600000D03*
%TO.P,K41,2,2*%
%TO.N,Net-(D41-Pad2)*%
X209550000Y-104140000D03*
%TD*%
%TO.P,K39,1,1*%
%TO.N,/KR2*%
X196850000Y-139700000D03*
%TO.P,K39,2,2*%
%TO.N,Net-(D39-Pad2)*%
X190500000Y-142240000D03*
%TD*%
%TO.P,K21,1,1*%
%TO.N,/KR2*%
X120650000Y-101600000D03*
%TO.P,K21,2,2*%
%TO.N,Net-(D21-Pad2)*%
X114300000Y-104140000D03*
%TD*%
D11*
%TO.P,J2,1,Pin_1*%
%TO.N,/MISO*%
X43060000Y-56980000D03*
D12*
%TO.P,J2,2,Pin_2*%
%TO.N,VCC*%
X40520000Y-56980000D03*
%TO.P,J2,3,Pin_3*%
%TO.N,/PB7*%
X43060000Y-54440000D03*
%TO.P,J2,4,Pin_4*%
%TO.N,/MOSI*%
X40520000Y-54440000D03*
%TO.P,J2,5,Pin_5*%
%TO.N,/~RESET*%
X43060000Y-51900000D03*
%TO.P,J2,6,Pin_6*%
%TO.N,GND*%
X40520000Y-51900000D03*
%TD*%
D18*
%TO.P,R3,1*%
%TO.N,VCC*%
X143510000Y-55880000D03*
D19*
%TO.P,R3,2*%
%TO.N,Net-(K49-Pad1)*%
X143510000Y-63500000D03*
%TD*%
D20*
%TO.P,J5,1*%
%TO.N,VCC*%
X23400000Y-73022500D03*
D21*
%TO.P,J5,2*%
%TO.N,unconnected-(J5-Pad2)*%
X17400000Y-73022500D03*
D22*
%TO.P,J5,3*%
%TO.N,GND*%
X20400000Y-77722500D03*
%TD*%
D14*
%TO.P,C2,1*%
%TO.N,GND*%
X83490000Y-57130000D03*
%TO.P,C2,2*%
%TO.N,Net-(C2-Pad2)*%
X83490000Y-59630000D03*
%TD*%
D10*
%TO.P,K37,1,1*%
%TO.N,/KR0*%
X196850000Y-101600000D03*
%TO.P,K37,2,2*%
%TO.N,Net-(D37-Pad2)*%
X190500000Y-104140000D03*
%TD*%
D16*
%TO.P,D49,1,K*%
%TO.N,Net-(D49-Pad1)*%
X36830000Y-72390000D03*
D17*
%TO.P,D49,2,A*%
%TO.N,/PA6*%
X39370000Y-72390000D03*
%TD*%
D11*
%TO.P,J1,1,Pin_1*%
%TO.N,/PD0*%
X67310000Y-64770000D03*
D12*
%TO.P,J1,2,Pin_2*%
%TO.N,/PD1*%
X64770000Y-64770000D03*
%TO.P,J1,3,Pin_3*%
%TO.N,/PD2*%
X62230000Y-64770000D03*
%TO.P,J1,4,Pin_4*%
%TO.N,/PD3*%
X59690000Y-64770000D03*
%TO.P,J1,5,Pin_5*%
%TO.N,/PD4*%
X57150000Y-64770000D03*
%TO.P,J1,6,Pin_6*%
%TO.N,/PD5*%
X54610000Y-64770000D03*
%TO.P,J1,7,Pin_7*%
%TO.N,/PD6*%
X52070000Y-64770000D03*
%TO.P,J1,8,Pin_8*%
%TO.N,/PD7*%
X49530000Y-64770000D03*
%TD*%
D10*
%TO.P,K3,1,1*%
%TO.N,/KR2*%
X25400000Y-139700000D03*
%TO.P,K3,2,2*%
%TO.N,Net-(D3-Pad2)*%
X19050000Y-142240000D03*
%TD*%
%TO.P,K24,1,1*%
%TO.N,/KR5*%
X120650000Y-158750000D03*
%TO.P,K24,2,2*%
%TO.N,Net-(D24-Pad2)*%
X114300000Y-161290000D03*
%TD*%
D14*
%TO.P,C1,1*%
%TO.N,GND*%
X78740000Y-57150000D03*
%TO.P,C1,2*%
%TO.N,Net-(C1-Pad2)*%
X78740000Y-59650000D03*
%TD*%
D10*
%TO.P,K1,1,1*%
%TO.N,/KR0*%
X25400000Y-101600000D03*
%TO.P,K1,2,2*%
%TO.N,Net-(D1-Pad2)*%
X19050000Y-104140000D03*
%TD*%
%TO.P,K42,1,1*%
%TO.N,/KR5*%
X215900000Y-120650000D03*
%TO.P,K42,2,2*%
%TO.N,Net-(D42-Pad2)*%
X209550000Y-123190000D03*
%TD*%
%TO.P,K19,1,1*%
%TO.N,/KR0*%
X101600000Y-139700000D03*
%TO.P,K19,2,2*%
%TO.N,Net-(D19-Pad2)*%
X95250000Y-142240000D03*
%TD*%
%TO.P,K35,1,1*%
%TO.N,/KR4*%
X177800000Y-139700000D03*
%TO.P,K35,2,2*%
%TO.N,Net-(D35-Pad2)*%
X171450000Y-142240000D03*
%TD*%
%TO.P,K11,1,1*%
%TO.N,/KR4*%
X63500000Y-139700000D03*
%TO.P,K11,2,2*%
%TO.N,Net-(D11-Pad2)*%
X57150000Y-142240000D03*
%TD*%
%TO.P,K22,1,1*%
%TO.N,/KR3*%
X120650000Y-120650000D03*
%TO.P,K22,2,2*%
%TO.N,Net-(D22-Pad2)*%
X114300000Y-123190000D03*
%TD*%
%TO.P,K4,1,1*%
%TO.N,/KR3*%
X25400000Y-158750000D03*
%TO.P,K4,2,2*%
%TO.N,Net-(D4-Pad2)*%
X19050000Y-161290000D03*
%TD*%
D23*
%TO.P,Y1,1,1*%
%TO.N,Net-(C2-Pad2)*%
X83545000Y-63655000D03*
%TO.P,Y1,2,2*%
%TO.N,Net-(C1-Pad2)*%
X78665000Y-63655000D03*
%TD*%
D10*
%TO.P,K30,1,1*%
%TO.N,/KR5*%
X158750000Y-120650000D03*
%TO.P,K30,2,2*%
%TO.N,Net-(D30-Pad2)*%
X152400000Y-123190000D03*
%TD*%
D24*
%TO.P,D45,1,K*%
%TO.N,/KC7*%
X236220000Y-154305000D03*
D25*
%TO.P,D45,2,A*%
%TO.N,Net-(D45-Pad2)*%
X228600000Y-154305000D03*
%TD*%
D24*
%TO.P,D17,1,K*%
%TO.N,/KC2*%
X102870000Y-97155000D03*
D25*
%TO.P,D17,2,A*%
%TO.N,Net-(D17-Pad2)*%
X95250000Y-97155000D03*
%TD*%
D24*
%TO.P,D25,1,K*%
%TO.N,/KC4*%
X140970000Y-97155000D03*
D25*
%TO.P,D25,2,A*%
%TO.N,Net-(D25-Pad2)*%
X133350000Y-97155000D03*
%TD*%
D24*
%TO.P,D23,1,K*%
%TO.N,/KC3*%
X121920000Y-135255000D03*
D25*
%TO.P,D23,2,A*%
%TO.N,Net-(D23-Pad2)*%
X114300000Y-135255000D03*
%TD*%
D24*
%TO.P,D7,1,K*%
%TO.N,/KC1*%
X45720000Y-135255000D03*
D25*
%TO.P,D7,2,A*%
%TO.N,Net-(D7-Pad2)*%
X38100000Y-135255000D03*
%TD*%
D24*
%TO.P,D37,1,K*%
%TO.N,/KC6*%
X198120000Y-97155000D03*
D25*
%TO.P,D37,2,A*%
%TO.N,Net-(D37-Pad2)*%
X190500000Y-97155000D03*
%TD*%
D24*
%TO.P,D41,1,K*%
%TO.N,/KC6*%
X217170000Y-97155000D03*
D25*
%TO.P,D41,2,A*%
%TO.N,Net-(D41-Pad2)*%
X209550000Y-97155000D03*
%TD*%
D24*
%TO.P,D28,1,K*%
%TO.N,/KC4*%
X140970000Y-154305000D03*
D25*
%TO.P,D28,2,A*%
%TO.N,Net-(D28-Pad2)*%
X133350000Y-154305000D03*
%TD*%
D24*
%TO.P,D11,1,K*%
%TO.N,/KC1*%
X64770000Y-135255000D03*
D25*
%TO.P,D11,2,A*%
%TO.N,Net-(D11-Pad2)*%
X57150000Y-135255000D03*
%TD*%
D24*
%TO.P,D43,1,K*%
%TO.N,/KC7*%
X217170000Y-135128000D03*
D25*
%TO.P,D43,2,A*%
%TO.N,Net-(D43-Pad2)*%
X209550000Y-135128000D03*
%TD*%
D24*
%TO.P,D21,1,K*%
%TO.N,/KC3*%
X121920000Y-97155000D03*
D25*
%TO.P,D21,2,A*%
%TO.N,Net-(D21-Pad2)*%
X114300000Y-97155000D03*
%TD*%
D24*
%TO.P,D27,1,K*%
%TO.N,/KC4*%
X140970000Y-135255000D03*
D25*
%TO.P,D27,2,A*%
%TO.N,Net-(D27-Pad2)*%
X133350000Y-135255000D03*
%TD*%
D24*
%TO.P,D35,1,K*%
%TO.N,/KC5*%
X179070000Y-135255000D03*
D25*
%TO.P,D35,2,A*%
%TO.N,Net-(D35-Pad2)*%
X171450000Y-135255000D03*
%TD*%
D24*
%TO.P,D16,1,K*%
%TO.N,/KC2*%
X83820000Y-154305000D03*
D25*
%TO.P,D16,2,A*%
%TO.N,Net-(D16-Pad2)*%
X76200000Y-154305000D03*
%TD*%
D24*
%TO.P,D19,1,K*%
%TO.N,/KC3*%
X102870000Y-135255000D03*
D25*
%TO.P,D19,2,A*%
%TO.N,Net-(D19-Pad2)*%
X95250000Y-135255000D03*
%TD*%
D24*
%TO.P,D42,1,K*%
%TO.N,/KC6*%
X217170000Y-116205000D03*
D25*
%TO.P,D42,2,A*%
%TO.N,Net-(D42-Pad2)*%
X209550000Y-116205000D03*
%TD*%
D24*
%TO.P,D31,1,K*%
%TO.N,/KC5*%
X160020000Y-135255000D03*
D25*
%TO.P,D31,2,A*%
%TO.N,Net-(D31-Pad2)*%
X152400000Y-135255000D03*
%TD*%
D24*
%TO.P,D38,1,K*%
%TO.N,/KC6*%
X198120000Y-116205000D03*
D25*
%TO.P,D38,2,A*%
%TO.N,Net-(D38-Pad2)*%
X190500000Y-116205000D03*
%TD*%
D24*
%TO.P,D15,1,K*%
%TO.N,/KC2*%
X83820000Y-135255000D03*
D25*
%TO.P,D15,2,A*%
%TO.N,Net-(D15-Pad2)*%
X76200000Y-135255000D03*
%TD*%
D24*
%TO.P,D34,1,K*%
%TO.N,/KC5*%
X179070000Y-116205000D03*
D25*
%TO.P,D34,2,A*%
%TO.N,Net-(D34-Pad2)*%
X171450000Y-116205000D03*
%TD*%
D24*
%TO.P,D10,1,K*%
%TO.N,/KC1*%
X64770000Y-116205000D03*
D25*
%TO.P,D10,2,A*%
%TO.N,Net-(D10-Pad2)*%
X57150000Y-116205000D03*
%TD*%
D24*
%TO.P,D40,1,K*%
%TO.N,/KC6*%
X198120000Y-154305000D03*
D25*
%TO.P,D40,2,A*%
%TO.N,Net-(D40-Pad2)*%
X190500000Y-154305000D03*
%TD*%
D24*
%TO.P,D13,1,K*%
%TO.N,/KC2*%
X83820000Y-97155000D03*
D25*
%TO.P,D13,2,A*%
%TO.N,Net-(D13-Pad2)*%
X76200000Y-97155000D03*
%TD*%
D24*
%TO.P,D29,1,K*%
%TO.N,/KC4*%
X160020000Y-97155000D03*
D25*
%TO.P,D29,2,A*%
%TO.N,Net-(D29-Pad2)*%
X152400000Y-97155000D03*
%TD*%
D24*
%TO.P,D6,1,K*%
%TO.N,/KC0*%
X45720000Y-116205000D03*
D25*
%TO.P,D6,2,A*%
%TO.N,Net-(D6-Pad2)*%
X38100000Y-116205000D03*
%TD*%
D24*
%TO.P,D5,1,K*%
%TO.N,/KC0*%
X45720000Y-97155000D03*
D25*
%TO.P,D5,2,A*%
%TO.N,Net-(D5-Pad2)*%
X38100000Y-97155000D03*
%TD*%
D24*
%TO.P,D12,1,K*%
%TO.N,/KC1*%
X64770000Y-154305000D03*
D25*
%TO.P,D12,2,A*%
%TO.N,Net-(D12-Pad2)*%
X57150000Y-154305000D03*
%TD*%
D24*
%TO.P,D32,1,K*%
%TO.N,/KC5*%
X160020000Y-154305000D03*
D25*
%TO.P,D32,2,A*%
%TO.N,Net-(D32-Pad2)*%
X152400000Y-154305000D03*
%TD*%
D24*
%TO.P,D44,1,K*%
%TO.N,/KC7*%
X217170000Y-154305000D03*
D25*
%TO.P,D44,2,A*%
%TO.N,Net-(D44-Pad2)*%
X209550000Y-154305000D03*
%TD*%
D24*
%TO.P,D8,1,K*%
%TO.N,/KC1*%
X45720000Y-154305000D03*
D25*
%TO.P,D8,2,A*%
%TO.N,Net-(D8-Pad2)*%
X38100000Y-154305000D03*
%TD*%
D24*
%TO.P,D9,1,K*%
%TO.N,/KC1*%
X64770000Y-97155000D03*
D25*
%TO.P,D9,2,A*%
%TO.N,Net-(D9-Pad2)*%
X57150000Y-97155000D03*
%TD*%
D24*
%TO.P,D14,1,K*%
%TO.N,/KC2*%
X83820000Y-116205000D03*
D25*
%TO.P,D14,2,A*%
%TO.N,Net-(D14-Pad2)*%
X76200000Y-116205000D03*
%TD*%
D24*
%TO.P,D20,1,K*%
%TO.N,/KC3*%
X102870000Y-154305000D03*
D25*
%TO.P,D20,2,A*%
%TO.N,Net-(D20-Pad2)*%
X95250000Y-154305000D03*
%TD*%
D24*
%TO.P,D46,1,K*%
%TO.N,/KC7*%
X236220000Y-97155000D03*
D25*
%TO.P,D46,2,A*%
%TO.N,Net-(D46-Pad2)*%
X228600000Y-97155000D03*
%TD*%
D24*
%TO.P,D18,1,K*%
%TO.N,/KC2*%
X102870000Y-116205000D03*
D25*
%TO.P,D18,2,A*%
%TO.N,Net-(D18-Pad2)*%
X95250000Y-116205000D03*
%TD*%
D24*
%TO.P,D47,1,K*%
%TO.N,/KC7*%
X236220000Y-116205000D03*
D25*
%TO.P,D47,2,A*%
%TO.N,Net-(D47-Pad2)*%
X228600000Y-116205000D03*
%TD*%
D24*
%TO.P,D24,1,K*%
%TO.N,/KC3*%
X121920000Y-154305000D03*
D25*
%TO.P,D24,2,A*%
%TO.N,Net-(D24-Pad2)*%
X114300000Y-154305000D03*
%TD*%
D24*
%TO.P,D22,1,K*%
%TO.N,/KC3*%
X121920000Y-116205000D03*
D25*
%TO.P,D22,2,A*%
%TO.N,Net-(D22-Pad2)*%
X114300000Y-116205000D03*
%TD*%
D24*
%TO.P,D4,1,K*%
%TO.N,/KC0*%
X26670000Y-154305000D03*
D25*
%TO.P,D4,2,A*%
%TO.N,Net-(D4-Pad2)*%
X19050000Y-154305000D03*
%TD*%
D24*
%TO.P,D3,1,K*%
%TO.N,/KC0*%
X26670000Y-135255000D03*
D25*
%TO.P,D3,2,A*%
%TO.N,Net-(D3-Pad2)*%
X19050000Y-135255000D03*
%TD*%
D24*
%TO.P,D1,1,K*%
%TO.N,/KC0*%
X26670000Y-97155000D03*
D25*
%TO.P,D1,2,A*%
%TO.N,Net-(D1-Pad2)*%
X19050000Y-97155000D03*
%TD*%
D24*
%TO.P,D33,1,K*%
%TO.N,/KC5*%
X179070000Y-97155000D03*
D25*
%TO.P,D33,2,A*%
%TO.N,Net-(D33-Pad2)*%
X171450000Y-97155000D03*
%TD*%
D24*
%TO.P,D2,1,K*%
%TO.N,/KC0*%
X26670000Y-116205000D03*
D25*
%TO.P,D2,2,A*%
%TO.N,Net-(D2-Pad2)*%
X19050000Y-116205000D03*
%TD*%
D24*
%TO.P,D39,1,K*%
%TO.N,/KC6*%
X198120000Y-135255000D03*
D25*
%TO.P,D39,2,A*%
%TO.N,Net-(D39-Pad2)*%
X190500000Y-135255000D03*
%TD*%
D24*
%TO.P,D26,1,K*%
%TO.N,/KC4*%
X140970000Y-116205000D03*
D25*
%TO.P,D26,2,A*%
%TO.N,Net-(D26-Pad2)*%
X133350000Y-116205000D03*
%TD*%
D24*
%TO.P,D48,1,K*%
%TO.N,/KC7*%
X236220000Y-135255000D03*
D25*
%TO.P,D48,2,A*%
%TO.N,Net-(D48-Pad2)*%
X228600000Y-135255000D03*
%TD*%
D24*
%TO.P,D36,1,K*%
%TO.N,/KC5*%
X179070000Y-154305000D03*
D25*
%TO.P,D36,2,A*%
%TO.N,Net-(D36-Pad2)*%
X171450000Y-154305000D03*
%TD*%
D24*
%TO.P,D30,1,K*%
%TO.N,/KC4*%
X160020000Y-116205000D03*
D25*
%TO.P,D30,2,A*%
%TO.N,Net-(D30-Pad2)*%
X152400000Y-116205000D03*
%TD*%
D26*
%TO.N,/KC0*%
X26947700Y-137058000D02*
X26947700Y-140942000D01*
X45720000Y-116205000D02*
X45720000Y-114680000D01*
X52982300Y-97155000D02*
X63500000Y-86637300D01*
X45978400Y-104589000D02*
X45978400Y-98938500D01*
X26612900Y-141277000D02*
X26612900Y-152723000D01*
X26670000Y-152780000D02*
X26670000Y-154305000D01*
X63500000Y-86637300D02*
X63500000Y-85090000D01*
X45720000Y-97155000D02*
X52982300Y-97155000D01*
X26947700Y-140942000D02*
X26612900Y-141277000D01*
X26612900Y-152723000D02*
X26670000Y-152780000D01*
X45650400Y-104917000D02*
X45978400Y-104589000D01*
X45720000Y-98680100D02*
X45720000Y-97155000D01*
X45650400Y-114610000D02*
X45650400Y-104917000D01*
X26670000Y-136780000D02*
X26947700Y-137058000D01*
X26670000Y-135255000D02*
X26670000Y-136780000D01*
X45978400Y-98938500D02*
X45720000Y-98680100D01*
X45720000Y-114680000D02*
X45650400Y-114610000D01*
%TO.N,Net-(D1-Pad2)*%
X19050000Y-97155000D02*
X19050000Y-104140000D01*
%TO.N,Net-(D2-Pad2)*%
X19050000Y-116205000D02*
X19050000Y-123190000D01*
%TO.N,Net-(D3-Pad2)*%
X19050000Y-135255000D02*
X19050000Y-142240000D01*
%TO.N,Net-(D4-Pad2)*%
X19050000Y-154305000D02*
X19050000Y-161290000D01*
%TO.N,Net-(D5-Pad2)*%
X38100000Y-97155000D02*
X38100000Y-104140000D01*
%TO.N,Net-(D6-Pad2)*%
X38100000Y-116205000D02*
X38100000Y-123190000D01*
%TO.N,/KC1*%
X64770000Y-114680000D02*
X64770000Y-115442000D01*
X64770000Y-97155000D02*
X64770000Y-96392400D01*
X64770000Y-96392400D02*
X64770000Y-95629900D01*
X66040000Y-94359900D02*
X66040000Y-85090000D01*
X46108300Y-137168000D02*
X46108300Y-142355000D01*
X65034800Y-142574000D02*
X65034800Y-137045000D01*
X64050200Y-124035000D02*
X61954800Y-121939000D01*
X45720000Y-135255000D02*
X45720000Y-136780000D01*
X61954800Y-118258000D02*
X64770000Y-115442000D01*
X46108300Y-142355000D02*
X45720000Y-142744000D01*
X64770000Y-154305000D02*
X64770000Y-152780000D01*
X61954800Y-121939000D02*
X61954800Y-118258000D01*
X64770000Y-95629900D02*
X66040000Y-94359900D01*
X64770000Y-116205000D02*
X64770000Y-115442000D01*
X64770000Y-133730000D02*
X64050200Y-133010000D01*
X61954800Y-99207600D02*
X61954800Y-102889000D01*
X64050200Y-133010000D02*
X64050200Y-124035000D01*
X64714300Y-152724000D02*
X64714300Y-142894000D01*
X64313200Y-105248000D02*
X64313200Y-114223000D01*
X45720000Y-142744000D02*
X45720000Y-154305000D01*
X64770000Y-135255000D02*
X64770000Y-133730000D01*
X45720000Y-136780000D02*
X46108300Y-137168000D01*
X64770000Y-152780000D02*
X64714300Y-152724000D01*
X64770000Y-96392400D02*
X61954800Y-99207600D01*
X64313200Y-114223000D02*
X64770000Y-114680000D01*
X64770000Y-136780000D02*
X64770000Y-135255000D01*
X61954800Y-102889000D02*
X64313200Y-105248000D01*
X64714300Y-142894000D02*
X65034800Y-142574000D01*
X65034800Y-137045000D02*
X64770000Y-136780000D01*
%TO.N,Net-(D7-Pad2)*%
X38100000Y-135255000D02*
X38100000Y-136780000D01*
X38227000Y-136907000D02*
X38227000Y-142240000D01*
X38100000Y-136780000D02*
X38227000Y-136907000D01*
%TO.N,Net-(D8-Pad2)*%
X38100000Y-154305000D02*
X38100000Y-161290000D01*
%TO.N,Net-(D9-Pad2)*%
X57150000Y-97155000D02*
X57150000Y-104140000D01*
%TO.N,Net-(D10-Pad2)*%
X57150000Y-116205000D02*
X57150000Y-123190000D01*
%TO.N,Net-(D11-Pad2)*%
X57150000Y-135255000D02*
X57150000Y-142240000D01*
%TO.N,Net-(D12-Pad2)*%
X57150000Y-154305000D02*
X57150000Y-161290000D01*
%TO.N,Net-(D13-Pad2)*%
X76200000Y-97155000D02*
X76200000Y-104140000D01*
%TO.N,Net-(D14-Pad2)*%
X76200000Y-123190000D02*
X76200000Y-116205000D01*
%TO.N,Net-(D15-Pad2)*%
X76200000Y-135255000D02*
X76200000Y-142240000D01*
%TO.N,Net-(D16-Pad2)*%
X76200000Y-154305000D02*
X76200000Y-161290000D01*
%TO.N,Net-(D17-Pad2)*%
X95250000Y-97155000D02*
X95250000Y-104140000D01*
%TO.N,Net-(D18-Pad2)*%
X95250000Y-116205000D02*
X95250000Y-123190000D01*
%TO.N,/KC3*%
X121863000Y-133673000D02*
X121863000Y-122227000D01*
X122198000Y-121892000D02*
X122198000Y-118008000D01*
X102814000Y-152724000D02*
X102870000Y-152780000D01*
X102870000Y-136780000D02*
X103160000Y-137070000D01*
X103160000Y-140612000D02*
X102814000Y-140958000D01*
X121864000Y-152724000D02*
X121920000Y-152780000D01*
X122198000Y-118008000D02*
X121920000Y-117730000D01*
X121920000Y-116205000D02*
X121920000Y-114680000D01*
X121920000Y-136780000D02*
X122217000Y-137077000D01*
X102870000Y-135255000D02*
X102870000Y-136780000D01*
X122179000Y-98938900D02*
X121920000Y-98680100D01*
X121863000Y-114623000D02*
X121863000Y-103955000D01*
X121920000Y-117730000D02*
X121920000Y-116205000D01*
X121864000Y-142672000D02*
X121864000Y-152724000D01*
X102870000Y-152780000D02*
X102870000Y-154305000D01*
X121920000Y-152780000D02*
X121920000Y-154305000D01*
X121920000Y-98680100D02*
X121920000Y-97155000D01*
X121863000Y-122227000D02*
X122198000Y-121892000D01*
X102814000Y-140958000D02*
X102814000Y-152724000D01*
X103160000Y-137070000D02*
X103160000Y-140612000D01*
X122217000Y-137077000D02*
X122217000Y-142319000D01*
X121920000Y-135255000D02*
X121920000Y-133730000D01*
X122179000Y-103639000D02*
X122179000Y-98938900D01*
X121920000Y-114680000D02*
X121863000Y-114623000D01*
X122217000Y-142319000D02*
X121864000Y-142672000D01*
X121920000Y-135255000D02*
X121920000Y-136780000D01*
X121920000Y-133730000D02*
X121863000Y-133673000D01*
X121863000Y-103955000D02*
X122179000Y-103639000D01*
%TO.N,Net-(D19-Pad2)*%
X95250000Y-135255000D02*
X95250000Y-142240000D01*
%TO.N,Net-(D20-Pad2)*%
X95250000Y-154305000D02*
X95250000Y-161290000D01*
%TO.N,Net-(D21-Pad2)*%
X114300000Y-97155000D02*
X114300000Y-104140000D01*
%TO.N,Net-(D22-Pad2)*%
X114300000Y-116205000D02*
X114300000Y-123190000D01*
%TO.N,Net-(D23-Pad2)*%
X114300000Y-135255000D02*
X114300000Y-142240000D01*
%TO.N,Net-(D24-Pad2)*%
X114300000Y-154305000D02*
X114300000Y-161290000D01*
%TO.N,Net-(D25-Pad2)*%
X133350000Y-97155000D02*
X133350000Y-104140000D01*
%TO.N,Net-(D26-Pad2)*%
X133350000Y-116205000D02*
X133350000Y-123190000D01*
%TO.N,Net-(D27-Pad2)*%
X133350000Y-135255000D02*
X133350000Y-142240000D01*
%TO.N,Net-(D28-Pad2)*%
X133350000Y-154305000D02*
X133350000Y-161290000D01*
%TO.N,Net-(D29-Pad2)*%
X152400000Y-97155000D02*
X152400000Y-104140000D01*
%TO.N,Net-(D30-Pad2)*%
X152400000Y-116205000D02*
X152400000Y-123190000D01*
%TO.N,/KC5*%
X178498000Y-117730000D02*
X179070000Y-117730000D01*
X179070000Y-97155000D02*
X179070000Y-98680100D01*
X179014000Y-142672000D02*
X179367000Y-142319000D01*
X160317000Y-137077000D02*
X160317000Y-142319000D01*
X179070000Y-133730000D02*
X172802000Y-127462000D01*
X179070000Y-135255000D02*
X179070000Y-133730000D01*
X179070000Y-117730000D02*
X179070000Y-116205000D01*
X179065000Y-106164000D02*
X179065000Y-114675000D01*
X179367000Y-142319000D02*
X179367000Y-137077000D01*
X179070000Y-98680100D02*
X178498000Y-98680100D01*
X160020000Y-136780000D02*
X160317000Y-137077000D01*
X179070000Y-114680000D02*
X179070000Y-116205000D01*
X160020000Y-152780000D02*
X160020000Y-154305000D01*
X160317000Y-142319000D02*
X159964000Y-142672000D01*
X176150000Y-121410000D02*
X176150000Y-120078000D01*
X159964000Y-152724000D02*
X160020000Y-152780000D01*
X172802000Y-124758000D02*
X176150000Y-121410000D01*
X172802000Y-127462000D02*
X172802000Y-124758000D01*
X176241000Y-103340000D02*
X179065000Y-106164000D01*
X159964000Y-142672000D02*
X159964000Y-152724000D01*
X179367000Y-137077000D02*
X179070000Y-136780000D01*
X179070000Y-136780000D02*
X179070000Y-135255000D01*
X179070000Y-152780000D02*
X179014000Y-152724000D01*
X179014000Y-152724000D02*
X179014000Y-142672000D01*
X178498000Y-98680100D02*
X176241000Y-100937000D01*
X176241000Y-100937000D02*
X176241000Y-103340000D01*
X176150000Y-120078000D02*
X178498000Y-117730000D01*
X179065000Y-114675000D02*
X179070000Y-114680000D01*
X179070000Y-154305000D02*
X179070000Y-152780000D01*
X160020000Y-135255000D02*
X160020000Y-136780000D01*
%TO.N,Net-(D31-Pad2)*%
X152400000Y-135255000D02*
X152400000Y-142240000D01*
%TO.N,Net-(D32-Pad2)*%
X152400000Y-154305000D02*
X152400000Y-161290000D01*
%TO.N,Net-(D33-Pad2)*%
X171450000Y-97155000D02*
X171450000Y-104140000D01*
%TO.N,Net-(D34-Pad2)*%
X171450000Y-116205000D02*
X171450000Y-123190000D01*
%TO.N,Net-(D35-Pad2)*%
X171450000Y-135255000D02*
X171450000Y-142240000D01*
%TO.N,Net-(D36-Pad2)*%
X171450000Y-154305000D02*
X171450000Y-161290000D01*
%TO.N,/KC6*%
X198398000Y-137058000D02*
X198120000Y-136780000D01*
X215910000Y-99939700D02*
X217170000Y-98680100D01*
X214496000Y-99939700D02*
X215910000Y-99939700D01*
X198120000Y-136780000D02*
X198120000Y-135255000D01*
X198120000Y-133730000D02*
X197739000Y-133349000D01*
X198063000Y-141277000D02*
X198398000Y-140942000D01*
X217165000Y-114675000D02*
X217165000Y-106164000D01*
X198120000Y-154305000D02*
X198120000Y-152780000D01*
X214341000Y-100094000D02*
X214496000Y-99939700D01*
X198120000Y-117730000D02*
X198120000Y-116205000D01*
X214341000Y-103340000D02*
X214341000Y-100094000D01*
X198120000Y-135255000D02*
X198120000Y-133730000D01*
X201170000Y-95629900D02*
X199645000Y-97155000D01*
X217170000Y-116205000D02*
X217170000Y-114680000D01*
X198398000Y-140942000D02*
X198398000Y-137058000D01*
X217170000Y-98680100D02*
X217170000Y-97155000D01*
X197739000Y-133349000D02*
X197739000Y-124081000D01*
X197739000Y-124081000D02*
X195311000Y-121653000D01*
X198063000Y-152723000D02*
X198063000Y-141277000D01*
X217170000Y-114680000D02*
X217165000Y-114675000D01*
X197548000Y-117730000D02*
X198120000Y-117730000D01*
X195311000Y-121653000D02*
X195311000Y-119967000D01*
X214496000Y-99939700D02*
X210186000Y-95629900D01*
X199645000Y-97155000D02*
X198120000Y-97155000D01*
X210186000Y-95629900D02*
X201170000Y-95629900D01*
X217165000Y-106164000D02*
X214341000Y-103340000D01*
X195311000Y-119967000D02*
X197548000Y-117730000D01*
X198120000Y-152780000D02*
X198063000Y-152723000D01*
%TO.N,Net-(D37-Pad2)*%
X190500000Y-97155000D02*
X190500000Y-104140000D01*
%TO.N,Net-(D38-Pad2)*%
X190500000Y-116205000D02*
X190500000Y-123190000D01*
%TO.N,Net-(D39-Pad2)*%
X190500000Y-135255000D02*
X190500000Y-142240000D01*
%TO.N,Net-(D40-Pad2)*%
X190500000Y-154305000D02*
X190500000Y-161290000D01*
%TO.N,Net-(D41-Pad2)*%
X209550000Y-97155000D02*
X209550000Y-104140000D01*
%TO.N,Net-(D42-Pad2)*%
X209550000Y-116205000D02*
X209550000Y-123190000D01*
%TO.N,/KC7*%
X217113000Y-152723000D02*
X217113000Y-141277000D01*
X217434000Y-140956000D02*
X217434000Y-136917000D01*
X217170000Y-154305000D02*
X217170000Y-152780000D01*
X217170000Y-152780000D02*
X217113000Y-152723000D01*
X217170000Y-136653000D02*
X217170000Y-135128000D01*
X236220000Y-152780000D02*
X236220000Y-154305000D01*
X236220000Y-136780000D02*
X236484000Y-137044000D01*
X236220000Y-135255000D02*
X236220000Y-136780000D01*
X236163000Y-152723000D02*
X236220000Y-152780000D01*
X217113000Y-141277000D02*
X217434000Y-140956000D01*
X236484000Y-137044000D02*
X236484000Y-141924000D01*
X217434000Y-136917000D02*
X217170000Y-136653000D01*
X236484000Y-141924000D02*
X236163000Y-142245000D01*
X236163000Y-142245000D02*
X236163000Y-152723000D01*
%TO.N,Net-(D43-Pad2)*%
X209550000Y-135128000D02*
X209550000Y-142240000D01*
%TO.N,Net-(D44-Pad2)*%
X209550000Y-154305000D02*
X209550000Y-161290000D01*
%TO.N,Net-(D45-Pad2)*%
X228600000Y-154305000D02*
X228600000Y-161290000D01*
%TO.N,Net-(D46-Pad2)*%
X228600000Y-97155000D02*
X228600000Y-104140000D01*
%TO.N,Net-(D47-Pad2)*%
X228600000Y-116205000D02*
X228600000Y-123190000D01*
%TO.N,Net-(D48-Pad2)*%
X228600000Y-135255000D02*
X228600000Y-142240000D01*
%TO.N,/PB0*%
X109220000Y-69850000D02*
X109220000Y-64770000D01*
%TO.N,/PB1*%
X106680000Y-69850000D02*
X106680000Y-64770000D01*
%TO.N,/PB2*%
X104140000Y-69850000D02*
X104140000Y-64770000D01*
%TO.N,/PB3*%
X101600000Y-69850000D02*
X101600000Y-64770000D01*
%TO.N,Net-(C1-Pad2)*%
X78740000Y-63730000D02*
X78740000Y-69850000D01*
X78665000Y-63655000D02*
X78740000Y-63730000D01*
X78665000Y-63655000D02*
X78740000Y-63580000D01*
X78740000Y-63580000D02*
X78740000Y-59650000D01*
%TO.N,/KR0*%
X139700000Y-101600000D02*
X149798000Y-111698000D01*
X95250000Y-84618200D02*
X96010400Y-83857800D01*
X123487000Y-85090000D02*
X139700000Y-101303000D01*
X205600000Y-110350000D02*
X205600000Y-127603000D01*
X139700000Y-101303000D02*
X139700000Y-101600000D01*
X109220000Y-85090000D02*
X123487000Y-85090000D01*
X158750000Y-138094000D02*
X158750000Y-139700000D01*
X88283200Y-101600000D02*
X95250000Y-94633200D01*
X25400000Y-101600000D02*
X35497500Y-111698000D01*
X88283200Y-124778000D02*
X88283200Y-101600000D01*
X196850000Y-101600000D02*
X205600000Y-110350000D01*
X215900000Y-137903000D02*
X215900000Y-139700000D01*
X95250000Y-94633200D02*
X95250000Y-84618200D01*
X205600000Y-127603000D02*
X215900000Y-137903000D01*
X88283200Y-101600000D02*
X82550000Y-101600000D01*
X96010400Y-83857800D02*
X107988000Y-83857800D01*
X149798000Y-129142000D02*
X158750000Y-138094000D01*
X101600000Y-138094000D02*
X88283200Y-124778000D01*
X101600000Y-139700000D02*
X101600000Y-138094000D01*
X35497500Y-129142000D02*
X44577000Y-138222000D01*
X44577000Y-138222000D02*
X44577000Y-139700000D01*
X107988000Y-83857800D02*
X109220000Y-85090000D01*
X35497500Y-111698000D02*
X35497500Y-129142000D01*
X149798000Y-111698000D02*
X149798000Y-129142000D01*
%TO.N,/MISO*%
X93980000Y-69850000D02*
X93980000Y-64770000D01*
%TO.N,Net-(C2-Pad2)*%
X83490000Y-63600000D02*
X83545000Y-63655000D01*
X83490000Y-59630000D02*
X83490000Y-63600000D01*
X83227900Y-71080500D02*
X84235200Y-71080500D01*
X82505100Y-70357700D02*
X83227900Y-71080500D01*
X82505100Y-69850000D02*
X82505100Y-70357700D01*
X84235200Y-71080500D02*
X85090000Y-70225700D01*
X85090000Y-70225700D02*
X85090000Y-65200000D01*
X85090000Y-65200000D02*
X83545000Y-63655000D01*
X81280000Y-69850000D02*
X82505100Y-69850000D01*
%TO.N,/~RESET*%
X44335100Y-51900000D02*
X43060000Y-51900000D01*
X86047000Y-48749400D02*
X47485700Y-48749400D01*
X47485700Y-48749400D02*
X44335100Y-51900000D01*
X88740000Y-53117500D02*
X88740000Y-51442400D01*
X88740000Y-51442400D02*
X86047000Y-48749400D01*
%TO.N,/KC2*%
X83363200Y-133273000D02*
X83820000Y-133730000D01*
X102870000Y-98680100D02*
X103167000Y-98977300D01*
X83820000Y-152780000D02*
X83769000Y-152729000D01*
X69805100Y-85618200D02*
X81341900Y-97155000D01*
X103167000Y-98977300D02*
X103167000Y-104219000D01*
X84090000Y-137050000D02*
X83820000Y-136780000D01*
X69805100Y-85090000D02*
X69805100Y-85618200D01*
X81341900Y-97155000D02*
X83820000Y-97155000D01*
X83820000Y-117730000D02*
X83248100Y-117730000D01*
X102814000Y-114624000D02*
X102870000Y-114680000D01*
X81125500Y-119853000D02*
X81125500Y-122060000D01*
X83820000Y-116205000D02*
X83820000Y-117730000D01*
X83820000Y-133730000D02*
X83820000Y-135255000D01*
X83363200Y-124298000D02*
X83363200Y-133273000D01*
X84090000Y-140950000D02*
X84090000Y-137050000D01*
X83769000Y-152729000D02*
X83769000Y-141271000D01*
X83820000Y-136780000D02*
X83820000Y-135255000D01*
X102870000Y-97155000D02*
X102870000Y-98680100D01*
X103167000Y-104219000D02*
X102814000Y-104572000D01*
X83769000Y-141271000D02*
X84090000Y-140950000D01*
X83248100Y-117730000D02*
X81125500Y-119853000D01*
X102814000Y-104572000D02*
X102814000Y-114624000D01*
X68580000Y-85090000D02*
X69805100Y-85090000D01*
X102870000Y-114680000D02*
X102870000Y-116205000D01*
X83820000Y-154305000D02*
X83820000Y-152780000D01*
X81125500Y-122060000D02*
X83363200Y-124298000D01*
%TO.N,/KC4*%
X160317000Y-104219000D02*
X159964000Y-104572000D01*
X159964000Y-114624000D02*
X160020000Y-114680000D01*
X140914000Y-142672000D02*
X140914000Y-152724000D01*
X160020000Y-97155000D02*
X160020000Y-98680100D01*
X141267000Y-142319000D02*
X140914000Y-142672000D01*
X140970000Y-136780000D02*
X141267000Y-137077000D01*
X140513000Y-124298000D02*
X138155000Y-121939000D01*
X159964000Y-104572000D02*
X159964000Y-114624000D01*
X160317000Y-98977300D02*
X160317000Y-104219000D01*
X140513000Y-133273000D02*
X140513000Y-124298000D01*
X140398000Y-117730000D02*
X140970000Y-117730000D01*
X138155000Y-119973000D02*
X140398000Y-117730000D01*
X138155000Y-121939000D02*
X138155000Y-119973000D01*
X140970000Y-133730000D02*
X140513000Y-133273000D01*
X160020000Y-98680100D02*
X160317000Y-98977300D01*
X140970000Y-135255000D02*
X140970000Y-136780000D01*
X141267000Y-137077000D02*
X141267000Y-142319000D01*
X140970000Y-135255000D02*
X140970000Y-133730000D01*
X140914000Y-152724000D02*
X140970000Y-152780000D01*
X140970000Y-117730000D02*
X140970000Y-116205000D01*
X140970000Y-152780000D02*
X140970000Y-154305000D01*
X160020000Y-114680000D02*
X160020000Y-116205000D01*
D27*
%TO.N,VCC*%
X67959200Y-49696700D02*
X78345100Y-49696700D01*
X40340700Y-57159300D02*
X41847800Y-58666400D01*
X66979900Y-53340000D02*
X66979900Y-50676000D01*
X66979900Y-50676000D02*
X67959200Y-49696700D01*
X86360000Y-57711600D02*
X86360000Y-69850000D01*
X68580000Y-53340000D02*
X66979900Y-53340000D01*
X78345100Y-49696700D02*
X86360000Y-57711600D01*
X61653500Y-58666400D02*
X66979900Y-53340000D01*
X23400000Y-67752100D02*
X33992800Y-57159300D01*
X22800000Y-82039900D02*
X23400000Y-81439900D01*
X127940000Y-71450100D02*
X143510000Y-55880000D01*
X33992800Y-57159300D02*
X40340700Y-57159300D01*
X86360000Y-69850000D02*
X86360000Y-71450100D01*
X22800000Y-83640000D02*
X22800000Y-82039900D01*
X41847800Y-58666400D02*
X61653500Y-58666400D01*
X23400000Y-81439900D02*
X23400000Y-73022500D01*
X83820000Y-73990100D02*
X83820000Y-85090000D01*
X23400000Y-73022500D02*
X23400000Y-67752100D01*
X40520000Y-56980000D02*
X40340700Y-57159300D01*
X86360000Y-71450100D02*
X127940000Y-71450100D01*
X86360000Y-71450100D02*
X83820000Y-73990100D01*
%TO.N,GND*%
X17280000Y-60520000D02*
X18080200Y-60520000D01*
X18080200Y-60520000D02*
X20400000Y-62839800D01*
X20800000Y-84408900D02*
X20800000Y-83640000D01*
X20800000Y-78122500D02*
X20800000Y-83640000D01*
X81845100Y-58774900D02*
X83490000Y-57130000D01*
X40520000Y-51900000D02*
X31339800Y-51900000D01*
X81845100Y-66275000D02*
X81845100Y-58774900D01*
X20400000Y-77722500D02*
X20800000Y-78122500D01*
X31339800Y-51900000D02*
X20400000Y-62839800D01*
X83820000Y-69850000D02*
X83820000Y-68249900D01*
X83820000Y-68249900D02*
X81845100Y-66275000D01*
X28575000Y-85725000D02*
X22116100Y-85725000D01*
X78740000Y-57150000D02*
X72930000Y-51340000D01*
X22116100Y-85725000D02*
X20800000Y-84408900D01*
X72930000Y-51340000D02*
X68580000Y-51340000D01*
X20400000Y-62839800D02*
X20400000Y-77722500D01*
D26*
%TO.N,/PB4*%
X99060000Y-69850000D02*
X99060000Y-64770000D01*
%TO.N,/PB7*%
X91440000Y-69850000D02*
X91440000Y-64770000D01*
%TO.N,/PA7*%
X47670800Y-71709200D02*
X47670800Y-64951200D01*
X47670800Y-64951200D02*
X49058200Y-63563800D01*
X84344500Y-86221000D02*
X84945200Y-85620300D01*
X82550000Y-85480200D02*
X83290800Y-86221000D01*
X91440000Y-85090000D02*
X90314900Y-85090000D01*
X50040200Y-63563800D02*
X50826400Y-64350000D01*
X75489500Y-77678800D02*
X82550000Y-84739300D01*
X50826400Y-65260200D02*
X63245000Y-77678800D01*
X90314900Y-84856900D02*
X90314900Y-85090000D01*
X83290800Y-86221000D02*
X84344500Y-86221000D01*
X89422800Y-83964800D02*
X90314900Y-84856900D01*
X49058200Y-63563800D02*
X50040200Y-63563800D01*
X85876300Y-83964800D02*
X89422800Y-83964800D01*
X50826400Y-64350000D02*
X50826400Y-65260200D01*
X84945200Y-84895900D02*
X85876300Y-83964800D01*
X39370000Y-80010000D02*
X47670800Y-71709200D01*
X82550000Y-84739300D02*
X82550000Y-85480200D01*
X84945200Y-85620300D02*
X84945200Y-84895900D01*
X63245000Y-77678800D02*
X75489500Y-77678800D01*
%TO.N,/KR5*%
X120650000Y-156889000D02*
X104865000Y-141104000D01*
X101600000Y-127591000D02*
X101600000Y-120650000D01*
X54568700Y-148203000D02*
X63500000Y-157134000D01*
X159048000Y-120650000D02*
X175711000Y-137313000D01*
X177489000Y-150423000D02*
X177489000Y-158439000D01*
X175711000Y-137313000D02*
X175711000Y-140931000D01*
X44450000Y-120650000D02*
X54568700Y-130769000D01*
X177726000Y-150186000D02*
X177489000Y-150423000D01*
X175711000Y-140931000D02*
X177726000Y-142946000D01*
X101600000Y-119645000D02*
X101600000Y-120650000D01*
X96520000Y-85090000D02*
X96520000Y-86315100D01*
X234950000Y-139421000D02*
X216179000Y-120650000D01*
X177726000Y-142946000D02*
X177726000Y-150186000D01*
X96602500Y-105708000D02*
X96602500Y-114648000D01*
X234950000Y-139700000D02*
X234950000Y-139421000D01*
X63500000Y-157134000D02*
X63500000Y-158750000D01*
X104865000Y-130856000D02*
X101600000Y-127591000D01*
X54568700Y-130769000D02*
X54568700Y-148203000D01*
X96520000Y-86315100D02*
X96775800Y-86570900D01*
X158750000Y-120650000D02*
X159048000Y-120650000D01*
X96775800Y-86570900D02*
X96775800Y-105534000D01*
X96775800Y-105534000D02*
X96602500Y-105708000D01*
X177489000Y-158439000D02*
X177800000Y-158750000D01*
X96602500Y-114648000D02*
X101600000Y-119645000D01*
X216179000Y-120650000D02*
X215900000Y-120650000D01*
X120650000Y-158750000D02*
X120650000Y-156889000D01*
X104865000Y-141104000D02*
X104865000Y-130856000D01*
%TO.N,/KR4*%
X63500000Y-139700000D02*
X63500000Y-137543000D01*
X158495000Y-118238000D02*
X158495000Y-111454000D01*
X177800000Y-139700000D02*
X177800000Y-137543000D01*
X44194800Y-111454000D02*
X44450000Y-111199000D01*
X101600000Y-111199000D02*
X101600000Y-101600000D01*
X63500000Y-137543000D02*
X44194800Y-118238000D01*
X120650000Y-139700000D02*
X120650000Y-137533000D01*
X216200000Y-101600000D02*
X234950000Y-120350000D01*
X177800000Y-137543000D02*
X158495000Y-118238000D01*
X101345000Y-118228000D02*
X101345000Y-111454000D01*
X158495000Y-111454000D02*
X158750000Y-111199000D01*
X99060000Y-99060000D02*
X99060000Y-85090000D01*
X120650000Y-137533000D02*
X101345000Y-118228000D01*
X234950000Y-120350000D02*
X234950000Y-120650000D01*
X44450000Y-111199000D02*
X44450000Y-101600000D01*
X158750000Y-111199000D02*
X158750000Y-101600000D01*
X215900000Y-101600000D02*
X216200000Y-101600000D01*
X101600000Y-101600000D02*
X99060000Y-99060000D01*
X44194800Y-118238000D02*
X44194800Y-111454000D01*
X101345000Y-111454000D02*
X101600000Y-111199000D01*
%TO.N,/KR3*%
X101600000Y-86315100D02*
X108951000Y-93666300D01*
X181027000Y-131031000D02*
X177800000Y-127804000D01*
X101600000Y-85090000D02*
X101600000Y-86315100D01*
X108951000Y-93666300D02*
X108951000Y-108605000D01*
X72236500Y-129386000D02*
X63500000Y-120650000D01*
X196850000Y-158750000D02*
X196850000Y-156482000D01*
X196850000Y-156482000D02*
X181027000Y-140659000D01*
X181027000Y-140659000D02*
X181027000Y-131031000D01*
X82550000Y-158750000D02*
X82550000Y-156889000D01*
X177800000Y-127804000D02*
X177800000Y-120650000D01*
X120650000Y-120304000D02*
X120650000Y-120650000D01*
X108951000Y-108605000D02*
X120650000Y-120304000D01*
X82550000Y-156889000D02*
X72236500Y-146575000D01*
X72236500Y-146575000D02*
X72236500Y-129386000D01*
%TO.N,/KR2*%
X82550000Y-139700000D02*
X82550000Y-137839000D01*
X105365000Y-86042500D02*
X120650000Y-101327000D01*
X82550000Y-137839000D02*
X69233200Y-124522000D01*
X196850000Y-137839000D02*
X186536000Y-127525000D01*
X69233200Y-107333000D02*
X63500000Y-101600000D01*
X105365000Y-85090000D02*
X105365000Y-86042500D01*
X186536000Y-127525000D02*
X186536000Y-110336000D01*
X69233200Y-124522000D02*
X69233200Y-107333000D01*
X196850000Y-139700000D02*
X196850000Y-137839000D01*
X120650000Y-101327000D02*
X120650000Y-101600000D01*
X186536000Y-110336000D02*
X177800000Y-101600000D01*
X104140000Y-85090000D02*
X105365000Y-85090000D01*
%TO.N,/KR1*%
X107905000Y-85090000D02*
X106680000Y-85090000D01*
X142495000Y-114871000D02*
X136912000Y-109287000D01*
X201068000Y-124868000D02*
X196850000Y-120650000D01*
X148436000Y-129386000D02*
X139700000Y-120650000D01*
X132844000Y-109287000D02*
X125723000Y-102166000D01*
X107905000Y-85597700D02*
X107905000Y-85090000D01*
X44450000Y-158750000D02*
X44450000Y-157111000D01*
X29571400Y-142233000D02*
X29571400Y-124821000D01*
X44450000Y-157111000D02*
X29571400Y-142233000D01*
X148436000Y-147041000D02*
X148436000Y-129386000D01*
X136912000Y-109287000D02*
X132844000Y-109287000D01*
X101600000Y-158750000D02*
X101600000Y-157745000D01*
X215900000Y-158750000D02*
X215900000Y-156817000D01*
X86395100Y-124495000D02*
X82550000Y-120650000D01*
X215900000Y-156817000D02*
X201068000Y-141985000D01*
X29571400Y-124821000D02*
X25400000Y-120650000D01*
X158750000Y-158750000D02*
X158750000Y-157355000D01*
X125723000Y-102166000D02*
X125723000Y-98127400D01*
X125723000Y-98127400D02*
X114617000Y-87021000D01*
X139700000Y-120650000D02*
X142495000Y-117855000D01*
X114617000Y-87021000D02*
X109328000Y-87021000D01*
X158750000Y-157355000D02*
X148436000Y-147041000D01*
X86395100Y-142540000D02*
X86395100Y-124495000D01*
X201068000Y-141985000D02*
X201068000Y-124868000D01*
X101600000Y-157745000D02*
X86395100Y-142540000D01*
X142495000Y-117855000D02*
X142495000Y-114871000D01*
X109328000Y-87021000D02*
X107905000Y-85597700D01*
%TO.N,Net-(D49-Pad1)*%
X28575000Y-65895100D02*
X28575000Y-64770000D01*
X36830000Y-72390000D02*
X35504900Y-72390000D01*
X35504900Y-72390000D02*
X29010000Y-65895100D01*
X29010000Y-65895100D02*
X28575000Y-65895100D01*
%TO.N,Net-(C3-Pad1)*%
X62230000Y-84704100D02*
X63007200Y-83926900D01*
X62230000Y-86922000D02*
X62230000Y-84704100D01*
X72390000Y-85417100D02*
X73644000Y-86671100D01*
X71600400Y-83926900D02*
X72390000Y-84716500D01*
X58548200Y-90603800D02*
X62230000Y-86922000D01*
X72390000Y-84716500D02*
X72390000Y-85417100D01*
X73644000Y-86671100D02*
X86426900Y-86671100D01*
X87774900Y-85323100D02*
X87774900Y-85090000D01*
X86426900Y-86671100D02*
X87774900Y-85323100D01*
X63007200Y-83926900D02*
X71600400Y-83926900D01*
X48693800Y-90603800D02*
X58548200Y-90603800D01*
X88900000Y-85090000D02*
X87774900Y-85090000D01*
X46990000Y-88900000D02*
X48693800Y-90603800D01*
%TO.N,/PD0*%
X70402600Y-64770000D02*
X67310000Y-64770000D01*
X74974900Y-69342300D02*
X70402600Y-64770000D01*
X76200000Y-69850000D02*
X74974900Y-69850000D01*
X74974900Y-69850000D02*
X74974900Y-69342300D01*
%TO.N,/PD1*%
X69272900Y-66180300D02*
X66180300Y-66180300D01*
X66180300Y-66180300D02*
X64770000Y-64770000D01*
X73660000Y-69850000D02*
X72434900Y-69850000D01*
X72434900Y-69342300D02*
X69272900Y-66180300D01*
X72434900Y-69850000D02*
X72434900Y-69342300D01*
%TO.N,/PD2*%
X64465400Y-67005400D02*
X67558000Y-67005400D01*
X67558000Y-67005400D02*
X69894900Y-69342300D01*
X69894900Y-69850000D02*
X71120000Y-69850000D01*
X62230000Y-64770000D02*
X64465400Y-67005400D01*
X69894900Y-69342300D02*
X69894900Y-69850000D01*
%TO.N,/PD3*%
X59690000Y-64770000D02*
X60426600Y-64770000D01*
X67354900Y-69342300D02*
X67354900Y-69850000D01*
X67354900Y-69850000D02*
X68580000Y-69850000D01*
X65568100Y-67555500D02*
X67354900Y-69342300D01*
X60426600Y-64770000D02*
X63212100Y-67555500D01*
X63212100Y-67555500D02*
X65568100Y-67555500D01*
%TO.N,/PD4*%
X64814900Y-69390500D02*
X64049300Y-68624900D01*
X64814900Y-69850000D02*
X64814900Y-69390500D01*
X62854600Y-68624900D02*
X60559700Y-66330000D01*
X60559700Y-66330000D02*
X58710000Y-66330000D01*
X66040000Y-69850000D02*
X64814900Y-69850000D01*
X58710000Y-66330000D02*
X57150000Y-64770000D01*
X64049300Y-68624900D02*
X62854600Y-68624900D01*
%TO.N,/PD5*%
X57898600Y-68058600D02*
X54610000Y-64770000D01*
X63500000Y-69850000D02*
X62274900Y-69850000D01*
X61205600Y-68058600D02*
X57898600Y-68058600D01*
X62274900Y-69850000D02*
X62274900Y-69127900D01*
X62274900Y-69127900D02*
X61205600Y-68058600D01*
%TO.N,/PD6*%
X60960000Y-68624900D02*
X60960000Y-69850000D01*
X52070000Y-64770000D02*
X55924900Y-68624900D01*
X55924900Y-68624900D02*
X60960000Y-68624900D01*
%TO.N,/PD7*%
X60960000Y-87553400D02*
X58378200Y-90135200D01*
X54887000Y-90135200D02*
X49530000Y-84778200D01*
X60960000Y-85090000D02*
X60960000Y-87553400D01*
X58378200Y-90135200D02*
X54887000Y-90135200D01*
X49530000Y-84778200D02*
X49530000Y-64770000D01*
%TO.N,Net-(SW1-Pad2)*%
X91280000Y-58580000D02*
X88900000Y-60960000D01*
X91280000Y-53117500D02*
X91280000Y-58580000D01*
X88900000Y-60960000D02*
X88900000Y-69850000D01*
%TD*%
M02*
