%TF.GenerationSoftware,KiCad,Pcbnew,(6.0.0-0)*%
%TF.CreationDate,2022-08-21T16:01:53-04:00*%
%TF.ProjectId,justin-freetracing,6a757374-696e-42d6-9672-656574726163,rev?*%
%TF.SameCoordinates,Original*%
%TF.FileFunction,Copper,L2,Bot*%
%TF.FilePolarity,Positive*%
%FSLAX46Y46*%
G04 Gerber Fmt 4.6, Leading zero omitted, Abs format (unit mm)*
G04 Created by KiCad (PCBNEW (6.0.0-0)) date 2022-08-21 16:01:53*
%MOMM*%
%LPD*%
G01*
G04 APERTURE LIST*
G04 Aperture macros list*
%AMRoundRect*
0 Rectangle with rounded corners*
0 $1 Rounding radius*
0 $2 $3 $4 $5 $6 $7 $8 $9 X,Y pos of 4 corners*
0 Add a 4 corners polygon primitive as box body*
4,1,4,$2,$3,$4,$5,$6,$7,$8,$9,$2,$3,0*
0 Add four circle primitives for the rounded corners*
1,1,$1+$1,$2,$3*
1,1,$1+$1,$4,$5*
1,1,$1+$1,$6,$7*
1,1,$1+$1,$8,$9*
0 Add four rect primitives between the rounded corners*
20,1,$1+$1,$2,$3,$4,$5,0*
20,1,$1+$1,$4,$5,$6,$7,0*
20,1,$1+$1,$6,$7,$8,$9,0*
20,1,$1+$1,$8,$9,$2,$3,0*%
G04 Aperture macros list end*
%TA.AperFunction,ComponentPad*%
%ADD10C,2.200000*%
%TD*%
%TA.AperFunction,ComponentPad*%
%ADD11R,1.700000X1.700000*%
%TD*%
%TA.AperFunction,ComponentPad*%
%ADD12O,1.700000X1.700000*%
%TD*%
%TA.AperFunction,ComponentPad*%
%ADD13R,1.600000X1.600000*%
%TD*%
%TA.AperFunction,ComponentPad*%
%ADD14C,1.600000*%
%TD*%
%TA.AperFunction,ComponentPad*%
%ADD15O,1.600000X1.600000*%
%TD*%
%TA.AperFunction,ComponentPad*%
%ADD16R,1.800000X1.800000*%
%TD*%
%TA.AperFunction,ComponentPad*%
%ADD17C,1.800000*%
%TD*%
%TA.AperFunction,ComponentPad*%
%ADD18R,3.500000X3.500000*%
%TD*%
%TA.AperFunction,ComponentPad*%
%ADD19RoundRect,0.750000X-0.750000X-1.000000X0.750000X-1.000000X0.750000X1.000000X-0.750000X1.000000X0*%
%TD*%
%TA.AperFunction,ComponentPad*%
%ADD20RoundRect,0.875000X-0.875000X-0.875000X0.875000X-0.875000X0.875000X0.875000X-0.875000X0.875000X0*%
%TD*%
%TA.AperFunction,ComponentPad*%
%ADD21C,1.500000*%
%TD*%
%TA.AperFunction,ComponentPad*%
%ADD22R,2.200000X2.200000*%
%TD*%
%TA.AperFunction,ComponentPad*%
%ADD23O,2.200000X2.200000*%
%TD*%
%TA.AperFunction,ComponentPad*%
%ADD24C,1.400000*%
%TD*%
%TA.AperFunction,ComponentPad*%
%ADD25O,1.400000X1.400000*%
%TD*%
%TA.AperFunction,Conductor*%
%ADD26C,0.250000*%
%TD*%
%TA.AperFunction,Conductor*%
%ADD27C,1.000000*%
%TD*%
G04 APERTURE END LIST*
D10*
%TO.P,K27,1,1*%
%TO.N,/KR2*%
X139700000Y-139700000D03*
%TO.P,K27,2,2*%
%TO.N,Net-(D27-Pad2)*%
X133350000Y-142240000D03*
%TD*%
%TO.P,K6,1,1*%
%TO.N,/KR5*%
X44450000Y-120650000D03*
%TO.P,K6,2,2*%
%TO.N,Net-(D6-Pad2)*%
X38100000Y-123190000D03*
%TD*%
%TO.P,K26,1,1*%
%TO.N,/KR1*%
X139700000Y-120650000D03*
%TO.P,K26,2,2*%
%TO.N,Net-(D26-Pad2)*%
X133350000Y-123190000D03*
%TD*%
%TO.P,K25,1,1*%
%TO.N,/KR0*%
X139700000Y-101600000D03*
%TO.P,K25,2,2*%
%TO.N,Net-(D25-Pad2)*%
X133350000Y-104140000D03*
%TD*%
D11*
%TO.P,J3,1,Pin_1*%
%TO.N,/PB0*%
X93275000Y-63960000D03*
D12*
%TO.P,J3,2,Pin_2*%
%TO.N,/PB1*%
X90735000Y-63960000D03*
%TO.P,J3,3,Pin_3*%
%TO.N,/PB2*%
X88195000Y-63960000D03*
%TO.P,J3,4,Pin_4*%
%TO.N,/PB3*%
X85655000Y-63960000D03*
%TO.P,J3,5,Pin_5*%
%TO.N,/PB4*%
X83115000Y-63960000D03*
%TO.P,J3,6,Pin_6*%
%TO.N,/MOSI*%
X80575000Y-63960000D03*
%TO.P,J3,7,Pin_7*%
%TO.N,/MISO*%
X78035000Y-63960000D03*
%TO.P,J3,8,Pin_8*%
%TO.N,/PB7*%
X75495000Y-63960000D03*
%TD*%
D13*
%TO.P,C5,1*%
%TO.N,VCC*%
X17280000Y-62520000D03*
D14*
%TO.P,C5,2*%
%TO.N,GND*%
X17280000Y-60520000D03*
%TD*%
D13*
%TO.P,U1,1,PB0*%
%TO.N,/PB0*%
X87985000Y-68705000D03*
D15*
%TO.P,U1,2,PB1*%
%TO.N,/PB1*%
X85445000Y-68705000D03*
%TO.P,U1,3,PB2*%
%TO.N,/PB2*%
X82905000Y-68705000D03*
%TO.P,U1,4,PB3*%
%TO.N,/PB3*%
X80365000Y-68705000D03*
%TO.P,U1,5,PB4*%
%TO.N,/PB4*%
X77825000Y-68705000D03*
%TO.P,U1,6,PB5*%
%TO.N,/MOSI*%
X75285000Y-68705000D03*
%TO.P,U1,7,PB6*%
%TO.N,/MISO*%
X72745000Y-68705000D03*
%TO.P,U1,8,PB7*%
%TO.N,/PB7*%
X70205000Y-68705000D03*
%TO.P,U1,9,~{RESET}*%
%TO.N,/~RESET*%
X67665000Y-68705000D03*
%TO.P,U1,10,VCC*%
%TO.N,VCC*%
X65125000Y-68705000D03*
%TO.P,U1,11,GND*%
%TO.N,GND*%
X62585000Y-68705000D03*
%TO.P,U1,12,XTAL2*%
%TO.N,Net-(C2-Pad2)*%
X60045000Y-68705000D03*
%TO.P,U1,13,XTAL1*%
%TO.N,Net-(C1-Pad2)*%
X57505000Y-68705000D03*
%TO.P,U1,14,PD0*%
%TO.N,/PD0*%
X54965000Y-68705000D03*
%TO.P,U1,15,PD1*%
%TO.N,/PD1*%
X52425000Y-68705000D03*
%TO.P,U1,16,PD2*%
%TO.N,/PD2*%
X49885000Y-68705000D03*
%TO.P,U1,17,PD3*%
%TO.N,/PD3*%
X47345000Y-68705000D03*
%TO.P,U1,18,PD4*%
%TO.N,/PD4*%
X44805000Y-68705000D03*
%TO.P,U1,19,PD5*%
%TO.N,/PD5*%
X42265000Y-68705000D03*
%TO.P,U1,20,PD6*%
%TO.N,/PD6*%
X39725000Y-68705000D03*
%TO.P,U1,21,PD7*%
%TO.N,/PD7*%
X39725000Y-83945000D03*
%TO.P,U1,22,PC0*%
%TO.N,/KC0*%
X42265000Y-83945000D03*
%TO.P,U1,23,PC1*%
%TO.N,/KC1*%
X44805000Y-83945000D03*
%TO.P,U1,24,PC2*%
%TO.N,/KC2*%
X47345000Y-83945000D03*
%TO.P,U1,25,PC3*%
%TO.N,/KC3*%
X49885000Y-83945000D03*
%TO.P,U1,26,PC4*%
%TO.N,/KC4*%
X52425000Y-83945000D03*
%TO.P,U1,27,PC5*%
%TO.N,/KC5*%
X54965000Y-83945000D03*
%TO.P,U1,28,PC6*%
%TO.N,/KC6*%
X57505000Y-83945000D03*
%TO.P,U1,29,PC7*%
%TO.N,/KC7*%
X60045000Y-83945000D03*
%TO.P,U1,30,AVCC*%
%TO.N,VCC*%
X62585000Y-83945000D03*
%TO.P,U1,31,GND*%
%TO.N,GND*%
X65125000Y-83945000D03*
%TO.P,U1,32,AREF*%
%TO.N,Net-(C3-Pad1)*%
X67665000Y-83945000D03*
%TO.P,U1,33,PA7*%
%TO.N,/PA7*%
X70205000Y-83945000D03*
%TO.P,U1,34,PA6*%
%TO.N,/PA6*%
X72745000Y-83945000D03*
%TO.P,U1,35,PA5*%
%TO.N,/KR5*%
X75285000Y-83945000D03*
%TO.P,U1,36,PA4*%
%TO.N,/KR4*%
X77825000Y-83945000D03*
%TO.P,U1,37,PA3*%
%TO.N,/KR3*%
X80365000Y-83945000D03*
%TO.P,U1,38,PA2*%
%TO.N,/KR2*%
X82905000Y-83945000D03*
%TO.P,U1,39,PA1*%
%TO.N,/KR1*%
X85445000Y-83945000D03*
%TO.P,U1,40,PA0*%
%TO.N,/KR0*%
X87985000Y-83945000D03*
%TD*%
D10*
%TO.P,K44,1,1*%
%TO.N,/KR1*%
X215900000Y-158750000D03*
%TO.P,K44,2,2*%
%TO.N,Net-(D44-Pad2)*%
X209550000Y-161290000D03*
%TD*%
%TO.P,K33,1,1*%
%TO.N,/KR2*%
X177800000Y-101600000D03*
%TO.P,K33,2,2*%
%TO.N,Net-(D33-Pad2)*%
X171450000Y-104140000D03*
%TD*%
%TO.P,K2,1,1*%
%TO.N,/KR1*%
X25400000Y-120650000D03*
%TO.P,K2,2,2*%
%TO.N,Net-(D2-Pad2)*%
X19050000Y-123190000D03*
%TD*%
D13*
%TO.P,C3,1*%
%TO.N,Net-(C3-Pad1)*%
X60144900Y-89590000D03*
D14*
%TO.P,C3,2*%
%TO.N,GND*%
X62144900Y-89590000D03*
%TD*%
D10*
%TO.P,K36,1,1*%
%TO.N,/KR5*%
X177800000Y-158750000D03*
%TO.P,K36,2,2*%
%TO.N,Net-(D36-Pad2)*%
X171450000Y-161290000D03*
%TD*%
%TO.P,K8,1,1*%
%TO.N,/KR1*%
X44450000Y-158750000D03*
%TO.P,K8,2,2*%
%TO.N,Net-(D8-Pad2)*%
X38100000Y-161290000D03*
%TD*%
D16*
%TO.P,D50,1,K*%
%TO.N,Net-(D50-Pad1)*%
X32385000Y-80010000D03*
D17*
%TO.P,D50,2,A*%
%TO.N,/PA7*%
X34925000Y-80010000D03*
%TD*%
D10*
%TO.P,K12,1,1*%
%TO.N,/KR5*%
X63500000Y-158750000D03*
%TO.P,K12,2,2*%
%TO.N,Net-(D12-Pad2)*%
X57150000Y-161290000D03*
%TD*%
%TO.P,K5,1,1*%
%TO.N,/KR4*%
X44450000Y-101600000D03*
%TO.P,K5,2,2*%
%TO.N,Net-(D5-Pad2)*%
X38100000Y-104140000D03*
%TD*%
%TO.P,K14,1,1*%
%TO.N,/KR1*%
X82550000Y-120650000D03*
%TO.P,K14,2,2*%
%TO.N,Net-(D14-Pad2)*%
X76200000Y-123190000D03*
%TD*%
%TO.P,K38,1,1*%
%TO.N,/KR1*%
X196850000Y-120650000D03*
%TO.P,K38,2,2*%
%TO.N,Net-(D38-Pad2)*%
X190500000Y-123190000D03*
%TD*%
D13*
%TO.P,C4,1*%
%TO.N,VCC*%
X56780000Y-58185100D03*
D14*
%TO.P,C4,2*%
%TO.N,GND*%
X56780000Y-56185100D03*
%TD*%
D10*
%TO.P,K23,1,1*%
%TO.N,/KR4*%
X120650000Y-139700000D03*
%TO.P,K23,2,2*%
%TO.N,Net-(D23-Pad2)*%
X114300000Y-142240000D03*
%TD*%
%TO.P,K16,1,1*%
%TO.N,/KR3*%
X82550000Y-158750000D03*
%TO.P,K16,2,2*%
%TO.N,Net-(D16-Pad2)*%
X76200000Y-161290000D03*
%TD*%
%TO.P,K10,1,1*%
%TO.N,/KR3*%
X63500000Y-120650000D03*
%TO.P,K10,2,2*%
%TO.N,Net-(D10-Pad2)*%
X57150000Y-123190000D03*
%TD*%
%TO.P,K43,1,1*%
%TO.N,/KR0*%
X215900000Y-139700000D03*
%TO.P,K43,2,2*%
%TO.N,Net-(D43-Pad2)*%
X209550000Y-142240000D03*
%TD*%
%TO.P,K49,1,1*%
%TO.N,GND*%
X104010000Y-71060000D03*
%TO.P,K49,2,2*%
%TO.N,/~RESET*%
X97660000Y-73600000D03*
%TD*%
%TO.P,K48,1,1*%
%TO.N,/KR5*%
X234950000Y-139700000D03*
%TO.P,K48,2,2*%
%TO.N,Net-(D48-Pad2)*%
X228600000Y-142240000D03*
%TD*%
%TO.P,K13,1,1*%
%TO.N,/KR0*%
X82550000Y-101600000D03*
%TO.P,K13,2,2*%
%TO.N,Net-(D13-Pad2)*%
X76200000Y-104140000D03*
%TD*%
%TO.P,K29,1,1*%
%TO.N,/KR4*%
X158750000Y-101600000D03*
%TO.P,K29,2,2*%
%TO.N,Net-(D29-Pad2)*%
X152400000Y-104140000D03*
%TD*%
%TO.P,K15,1,1*%
%TO.N,/KR2*%
X82550000Y-139700000D03*
%TO.P,K15,2,2*%
%TO.N,Net-(D15-Pad2)*%
X76200000Y-142240000D03*
%TD*%
%TO.P,K7,1,1*%
%TO.N,/KR0*%
X44577000Y-139700000D03*
%TO.P,K7,2,2*%
%TO.N,Net-(D7-Pad2)*%
X38227000Y-142240000D03*
%TD*%
%TO.P,K47,1,1*%
%TO.N,/KR4*%
X234950000Y-120650000D03*
%TO.P,K47,2,2*%
%TO.N,Net-(D47-Pad2)*%
X228600000Y-123190000D03*
%TD*%
%TO.P,K28,1,1*%
%TO.N,/KR3*%
X139700000Y-158750000D03*
%TO.P,K28,2,2*%
%TO.N,Net-(D28-Pad2)*%
X133350000Y-161290000D03*
%TD*%
%TO.P,K46,1,1*%
%TO.N,/KR3*%
X234950000Y-101600000D03*
%TO.P,K46,2,2*%
%TO.N,Net-(D46-Pad2)*%
X228600000Y-104140000D03*
%TD*%
%TO.P,K9,1,1*%
%TO.N,/KR2*%
X63500000Y-101600000D03*
%TO.P,K9,2,2*%
%TO.N,Net-(D9-Pad2)*%
X57150000Y-104140000D03*
%TD*%
D13*
%TO.P,C6,1*%
%TO.N,VCC*%
X22800000Y-83640000D03*
D14*
%TO.P,C6,2*%
%TO.N,GND*%
X20800000Y-83640000D03*
%TD*%
D10*
%TO.P,K20,1,1*%
%TO.N,/KR1*%
X101600000Y-158750000D03*
%TO.P,K20,2,2*%
%TO.N,Net-(D20-Pad2)*%
X95250000Y-161290000D03*
%TD*%
%TO.P,K45,1,1*%
%TO.N,/KR2*%
X234950000Y-158750000D03*
%TO.P,K45,2,2*%
%TO.N,Net-(D45-Pad2)*%
X228600000Y-161290000D03*
%TD*%
%TO.P,K17,1,1*%
%TO.N,/KR4*%
X101600000Y-101600000D03*
%TO.P,K17,2,2*%
%TO.N,Net-(D17-Pad2)*%
X95250000Y-104140000D03*
%TD*%
%TO.P,K34,1,1*%
%TO.N,/KR3*%
X177800000Y-120650000D03*
%TO.P,K34,2,2*%
%TO.N,Net-(D34-Pad2)*%
X171450000Y-123190000D03*
%TD*%
%TO.P,K32,1,1*%
%TO.N,/KR1*%
X158750000Y-158750000D03*
%TO.P,K32,2,2*%
%TO.N,Net-(D32-Pad2)*%
X152400000Y-161290000D03*
%TD*%
%TO.P,K40,1,1*%
%TO.N,/KR3*%
X196850000Y-158750000D03*
%TO.P,K40,2,2*%
%TO.N,Net-(D40-Pad2)*%
X190500000Y-161290000D03*
%TD*%
%TO.P,K31,1,1*%
%TO.N,/KR0*%
X158750000Y-139700000D03*
%TO.P,K31,2,2*%
%TO.N,Net-(D31-Pad2)*%
X152400000Y-142240000D03*
%TD*%
%TO.P,K18,1,1*%
%TO.N,/KR5*%
X101600000Y-120650000D03*
%TO.P,K18,2,2*%
%TO.N,Net-(D18-Pad2)*%
X95250000Y-123190000D03*
%TD*%
%TO.P,K41,1,1*%
%TO.N,/KR4*%
X215900000Y-101600000D03*
%TO.P,K41,2,2*%
%TO.N,Net-(D41-Pad2)*%
X209550000Y-104140000D03*
%TD*%
%TO.P,K39,1,1*%
%TO.N,/KR2*%
X196850000Y-139700000D03*
%TO.P,K39,2,2*%
%TO.N,Net-(D39-Pad2)*%
X190500000Y-142240000D03*
%TD*%
%TO.P,K21,1,1*%
%TO.N,/KR2*%
X120650000Y-101600000D03*
%TO.P,K21,2,2*%
%TO.N,Net-(D21-Pad2)*%
X114300000Y-104140000D03*
%TD*%
D11*
%TO.P,J2,1,Pin_1*%
%TO.N,/MISO*%
X79170000Y-55330000D03*
D12*
%TO.P,J2,2,Pin_2*%
%TO.N,VCC*%
X76630000Y-55330000D03*
%TO.P,J2,3,Pin_3*%
%TO.N,/PB7*%
X79170000Y-52790000D03*
%TO.P,J2,4,Pin_4*%
%TO.N,/MOSI*%
X76630000Y-52790000D03*
%TO.P,J2,5,Pin_5*%
%TO.N,/~RESET*%
X79170000Y-50250000D03*
%TO.P,J2,6,Pin_6*%
%TO.N,GND*%
X76630000Y-50250000D03*
%TD*%
D18*
%TO.P,J5,1*%
%TO.N,VCC*%
X23400000Y-73022500D03*
D19*
%TO.P,J5,2*%
%TO.N,unconnected-(J5-Pad2)*%
X17400000Y-73022500D03*
D20*
%TO.P,J5,3*%
%TO.N,GND*%
X20400000Y-77722500D03*
%TD*%
D14*
%TO.P,C2,1*%
%TO.N,GND*%
X68940000Y-56560000D03*
%TO.P,C2,2*%
%TO.N,Net-(C2-Pad2)*%
X68940000Y-59060000D03*
%TD*%
D10*
%TO.P,K37,1,1*%
%TO.N,/KR0*%
X196850000Y-101600000D03*
%TO.P,K37,2,2*%
%TO.N,Net-(D37-Pad2)*%
X190500000Y-104140000D03*
%TD*%
D16*
%TO.P,D49,1,K*%
%TO.N,Net-(D49-Pad1)*%
X32385000Y-72390000D03*
D17*
%TO.P,D49,2,A*%
%TO.N,/PA6*%
X34925000Y-72390000D03*
%TD*%
D11*
%TO.P,J1,1,Pin_1*%
%TO.N,/PD0*%
X53370000Y-62020000D03*
D12*
%TO.P,J1,2,Pin_2*%
%TO.N,/PD1*%
X50830000Y-62020000D03*
%TO.P,J1,3,Pin_3*%
%TO.N,/PD2*%
X48290000Y-62020000D03*
%TO.P,J1,4,Pin_4*%
%TO.N,/PD3*%
X45750000Y-62020000D03*
%TO.P,J1,5,Pin_5*%
%TO.N,/PD4*%
X43210000Y-62020000D03*
%TO.P,J1,6,Pin_6*%
%TO.N,/PD5*%
X40670000Y-62020000D03*
%TO.P,J1,7,Pin_7*%
%TO.N,/PD6*%
X38130000Y-62020000D03*
%TO.P,J1,8,Pin_8*%
%TO.N,/PD7*%
X35590000Y-62020000D03*
%TD*%
D10*
%TO.P,K3,1,1*%
%TO.N,/KR2*%
X25400000Y-139700000D03*
%TO.P,K3,2,2*%
%TO.N,Net-(D3-Pad2)*%
X19050000Y-142240000D03*
%TD*%
%TO.P,K24,1,1*%
%TO.N,/KR5*%
X120650000Y-158750000D03*
%TO.P,K24,2,2*%
%TO.N,Net-(D24-Pad2)*%
X114300000Y-161290000D03*
%TD*%
D14*
%TO.P,C1,1*%
%TO.N,GND*%
X64190000Y-56580000D03*
%TO.P,C1,2*%
%TO.N,Net-(C1-Pad2)*%
X64190000Y-59080000D03*
%TD*%
D10*
%TO.P,K1,1,1*%
%TO.N,/KR0*%
X25400000Y-101600000D03*
%TO.P,K1,2,2*%
%TO.N,Net-(D1-Pad2)*%
X19050000Y-104140000D03*
%TD*%
%TO.P,K42,1,1*%
%TO.N,/KR5*%
X215900000Y-120650000D03*
%TO.P,K42,2,2*%
%TO.N,Net-(D42-Pad2)*%
X209550000Y-123190000D03*
%TD*%
%TO.P,K19,1,1*%
%TO.N,/KR0*%
X101600000Y-139700000D03*
%TO.P,K19,2,2*%
%TO.N,Net-(D19-Pad2)*%
X95250000Y-142240000D03*
%TD*%
%TO.P,K35,1,1*%
%TO.N,/KR4*%
X177800000Y-139700000D03*
%TO.P,K35,2,2*%
%TO.N,Net-(D35-Pad2)*%
X171450000Y-142240000D03*
%TD*%
%TO.P,K11,1,1*%
%TO.N,/KR4*%
X63500000Y-139700000D03*
%TO.P,K11,2,2*%
%TO.N,Net-(D11-Pad2)*%
X57150000Y-142240000D03*
%TD*%
%TO.P,K22,1,1*%
%TO.N,/KR3*%
X120650000Y-120650000D03*
%TO.P,K22,2,2*%
%TO.N,Net-(D22-Pad2)*%
X114300000Y-123190000D03*
%TD*%
%TO.P,K4,1,1*%
%TO.N,/KR3*%
X25400000Y-158750000D03*
%TO.P,K4,2,2*%
%TO.N,Net-(D4-Pad2)*%
X19050000Y-161290000D03*
%TD*%
D21*
%TO.P,Y1,1,1*%
%TO.N,Net-(C2-Pad2)*%
X68995000Y-63085000D03*
%TO.P,Y1,2,2*%
%TO.N,Net-(C1-Pad2)*%
X64115000Y-63085000D03*
%TD*%
D10*
%TO.P,K30,1,1*%
%TO.N,/KR5*%
X158750000Y-120650000D03*
%TO.P,K30,2,2*%
%TO.N,Net-(D30-Pad2)*%
X152400000Y-123190000D03*
%TD*%
D22*
%TO.P,D45,1,K*%
%TO.N,/KC7*%
X236220000Y-154305000D03*
D23*
%TO.P,D45,2,A*%
%TO.N,Net-(D45-Pad2)*%
X228600000Y-154305000D03*
%TD*%
D22*
%TO.P,D17,1,K*%
%TO.N,/KC2*%
X102870000Y-97155000D03*
D23*
%TO.P,D17,2,A*%
%TO.N,Net-(D17-Pad2)*%
X95250000Y-97155000D03*
%TD*%
D22*
%TO.P,D25,1,K*%
%TO.N,/KC4*%
X140970000Y-97155000D03*
D23*
%TO.P,D25,2,A*%
%TO.N,Net-(D25-Pad2)*%
X133350000Y-97155000D03*
%TD*%
D22*
%TO.P,D23,1,K*%
%TO.N,/KC3*%
X121920000Y-135255000D03*
D23*
%TO.P,D23,2,A*%
%TO.N,Net-(D23-Pad2)*%
X114300000Y-135255000D03*
%TD*%
D22*
%TO.P,D7,1,K*%
%TO.N,/KC1*%
X45720000Y-135255000D03*
D23*
%TO.P,D7,2,A*%
%TO.N,Net-(D7-Pad2)*%
X38100000Y-135255000D03*
%TD*%
D22*
%TO.P,D37,1,K*%
%TO.N,/KC6*%
X198120000Y-97155000D03*
D23*
%TO.P,D37,2,A*%
%TO.N,Net-(D37-Pad2)*%
X190500000Y-97155000D03*
%TD*%
D22*
%TO.P,D41,1,K*%
%TO.N,/KC6*%
X217170000Y-97155000D03*
D23*
%TO.P,D41,2,A*%
%TO.N,Net-(D41-Pad2)*%
X209550000Y-97155000D03*
%TD*%
D22*
%TO.P,D28,1,K*%
%TO.N,/KC4*%
X140970000Y-154305000D03*
D23*
%TO.P,D28,2,A*%
%TO.N,Net-(D28-Pad2)*%
X133350000Y-154305000D03*
%TD*%
D22*
%TO.P,D11,1,K*%
%TO.N,/KC1*%
X64770000Y-135255000D03*
D23*
%TO.P,D11,2,A*%
%TO.N,Net-(D11-Pad2)*%
X57150000Y-135255000D03*
%TD*%
D22*
%TO.P,D43,1,K*%
%TO.N,/KC7*%
X217170000Y-135128000D03*
D23*
%TO.P,D43,2,A*%
%TO.N,Net-(D43-Pad2)*%
X209550000Y-135128000D03*
%TD*%
D24*
%TO.P,R1,1*%
%TO.N,GND*%
X28575000Y-72390000D03*
D25*
%TO.P,R1,2*%
%TO.N,Net-(D49-Pad1)*%
X28575000Y-67310000D03*
%TD*%
D22*
%TO.P,D21,1,K*%
%TO.N,/KC3*%
X121920000Y-97155000D03*
D23*
%TO.P,D21,2,A*%
%TO.N,Net-(D21-Pad2)*%
X114300000Y-97155000D03*
%TD*%
D22*
%TO.P,D27,1,K*%
%TO.N,/KC4*%
X140970000Y-135255000D03*
D23*
%TO.P,D27,2,A*%
%TO.N,Net-(D27-Pad2)*%
X133350000Y-135255000D03*
%TD*%
D22*
%TO.P,D35,1,K*%
%TO.N,/KC5*%
X179070000Y-135255000D03*
D23*
%TO.P,D35,2,A*%
%TO.N,Net-(D35-Pad2)*%
X171450000Y-135255000D03*
%TD*%
D22*
%TO.P,D16,1,K*%
%TO.N,/KC2*%
X83820000Y-154305000D03*
D23*
%TO.P,D16,2,A*%
%TO.N,Net-(D16-Pad2)*%
X76200000Y-154305000D03*
%TD*%
D22*
%TO.P,D19,1,K*%
%TO.N,/KC3*%
X102870000Y-135255000D03*
D23*
%TO.P,D19,2,A*%
%TO.N,Net-(D19-Pad2)*%
X95250000Y-135255000D03*
%TD*%
D22*
%TO.P,D42,1,K*%
%TO.N,/KC6*%
X217170000Y-116205000D03*
D23*
%TO.P,D42,2,A*%
%TO.N,Net-(D42-Pad2)*%
X209550000Y-116205000D03*
%TD*%
D22*
%TO.P,D31,1,K*%
%TO.N,/KC5*%
X160020000Y-135255000D03*
D23*
%TO.P,D31,2,A*%
%TO.N,Net-(D31-Pad2)*%
X152400000Y-135255000D03*
%TD*%
D22*
%TO.P,D38,1,K*%
%TO.N,/KC6*%
X198120000Y-116205000D03*
D23*
%TO.P,D38,2,A*%
%TO.N,Net-(D38-Pad2)*%
X190500000Y-116205000D03*
%TD*%
D22*
%TO.P,D15,1,K*%
%TO.N,/KC2*%
X83820000Y-135255000D03*
D23*
%TO.P,D15,2,A*%
%TO.N,Net-(D15-Pad2)*%
X76200000Y-135255000D03*
%TD*%
D22*
%TO.P,D34,1,K*%
%TO.N,/KC5*%
X179070000Y-116205000D03*
D23*
%TO.P,D34,2,A*%
%TO.N,Net-(D34-Pad2)*%
X171450000Y-116205000D03*
%TD*%
D22*
%TO.P,D10,1,K*%
%TO.N,/KC1*%
X64770000Y-116205000D03*
D23*
%TO.P,D10,2,A*%
%TO.N,Net-(D10-Pad2)*%
X57150000Y-116205000D03*
%TD*%
D22*
%TO.P,D40,1,K*%
%TO.N,/KC6*%
X198120000Y-154305000D03*
D23*
%TO.P,D40,2,A*%
%TO.N,Net-(D40-Pad2)*%
X190500000Y-154305000D03*
%TD*%
D22*
%TO.P,D13,1,K*%
%TO.N,/KC2*%
X83820000Y-97155000D03*
D23*
%TO.P,D13,2,A*%
%TO.N,Net-(D13-Pad2)*%
X76200000Y-97155000D03*
%TD*%
D22*
%TO.P,D29,1,K*%
%TO.N,/KC4*%
X160020000Y-97155000D03*
D23*
%TO.P,D29,2,A*%
%TO.N,Net-(D29-Pad2)*%
X152400000Y-97155000D03*
%TD*%
D22*
%TO.P,D6,1,K*%
%TO.N,/KC0*%
X45720000Y-116205000D03*
D23*
%TO.P,D6,2,A*%
%TO.N,Net-(D6-Pad2)*%
X38100000Y-116205000D03*
%TD*%
D22*
%TO.P,D5,1,K*%
%TO.N,/KC0*%
X45720000Y-97155000D03*
D23*
%TO.P,D5,2,A*%
%TO.N,Net-(D5-Pad2)*%
X38100000Y-97155000D03*
%TD*%
D22*
%TO.P,D12,1,K*%
%TO.N,/KC1*%
X64770000Y-154305000D03*
D23*
%TO.P,D12,2,A*%
%TO.N,Net-(D12-Pad2)*%
X57150000Y-154305000D03*
%TD*%
D22*
%TO.P,D32,1,K*%
%TO.N,/KC5*%
X160020000Y-154305000D03*
D23*
%TO.P,D32,2,A*%
%TO.N,Net-(D32-Pad2)*%
X152400000Y-154305000D03*
%TD*%
D22*
%TO.P,D44,1,K*%
%TO.N,/KC7*%
X217170000Y-154305000D03*
D23*
%TO.P,D44,2,A*%
%TO.N,Net-(D44-Pad2)*%
X209550000Y-154305000D03*
%TD*%
D22*
%TO.P,D8,1,K*%
%TO.N,/KC1*%
X45720000Y-154305000D03*
D23*
%TO.P,D8,2,A*%
%TO.N,Net-(D8-Pad2)*%
X38100000Y-154305000D03*
%TD*%
D22*
%TO.P,D9,1,K*%
%TO.N,/KC1*%
X64770000Y-97155000D03*
D23*
%TO.P,D9,2,A*%
%TO.N,Net-(D9-Pad2)*%
X57150000Y-97155000D03*
%TD*%
D22*
%TO.P,D14,1,K*%
%TO.N,/KC2*%
X83820000Y-116205000D03*
D23*
%TO.P,D14,2,A*%
%TO.N,Net-(D14-Pad2)*%
X76200000Y-116205000D03*
%TD*%
D24*
%TO.P,R2,1*%
%TO.N,GND*%
X28575000Y-85725000D03*
D25*
%TO.P,R2,2*%
%TO.N,Net-(D50-Pad1)*%
X28575000Y-80645000D03*
%TD*%
D22*
%TO.P,D20,1,K*%
%TO.N,/KC3*%
X102870000Y-154305000D03*
D23*
%TO.P,D20,2,A*%
%TO.N,Net-(D20-Pad2)*%
X95250000Y-154305000D03*
%TD*%
D22*
%TO.P,D46,1,K*%
%TO.N,/KC7*%
X236220000Y-97155000D03*
D23*
%TO.P,D46,2,A*%
%TO.N,Net-(D46-Pad2)*%
X228600000Y-97155000D03*
%TD*%
D22*
%TO.P,D18,1,K*%
%TO.N,/KC2*%
X102870000Y-116205000D03*
D23*
%TO.P,D18,2,A*%
%TO.N,Net-(D18-Pad2)*%
X95250000Y-116205000D03*
%TD*%
D22*
%TO.P,D47,1,K*%
%TO.N,/KC7*%
X236220000Y-116205000D03*
D23*
%TO.P,D47,2,A*%
%TO.N,Net-(D47-Pad2)*%
X228600000Y-116205000D03*
%TD*%
D22*
%TO.P,D24,1,K*%
%TO.N,/KC3*%
X121920000Y-154305000D03*
D23*
%TO.P,D24,2,A*%
%TO.N,Net-(D24-Pad2)*%
X114300000Y-154305000D03*
%TD*%
D22*
%TO.P,D22,1,K*%
%TO.N,/KC3*%
X121920000Y-116205000D03*
D23*
%TO.P,D22,2,A*%
%TO.N,Net-(D22-Pad2)*%
X114300000Y-116205000D03*
%TD*%
D24*
%TO.P,R3,1*%
%TO.N,VCC*%
X97170000Y-60050000D03*
D25*
%TO.P,R3,2*%
%TO.N,/~RESET*%
X97170000Y-65130000D03*
%TD*%
D22*
%TO.P,D4,1,K*%
%TO.N,/KC0*%
X26670000Y-154305000D03*
D23*
%TO.P,D4,2,A*%
%TO.N,Net-(D4-Pad2)*%
X19050000Y-154305000D03*
%TD*%
D22*
%TO.P,D3,1,K*%
%TO.N,/KC0*%
X26670000Y-135255000D03*
D23*
%TO.P,D3,2,A*%
%TO.N,Net-(D3-Pad2)*%
X19050000Y-135255000D03*
%TD*%
D22*
%TO.P,D1,1,K*%
%TO.N,/KC0*%
X26670000Y-97155000D03*
D23*
%TO.P,D1,2,A*%
%TO.N,Net-(D1-Pad2)*%
X19050000Y-97155000D03*
%TD*%
D22*
%TO.P,D33,1,K*%
%TO.N,/KC5*%
X179070000Y-97155000D03*
D23*
%TO.P,D33,2,A*%
%TO.N,Net-(D33-Pad2)*%
X171450000Y-97155000D03*
%TD*%
D22*
%TO.P,D2,1,K*%
%TO.N,/KC0*%
X26670000Y-116205000D03*
D23*
%TO.P,D2,2,A*%
%TO.N,Net-(D2-Pad2)*%
X19050000Y-116205000D03*
%TD*%
D22*
%TO.P,D39,1,K*%
%TO.N,/KC6*%
X198120000Y-135255000D03*
D23*
%TO.P,D39,2,A*%
%TO.N,Net-(D39-Pad2)*%
X190500000Y-135255000D03*
%TD*%
D22*
%TO.P,D26,1,K*%
%TO.N,/KC4*%
X140970000Y-116205000D03*
D23*
%TO.P,D26,2,A*%
%TO.N,Net-(D26-Pad2)*%
X133350000Y-116205000D03*
%TD*%
D22*
%TO.P,D48,1,K*%
%TO.N,/KC7*%
X236220000Y-135255000D03*
D23*
%TO.P,D48,2,A*%
%TO.N,Net-(D48-Pad2)*%
X228600000Y-135255000D03*
%TD*%
D22*
%TO.P,D36,1,K*%
%TO.N,/KC5*%
X179070000Y-154305000D03*
D23*
%TO.P,D36,2,A*%
%TO.N,Net-(D36-Pad2)*%
X171450000Y-154305000D03*
%TD*%
D22*
%TO.P,D30,1,K*%
%TO.N,/KC4*%
X160020000Y-116205000D03*
D23*
%TO.P,D30,2,A*%
%TO.N,Net-(D30-Pad2)*%
X152400000Y-116205000D03*
%TD*%
D26*
%TO.N,/KR1*%
X215900000Y-158750000D02*
X214800001Y-157650001D01*
X214800001Y-157650001D02*
X214800001Y-147149999D01*
X214800001Y-147149999D02*
X215825900Y-146124100D01*
X215825900Y-146124100D02*
X215825900Y-142945900D01*
X85445000Y-83945000D02*
X85445000Y-85170100D01*
X81013100Y-89602000D02*
X81013100Y-102276200D01*
X81013100Y-102276200D02*
X82384521Y-103647621D01*
X85445000Y-85170100D02*
X81013100Y-89602000D01*
X82384521Y-103647621D02*
X82384521Y-120484521D01*
X82384521Y-120484521D02*
X82550000Y-120650000D01*
%TO.N,/KR5*%
X101600000Y-120650000D02*
X101600000Y-119558900D01*
X101600000Y-119558900D02*
X91023200Y-108982100D01*
X91023200Y-108982100D02*
X91023200Y-85250500D01*
X87877400Y-82104700D02*
X77125300Y-82104700D01*
X77125300Y-82104700D02*
X75285000Y-83945000D01*
X91023200Y-85250500D02*
X87877400Y-82104700D01*
%TO.N,/KC1*%
X66040000Y-119000100D02*
X64770000Y-117730100D01*
X64770000Y-117730100D02*
X64770000Y-116205000D01*
X64712900Y-122175200D02*
X66040000Y-120848100D01*
X66040000Y-120848100D02*
X66040000Y-119000100D01*
%TO.N,/KC0*%
X26670000Y-116205000D02*
X26670000Y-114679900D01*
X26670000Y-136780100D02*
X26947700Y-137057800D01*
X26670000Y-97155000D02*
X26670000Y-98680100D01*
X23854800Y-100923400D02*
X23854800Y-103882500D01*
X26612900Y-152722800D02*
X26670000Y-152779900D01*
X42265000Y-92174900D02*
X42265000Y-83945000D01*
X42265000Y-92174900D02*
X33175200Y-92174900D01*
X26670000Y-154305000D02*
X26670000Y-152779900D01*
X26670000Y-98680100D02*
X26098100Y-98680100D01*
X45720000Y-95629900D02*
X42265000Y-92174900D01*
X45720000Y-97155000D02*
X45720000Y-95629900D01*
X25400000Y-105427700D02*
X25400000Y-113409900D01*
X26612900Y-141277100D02*
X26612900Y-152722800D01*
X26098100Y-98680100D02*
X23854800Y-100923400D01*
X27373700Y-97155000D02*
X28195100Y-97155000D01*
X25400000Y-113409900D02*
X26670000Y-114679900D01*
X26947700Y-137057800D02*
X26947700Y-140942300D01*
X26947700Y-140942300D02*
X26612900Y-141277100D01*
X27373700Y-97155000D02*
X26670000Y-97155000D01*
X33175200Y-92174900D02*
X28195100Y-97155000D01*
X26670000Y-135255000D02*
X26670000Y-136780100D01*
X23854800Y-103882500D02*
X25400000Y-105427700D01*
%TO.N,Net-(D1-Pad2)*%
X19050000Y-97155000D02*
X19050000Y-104140000D01*
%TO.N,Net-(D2-Pad2)*%
X19050000Y-116205000D02*
X19050000Y-123190000D01*
%TO.N,Net-(D3-Pad2)*%
X19050000Y-135255000D02*
X19050000Y-142240000D01*
%TO.N,Net-(D4-Pad2)*%
X19050000Y-154305000D02*
X19050000Y-161290000D01*
%TO.N,Net-(D5-Pad2)*%
X38100000Y-97155000D02*
X38100000Y-104140000D01*
%TO.N,Net-(D6-Pad2)*%
X38100000Y-116205000D02*
X38100000Y-123190000D01*
%TO.N,/KC1*%
X65067200Y-142319400D02*
X65067200Y-137077300D01*
X58495500Y-113907400D02*
X61301900Y-116713800D01*
X58495500Y-105458600D02*
X58495500Y-113907400D01*
X61301900Y-120621400D02*
X62855700Y-122175200D01*
X64712900Y-133672800D02*
X64770000Y-133729900D01*
X46106000Y-140375300D02*
X46106000Y-137166100D01*
X64714300Y-152724200D02*
X64714300Y-142672300D01*
X64770000Y-154305000D02*
X64770000Y-152779900D01*
X64770000Y-135255000D02*
X64770000Y-136780100D01*
X45720000Y-135255000D02*
X45720000Y-136780100D01*
X62855700Y-122175200D02*
X64712900Y-122175200D01*
X64712900Y-122175200D02*
X64712900Y-133672800D01*
X64770000Y-152779900D02*
X64714300Y-152724200D01*
X45720000Y-154305000D02*
X45720000Y-140761300D01*
X64770000Y-97155000D02*
X64770000Y-98680100D01*
X46106000Y-137166100D02*
X45720000Y-136780100D01*
X64770000Y-98680100D02*
X64198100Y-98680100D01*
X61301900Y-116713800D02*
X61301900Y-120621400D01*
X45720000Y-140761300D02*
X46106000Y-140375300D01*
X60519700Y-102358500D02*
X60519700Y-103434400D01*
X64198100Y-98680100D02*
X60519700Y-102358500D01*
X64714300Y-142672300D02*
X65067200Y-142319400D01*
X65067200Y-137077300D02*
X64770000Y-136780100D01*
X60519700Y-103434400D02*
X58495500Y-105458600D01*
X64770000Y-135255000D02*
X64770000Y-133729900D01*
%TO.N,Net-(D7-Pad2)*%
X38100000Y-135255000D02*
X38100000Y-136780100D01*
X38100000Y-136780100D02*
X38227000Y-136907100D01*
X38227000Y-136907100D02*
X38227000Y-142240000D01*
%TO.N,Net-(D8-Pad2)*%
X38100000Y-154305000D02*
X38100000Y-161290000D01*
%TO.N,Net-(D9-Pad2)*%
X57150000Y-97155000D02*
X57150000Y-104140000D01*
%TO.N,Net-(D10-Pad2)*%
X57150000Y-116205000D02*
X57150000Y-123190000D01*
%TO.N,Net-(D11-Pad2)*%
X57150000Y-135255000D02*
X57150000Y-142240000D01*
%TO.N,Net-(D12-Pad2)*%
X57150000Y-154305000D02*
X57150000Y-161290000D01*
%TO.N,Net-(D13-Pad2)*%
X76200000Y-97155000D02*
X76200000Y-104140000D01*
%TO.N,Net-(D14-Pad2)*%
X76200000Y-116205000D02*
X76200000Y-123190000D01*
%TO.N,Net-(D15-Pad2)*%
X76200000Y-135255000D02*
X76200000Y-142240000D01*
%TO.N,Net-(D16-Pad2)*%
X76200000Y-154305000D02*
X76200000Y-161290000D01*
%TO.N,Net-(D17-Pad2)*%
X95250000Y-97155000D02*
X95250000Y-104140000D01*
%TO.N,Net-(D18-Pad2)*%
X95250000Y-116205000D02*
X95250000Y-123190000D01*
%TO.N,/KC3*%
X121864300Y-152724200D02*
X121864300Y-142672300D01*
X121348100Y-98680100D02*
X121920000Y-98680100D01*
X121920000Y-115442400D02*
X119118900Y-118243500D01*
X102812900Y-141277100D02*
X102812900Y-152722800D01*
X121920000Y-114679900D02*
X121914800Y-114674700D01*
X121200200Y-125310700D02*
X121200200Y-133010100D01*
X102812900Y-152722800D02*
X102870000Y-152779900D01*
X102870000Y-154305000D02*
X102870000Y-152779900D01*
X121914800Y-106163700D02*
X119091300Y-103340200D01*
X121914800Y-114674700D02*
X121914800Y-106163700D01*
X121920000Y-152779900D02*
X121864300Y-152724200D01*
X121920000Y-116205000D02*
X121920000Y-115442400D01*
X119118900Y-123229400D02*
X121200200Y-125310700D01*
X121920000Y-97155000D02*
X121920000Y-98680100D01*
X121920000Y-154305000D02*
X121920000Y-152779900D01*
X102870000Y-136780100D02*
X103131100Y-137041200D01*
X121200200Y-133010100D02*
X121920000Y-133729900D01*
X121864300Y-142672300D02*
X122217200Y-142319400D01*
X119091300Y-100936900D02*
X121348100Y-98680100D01*
X103131100Y-140958900D02*
X102812900Y-141277100D01*
X121920000Y-135255000D02*
X121920000Y-133729900D01*
X121920000Y-135255000D02*
X121920000Y-136780100D01*
X103131100Y-137041200D02*
X103131100Y-140958900D01*
X121920000Y-115442400D02*
X121920000Y-114679900D01*
X102870000Y-135255000D02*
X102870000Y-136780100D01*
X122217200Y-137077300D02*
X121920000Y-136780100D01*
X122217200Y-142319400D02*
X122217200Y-137077300D01*
X119118900Y-118243500D02*
X119118900Y-123229400D01*
X119091300Y-103340200D02*
X119091300Y-100936900D01*
%TO.N,Net-(D19-Pad2)*%
X95250000Y-135255000D02*
X95250000Y-142240000D01*
%TO.N,Net-(D20-Pad2)*%
X95250000Y-154305000D02*
X95250000Y-161290000D01*
%TO.N,Net-(D21-Pad2)*%
X114300000Y-97155000D02*
X114300000Y-104140000D01*
%TO.N,Net-(D22-Pad2)*%
X114300000Y-116205000D02*
X114300000Y-123190000D01*
%TO.N,Net-(D23-Pad2)*%
X114300000Y-135255000D02*
X114300000Y-142240000D01*
%TO.N,Net-(D24-Pad2)*%
X114300000Y-154305000D02*
X114300000Y-161290000D01*
%TO.N,Net-(D25-Pad2)*%
X133350000Y-97155000D02*
X133350000Y-104140000D01*
%TO.N,Net-(D26-Pad2)*%
X133350000Y-116205000D02*
X133350000Y-123190000D01*
%TO.N,Net-(D27-Pad2)*%
X133350000Y-135255000D02*
X133350000Y-142240000D01*
%TO.N,Net-(D28-Pad2)*%
X133350000Y-154305000D02*
X133350000Y-161290000D01*
%TO.N,Net-(D29-Pad2)*%
X152400000Y-97155000D02*
X152400000Y-104140000D01*
%TO.N,Net-(D30-Pad2)*%
X152400000Y-116205000D02*
X152400000Y-123190000D01*
%TO.N,/KC5*%
X160020000Y-154305000D02*
X160020000Y-152779900D01*
X160317200Y-142319400D02*
X160317200Y-137077300D01*
X178498100Y-117730100D02*
X179070000Y-117730100D01*
X176241300Y-100936900D02*
X178498100Y-98680100D01*
X159964300Y-152724200D02*
X159964300Y-142672300D01*
X179070000Y-116205000D02*
X179070000Y-114679900D01*
X179064800Y-114674700D02*
X179064800Y-106163700D01*
X179064800Y-133724700D02*
X179064800Y-125213700D01*
X179070000Y-152779900D02*
X178995700Y-152705600D01*
X178498100Y-98680100D02*
X179070000Y-98680100D01*
X179070000Y-133729900D02*
X179064800Y-133724700D01*
X179070000Y-97155000D02*
X179070000Y-98680100D01*
X160020000Y-152779900D02*
X159964300Y-152724200D01*
X160317200Y-137077300D02*
X160020000Y-136780100D01*
X179070000Y-135255000D02*
X179070000Y-136780100D01*
X160020000Y-135255000D02*
X160020000Y-136780100D01*
X179070000Y-135255000D02*
X179070000Y-133729900D01*
X179064800Y-125213700D02*
X176241300Y-122390200D01*
X176241300Y-103340200D02*
X176241300Y-100936900D01*
X176241300Y-119986900D02*
X178498100Y-117730100D01*
X179064800Y-106163700D02*
X176241300Y-103340200D01*
X179376500Y-140569100D02*
X179376500Y-137086600D01*
X176241300Y-122390200D02*
X176241300Y-119986900D01*
X178995700Y-152705600D02*
X178995700Y-140949900D01*
X159964300Y-142672300D02*
X160317200Y-142319400D01*
X178995700Y-140949900D02*
X179376500Y-140569100D01*
X179070000Y-116205000D02*
X179070000Y-117730100D01*
X179376500Y-137086600D02*
X179070000Y-136780100D01*
X179070000Y-154305000D02*
X179070000Y-152779900D01*
X179070000Y-114679900D02*
X179064800Y-114674700D01*
%TO.N,Net-(D31-Pad2)*%
X152400000Y-135255000D02*
X152400000Y-142240000D01*
%TO.N,Net-(D32-Pad2)*%
X152400000Y-154305000D02*
X152400000Y-161290000D01*
%TO.N,Net-(D33-Pad2)*%
X171450000Y-97155000D02*
X171450000Y-104140000D01*
%TO.N,Net-(D34-Pad2)*%
X171450000Y-116205000D02*
X171450000Y-123190000D01*
%TO.N,Net-(D35-Pad2)*%
X171450000Y-135255000D02*
X171450000Y-142240000D01*
%TO.N,Net-(D36-Pad2)*%
X171450000Y-154305000D02*
X171450000Y-161290000D01*
%TO.N,/KC6*%
X214341300Y-103340200D02*
X214341300Y-100034000D01*
X201170200Y-95629900D02*
X199645100Y-97155000D01*
X198120000Y-97155000D02*
X199645100Y-97155000D01*
X198120000Y-136017500D02*
X198120000Y-136780100D01*
X198397700Y-140942300D02*
X198062900Y-141277100D01*
X198062900Y-141277100D02*
X198062900Y-152722800D01*
X217164800Y-106163700D02*
X214341300Y-103340200D01*
X215970500Y-99879600D02*
X217170000Y-98680100D01*
X198114800Y-133724700D02*
X198114800Y-125213700D01*
X198114800Y-125213700D02*
X195291300Y-122390200D01*
X214341300Y-100034000D02*
X214495700Y-99879600D01*
X217170000Y-116205000D02*
X217170000Y-114679900D01*
X214495700Y-99879600D02*
X215970500Y-99879600D01*
X197548100Y-117730100D02*
X198120000Y-117730100D01*
X198120000Y-116205000D02*
X198120000Y-117730100D01*
X198120000Y-133729900D02*
X198114800Y-133724700D01*
X217170000Y-97155000D02*
X217170000Y-98680100D01*
X217164800Y-114674700D02*
X217164800Y-106163700D01*
X214495700Y-99879600D02*
X210246000Y-95629900D01*
X198120000Y-135255000D02*
X198120000Y-133729900D01*
X195291300Y-119986900D02*
X197548100Y-117730100D01*
X198120000Y-136780100D02*
X198397700Y-137057800D01*
X198397700Y-137057800D02*
X198397700Y-140942300D01*
X217170000Y-114679900D02*
X217164800Y-114674700D01*
X198062900Y-152722800D02*
X198120000Y-152779900D01*
X210246000Y-95629900D02*
X201170200Y-95629900D01*
X198120000Y-136017500D02*
X198120000Y-135255000D01*
X198120000Y-154305000D02*
X198120000Y-152779900D01*
X195291300Y-122390200D02*
X195291300Y-119986900D01*
%TO.N,Net-(D37-Pad2)*%
X190500000Y-97155000D02*
X190500000Y-104140000D01*
%TO.N,Net-(D38-Pad2)*%
X190500000Y-116205000D02*
X190500000Y-123190000D01*
%TO.N,Net-(D39-Pad2)*%
X190500000Y-135255000D02*
X190500000Y-142240000D01*
%TO.N,Net-(D40-Pad2)*%
X190500000Y-154305000D02*
X190500000Y-161290000D01*
%TO.N,Net-(D41-Pad2)*%
X209550000Y-97155000D02*
X209550000Y-104140000D01*
%TO.N,Net-(D42-Pad2)*%
X209550000Y-116205000D02*
X209550000Y-123190000D01*
%TO.N,/KC7*%
X236504600Y-118014700D02*
X236220000Y-117730100D01*
X236162900Y-114622800D02*
X236220000Y-114679900D01*
X236478000Y-102862000D02*
X236162900Y-103177100D01*
X217170000Y-135128000D02*
X217170000Y-136653100D01*
X236141000Y-122481200D02*
X236504600Y-122117600D01*
X236162900Y-141277100D02*
X236162900Y-152722800D01*
X236478000Y-98938100D02*
X236478000Y-102862000D01*
X236220000Y-97155000D02*
X236220000Y-98680100D01*
X236479700Y-134752100D02*
X236479700Y-140960300D01*
X217170000Y-154305000D02*
X217170000Y-152779900D01*
X217170000Y-152779900D02*
X217114300Y-152724200D01*
X236220000Y-116205000D02*
X236220000Y-117730100D01*
X217467200Y-136950300D02*
X217170000Y-136653100D01*
X217467200Y-142319400D02*
X217467200Y-136950300D01*
X236479700Y-140960300D02*
X236162900Y-141277100D01*
X236220000Y-134492400D02*
X236479700Y-134752100D01*
X217114300Y-152724200D02*
X217114300Y-142672300D01*
X236141000Y-133650900D02*
X236141000Y-122481200D01*
X217114300Y-142672300D02*
X217467200Y-142319400D01*
X236220000Y-98680100D02*
X236478000Y-98938100D01*
X236220000Y-135255000D02*
X236220000Y-134492400D01*
X236220000Y-154305000D02*
X236220000Y-152779900D01*
X236162900Y-103177100D02*
X236162900Y-114622800D01*
X236504600Y-122117600D02*
X236504600Y-118014700D01*
X236220000Y-116205000D02*
X236220000Y-114679900D01*
X236220000Y-134492400D02*
X236220000Y-133729900D01*
X236162900Y-152722800D02*
X236220000Y-152779900D01*
X236220000Y-133729900D02*
X236141000Y-133650900D01*
%TO.N,Net-(D43-Pad2)*%
X209550000Y-135128000D02*
X209550000Y-142240000D01*
%TO.N,Net-(D44-Pad2)*%
X209550000Y-154305000D02*
X209550000Y-161290000D01*
%TO.N,Net-(D45-Pad2)*%
X228600000Y-154305000D02*
X228600000Y-161290000D01*
%TO.N,Net-(D46-Pad2)*%
X228600000Y-97155000D02*
X228600000Y-104140000D01*
%TO.N,Net-(D47-Pad2)*%
X228600000Y-116205000D02*
X228600000Y-123190000D01*
%TO.N,Net-(D48-Pad2)*%
X228600000Y-135255000D02*
X228600000Y-142240000D01*
%TO.N,/PB2*%
X84130100Y-68705000D02*
X84130100Y-68279900D01*
X87174900Y-65235100D02*
X88195000Y-65235100D01*
X84130100Y-68279900D02*
X87174900Y-65235100D01*
X82905000Y-68705000D02*
X84130100Y-68705000D01*
X88195000Y-63960000D02*
X88195000Y-65235100D01*
%TO.N,/PB3*%
X85655000Y-63960000D02*
X85655000Y-65235100D01*
X80365000Y-68705000D02*
X81590100Y-68705000D01*
X81590100Y-68705000D02*
X81590100Y-68279900D01*
X81590100Y-68279900D02*
X84634900Y-65235100D01*
X84634900Y-65235100D02*
X85655000Y-65235100D01*
%TO.N,Net-(C1-Pad2)*%
X64190000Y-59080000D02*
X60014500Y-54904500D01*
X64190000Y-63010000D02*
X64190000Y-59080000D01*
X55554800Y-55671000D02*
X55554800Y-65529700D01*
X64115000Y-63085000D02*
X64190000Y-63010000D01*
X60014500Y-54904500D02*
X56321300Y-54904500D01*
X55554800Y-65529700D02*
X57505000Y-67479900D01*
X56321300Y-54904500D02*
X55554800Y-55671000D01*
X57505000Y-68705000D02*
X57505000Y-67479900D01*
%TO.N,/MOSI*%
X75285000Y-68705000D02*
X76510100Y-68705000D01*
X79554900Y-65235100D02*
X80575000Y-65235100D01*
X76510100Y-68705000D02*
X76510100Y-68279900D01*
X80575000Y-63960000D02*
X80575000Y-65235100D01*
X76510100Y-68279900D02*
X79554900Y-65235100D01*
%TO.N,/KR0*%
X25950100Y-102150100D02*
X25400000Y-101600000D01*
X147774300Y-109674300D02*
X139700000Y-101600000D01*
X28664800Y-111028100D02*
X25950100Y-108313400D01*
X200034400Y-109216300D02*
X200034400Y-122326600D01*
X196850000Y-106031900D02*
X200034400Y-109216300D01*
X215900000Y-138192200D02*
X215900000Y-139700000D01*
X87985000Y-124224000D02*
X101600000Y-137839000D01*
X44577000Y-139700000D02*
X44577000Y-138043500D01*
X28664800Y-122131300D02*
X28664800Y-111028100D01*
X87985000Y-101600000D02*
X87985000Y-124224000D01*
X196850000Y-101600000D02*
X196850000Y-106031900D01*
X147774300Y-126863200D02*
X147774300Y-109674300D01*
X101600000Y-137839000D02*
X101600000Y-139700000D01*
X25950100Y-108313400D02*
X25950100Y-102150100D01*
X158750000Y-139700000D02*
X158750000Y-137838900D01*
X44577000Y-138043500D02*
X28664800Y-122131300D01*
X87985000Y-101600000D02*
X82550000Y-101600000D01*
X87985000Y-83945000D02*
X87985000Y-101600000D01*
X200034400Y-122326600D02*
X215900000Y-138192200D01*
X158750000Y-137838900D02*
X147774300Y-126863200D01*
%TO.N,/MISO*%
X79170000Y-55330000D02*
X79170000Y-57840000D01*
X68935000Y-69189700D02*
X69718200Y-69972900D01*
X73970100Y-68705000D02*
X73970100Y-68279900D01*
X68935000Y-68075000D02*
X68935000Y-69189700D01*
X71477100Y-69972900D02*
X72745000Y-68705000D01*
X73970100Y-68279900D02*
X77014900Y-65235100D01*
X69718200Y-69972900D02*
X71477100Y-69972900D01*
X77014900Y-65235100D02*
X78035000Y-65235100D01*
X72745000Y-68705000D02*
X73970100Y-68705000D01*
X79170000Y-57840000D02*
X68935000Y-68075000D01*
X78035000Y-63960000D02*
X78035000Y-65235100D01*
%TO.N,Net-(C2-Pad2)*%
X68940000Y-59060000D02*
X64200500Y-54320500D01*
X58097100Y-69935500D02*
X58819900Y-69212700D01*
X56235000Y-66988000D02*
X56235000Y-69227300D01*
X54965000Y-55371600D02*
X54965000Y-65718000D01*
X64200500Y-54320500D02*
X56016100Y-54320500D01*
X60045000Y-68705000D02*
X58819900Y-68705000D01*
X56943200Y-69935500D02*
X58097100Y-69935500D01*
X68995000Y-63085000D02*
X68940000Y-63030000D01*
X68940000Y-63030000D02*
X68940000Y-59060000D01*
X56235000Y-69227300D02*
X56943200Y-69935500D01*
X58819900Y-69212700D02*
X58819900Y-68705000D01*
X56016100Y-54320500D02*
X54965000Y-55371600D01*
X54965000Y-65718000D02*
X56235000Y-66988000D01*
%TO.N,/~RESET*%
X80445100Y-50250000D02*
X81868100Y-50250000D01*
X79170000Y-50250000D02*
X80445100Y-50250000D01*
X97660000Y-73600000D02*
X97170000Y-73110000D01*
X81868100Y-50250000D02*
X96044900Y-64426800D01*
X96044900Y-64426800D02*
X96044900Y-65130000D01*
X97170000Y-73110000D02*
X97170000Y-65130000D01*
X97170000Y-65130000D02*
X96044900Y-65130000D01*
%TO.N,/KC2*%
X84096800Y-124872300D02*
X83778900Y-125190200D01*
X84087000Y-142092800D02*
X83814800Y-142365000D01*
X102870000Y-116205000D02*
X102870000Y-114679900D01*
X83820000Y-116205000D02*
X83820000Y-117730100D01*
X102814300Y-114624200D02*
X102814300Y-104572300D01*
X84096800Y-118006900D02*
X84096800Y-124872300D01*
X83778900Y-133688800D02*
X83820000Y-133729900D01*
X102870000Y-114679900D02*
X102814300Y-114624200D01*
X83820000Y-135255000D02*
X83820000Y-136780100D01*
X83778900Y-125190200D02*
X83778900Y-133688800D01*
X102814300Y-104572300D02*
X103167200Y-104219400D01*
X83820000Y-154305000D02*
X83820000Y-152779900D01*
X83814800Y-152774700D02*
X83820000Y-152779900D01*
X83820000Y-135255000D02*
X83820000Y-133729900D01*
X103167200Y-104219400D02*
X103167200Y-98977300D01*
X83814800Y-142365000D02*
X83814800Y-152774700D01*
X103167200Y-98977300D02*
X102870000Y-98680100D01*
X83820000Y-117730100D02*
X84096800Y-118006900D01*
X102870000Y-97155000D02*
X102870000Y-98680100D01*
X83820000Y-136780100D02*
X84087000Y-137047100D01*
X84087000Y-137047100D02*
X84087000Y-142092800D01*
%TO.N,/KC4*%
X141267200Y-142319400D02*
X141267200Y-137077300D01*
X141268300Y-121871700D02*
X140912900Y-122227100D01*
X160020000Y-97155000D02*
X160020000Y-98680100D01*
X160020000Y-116205000D02*
X160020000Y-114679900D01*
X159950400Y-104917300D02*
X160278400Y-104589300D01*
X159950400Y-114610300D02*
X159950400Y-104917300D01*
X140970000Y-135255000D02*
X140970000Y-136780100D01*
X140914300Y-142672300D02*
X141267200Y-142319400D01*
X140912900Y-122227100D02*
X140912900Y-133672800D01*
X140912900Y-133672800D02*
X140970000Y-133729900D01*
X140970000Y-152779900D02*
X140914300Y-152724200D01*
X140914300Y-152724200D02*
X140914300Y-142672300D01*
X160020000Y-114679900D02*
X159950400Y-114610300D01*
X140970000Y-116205000D02*
X140970000Y-117730100D01*
X140970000Y-135255000D02*
X140970000Y-133729900D01*
X141268300Y-118028400D02*
X141268300Y-121871700D01*
X140970000Y-117730100D02*
X141268300Y-118028400D01*
X140970000Y-154305000D02*
X140970000Y-152779900D01*
X141267200Y-137077300D02*
X140970000Y-136780100D01*
X160278400Y-104589300D02*
X160278400Y-98938500D01*
X160278400Y-98938500D02*
X160020000Y-98680100D01*
D27*
%TO.N,VCC*%
X56780000Y-58185100D02*
X58380100Y-58185100D01*
X65125000Y-68705000D02*
X65125000Y-67104900D01*
X67613000Y-66702300D02*
X65497200Y-66702300D01*
X65497200Y-66732700D02*
X65125000Y-67104900D01*
X58380100Y-59585200D02*
X58380100Y-58185100D01*
X65497200Y-66702300D02*
X65497200Y-66732700D01*
X76630000Y-55330000D02*
X76630000Y-57685300D01*
X76630000Y-57685300D02*
X67613000Y-66702300D01*
X65497200Y-66702300D02*
X58380100Y-59585200D01*
%TO.N,GND*%
X75805000Y-50250000D02*
X77460900Y-48594100D01*
X28575000Y-72495200D02*
X28575000Y-72390000D01*
X77460900Y-48594100D02*
X82755600Y-48594100D01*
X18059100Y-60520000D02*
X17280000Y-60520000D01*
X75805000Y-50250000D02*
X74979900Y-50250000D01*
X76630000Y-50250000D02*
X75805000Y-50250000D01*
X28575000Y-71035900D02*
X18059100Y-60520000D01*
X28575000Y-72390000D02*
X28575000Y-71035900D01*
X62144900Y-89590000D02*
X65125000Y-86609900D01*
X68940000Y-56560000D02*
X74979900Y-50520100D01*
X20800000Y-83640000D02*
X20800000Y-78122500D01*
X22947700Y-78122500D02*
X28575000Y-72495200D01*
X62585000Y-79804900D02*
X65125000Y-82344900D01*
X62585000Y-68705000D02*
X62585000Y-70305100D01*
X65125000Y-83945000D02*
X65125000Y-82344900D01*
X104010000Y-69848500D02*
X104010000Y-71060000D01*
X20800000Y-78122500D02*
X22947700Y-78122500D01*
X65125000Y-86609900D02*
X65125000Y-83945000D01*
X20800000Y-78122500D02*
X20400000Y-77722500D01*
X82755600Y-48594100D02*
X104010000Y-69848500D01*
X74979900Y-50520100D02*
X74979900Y-50250000D01*
X62585000Y-70305100D02*
X62585000Y-79804900D01*
D26*
%TO.N,/PB4*%
X79050100Y-68705000D02*
X79050100Y-68279900D01*
X79050100Y-68279900D02*
X82094900Y-65235100D01*
X83115000Y-63960000D02*
X83115000Y-65235100D01*
X77825000Y-68705000D02*
X79050100Y-68705000D01*
X82094900Y-65235100D02*
X83115000Y-65235100D01*
%TO.N,/PB7*%
X71430100Y-68279900D02*
X74474900Y-65235100D01*
X74474900Y-65235100D02*
X75495000Y-65235100D01*
X79170000Y-52790000D02*
X80445200Y-54065200D01*
X75495000Y-63960000D02*
X75495000Y-62684900D01*
X70205000Y-68705000D02*
X71430100Y-68705000D01*
X80445200Y-54065200D02*
X80445200Y-57734700D01*
X71430100Y-68705000D02*
X71430100Y-68279900D01*
X80445200Y-57734700D02*
X75495000Y-62684900D01*
X75495000Y-63960000D02*
X75495000Y-65235100D01*
%TO.N,/KR5*%
X48826700Y-142215600D02*
X48826700Y-125026700D01*
X63500000Y-158750000D02*
X63500000Y-156888900D01*
X81810600Y-155830200D02*
X78760200Y-152779800D01*
X158750000Y-120650000D02*
X168847500Y-130747500D01*
X78760200Y-152779800D02*
X75568300Y-152779800D01*
X168847500Y-148192000D02*
X177800000Y-157144500D01*
X104864800Y-141103800D02*
X104864800Y-130856100D01*
X216199500Y-120650000D02*
X234950000Y-139400500D01*
X71459200Y-156888900D02*
X63500000Y-156888900D01*
X120650000Y-158750000D02*
X120650000Y-158488300D01*
X177800000Y-157144500D02*
X177800000Y-158750000D01*
X75568300Y-152779800D02*
X71459200Y-156888900D01*
X63500000Y-156888900D02*
X48826700Y-142215600D01*
X168847500Y-130747500D02*
X168847500Y-148192000D01*
X90673600Y-152779800D02*
X87623200Y-155830200D01*
X111071800Y-148910000D02*
X104151600Y-155830200D01*
X101600000Y-127591300D02*
X101600000Y-120650000D01*
X48826700Y-125026700D02*
X44450000Y-120650000D01*
X120650000Y-158488300D02*
X111071800Y-148910000D01*
X234950000Y-139400500D02*
X234950000Y-139700000D01*
X104151600Y-155830200D02*
X100860600Y-155830200D01*
X111071800Y-148910000D02*
X111071800Y-147310800D01*
X111071800Y-147310800D02*
X104864800Y-141103800D01*
X215900000Y-120650000D02*
X216199500Y-120650000D01*
X104864800Y-130856100D02*
X101600000Y-127591300D01*
X97810200Y-152779800D02*
X90673600Y-152779800D01*
X87623200Y-155830200D02*
X81810600Y-155830200D01*
X100860600Y-155830200D02*
X97810200Y-152779800D01*
%TO.N,/KR4*%
X234950000Y-120350500D02*
X234950000Y-120650000D01*
X44450000Y-101600000D02*
X50420200Y-95629800D01*
X101600000Y-111199300D02*
X101600000Y-101600000D01*
X62866800Y-95629800D02*
X74015000Y-84481600D01*
X158494800Y-118225100D02*
X177800000Y-137530300D01*
X44194800Y-118183600D02*
X44194800Y-111454500D01*
X77825000Y-85170100D02*
X74703500Y-85170100D01*
X63500000Y-137488800D02*
X44194800Y-118183600D01*
X158750000Y-101600000D02*
X158750000Y-111199300D01*
X101268900Y-94716500D02*
X101268900Y-101268900D01*
X216199500Y-101600000D02*
X234950000Y-120350500D01*
X101344800Y-111454500D02*
X101600000Y-111199300D01*
X75881600Y-81529800D02*
X88082200Y-81529800D01*
X215900000Y-101600000D02*
X216199500Y-101600000D01*
X74015000Y-83396400D02*
X75881600Y-81529800D01*
X44450000Y-111199300D02*
X44450000Y-101600000D01*
X88082200Y-81529800D02*
X101268900Y-94716500D01*
X77825000Y-83945000D02*
X77825000Y-85170100D01*
X44194800Y-111454500D02*
X44450000Y-111199300D01*
X101268900Y-101268900D02*
X101600000Y-101600000D01*
X177800000Y-137530300D02*
X177800000Y-139700000D01*
X120650000Y-139700000D02*
X120650000Y-137488800D01*
X74015000Y-84481600D02*
X74015000Y-83396400D01*
X63500000Y-139700000D02*
X63500000Y-137488800D01*
X158750000Y-111199300D02*
X158494800Y-111454500D01*
X120650000Y-137488800D02*
X101344800Y-118183600D01*
X74703500Y-85170100D02*
X74015000Y-84481600D01*
X50420200Y-95629800D02*
X62866800Y-95629800D01*
X158494800Y-111454500D02*
X158494800Y-118225100D01*
X101344800Y-118183600D02*
X101344800Y-111454500D01*
%TO.N,/KR3*%
X80365000Y-89472000D02*
X80365000Y-83945000D01*
X187897500Y-130747500D02*
X187897500Y-148192000D01*
X196850000Y-157144500D02*
X196850000Y-158750000D01*
X63500000Y-120650000D02*
X63230400Y-120380400D01*
X139700000Y-158750000D02*
X139700000Y-156888900D01*
X63230400Y-111551800D02*
X73557800Y-101224400D01*
X187897500Y-148192000D02*
X196850000Y-157144500D01*
X73557800Y-101224400D02*
X73557800Y-96279200D01*
X126646500Y-126646500D02*
X120650000Y-120650000D01*
X73557800Y-96279200D02*
X80365000Y-89472000D01*
X126646500Y-143835400D02*
X126646500Y-126646500D01*
X177800000Y-120650000D02*
X187897500Y-130747500D01*
X63230400Y-120380400D02*
X63230400Y-111551800D01*
X139700000Y-156888900D02*
X126646500Y-143835400D01*
%TO.N,/KR2*%
X130747500Y-129142000D02*
X139700000Y-138094500D01*
X187897500Y-129850200D02*
X196850000Y-138802700D01*
X79095000Y-86005000D02*
X63500000Y-101600000D01*
X81679900Y-83485600D02*
X80902500Y-82708200D01*
X130747500Y-111697500D02*
X130747500Y-129142000D01*
X120650000Y-101600000D02*
X130747500Y-111697500D01*
X81679900Y-83945000D02*
X81679900Y-83485600D01*
X187897500Y-111697500D02*
X187897500Y-129850200D01*
X80902500Y-82708200D02*
X79990000Y-82708200D01*
X177800000Y-101600000D02*
X187897500Y-111697500D01*
X196850000Y-138802700D02*
X196850000Y-139700000D01*
X79990000Y-82708200D02*
X79095000Y-83603200D01*
X82905000Y-83945000D02*
X81679900Y-83945000D01*
X139700000Y-138094500D02*
X139700000Y-139700000D01*
X79095000Y-83603200D02*
X79095000Y-86005000D01*
%TO.N,/KR1*%
X197295400Y-120650000D02*
X213810800Y-137165400D01*
X213810800Y-137165400D02*
X213810800Y-140930800D01*
X196850000Y-120650000D02*
X197295400Y-120650000D01*
X28664800Y-128348700D02*
X25950100Y-125634000D01*
X25950100Y-121200100D02*
X25400000Y-120650000D01*
X44450000Y-158750000D02*
X44450000Y-156519400D01*
X25950100Y-125634000D02*
X25950100Y-121200100D01*
X44450000Y-156519400D02*
X28664800Y-140734200D01*
X82550000Y-120650000D02*
X82294800Y-120394800D01*
X28664800Y-140734200D02*
X28664800Y-128348700D01*
X213810800Y-140930800D02*
X215825900Y-142945900D01*
%TO.N,Net-(D49-Pad1)*%
X28575000Y-68435100D02*
X31204800Y-71064900D01*
X28575000Y-67310000D02*
X28575000Y-68435100D01*
X32385000Y-72390000D02*
X32385000Y-71064900D01*
X31204800Y-71064900D02*
X32385000Y-71064900D01*
%TO.N,Net-(C3-Pad1)*%
X62693900Y-90824600D02*
X67665000Y-85853500D01*
X60144900Y-89590000D02*
X61379500Y-90824600D01*
X67665000Y-85853500D02*
X67665000Y-83945000D01*
X61379500Y-90824600D02*
X62693900Y-90824600D01*
%TO.N,/PD0*%
X54965000Y-68705000D02*
X54965000Y-67479900D01*
X53370000Y-65884900D02*
X54965000Y-67479900D01*
X53370000Y-62020000D02*
X53370000Y-63295100D01*
X53370000Y-63295100D02*
X53370000Y-65884900D01*
%TO.N,/PD1*%
X52425000Y-64890100D02*
X50830000Y-63295100D01*
X52425000Y-68705000D02*
X52425000Y-64890100D01*
X50830000Y-62020000D02*
X50830000Y-63295100D01*
%TO.N,/PD2*%
X49885000Y-64890100D02*
X48290000Y-63295100D01*
X48290000Y-62020000D02*
X48290000Y-63295100D01*
X49885000Y-68705000D02*
X49885000Y-64890100D01*
%TO.N,/PD3*%
X45750000Y-62020000D02*
X45750000Y-63295100D01*
X47345000Y-68705000D02*
X47345000Y-64890100D01*
X47345000Y-64890100D02*
X45750000Y-63295100D01*
%TO.N,/PD4*%
X44805000Y-64890100D02*
X43210000Y-63295100D01*
X43210000Y-62020000D02*
X43210000Y-63295100D01*
X44805000Y-68705000D02*
X44805000Y-64890100D01*
%TO.N,/PD5*%
X40670000Y-62020000D02*
X40670000Y-63295100D01*
X42265000Y-68705000D02*
X42265000Y-64890100D01*
X42265000Y-64890100D02*
X40670000Y-63295100D01*
%TO.N,/PD6*%
X39725000Y-68705000D02*
X39725000Y-64890100D01*
X38130000Y-62020000D02*
X38130000Y-63295100D01*
X39725000Y-64890100D02*
X38130000Y-63295100D01*
%TO.N,/PD7*%
X35590000Y-69249900D02*
X35590000Y-62020000D01*
X39725000Y-83945000D02*
X39725000Y-73384900D01*
X39725000Y-73384900D02*
X35590000Y-69249900D01*
%TD*%
M02*
