%TF.GenerationSoftware,KiCad,Pcbnew,(6.0.0-0)*%
%TF.CreationDate,2022-08-21T16:01:53-04:00*%
%TF.ProjectId,justin-freetracing,6a757374-696e-42d6-9672-656574726163,rev?*%
%TF.SameCoordinates,Original*%
%TF.FileFunction,Copper,L1,Top*%
%TF.FilePolarity,Positive*%
%FSLAX46Y46*%
G04 Gerber Fmt 4.6, Leading zero omitted, Abs format (unit mm)*
G04 Created by KiCad (PCBNEW (6.0.0-0)) date 2022-08-21 16:01:53*
%MOMM*%
%LPD*%
G01*
G04 APERTURE LIST*
G04 Aperture macros list*
%AMRoundRect*
0 Rectangle with rounded corners*
0 $1 Rounding radius*
0 $2 $3 $4 $5 $6 $7 $8 $9 X,Y pos of 4 corners*
0 Add a 4 corners polygon primitive as box body*
4,1,4,$2,$3,$4,$5,$6,$7,$8,$9,$2,$3,0*
0 Add four circle primitives for the rounded corners*
1,1,$1+$1,$2,$3*
1,1,$1+$1,$4,$5*
1,1,$1+$1,$6,$7*
1,1,$1+$1,$8,$9*
0 Add four rect primitives between the rounded corners*
20,1,$1+$1,$2,$3,$4,$5,0*
20,1,$1+$1,$4,$5,$6,$7,0*
20,1,$1+$1,$6,$7,$8,$9,0*
20,1,$1+$1,$8,$9,$2,$3,0*%
G04 Aperture macros list end*
%TA.AperFunction,ComponentPad*%
%ADD10C,2.200000*%
%TD*%
%TA.AperFunction,ComponentPad*%
%ADD11R,1.700000X1.700000*%
%TD*%
%TA.AperFunction,ComponentPad*%
%ADD12O,1.700000X1.700000*%
%TD*%
%TA.AperFunction,ComponentPad*%
%ADD13R,1.600000X1.600000*%
%TD*%
%TA.AperFunction,ComponentPad*%
%ADD14C,1.600000*%
%TD*%
%TA.AperFunction,ComponentPad*%
%ADD15O,1.600000X1.600000*%
%TD*%
%TA.AperFunction,ComponentPad*%
%ADD16R,1.800000X1.800000*%
%TD*%
%TA.AperFunction,ComponentPad*%
%ADD17C,1.800000*%
%TD*%
%TA.AperFunction,ComponentPad*%
%ADD18R,3.500000X3.500000*%
%TD*%
%TA.AperFunction,ComponentPad*%
%ADD19RoundRect,0.750000X-0.750000X-1.000000X0.750000X-1.000000X0.750000X1.000000X-0.750000X1.000000X0*%
%TD*%
%TA.AperFunction,ComponentPad*%
%ADD20RoundRect,0.875000X-0.875000X-0.875000X0.875000X-0.875000X0.875000X0.875000X-0.875000X0.875000X0*%
%TD*%
%TA.AperFunction,ComponentPad*%
%ADD21C,1.500000*%
%TD*%
%TA.AperFunction,ComponentPad*%
%ADD22R,2.200000X2.200000*%
%TD*%
%TA.AperFunction,ComponentPad*%
%ADD23O,2.200000X2.200000*%
%TD*%
%TA.AperFunction,ComponentPad*%
%ADD24C,1.400000*%
%TD*%
%TA.AperFunction,ComponentPad*%
%ADD25O,1.400000X1.400000*%
%TD*%
%TA.AperFunction,Conductor*%
%ADD26C,0.250000*%
%TD*%
%TA.AperFunction,Conductor*%
%ADD27C,1.000000*%
%TD*%
G04 APERTURE END LIST*
D10*
%TO.P,K27,1,1*%
%TO.N,/KR2*%
X139700000Y-139700000D03*
%TO.P,K27,2,2*%
%TO.N,Net-(D27-Pad2)*%
X133350000Y-142240000D03*
%TD*%
%TO.P,K6,1,1*%
%TO.N,/KR5*%
X44450000Y-120650000D03*
%TO.P,K6,2,2*%
%TO.N,Net-(D6-Pad2)*%
X38100000Y-123190000D03*
%TD*%
%TO.P,K26,1,1*%
%TO.N,/KR1*%
X139700000Y-120650000D03*
%TO.P,K26,2,2*%
%TO.N,Net-(D26-Pad2)*%
X133350000Y-123190000D03*
%TD*%
%TO.P,K25,1,1*%
%TO.N,/KR0*%
X139700000Y-101600000D03*
%TO.P,K25,2,2*%
%TO.N,Net-(D25-Pad2)*%
X133350000Y-104140000D03*
%TD*%
D11*
%TO.P,J3,1,Pin_1*%
%TO.N,/PB0*%
X93275000Y-63960000D03*
D12*
%TO.P,J3,2,Pin_2*%
%TO.N,/PB1*%
X90735000Y-63960000D03*
%TO.P,J3,3,Pin_3*%
%TO.N,/PB2*%
X88195000Y-63960000D03*
%TO.P,J3,4,Pin_4*%
%TO.N,/PB3*%
X85655000Y-63960000D03*
%TO.P,J3,5,Pin_5*%
%TO.N,/PB4*%
X83115000Y-63960000D03*
%TO.P,J3,6,Pin_6*%
%TO.N,/MOSI*%
X80575000Y-63960000D03*
%TO.P,J3,7,Pin_7*%
%TO.N,/MISO*%
X78035000Y-63960000D03*
%TO.P,J3,8,Pin_8*%
%TO.N,/PB7*%
X75495000Y-63960000D03*
%TD*%
D13*
%TO.P,C5,1*%
%TO.N,VCC*%
X17280000Y-62520000D03*
D14*
%TO.P,C5,2*%
%TO.N,GND*%
X17280000Y-60520000D03*
%TD*%
D13*
%TO.P,U1,1,PB0*%
%TO.N,/PB0*%
X87985000Y-68705000D03*
D15*
%TO.P,U1,2,PB1*%
%TO.N,/PB1*%
X85445000Y-68705000D03*
%TO.P,U1,3,PB2*%
%TO.N,/PB2*%
X82905000Y-68705000D03*
%TO.P,U1,4,PB3*%
%TO.N,/PB3*%
X80365000Y-68705000D03*
%TO.P,U1,5,PB4*%
%TO.N,/PB4*%
X77825000Y-68705000D03*
%TO.P,U1,6,PB5*%
%TO.N,/MOSI*%
X75285000Y-68705000D03*
%TO.P,U1,7,PB6*%
%TO.N,/MISO*%
X72745000Y-68705000D03*
%TO.P,U1,8,PB7*%
%TO.N,/PB7*%
X70205000Y-68705000D03*
%TO.P,U1,9,~{RESET}*%
%TO.N,/~RESET*%
X67665000Y-68705000D03*
%TO.P,U1,10,VCC*%
%TO.N,VCC*%
X65125000Y-68705000D03*
%TO.P,U1,11,GND*%
%TO.N,GND*%
X62585000Y-68705000D03*
%TO.P,U1,12,XTAL2*%
%TO.N,Net-(C2-Pad2)*%
X60045000Y-68705000D03*
%TO.P,U1,13,XTAL1*%
%TO.N,Net-(C1-Pad2)*%
X57505000Y-68705000D03*
%TO.P,U1,14,PD0*%
%TO.N,/PD0*%
X54965000Y-68705000D03*
%TO.P,U1,15,PD1*%
%TO.N,/PD1*%
X52425000Y-68705000D03*
%TO.P,U1,16,PD2*%
%TO.N,/PD2*%
X49885000Y-68705000D03*
%TO.P,U1,17,PD3*%
%TO.N,/PD3*%
X47345000Y-68705000D03*
%TO.P,U1,18,PD4*%
%TO.N,/PD4*%
X44805000Y-68705000D03*
%TO.P,U1,19,PD5*%
%TO.N,/PD5*%
X42265000Y-68705000D03*
%TO.P,U1,20,PD6*%
%TO.N,/PD6*%
X39725000Y-68705000D03*
%TO.P,U1,21,PD7*%
%TO.N,/PD7*%
X39725000Y-83945000D03*
%TO.P,U1,22,PC0*%
%TO.N,/KC0*%
X42265000Y-83945000D03*
%TO.P,U1,23,PC1*%
%TO.N,/KC1*%
X44805000Y-83945000D03*
%TO.P,U1,24,PC2*%
%TO.N,/KC2*%
X47345000Y-83945000D03*
%TO.P,U1,25,PC3*%
%TO.N,/KC3*%
X49885000Y-83945000D03*
%TO.P,U1,26,PC4*%
%TO.N,/KC4*%
X52425000Y-83945000D03*
%TO.P,U1,27,PC5*%
%TO.N,/KC5*%
X54965000Y-83945000D03*
%TO.P,U1,28,PC6*%
%TO.N,/KC6*%
X57505000Y-83945000D03*
%TO.P,U1,29,PC7*%
%TO.N,/KC7*%
X60045000Y-83945000D03*
%TO.P,U1,30,AVCC*%
%TO.N,VCC*%
X62585000Y-83945000D03*
%TO.P,U1,31,GND*%
%TO.N,GND*%
X65125000Y-83945000D03*
%TO.P,U1,32,AREF*%
%TO.N,Net-(C3-Pad1)*%
X67665000Y-83945000D03*
%TO.P,U1,33,PA7*%
%TO.N,/PA7*%
X70205000Y-83945000D03*
%TO.P,U1,34,PA6*%
%TO.N,/PA6*%
X72745000Y-83945000D03*
%TO.P,U1,35,PA5*%
%TO.N,/KR5*%
X75285000Y-83945000D03*
%TO.P,U1,36,PA4*%
%TO.N,/KR4*%
X77825000Y-83945000D03*
%TO.P,U1,37,PA3*%
%TO.N,/KR3*%
X80365000Y-83945000D03*
%TO.P,U1,38,PA2*%
%TO.N,/KR2*%
X82905000Y-83945000D03*
%TO.P,U1,39,PA1*%
%TO.N,/KR1*%
X85445000Y-83945000D03*
%TO.P,U1,40,PA0*%
%TO.N,/KR0*%
X87985000Y-83945000D03*
%TD*%
D10*
%TO.P,K44,1,1*%
%TO.N,/KR1*%
X215900000Y-158750000D03*
%TO.P,K44,2,2*%
%TO.N,Net-(D44-Pad2)*%
X209550000Y-161290000D03*
%TD*%
%TO.P,K33,1,1*%
%TO.N,/KR2*%
X177800000Y-101600000D03*
%TO.P,K33,2,2*%
%TO.N,Net-(D33-Pad2)*%
X171450000Y-104140000D03*
%TD*%
%TO.P,K2,1,1*%
%TO.N,/KR1*%
X25400000Y-120650000D03*
%TO.P,K2,2,2*%
%TO.N,Net-(D2-Pad2)*%
X19050000Y-123190000D03*
%TD*%
D13*
%TO.P,C3,1*%
%TO.N,Net-(C3-Pad1)*%
X60144900Y-89590000D03*
D14*
%TO.P,C3,2*%
%TO.N,GND*%
X62144900Y-89590000D03*
%TD*%
D10*
%TO.P,K36,1,1*%
%TO.N,/KR5*%
X177800000Y-158750000D03*
%TO.P,K36,2,2*%
%TO.N,Net-(D36-Pad2)*%
X171450000Y-161290000D03*
%TD*%
%TO.P,K8,1,1*%
%TO.N,/KR1*%
X44450000Y-158750000D03*
%TO.P,K8,2,2*%
%TO.N,Net-(D8-Pad2)*%
X38100000Y-161290000D03*
%TD*%
D16*
%TO.P,D50,1,K*%
%TO.N,Net-(D50-Pad1)*%
X32385000Y-80010000D03*
D17*
%TO.P,D50,2,A*%
%TO.N,/PA7*%
X34925000Y-80010000D03*
%TD*%
D10*
%TO.P,K12,1,1*%
%TO.N,/KR5*%
X63500000Y-158750000D03*
%TO.P,K12,2,2*%
%TO.N,Net-(D12-Pad2)*%
X57150000Y-161290000D03*
%TD*%
%TO.P,K5,1,1*%
%TO.N,/KR4*%
X44450000Y-101600000D03*
%TO.P,K5,2,2*%
%TO.N,Net-(D5-Pad2)*%
X38100000Y-104140000D03*
%TD*%
%TO.P,K14,1,1*%
%TO.N,/KR1*%
X82550000Y-120650000D03*
%TO.P,K14,2,2*%
%TO.N,Net-(D14-Pad2)*%
X76200000Y-123190000D03*
%TD*%
%TO.P,K38,1,1*%
%TO.N,/KR1*%
X196850000Y-120650000D03*
%TO.P,K38,2,2*%
%TO.N,Net-(D38-Pad2)*%
X190500000Y-123190000D03*
%TD*%
D13*
%TO.P,C4,1*%
%TO.N,VCC*%
X56780000Y-58185100D03*
D14*
%TO.P,C4,2*%
%TO.N,GND*%
X56780000Y-56185100D03*
%TD*%
D10*
%TO.P,K23,1,1*%
%TO.N,/KR4*%
X120650000Y-139700000D03*
%TO.P,K23,2,2*%
%TO.N,Net-(D23-Pad2)*%
X114300000Y-142240000D03*
%TD*%
%TO.P,K16,1,1*%
%TO.N,/KR3*%
X82550000Y-158750000D03*
%TO.P,K16,2,2*%
%TO.N,Net-(D16-Pad2)*%
X76200000Y-161290000D03*
%TD*%
%TO.P,K10,1,1*%
%TO.N,/KR3*%
X63500000Y-120650000D03*
%TO.P,K10,2,2*%
%TO.N,Net-(D10-Pad2)*%
X57150000Y-123190000D03*
%TD*%
%TO.P,K43,1,1*%
%TO.N,/KR0*%
X215900000Y-139700000D03*
%TO.P,K43,2,2*%
%TO.N,Net-(D43-Pad2)*%
X209550000Y-142240000D03*
%TD*%
%TO.P,K49,1,1*%
%TO.N,GND*%
X104010000Y-71060000D03*
%TO.P,K49,2,2*%
%TO.N,/~RESET*%
X97660000Y-73600000D03*
%TD*%
%TO.P,K48,1,1*%
%TO.N,/KR5*%
X234950000Y-139700000D03*
%TO.P,K48,2,2*%
%TO.N,Net-(D48-Pad2)*%
X228600000Y-142240000D03*
%TD*%
%TO.P,K13,1,1*%
%TO.N,/KR0*%
X82550000Y-101600000D03*
%TO.P,K13,2,2*%
%TO.N,Net-(D13-Pad2)*%
X76200000Y-104140000D03*
%TD*%
%TO.P,K29,1,1*%
%TO.N,/KR4*%
X158750000Y-101600000D03*
%TO.P,K29,2,2*%
%TO.N,Net-(D29-Pad2)*%
X152400000Y-104140000D03*
%TD*%
%TO.P,K15,1,1*%
%TO.N,/KR2*%
X82550000Y-139700000D03*
%TO.P,K15,2,2*%
%TO.N,Net-(D15-Pad2)*%
X76200000Y-142240000D03*
%TD*%
%TO.P,K7,1,1*%
%TO.N,/KR0*%
X44577000Y-139700000D03*
%TO.P,K7,2,2*%
%TO.N,Net-(D7-Pad2)*%
X38227000Y-142240000D03*
%TD*%
%TO.P,K47,1,1*%
%TO.N,/KR4*%
X234950000Y-120650000D03*
%TO.P,K47,2,2*%
%TO.N,Net-(D47-Pad2)*%
X228600000Y-123190000D03*
%TD*%
%TO.P,K28,1,1*%
%TO.N,/KR3*%
X139700000Y-158750000D03*
%TO.P,K28,2,2*%
%TO.N,Net-(D28-Pad2)*%
X133350000Y-161290000D03*
%TD*%
%TO.P,K46,1,1*%
%TO.N,/KR3*%
X234950000Y-101600000D03*
%TO.P,K46,2,2*%
%TO.N,Net-(D46-Pad2)*%
X228600000Y-104140000D03*
%TD*%
%TO.P,K9,1,1*%
%TO.N,/KR2*%
X63500000Y-101600000D03*
%TO.P,K9,2,2*%
%TO.N,Net-(D9-Pad2)*%
X57150000Y-104140000D03*
%TD*%
D13*
%TO.P,C6,1*%
%TO.N,VCC*%
X22800000Y-83640000D03*
D14*
%TO.P,C6,2*%
%TO.N,GND*%
X20800000Y-83640000D03*
%TD*%
D10*
%TO.P,K20,1,1*%
%TO.N,/KR1*%
X101600000Y-158750000D03*
%TO.P,K20,2,2*%
%TO.N,Net-(D20-Pad2)*%
X95250000Y-161290000D03*
%TD*%
%TO.P,K45,1,1*%
%TO.N,/KR2*%
X234950000Y-158750000D03*
%TO.P,K45,2,2*%
%TO.N,Net-(D45-Pad2)*%
X228600000Y-161290000D03*
%TD*%
%TO.P,K17,1,1*%
%TO.N,/KR4*%
X101600000Y-101600000D03*
%TO.P,K17,2,2*%
%TO.N,Net-(D17-Pad2)*%
X95250000Y-104140000D03*
%TD*%
%TO.P,K34,1,1*%
%TO.N,/KR3*%
X177800000Y-120650000D03*
%TO.P,K34,2,2*%
%TO.N,Net-(D34-Pad2)*%
X171450000Y-123190000D03*
%TD*%
%TO.P,K32,1,1*%
%TO.N,/KR1*%
X158750000Y-158750000D03*
%TO.P,K32,2,2*%
%TO.N,Net-(D32-Pad2)*%
X152400000Y-161290000D03*
%TD*%
%TO.P,K40,1,1*%
%TO.N,/KR3*%
X196850000Y-158750000D03*
%TO.P,K40,2,2*%
%TO.N,Net-(D40-Pad2)*%
X190500000Y-161290000D03*
%TD*%
%TO.P,K31,1,1*%
%TO.N,/KR0*%
X158750000Y-139700000D03*
%TO.P,K31,2,2*%
%TO.N,Net-(D31-Pad2)*%
X152400000Y-142240000D03*
%TD*%
%TO.P,K18,1,1*%
%TO.N,/KR5*%
X101600000Y-120650000D03*
%TO.P,K18,2,2*%
%TO.N,Net-(D18-Pad2)*%
X95250000Y-123190000D03*
%TD*%
%TO.P,K41,1,1*%
%TO.N,/KR4*%
X215900000Y-101600000D03*
%TO.P,K41,2,2*%
%TO.N,Net-(D41-Pad2)*%
X209550000Y-104140000D03*
%TD*%
%TO.P,K39,1,1*%
%TO.N,/KR2*%
X196850000Y-139700000D03*
%TO.P,K39,2,2*%
%TO.N,Net-(D39-Pad2)*%
X190500000Y-142240000D03*
%TD*%
%TO.P,K21,1,1*%
%TO.N,/KR2*%
X120650000Y-101600000D03*
%TO.P,K21,2,2*%
%TO.N,Net-(D21-Pad2)*%
X114300000Y-104140000D03*
%TD*%
D11*
%TO.P,J2,1,Pin_1*%
%TO.N,/MISO*%
X79170000Y-55330000D03*
D12*
%TO.P,J2,2,Pin_2*%
%TO.N,VCC*%
X76630000Y-55330000D03*
%TO.P,J2,3,Pin_3*%
%TO.N,/PB7*%
X79170000Y-52790000D03*
%TO.P,J2,4,Pin_4*%
%TO.N,/MOSI*%
X76630000Y-52790000D03*
%TO.P,J2,5,Pin_5*%
%TO.N,/~RESET*%
X79170000Y-50250000D03*
%TO.P,J2,6,Pin_6*%
%TO.N,GND*%
X76630000Y-50250000D03*
%TD*%
D18*
%TO.P,J5,1*%
%TO.N,VCC*%
X23400000Y-73022500D03*
D19*
%TO.P,J5,2*%
%TO.N,unconnected-(J5-Pad2)*%
X17400000Y-73022500D03*
D20*
%TO.P,J5,3*%
%TO.N,GND*%
X20400000Y-77722500D03*
%TD*%
D14*
%TO.P,C2,1*%
%TO.N,GND*%
X68940000Y-56560000D03*
%TO.P,C2,2*%
%TO.N,Net-(C2-Pad2)*%
X68940000Y-59060000D03*
%TD*%
D10*
%TO.P,K37,1,1*%
%TO.N,/KR0*%
X196850000Y-101600000D03*
%TO.P,K37,2,2*%
%TO.N,Net-(D37-Pad2)*%
X190500000Y-104140000D03*
%TD*%
D16*
%TO.P,D49,1,K*%
%TO.N,Net-(D49-Pad1)*%
X32385000Y-72390000D03*
D17*
%TO.P,D49,2,A*%
%TO.N,/PA6*%
X34925000Y-72390000D03*
%TD*%
D11*
%TO.P,J1,1,Pin_1*%
%TO.N,/PD0*%
X53370000Y-62020000D03*
D12*
%TO.P,J1,2,Pin_2*%
%TO.N,/PD1*%
X50830000Y-62020000D03*
%TO.P,J1,3,Pin_3*%
%TO.N,/PD2*%
X48290000Y-62020000D03*
%TO.P,J1,4,Pin_4*%
%TO.N,/PD3*%
X45750000Y-62020000D03*
%TO.P,J1,5,Pin_5*%
%TO.N,/PD4*%
X43210000Y-62020000D03*
%TO.P,J1,6,Pin_6*%
%TO.N,/PD5*%
X40670000Y-62020000D03*
%TO.P,J1,7,Pin_7*%
%TO.N,/PD6*%
X38130000Y-62020000D03*
%TO.P,J1,8,Pin_8*%
%TO.N,/PD7*%
X35590000Y-62020000D03*
%TD*%
D10*
%TO.P,K3,1,1*%
%TO.N,/KR2*%
X25400000Y-139700000D03*
%TO.P,K3,2,2*%
%TO.N,Net-(D3-Pad2)*%
X19050000Y-142240000D03*
%TD*%
%TO.P,K24,1,1*%
%TO.N,/KR5*%
X120650000Y-158750000D03*
%TO.P,K24,2,2*%
%TO.N,Net-(D24-Pad2)*%
X114300000Y-161290000D03*
%TD*%
D14*
%TO.P,C1,1*%
%TO.N,GND*%
X64190000Y-56580000D03*
%TO.P,C1,2*%
%TO.N,Net-(C1-Pad2)*%
X64190000Y-59080000D03*
%TD*%
D10*
%TO.P,K1,1,1*%
%TO.N,/KR0*%
X25400000Y-101600000D03*
%TO.P,K1,2,2*%
%TO.N,Net-(D1-Pad2)*%
X19050000Y-104140000D03*
%TD*%
%TO.P,K42,1,1*%
%TO.N,/KR5*%
X215900000Y-120650000D03*
%TO.P,K42,2,2*%
%TO.N,Net-(D42-Pad2)*%
X209550000Y-123190000D03*
%TD*%
%TO.P,K19,1,1*%
%TO.N,/KR0*%
X101600000Y-139700000D03*
%TO.P,K19,2,2*%
%TO.N,Net-(D19-Pad2)*%
X95250000Y-142240000D03*
%TD*%
%TO.P,K35,1,1*%
%TO.N,/KR4*%
X177800000Y-139700000D03*
%TO.P,K35,2,2*%
%TO.N,Net-(D35-Pad2)*%
X171450000Y-142240000D03*
%TD*%
%TO.P,K11,1,1*%
%TO.N,/KR4*%
X63500000Y-139700000D03*
%TO.P,K11,2,2*%
%TO.N,Net-(D11-Pad2)*%
X57150000Y-142240000D03*
%TD*%
%TO.P,K22,1,1*%
%TO.N,/KR3*%
X120650000Y-120650000D03*
%TO.P,K22,2,2*%
%TO.N,Net-(D22-Pad2)*%
X114300000Y-123190000D03*
%TD*%
%TO.P,K4,1,1*%
%TO.N,/KR3*%
X25400000Y-158750000D03*
%TO.P,K4,2,2*%
%TO.N,Net-(D4-Pad2)*%
X19050000Y-161290000D03*
%TD*%
D21*
%TO.P,Y1,1,1*%
%TO.N,Net-(C2-Pad2)*%
X68995000Y-63085000D03*
%TO.P,Y1,2,2*%
%TO.N,Net-(C1-Pad2)*%
X64115000Y-63085000D03*
%TD*%
D10*
%TO.P,K30,1,1*%
%TO.N,/KR5*%
X158750000Y-120650000D03*
%TO.P,K30,2,2*%
%TO.N,Net-(D30-Pad2)*%
X152400000Y-123190000D03*
%TD*%
D22*
%TO.P,D45,1,K*%
%TO.N,/KC7*%
X236220000Y-154305000D03*
D23*
%TO.P,D45,2,A*%
%TO.N,Net-(D45-Pad2)*%
X228600000Y-154305000D03*
%TD*%
D22*
%TO.P,D17,1,K*%
%TO.N,/KC2*%
X102870000Y-97155000D03*
D23*
%TO.P,D17,2,A*%
%TO.N,Net-(D17-Pad2)*%
X95250000Y-97155000D03*
%TD*%
D22*
%TO.P,D25,1,K*%
%TO.N,/KC4*%
X140970000Y-97155000D03*
D23*
%TO.P,D25,2,A*%
%TO.N,Net-(D25-Pad2)*%
X133350000Y-97155000D03*
%TD*%
D22*
%TO.P,D23,1,K*%
%TO.N,/KC3*%
X121920000Y-135255000D03*
D23*
%TO.P,D23,2,A*%
%TO.N,Net-(D23-Pad2)*%
X114300000Y-135255000D03*
%TD*%
D22*
%TO.P,D7,1,K*%
%TO.N,/KC1*%
X45720000Y-135255000D03*
D23*
%TO.P,D7,2,A*%
%TO.N,Net-(D7-Pad2)*%
X38100000Y-135255000D03*
%TD*%
D22*
%TO.P,D37,1,K*%
%TO.N,/KC6*%
X198120000Y-97155000D03*
D23*
%TO.P,D37,2,A*%
%TO.N,Net-(D37-Pad2)*%
X190500000Y-97155000D03*
%TD*%
D22*
%TO.P,D41,1,K*%
%TO.N,/KC6*%
X217170000Y-97155000D03*
D23*
%TO.P,D41,2,A*%
%TO.N,Net-(D41-Pad2)*%
X209550000Y-97155000D03*
%TD*%
D22*
%TO.P,D28,1,K*%
%TO.N,/KC4*%
X140970000Y-154305000D03*
D23*
%TO.P,D28,2,A*%
%TO.N,Net-(D28-Pad2)*%
X133350000Y-154305000D03*
%TD*%
D22*
%TO.P,D11,1,K*%
%TO.N,/KC1*%
X64770000Y-135255000D03*
D23*
%TO.P,D11,2,A*%
%TO.N,Net-(D11-Pad2)*%
X57150000Y-135255000D03*
%TD*%
D22*
%TO.P,D43,1,K*%
%TO.N,/KC7*%
X217170000Y-135128000D03*
D23*
%TO.P,D43,2,A*%
%TO.N,Net-(D43-Pad2)*%
X209550000Y-135128000D03*
%TD*%
D24*
%TO.P,R1,1*%
%TO.N,GND*%
X28575000Y-72390000D03*
D25*
%TO.P,R1,2*%
%TO.N,Net-(D49-Pad1)*%
X28575000Y-67310000D03*
%TD*%
D22*
%TO.P,D21,1,K*%
%TO.N,/KC3*%
X121920000Y-97155000D03*
D23*
%TO.P,D21,2,A*%
%TO.N,Net-(D21-Pad2)*%
X114300000Y-97155000D03*
%TD*%
D22*
%TO.P,D27,1,K*%
%TO.N,/KC4*%
X140970000Y-135255000D03*
D23*
%TO.P,D27,2,A*%
%TO.N,Net-(D27-Pad2)*%
X133350000Y-135255000D03*
%TD*%
D22*
%TO.P,D35,1,K*%
%TO.N,/KC5*%
X179070000Y-135255000D03*
D23*
%TO.P,D35,2,A*%
%TO.N,Net-(D35-Pad2)*%
X171450000Y-135255000D03*
%TD*%
D22*
%TO.P,D16,1,K*%
%TO.N,/KC2*%
X83820000Y-154305000D03*
D23*
%TO.P,D16,2,A*%
%TO.N,Net-(D16-Pad2)*%
X76200000Y-154305000D03*
%TD*%
D22*
%TO.P,D19,1,K*%
%TO.N,/KC3*%
X102870000Y-135255000D03*
D23*
%TO.P,D19,2,A*%
%TO.N,Net-(D19-Pad2)*%
X95250000Y-135255000D03*
%TD*%
D22*
%TO.P,D42,1,K*%
%TO.N,/KC6*%
X217170000Y-116205000D03*
D23*
%TO.P,D42,2,A*%
%TO.N,Net-(D42-Pad2)*%
X209550000Y-116205000D03*
%TD*%
D22*
%TO.P,D31,1,K*%
%TO.N,/KC5*%
X160020000Y-135255000D03*
D23*
%TO.P,D31,2,A*%
%TO.N,Net-(D31-Pad2)*%
X152400000Y-135255000D03*
%TD*%
D22*
%TO.P,D38,1,K*%
%TO.N,/KC6*%
X198120000Y-116205000D03*
D23*
%TO.P,D38,2,A*%
%TO.N,Net-(D38-Pad2)*%
X190500000Y-116205000D03*
%TD*%
D22*
%TO.P,D15,1,K*%
%TO.N,/KC2*%
X83820000Y-135255000D03*
D23*
%TO.P,D15,2,A*%
%TO.N,Net-(D15-Pad2)*%
X76200000Y-135255000D03*
%TD*%
D22*
%TO.P,D34,1,K*%
%TO.N,/KC5*%
X179070000Y-116205000D03*
D23*
%TO.P,D34,2,A*%
%TO.N,Net-(D34-Pad2)*%
X171450000Y-116205000D03*
%TD*%
D22*
%TO.P,D10,1,K*%
%TO.N,/KC1*%
X64770000Y-116205000D03*
D23*
%TO.P,D10,2,A*%
%TO.N,Net-(D10-Pad2)*%
X57150000Y-116205000D03*
%TD*%
D22*
%TO.P,D40,1,K*%
%TO.N,/KC6*%
X198120000Y-154305000D03*
D23*
%TO.P,D40,2,A*%
%TO.N,Net-(D40-Pad2)*%
X190500000Y-154305000D03*
%TD*%
D22*
%TO.P,D13,1,K*%
%TO.N,/KC2*%
X83820000Y-97155000D03*
D23*
%TO.P,D13,2,A*%
%TO.N,Net-(D13-Pad2)*%
X76200000Y-97155000D03*
%TD*%
D22*
%TO.P,D29,1,K*%
%TO.N,/KC4*%
X160020000Y-97155000D03*
D23*
%TO.P,D29,2,A*%
%TO.N,Net-(D29-Pad2)*%
X152400000Y-97155000D03*
%TD*%
D22*
%TO.P,D6,1,K*%
%TO.N,/KC0*%
X45720000Y-116205000D03*
D23*
%TO.P,D6,2,A*%
%TO.N,Net-(D6-Pad2)*%
X38100000Y-116205000D03*
%TD*%
D22*
%TO.P,D5,1,K*%
%TO.N,/KC0*%
X45720000Y-97155000D03*
D23*
%TO.P,D5,2,A*%
%TO.N,Net-(D5-Pad2)*%
X38100000Y-97155000D03*
%TD*%
D22*
%TO.P,D12,1,K*%
%TO.N,/KC1*%
X64770000Y-154305000D03*
D23*
%TO.P,D12,2,A*%
%TO.N,Net-(D12-Pad2)*%
X57150000Y-154305000D03*
%TD*%
D22*
%TO.P,D32,1,K*%
%TO.N,/KC5*%
X160020000Y-154305000D03*
D23*
%TO.P,D32,2,A*%
%TO.N,Net-(D32-Pad2)*%
X152400000Y-154305000D03*
%TD*%
D22*
%TO.P,D44,1,K*%
%TO.N,/KC7*%
X217170000Y-154305000D03*
D23*
%TO.P,D44,2,A*%
%TO.N,Net-(D44-Pad2)*%
X209550000Y-154305000D03*
%TD*%
D22*
%TO.P,D8,1,K*%
%TO.N,/KC1*%
X45720000Y-154305000D03*
D23*
%TO.P,D8,2,A*%
%TO.N,Net-(D8-Pad2)*%
X38100000Y-154305000D03*
%TD*%
D22*
%TO.P,D9,1,K*%
%TO.N,/KC1*%
X64770000Y-97155000D03*
D23*
%TO.P,D9,2,A*%
%TO.N,Net-(D9-Pad2)*%
X57150000Y-97155000D03*
%TD*%
D22*
%TO.P,D14,1,K*%
%TO.N,/KC2*%
X83820000Y-116205000D03*
D23*
%TO.P,D14,2,A*%
%TO.N,Net-(D14-Pad2)*%
X76200000Y-116205000D03*
%TD*%
D24*
%TO.P,R2,1*%
%TO.N,GND*%
X28575000Y-85725000D03*
D25*
%TO.P,R2,2*%
%TO.N,Net-(D50-Pad1)*%
X28575000Y-80645000D03*
%TD*%
D22*
%TO.P,D20,1,K*%
%TO.N,/KC3*%
X102870000Y-154305000D03*
D23*
%TO.P,D20,2,A*%
%TO.N,Net-(D20-Pad2)*%
X95250000Y-154305000D03*
%TD*%
D22*
%TO.P,D46,1,K*%
%TO.N,/KC7*%
X236220000Y-97155000D03*
D23*
%TO.P,D46,2,A*%
%TO.N,Net-(D46-Pad2)*%
X228600000Y-97155000D03*
%TD*%
D22*
%TO.P,D18,1,K*%
%TO.N,/KC2*%
X102870000Y-116205000D03*
D23*
%TO.P,D18,2,A*%
%TO.N,Net-(D18-Pad2)*%
X95250000Y-116205000D03*
%TD*%
D22*
%TO.P,D47,1,K*%
%TO.N,/KC7*%
X236220000Y-116205000D03*
D23*
%TO.P,D47,2,A*%
%TO.N,Net-(D47-Pad2)*%
X228600000Y-116205000D03*
%TD*%
D22*
%TO.P,D24,1,K*%
%TO.N,/KC3*%
X121920000Y-154305000D03*
D23*
%TO.P,D24,2,A*%
%TO.N,Net-(D24-Pad2)*%
X114300000Y-154305000D03*
%TD*%
D22*
%TO.P,D22,1,K*%
%TO.N,/KC3*%
X121920000Y-116205000D03*
D23*
%TO.P,D22,2,A*%
%TO.N,Net-(D22-Pad2)*%
X114300000Y-116205000D03*
%TD*%
D24*
%TO.P,R3,1*%
%TO.N,VCC*%
X97170000Y-60050000D03*
D25*
%TO.P,R3,2*%
%TO.N,/~RESET*%
X97170000Y-65130000D03*
%TD*%
D22*
%TO.P,D4,1,K*%
%TO.N,/KC0*%
X26670000Y-154305000D03*
D23*
%TO.P,D4,2,A*%
%TO.N,Net-(D4-Pad2)*%
X19050000Y-154305000D03*
%TD*%
D22*
%TO.P,D3,1,K*%
%TO.N,/KC0*%
X26670000Y-135255000D03*
D23*
%TO.P,D3,2,A*%
%TO.N,Net-(D3-Pad2)*%
X19050000Y-135255000D03*
%TD*%
D22*
%TO.P,D1,1,K*%
%TO.N,/KC0*%
X26670000Y-97155000D03*
D23*
%TO.P,D1,2,A*%
%TO.N,Net-(D1-Pad2)*%
X19050000Y-97155000D03*
%TD*%
D22*
%TO.P,D33,1,K*%
%TO.N,/KC5*%
X179070000Y-97155000D03*
D23*
%TO.P,D33,2,A*%
%TO.N,Net-(D33-Pad2)*%
X171450000Y-97155000D03*
%TD*%
D22*
%TO.P,D2,1,K*%
%TO.N,/KC0*%
X26670000Y-116205000D03*
D23*
%TO.P,D2,2,A*%
%TO.N,Net-(D2-Pad2)*%
X19050000Y-116205000D03*
%TD*%
D22*
%TO.P,D39,1,K*%
%TO.N,/KC6*%
X198120000Y-135255000D03*
D23*
%TO.P,D39,2,A*%
%TO.N,Net-(D39-Pad2)*%
X190500000Y-135255000D03*
%TD*%
D22*
%TO.P,D26,1,K*%
%TO.N,/KC4*%
X140970000Y-116205000D03*
D23*
%TO.P,D26,2,A*%
%TO.N,Net-(D26-Pad2)*%
X133350000Y-116205000D03*
%TD*%
D22*
%TO.P,D48,1,K*%
%TO.N,/KC7*%
X236220000Y-135255000D03*
D23*
%TO.P,D48,2,A*%
%TO.N,Net-(D48-Pad2)*%
X228600000Y-135255000D03*
%TD*%
D22*
%TO.P,D36,1,K*%
%TO.N,/KC5*%
X179070000Y-154305000D03*
D23*
%TO.P,D36,2,A*%
%TO.N,Net-(D36-Pad2)*%
X171450000Y-154305000D03*
%TD*%
D22*
%TO.P,D30,1,K*%
%TO.N,/KC4*%
X160020000Y-116205000D03*
D23*
%TO.P,D30,2,A*%
%TO.N,Net-(D30-Pad2)*%
X152400000Y-116205000D03*
%TD*%
D26*
%TO.N,/KR1*%
X138140000Y-138174000D02*
X138140000Y-140154564D01*
X139459136Y-141473700D02*
X141739800Y-141473700D01*
X138140000Y-140154564D02*
X139459136Y-141473700D01*
X141739800Y-141473700D02*
X158760000Y-158493900D01*
%TO.N,/KR5*%
X205716000Y-122195900D02*
X192764100Y-122195900D01*
X192764100Y-122195900D02*
X192333689Y-121765489D01*
X192333689Y-121765489D02*
X178699075Y-121765489D01*
X178699075Y-121765489D02*
X178268664Y-122195900D01*
X178268664Y-122195900D02*
X176959300Y-122195900D01*
%TO.N,/PA7*%
X61270100Y-83427100D02*
X61270100Y-84534382D01*
X61917818Y-85182100D02*
X68250500Y-85182100D01*
X68250500Y-85182100D02*
X68979900Y-84452700D01*
X57853000Y-80010000D02*
X61270100Y-83427100D01*
X34925000Y-80010000D02*
X57853000Y-80010000D01*
X68979900Y-83945000D02*
X70205000Y-83945000D01*
X61270100Y-84534382D02*
X61917818Y-85182100D01*
X68979900Y-84452700D02*
X68979900Y-83945000D01*
%TO.N,/KC0*%
X42669800Y-117730100D02*
X44194900Y-116205000D01*
X29720200Y-117730100D02*
X29720200Y-130679700D01*
X26670000Y-116205000D02*
X28195100Y-116205000D01*
X28195100Y-116205000D02*
X29720200Y-117730100D01*
X29720200Y-130679700D02*
X26670000Y-133729900D01*
X45720000Y-116205000D02*
X44194900Y-116205000D01*
X29720200Y-117730100D02*
X42669800Y-117730100D01*
X26670000Y-135255000D02*
X26670000Y-133729900D01*
%TO.N,/KC1*%
X61719800Y-155830100D02*
X48770200Y-155830100D01*
X48841400Y-85502100D02*
X47079500Y-85502100D01*
X60494300Y-97155000D02*
X48841400Y-85502100D01*
X64770000Y-97155000D02*
X60494300Y-97155000D01*
X48770200Y-155830100D02*
X47245100Y-154305000D01*
X44805000Y-83945000D02*
X46030100Y-83945000D01*
X47079500Y-85502100D02*
X46030100Y-84452700D01*
X64770000Y-154305000D02*
X63244900Y-154305000D01*
X63244900Y-154305000D02*
X61719800Y-155830100D01*
X46030100Y-84452700D02*
X46030100Y-83945000D01*
X45720000Y-154305000D02*
X47245100Y-154305000D01*
%TO.N,/KC3*%
X58262100Y-91604700D02*
X51110100Y-84452700D01*
X118869800Y-133729900D02*
X120394900Y-135255000D01*
X121920000Y-97155000D02*
X120394900Y-97155000D01*
X51110100Y-84452700D02*
X51110100Y-83945000D01*
X120394900Y-97155000D02*
X114844600Y-91604700D01*
X121920000Y-135255000D02*
X120394900Y-135255000D01*
X104395100Y-135255000D02*
X105920200Y-133729900D01*
X105920200Y-133729900D02*
X118869800Y-133729900D01*
X49885000Y-83945000D02*
X51110100Y-83945000D01*
X114844600Y-91604700D02*
X58262100Y-91604700D01*
X102870000Y-135255000D02*
X104395100Y-135255000D01*
%TO.N,/KC5*%
X160020000Y-154305000D02*
X161545100Y-154305000D01*
X56190100Y-84452700D02*
X59120000Y-87382600D01*
X179070000Y-154305000D02*
X177544900Y-154305000D01*
X54965000Y-83945000D02*
X56190100Y-83945000D01*
X167772500Y-87382600D02*
X177544900Y-97155000D01*
X177544900Y-154305000D02*
X176019800Y-155830100D01*
X179070000Y-97155000D02*
X177544900Y-97155000D01*
X176019800Y-155830100D02*
X163070200Y-155830100D01*
X56190100Y-83945000D02*
X56190100Y-84452700D01*
X59120000Y-87382600D02*
X167772500Y-87382600D01*
X163070200Y-155830100D02*
X161545100Y-154305000D01*
%TO.N,/KC6*%
X201170200Y-114679900D02*
X214119800Y-114679900D01*
X214119800Y-114679900D02*
X215644900Y-116205000D01*
X217170000Y-116205000D02*
X215644900Y-116205000D01*
X198120000Y-97155000D02*
X196594900Y-97155000D01*
X185997400Y-86557500D02*
X196594900Y-97155000D01*
X58730100Y-83945000D02*
X58730100Y-84452700D01*
X60834900Y-86557500D02*
X185997400Y-86557500D01*
X58730100Y-84452700D02*
X60834900Y-86557500D01*
X199645100Y-116205000D02*
X201170200Y-114679900D01*
X198120000Y-116205000D02*
X199645100Y-116205000D01*
X57505000Y-83945000D02*
X58730100Y-83945000D01*
%TO.N,/KC7*%
X223547200Y-86007300D02*
X62107300Y-86007300D01*
X233169800Y-133729900D02*
X234694900Y-135255000D01*
X62107300Y-86007300D02*
X60045000Y-83945000D01*
X218695100Y-135128000D02*
X220093200Y-133729900D01*
X236220000Y-97155000D02*
X234694900Y-97155000D01*
X236220000Y-135255000D02*
X234694900Y-135255000D01*
X220093200Y-133729900D02*
X233169800Y-133729900D01*
X217170000Y-135128000D02*
X218695100Y-135128000D01*
X234694900Y-97155000D02*
X223547200Y-86007300D01*
%TO.N,/PB0*%
X89210100Y-68705000D02*
X92680000Y-65235100D01*
X87985000Y-68705000D02*
X89210100Y-68705000D01*
X92680000Y-65235100D02*
X93275000Y-65235100D01*
X93275000Y-63960000D02*
X93275000Y-65235100D01*
%TO.N,/PB1*%
X86670100Y-67752400D02*
X90462500Y-63960000D01*
X90462500Y-63960000D02*
X90735000Y-63960000D01*
X86670100Y-68705000D02*
X86670100Y-67752400D01*
X85445000Y-68705000D02*
X86670100Y-68705000D01*
%TO.N,/MOSI*%
X76630000Y-52790000D02*
X75315500Y-54104500D01*
X75315500Y-57425400D02*
X80575000Y-62684900D01*
X75315500Y-54104500D02*
X75315500Y-57425400D01*
X80575000Y-63960000D02*
X80575000Y-62684900D01*
%TO.N,/KR0*%
X26925100Y-100074900D02*
X81024900Y-100074900D01*
X137561500Y-99461500D02*
X84688500Y-99461500D01*
X195270000Y-100020000D02*
X141280000Y-100020000D01*
X81024900Y-100074900D02*
X82550000Y-101600000D01*
X25400000Y-101600000D02*
X26925100Y-100074900D01*
X196850000Y-101600000D02*
X195270000Y-100020000D01*
X139700000Y-101600000D02*
X137561500Y-99461500D01*
X141280000Y-100020000D02*
X139700000Y-101600000D01*
X84688500Y-99461500D02*
X82550000Y-101600000D01*
%TO.N,/~RESET*%
X71029100Y-64115800D02*
X67665000Y-67479900D01*
X76060500Y-48953200D02*
X71029100Y-53984600D01*
X67665000Y-68705000D02*
X67665000Y-67479900D01*
X71029100Y-53984600D02*
X71029100Y-64115800D01*
X77873200Y-48953200D02*
X76060500Y-48953200D01*
X79170000Y-50250000D02*
X77873200Y-48953200D01*
%TO.N,/KC2*%
X83820000Y-97155000D02*
X82294900Y-97155000D01*
X99819800Y-98680100D02*
X86870200Y-98680100D01*
X101344900Y-97155000D02*
X99819800Y-98680100D01*
X59197300Y-95079900D02*
X48570100Y-84452700D01*
X86870200Y-98680100D02*
X85345100Y-97155000D01*
X80219800Y-95079900D02*
X59197300Y-95079900D01*
X83820000Y-116205000D02*
X85345100Y-116205000D01*
X102870000Y-116205000D02*
X101344900Y-116205000D01*
X99819800Y-114679900D02*
X101344900Y-116205000D01*
X82294900Y-97155000D02*
X80219800Y-95079900D01*
X102870000Y-97155000D02*
X101344900Y-97155000D01*
X47345000Y-83945000D02*
X48570100Y-83945000D01*
X86870200Y-114679900D02*
X99819800Y-114679900D01*
X48570100Y-84452700D02*
X48570100Y-83945000D01*
X83820000Y-97155000D02*
X85345100Y-97155000D01*
X85345100Y-116205000D02*
X86870200Y-114679900D01*
%TO.N,/KC4*%
X158494900Y-116205000D02*
X156969800Y-117730100D01*
X156969800Y-117730100D02*
X144020200Y-117730100D01*
X139444900Y-97155000D02*
X130654700Y-88364800D01*
X144020200Y-98680100D02*
X142495100Y-97155000D01*
X160020000Y-116205000D02*
X158494900Y-116205000D01*
X57562200Y-88364800D02*
X53650100Y-84452700D01*
X160020000Y-97155000D02*
X158494900Y-97155000D01*
X140970000Y-97155000D02*
X142495100Y-97155000D01*
X158494900Y-97155000D02*
X156969800Y-98680100D01*
X140970000Y-97155000D02*
X139444900Y-97155000D01*
X53650100Y-84452700D02*
X53650100Y-83945000D01*
X144020200Y-117730100D02*
X142495100Y-116205000D01*
X156969800Y-98680100D02*
X144020200Y-98680100D01*
X140970000Y-116205000D02*
X142495100Y-116205000D01*
X130654700Y-88364800D02*
X57562200Y-88364800D01*
X52425000Y-83945000D02*
X53650100Y-83945000D01*
D27*
%TO.N,VCC*%
X27734900Y-58185100D02*
X23400000Y-62520000D01*
X22800000Y-83640000D02*
X22800000Y-82039900D01*
X23400000Y-81439900D02*
X22800000Y-82039900D01*
X23400000Y-73022500D02*
X23400000Y-81439900D01*
X65125000Y-79804900D02*
X62585000Y-82344900D01*
X62585000Y-83945000D02*
X62585000Y-82344900D01*
X65125000Y-68705000D02*
X65125000Y-79804900D01*
X56780000Y-58185100D02*
X27734900Y-58185100D01*
X23400000Y-62520000D02*
X17280000Y-62520000D01*
X97170000Y-60050000D02*
X79699900Y-60050000D01*
X76630000Y-55330000D02*
X76630000Y-56980100D01*
X23400000Y-62520000D02*
X23400000Y-73022500D01*
X79699900Y-60050000D02*
X76630000Y-56980100D01*
%TO.N,GND*%
X62585000Y-68106700D02*
X62585000Y-68705000D01*
X62519000Y-56580000D02*
X57174900Y-56580000D01*
X68940000Y-56560000D02*
X68920000Y-56580000D01*
X68920000Y-56580000D02*
X64190000Y-56580000D01*
X20800000Y-84408900D02*
X20800000Y-83640000D01*
X62519000Y-67038900D02*
X62585000Y-67104900D01*
X28575000Y-85725000D02*
X22116100Y-85725000D01*
X62519000Y-56580000D02*
X62519000Y-67038900D01*
X64190000Y-56580000D02*
X62519000Y-56580000D01*
X57174900Y-56580000D02*
X56780000Y-56185100D01*
X30620100Y-70344900D02*
X28575000Y-72390000D01*
X60945100Y-70344900D02*
X30620100Y-70344900D01*
X62585000Y-68106700D02*
X62585000Y-67104900D01*
X62585000Y-68705000D02*
X60945100Y-70344900D01*
X22116100Y-85725000D02*
X20800000Y-84408900D01*
D26*
%TO.N,/PA6*%
X66395000Y-76369900D02*
X72745000Y-82719900D01*
X66395000Y-68171400D02*
X66395000Y-76369900D01*
X65702400Y-67478800D02*
X66395000Y-68171400D01*
X34925000Y-72390000D02*
X60641900Y-72390000D01*
X64617800Y-67478800D02*
X65702400Y-67478800D01*
X72745000Y-83945000D02*
X72745000Y-82719900D01*
X63855000Y-69176900D02*
X63855000Y-68241600D01*
X63855000Y-68241600D02*
X64617800Y-67478800D01*
X60641900Y-72390000D02*
X63855000Y-69176900D01*
%TO.N,/KR5*%
X141515700Y-160857200D02*
X142555300Y-159817600D01*
X169163100Y-160304600D02*
X170717700Y-158750000D01*
X158750000Y-120650000D02*
X175413400Y-120650000D01*
X136062000Y-158750000D02*
X138169200Y-160857200D01*
X120650000Y-158750000D02*
X136062000Y-158750000D01*
X175413400Y-120650000D02*
X176959300Y-122195900D01*
X170717700Y-158750000D02*
X177800000Y-158750000D01*
X205716000Y-122195900D02*
X207261900Y-120650000D01*
X207261900Y-120650000D02*
X215900000Y-120650000D01*
X138169200Y-160857200D02*
X141515700Y-160857200D01*
X156010400Y-159817600D02*
X156497400Y-160304600D01*
X142555300Y-159817600D02*
X156010400Y-159817600D01*
X156497400Y-160304600D02*
X169163100Y-160304600D01*
%TO.N,/KR4*%
X179575700Y-102593900D02*
X179042200Y-103127400D01*
X179042200Y-103127400D02*
X173709900Y-103127400D01*
X116588100Y-101600000D02*
X118115500Y-103127400D01*
X191843100Y-102593900D02*
X179575700Y-102593900D01*
X101600000Y-101600000D02*
X116588100Y-101600000D01*
X172202400Y-101619900D02*
X158750000Y-101619900D01*
X198092200Y-103127400D02*
X192376600Y-103127400D01*
X158750000Y-101600000D02*
X158750000Y-101619900D01*
X121892200Y-103127400D02*
X122421600Y-102598000D01*
X143195400Y-103143400D02*
X144718900Y-101619900D01*
X173709900Y-103127400D02*
X172202400Y-101619900D01*
X122421600Y-102598000D02*
X136527100Y-102598000D01*
X136527100Y-102598000D02*
X137072500Y-103143400D01*
X137072500Y-103143400D02*
X143195400Y-103143400D01*
X199619600Y-101600000D02*
X198092200Y-103127400D01*
X144718900Y-101619900D02*
X158750000Y-101619900D01*
X118115500Y-103127400D02*
X121892200Y-103127400D01*
X215900000Y-101600000D02*
X199619600Y-101600000D01*
X192376600Y-103127400D02*
X191843100Y-102593900D01*
%TO.N,/KR3*%
X83814800Y-124603300D02*
X81003300Y-121791800D01*
X176263600Y-119113600D02*
X122186400Y-119113600D01*
X81003300Y-121791800D02*
X81003300Y-120650000D01*
X81003300Y-119960700D02*
X81889300Y-119074700D01*
X83814800Y-126337800D02*
X83814800Y-124603300D01*
X85345200Y-127868200D02*
X83814800Y-126337800D01*
X81024800Y-157224800D02*
X82550000Y-158750000D01*
X81024800Y-147274800D02*
X82930400Y-145369200D01*
X25400000Y-158750000D02*
X26925200Y-157224800D01*
X218105800Y-109806100D02*
X226311900Y-101600000D01*
X81889300Y-119074700D02*
X119074700Y-119074700D01*
X81003300Y-120650000D02*
X81003300Y-119960700D01*
X177800000Y-120650000D02*
X176263600Y-119113600D01*
X85345200Y-141091400D02*
X85345200Y-127868200D01*
X226311900Y-101600000D02*
X234950000Y-101600000D01*
X122186400Y-119113600D02*
X120650000Y-120650000D01*
X177800000Y-120650000D02*
X188643900Y-109806100D01*
X82930400Y-145369200D02*
X82930400Y-143506200D01*
X81024800Y-157224800D02*
X81024800Y-147274800D01*
X81003300Y-120650000D02*
X63500000Y-120650000D01*
X82930400Y-143506200D02*
X85345200Y-141091400D01*
X119074700Y-119074700D02*
X120650000Y-120650000D01*
X188643900Y-109806100D02*
X218105800Y-109806100D01*
X26925200Y-157224800D02*
X81024800Y-157224800D01*
%TO.N,/KR2*%
X55642300Y-141245900D02*
X58723900Y-138164300D01*
X58687900Y-108642600D02*
X58502500Y-108457200D01*
X42190400Y-139700000D02*
X43736300Y-141245900D01*
X78488100Y-101600000D02*
X63500000Y-101600000D01*
X80015500Y-103127400D02*
X78488100Y-101600000D01*
X83792200Y-103127400D02*
X80015500Y-103127400D01*
X58532200Y-134023000D02*
X58532200Y-124728100D01*
X119124800Y-100074800D02*
X86844800Y-100074800D01*
X58502500Y-108457200D02*
X58502500Y-105707800D01*
X141251100Y-138148900D02*
X139700000Y-139700000D01*
X43736300Y-141245900D02*
X55642300Y-141245900D01*
X224416200Y-158750000D02*
X213660000Y-147993800D01*
X58723900Y-138164300D02*
X58723900Y-134214700D01*
X86844800Y-100074800D02*
X83792200Y-103127400D01*
X196850000Y-139700000D02*
X195298900Y-138148900D01*
X120650000Y-101600000D02*
X119124800Y-100074800D01*
X81014300Y-138164300D02*
X82550000Y-139700000D01*
X58723900Y-134214700D02*
X58532200Y-134023000D01*
X58532200Y-124728100D02*
X58687900Y-124572400D01*
X195298900Y-138148900D02*
X141251100Y-138148900D01*
X58723900Y-138164300D02*
X81014300Y-138164300D01*
X213660000Y-147993800D02*
X205143800Y-147993800D01*
X58502500Y-105707800D02*
X62610300Y-101600000D01*
X205143800Y-147993800D02*
X196850000Y-139700000D01*
X58687900Y-124572400D02*
X58687900Y-108642600D01*
X62610300Y-101600000D02*
X63500000Y-101600000D01*
X234950000Y-158750000D02*
X224416200Y-158750000D01*
X25400000Y-139700000D02*
X42190400Y-139700000D01*
%TO.N,/KR1*%
X158760000Y-158740000D02*
X158760000Y-158493900D01*
X108597500Y-138174000D02*
X105426000Y-141345500D01*
X215900000Y-158750000D02*
X214374900Y-157224900D01*
X160029000Y-157224900D02*
X158760000Y-158493900D01*
X62868300Y-160275100D02*
X74675700Y-160275100D01*
X75247700Y-159703100D02*
X80204100Y-159703100D01*
X85688200Y-160298300D02*
X87236500Y-158750000D01*
X214374900Y-157224900D02*
X160029000Y-157224900D01*
X80799300Y-160298300D02*
X85688200Y-160298300D01*
X61343200Y-158750000D02*
X62868300Y-160275100D01*
X87236500Y-158750000D02*
X101600000Y-158750000D01*
X84730500Y-120650000D02*
X105426000Y-141345500D01*
X139700000Y-120650000D02*
X139700000Y-130249300D01*
X80204100Y-159703100D02*
X80799300Y-160298300D01*
X105426000Y-141345500D02*
X105426000Y-154924000D01*
X105426000Y-154924000D02*
X101600000Y-158750000D01*
X44450000Y-158750000D02*
X61343200Y-158750000D01*
X82550000Y-120650000D02*
X84730500Y-120650000D01*
X138140000Y-138174000D02*
X108597500Y-138174000D01*
X158750000Y-158750000D02*
X158760000Y-158740000D01*
X139700000Y-130249300D02*
X138140000Y-131809300D01*
X138140000Y-131809300D02*
X138140000Y-138174000D01*
X74675700Y-160275100D02*
X75247700Y-159703100D01*
%TO.N,Net-(D50-Pad1)*%
X30424900Y-80645000D02*
X31059900Y-80010000D01*
X32385000Y-80010000D02*
X31059900Y-80010000D01*
X28575000Y-80645000D02*
X30424900Y-80645000D01*
%TD*%
M02*
