%TF.GenerationSoftware,KiCad,Pcbnew,(6.0.0-0)*%
%TF.CreationDate,2022-06-17T23:46:41-04:00*%
%TF.ProjectId,justin-freetracing,6a757374-696e-42d6-9672-656574726163,rev?*%
%TF.SameCoordinates,Original*%
%TF.FileFunction,Legend,Bot*%
%TF.FilePolarity,Positive*%
%FSLAX46Y46*%
G04 Gerber Fmt 4.6, Leading zero omitted, Abs format (unit mm)*
G04 Created by KiCad (PCBNEW (6.0.0-0)) date 2022-06-17 23:46:41*
%MOMM*%
%LPD*%
G01*
G04 APERTURE LIST*
%ADD10C,0.150000*%
%ADD11C,0.120000*%
G04 APERTURE END LIST*
D10*
%TO.C,D45*%
X233624285Y-152287380D02*
X233624285Y-151287380D01*
X233386190Y-151287380D01*
X233243333Y-151335000D01*
X233148095Y-151430238D01*
X233100476Y-151525476D01*
X233052857Y-151715952D01*
X233052857Y-151858809D01*
X233100476Y-152049285D01*
X233148095Y-152144523D01*
X233243333Y-152239761D01*
X233386190Y-152287380D01*
X233624285Y-152287380D01*
X232195714Y-151620714D02*
X232195714Y-152287380D01*
X232433809Y-151239761D02*
X232671904Y-151954047D01*
X232052857Y-151954047D01*
X231195714Y-151287380D02*
X231671904Y-151287380D01*
X231719523Y-151763571D01*
X231671904Y-151715952D01*
X231576666Y-151668333D01*
X231338571Y-151668333D01*
X231243333Y-151715952D01*
X231195714Y-151763571D01*
X231148095Y-151858809D01*
X231148095Y-152096904D01*
X231195714Y-152192142D01*
X231243333Y-152239761D01*
X231338571Y-152287380D01*
X231576666Y-152287380D01*
X231671904Y-152239761D01*
X231719523Y-152192142D01*
%TO.C,D17*%
X100274285Y-95137380D02*
X100274285Y-94137380D01*
X100036190Y-94137380D01*
X99893333Y-94185000D01*
X99798095Y-94280238D01*
X99750476Y-94375476D01*
X99702857Y-94565952D01*
X99702857Y-94708809D01*
X99750476Y-94899285D01*
X99798095Y-94994523D01*
X99893333Y-95089761D01*
X100036190Y-95137380D01*
X100274285Y-95137380D01*
X98750476Y-95137380D02*
X99321904Y-95137380D01*
X99036190Y-95137380D02*
X99036190Y-94137380D01*
X99131428Y-94280238D01*
X99226666Y-94375476D01*
X99321904Y-94423095D01*
X98417142Y-94137380D02*
X97750476Y-94137380D01*
X98179047Y-95137380D01*
X103131904Y-95507380D02*
X103131904Y-94507380D01*
X102560476Y-95507380D02*
X102989047Y-94935952D01*
X102560476Y-94507380D02*
X103131904Y-95078809D01*
%TO.C,D25*%
X138374285Y-95137380D02*
X138374285Y-94137380D01*
X138136190Y-94137380D01*
X137993333Y-94185000D01*
X137898095Y-94280238D01*
X137850476Y-94375476D01*
X137802857Y-94565952D01*
X137802857Y-94708809D01*
X137850476Y-94899285D01*
X137898095Y-94994523D01*
X137993333Y-95089761D01*
X138136190Y-95137380D01*
X138374285Y-95137380D01*
X137421904Y-94232619D02*
X137374285Y-94185000D01*
X137279047Y-94137380D01*
X137040952Y-94137380D01*
X136945714Y-94185000D01*
X136898095Y-94232619D01*
X136850476Y-94327857D01*
X136850476Y-94423095D01*
X136898095Y-94565952D01*
X137469523Y-95137380D01*
X136850476Y-95137380D01*
X135945714Y-94137380D02*
X136421904Y-94137380D01*
X136469523Y-94613571D01*
X136421904Y-94565952D01*
X136326666Y-94518333D01*
X136088571Y-94518333D01*
X135993333Y-94565952D01*
X135945714Y-94613571D01*
X135898095Y-94708809D01*
X135898095Y-94946904D01*
X135945714Y-95042142D01*
X135993333Y-95089761D01*
X136088571Y-95137380D01*
X136326666Y-95137380D01*
X136421904Y-95089761D01*
X136469523Y-95042142D01*
X141231904Y-95507380D02*
X141231904Y-94507380D01*
X140660476Y-95507380D02*
X141089047Y-94935952D01*
X140660476Y-94507380D02*
X141231904Y-95078809D01*
%TO.C,D23*%
X119324285Y-133237380D02*
X119324285Y-132237380D01*
X119086190Y-132237380D01*
X118943333Y-132285000D01*
X118848095Y-132380238D01*
X118800476Y-132475476D01*
X118752857Y-132665952D01*
X118752857Y-132808809D01*
X118800476Y-132999285D01*
X118848095Y-133094523D01*
X118943333Y-133189761D01*
X119086190Y-133237380D01*
X119324285Y-133237380D01*
X118371904Y-132332619D02*
X118324285Y-132285000D01*
X118229047Y-132237380D01*
X117990952Y-132237380D01*
X117895714Y-132285000D01*
X117848095Y-132332619D01*
X117800476Y-132427857D01*
X117800476Y-132523095D01*
X117848095Y-132665952D01*
X118419523Y-133237380D01*
X117800476Y-133237380D01*
X117467142Y-132237380D02*
X116848095Y-132237380D01*
X117181428Y-132618333D01*
X117038571Y-132618333D01*
X116943333Y-132665952D01*
X116895714Y-132713571D01*
X116848095Y-132808809D01*
X116848095Y-133046904D01*
X116895714Y-133142142D01*
X116943333Y-133189761D01*
X117038571Y-133237380D01*
X117324285Y-133237380D01*
X117419523Y-133189761D01*
X117467142Y-133142142D01*
X122181904Y-133607380D02*
X122181904Y-132607380D01*
X121610476Y-133607380D02*
X122039047Y-133035952D01*
X121610476Y-132607380D02*
X122181904Y-133178809D01*
%TO.C,D7*%
X42648095Y-133237380D02*
X42648095Y-132237380D01*
X42410000Y-132237380D01*
X42267142Y-132285000D01*
X42171904Y-132380238D01*
X42124285Y-132475476D01*
X42076666Y-132665952D01*
X42076666Y-132808809D01*
X42124285Y-132999285D01*
X42171904Y-133094523D01*
X42267142Y-133189761D01*
X42410000Y-133237380D01*
X42648095Y-133237380D01*
X41743333Y-132237380D02*
X41076666Y-132237380D01*
X41505238Y-133237380D01*
X45981904Y-133607380D02*
X45981904Y-132607380D01*
X45410476Y-133607380D02*
X45839047Y-133035952D01*
X45410476Y-132607380D02*
X45981904Y-133178809D01*
%TO.C,R50*%
X30301333Y-62682380D02*
X30872761Y-62682380D01*
X30587047Y-62682380D02*
X30587047Y-61682380D01*
X30682285Y-61825238D01*
X30777523Y-61920476D01*
X30872761Y-61968095D01*
X29872761Y-62587142D02*
X29825142Y-62634761D01*
X29872761Y-62682380D01*
X29920380Y-62634761D01*
X29872761Y-62587142D01*
X29872761Y-62682380D01*
X28920380Y-61682380D02*
X29396571Y-61682380D01*
X29444190Y-62158571D01*
X29396571Y-62110952D01*
X29301333Y-62063333D01*
X29063238Y-62063333D01*
X28968000Y-62110952D01*
X28920380Y-62158571D01*
X28872761Y-62253809D01*
X28872761Y-62491904D01*
X28920380Y-62587142D01*
X28968000Y-62634761D01*
X29063238Y-62682380D01*
X29301333Y-62682380D01*
X29396571Y-62634761D01*
X29444190Y-62587142D01*
X28444190Y-62682380D02*
X28444190Y-61682380D01*
X28348952Y-62301428D02*
X28063238Y-62682380D01*
X28063238Y-62015714D02*
X28444190Y-62396666D01*
%TO.C,D37*%
X195524285Y-95137380D02*
X195524285Y-94137380D01*
X195286190Y-94137380D01*
X195143333Y-94185000D01*
X195048095Y-94280238D01*
X195000476Y-94375476D01*
X194952857Y-94565952D01*
X194952857Y-94708809D01*
X195000476Y-94899285D01*
X195048095Y-94994523D01*
X195143333Y-95089761D01*
X195286190Y-95137380D01*
X195524285Y-95137380D01*
X194619523Y-94137380D02*
X194000476Y-94137380D01*
X194333809Y-94518333D01*
X194190952Y-94518333D01*
X194095714Y-94565952D01*
X194048095Y-94613571D01*
X194000476Y-94708809D01*
X194000476Y-94946904D01*
X194048095Y-95042142D01*
X194095714Y-95089761D01*
X194190952Y-95137380D01*
X194476666Y-95137380D01*
X194571904Y-95089761D01*
X194619523Y-95042142D01*
X193667142Y-94137380D02*
X193000476Y-94137380D01*
X193429047Y-95137380D01*
X198381904Y-95507380D02*
X198381904Y-94507380D01*
X197810476Y-95507380D02*
X198239047Y-94935952D01*
X197810476Y-94507380D02*
X198381904Y-95078809D01*
%TO.C,D41*%
X214574285Y-95137380D02*
X214574285Y-94137380D01*
X214336190Y-94137380D01*
X214193333Y-94185000D01*
X214098095Y-94280238D01*
X214050476Y-94375476D01*
X214002857Y-94565952D01*
X214002857Y-94708809D01*
X214050476Y-94899285D01*
X214098095Y-94994523D01*
X214193333Y-95089761D01*
X214336190Y-95137380D01*
X214574285Y-95137380D01*
X213145714Y-94470714D02*
X213145714Y-95137380D01*
X213383809Y-94089761D02*
X213621904Y-94804047D01*
X213002857Y-94804047D01*
X212098095Y-95137380D02*
X212669523Y-95137380D01*
X212383809Y-95137380D02*
X212383809Y-94137380D01*
X212479047Y-94280238D01*
X212574285Y-94375476D01*
X212669523Y-94423095D01*
%TO.C,D28*%
X138374285Y-152287380D02*
X138374285Y-151287380D01*
X138136190Y-151287380D01*
X137993333Y-151335000D01*
X137898095Y-151430238D01*
X137850476Y-151525476D01*
X137802857Y-151715952D01*
X137802857Y-151858809D01*
X137850476Y-152049285D01*
X137898095Y-152144523D01*
X137993333Y-152239761D01*
X138136190Y-152287380D01*
X138374285Y-152287380D01*
X137421904Y-151382619D02*
X137374285Y-151335000D01*
X137279047Y-151287380D01*
X137040952Y-151287380D01*
X136945714Y-151335000D01*
X136898095Y-151382619D01*
X136850476Y-151477857D01*
X136850476Y-151573095D01*
X136898095Y-151715952D01*
X137469523Y-152287380D01*
X136850476Y-152287380D01*
X136279047Y-151715952D02*
X136374285Y-151668333D01*
X136421904Y-151620714D01*
X136469523Y-151525476D01*
X136469523Y-151477857D01*
X136421904Y-151382619D01*
X136374285Y-151335000D01*
X136279047Y-151287380D01*
X136088571Y-151287380D01*
X135993333Y-151335000D01*
X135945714Y-151382619D01*
X135898095Y-151477857D01*
X135898095Y-151525476D01*
X135945714Y-151620714D01*
X135993333Y-151668333D01*
X136088571Y-151715952D01*
X136279047Y-151715952D01*
X136374285Y-151763571D01*
X136421904Y-151811190D01*
X136469523Y-151906428D01*
X136469523Y-152096904D01*
X136421904Y-152192142D01*
X136374285Y-152239761D01*
X136279047Y-152287380D01*
X136088571Y-152287380D01*
X135993333Y-152239761D01*
X135945714Y-152192142D01*
X135898095Y-152096904D01*
X135898095Y-151906428D01*
X135945714Y-151811190D01*
X135993333Y-151763571D01*
X136088571Y-151715952D01*
X141231904Y-152657380D02*
X141231904Y-151657380D01*
X140660476Y-152657380D02*
X141089047Y-152085952D01*
X140660476Y-151657380D02*
X141231904Y-152228809D01*
%TO.C,D11*%
X62174285Y-133237380D02*
X62174285Y-132237380D01*
X61936190Y-132237380D01*
X61793333Y-132285000D01*
X61698095Y-132380238D01*
X61650476Y-132475476D01*
X61602857Y-132665952D01*
X61602857Y-132808809D01*
X61650476Y-132999285D01*
X61698095Y-133094523D01*
X61793333Y-133189761D01*
X61936190Y-133237380D01*
X62174285Y-133237380D01*
X60650476Y-133237380D02*
X61221904Y-133237380D01*
X60936190Y-133237380D02*
X60936190Y-132237380D01*
X61031428Y-132380238D01*
X61126666Y-132475476D01*
X61221904Y-132523095D01*
X59698095Y-133237380D02*
X60269523Y-133237380D01*
X59983809Y-133237380D02*
X59983809Y-132237380D01*
X60079047Y-132380238D01*
X60174285Y-132475476D01*
X60269523Y-132523095D01*
X65031904Y-133607380D02*
X65031904Y-132607380D01*
X64460476Y-133607380D02*
X64889047Y-133035952D01*
X64460476Y-132607380D02*
X65031904Y-133178809D01*
%TO.C,D43*%
X214574285Y-133110380D02*
X214574285Y-132110380D01*
X214336190Y-132110380D01*
X214193333Y-132158000D01*
X214098095Y-132253238D01*
X214050476Y-132348476D01*
X214002857Y-132538952D01*
X214002857Y-132681809D01*
X214050476Y-132872285D01*
X214098095Y-132967523D01*
X214193333Y-133062761D01*
X214336190Y-133110380D01*
X214574285Y-133110380D01*
X213145714Y-132443714D02*
X213145714Y-133110380D01*
X213383809Y-132062761D02*
X213621904Y-132777047D01*
X213002857Y-132777047D01*
X212717142Y-132110380D02*
X212098095Y-132110380D01*
X212431428Y-132491333D01*
X212288571Y-132491333D01*
X212193333Y-132538952D01*
X212145714Y-132586571D01*
X212098095Y-132681809D01*
X212098095Y-132919904D01*
X212145714Y-133015142D01*
X212193333Y-133062761D01*
X212288571Y-133110380D01*
X212574285Y-133110380D01*
X212669523Y-133062761D01*
X212717142Y-133015142D01*
X217431904Y-133480380D02*
X217431904Y-132480380D01*
X216860476Y-133480380D02*
X217289047Y-132908952D01*
X216860476Y-132480380D02*
X217431904Y-133051809D01*
%TO.C,R52*%
X40389904Y-61682380D02*
X40580380Y-61682380D01*
X40675619Y-61730000D01*
X40723238Y-61777619D01*
X40818476Y-61920476D01*
X40866095Y-62110952D01*
X40866095Y-62491904D01*
X40818476Y-62587142D01*
X40770857Y-62634761D01*
X40675619Y-62682380D01*
X40485142Y-62682380D01*
X40389904Y-62634761D01*
X40342285Y-62587142D01*
X40294666Y-62491904D01*
X40294666Y-62253809D01*
X40342285Y-62158571D01*
X40389904Y-62110952D01*
X40485142Y-62063333D01*
X40675619Y-62063333D01*
X40770857Y-62110952D01*
X40818476Y-62158571D01*
X40866095Y-62253809D01*
X39723238Y-62110952D02*
X39818476Y-62063333D01*
X39866095Y-62015714D01*
X39913714Y-61920476D01*
X39913714Y-61872857D01*
X39866095Y-61777619D01*
X39818476Y-61730000D01*
X39723238Y-61682380D01*
X39532761Y-61682380D01*
X39437523Y-61730000D01*
X39389904Y-61777619D01*
X39342285Y-61872857D01*
X39342285Y-61920476D01*
X39389904Y-62015714D01*
X39437523Y-62063333D01*
X39532761Y-62110952D01*
X39723238Y-62110952D01*
X39818476Y-62158571D01*
X39866095Y-62206190D01*
X39913714Y-62301428D01*
X39913714Y-62491904D01*
X39866095Y-62587142D01*
X39818476Y-62634761D01*
X39723238Y-62682380D01*
X39532761Y-62682380D01*
X39437523Y-62634761D01*
X39389904Y-62587142D01*
X39342285Y-62491904D01*
X39342285Y-62301428D01*
X39389904Y-62206190D01*
X39437523Y-62158571D01*
X39532761Y-62110952D01*
X38723238Y-61682380D02*
X38628000Y-61682380D01*
X38532761Y-61730000D01*
X38485142Y-61777619D01*
X38437523Y-61872857D01*
X38389904Y-62063333D01*
X38389904Y-62301428D01*
X38437523Y-62491904D01*
X38485142Y-62587142D01*
X38532761Y-62634761D01*
X38628000Y-62682380D01*
X38723238Y-62682380D01*
X38818476Y-62634761D01*
X38866095Y-62587142D01*
X38913714Y-62491904D01*
X38961333Y-62301428D01*
X38961333Y-62063333D01*
X38913714Y-61872857D01*
X38866095Y-61777619D01*
X38818476Y-61730000D01*
X38723238Y-61682380D01*
%TO.C,D21*%
X119324285Y-95137380D02*
X119324285Y-94137380D01*
X119086190Y-94137380D01*
X118943333Y-94185000D01*
X118848095Y-94280238D01*
X118800476Y-94375476D01*
X118752857Y-94565952D01*
X118752857Y-94708809D01*
X118800476Y-94899285D01*
X118848095Y-94994523D01*
X118943333Y-95089761D01*
X119086190Y-95137380D01*
X119324285Y-95137380D01*
X118371904Y-94232619D02*
X118324285Y-94185000D01*
X118229047Y-94137380D01*
X117990952Y-94137380D01*
X117895714Y-94185000D01*
X117848095Y-94232619D01*
X117800476Y-94327857D01*
X117800476Y-94423095D01*
X117848095Y-94565952D01*
X118419523Y-95137380D01*
X117800476Y-95137380D01*
X116848095Y-95137380D02*
X117419523Y-95137380D01*
X117133809Y-95137380D02*
X117133809Y-94137380D01*
X117229047Y-94280238D01*
X117324285Y-94375476D01*
X117419523Y-94423095D01*
X122181904Y-95507380D02*
X122181904Y-94507380D01*
X121610476Y-95507380D02*
X122039047Y-94935952D01*
X121610476Y-94507380D02*
X122181904Y-95078809D01*
%TO.C,D27*%
X138374285Y-133237380D02*
X138374285Y-132237380D01*
X138136190Y-132237380D01*
X137993333Y-132285000D01*
X137898095Y-132380238D01*
X137850476Y-132475476D01*
X137802857Y-132665952D01*
X137802857Y-132808809D01*
X137850476Y-132999285D01*
X137898095Y-133094523D01*
X137993333Y-133189761D01*
X138136190Y-133237380D01*
X138374285Y-133237380D01*
X137421904Y-132332619D02*
X137374285Y-132285000D01*
X137279047Y-132237380D01*
X137040952Y-132237380D01*
X136945714Y-132285000D01*
X136898095Y-132332619D01*
X136850476Y-132427857D01*
X136850476Y-132523095D01*
X136898095Y-132665952D01*
X137469523Y-133237380D01*
X136850476Y-133237380D01*
X136517142Y-132237380D02*
X135850476Y-132237380D01*
X136279047Y-133237380D01*
X141231904Y-133607380D02*
X141231904Y-132607380D01*
X140660476Y-133607380D02*
X141089047Y-133035952D01*
X140660476Y-132607380D02*
X141231904Y-133178809D01*
%TO.C,D35*%
X176474285Y-133237380D02*
X176474285Y-132237380D01*
X176236190Y-132237380D01*
X176093333Y-132285000D01*
X175998095Y-132380238D01*
X175950476Y-132475476D01*
X175902857Y-132665952D01*
X175902857Y-132808809D01*
X175950476Y-132999285D01*
X175998095Y-133094523D01*
X176093333Y-133189761D01*
X176236190Y-133237380D01*
X176474285Y-133237380D01*
X175569523Y-132237380D02*
X174950476Y-132237380D01*
X175283809Y-132618333D01*
X175140952Y-132618333D01*
X175045714Y-132665952D01*
X174998095Y-132713571D01*
X174950476Y-132808809D01*
X174950476Y-133046904D01*
X174998095Y-133142142D01*
X175045714Y-133189761D01*
X175140952Y-133237380D01*
X175426666Y-133237380D01*
X175521904Y-133189761D01*
X175569523Y-133142142D01*
X174045714Y-132237380D02*
X174521904Y-132237380D01*
X174569523Y-132713571D01*
X174521904Y-132665952D01*
X174426666Y-132618333D01*
X174188571Y-132618333D01*
X174093333Y-132665952D01*
X174045714Y-132713571D01*
X173998095Y-132808809D01*
X173998095Y-133046904D01*
X174045714Y-133142142D01*
X174093333Y-133189761D01*
X174188571Y-133237380D01*
X174426666Y-133237380D01*
X174521904Y-133189761D01*
X174569523Y-133142142D01*
X179331904Y-133607380D02*
X179331904Y-132607380D01*
X178760476Y-133607380D02*
X179189047Y-133035952D01*
X178760476Y-132607380D02*
X179331904Y-133178809D01*
%TO.C,D16*%
X81224285Y-152287380D02*
X81224285Y-151287380D01*
X80986190Y-151287380D01*
X80843333Y-151335000D01*
X80748095Y-151430238D01*
X80700476Y-151525476D01*
X80652857Y-151715952D01*
X80652857Y-151858809D01*
X80700476Y-152049285D01*
X80748095Y-152144523D01*
X80843333Y-152239761D01*
X80986190Y-152287380D01*
X81224285Y-152287380D01*
X79700476Y-152287380D02*
X80271904Y-152287380D01*
X79986190Y-152287380D02*
X79986190Y-151287380D01*
X80081428Y-151430238D01*
X80176666Y-151525476D01*
X80271904Y-151573095D01*
X78843333Y-151287380D02*
X79033809Y-151287380D01*
X79129047Y-151335000D01*
X79176666Y-151382619D01*
X79271904Y-151525476D01*
X79319523Y-151715952D01*
X79319523Y-152096904D01*
X79271904Y-152192142D01*
X79224285Y-152239761D01*
X79129047Y-152287380D01*
X78938571Y-152287380D01*
X78843333Y-152239761D01*
X78795714Y-152192142D01*
X78748095Y-152096904D01*
X78748095Y-151858809D01*
X78795714Y-151763571D01*
X78843333Y-151715952D01*
X78938571Y-151668333D01*
X79129047Y-151668333D01*
X79224285Y-151715952D01*
X79271904Y-151763571D01*
X79319523Y-151858809D01*
X84081904Y-152657380D02*
X84081904Y-151657380D01*
X83510476Y-152657380D02*
X83939047Y-152085952D01*
X83510476Y-151657380D02*
X84081904Y-152228809D01*
%TO.C,D19*%
X100274285Y-133237380D02*
X100274285Y-132237380D01*
X100036190Y-132237380D01*
X99893333Y-132285000D01*
X99798095Y-132380238D01*
X99750476Y-132475476D01*
X99702857Y-132665952D01*
X99702857Y-132808809D01*
X99750476Y-132999285D01*
X99798095Y-133094523D01*
X99893333Y-133189761D01*
X100036190Y-133237380D01*
X100274285Y-133237380D01*
X98750476Y-133237380D02*
X99321904Y-133237380D01*
X99036190Y-133237380D02*
X99036190Y-132237380D01*
X99131428Y-132380238D01*
X99226666Y-132475476D01*
X99321904Y-132523095D01*
X98274285Y-133237380D02*
X98083809Y-133237380D01*
X97988571Y-133189761D01*
X97940952Y-133142142D01*
X97845714Y-132999285D01*
X97798095Y-132808809D01*
X97798095Y-132427857D01*
X97845714Y-132332619D01*
X97893333Y-132285000D01*
X97988571Y-132237380D01*
X98179047Y-132237380D01*
X98274285Y-132285000D01*
X98321904Y-132332619D01*
X98369523Y-132427857D01*
X98369523Y-132665952D01*
X98321904Y-132761190D01*
X98274285Y-132808809D01*
X98179047Y-132856428D01*
X97988571Y-132856428D01*
X97893333Y-132808809D01*
X97845714Y-132761190D01*
X97798095Y-132665952D01*
X103131904Y-133607380D02*
X103131904Y-132607380D01*
X102560476Y-133607380D02*
X102989047Y-133035952D01*
X102560476Y-132607380D02*
X103131904Y-133178809D01*
%TO.C,D42*%
X214574285Y-114187380D02*
X214574285Y-113187380D01*
X214336190Y-113187380D01*
X214193333Y-113235000D01*
X214098095Y-113330238D01*
X214050476Y-113425476D01*
X214002857Y-113615952D01*
X214002857Y-113758809D01*
X214050476Y-113949285D01*
X214098095Y-114044523D01*
X214193333Y-114139761D01*
X214336190Y-114187380D01*
X214574285Y-114187380D01*
X213145714Y-113520714D02*
X213145714Y-114187380D01*
X213383809Y-113139761D02*
X213621904Y-113854047D01*
X213002857Y-113854047D01*
X212669523Y-113282619D02*
X212621904Y-113235000D01*
X212526666Y-113187380D01*
X212288571Y-113187380D01*
X212193333Y-113235000D01*
X212145714Y-113282619D01*
X212098095Y-113377857D01*
X212098095Y-113473095D01*
X212145714Y-113615952D01*
X212717142Y-114187380D01*
X212098095Y-114187380D01*
X217431904Y-114557380D02*
X217431904Y-113557380D01*
X216860476Y-114557380D02*
X217289047Y-113985952D01*
X216860476Y-113557380D02*
X217431904Y-114128809D01*
%TO.C,D31*%
X157424285Y-133237380D02*
X157424285Y-132237380D01*
X157186190Y-132237380D01*
X157043333Y-132285000D01*
X156948095Y-132380238D01*
X156900476Y-132475476D01*
X156852857Y-132665952D01*
X156852857Y-132808809D01*
X156900476Y-132999285D01*
X156948095Y-133094523D01*
X157043333Y-133189761D01*
X157186190Y-133237380D01*
X157424285Y-133237380D01*
X156519523Y-132237380D02*
X155900476Y-132237380D01*
X156233809Y-132618333D01*
X156090952Y-132618333D01*
X155995714Y-132665952D01*
X155948095Y-132713571D01*
X155900476Y-132808809D01*
X155900476Y-133046904D01*
X155948095Y-133142142D01*
X155995714Y-133189761D01*
X156090952Y-133237380D01*
X156376666Y-133237380D01*
X156471904Y-133189761D01*
X156519523Y-133142142D01*
X154948095Y-133237380D02*
X155519523Y-133237380D01*
X155233809Y-133237380D02*
X155233809Y-132237380D01*
X155329047Y-132380238D01*
X155424285Y-132475476D01*
X155519523Y-132523095D01*
X160281904Y-133607380D02*
X160281904Y-132607380D01*
X159710476Y-133607380D02*
X160139047Y-133035952D01*
X159710476Y-132607380D02*
X160281904Y-133178809D01*
%TO.C,D38*%
X195524285Y-114187380D02*
X195524285Y-113187380D01*
X195286190Y-113187380D01*
X195143333Y-113235000D01*
X195048095Y-113330238D01*
X195000476Y-113425476D01*
X194952857Y-113615952D01*
X194952857Y-113758809D01*
X195000476Y-113949285D01*
X195048095Y-114044523D01*
X195143333Y-114139761D01*
X195286190Y-114187380D01*
X195524285Y-114187380D01*
X194619523Y-113187380D02*
X194000476Y-113187380D01*
X194333809Y-113568333D01*
X194190952Y-113568333D01*
X194095714Y-113615952D01*
X194048095Y-113663571D01*
X194000476Y-113758809D01*
X194000476Y-113996904D01*
X194048095Y-114092142D01*
X194095714Y-114139761D01*
X194190952Y-114187380D01*
X194476666Y-114187380D01*
X194571904Y-114139761D01*
X194619523Y-114092142D01*
X193429047Y-113615952D02*
X193524285Y-113568333D01*
X193571904Y-113520714D01*
X193619523Y-113425476D01*
X193619523Y-113377857D01*
X193571904Y-113282619D01*
X193524285Y-113235000D01*
X193429047Y-113187380D01*
X193238571Y-113187380D01*
X193143333Y-113235000D01*
X193095714Y-113282619D01*
X193048095Y-113377857D01*
X193048095Y-113425476D01*
X193095714Y-113520714D01*
X193143333Y-113568333D01*
X193238571Y-113615952D01*
X193429047Y-113615952D01*
X193524285Y-113663571D01*
X193571904Y-113711190D01*
X193619523Y-113806428D01*
X193619523Y-113996904D01*
X193571904Y-114092142D01*
X193524285Y-114139761D01*
X193429047Y-114187380D01*
X193238571Y-114187380D01*
X193143333Y-114139761D01*
X193095714Y-114092142D01*
X193048095Y-113996904D01*
X193048095Y-113806428D01*
X193095714Y-113711190D01*
X193143333Y-113663571D01*
X193238571Y-113615952D01*
X198381904Y-114557380D02*
X198381904Y-113557380D01*
X197810476Y-114557380D02*
X198239047Y-113985952D01*
X197810476Y-113557380D02*
X198381904Y-114128809D01*
%TO.C,D15*%
X81224285Y-133237380D02*
X81224285Y-132237380D01*
X80986190Y-132237380D01*
X80843333Y-132285000D01*
X80748095Y-132380238D01*
X80700476Y-132475476D01*
X80652857Y-132665952D01*
X80652857Y-132808809D01*
X80700476Y-132999285D01*
X80748095Y-133094523D01*
X80843333Y-133189761D01*
X80986190Y-133237380D01*
X81224285Y-133237380D01*
X79700476Y-133237380D02*
X80271904Y-133237380D01*
X79986190Y-133237380D02*
X79986190Y-132237380D01*
X80081428Y-132380238D01*
X80176666Y-132475476D01*
X80271904Y-132523095D01*
X78795714Y-132237380D02*
X79271904Y-132237380D01*
X79319523Y-132713571D01*
X79271904Y-132665952D01*
X79176666Y-132618333D01*
X78938571Y-132618333D01*
X78843333Y-132665952D01*
X78795714Y-132713571D01*
X78748095Y-132808809D01*
X78748095Y-133046904D01*
X78795714Y-133142142D01*
X78843333Y-133189761D01*
X78938571Y-133237380D01*
X79176666Y-133237380D01*
X79271904Y-133189761D01*
X79319523Y-133142142D01*
X84081904Y-133607380D02*
X84081904Y-132607380D01*
X83510476Y-133607380D02*
X83939047Y-133035952D01*
X83510476Y-132607380D02*
X84081904Y-133178809D01*
%TO.C,D34*%
X176474285Y-114187380D02*
X176474285Y-113187380D01*
X176236190Y-113187380D01*
X176093333Y-113235000D01*
X175998095Y-113330238D01*
X175950476Y-113425476D01*
X175902857Y-113615952D01*
X175902857Y-113758809D01*
X175950476Y-113949285D01*
X175998095Y-114044523D01*
X176093333Y-114139761D01*
X176236190Y-114187380D01*
X176474285Y-114187380D01*
X175569523Y-113187380D02*
X174950476Y-113187380D01*
X175283809Y-113568333D01*
X175140952Y-113568333D01*
X175045714Y-113615952D01*
X174998095Y-113663571D01*
X174950476Y-113758809D01*
X174950476Y-113996904D01*
X174998095Y-114092142D01*
X175045714Y-114139761D01*
X175140952Y-114187380D01*
X175426666Y-114187380D01*
X175521904Y-114139761D01*
X175569523Y-114092142D01*
X174093333Y-113520714D02*
X174093333Y-114187380D01*
X174331428Y-113139761D02*
X174569523Y-113854047D01*
X173950476Y-113854047D01*
X179331904Y-114557380D02*
X179331904Y-113557380D01*
X178760476Y-114557380D02*
X179189047Y-113985952D01*
X178760476Y-113557380D02*
X179331904Y-114128809D01*
%TO.C,D10*%
X62174285Y-114187380D02*
X62174285Y-113187380D01*
X61936190Y-113187380D01*
X61793333Y-113235000D01*
X61698095Y-113330238D01*
X61650476Y-113425476D01*
X61602857Y-113615952D01*
X61602857Y-113758809D01*
X61650476Y-113949285D01*
X61698095Y-114044523D01*
X61793333Y-114139761D01*
X61936190Y-114187380D01*
X62174285Y-114187380D01*
X60650476Y-114187380D02*
X61221904Y-114187380D01*
X60936190Y-114187380D02*
X60936190Y-113187380D01*
X61031428Y-113330238D01*
X61126666Y-113425476D01*
X61221904Y-113473095D01*
X60031428Y-113187380D02*
X59936190Y-113187380D01*
X59840952Y-113235000D01*
X59793333Y-113282619D01*
X59745714Y-113377857D01*
X59698095Y-113568333D01*
X59698095Y-113806428D01*
X59745714Y-113996904D01*
X59793333Y-114092142D01*
X59840952Y-114139761D01*
X59936190Y-114187380D01*
X60031428Y-114187380D01*
X60126666Y-114139761D01*
X60174285Y-114092142D01*
X60221904Y-113996904D01*
X60269523Y-113806428D01*
X60269523Y-113568333D01*
X60221904Y-113377857D01*
X60174285Y-113282619D01*
X60126666Y-113235000D01*
X60031428Y-113187380D01*
X65031904Y-114557380D02*
X65031904Y-113557380D01*
X64460476Y-114557380D02*
X64889047Y-113985952D01*
X64460476Y-113557380D02*
X65031904Y-114128809D01*
%TO.C,R53*%
X43564904Y-61682380D02*
X43755380Y-61682380D01*
X43850619Y-61730000D01*
X43898238Y-61777619D01*
X43993476Y-61920476D01*
X44041095Y-62110952D01*
X44041095Y-62491904D01*
X43993476Y-62587142D01*
X43945857Y-62634761D01*
X43850619Y-62682380D01*
X43660142Y-62682380D01*
X43564904Y-62634761D01*
X43517285Y-62587142D01*
X43469666Y-62491904D01*
X43469666Y-62253809D01*
X43517285Y-62158571D01*
X43564904Y-62110952D01*
X43660142Y-62063333D01*
X43850619Y-62063333D01*
X43945857Y-62110952D01*
X43993476Y-62158571D01*
X44041095Y-62253809D01*
X42898238Y-62110952D02*
X42993476Y-62063333D01*
X43041095Y-62015714D01*
X43088714Y-61920476D01*
X43088714Y-61872857D01*
X43041095Y-61777619D01*
X42993476Y-61730000D01*
X42898238Y-61682380D01*
X42707761Y-61682380D01*
X42612523Y-61730000D01*
X42564904Y-61777619D01*
X42517285Y-61872857D01*
X42517285Y-61920476D01*
X42564904Y-62015714D01*
X42612523Y-62063333D01*
X42707761Y-62110952D01*
X42898238Y-62110952D01*
X42993476Y-62158571D01*
X43041095Y-62206190D01*
X43088714Y-62301428D01*
X43088714Y-62491904D01*
X43041095Y-62587142D01*
X42993476Y-62634761D01*
X42898238Y-62682380D01*
X42707761Y-62682380D01*
X42612523Y-62634761D01*
X42564904Y-62587142D01*
X42517285Y-62491904D01*
X42517285Y-62301428D01*
X42564904Y-62206190D01*
X42612523Y-62158571D01*
X42707761Y-62110952D01*
X41898238Y-61682380D02*
X41803000Y-61682380D01*
X41707761Y-61730000D01*
X41660142Y-61777619D01*
X41612523Y-61872857D01*
X41564904Y-62063333D01*
X41564904Y-62301428D01*
X41612523Y-62491904D01*
X41660142Y-62587142D01*
X41707761Y-62634761D01*
X41803000Y-62682380D01*
X41898238Y-62682380D01*
X41993476Y-62634761D01*
X42041095Y-62587142D01*
X42088714Y-62491904D01*
X42136333Y-62301428D01*
X42136333Y-62063333D01*
X42088714Y-61872857D01*
X42041095Y-61777619D01*
X41993476Y-61730000D01*
X41898238Y-61682380D01*
%TO.C,D40*%
X195524285Y-152287380D02*
X195524285Y-151287380D01*
X195286190Y-151287380D01*
X195143333Y-151335000D01*
X195048095Y-151430238D01*
X195000476Y-151525476D01*
X194952857Y-151715952D01*
X194952857Y-151858809D01*
X195000476Y-152049285D01*
X195048095Y-152144523D01*
X195143333Y-152239761D01*
X195286190Y-152287380D01*
X195524285Y-152287380D01*
X194095714Y-151620714D02*
X194095714Y-152287380D01*
X194333809Y-151239761D02*
X194571904Y-151954047D01*
X193952857Y-151954047D01*
X193381428Y-151287380D02*
X193286190Y-151287380D01*
X193190952Y-151335000D01*
X193143333Y-151382619D01*
X193095714Y-151477857D01*
X193048095Y-151668333D01*
X193048095Y-151906428D01*
X193095714Y-152096904D01*
X193143333Y-152192142D01*
X193190952Y-152239761D01*
X193286190Y-152287380D01*
X193381428Y-152287380D01*
X193476666Y-152239761D01*
X193524285Y-152192142D01*
X193571904Y-152096904D01*
X193619523Y-151906428D01*
X193619523Y-151668333D01*
X193571904Y-151477857D01*
X193524285Y-151382619D01*
X193476666Y-151335000D01*
X193381428Y-151287380D01*
X198381904Y-152657380D02*
X198381904Y-151657380D01*
X197810476Y-152657380D02*
X198239047Y-152085952D01*
X197810476Y-151657380D02*
X198381904Y-152228809D01*
%TO.C,D13*%
X81224285Y-95137380D02*
X81224285Y-94137380D01*
X80986190Y-94137380D01*
X80843333Y-94185000D01*
X80748095Y-94280238D01*
X80700476Y-94375476D01*
X80652857Y-94565952D01*
X80652857Y-94708809D01*
X80700476Y-94899285D01*
X80748095Y-94994523D01*
X80843333Y-95089761D01*
X80986190Y-95137380D01*
X81224285Y-95137380D01*
X79700476Y-95137380D02*
X80271904Y-95137380D01*
X79986190Y-95137380D02*
X79986190Y-94137380D01*
X80081428Y-94280238D01*
X80176666Y-94375476D01*
X80271904Y-94423095D01*
X79367142Y-94137380D02*
X78748095Y-94137380D01*
X79081428Y-94518333D01*
X78938571Y-94518333D01*
X78843333Y-94565952D01*
X78795714Y-94613571D01*
X78748095Y-94708809D01*
X78748095Y-94946904D01*
X78795714Y-95042142D01*
X78843333Y-95089761D01*
X78938571Y-95137380D01*
X79224285Y-95137380D01*
X79319523Y-95089761D01*
X79367142Y-95042142D01*
X84081904Y-95507380D02*
X84081904Y-94507380D01*
X83510476Y-95507380D02*
X83939047Y-94935952D01*
X83510476Y-94507380D02*
X84081904Y-95078809D01*
%TO.C,D29*%
X157424285Y-95137380D02*
X157424285Y-94137380D01*
X157186190Y-94137380D01*
X157043333Y-94185000D01*
X156948095Y-94280238D01*
X156900476Y-94375476D01*
X156852857Y-94565952D01*
X156852857Y-94708809D01*
X156900476Y-94899285D01*
X156948095Y-94994523D01*
X157043333Y-95089761D01*
X157186190Y-95137380D01*
X157424285Y-95137380D01*
X156471904Y-94232619D02*
X156424285Y-94185000D01*
X156329047Y-94137380D01*
X156090952Y-94137380D01*
X155995714Y-94185000D01*
X155948095Y-94232619D01*
X155900476Y-94327857D01*
X155900476Y-94423095D01*
X155948095Y-94565952D01*
X156519523Y-95137380D01*
X155900476Y-95137380D01*
X155424285Y-95137380D02*
X155233809Y-95137380D01*
X155138571Y-95089761D01*
X155090952Y-95042142D01*
X154995714Y-94899285D01*
X154948095Y-94708809D01*
X154948095Y-94327857D01*
X154995714Y-94232619D01*
X155043333Y-94185000D01*
X155138571Y-94137380D01*
X155329047Y-94137380D01*
X155424285Y-94185000D01*
X155471904Y-94232619D01*
X155519523Y-94327857D01*
X155519523Y-94565952D01*
X155471904Y-94661190D01*
X155424285Y-94708809D01*
X155329047Y-94756428D01*
X155138571Y-94756428D01*
X155043333Y-94708809D01*
X154995714Y-94661190D01*
X154948095Y-94565952D01*
X160281904Y-95507380D02*
X160281904Y-94507380D01*
X159710476Y-95507380D02*
X160139047Y-94935952D01*
X159710476Y-94507380D02*
X160281904Y-95078809D01*
%TO.C,D6*%
X42648095Y-114187380D02*
X42648095Y-113187380D01*
X42410000Y-113187380D01*
X42267142Y-113235000D01*
X42171904Y-113330238D01*
X42124285Y-113425476D01*
X42076666Y-113615952D01*
X42076666Y-113758809D01*
X42124285Y-113949285D01*
X42171904Y-114044523D01*
X42267142Y-114139761D01*
X42410000Y-114187380D01*
X42648095Y-114187380D01*
X41219523Y-113187380D02*
X41410000Y-113187380D01*
X41505238Y-113235000D01*
X41552857Y-113282619D01*
X41648095Y-113425476D01*
X41695714Y-113615952D01*
X41695714Y-113996904D01*
X41648095Y-114092142D01*
X41600476Y-114139761D01*
X41505238Y-114187380D01*
X41314761Y-114187380D01*
X41219523Y-114139761D01*
X41171904Y-114092142D01*
X41124285Y-113996904D01*
X41124285Y-113758809D01*
X41171904Y-113663571D01*
X41219523Y-113615952D01*
X41314761Y-113568333D01*
X41505238Y-113568333D01*
X41600476Y-113615952D01*
X41648095Y-113663571D01*
X41695714Y-113758809D01*
X45981904Y-114557380D02*
X45981904Y-113557380D01*
X45410476Y-114557380D02*
X45839047Y-113985952D01*
X45410476Y-113557380D02*
X45981904Y-114128809D01*
%TO.C,D5*%
X42648095Y-95137380D02*
X42648095Y-94137380D01*
X42410000Y-94137380D01*
X42267142Y-94185000D01*
X42171904Y-94280238D01*
X42124285Y-94375476D01*
X42076666Y-94565952D01*
X42076666Y-94708809D01*
X42124285Y-94899285D01*
X42171904Y-94994523D01*
X42267142Y-95089761D01*
X42410000Y-95137380D01*
X42648095Y-95137380D01*
X41171904Y-94137380D02*
X41648095Y-94137380D01*
X41695714Y-94613571D01*
X41648095Y-94565952D01*
X41552857Y-94518333D01*
X41314761Y-94518333D01*
X41219523Y-94565952D01*
X41171904Y-94613571D01*
X41124285Y-94708809D01*
X41124285Y-94946904D01*
X41171904Y-95042142D01*
X41219523Y-95089761D01*
X41314761Y-95137380D01*
X41552857Y-95137380D01*
X41648095Y-95089761D01*
X41695714Y-95042142D01*
X45981904Y-95507380D02*
X45981904Y-94507380D01*
X45410476Y-95507380D02*
X45839047Y-94935952D01*
X45410476Y-94507380D02*
X45981904Y-95078809D01*
%TO.C,D12*%
X62174285Y-152287380D02*
X62174285Y-151287380D01*
X61936190Y-151287380D01*
X61793333Y-151335000D01*
X61698095Y-151430238D01*
X61650476Y-151525476D01*
X61602857Y-151715952D01*
X61602857Y-151858809D01*
X61650476Y-152049285D01*
X61698095Y-152144523D01*
X61793333Y-152239761D01*
X61936190Y-152287380D01*
X62174285Y-152287380D01*
X60650476Y-152287380D02*
X61221904Y-152287380D01*
X60936190Y-152287380D02*
X60936190Y-151287380D01*
X61031428Y-151430238D01*
X61126666Y-151525476D01*
X61221904Y-151573095D01*
X60269523Y-151382619D02*
X60221904Y-151335000D01*
X60126666Y-151287380D01*
X59888571Y-151287380D01*
X59793333Y-151335000D01*
X59745714Y-151382619D01*
X59698095Y-151477857D01*
X59698095Y-151573095D01*
X59745714Y-151715952D01*
X60317142Y-152287380D01*
X59698095Y-152287380D01*
%TO.C,D32*%
X157424285Y-152287380D02*
X157424285Y-151287380D01*
X157186190Y-151287380D01*
X157043333Y-151335000D01*
X156948095Y-151430238D01*
X156900476Y-151525476D01*
X156852857Y-151715952D01*
X156852857Y-151858809D01*
X156900476Y-152049285D01*
X156948095Y-152144523D01*
X157043333Y-152239761D01*
X157186190Y-152287380D01*
X157424285Y-152287380D01*
X156519523Y-151287380D02*
X155900476Y-151287380D01*
X156233809Y-151668333D01*
X156090952Y-151668333D01*
X155995714Y-151715952D01*
X155948095Y-151763571D01*
X155900476Y-151858809D01*
X155900476Y-152096904D01*
X155948095Y-152192142D01*
X155995714Y-152239761D01*
X156090952Y-152287380D01*
X156376666Y-152287380D01*
X156471904Y-152239761D01*
X156519523Y-152192142D01*
X155519523Y-151382619D02*
X155471904Y-151335000D01*
X155376666Y-151287380D01*
X155138571Y-151287380D01*
X155043333Y-151335000D01*
X154995714Y-151382619D01*
X154948095Y-151477857D01*
X154948095Y-151573095D01*
X154995714Y-151715952D01*
X155567142Y-152287380D01*
X154948095Y-152287380D01*
X160281904Y-152657380D02*
X160281904Y-151657380D01*
X159710476Y-152657380D02*
X160139047Y-152085952D01*
X159710476Y-151657380D02*
X160281904Y-152228809D01*
%TO.C,D44*%
X214574285Y-152287380D02*
X214574285Y-151287380D01*
X214336190Y-151287380D01*
X214193333Y-151335000D01*
X214098095Y-151430238D01*
X214050476Y-151525476D01*
X214002857Y-151715952D01*
X214002857Y-151858809D01*
X214050476Y-152049285D01*
X214098095Y-152144523D01*
X214193333Y-152239761D01*
X214336190Y-152287380D01*
X214574285Y-152287380D01*
X213145714Y-151620714D02*
X213145714Y-152287380D01*
X213383809Y-151239761D02*
X213621904Y-151954047D01*
X213002857Y-151954047D01*
X212193333Y-151620714D02*
X212193333Y-152287380D01*
X212431428Y-151239761D02*
X212669523Y-151954047D01*
X212050476Y-151954047D01*
X217431904Y-152657380D02*
X217431904Y-151657380D01*
X216860476Y-152657380D02*
X217289047Y-152085952D01*
X216860476Y-151657380D02*
X217431904Y-152228809D01*
%TO.C,R54*%
X33150904Y-61682380D02*
X33341380Y-61682380D01*
X33436619Y-61730000D01*
X33484238Y-61777619D01*
X33579476Y-61920476D01*
X33627095Y-62110952D01*
X33627095Y-62491904D01*
X33579476Y-62587142D01*
X33531857Y-62634761D01*
X33436619Y-62682380D01*
X33246142Y-62682380D01*
X33150904Y-62634761D01*
X33103285Y-62587142D01*
X33055666Y-62491904D01*
X33055666Y-62253809D01*
X33103285Y-62158571D01*
X33150904Y-62110952D01*
X33246142Y-62063333D01*
X33436619Y-62063333D01*
X33531857Y-62110952D01*
X33579476Y-62158571D01*
X33627095Y-62253809D01*
X32484238Y-62110952D02*
X32579476Y-62063333D01*
X32627095Y-62015714D01*
X32674714Y-61920476D01*
X32674714Y-61872857D01*
X32627095Y-61777619D01*
X32579476Y-61730000D01*
X32484238Y-61682380D01*
X32293761Y-61682380D01*
X32198523Y-61730000D01*
X32150904Y-61777619D01*
X32103285Y-61872857D01*
X32103285Y-61920476D01*
X32150904Y-62015714D01*
X32198523Y-62063333D01*
X32293761Y-62110952D01*
X32484238Y-62110952D01*
X32579476Y-62158571D01*
X32627095Y-62206190D01*
X32674714Y-62301428D01*
X32674714Y-62491904D01*
X32627095Y-62587142D01*
X32579476Y-62634761D01*
X32484238Y-62682380D01*
X32293761Y-62682380D01*
X32198523Y-62634761D01*
X32150904Y-62587142D01*
X32103285Y-62491904D01*
X32103285Y-62301428D01*
X32150904Y-62206190D01*
X32198523Y-62158571D01*
X32293761Y-62110952D01*
X31484238Y-61682380D02*
X31389000Y-61682380D01*
X31293761Y-61730000D01*
X31246142Y-61777619D01*
X31198523Y-61872857D01*
X31150904Y-62063333D01*
X31150904Y-62301428D01*
X31198523Y-62491904D01*
X31246142Y-62587142D01*
X31293761Y-62634761D01*
X31389000Y-62682380D01*
X31484238Y-62682380D01*
X31579476Y-62634761D01*
X31627095Y-62587142D01*
X31674714Y-62491904D01*
X31722333Y-62301428D01*
X31722333Y-62063333D01*
X31674714Y-61872857D01*
X31627095Y-61777619D01*
X31579476Y-61730000D01*
X31484238Y-61682380D01*
%TO.C,D8*%
X42648095Y-152287380D02*
X42648095Y-151287380D01*
X42410000Y-151287380D01*
X42267142Y-151335000D01*
X42171904Y-151430238D01*
X42124285Y-151525476D01*
X42076666Y-151715952D01*
X42076666Y-151858809D01*
X42124285Y-152049285D01*
X42171904Y-152144523D01*
X42267142Y-152239761D01*
X42410000Y-152287380D01*
X42648095Y-152287380D01*
X41505238Y-151715952D02*
X41600476Y-151668333D01*
X41648095Y-151620714D01*
X41695714Y-151525476D01*
X41695714Y-151477857D01*
X41648095Y-151382619D01*
X41600476Y-151335000D01*
X41505238Y-151287380D01*
X41314761Y-151287380D01*
X41219523Y-151335000D01*
X41171904Y-151382619D01*
X41124285Y-151477857D01*
X41124285Y-151525476D01*
X41171904Y-151620714D01*
X41219523Y-151668333D01*
X41314761Y-151715952D01*
X41505238Y-151715952D01*
X41600476Y-151763571D01*
X41648095Y-151811190D01*
X41695714Y-151906428D01*
X41695714Y-152096904D01*
X41648095Y-152192142D01*
X41600476Y-152239761D01*
X41505238Y-152287380D01*
X41314761Y-152287380D01*
X41219523Y-152239761D01*
X41171904Y-152192142D01*
X41124285Y-152096904D01*
X41124285Y-151906428D01*
X41171904Y-151811190D01*
X41219523Y-151763571D01*
X41314761Y-151715952D01*
X45981904Y-152657380D02*
X45981904Y-151657380D01*
X45410476Y-152657380D02*
X45839047Y-152085952D01*
X45410476Y-151657380D02*
X45981904Y-152228809D01*
%TO.C,D9*%
X61698095Y-95137380D02*
X61698095Y-94137380D01*
X61460000Y-94137380D01*
X61317142Y-94185000D01*
X61221904Y-94280238D01*
X61174285Y-94375476D01*
X61126666Y-94565952D01*
X61126666Y-94708809D01*
X61174285Y-94899285D01*
X61221904Y-94994523D01*
X61317142Y-95089761D01*
X61460000Y-95137380D01*
X61698095Y-95137380D01*
X60650476Y-95137380D02*
X60460000Y-95137380D01*
X60364761Y-95089761D01*
X60317142Y-95042142D01*
X60221904Y-94899285D01*
X60174285Y-94708809D01*
X60174285Y-94327857D01*
X60221904Y-94232619D01*
X60269523Y-94185000D01*
X60364761Y-94137380D01*
X60555238Y-94137380D01*
X60650476Y-94185000D01*
X60698095Y-94232619D01*
X60745714Y-94327857D01*
X60745714Y-94565952D01*
X60698095Y-94661190D01*
X60650476Y-94708809D01*
X60555238Y-94756428D01*
X60364761Y-94756428D01*
X60269523Y-94708809D01*
X60221904Y-94661190D01*
X60174285Y-94565952D01*
X65031904Y-95507380D02*
X65031904Y-94507380D01*
X64460476Y-95507380D02*
X64889047Y-94935952D01*
X64460476Y-94507380D02*
X65031904Y-95078809D01*
%TO.C,D14*%
X81224285Y-114187380D02*
X81224285Y-113187380D01*
X80986190Y-113187380D01*
X80843333Y-113235000D01*
X80748095Y-113330238D01*
X80700476Y-113425476D01*
X80652857Y-113615952D01*
X80652857Y-113758809D01*
X80700476Y-113949285D01*
X80748095Y-114044523D01*
X80843333Y-114139761D01*
X80986190Y-114187380D01*
X81224285Y-114187380D01*
X79700476Y-114187380D02*
X80271904Y-114187380D01*
X79986190Y-114187380D02*
X79986190Y-113187380D01*
X80081428Y-113330238D01*
X80176666Y-113425476D01*
X80271904Y-113473095D01*
X78843333Y-113520714D02*
X78843333Y-114187380D01*
X79081428Y-113139761D02*
X79319523Y-113854047D01*
X78700476Y-113854047D01*
X84081904Y-114557380D02*
X84081904Y-113557380D01*
X83510476Y-114557380D02*
X83939047Y-113985952D01*
X83510476Y-113557380D02*
X84081904Y-114128809D01*
%TO.C,D20*%
X100274285Y-152287380D02*
X100274285Y-151287380D01*
X100036190Y-151287380D01*
X99893333Y-151335000D01*
X99798095Y-151430238D01*
X99750476Y-151525476D01*
X99702857Y-151715952D01*
X99702857Y-151858809D01*
X99750476Y-152049285D01*
X99798095Y-152144523D01*
X99893333Y-152239761D01*
X100036190Y-152287380D01*
X100274285Y-152287380D01*
X99321904Y-151382619D02*
X99274285Y-151335000D01*
X99179047Y-151287380D01*
X98940952Y-151287380D01*
X98845714Y-151335000D01*
X98798095Y-151382619D01*
X98750476Y-151477857D01*
X98750476Y-151573095D01*
X98798095Y-151715952D01*
X99369523Y-152287380D01*
X98750476Y-152287380D01*
X98131428Y-151287380D02*
X98036190Y-151287380D01*
X97940952Y-151335000D01*
X97893333Y-151382619D01*
X97845714Y-151477857D01*
X97798095Y-151668333D01*
X97798095Y-151906428D01*
X97845714Y-152096904D01*
X97893333Y-152192142D01*
X97940952Y-152239761D01*
X98036190Y-152287380D01*
X98131428Y-152287380D01*
X98226666Y-152239761D01*
X98274285Y-152192142D01*
X98321904Y-152096904D01*
X98369523Y-151906428D01*
X98369523Y-151668333D01*
X98321904Y-151477857D01*
X98274285Y-151382619D01*
X98226666Y-151335000D01*
X98131428Y-151287380D01*
X103131904Y-152657380D02*
X103131904Y-151657380D01*
X102560476Y-152657380D02*
X102989047Y-152085952D01*
X102560476Y-151657380D02*
X103131904Y-152228809D01*
%TO.C,D46*%
X233624285Y-95137380D02*
X233624285Y-94137380D01*
X233386190Y-94137380D01*
X233243333Y-94185000D01*
X233148095Y-94280238D01*
X233100476Y-94375476D01*
X233052857Y-94565952D01*
X233052857Y-94708809D01*
X233100476Y-94899285D01*
X233148095Y-94994523D01*
X233243333Y-95089761D01*
X233386190Y-95137380D01*
X233624285Y-95137380D01*
X232195714Y-94470714D02*
X232195714Y-95137380D01*
X232433809Y-94089761D02*
X232671904Y-94804047D01*
X232052857Y-94804047D01*
X231243333Y-94137380D02*
X231433809Y-94137380D01*
X231529047Y-94185000D01*
X231576666Y-94232619D01*
X231671904Y-94375476D01*
X231719523Y-94565952D01*
X231719523Y-94946904D01*
X231671904Y-95042142D01*
X231624285Y-95089761D01*
X231529047Y-95137380D01*
X231338571Y-95137380D01*
X231243333Y-95089761D01*
X231195714Y-95042142D01*
X231148095Y-94946904D01*
X231148095Y-94708809D01*
X231195714Y-94613571D01*
X231243333Y-94565952D01*
X231338571Y-94518333D01*
X231529047Y-94518333D01*
X231624285Y-94565952D01*
X231671904Y-94613571D01*
X231719523Y-94708809D01*
X236481904Y-95507380D02*
X236481904Y-94507380D01*
X235910476Y-95507380D02*
X236339047Y-94935952D01*
X235910476Y-94507380D02*
X236481904Y-95078809D01*
%TO.C,D18*%
X100274285Y-114187380D02*
X100274285Y-113187380D01*
X100036190Y-113187380D01*
X99893333Y-113235000D01*
X99798095Y-113330238D01*
X99750476Y-113425476D01*
X99702857Y-113615952D01*
X99702857Y-113758809D01*
X99750476Y-113949285D01*
X99798095Y-114044523D01*
X99893333Y-114139761D01*
X100036190Y-114187380D01*
X100274285Y-114187380D01*
X98750476Y-114187380D02*
X99321904Y-114187380D01*
X99036190Y-114187380D02*
X99036190Y-113187380D01*
X99131428Y-113330238D01*
X99226666Y-113425476D01*
X99321904Y-113473095D01*
X98179047Y-113615952D02*
X98274285Y-113568333D01*
X98321904Y-113520714D01*
X98369523Y-113425476D01*
X98369523Y-113377857D01*
X98321904Y-113282619D01*
X98274285Y-113235000D01*
X98179047Y-113187380D01*
X97988571Y-113187380D01*
X97893333Y-113235000D01*
X97845714Y-113282619D01*
X97798095Y-113377857D01*
X97798095Y-113425476D01*
X97845714Y-113520714D01*
X97893333Y-113568333D01*
X97988571Y-113615952D01*
X98179047Y-113615952D01*
X98274285Y-113663571D01*
X98321904Y-113711190D01*
X98369523Y-113806428D01*
X98369523Y-113996904D01*
X98321904Y-114092142D01*
X98274285Y-114139761D01*
X98179047Y-114187380D01*
X97988571Y-114187380D01*
X97893333Y-114139761D01*
X97845714Y-114092142D01*
X97798095Y-113996904D01*
X97798095Y-113806428D01*
X97845714Y-113711190D01*
X97893333Y-113663571D01*
X97988571Y-113615952D01*
X103131904Y-114557380D02*
X103131904Y-113557380D01*
X102560476Y-114557380D02*
X102989047Y-113985952D01*
X102560476Y-113557380D02*
X103131904Y-114128809D01*
%TO.C,D47*%
X233624285Y-114187380D02*
X233624285Y-113187380D01*
X233386190Y-113187380D01*
X233243333Y-113235000D01*
X233148095Y-113330238D01*
X233100476Y-113425476D01*
X233052857Y-113615952D01*
X233052857Y-113758809D01*
X233100476Y-113949285D01*
X233148095Y-114044523D01*
X233243333Y-114139761D01*
X233386190Y-114187380D01*
X233624285Y-114187380D01*
X232195714Y-113520714D02*
X232195714Y-114187380D01*
X232433809Y-113139761D02*
X232671904Y-113854047D01*
X232052857Y-113854047D01*
X231767142Y-113187380D02*
X231100476Y-113187380D01*
X231529047Y-114187380D01*
X236481904Y-114557380D02*
X236481904Y-113557380D01*
X235910476Y-114557380D02*
X236339047Y-113985952D01*
X235910476Y-113557380D02*
X236481904Y-114128809D01*
%TO.C,D24*%
X119324285Y-152287380D02*
X119324285Y-151287380D01*
X119086190Y-151287380D01*
X118943333Y-151335000D01*
X118848095Y-151430238D01*
X118800476Y-151525476D01*
X118752857Y-151715952D01*
X118752857Y-151858809D01*
X118800476Y-152049285D01*
X118848095Y-152144523D01*
X118943333Y-152239761D01*
X119086190Y-152287380D01*
X119324285Y-152287380D01*
X118371904Y-151382619D02*
X118324285Y-151335000D01*
X118229047Y-151287380D01*
X117990952Y-151287380D01*
X117895714Y-151335000D01*
X117848095Y-151382619D01*
X117800476Y-151477857D01*
X117800476Y-151573095D01*
X117848095Y-151715952D01*
X118419523Y-152287380D01*
X117800476Y-152287380D01*
X116943333Y-151620714D02*
X116943333Y-152287380D01*
X117181428Y-151239761D02*
X117419523Y-151954047D01*
X116800476Y-151954047D01*
X122181904Y-152657380D02*
X122181904Y-151657380D01*
X121610476Y-152657380D02*
X122039047Y-152085952D01*
X121610476Y-151657380D02*
X122181904Y-152228809D01*
%TO.C,D22*%
X119324285Y-114187380D02*
X119324285Y-113187380D01*
X119086190Y-113187380D01*
X118943333Y-113235000D01*
X118848095Y-113330238D01*
X118800476Y-113425476D01*
X118752857Y-113615952D01*
X118752857Y-113758809D01*
X118800476Y-113949285D01*
X118848095Y-114044523D01*
X118943333Y-114139761D01*
X119086190Y-114187380D01*
X119324285Y-114187380D01*
X118371904Y-113282619D02*
X118324285Y-113235000D01*
X118229047Y-113187380D01*
X117990952Y-113187380D01*
X117895714Y-113235000D01*
X117848095Y-113282619D01*
X117800476Y-113377857D01*
X117800476Y-113473095D01*
X117848095Y-113615952D01*
X118419523Y-114187380D01*
X117800476Y-114187380D01*
X117419523Y-113282619D02*
X117371904Y-113235000D01*
X117276666Y-113187380D01*
X117038571Y-113187380D01*
X116943333Y-113235000D01*
X116895714Y-113282619D01*
X116848095Y-113377857D01*
X116848095Y-113473095D01*
X116895714Y-113615952D01*
X117467142Y-114187380D01*
X116848095Y-114187380D01*
X122181904Y-114557380D02*
X122181904Y-113557380D01*
X121610476Y-114557380D02*
X122039047Y-113985952D01*
X121610476Y-113557380D02*
X122181904Y-114128809D01*
%TO.C,R49*%
X37032333Y-62555380D02*
X37603761Y-62555380D01*
X37318047Y-62555380D02*
X37318047Y-61555380D01*
X37413285Y-61698238D01*
X37508523Y-61793476D01*
X37603761Y-61841095D01*
X36603761Y-62460142D02*
X36556142Y-62507761D01*
X36603761Y-62555380D01*
X36651380Y-62507761D01*
X36603761Y-62460142D01*
X36603761Y-62555380D01*
X35651380Y-61555380D02*
X36127571Y-61555380D01*
X36175190Y-62031571D01*
X36127571Y-61983952D01*
X36032333Y-61936333D01*
X35794238Y-61936333D01*
X35699000Y-61983952D01*
X35651380Y-62031571D01*
X35603761Y-62126809D01*
X35603761Y-62364904D01*
X35651380Y-62460142D01*
X35699000Y-62507761D01*
X35794238Y-62555380D01*
X36032333Y-62555380D01*
X36127571Y-62507761D01*
X36175190Y-62460142D01*
X35175190Y-62555380D02*
X35175190Y-61555380D01*
X35079952Y-62174428D02*
X34794238Y-62555380D01*
X34794238Y-61888714D02*
X35175190Y-62269666D01*
%TO.C,D4*%
X23598095Y-152287380D02*
X23598095Y-151287380D01*
X23360000Y-151287380D01*
X23217142Y-151335000D01*
X23121904Y-151430238D01*
X23074285Y-151525476D01*
X23026666Y-151715952D01*
X23026666Y-151858809D01*
X23074285Y-152049285D01*
X23121904Y-152144523D01*
X23217142Y-152239761D01*
X23360000Y-152287380D01*
X23598095Y-152287380D01*
X22169523Y-151620714D02*
X22169523Y-152287380D01*
X22407619Y-151239761D02*
X22645714Y-151954047D01*
X22026666Y-151954047D01*
X26931904Y-152657380D02*
X26931904Y-151657380D01*
X26360476Y-152657380D02*
X26789047Y-152085952D01*
X26360476Y-151657380D02*
X26931904Y-152228809D01*
%TO.C,D3*%
X23598095Y-133237380D02*
X23598095Y-132237380D01*
X23360000Y-132237380D01*
X23217142Y-132285000D01*
X23121904Y-132380238D01*
X23074285Y-132475476D01*
X23026666Y-132665952D01*
X23026666Y-132808809D01*
X23074285Y-132999285D01*
X23121904Y-133094523D01*
X23217142Y-133189761D01*
X23360000Y-133237380D01*
X23598095Y-133237380D01*
X22693333Y-132237380D02*
X22074285Y-132237380D01*
X22407619Y-132618333D01*
X22264761Y-132618333D01*
X22169523Y-132665952D01*
X22121904Y-132713571D01*
X22074285Y-132808809D01*
X22074285Y-133046904D01*
X22121904Y-133142142D01*
X22169523Y-133189761D01*
X22264761Y-133237380D01*
X22550476Y-133237380D01*
X22645714Y-133189761D01*
X22693333Y-133142142D01*
X26931904Y-133607380D02*
X26931904Y-132607380D01*
X26360476Y-133607380D02*
X26789047Y-133035952D01*
X26360476Y-132607380D02*
X26931904Y-133178809D01*
%TO.C,R51*%
X46811333Y-62682380D02*
X47382761Y-62682380D01*
X47097047Y-62682380D02*
X47097047Y-61682380D01*
X47192285Y-61825238D01*
X47287523Y-61920476D01*
X47382761Y-61968095D01*
X46382761Y-62587142D02*
X46335142Y-62634761D01*
X46382761Y-62682380D01*
X46430380Y-62634761D01*
X46382761Y-62587142D01*
X46382761Y-62682380D01*
X45430380Y-61682380D02*
X45906571Y-61682380D01*
X45954190Y-62158571D01*
X45906571Y-62110952D01*
X45811333Y-62063333D01*
X45573238Y-62063333D01*
X45478000Y-62110952D01*
X45430380Y-62158571D01*
X45382761Y-62253809D01*
X45382761Y-62491904D01*
X45430380Y-62587142D01*
X45478000Y-62634761D01*
X45573238Y-62682380D01*
X45811333Y-62682380D01*
X45906571Y-62634761D01*
X45954190Y-62587142D01*
X44954190Y-62682380D02*
X44954190Y-61682380D01*
X44858952Y-62301428D02*
X44573238Y-62682380D01*
X44573238Y-62015714D02*
X44954190Y-62396666D01*
%TO.C,D1*%
X23598095Y-95137380D02*
X23598095Y-94137380D01*
X23360000Y-94137380D01*
X23217142Y-94185000D01*
X23121904Y-94280238D01*
X23074285Y-94375476D01*
X23026666Y-94565952D01*
X23026666Y-94708809D01*
X23074285Y-94899285D01*
X23121904Y-94994523D01*
X23217142Y-95089761D01*
X23360000Y-95137380D01*
X23598095Y-95137380D01*
X22074285Y-95137380D02*
X22645714Y-95137380D01*
X22360000Y-95137380D02*
X22360000Y-94137380D01*
X22455238Y-94280238D01*
X22550476Y-94375476D01*
X22645714Y-94423095D01*
X26931904Y-95507380D02*
X26931904Y-94507380D01*
X26360476Y-95507380D02*
X26789047Y-94935952D01*
X26360476Y-94507380D02*
X26931904Y-95078809D01*
%TO.C,D33*%
X176474285Y-95137380D02*
X176474285Y-94137380D01*
X176236190Y-94137380D01*
X176093333Y-94185000D01*
X175998095Y-94280238D01*
X175950476Y-94375476D01*
X175902857Y-94565952D01*
X175902857Y-94708809D01*
X175950476Y-94899285D01*
X175998095Y-94994523D01*
X176093333Y-95089761D01*
X176236190Y-95137380D01*
X176474285Y-95137380D01*
X175569523Y-94137380D02*
X174950476Y-94137380D01*
X175283809Y-94518333D01*
X175140952Y-94518333D01*
X175045714Y-94565952D01*
X174998095Y-94613571D01*
X174950476Y-94708809D01*
X174950476Y-94946904D01*
X174998095Y-95042142D01*
X175045714Y-95089761D01*
X175140952Y-95137380D01*
X175426666Y-95137380D01*
X175521904Y-95089761D01*
X175569523Y-95042142D01*
X174617142Y-94137380D02*
X173998095Y-94137380D01*
X174331428Y-94518333D01*
X174188571Y-94518333D01*
X174093333Y-94565952D01*
X174045714Y-94613571D01*
X173998095Y-94708809D01*
X173998095Y-94946904D01*
X174045714Y-95042142D01*
X174093333Y-95089761D01*
X174188571Y-95137380D01*
X174474285Y-95137380D01*
X174569523Y-95089761D01*
X174617142Y-95042142D01*
X179331904Y-95507380D02*
X179331904Y-94507380D01*
X178760476Y-95507380D02*
X179189047Y-94935952D01*
X178760476Y-94507380D02*
X179331904Y-95078809D01*
%TO.C,D2*%
X23598095Y-114187380D02*
X23598095Y-113187380D01*
X23360000Y-113187380D01*
X23217142Y-113235000D01*
X23121904Y-113330238D01*
X23074285Y-113425476D01*
X23026666Y-113615952D01*
X23026666Y-113758809D01*
X23074285Y-113949285D01*
X23121904Y-114044523D01*
X23217142Y-114139761D01*
X23360000Y-114187380D01*
X23598095Y-114187380D01*
X22645714Y-113282619D02*
X22598095Y-113235000D01*
X22502857Y-113187380D01*
X22264761Y-113187380D01*
X22169523Y-113235000D01*
X22121904Y-113282619D01*
X22074285Y-113377857D01*
X22074285Y-113473095D01*
X22121904Y-113615952D01*
X22693333Y-114187380D01*
X22074285Y-114187380D01*
X26931904Y-114557380D02*
X26931904Y-113557380D01*
X26360476Y-114557380D02*
X26789047Y-113985952D01*
X26360476Y-113557380D02*
X26931904Y-114128809D01*
%TO.C,D39*%
X195524285Y-133237380D02*
X195524285Y-132237380D01*
X195286190Y-132237380D01*
X195143333Y-132285000D01*
X195048095Y-132380238D01*
X195000476Y-132475476D01*
X194952857Y-132665952D01*
X194952857Y-132808809D01*
X195000476Y-132999285D01*
X195048095Y-133094523D01*
X195143333Y-133189761D01*
X195286190Y-133237380D01*
X195524285Y-133237380D01*
X194619523Y-132237380D02*
X194000476Y-132237380D01*
X194333809Y-132618333D01*
X194190952Y-132618333D01*
X194095714Y-132665952D01*
X194048095Y-132713571D01*
X194000476Y-132808809D01*
X194000476Y-133046904D01*
X194048095Y-133142142D01*
X194095714Y-133189761D01*
X194190952Y-133237380D01*
X194476666Y-133237380D01*
X194571904Y-133189761D01*
X194619523Y-133142142D01*
X193524285Y-133237380D02*
X193333809Y-133237380D01*
X193238571Y-133189761D01*
X193190952Y-133142142D01*
X193095714Y-132999285D01*
X193048095Y-132808809D01*
X193048095Y-132427857D01*
X193095714Y-132332619D01*
X193143333Y-132285000D01*
X193238571Y-132237380D01*
X193429047Y-132237380D01*
X193524285Y-132285000D01*
X193571904Y-132332619D01*
X193619523Y-132427857D01*
X193619523Y-132665952D01*
X193571904Y-132761190D01*
X193524285Y-132808809D01*
X193429047Y-132856428D01*
X193238571Y-132856428D01*
X193143333Y-132808809D01*
X193095714Y-132761190D01*
X193048095Y-132665952D01*
X198381904Y-133607380D02*
X198381904Y-132607380D01*
X197810476Y-133607380D02*
X198239047Y-133035952D01*
X197810476Y-132607380D02*
X198381904Y-133178809D01*
%TO.C,D26*%
X138374285Y-114187380D02*
X138374285Y-113187380D01*
X138136190Y-113187380D01*
X137993333Y-113235000D01*
X137898095Y-113330238D01*
X137850476Y-113425476D01*
X137802857Y-113615952D01*
X137802857Y-113758809D01*
X137850476Y-113949285D01*
X137898095Y-114044523D01*
X137993333Y-114139761D01*
X138136190Y-114187380D01*
X138374285Y-114187380D01*
X137421904Y-113282619D02*
X137374285Y-113235000D01*
X137279047Y-113187380D01*
X137040952Y-113187380D01*
X136945714Y-113235000D01*
X136898095Y-113282619D01*
X136850476Y-113377857D01*
X136850476Y-113473095D01*
X136898095Y-113615952D01*
X137469523Y-114187380D01*
X136850476Y-114187380D01*
X135993333Y-113187380D02*
X136183809Y-113187380D01*
X136279047Y-113235000D01*
X136326666Y-113282619D01*
X136421904Y-113425476D01*
X136469523Y-113615952D01*
X136469523Y-113996904D01*
X136421904Y-114092142D01*
X136374285Y-114139761D01*
X136279047Y-114187380D01*
X136088571Y-114187380D01*
X135993333Y-114139761D01*
X135945714Y-114092142D01*
X135898095Y-113996904D01*
X135898095Y-113758809D01*
X135945714Y-113663571D01*
X135993333Y-113615952D01*
X136088571Y-113568333D01*
X136279047Y-113568333D01*
X136374285Y-113615952D01*
X136421904Y-113663571D01*
X136469523Y-113758809D01*
X141231904Y-114557380D02*
X141231904Y-113557380D01*
X140660476Y-114557380D02*
X141089047Y-113985952D01*
X140660476Y-113557380D02*
X141231904Y-114128809D01*
%TO.C,D48*%
X233624285Y-133237380D02*
X233624285Y-132237380D01*
X233386190Y-132237380D01*
X233243333Y-132285000D01*
X233148095Y-132380238D01*
X233100476Y-132475476D01*
X233052857Y-132665952D01*
X233052857Y-132808809D01*
X233100476Y-132999285D01*
X233148095Y-133094523D01*
X233243333Y-133189761D01*
X233386190Y-133237380D01*
X233624285Y-133237380D01*
X232195714Y-132570714D02*
X232195714Y-133237380D01*
X232433809Y-132189761D02*
X232671904Y-132904047D01*
X232052857Y-132904047D01*
X231529047Y-132665952D02*
X231624285Y-132618333D01*
X231671904Y-132570714D01*
X231719523Y-132475476D01*
X231719523Y-132427857D01*
X231671904Y-132332619D01*
X231624285Y-132285000D01*
X231529047Y-132237380D01*
X231338571Y-132237380D01*
X231243333Y-132285000D01*
X231195714Y-132332619D01*
X231148095Y-132427857D01*
X231148095Y-132475476D01*
X231195714Y-132570714D01*
X231243333Y-132618333D01*
X231338571Y-132665952D01*
X231529047Y-132665952D01*
X231624285Y-132713571D01*
X231671904Y-132761190D01*
X231719523Y-132856428D01*
X231719523Y-133046904D01*
X231671904Y-133142142D01*
X231624285Y-133189761D01*
X231529047Y-133237380D01*
X231338571Y-133237380D01*
X231243333Y-133189761D01*
X231195714Y-133142142D01*
X231148095Y-133046904D01*
X231148095Y-132856428D01*
X231195714Y-132761190D01*
X231243333Y-132713571D01*
X231338571Y-132665952D01*
X236481904Y-133607380D02*
X236481904Y-132607380D01*
X235910476Y-133607380D02*
X236339047Y-133035952D01*
X235910476Y-132607380D02*
X236481904Y-133178809D01*
%TO.C,D36*%
X176474285Y-152287380D02*
X176474285Y-151287380D01*
X176236190Y-151287380D01*
X176093333Y-151335000D01*
X175998095Y-151430238D01*
X175950476Y-151525476D01*
X175902857Y-151715952D01*
X175902857Y-151858809D01*
X175950476Y-152049285D01*
X175998095Y-152144523D01*
X176093333Y-152239761D01*
X176236190Y-152287380D01*
X176474285Y-152287380D01*
X175569523Y-151287380D02*
X174950476Y-151287380D01*
X175283809Y-151668333D01*
X175140952Y-151668333D01*
X175045714Y-151715952D01*
X174998095Y-151763571D01*
X174950476Y-151858809D01*
X174950476Y-152096904D01*
X174998095Y-152192142D01*
X175045714Y-152239761D01*
X175140952Y-152287380D01*
X175426666Y-152287380D01*
X175521904Y-152239761D01*
X175569523Y-152192142D01*
X174093333Y-151287380D02*
X174283809Y-151287380D01*
X174379047Y-151335000D01*
X174426666Y-151382619D01*
X174521904Y-151525476D01*
X174569523Y-151715952D01*
X174569523Y-152096904D01*
X174521904Y-152192142D01*
X174474285Y-152239761D01*
X174379047Y-152287380D01*
X174188571Y-152287380D01*
X174093333Y-152239761D01*
X174045714Y-152192142D01*
X173998095Y-152096904D01*
X173998095Y-151858809D01*
X174045714Y-151763571D01*
X174093333Y-151715952D01*
X174188571Y-151668333D01*
X174379047Y-151668333D01*
X174474285Y-151715952D01*
X174521904Y-151763571D01*
X174569523Y-151858809D01*
X179331904Y-152657380D02*
X179331904Y-151657380D01*
X178760476Y-152657380D02*
X179189047Y-152085952D01*
X178760476Y-151657380D02*
X179331904Y-152228809D01*
%TO.C,D30*%
X157424285Y-114187380D02*
X157424285Y-113187380D01*
X157186190Y-113187380D01*
X157043333Y-113235000D01*
X156948095Y-113330238D01*
X156900476Y-113425476D01*
X156852857Y-113615952D01*
X156852857Y-113758809D01*
X156900476Y-113949285D01*
X156948095Y-114044523D01*
X157043333Y-114139761D01*
X157186190Y-114187380D01*
X157424285Y-114187380D01*
X156519523Y-113187380D02*
X155900476Y-113187380D01*
X156233809Y-113568333D01*
X156090952Y-113568333D01*
X155995714Y-113615952D01*
X155948095Y-113663571D01*
X155900476Y-113758809D01*
X155900476Y-113996904D01*
X155948095Y-114092142D01*
X155995714Y-114139761D01*
X156090952Y-114187380D01*
X156376666Y-114187380D01*
X156471904Y-114139761D01*
X156519523Y-114092142D01*
X155281428Y-113187380D02*
X155186190Y-113187380D01*
X155090952Y-113235000D01*
X155043333Y-113282619D01*
X154995714Y-113377857D01*
X154948095Y-113568333D01*
X154948095Y-113806428D01*
X154995714Y-113996904D01*
X155043333Y-114092142D01*
X155090952Y-114139761D01*
X155186190Y-114187380D01*
X155281428Y-114187380D01*
X155376666Y-114139761D01*
X155424285Y-114092142D01*
X155471904Y-113996904D01*
X155519523Y-113806428D01*
X155519523Y-113568333D01*
X155471904Y-113377857D01*
X155424285Y-113282619D01*
X155376666Y-113235000D01*
X155281428Y-113187380D01*
X160281904Y-114557380D02*
X160281904Y-113557380D01*
X159710476Y-114557380D02*
X160139047Y-113985952D01*
X159710476Y-113557380D02*
X160281904Y-114128809D01*
D11*
%TO.C,D45*%
X229690000Y-152835000D02*
X229690000Y-152965000D01*
X235130000Y-152835000D02*
X229690000Y-152835000D01*
X234230000Y-152835000D02*
X234230000Y-155775000D01*
X234110000Y-152835000D02*
X234110000Y-155775000D01*
X235130000Y-152965000D02*
X235130000Y-152835000D01*
X234350000Y-152835000D02*
X234350000Y-155775000D01*
X235130000Y-155645000D02*
X235130000Y-155775000D01*
X229690000Y-155775000D02*
X229690000Y-155645000D01*
X235130000Y-155775000D02*
X229690000Y-155775000D01*
%TO.C,D17*%
X101780000Y-98625000D02*
X96340000Y-98625000D01*
X101780000Y-95685000D02*
X96340000Y-95685000D01*
X96340000Y-98625000D02*
X96340000Y-98495000D01*
X101780000Y-95815000D02*
X101780000Y-95685000D01*
X96340000Y-95685000D02*
X96340000Y-95815000D01*
X101000000Y-95685000D02*
X101000000Y-98625000D01*
X100760000Y-95685000D02*
X100760000Y-98625000D01*
X101780000Y-98495000D02*
X101780000Y-98625000D01*
X100880000Y-95685000D02*
X100880000Y-98625000D01*
%TO.C,D25*%
X139880000Y-95685000D02*
X134440000Y-95685000D01*
X139100000Y-95685000D02*
X139100000Y-98625000D01*
X139880000Y-98625000D02*
X134440000Y-98625000D01*
X139880000Y-95815000D02*
X139880000Y-95685000D01*
X139880000Y-98495000D02*
X139880000Y-98625000D01*
X134440000Y-98625000D02*
X134440000Y-98495000D01*
X138860000Y-95685000D02*
X138860000Y-98625000D01*
X134440000Y-95685000D02*
X134440000Y-95815000D01*
X138980000Y-95685000D02*
X138980000Y-98625000D01*
%TO.C,D23*%
X115390000Y-136725000D02*
X115390000Y-136595000D01*
X119810000Y-133785000D02*
X119810000Y-136725000D01*
X120050000Y-133785000D02*
X120050000Y-136725000D01*
X120830000Y-136725000D02*
X115390000Y-136725000D01*
X120830000Y-136595000D02*
X120830000Y-136725000D01*
X120830000Y-133915000D02*
X120830000Y-133785000D01*
X119930000Y-133785000D02*
X119930000Y-136725000D01*
X115390000Y-133785000D02*
X115390000Y-133915000D01*
X120830000Y-133785000D02*
X115390000Y-133785000D01*
%TO.C,D7*%
X43610000Y-133785000D02*
X43610000Y-136725000D01*
X39190000Y-136725000D02*
X39190000Y-136595000D01*
X43850000Y-133785000D02*
X43850000Y-136725000D01*
X43730000Y-133785000D02*
X43730000Y-136725000D01*
X44630000Y-133915000D02*
X44630000Y-133785000D01*
X39190000Y-133785000D02*
X39190000Y-133915000D01*
X44630000Y-133785000D02*
X39190000Y-133785000D01*
X44630000Y-136595000D02*
X44630000Y-136725000D01*
X44630000Y-136725000D02*
X39190000Y-136725000D01*
%TO.C,R50*%
X28675000Y-55865000D02*
X28675000Y-59705000D01*
X30515000Y-55865000D02*
X30515000Y-59705000D01*
%TO.C,D37*%
X197030000Y-98495000D02*
X197030000Y-98625000D01*
X197030000Y-95685000D02*
X191590000Y-95685000D01*
X196010000Y-95685000D02*
X196010000Y-98625000D01*
X197030000Y-98625000D02*
X191590000Y-98625000D01*
X196130000Y-95685000D02*
X196130000Y-98625000D01*
X191590000Y-98625000D02*
X191590000Y-98495000D01*
X191590000Y-95685000D02*
X191590000Y-95815000D01*
X196250000Y-95685000D02*
X196250000Y-98625000D01*
X197030000Y-95815000D02*
X197030000Y-95685000D01*
%TO.C,D41*%
X216080000Y-95815000D02*
X216080000Y-95685000D01*
X216080000Y-95685000D02*
X210640000Y-95685000D01*
X210640000Y-98625000D02*
X210640000Y-98495000D01*
X215300000Y-95685000D02*
X215300000Y-98625000D01*
X210640000Y-95685000D02*
X210640000Y-95815000D01*
X216080000Y-98495000D02*
X216080000Y-98625000D01*
X216080000Y-98625000D02*
X210640000Y-98625000D01*
X215180000Y-95685000D02*
X215180000Y-98625000D01*
X215060000Y-95685000D02*
X215060000Y-98625000D01*
%TO.C,D28*%
X139880000Y-152835000D02*
X134440000Y-152835000D01*
X139880000Y-152965000D02*
X139880000Y-152835000D01*
X134440000Y-155775000D02*
X134440000Y-155645000D01*
X138980000Y-152835000D02*
X138980000Y-155775000D01*
X139880000Y-155645000D02*
X139880000Y-155775000D01*
X138860000Y-152835000D02*
X138860000Y-155775000D01*
X139880000Y-155775000D02*
X134440000Y-155775000D01*
X139100000Y-152835000D02*
X139100000Y-155775000D01*
X134440000Y-152835000D02*
X134440000Y-152965000D01*
%TO.C,D11*%
X62900000Y-133785000D02*
X62900000Y-136725000D01*
X58240000Y-133785000D02*
X58240000Y-133915000D01*
X63680000Y-136725000D02*
X58240000Y-136725000D01*
X62660000Y-133785000D02*
X62660000Y-136725000D01*
X62780000Y-133785000D02*
X62780000Y-136725000D01*
X63680000Y-133785000D02*
X58240000Y-133785000D01*
X63680000Y-136595000D02*
X63680000Y-136725000D01*
X63680000Y-133915000D02*
X63680000Y-133785000D01*
X58240000Y-136725000D02*
X58240000Y-136595000D01*
%TO.C,D43*%
X215180000Y-133658000D02*
X215180000Y-136598000D01*
X210640000Y-133658000D02*
X210640000Y-133788000D01*
X216080000Y-133658000D02*
X210640000Y-133658000D01*
X216080000Y-136468000D02*
X216080000Y-136598000D01*
X210640000Y-136598000D02*
X210640000Y-136468000D01*
X216080000Y-136598000D02*
X210640000Y-136598000D01*
X215060000Y-133658000D02*
X215060000Y-136598000D01*
X215300000Y-133658000D02*
X215300000Y-136598000D01*
X216080000Y-133788000D02*
X216080000Y-133658000D01*
%TO.C,R52*%
X38200000Y-55865000D02*
X38200000Y-59705000D01*
X40040000Y-55865000D02*
X40040000Y-59705000D01*
%TO.C,D21*%
X115390000Y-98625000D02*
X115390000Y-98495000D01*
X120830000Y-95685000D02*
X115390000Y-95685000D01*
X120830000Y-98625000D02*
X115390000Y-98625000D01*
X115390000Y-95685000D02*
X115390000Y-95815000D01*
X120050000Y-95685000D02*
X120050000Y-98625000D01*
X120830000Y-98495000D02*
X120830000Y-98625000D01*
X120830000Y-95815000D02*
X120830000Y-95685000D01*
X119810000Y-95685000D02*
X119810000Y-98625000D01*
X119930000Y-95685000D02*
X119930000Y-98625000D01*
%TO.C,D27*%
X139880000Y-133915000D02*
X139880000Y-133785000D01*
X139880000Y-133785000D02*
X134440000Y-133785000D01*
X134440000Y-136725000D02*
X134440000Y-136595000D01*
X139880000Y-136725000D02*
X134440000Y-136725000D01*
X139880000Y-136595000D02*
X139880000Y-136725000D01*
X139100000Y-133785000D02*
X139100000Y-136725000D01*
X138980000Y-133785000D02*
X138980000Y-136725000D01*
X138860000Y-133785000D02*
X138860000Y-136725000D01*
X134440000Y-133785000D02*
X134440000Y-133915000D01*
%TO.C,D35*%
X176960000Y-133785000D02*
X176960000Y-136725000D01*
X177980000Y-136725000D02*
X172540000Y-136725000D01*
X177080000Y-133785000D02*
X177080000Y-136725000D01*
X177200000Y-133785000D02*
X177200000Y-136725000D01*
X177980000Y-136595000D02*
X177980000Y-136725000D01*
X172540000Y-133785000D02*
X172540000Y-133915000D01*
X177980000Y-133785000D02*
X172540000Y-133785000D01*
X172540000Y-136725000D02*
X172540000Y-136595000D01*
X177980000Y-133915000D02*
X177980000Y-133785000D01*
%TO.C,D16*%
X82730000Y-152835000D02*
X77290000Y-152835000D01*
X77290000Y-155775000D02*
X77290000Y-155645000D01*
X82730000Y-152965000D02*
X82730000Y-152835000D01*
X81950000Y-152835000D02*
X81950000Y-155775000D01*
X77290000Y-152835000D02*
X77290000Y-152965000D01*
X82730000Y-155775000D02*
X77290000Y-155775000D01*
X81710000Y-152835000D02*
X81710000Y-155775000D01*
X81830000Y-152835000D02*
X81830000Y-155775000D01*
X82730000Y-155645000D02*
X82730000Y-155775000D01*
%TO.C,D19*%
X96340000Y-136725000D02*
X96340000Y-136595000D01*
X96340000Y-133785000D02*
X96340000Y-133915000D01*
X100760000Y-133785000D02*
X100760000Y-136725000D01*
X100880000Y-133785000D02*
X100880000Y-136725000D01*
X101780000Y-136595000D02*
X101780000Y-136725000D01*
X101780000Y-133915000D02*
X101780000Y-133785000D01*
X101000000Y-133785000D02*
X101000000Y-136725000D01*
X101780000Y-136725000D02*
X96340000Y-136725000D01*
X101780000Y-133785000D02*
X96340000Y-133785000D01*
%TO.C,D42*%
X215300000Y-114735000D02*
X215300000Y-117675000D01*
X216080000Y-117675000D02*
X210640000Y-117675000D01*
X215060000Y-114735000D02*
X215060000Y-117675000D01*
X210640000Y-117675000D02*
X210640000Y-117545000D01*
X215180000Y-114735000D02*
X215180000Y-117675000D01*
X210640000Y-114735000D02*
X210640000Y-114865000D01*
X216080000Y-114865000D02*
X216080000Y-114735000D01*
X216080000Y-117545000D02*
X216080000Y-117675000D01*
X216080000Y-114735000D02*
X210640000Y-114735000D01*
%TO.C,D31*%
X153490000Y-136725000D02*
X153490000Y-136595000D01*
X158930000Y-136595000D02*
X158930000Y-136725000D01*
X157910000Y-133785000D02*
X157910000Y-136725000D01*
X158030000Y-133785000D02*
X158030000Y-136725000D01*
X153490000Y-133785000D02*
X153490000Y-133915000D01*
X158930000Y-133785000D02*
X153490000Y-133785000D01*
X158930000Y-133915000D02*
X158930000Y-133785000D01*
X158150000Y-133785000D02*
X158150000Y-136725000D01*
X158930000Y-136725000D02*
X153490000Y-136725000D01*
%TO.C,D38*%
X191590000Y-114735000D02*
X191590000Y-114865000D01*
X197030000Y-114735000D02*
X191590000Y-114735000D01*
X197030000Y-117545000D02*
X197030000Y-117675000D01*
X196250000Y-114735000D02*
X196250000Y-117675000D01*
X191590000Y-117675000D02*
X191590000Y-117545000D01*
X197030000Y-114865000D02*
X197030000Y-114735000D01*
X196130000Y-114735000D02*
X196130000Y-117675000D01*
X196010000Y-114735000D02*
X196010000Y-117675000D01*
X197030000Y-117675000D02*
X191590000Y-117675000D01*
%TO.C,D15*%
X81830000Y-133785000D02*
X81830000Y-136725000D01*
X81710000Y-133785000D02*
X81710000Y-136725000D01*
X82730000Y-133785000D02*
X77290000Y-133785000D01*
X77290000Y-133785000D02*
X77290000Y-133915000D01*
X81950000Y-133785000D02*
X81950000Y-136725000D01*
X82730000Y-136725000D02*
X77290000Y-136725000D01*
X77290000Y-136725000D02*
X77290000Y-136595000D01*
X82730000Y-133915000D02*
X82730000Y-133785000D01*
X82730000Y-136595000D02*
X82730000Y-136725000D01*
%TO.C,D34*%
X172540000Y-114735000D02*
X172540000Y-114865000D01*
X176960000Y-114735000D02*
X176960000Y-117675000D01*
X177980000Y-114735000D02*
X172540000Y-114735000D01*
X177980000Y-117545000D02*
X177980000Y-117675000D01*
X177200000Y-114735000D02*
X177200000Y-117675000D01*
X177980000Y-114865000D02*
X177980000Y-114735000D01*
X177980000Y-117675000D02*
X172540000Y-117675000D01*
X172540000Y-117675000D02*
X172540000Y-117545000D01*
X177080000Y-114735000D02*
X177080000Y-117675000D01*
%TO.C,D10*%
X58240000Y-114735000D02*
X58240000Y-114865000D01*
X63680000Y-114735000D02*
X58240000Y-114735000D01*
X62660000Y-114735000D02*
X62660000Y-117675000D01*
X62780000Y-114735000D02*
X62780000Y-117675000D01*
X63680000Y-117545000D02*
X63680000Y-117675000D01*
X63680000Y-114865000D02*
X63680000Y-114735000D01*
X62900000Y-114735000D02*
X62900000Y-117675000D01*
X58240000Y-117675000D02*
X58240000Y-117545000D01*
X63680000Y-117675000D02*
X58240000Y-117675000D01*
%TO.C,R53*%
X43850000Y-55865000D02*
X43850000Y-59705000D01*
X42010000Y-55865000D02*
X42010000Y-59705000D01*
%TO.C,D40*%
X197030000Y-152835000D02*
X191590000Y-152835000D01*
X196250000Y-152835000D02*
X196250000Y-155775000D01*
X196010000Y-152835000D02*
X196010000Y-155775000D01*
X191590000Y-152835000D02*
X191590000Y-152965000D01*
X191590000Y-155775000D02*
X191590000Y-155645000D01*
X196130000Y-152835000D02*
X196130000Y-155775000D01*
X197030000Y-155645000D02*
X197030000Y-155775000D01*
X197030000Y-152965000D02*
X197030000Y-152835000D01*
X197030000Y-155775000D02*
X191590000Y-155775000D01*
%TO.C,D13*%
X77290000Y-98625000D02*
X77290000Y-98495000D01*
X81710000Y-95685000D02*
X81710000Y-98625000D01*
X82730000Y-95685000D02*
X77290000Y-95685000D01*
X81830000Y-95685000D02*
X81830000Y-98625000D01*
X77290000Y-95685000D02*
X77290000Y-95815000D01*
X82730000Y-95815000D02*
X82730000Y-95685000D01*
X81950000Y-95685000D02*
X81950000Y-98625000D01*
X82730000Y-98495000D02*
X82730000Y-98625000D01*
X82730000Y-98625000D02*
X77290000Y-98625000D01*
%TO.C,D29*%
X157910000Y-95685000D02*
X157910000Y-98625000D01*
X153490000Y-95685000D02*
X153490000Y-95815000D01*
X158930000Y-95815000D02*
X158930000Y-95685000D01*
X158930000Y-98625000D02*
X153490000Y-98625000D01*
X158150000Y-95685000D02*
X158150000Y-98625000D01*
X158930000Y-95685000D02*
X153490000Y-95685000D01*
X158030000Y-95685000D02*
X158030000Y-98625000D01*
X158930000Y-98495000D02*
X158930000Y-98625000D01*
X153490000Y-98625000D02*
X153490000Y-98495000D01*
%TO.C,D6*%
X44630000Y-117545000D02*
X44630000Y-117675000D01*
X43730000Y-114735000D02*
X43730000Y-117675000D01*
X43610000Y-114735000D02*
X43610000Y-117675000D01*
X43850000Y-114735000D02*
X43850000Y-117675000D01*
X39190000Y-117675000D02*
X39190000Y-117545000D01*
X44630000Y-114735000D02*
X39190000Y-114735000D01*
X39190000Y-114735000D02*
X39190000Y-114865000D01*
X44630000Y-117675000D02*
X39190000Y-117675000D01*
X44630000Y-114865000D02*
X44630000Y-114735000D01*
%TO.C,D5*%
X39190000Y-98625000D02*
X39190000Y-98495000D01*
X39190000Y-95685000D02*
X39190000Y-95815000D01*
X43730000Y-95685000D02*
X43730000Y-98625000D01*
X44630000Y-95685000D02*
X39190000Y-95685000D01*
X43610000Y-95685000D02*
X43610000Y-98625000D01*
X44630000Y-98625000D02*
X39190000Y-98625000D01*
X43850000Y-95685000D02*
X43850000Y-98625000D01*
X44630000Y-95815000D02*
X44630000Y-95685000D01*
X44630000Y-98495000D02*
X44630000Y-98625000D01*
%TO.C,D12*%
X62660000Y-152835000D02*
X62660000Y-155775000D01*
X58240000Y-152835000D02*
X58240000Y-152965000D01*
X62900000Y-152835000D02*
X62900000Y-155775000D01*
X63680000Y-152965000D02*
X63680000Y-152835000D01*
X63680000Y-155645000D02*
X63680000Y-155775000D01*
X62780000Y-152835000D02*
X62780000Y-155775000D01*
X63680000Y-152835000D02*
X58240000Y-152835000D01*
X58240000Y-155775000D02*
X58240000Y-155645000D01*
X63680000Y-155775000D02*
X58240000Y-155775000D01*
%TO.C,D32*%
X158930000Y-152835000D02*
X153490000Y-152835000D01*
X158930000Y-155775000D02*
X153490000Y-155775000D01*
X158030000Y-152835000D02*
X158030000Y-155775000D01*
X158150000Y-152835000D02*
X158150000Y-155775000D01*
X153490000Y-152835000D02*
X153490000Y-152965000D01*
X158930000Y-152965000D02*
X158930000Y-152835000D01*
X157910000Y-152835000D02*
X157910000Y-155775000D01*
X158930000Y-155645000D02*
X158930000Y-155775000D01*
X153490000Y-155775000D02*
X153490000Y-155645000D01*
%TO.C,D44*%
X215300000Y-152835000D02*
X215300000Y-155775000D01*
X215060000Y-152835000D02*
X215060000Y-155775000D01*
X216080000Y-155775000D02*
X210640000Y-155775000D01*
X210640000Y-152835000D02*
X210640000Y-152965000D01*
X216080000Y-152965000D02*
X216080000Y-152835000D01*
X215180000Y-152835000D02*
X215180000Y-155775000D01*
X216080000Y-152835000D02*
X210640000Y-152835000D01*
X216080000Y-155645000D02*
X216080000Y-155775000D01*
X210640000Y-155775000D02*
X210640000Y-155645000D01*
%TO.C,R54*%
X33055000Y-55865000D02*
X33055000Y-59705000D01*
X31215000Y-55865000D02*
X31215000Y-59705000D01*
%TO.C,D8*%
X44630000Y-152965000D02*
X44630000Y-152835000D01*
X43850000Y-152835000D02*
X43850000Y-155775000D01*
X44630000Y-152835000D02*
X39190000Y-152835000D01*
X44630000Y-155775000D02*
X39190000Y-155775000D01*
X43730000Y-152835000D02*
X43730000Y-155775000D01*
X39190000Y-155775000D02*
X39190000Y-155645000D01*
X39190000Y-152835000D02*
X39190000Y-152965000D01*
X44630000Y-155645000D02*
X44630000Y-155775000D01*
X43610000Y-152835000D02*
X43610000Y-155775000D01*
%TO.C,D9*%
X58240000Y-95685000D02*
X58240000Y-95815000D01*
X62900000Y-95685000D02*
X62900000Y-98625000D01*
X63680000Y-95815000D02*
X63680000Y-95685000D01*
X63680000Y-98625000D02*
X58240000Y-98625000D01*
X63680000Y-98495000D02*
X63680000Y-98625000D01*
X63680000Y-95685000D02*
X58240000Y-95685000D01*
X62780000Y-95685000D02*
X62780000Y-98625000D01*
X58240000Y-98625000D02*
X58240000Y-98495000D01*
X62660000Y-95685000D02*
X62660000Y-98625000D01*
%TO.C,D14*%
X77290000Y-117675000D02*
X77290000Y-117545000D01*
X82730000Y-114865000D02*
X82730000Y-114735000D01*
X82730000Y-117545000D02*
X82730000Y-117675000D01*
X81950000Y-114735000D02*
X81950000Y-117675000D01*
X81830000Y-114735000D02*
X81830000Y-117675000D01*
X82730000Y-114735000D02*
X77290000Y-114735000D01*
X77290000Y-114735000D02*
X77290000Y-114865000D01*
X81710000Y-114735000D02*
X81710000Y-117675000D01*
X82730000Y-117675000D02*
X77290000Y-117675000D01*
%TO.C,D20*%
X96340000Y-155775000D02*
X96340000Y-155645000D01*
X101000000Y-152835000D02*
X101000000Y-155775000D01*
X101780000Y-155645000D02*
X101780000Y-155775000D01*
X101780000Y-152835000D02*
X96340000Y-152835000D01*
X100880000Y-152835000D02*
X100880000Y-155775000D01*
X101780000Y-155775000D02*
X96340000Y-155775000D01*
X101780000Y-152965000D02*
X101780000Y-152835000D01*
X100760000Y-152835000D02*
X100760000Y-155775000D01*
X96340000Y-152835000D02*
X96340000Y-152965000D01*
%TO.C,D46*%
X235130000Y-98625000D02*
X229690000Y-98625000D01*
X234230000Y-95685000D02*
X234230000Y-98625000D01*
X235130000Y-95815000D02*
X235130000Y-95685000D01*
X229690000Y-95685000D02*
X229690000Y-95815000D01*
X235130000Y-98495000D02*
X235130000Y-98625000D01*
X234110000Y-95685000D02*
X234110000Y-98625000D01*
X229690000Y-98625000D02*
X229690000Y-98495000D01*
X235130000Y-95685000D02*
X229690000Y-95685000D01*
X234350000Y-95685000D02*
X234350000Y-98625000D01*
%TO.C,D18*%
X100760000Y-114735000D02*
X100760000Y-117675000D01*
X101000000Y-114735000D02*
X101000000Y-117675000D01*
X101780000Y-117545000D02*
X101780000Y-117675000D01*
X100880000Y-114735000D02*
X100880000Y-117675000D01*
X96340000Y-117675000D02*
X96340000Y-117545000D01*
X101780000Y-114865000D02*
X101780000Y-114735000D01*
X101780000Y-114735000D02*
X96340000Y-114735000D01*
X96340000Y-114735000D02*
X96340000Y-114865000D01*
X101780000Y-117675000D02*
X96340000Y-117675000D01*
%TO.C,D47*%
X234110000Y-114735000D02*
X234110000Y-117675000D01*
X235130000Y-114865000D02*
X235130000Y-114735000D01*
X234350000Y-114735000D02*
X234350000Y-117675000D01*
X235130000Y-117545000D02*
X235130000Y-117675000D01*
X229690000Y-114735000D02*
X229690000Y-114865000D01*
X234230000Y-114735000D02*
X234230000Y-117675000D01*
X229690000Y-117675000D02*
X229690000Y-117545000D01*
X235130000Y-114735000D02*
X229690000Y-114735000D01*
X235130000Y-117675000D02*
X229690000Y-117675000D01*
%TO.C,D24*%
X115390000Y-152835000D02*
X115390000Y-152965000D01*
X120830000Y-155775000D02*
X115390000Y-155775000D01*
X120830000Y-152835000D02*
X115390000Y-152835000D01*
X120830000Y-152965000D02*
X120830000Y-152835000D01*
X115390000Y-155775000D02*
X115390000Y-155645000D01*
X119930000Y-152835000D02*
X119930000Y-155775000D01*
X120830000Y-155645000D02*
X120830000Y-155775000D01*
X119810000Y-152835000D02*
X119810000Y-155775000D01*
X120050000Y-152835000D02*
X120050000Y-155775000D01*
%TO.C,D22*%
X120830000Y-117675000D02*
X115390000Y-117675000D01*
X119810000Y-114735000D02*
X119810000Y-117675000D01*
X120050000Y-114735000D02*
X120050000Y-117675000D01*
X119930000Y-114735000D02*
X119930000Y-117675000D01*
X115390000Y-114735000D02*
X115390000Y-114865000D01*
X120830000Y-114735000D02*
X115390000Y-114735000D01*
X115390000Y-117675000D02*
X115390000Y-117545000D01*
X120830000Y-117545000D02*
X120830000Y-117675000D01*
X120830000Y-114865000D02*
X120830000Y-114735000D01*
%TO.C,R49*%
X37500000Y-55865000D02*
X37500000Y-59705000D01*
X35660000Y-55865000D02*
X35660000Y-59705000D01*
%TO.C,D4*%
X24560000Y-152835000D02*
X24560000Y-155775000D01*
X20140000Y-155775000D02*
X20140000Y-155645000D01*
X25580000Y-152965000D02*
X25580000Y-152835000D01*
X24680000Y-152835000D02*
X24680000Y-155775000D01*
X25580000Y-155775000D02*
X20140000Y-155775000D01*
X25580000Y-152835000D02*
X20140000Y-152835000D01*
X20140000Y-152835000D02*
X20140000Y-152965000D01*
X24800000Y-152835000D02*
X24800000Y-155775000D01*
X25580000Y-155645000D02*
X25580000Y-155775000D01*
%TO.C,D3*%
X20140000Y-136725000D02*
X20140000Y-136595000D01*
X25580000Y-136725000D02*
X20140000Y-136725000D01*
X25580000Y-133785000D02*
X20140000Y-133785000D01*
X24560000Y-133785000D02*
X24560000Y-136725000D01*
X24800000Y-133785000D02*
X24800000Y-136725000D01*
X20140000Y-133785000D02*
X20140000Y-133915000D01*
X25580000Y-136595000D02*
X25580000Y-136725000D01*
X25580000Y-133915000D02*
X25580000Y-133785000D01*
X24680000Y-133785000D02*
X24680000Y-136725000D01*
%TO.C,R51*%
X44550000Y-55865000D02*
X44550000Y-59705000D01*
X46390000Y-55865000D02*
X46390000Y-59705000D01*
%TO.C,D1*%
X25580000Y-98495000D02*
X25580000Y-98625000D01*
X24560000Y-95685000D02*
X24560000Y-98625000D01*
X24800000Y-95685000D02*
X24800000Y-98625000D01*
X20140000Y-98625000D02*
X20140000Y-98495000D01*
X25580000Y-95685000D02*
X20140000Y-95685000D01*
X25580000Y-95815000D02*
X25580000Y-95685000D01*
X24680000Y-95685000D02*
X24680000Y-98625000D01*
X20140000Y-95685000D02*
X20140000Y-95815000D01*
X25580000Y-98625000D02*
X20140000Y-98625000D01*
%TO.C,D33*%
X177980000Y-95815000D02*
X177980000Y-95685000D01*
X177980000Y-98495000D02*
X177980000Y-98625000D01*
X177980000Y-95685000D02*
X172540000Y-95685000D01*
X177200000Y-95685000D02*
X177200000Y-98625000D01*
X177080000Y-95685000D02*
X177080000Y-98625000D01*
X177980000Y-98625000D02*
X172540000Y-98625000D01*
X176960000Y-95685000D02*
X176960000Y-98625000D01*
X172540000Y-98625000D02*
X172540000Y-98495000D01*
X172540000Y-95685000D02*
X172540000Y-95815000D01*
%TO.C,D2*%
X24560000Y-114735000D02*
X24560000Y-117675000D01*
X24800000Y-114735000D02*
X24800000Y-117675000D01*
X24680000Y-114735000D02*
X24680000Y-117675000D01*
X25580000Y-117675000D02*
X20140000Y-117675000D01*
X20140000Y-117675000D02*
X20140000Y-117545000D01*
X25580000Y-117545000D02*
X25580000Y-117675000D01*
X25580000Y-114735000D02*
X20140000Y-114735000D01*
X25580000Y-114865000D02*
X25580000Y-114735000D01*
X20140000Y-114735000D02*
X20140000Y-114865000D01*
%TO.C,D39*%
X196130000Y-133785000D02*
X196130000Y-136725000D01*
X197030000Y-136595000D02*
X197030000Y-136725000D01*
X191590000Y-136725000D02*
X191590000Y-136595000D01*
X197030000Y-136725000D02*
X191590000Y-136725000D01*
X197030000Y-133915000D02*
X197030000Y-133785000D01*
X191590000Y-133785000D02*
X191590000Y-133915000D01*
X197030000Y-133785000D02*
X191590000Y-133785000D01*
X196010000Y-133785000D02*
X196010000Y-136725000D01*
X196250000Y-133785000D02*
X196250000Y-136725000D01*
%TO.C,D26*%
X138860000Y-114735000D02*
X138860000Y-117675000D01*
X139880000Y-117675000D02*
X134440000Y-117675000D01*
X139880000Y-114865000D02*
X139880000Y-114735000D01*
X139880000Y-114735000D02*
X134440000Y-114735000D01*
X134440000Y-114735000D02*
X134440000Y-114865000D01*
X139880000Y-117545000D02*
X139880000Y-117675000D01*
X139100000Y-114735000D02*
X139100000Y-117675000D01*
X138980000Y-114735000D02*
X138980000Y-117675000D01*
X134440000Y-117675000D02*
X134440000Y-117545000D01*
%TO.C,D48*%
X229690000Y-133785000D02*
X229690000Y-133915000D01*
X234230000Y-133785000D02*
X234230000Y-136725000D01*
X235130000Y-133785000D02*
X229690000Y-133785000D01*
X235130000Y-136595000D02*
X235130000Y-136725000D01*
X235130000Y-136725000D02*
X229690000Y-136725000D01*
X235130000Y-133915000D02*
X235130000Y-133785000D01*
X229690000Y-136725000D02*
X229690000Y-136595000D01*
X234110000Y-133785000D02*
X234110000Y-136725000D01*
X234350000Y-133785000D02*
X234350000Y-136725000D01*
%TO.C,D36*%
X176960000Y-152835000D02*
X176960000Y-155775000D01*
X172540000Y-152835000D02*
X172540000Y-152965000D01*
X177980000Y-155645000D02*
X177980000Y-155775000D01*
X177980000Y-155775000D02*
X172540000Y-155775000D01*
X177980000Y-152965000D02*
X177980000Y-152835000D01*
X177980000Y-152835000D02*
X172540000Y-152835000D01*
X177080000Y-152835000D02*
X177080000Y-155775000D01*
X177200000Y-152835000D02*
X177200000Y-155775000D01*
X172540000Y-155775000D02*
X172540000Y-155645000D01*
%TO.C,D30*%
X153490000Y-117675000D02*
X153490000Y-117545000D01*
X158930000Y-117545000D02*
X158930000Y-117675000D01*
X158930000Y-114735000D02*
X153490000Y-114735000D01*
X158150000Y-114735000D02*
X158150000Y-117675000D01*
X158930000Y-117675000D02*
X153490000Y-117675000D01*
X157910000Y-114735000D02*
X157910000Y-117675000D01*
X158930000Y-114865000D02*
X158930000Y-114735000D01*
X153490000Y-114735000D02*
X153490000Y-114865000D01*
X158030000Y-114735000D02*
X158030000Y-117675000D01*
%TD*%
M02*
