%TF.GenerationSoftware,KiCad,Pcbnew,(6.0.0-0)*%
%TF.CreationDate,2022-06-17T23:46:41-04:00*%
%TF.ProjectId,justin-freetracing,6a757374-696e-42d6-9672-656574726163,rev?*%
%TF.SameCoordinates,Original*%
%TF.FileFunction,Legend,Top*%
%TF.FilePolarity,Positive*%
%FSLAX46Y46*%
G04 Gerber Fmt 4.6, Leading zero omitted, Abs format (unit mm)*
G04 Created by KiCad (PCBNEW (6.0.0-0)) date 2022-06-17 23:46:41*
%MOMM*%
%LPD*%
G01*
G04 APERTURE LIST*
%ADD10C,0.150000*%
%ADD11C,0.120000*%
G04 APERTURE END LIST*
D10*
X83272380Y-55263809D02*
X83272380Y-55168571D01*
X83320000Y-55073333D01*
X83367619Y-55025714D01*
X83462857Y-54978095D01*
X83653333Y-54930476D01*
X83891428Y-54930476D01*
X84081904Y-54978095D01*
X84177142Y-55025714D01*
X84224761Y-55073333D01*
X84272380Y-55168571D01*
X84272380Y-55263809D01*
X84224761Y-55359047D01*
X84177142Y-55406666D01*
X84081904Y-55454285D01*
X83891428Y-55501904D01*
X83653333Y-55501904D01*
X83462857Y-55454285D01*
X83367619Y-55406666D01*
X83320000Y-55359047D01*
X83272380Y-55263809D01*
X84177142Y-54501904D02*
X84224761Y-54454285D01*
X84272380Y-54501904D01*
X84224761Y-54549523D01*
X84177142Y-54501904D01*
X84272380Y-54501904D01*
X84272380Y-53501904D02*
X84272380Y-54073333D01*
X84272380Y-53787619D02*
X83272380Y-53787619D01*
X83415238Y-53882857D01*
X83510476Y-53978095D01*
X83558095Y-54073333D01*
X83605714Y-51882857D02*
X84272380Y-51882857D01*
X83605714Y-52311428D02*
X84129523Y-52311428D01*
X84224761Y-52263809D01*
X84272380Y-52168571D01*
X84272380Y-52025714D01*
X84224761Y-51930476D01*
X84177142Y-51882857D01*
X83748571Y-51073333D02*
X83748571Y-51406666D01*
X84272380Y-51406666D02*
X83272380Y-51406666D01*
X83272380Y-50930476D01*
X14032380Y-61303809D02*
X14032380Y-61208571D01*
X14080000Y-61113333D01*
X14127619Y-61065714D01*
X14222857Y-61018095D01*
X14413333Y-60970476D01*
X14651428Y-60970476D01*
X14841904Y-61018095D01*
X14937142Y-61065714D01*
X14984761Y-61113333D01*
X15032380Y-61208571D01*
X15032380Y-61303809D01*
X14984761Y-61399047D01*
X14937142Y-61446666D01*
X14841904Y-61494285D01*
X14651428Y-61541904D01*
X14413333Y-61541904D01*
X14222857Y-61494285D01*
X14127619Y-61446666D01*
X14080000Y-61399047D01*
X14032380Y-61303809D01*
X14937142Y-60541904D02*
X14984761Y-60494285D01*
X15032380Y-60541904D01*
X14984761Y-60589523D01*
X14937142Y-60541904D01*
X15032380Y-60541904D01*
X15032380Y-59541904D02*
X15032380Y-60113333D01*
X15032380Y-59827619D02*
X14032380Y-59827619D01*
X14175238Y-59922857D01*
X14270476Y-60018095D01*
X14318095Y-60113333D01*
X14365714Y-57922857D02*
X15032380Y-57922857D01*
X14365714Y-58351428D02*
X14889523Y-58351428D01*
X14984761Y-58303809D01*
X15032380Y-58208571D01*
X15032380Y-58065714D01*
X14984761Y-57970476D01*
X14937142Y-57922857D01*
X14508571Y-57113333D02*
X14508571Y-57446666D01*
X15032380Y-57446666D02*
X14032380Y-57446666D01*
X14032380Y-56970476D01*
X19886190Y-85802380D02*
X19981428Y-85802380D01*
X20076666Y-85850000D01*
X20124285Y-85897619D01*
X20171904Y-85992857D01*
X20219523Y-86183333D01*
X20219523Y-86421428D01*
X20171904Y-86611904D01*
X20124285Y-86707142D01*
X20076666Y-86754761D01*
X19981428Y-86802380D01*
X19886190Y-86802380D01*
X19790952Y-86754761D01*
X19743333Y-86707142D01*
X19695714Y-86611904D01*
X19648095Y-86421428D01*
X19648095Y-86183333D01*
X19695714Y-85992857D01*
X19743333Y-85897619D01*
X19790952Y-85850000D01*
X19886190Y-85802380D01*
X20648095Y-86707142D02*
X20695714Y-86754761D01*
X20648095Y-86802380D01*
X20600476Y-86754761D01*
X20648095Y-86707142D01*
X20648095Y-86802380D01*
X21648095Y-86802380D02*
X21076666Y-86802380D01*
X21362380Y-86802380D02*
X21362380Y-85802380D01*
X21267142Y-85945238D01*
X21171904Y-86040476D01*
X21076666Y-86088095D01*
X23267142Y-86135714D02*
X23267142Y-86802380D01*
X22838571Y-86135714D02*
X22838571Y-86659523D01*
X22886190Y-86754761D01*
X22981428Y-86802380D01*
X23124285Y-86802380D01*
X23219523Y-86754761D01*
X23267142Y-86707142D01*
X24076666Y-86278571D02*
X23743333Y-86278571D01*
X23743333Y-86802380D02*
X23743333Y-85802380D01*
X24219523Y-85802380D01*
X71432380Y-91496666D02*
X70432380Y-91496666D01*
X70432380Y-91115714D01*
X70480000Y-91020476D01*
X70527619Y-90972857D01*
X70622857Y-90925238D01*
X70765714Y-90925238D01*
X70860952Y-90972857D01*
X70908571Y-91020476D01*
X70956190Y-91115714D01*
X70956190Y-91496666D01*
X71146666Y-90544285D02*
X71146666Y-90068095D01*
X71432380Y-90639523D02*
X70432380Y-90306190D01*
X71432380Y-89972857D01*
X70432380Y-89734761D02*
X70432380Y-89068095D01*
X71432380Y-89496666D01*
X12966666Y-79332380D02*
X12966666Y-78332380D01*
X13347619Y-78332380D01*
X13442857Y-78380000D01*
X13490476Y-78427619D01*
X13538095Y-78522857D01*
X13538095Y-78665714D01*
X13490476Y-78760952D01*
X13442857Y-78808571D01*
X13347619Y-78856190D01*
X12966666Y-78856190D01*
X13871428Y-78332380D02*
X14109523Y-79332380D01*
X14300000Y-78618095D01*
X14490476Y-79332380D01*
X14728571Y-78332380D01*
X15680952Y-79332380D02*
X15347619Y-78856190D01*
X15109523Y-79332380D02*
X15109523Y-78332380D01*
X15490476Y-78332380D01*
X15585714Y-78380000D01*
X15633333Y-78427619D01*
X15680952Y-78522857D01*
X15680952Y-78665714D01*
X15633333Y-78760952D01*
X15585714Y-78808571D01*
X15490476Y-78856190D01*
X15109523Y-78856190D01*
X90910000Y-68930000D02*
X89259000Y-68930000D01*
X89259000Y-68930000D02*
X89259000Y-67533000D01*
X89259000Y-67533000D02*
X90910000Y-68930000D01*
G36*
X90910000Y-68930000D02*
G01*
X89259000Y-68930000D01*
X89259000Y-67533000D01*
X90910000Y-68930000D01*
G37*
X90910000Y-68930000D02*
X89259000Y-68930000D01*
X89259000Y-67533000D01*
X90910000Y-68930000D01*
X68863809Y-58086380D02*
X68863809Y-57086380D01*
X69911428Y-57991142D02*
X69863809Y-58038761D01*
X69720952Y-58086380D01*
X69625714Y-58086380D01*
X69482857Y-58038761D01*
X69387619Y-57943523D01*
X69340000Y-57848285D01*
X69292380Y-57657809D01*
X69292380Y-57514952D01*
X69340000Y-57324476D01*
X69387619Y-57229238D01*
X69482857Y-57134000D01*
X69625714Y-57086380D01*
X69720952Y-57086380D01*
X69863809Y-57134000D01*
X69911428Y-57181619D01*
X70292380Y-58038761D02*
X70435238Y-58086380D01*
X70673333Y-58086380D01*
X70768571Y-58038761D01*
X70816190Y-57991142D01*
X70863809Y-57895904D01*
X70863809Y-57800666D01*
X70816190Y-57705428D01*
X70768571Y-57657809D01*
X70673333Y-57610190D01*
X70482857Y-57562571D01*
X70387619Y-57514952D01*
X70340000Y-57467333D01*
X70292380Y-57372095D01*
X70292380Y-57276857D01*
X70340000Y-57181619D01*
X70387619Y-57134000D01*
X70482857Y-57086380D01*
X70720952Y-57086380D01*
X70863809Y-57134000D01*
X71292380Y-58086380D02*
X71292380Y-57086380D01*
X71673333Y-57086380D01*
X71768571Y-57134000D01*
X71816190Y-57181619D01*
X71863809Y-57276857D01*
X71863809Y-57419714D01*
X71816190Y-57514952D01*
X71768571Y-57562571D01*
X71673333Y-57610190D01*
X71292380Y-57610190D01*
X64942666Y-63436380D02*
X65276000Y-64436380D01*
X65609333Y-63436380D01*
X66514095Y-64341142D02*
X66466476Y-64388761D01*
X66323619Y-64436380D01*
X66228380Y-64436380D01*
X66085523Y-64388761D01*
X65990285Y-64293523D01*
X65942666Y-64198285D01*
X65895047Y-64007809D01*
X65895047Y-63864952D01*
X65942666Y-63674476D01*
X65990285Y-63579238D01*
X66085523Y-63484000D01*
X66228380Y-63436380D01*
X66323619Y-63436380D01*
X66466476Y-63484000D01*
X66514095Y-63531619D01*
X67514095Y-64341142D02*
X67466476Y-64388761D01*
X67323619Y-64436380D01*
X67228380Y-64436380D01*
X67085523Y-64388761D01*
X66990285Y-64293523D01*
X66942666Y-64198285D01*
X66895047Y-64007809D01*
X66895047Y-63864952D01*
X66942666Y-63674476D01*
X66990285Y-63579238D01*
X67085523Y-63484000D01*
X67228380Y-63436380D01*
X67323619Y-63436380D01*
X67466476Y-63484000D01*
X67514095Y-63531619D01*
X30222142Y-62682380D02*
X29888809Y-62206190D01*
X29650714Y-62682380D02*
X29650714Y-61682380D01*
X30031666Y-61682380D01*
X30126904Y-61730000D01*
X30174523Y-61777619D01*
X30222142Y-61872857D01*
X30222142Y-62015714D01*
X30174523Y-62110952D01*
X30126904Y-62158571D01*
X30031666Y-62206190D01*
X29650714Y-62206190D01*
X30650714Y-62158571D02*
X30984047Y-62158571D01*
X31126904Y-62682380D02*
X30650714Y-62682380D01*
X30650714Y-61682380D01*
X31126904Y-61682380D01*
X31555476Y-62682380D02*
X31555476Y-61682380D01*
X31793571Y-61682380D01*
X31936428Y-61730000D01*
X32031666Y-61825238D01*
X32079285Y-61920476D01*
X32126904Y-62110952D01*
X32126904Y-62253809D01*
X32079285Y-62444285D01*
X32031666Y-62539523D01*
X31936428Y-62634761D01*
X31793571Y-62682380D01*
X31555476Y-62682380D01*
X65514095Y-59420000D02*
X65418857Y-59372380D01*
X65276000Y-59372380D01*
X65133142Y-59420000D01*
X65037904Y-59515238D01*
X64990285Y-59610476D01*
X64942666Y-59800952D01*
X64942666Y-59943809D01*
X64990285Y-60134285D01*
X65037904Y-60229523D01*
X65133142Y-60324761D01*
X65276000Y-60372380D01*
X65371238Y-60372380D01*
X65514095Y-60324761D01*
X65561714Y-60277142D01*
X65561714Y-59943809D01*
X65371238Y-59943809D01*
X65990285Y-60372380D02*
X65990285Y-59372380D01*
X66561714Y-60372380D01*
X66561714Y-59372380D01*
X67037904Y-60372380D02*
X67037904Y-59372380D01*
X67276000Y-59372380D01*
X67418857Y-59420000D01*
X67514095Y-59515238D01*
X67561714Y-59610476D01*
X67609333Y-59800952D01*
X67609333Y-59943809D01*
X67561714Y-60134285D01*
X67514095Y-60229523D01*
X67418857Y-60324761D01*
X67276000Y-60372380D01*
X67037904Y-60372380D01*
X51347619Y-64751904D02*
X51300000Y-64704285D01*
X51252380Y-64609047D01*
X51252380Y-64370952D01*
X51300000Y-64275714D01*
X51347619Y-64228095D01*
X51442857Y-64180476D01*
X51538095Y-64180476D01*
X51680952Y-64228095D01*
X52252380Y-64799523D01*
X52252380Y-64180476D01*
X51252380Y-63561428D02*
X51252380Y-63466190D01*
X51300000Y-63370952D01*
X51347619Y-63323333D01*
X51442857Y-63275714D01*
X51633333Y-63228095D01*
X51871428Y-63228095D01*
X52061904Y-63275714D01*
X52157142Y-63323333D01*
X52204761Y-63370952D01*
X52252380Y-63466190D01*
X52252380Y-63561428D01*
X52204761Y-63656666D01*
X52157142Y-63704285D01*
X52061904Y-63751904D01*
X51871428Y-63799523D01*
X51633333Y-63799523D01*
X51442857Y-63751904D01*
X51347619Y-63704285D01*
X51300000Y-63656666D01*
X51252380Y-63561428D01*
X52252380Y-62799523D02*
X51252380Y-62799523D01*
X51966666Y-62466190D01*
X51252380Y-62132857D01*
X52252380Y-62132857D01*
X52252380Y-61656666D02*
X51252380Y-61656666D01*
X51728571Y-61656666D02*
X51728571Y-61085238D01*
X52252380Y-61085238D02*
X51252380Y-61085238D01*
X51585714Y-60704285D02*
X51585714Y-60180476D01*
X52252380Y-60704285D01*
X52252380Y-60180476D01*
X87298380Y-62167095D02*
X86298380Y-62167095D01*
X86298380Y-61786142D01*
X86346000Y-61690904D01*
X86393619Y-61643285D01*
X86488857Y-61595666D01*
X86631714Y-61595666D01*
X86726952Y-61643285D01*
X86774571Y-61690904D01*
X86822190Y-61786142D01*
X86822190Y-62167095D01*
X86774571Y-60833761D02*
X86822190Y-60690904D01*
X86869809Y-60643285D01*
X86965047Y-60595666D01*
X87107904Y-60595666D01*
X87203142Y-60643285D01*
X87250761Y-60690904D01*
X87298380Y-60786142D01*
X87298380Y-61167095D01*
X86298380Y-61167095D01*
X86298380Y-60833761D01*
X86346000Y-60738523D01*
X86393619Y-60690904D01*
X86488857Y-60643285D01*
X86584095Y-60643285D01*
X86679333Y-60690904D01*
X86726952Y-60738523D01*
X86774571Y-60833761D01*
X86774571Y-61167095D01*
X86298380Y-59976619D02*
X86298380Y-59881380D01*
X86346000Y-59786142D01*
X86393619Y-59738523D01*
X86488857Y-59690904D01*
X86679333Y-59643285D01*
X86917428Y-59643285D01*
X87107904Y-59690904D01*
X87203142Y-59738523D01*
X87250761Y-59786142D01*
X87298380Y-59881380D01*
X87298380Y-59976619D01*
X87250761Y-60071857D01*
X87203142Y-60119476D01*
X87107904Y-60167095D01*
X86917428Y-60214714D01*
X86679333Y-60214714D01*
X86488857Y-60167095D01*
X86393619Y-60119476D01*
X86346000Y-60071857D01*
X86298380Y-59976619D01*
X64196571Y-62404380D02*
X64196571Y-61404380D01*
X64529904Y-62118666D01*
X64863238Y-61404380D01*
X64863238Y-62404380D01*
X65529904Y-61404380D02*
X65720380Y-61404380D01*
X65815619Y-61452000D01*
X65910857Y-61547238D01*
X65958476Y-61737714D01*
X65958476Y-62071047D01*
X65910857Y-62261523D01*
X65815619Y-62356761D01*
X65720380Y-62404380D01*
X65529904Y-62404380D01*
X65434666Y-62356761D01*
X65339428Y-62261523D01*
X65291809Y-62071047D01*
X65291809Y-61737714D01*
X65339428Y-61547238D01*
X65434666Y-61452000D01*
X65529904Y-61404380D01*
X66339428Y-62356761D02*
X66482285Y-62404380D01*
X66720380Y-62404380D01*
X66815619Y-62356761D01*
X66863238Y-62309142D01*
X66910857Y-62213904D01*
X66910857Y-62118666D01*
X66863238Y-62023428D01*
X66815619Y-61975809D01*
X66720380Y-61928190D01*
X66529904Y-61880571D01*
X66434666Y-61832952D01*
X66387047Y-61785333D01*
X66339428Y-61690095D01*
X66339428Y-61594857D01*
X66387047Y-61499619D01*
X66434666Y-61452000D01*
X66529904Y-61404380D01*
X66768000Y-61404380D01*
X66910857Y-61452000D01*
X67339428Y-62404380D02*
X67339428Y-61404380D01*
X36183333Y-61730000D02*
X36088095Y-61682380D01*
X35945238Y-61682380D01*
X35802380Y-61730000D01*
X35707142Y-61825238D01*
X35659523Y-61920476D01*
X35611904Y-62110952D01*
X35611904Y-62253809D01*
X35659523Y-62444285D01*
X35707142Y-62539523D01*
X35802380Y-62634761D01*
X35945238Y-62682380D01*
X36040476Y-62682380D01*
X36183333Y-62634761D01*
X36230952Y-62587142D01*
X36230952Y-62253809D01*
X36040476Y-62253809D01*
X37230952Y-62682380D02*
X36897619Y-62206190D01*
X36659523Y-62682380D02*
X36659523Y-61682380D01*
X37040476Y-61682380D01*
X37135714Y-61730000D01*
X37183333Y-61777619D01*
X37230952Y-61872857D01*
X37230952Y-62015714D01*
X37183333Y-62110952D01*
X37135714Y-62158571D01*
X37040476Y-62206190D01*
X36659523Y-62206190D01*
X37659523Y-62158571D02*
X37992857Y-62158571D01*
X38135714Y-62682380D02*
X37659523Y-62682380D01*
X37659523Y-61682380D01*
X38135714Y-61682380D01*
X38564285Y-62158571D02*
X38897619Y-62158571D01*
X39040476Y-62682380D02*
X38564285Y-62682380D01*
X38564285Y-61682380D01*
X39040476Y-61682380D01*
X39469047Y-62682380D02*
X39469047Y-61682380D01*
X40040476Y-62682380D01*
X40040476Y-61682380D01*
X83107380Y-62294095D02*
X82107380Y-62294095D01*
X82107380Y-61913142D01*
X82155000Y-61817904D01*
X82202619Y-61770285D01*
X82297857Y-61722666D01*
X82440714Y-61722666D01*
X82535952Y-61770285D01*
X82583571Y-61817904D01*
X82631190Y-61913142D01*
X82631190Y-62294095D01*
X82583571Y-60960761D02*
X82631190Y-60817904D01*
X82678809Y-60770285D01*
X82774047Y-60722666D01*
X82916904Y-60722666D01*
X83012142Y-60770285D01*
X83059761Y-60817904D01*
X83107380Y-60913142D01*
X83107380Y-61294095D01*
X82107380Y-61294095D01*
X82107380Y-60960761D01*
X82155000Y-60865523D01*
X82202619Y-60817904D01*
X82297857Y-60770285D01*
X82393095Y-60770285D01*
X82488333Y-60817904D01*
X82535952Y-60865523D01*
X82583571Y-60960761D01*
X82583571Y-61294095D01*
X82202619Y-60341714D02*
X82155000Y-60294095D01*
X82107380Y-60198857D01*
X82107380Y-59960761D01*
X82155000Y-59865523D01*
X82202619Y-59817904D01*
X82297857Y-59770285D01*
X82393095Y-59770285D01*
X82535952Y-59817904D01*
X83107380Y-60389333D01*
X83107380Y-59770285D01*
X85266380Y-62294095D02*
X84266380Y-62294095D01*
X84266380Y-61913142D01*
X84314000Y-61817904D01*
X84361619Y-61770285D01*
X84456857Y-61722666D01*
X84599714Y-61722666D01*
X84694952Y-61770285D01*
X84742571Y-61817904D01*
X84790190Y-61913142D01*
X84790190Y-62294095D01*
X84742571Y-60960761D02*
X84790190Y-60817904D01*
X84837809Y-60770285D01*
X84933047Y-60722666D01*
X85075904Y-60722666D01*
X85171142Y-60770285D01*
X85218761Y-60817904D01*
X85266380Y-60913142D01*
X85266380Y-61294095D01*
X84266380Y-61294095D01*
X84266380Y-60960761D01*
X84314000Y-60865523D01*
X84361619Y-60817904D01*
X84456857Y-60770285D01*
X84552095Y-60770285D01*
X84647333Y-60817904D01*
X84694952Y-60865523D01*
X84742571Y-60960761D01*
X84742571Y-61294095D01*
X85266380Y-59770285D02*
X85266380Y-60341714D01*
X85266380Y-60056000D02*
X84266380Y-60056000D01*
X84409238Y-60151238D01*
X84504476Y-60246476D01*
X84552095Y-60341714D01*
X81329380Y-62294095D02*
X80329380Y-62294095D01*
X80329380Y-61913142D01*
X80377000Y-61817904D01*
X80424619Y-61770285D01*
X80519857Y-61722666D01*
X80662714Y-61722666D01*
X80757952Y-61770285D01*
X80805571Y-61817904D01*
X80853190Y-61913142D01*
X80853190Y-62294095D01*
X80805571Y-60960761D02*
X80853190Y-60817904D01*
X80900809Y-60770285D01*
X80996047Y-60722666D01*
X81138904Y-60722666D01*
X81234142Y-60770285D01*
X81281761Y-60817904D01*
X81329380Y-60913142D01*
X81329380Y-61294095D01*
X80329380Y-61294095D01*
X80329380Y-60960761D01*
X80377000Y-60865523D01*
X80424619Y-60817904D01*
X80519857Y-60770285D01*
X80615095Y-60770285D01*
X80710333Y-60817904D01*
X80757952Y-60865523D01*
X80805571Y-60960761D01*
X80805571Y-61294095D01*
X80329380Y-60389333D02*
X80329380Y-59770285D01*
X80710333Y-60103619D01*
X80710333Y-59960761D01*
X80757952Y-59865523D01*
X80805571Y-59817904D01*
X80900809Y-59770285D01*
X81138904Y-59770285D01*
X81234142Y-59817904D01*
X81281761Y-59865523D01*
X81329380Y-59960761D01*
X81329380Y-60246476D01*
X81281761Y-60341714D01*
X81234142Y-60389333D01*
X90743333Y-70830000D02*
X90743333Y-71306190D01*
X90457619Y-70734761D02*
X91457619Y-71068095D01*
X90457619Y-71401428D01*
X91457619Y-71591904D02*
X91457619Y-72163333D01*
X90457619Y-71877619D02*
X91457619Y-71877619D01*
X90457619Y-72496666D02*
X91457619Y-72496666D01*
X90743333Y-72830000D01*
X91457619Y-73163333D01*
X90457619Y-73163333D01*
X90981428Y-73639523D02*
X90981428Y-73972857D01*
X90457619Y-74115714D02*
X90457619Y-73639523D01*
X91457619Y-73639523D01*
X91457619Y-74115714D01*
X91410000Y-75068095D02*
X91457619Y-74972857D01*
X91457619Y-74830000D01*
X91410000Y-74687142D01*
X91314761Y-74591904D01*
X91219523Y-74544285D01*
X91029047Y-74496666D01*
X90886190Y-74496666D01*
X90695714Y-74544285D01*
X90600476Y-74591904D01*
X90505238Y-74687142D01*
X90457619Y-74830000D01*
X90457619Y-74925238D01*
X90505238Y-75068095D01*
X90552857Y-75115714D01*
X90886190Y-75115714D01*
X90886190Y-74925238D01*
X90743333Y-75496666D02*
X90743333Y-75972857D01*
X90457619Y-75401428D02*
X91457619Y-75734761D01*
X90457619Y-76068095D01*
X90457619Y-76925238D02*
X90457619Y-76353809D01*
X90457619Y-76639523D02*
X91457619Y-76639523D01*
X91314761Y-76544285D01*
X91219523Y-76449047D01*
X91171904Y-76353809D01*
X91362380Y-77306190D02*
X91410000Y-77353809D01*
X91457619Y-77449047D01*
X91457619Y-77687142D01*
X91410000Y-77782380D01*
X91362380Y-77830000D01*
X91267142Y-77877619D01*
X91171904Y-77877619D01*
X91029047Y-77830000D01*
X90457619Y-77258571D01*
X90457619Y-77877619D01*
X91029047Y-78449047D02*
X91076666Y-78353809D01*
X91124285Y-78306190D01*
X91219523Y-78258571D01*
X91267142Y-78258571D01*
X91362380Y-78306190D01*
X91410000Y-78353809D01*
X91457619Y-78449047D01*
X91457619Y-78639523D01*
X91410000Y-78734761D01*
X91362380Y-78782380D01*
X91267142Y-78830000D01*
X91219523Y-78830000D01*
X91124285Y-78782380D01*
X91076666Y-78734761D01*
X91029047Y-78639523D01*
X91029047Y-78449047D01*
X90981428Y-78353809D01*
X90933809Y-78306190D01*
X90838571Y-78258571D01*
X90648095Y-78258571D01*
X90552857Y-78306190D01*
X90505238Y-78353809D01*
X90457619Y-78449047D01*
X90457619Y-78639523D01*
X90505238Y-78734761D01*
X90552857Y-78782380D01*
X90648095Y-78830000D01*
X90838571Y-78830000D01*
X90933809Y-78782380D01*
X90981428Y-78734761D01*
X91029047Y-78639523D01*
X91124285Y-79687142D02*
X90457619Y-79687142D01*
X91505238Y-79449047D02*
X90790952Y-79210952D01*
X90790952Y-79830000D01*
X90457619Y-80210952D02*
X91457619Y-80210952D01*
X91457619Y-80591904D01*
X91410000Y-80687142D01*
X91362380Y-80734761D01*
X91267142Y-80782380D01*
X91124285Y-80782380D01*
X91029047Y-80734761D01*
X90981428Y-80687142D01*
X90933809Y-80591904D01*
X90933809Y-80210952D01*
X91457619Y-81210952D02*
X90648095Y-81210952D01*
X90552857Y-81258571D01*
X90505238Y-81306190D01*
X90457619Y-81401428D01*
X90457619Y-81591904D01*
X90505238Y-81687142D01*
X90552857Y-81734761D01*
X90648095Y-81782380D01*
X91457619Y-81782380D01*
X73158095Y-59090000D02*
X74158095Y-59090000D01*
X73967619Y-60372380D02*
X73634285Y-59896190D01*
X73396190Y-60372380D02*
X73396190Y-59372380D01*
X73777142Y-59372380D01*
X73872380Y-59420000D01*
X73920000Y-59467619D01*
X73967619Y-59562857D01*
X73967619Y-59705714D01*
X73920000Y-59800952D01*
X73872380Y-59848571D01*
X73777142Y-59896190D01*
X73396190Y-59896190D01*
X74158095Y-59090000D02*
X75062857Y-59090000D01*
X74396190Y-59848571D02*
X74729523Y-59848571D01*
X74872380Y-60372380D02*
X74396190Y-60372380D01*
X74396190Y-59372380D01*
X74872380Y-59372380D01*
X75062857Y-59090000D02*
X76015238Y-59090000D01*
X75253333Y-60324761D02*
X75396190Y-60372380D01*
X75634285Y-60372380D01*
X75729523Y-60324761D01*
X75777142Y-60277142D01*
X75824761Y-60181904D01*
X75824761Y-60086666D01*
X75777142Y-59991428D01*
X75729523Y-59943809D01*
X75634285Y-59896190D01*
X75443809Y-59848571D01*
X75348571Y-59800952D01*
X75300952Y-59753333D01*
X75253333Y-59658095D01*
X75253333Y-59562857D01*
X75300952Y-59467619D01*
X75348571Y-59420000D01*
X75443809Y-59372380D01*
X75681904Y-59372380D01*
X75824761Y-59420000D01*
X76015238Y-59090000D02*
X76920000Y-59090000D01*
X76253333Y-59848571D02*
X76586666Y-59848571D01*
X76729523Y-60372380D02*
X76253333Y-60372380D01*
X76253333Y-59372380D01*
X76729523Y-59372380D01*
X76920000Y-59090000D02*
X77681904Y-59090000D01*
X77015238Y-59372380D02*
X77586666Y-59372380D01*
X77300952Y-60372380D02*
X77300952Y-59372380D01*
X73482380Y-91406666D02*
X72482380Y-91406666D01*
X72482380Y-91025714D01*
X72530000Y-90930476D01*
X72577619Y-90882857D01*
X72672857Y-90835238D01*
X72815714Y-90835238D01*
X72910952Y-90882857D01*
X72958571Y-90930476D01*
X73006190Y-91025714D01*
X73006190Y-91406666D01*
X73196666Y-90454285D02*
X73196666Y-89978095D01*
X73482380Y-90549523D02*
X72482380Y-90216190D01*
X73482380Y-89882857D01*
X72482380Y-89120952D02*
X72482380Y-89311428D01*
X72530000Y-89406666D01*
X72577619Y-89454285D01*
X72720476Y-89549523D01*
X72910952Y-89597142D01*
X73291904Y-89597142D01*
X73387142Y-89549523D01*
X73434761Y-89501904D01*
X73482380Y-89406666D01*
X73482380Y-89216190D01*
X73434761Y-89120952D01*
X73387142Y-89073333D01*
X73291904Y-89025714D01*
X73053809Y-89025714D01*
X72958571Y-89073333D01*
X72910952Y-89120952D01*
X72863333Y-89216190D01*
X72863333Y-89406666D01*
X72910952Y-89501904D01*
X72958571Y-89549523D01*
X73053809Y-89597142D01*
X73118285Y-62356761D02*
X73261142Y-62404380D01*
X73499238Y-62404380D01*
X73594476Y-62356761D01*
X73642095Y-62309142D01*
X73689714Y-62213904D01*
X73689714Y-62118666D01*
X73642095Y-62023428D01*
X73594476Y-61975809D01*
X73499238Y-61928190D01*
X73308761Y-61880571D01*
X73213523Y-61832952D01*
X73165904Y-61785333D01*
X73118285Y-61690095D01*
X73118285Y-61594857D01*
X73165904Y-61499619D01*
X73213523Y-61452000D01*
X73308761Y-61404380D01*
X73546857Y-61404380D01*
X73689714Y-61452000D01*
X74689714Y-62309142D02*
X74642095Y-62356761D01*
X74499238Y-62404380D01*
X74404000Y-62404380D01*
X74261142Y-62356761D01*
X74165904Y-62261523D01*
X74118285Y-62166285D01*
X74070666Y-61975809D01*
X74070666Y-61832952D01*
X74118285Y-61642476D01*
X74165904Y-61547238D01*
X74261142Y-61452000D01*
X74404000Y-61404380D01*
X74499238Y-61404380D01*
X74642095Y-61452000D01*
X74689714Y-61499619D01*
X75118285Y-62404380D02*
X75118285Y-61404380D01*
X75689714Y-62404380D02*
X75261142Y-61832952D01*
X75689714Y-61404380D02*
X75118285Y-61975809D01*
X42890476Y-62158571D02*
X43033333Y-62206190D01*
X43080952Y-62253809D01*
X43128571Y-62349047D01*
X43128571Y-62491904D01*
X43080952Y-62587142D01*
X43033333Y-62634761D01*
X42938095Y-62682380D01*
X42557142Y-62682380D01*
X42557142Y-61682380D01*
X42890476Y-61682380D01*
X42985714Y-61730000D01*
X43033333Y-61777619D01*
X43080952Y-61872857D01*
X43080952Y-61968095D01*
X43033333Y-62063333D01*
X42985714Y-62110952D01*
X42890476Y-62158571D01*
X42557142Y-62158571D01*
X44033333Y-62682380D02*
X43557142Y-62682380D01*
X43557142Y-61682380D01*
X44366666Y-61682380D02*
X44366666Y-62491904D01*
X44414285Y-62587142D01*
X44461904Y-62634761D01*
X44557142Y-62682380D01*
X44747619Y-62682380D01*
X44842857Y-62634761D01*
X44890476Y-62587142D01*
X44938095Y-62491904D01*
X44938095Y-61682380D01*
X45414285Y-62158571D02*
X45747619Y-62158571D01*
X45890476Y-62682380D02*
X45414285Y-62682380D01*
X45414285Y-61682380D01*
X45890476Y-61682380D01*
X73340571Y-64436380D02*
X73340571Y-63436380D01*
X73673904Y-64150666D01*
X74007238Y-63436380D01*
X74007238Y-64436380D01*
X74483428Y-64436380D02*
X74483428Y-63436380D01*
X74912000Y-64388761D02*
X75054857Y-64436380D01*
X75292952Y-64436380D01*
X75388190Y-64388761D01*
X75435809Y-64341142D01*
X75483428Y-64245904D01*
X75483428Y-64150666D01*
X75435809Y-64055428D01*
X75388190Y-64007809D01*
X75292952Y-63960190D01*
X75102476Y-63912571D01*
X75007238Y-63864952D01*
X74959619Y-63817333D01*
X74912000Y-63722095D01*
X74912000Y-63626857D01*
X74959619Y-63531619D01*
X75007238Y-63484000D01*
X75102476Y-63436380D01*
X75340571Y-63436380D01*
X75483428Y-63484000D01*
X76102476Y-63436380D02*
X76292952Y-63436380D01*
X76388190Y-63484000D01*
X76483428Y-63579238D01*
X76531047Y-63769714D01*
X76531047Y-64103047D01*
X76483428Y-64293523D01*
X76388190Y-64388761D01*
X76292952Y-64436380D01*
X76102476Y-64436380D01*
X76007238Y-64388761D01*
X75912000Y-64293523D01*
X75864380Y-64103047D01*
X75864380Y-63769714D01*
X75912000Y-63579238D01*
X76007238Y-63484000D01*
X76102476Y-63436380D01*
%TO.C,K27*%
X135945714Y-137358380D02*
X135945714Y-136358380D01*
X136517142Y-137358380D02*
X136088571Y-136786952D01*
X136517142Y-136358380D02*
X135945714Y-136929809D01*
X136898095Y-136453619D02*
X136945714Y-136406000D01*
X137040952Y-136358380D01*
X137279047Y-136358380D01*
X137374285Y-136406000D01*
X137421904Y-136453619D01*
X137469523Y-136548857D01*
X137469523Y-136644095D01*
X137421904Y-136786952D01*
X136850476Y-137358380D01*
X137469523Y-137358380D01*
X137802857Y-136358380D02*
X138469523Y-136358380D01*
X138040952Y-137358380D01*
%TO.C,K6*%
X41171904Y-118308380D02*
X41171904Y-117308380D01*
X41743333Y-118308380D02*
X41314761Y-117736952D01*
X41743333Y-117308380D02*
X41171904Y-117879809D01*
X42600476Y-117308380D02*
X42410000Y-117308380D01*
X42314761Y-117356000D01*
X42267142Y-117403619D01*
X42171904Y-117546476D01*
X42124285Y-117736952D01*
X42124285Y-118117904D01*
X42171904Y-118213142D01*
X42219523Y-118260761D01*
X42314761Y-118308380D01*
X42505238Y-118308380D01*
X42600476Y-118260761D01*
X42648095Y-118213142D01*
X42695714Y-118117904D01*
X42695714Y-117879809D01*
X42648095Y-117784571D01*
X42600476Y-117736952D01*
X42505238Y-117689333D01*
X42314761Y-117689333D01*
X42219523Y-117736952D01*
X42171904Y-117784571D01*
X42124285Y-117879809D01*
%TO.C,K26*%
X135945714Y-118308380D02*
X135945714Y-117308380D01*
X136517142Y-118308380D02*
X136088571Y-117736952D01*
X136517142Y-117308380D02*
X135945714Y-117879809D01*
X136898095Y-117403619D02*
X136945714Y-117356000D01*
X137040952Y-117308380D01*
X137279047Y-117308380D01*
X137374285Y-117356000D01*
X137421904Y-117403619D01*
X137469523Y-117498857D01*
X137469523Y-117594095D01*
X137421904Y-117736952D01*
X136850476Y-118308380D01*
X137469523Y-118308380D01*
X138326666Y-117308380D02*
X138136190Y-117308380D01*
X138040952Y-117356000D01*
X137993333Y-117403619D01*
X137898095Y-117546476D01*
X137850476Y-117736952D01*
X137850476Y-118117904D01*
X137898095Y-118213142D01*
X137945714Y-118260761D01*
X138040952Y-118308380D01*
X138231428Y-118308380D01*
X138326666Y-118260761D01*
X138374285Y-118213142D01*
X138421904Y-118117904D01*
X138421904Y-117879809D01*
X138374285Y-117784571D01*
X138326666Y-117736952D01*
X138231428Y-117689333D01*
X138040952Y-117689333D01*
X137945714Y-117736952D01*
X137898095Y-117784571D01*
X137850476Y-117879809D01*
%TO.C,K25*%
X135945714Y-99258380D02*
X135945714Y-98258380D01*
X136517142Y-99258380D02*
X136088571Y-98686952D01*
X136517142Y-98258380D02*
X135945714Y-98829809D01*
X136898095Y-98353619D02*
X136945714Y-98306000D01*
X137040952Y-98258380D01*
X137279047Y-98258380D01*
X137374285Y-98306000D01*
X137421904Y-98353619D01*
X137469523Y-98448857D01*
X137469523Y-98544095D01*
X137421904Y-98686952D01*
X136850476Y-99258380D01*
X137469523Y-99258380D01*
X138374285Y-98258380D02*
X137898095Y-98258380D01*
X137850476Y-98734571D01*
X137898095Y-98686952D01*
X137993333Y-98639333D01*
X138231428Y-98639333D01*
X138326666Y-98686952D01*
X138374285Y-98734571D01*
X138421904Y-98829809D01*
X138421904Y-99067904D01*
X138374285Y-99163142D01*
X138326666Y-99210761D01*
X138231428Y-99258380D01*
X137993333Y-99258380D01*
X137898095Y-99210761D01*
X137850476Y-99163142D01*
%TO.C,K44*%
X212145714Y-156408380D02*
X212145714Y-155408380D01*
X212717142Y-156408380D02*
X212288571Y-155836952D01*
X212717142Y-155408380D02*
X212145714Y-155979809D01*
X213574285Y-155741714D02*
X213574285Y-156408380D01*
X213336190Y-155360761D02*
X213098095Y-156075047D01*
X213717142Y-156075047D01*
X214526666Y-155741714D02*
X214526666Y-156408380D01*
X214288571Y-155360761D02*
X214050476Y-156075047D01*
X214669523Y-156075047D01*
%TO.C,K33*%
X174045714Y-99258380D02*
X174045714Y-98258380D01*
X174617142Y-99258380D02*
X174188571Y-98686952D01*
X174617142Y-98258380D02*
X174045714Y-98829809D01*
X174950476Y-98258380D02*
X175569523Y-98258380D01*
X175236190Y-98639333D01*
X175379047Y-98639333D01*
X175474285Y-98686952D01*
X175521904Y-98734571D01*
X175569523Y-98829809D01*
X175569523Y-99067904D01*
X175521904Y-99163142D01*
X175474285Y-99210761D01*
X175379047Y-99258380D01*
X175093333Y-99258380D01*
X174998095Y-99210761D01*
X174950476Y-99163142D01*
X175902857Y-98258380D02*
X176521904Y-98258380D01*
X176188571Y-98639333D01*
X176331428Y-98639333D01*
X176426666Y-98686952D01*
X176474285Y-98734571D01*
X176521904Y-98829809D01*
X176521904Y-99067904D01*
X176474285Y-99163142D01*
X176426666Y-99210761D01*
X176331428Y-99258380D01*
X176045714Y-99258380D01*
X175950476Y-99210761D01*
X175902857Y-99163142D01*
%TO.C,K2*%
X22121904Y-118308380D02*
X22121904Y-117308380D01*
X22693333Y-118308380D02*
X22264761Y-117736952D01*
X22693333Y-117308380D02*
X22121904Y-117879809D01*
X23074285Y-117403619D02*
X23121904Y-117356000D01*
X23217142Y-117308380D01*
X23455238Y-117308380D01*
X23550476Y-117356000D01*
X23598095Y-117403619D01*
X23645714Y-117498857D01*
X23645714Y-117594095D01*
X23598095Y-117736952D01*
X23026666Y-118308380D01*
X23645714Y-118308380D01*
%TO.C,C3*%
X62376190Y-89442380D02*
X62471428Y-89442380D01*
X62566666Y-89490000D01*
X62614285Y-89537619D01*
X62661904Y-89632857D01*
X62709523Y-89823333D01*
X62709523Y-90061428D01*
X62661904Y-90251904D01*
X62614285Y-90347142D01*
X62566666Y-90394761D01*
X62471428Y-90442380D01*
X62376190Y-90442380D01*
X62280952Y-90394761D01*
X62233333Y-90347142D01*
X62185714Y-90251904D01*
X62138095Y-90061428D01*
X62138095Y-89823333D01*
X62185714Y-89632857D01*
X62233333Y-89537619D01*
X62280952Y-89490000D01*
X62376190Y-89442380D01*
X63138095Y-90347142D02*
X63185714Y-90394761D01*
X63138095Y-90442380D01*
X63090476Y-90394761D01*
X63138095Y-90347142D01*
X63138095Y-90442380D01*
X64138095Y-90442380D02*
X63566666Y-90442380D01*
X63852380Y-90442380D02*
X63852380Y-89442380D01*
X63757142Y-89585238D01*
X63661904Y-89680476D01*
X63566666Y-89728095D01*
X65757142Y-89775714D02*
X65757142Y-90442380D01*
X65328571Y-89775714D02*
X65328571Y-90299523D01*
X65376190Y-90394761D01*
X65471428Y-90442380D01*
X65614285Y-90442380D01*
X65709523Y-90394761D01*
X65757142Y-90347142D01*
X66566666Y-89918571D02*
X66233333Y-89918571D01*
X66233333Y-90442380D02*
X66233333Y-89442380D01*
X66709523Y-89442380D01*
%TO.C,K36*%
X174045714Y-156408380D02*
X174045714Y-155408380D01*
X174617142Y-156408380D02*
X174188571Y-155836952D01*
X174617142Y-155408380D02*
X174045714Y-155979809D01*
X174950476Y-155408380D02*
X175569523Y-155408380D01*
X175236190Y-155789333D01*
X175379047Y-155789333D01*
X175474285Y-155836952D01*
X175521904Y-155884571D01*
X175569523Y-155979809D01*
X175569523Y-156217904D01*
X175521904Y-156313142D01*
X175474285Y-156360761D01*
X175379047Y-156408380D01*
X175093333Y-156408380D01*
X174998095Y-156360761D01*
X174950476Y-156313142D01*
X176426666Y-155408380D02*
X176236190Y-155408380D01*
X176140952Y-155456000D01*
X176093333Y-155503619D01*
X175998095Y-155646476D01*
X175950476Y-155836952D01*
X175950476Y-156217904D01*
X175998095Y-156313142D01*
X176045714Y-156360761D01*
X176140952Y-156408380D01*
X176331428Y-156408380D01*
X176426666Y-156360761D01*
X176474285Y-156313142D01*
X176521904Y-156217904D01*
X176521904Y-155979809D01*
X176474285Y-155884571D01*
X176426666Y-155836952D01*
X176331428Y-155789333D01*
X176140952Y-155789333D01*
X176045714Y-155836952D01*
X175998095Y-155884571D01*
X175950476Y-155979809D01*
%TO.C,K8*%
X41171904Y-156408380D02*
X41171904Y-155408380D01*
X41743333Y-156408380D02*
X41314761Y-155836952D01*
X41743333Y-155408380D02*
X41171904Y-155979809D01*
X42314761Y-155836952D02*
X42219523Y-155789333D01*
X42171904Y-155741714D01*
X42124285Y-155646476D01*
X42124285Y-155598857D01*
X42171904Y-155503619D01*
X42219523Y-155456000D01*
X42314761Y-155408380D01*
X42505238Y-155408380D01*
X42600476Y-155456000D01*
X42648095Y-155503619D01*
X42695714Y-155598857D01*
X42695714Y-155646476D01*
X42648095Y-155741714D01*
X42600476Y-155789333D01*
X42505238Y-155836952D01*
X42314761Y-155836952D01*
X42219523Y-155884571D01*
X42171904Y-155932190D01*
X42124285Y-156027428D01*
X42124285Y-156217904D01*
X42171904Y-156313142D01*
X42219523Y-156360761D01*
X42314761Y-156408380D01*
X42505238Y-156408380D01*
X42600476Y-156360761D01*
X42648095Y-156313142D01*
X42695714Y-156217904D01*
X42695714Y-156027428D01*
X42648095Y-155932190D01*
X42600476Y-155884571D01*
X42505238Y-155836952D01*
%TO.C,K12*%
X59745714Y-156408380D02*
X59745714Y-155408380D01*
X60317142Y-156408380D02*
X59888571Y-155836952D01*
X60317142Y-155408380D02*
X59745714Y-155979809D01*
X61269523Y-156408380D02*
X60698095Y-156408380D01*
X60983809Y-156408380D02*
X60983809Y-155408380D01*
X60888571Y-155551238D01*
X60793333Y-155646476D01*
X60698095Y-155694095D01*
X61650476Y-155503619D02*
X61698095Y-155456000D01*
X61793333Y-155408380D01*
X62031428Y-155408380D01*
X62126666Y-155456000D01*
X62174285Y-155503619D01*
X62221904Y-155598857D01*
X62221904Y-155694095D01*
X62174285Y-155836952D01*
X61602857Y-156408380D01*
X62221904Y-156408380D01*
%TO.C,K5*%
X41171904Y-99258380D02*
X41171904Y-98258380D01*
X41743333Y-99258380D02*
X41314761Y-98686952D01*
X41743333Y-98258380D02*
X41171904Y-98829809D01*
X42648095Y-98258380D02*
X42171904Y-98258380D01*
X42124285Y-98734571D01*
X42171904Y-98686952D01*
X42267142Y-98639333D01*
X42505238Y-98639333D01*
X42600476Y-98686952D01*
X42648095Y-98734571D01*
X42695714Y-98829809D01*
X42695714Y-99067904D01*
X42648095Y-99163142D01*
X42600476Y-99210761D01*
X42505238Y-99258380D01*
X42267142Y-99258380D01*
X42171904Y-99210761D01*
X42124285Y-99163142D01*
%TO.C,K14*%
X78795714Y-118308380D02*
X78795714Y-117308380D01*
X79367142Y-118308380D02*
X78938571Y-117736952D01*
X79367142Y-117308380D02*
X78795714Y-117879809D01*
X80319523Y-118308380D02*
X79748095Y-118308380D01*
X80033809Y-118308380D02*
X80033809Y-117308380D01*
X79938571Y-117451238D01*
X79843333Y-117546476D01*
X79748095Y-117594095D01*
X81176666Y-117641714D02*
X81176666Y-118308380D01*
X80938571Y-117260761D02*
X80700476Y-117975047D01*
X81319523Y-117975047D01*
%TO.C,K38*%
X193095714Y-118308380D02*
X193095714Y-117308380D01*
X193667142Y-118308380D02*
X193238571Y-117736952D01*
X193667142Y-117308380D02*
X193095714Y-117879809D01*
X194000476Y-117308380D02*
X194619523Y-117308380D01*
X194286190Y-117689333D01*
X194429047Y-117689333D01*
X194524285Y-117736952D01*
X194571904Y-117784571D01*
X194619523Y-117879809D01*
X194619523Y-118117904D01*
X194571904Y-118213142D01*
X194524285Y-118260761D01*
X194429047Y-118308380D01*
X194143333Y-118308380D01*
X194048095Y-118260761D01*
X194000476Y-118213142D01*
X195190952Y-117736952D02*
X195095714Y-117689333D01*
X195048095Y-117641714D01*
X195000476Y-117546476D01*
X195000476Y-117498857D01*
X195048095Y-117403619D01*
X195095714Y-117356000D01*
X195190952Y-117308380D01*
X195381428Y-117308380D01*
X195476666Y-117356000D01*
X195524285Y-117403619D01*
X195571904Y-117498857D01*
X195571904Y-117546476D01*
X195524285Y-117641714D01*
X195476666Y-117689333D01*
X195381428Y-117736952D01*
X195190952Y-117736952D01*
X195095714Y-117784571D01*
X195048095Y-117832190D01*
X195000476Y-117927428D01*
X195000476Y-118117904D01*
X195048095Y-118213142D01*
X195095714Y-118260761D01*
X195190952Y-118308380D01*
X195381428Y-118308380D01*
X195476666Y-118260761D01*
X195524285Y-118213142D01*
X195571904Y-118117904D01*
X195571904Y-117927428D01*
X195524285Y-117832190D01*
X195476666Y-117784571D01*
X195381428Y-117736952D01*
%TO.C,K23*%
X116895714Y-137358380D02*
X116895714Y-136358380D01*
X117467142Y-137358380D02*
X117038571Y-136786952D01*
X117467142Y-136358380D02*
X116895714Y-136929809D01*
X117848095Y-136453619D02*
X117895714Y-136406000D01*
X117990952Y-136358380D01*
X118229047Y-136358380D01*
X118324285Y-136406000D01*
X118371904Y-136453619D01*
X118419523Y-136548857D01*
X118419523Y-136644095D01*
X118371904Y-136786952D01*
X117800476Y-137358380D01*
X118419523Y-137358380D01*
X118752857Y-136358380D02*
X119371904Y-136358380D01*
X119038571Y-136739333D01*
X119181428Y-136739333D01*
X119276666Y-136786952D01*
X119324285Y-136834571D01*
X119371904Y-136929809D01*
X119371904Y-137167904D01*
X119324285Y-137263142D01*
X119276666Y-137310761D01*
X119181428Y-137358380D01*
X118895714Y-137358380D01*
X118800476Y-137310761D01*
X118752857Y-137263142D01*
%TO.C,K16*%
X78795714Y-156408380D02*
X78795714Y-155408380D01*
X79367142Y-156408380D02*
X78938571Y-155836952D01*
X79367142Y-155408380D02*
X78795714Y-155979809D01*
X80319523Y-156408380D02*
X79748095Y-156408380D01*
X80033809Y-156408380D02*
X80033809Y-155408380D01*
X79938571Y-155551238D01*
X79843333Y-155646476D01*
X79748095Y-155694095D01*
X81176666Y-155408380D02*
X80986190Y-155408380D01*
X80890952Y-155456000D01*
X80843333Y-155503619D01*
X80748095Y-155646476D01*
X80700476Y-155836952D01*
X80700476Y-156217904D01*
X80748095Y-156313142D01*
X80795714Y-156360761D01*
X80890952Y-156408380D01*
X81081428Y-156408380D01*
X81176666Y-156360761D01*
X81224285Y-156313142D01*
X81271904Y-156217904D01*
X81271904Y-155979809D01*
X81224285Y-155884571D01*
X81176666Y-155836952D01*
X81081428Y-155789333D01*
X80890952Y-155789333D01*
X80795714Y-155836952D01*
X80748095Y-155884571D01*
X80700476Y-155979809D01*
%TO.C,K10*%
X59745714Y-118308380D02*
X59745714Y-117308380D01*
X60317142Y-118308380D02*
X59888571Y-117736952D01*
X60317142Y-117308380D02*
X59745714Y-117879809D01*
X61269523Y-118308380D02*
X60698095Y-118308380D01*
X60983809Y-118308380D02*
X60983809Y-117308380D01*
X60888571Y-117451238D01*
X60793333Y-117546476D01*
X60698095Y-117594095D01*
X61888571Y-117308380D02*
X61983809Y-117308380D01*
X62079047Y-117356000D01*
X62126666Y-117403619D01*
X62174285Y-117498857D01*
X62221904Y-117689333D01*
X62221904Y-117927428D01*
X62174285Y-118117904D01*
X62126666Y-118213142D01*
X62079047Y-118260761D01*
X61983809Y-118308380D01*
X61888571Y-118308380D01*
X61793333Y-118260761D01*
X61745714Y-118213142D01*
X61698095Y-118117904D01*
X61650476Y-117927428D01*
X61650476Y-117689333D01*
X61698095Y-117498857D01*
X61745714Y-117403619D01*
X61793333Y-117356000D01*
X61888571Y-117308380D01*
%TO.C,K43*%
X212145714Y-137358380D02*
X212145714Y-136358380D01*
X212717142Y-137358380D02*
X212288571Y-136786952D01*
X212717142Y-136358380D02*
X212145714Y-136929809D01*
X213574285Y-136691714D02*
X213574285Y-137358380D01*
X213336190Y-136310761D02*
X213098095Y-137025047D01*
X213717142Y-137025047D01*
X214002857Y-136358380D02*
X214621904Y-136358380D01*
X214288571Y-136739333D01*
X214431428Y-136739333D01*
X214526666Y-136786952D01*
X214574285Y-136834571D01*
X214621904Y-136929809D01*
X214621904Y-137167904D01*
X214574285Y-137263142D01*
X214526666Y-137310761D01*
X214431428Y-137358380D01*
X214145714Y-137358380D01*
X214050476Y-137310761D01*
X214002857Y-137263142D01*
%TO.C,K48*%
X231195714Y-137358380D02*
X231195714Y-136358380D01*
X231767142Y-137358380D02*
X231338571Y-136786952D01*
X231767142Y-136358380D02*
X231195714Y-136929809D01*
X232624285Y-136691714D02*
X232624285Y-137358380D01*
X232386190Y-136310761D02*
X232148095Y-137025047D01*
X232767142Y-137025047D01*
X233290952Y-136786952D02*
X233195714Y-136739333D01*
X233148095Y-136691714D01*
X233100476Y-136596476D01*
X233100476Y-136548857D01*
X233148095Y-136453619D01*
X233195714Y-136406000D01*
X233290952Y-136358380D01*
X233481428Y-136358380D01*
X233576666Y-136406000D01*
X233624285Y-136453619D01*
X233671904Y-136548857D01*
X233671904Y-136596476D01*
X233624285Y-136691714D01*
X233576666Y-136739333D01*
X233481428Y-136786952D01*
X233290952Y-136786952D01*
X233195714Y-136834571D01*
X233148095Y-136882190D01*
X233100476Y-136977428D01*
X233100476Y-137167904D01*
X233148095Y-137263142D01*
X233195714Y-137310761D01*
X233290952Y-137358380D01*
X233481428Y-137358380D01*
X233576666Y-137310761D01*
X233624285Y-137263142D01*
X233671904Y-137167904D01*
X233671904Y-136977428D01*
X233624285Y-136882190D01*
X233576666Y-136834571D01*
X233481428Y-136786952D01*
%TO.C,J4*%
X88231380Y-64691333D02*
X88945666Y-64691333D01*
X89088523Y-64738952D01*
X89183761Y-64834190D01*
X89231380Y-64977047D01*
X89231380Y-65072285D01*
X88564714Y-63786571D02*
X89231380Y-63786571D01*
X88183761Y-64024666D02*
X88898047Y-64262761D01*
X88898047Y-63643714D01*
%TO.C,K13*%
X78795714Y-99258380D02*
X78795714Y-98258380D01*
X79367142Y-99258380D02*
X78938571Y-98686952D01*
X79367142Y-98258380D02*
X78795714Y-98829809D01*
X80319523Y-99258380D02*
X79748095Y-99258380D01*
X80033809Y-99258380D02*
X80033809Y-98258380D01*
X79938571Y-98401238D01*
X79843333Y-98496476D01*
X79748095Y-98544095D01*
X80652857Y-98258380D02*
X81271904Y-98258380D01*
X80938571Y-98639333D01*
X81081428Y-98639333D01*
X81176666Y-98686952D01*
X81224285Y-98734571D01*
X81271904Y-98829809D01*
X81271904Y-99067904D01*
X81224285Y-99163142D01*
X81176666Y-99210761D01*
X81081428Y-99258380D01*
X80795714Y-99258380D01*
X80700476Y-99210761D01*
X80652857Y-99163142D01*
%TO.C,K29*%
X154995714Y-99258380D02*
X154995714Y-98258380D01*
X155567142Y-99258380D02*
X155138571Y-98686952D01*
X155567142Y-98258380D02*
X154995714Y-98829809D01*
X155948095Y-98353619D02*
X155995714Y-98306000D01*
X156090952Y-98258380D01*
X156329047Y-98258380D01*
X156424285Y-98306000D01*
X156471904Y-98353619D01*
X156519523Y-98448857D01*
X156519523Y-98544095D01*
X156471904Y-98686952D01*
X155900476Y-99258380D01*
X156519523Y-99258380D01*
X156995714Y-99258380D02*
X157186190Y-99258380D01*
X157281428Y-99210761D01*
X157329047Y-99163142D01*
X157424285Y-99020285D01*
X157471904Y-98829809D01*
X157471904Y-98448857D01*
X157424285Y-98353619D01*
X157376666Y-98306000D01*
X157281428Y-98258380D01*
X157090952Y-98258380D01*
X156995714Y-98306000D01*
X156948095Y-98353619D01*
X156900476Y-98448857D01*
X156900476Y-98686952D01*
X156948095Y-98782190D01*
X156995714Y-98829809D01*
X157090952Y-98877428D01*
X157281428Y-98877428D01*
X157376666Y-98829809D01*
X157424285Y-98782190D01*
X157471904Y-98686952D01*
%TO.C,K15*%
X78795714Y-137358380D02*
X78795714Y-136358380D01*
X79367142Y-137358380D02*
X78938571Y-136786952D01*
X79367142Y-136358380D02*
X78795714Y-136929809D01*
X80319523Y-137358380D02*
X79748095Y-137358380D01*
X80033809Y-137358380D02*
X80033809Y-136358380D01*
X79938571Y-136501238D01*
X79843333Y-136596476D01*
X79748095Y-136644095D01*
X81224285Y-136358380D02*
X80748095Y-136358380D01*
X80700476Y-136834571D01*
X80748095Y-136786952D01*
X80843333Y-136739333D01*
X81081428Y-136739333D01*
X81176666Y-136786952D01*
X81224285Y-136834571D01*
X81271904Y-136929809D01*
X81271904Y-137167904D01*
X81224285Y-137263142D01*
X81176666Y-137310761D01*
X81081428Y-137358380D01*
X80843333Y-137358380D01*
X80748095Y-137310761D01*
X80700476Y-137263142D01*
%TO.C,K7*%
X41298904Y-137358380D02*
X41298904Y-136358380D01*
X41870333Y-137358380D02*
X41441761Y-136786952D01*
X41870333Y-136358380D02*
X41298904Y-136929809D01*
X42203666Y-136358380D02*
X42870333Y-136358380D01*
X42441761Y-137358380D01*
%TO.C,K47*%
X231195714Y-118308380D02*
X231195714Y-117308380D01*
X231767142Y-118308380D02*
X231338571Y-117736952D01*
X231767142Y-117308380D02*
X231195714Y-117879809D01*
X232624285Y-117641714D02*
X232624285Y-118308380D01*
X232386190Y-117260761D02*
X232148095Y-117975047D01*
X232767142Y-117975047D01*
X233052857Y-117308380D02*
X233719523Y-117308380D01*
X233290952Y-118308380D01*
%TO.C,K28*%
X135945714Y-156408380D02*
X135945714Y-155408380D01*
X136517142Y-156408380D02*
X136088571Y-155836952D01*
X136517142Y-155408380D02*
X135945714Y-155979809D01*
X136898095Y-155503619D02*
X136945714Y-155456000D01*
X137040952Y-155408380D01*
X137279047Y-155408380D01*
X137374285Y-155456000D01*
X137421904Y-155503619D01*
X137469523Y-155598857D01*
X137469523Y-155694095D01*
X137421904Y-155836952D01*
X136850476Y-156408380D01*
X137469523Y-156408380D01*
X138040952Y-155836952D02*
X137945714Y-155789333D01*
X137898095Y-155741714D01*
X137850476Y-155646476D01*
X137850476Y-155598857D01*
X137898095Y-155503619D01*
X137945714Y-155456000D01*
X138040952Y-155408380D01*
X138231428Y-155408380D01*
X138326666Y-155456000D01*
X138374285Y-155503619D01*
X138421904Y-155598857D01*
X138421904Y-155646476D01*
X138374285Y-155741714D01*
X138326666Y-155789333D01*
X138231428Y-155836952D01*
X138040952Y-155836952D01*
X137945714Y-155884571D01*
X137898095Y-155932190D01*
X137850476Y-156027428D01*
X137850476Y-156217904D01*
X137898095Y-156313142D01*
X137945714Y-156360761D01*
X138040952Y-156408380D01*
X138231428Y-156408380D01*
X138326666Y-156360761D01*
X138374285Y-156313142D01*
X138421904Y-156217904D01*
X138421904Y-156027428D01*
X138374285Y-155932190D01*
X138326666Y-155884571D01*
X138231428Y-155836952D01*
%TO.C,K46*%
X231195714Y-99258380D02*
X231195714Y-98258380D01*
X231767142Y-99258380D02*
X231338571Y-98686952D01*
X231767142Y-98258380D02*
X231195714Y-98829809D01*
X232624285Y-98591714D02*
X232624285Y-99258380D01*
X232386190Y-98210761D02*
X232148095Y-98925047D01*
X232767142Y-98925047D01*
X233576666Y-98258380D02*
X233386190Y-98258380D01*
X233290952Y-98306000D01*
X233243333Y-98353619D01*
X233148095Y-98496476D01*
X233100476Y-98686952D01*
X233100476Y-99067904D01*
X233148095Y-99163142D01*
X233195714Y-99210761D01*
X233290952Y-99258380D01*
X233481428Y-99258380D01*
X233576666Y-99210761D01*
X233624285Y-99163142D01*
X233671904Y-99067904D01*
X233671904Y-98829809D01*
X233624285Y-98734571D01*
X233576666Y-98686952D01*
X233481428Y-98639333D01*
X233290952Y-98639333D01*
X233195714Y-98686952D01*
X233148095Y-98734571D01*
X233100476Y-98829809D01*
%TO.C,K9*%
X60221904Y-99258380D02*
X60221904Y-98258380D01*
X60793333Y-99258380D02*
X60364761Y-98686952D01*
X60793333Y-98258380D02*
X60221904Y-98829809D01*
X61269523Y-99258380D02*
X61460000Y-99258380D01*
X61555238Y-99210761D01*
X61602857Y-99163142D01*
X61698095Y-99020285D01*
X61745714Y-98829809D01*
X61745714Y-98448857D01*
X61698095Y-98353619D01*
X61650476Y-98306000D01*
X61555238Y-98258380D01*
X61364761Y-98258380D01*
X61269523Y-98306000D01*
X61221904Y-98353619D01*
X61174285Y-98448857D01*
X61174285Y-98686952D01*
X61221904Y-98782190D01*
X61269523Y-98829809D01*
X61364761Y-98877428D01*
X61555238Y-98877428D01*
X61650476Y-98829809D01*
X61698095Y-98782190D01*
X61745714Y-98686952D01*
%TO.C,K20*%
X97845714Y-156662380D02*
X97845714Y-155662380D01*
X98417142Y-156662380D02*
X97988571Y-156090952D01*
X98417142Y-155662380D02*
X97845714Y-156233809D01*
X98798095Y-155757619D02*
X98845714Y-155710000D01*
X98940952Y-155662380D01*
X99179047Y-155662380D01*
X99274285Y-155710000D01*
X99321904Y-155757619D01*
X99369523Y-155852857D01*
X99369523Y-155948095D01*
X99321904Y-156090952D01*
X98750476Y-156662380D01*
X99369523Y-156662380D01*
X99988571Y-155662380D02*
X100083809Y-155662380D01*
X100179047Y-155710000D01*
X100226666Y-155757619D01*
X100274285Y-155852857D01*
X100321904Y-156043333D01*
X100321904Y-156281428D01*
X100274285Y-156471904D01*
X100226666Y-156567142D01*
X100179047Y-156614761D01*
X100083809Y-156662380D01*
X99988571Y-156662380D01*
X99893333Y-156614761D01*
X99845714Y-156567142D01*
X99798095Y-156471904D01*
X99750476Y-156281428D01*
X99750476Y-156043333D01*
X99798095Y-155852857D01*
X99845714Y-155757619D01*
X99893333Y-155710000D01*
X99988571Y-155662380D01*
%TO.C,K45*%
X231195714Y-156408380D02*
X231195714Y-155408380D01*
X231767142Y-156408380D02*
X231338571Y-155836952D01*
X231767142Y-155408380D02*
X231195714Y-155979809D01*
X232624285Y-155741714D02*
X232624285Y-156408380D01*
X232386190Y-155360761D02*
X232148095Y-156075047D01*
X232767142Y-156075047D01*
X233624285Y-155408380D02*
X233148095Y-155408380D01*
X233100476Y-155884571D01*
X233148095Y-155836952D01*
X233243333Y-155789333D01*
X233481428Y-155789333D01*
X233576666Y-155836952D01*
X233624285Y-155884571D01*
X233671904Y-155979809D01*
X233671904Y-156217904D01*
X233624285Y-156313142D01*
X233576666Y-156360761D01*
X233481428Y-156408380D01*
X233243333Y-156408380D01*
X233148095Y-156360761D01*
X233100476Y-156313142D01*
%TO.C,K17*%
X97845714Y-99512380D02*
X97845714Y-98512380D01*
X98417142Y-99512380D02*
X97988571Y-98940952D01*
X98417142Y-98512380D02*
X97845714Y-99083809D01*
X99369523Y-99512380D02*
X98798095Y-99512380D01*
X99083809Y-99512380D02*
X99083809Y-98512380D01*
X98988571Y-98655238D01*
X98893333Y-98750476D01*
X98798095Y-98798095D01*
X99702857Y-98512380D02*
X100369523Y-98512380D01*
X99940952Y-99512380D01*
%TO.C,K34*%
X174045714Y-118308380D02*
X174045714Y-117308380D01*
X174617142Y-118308380D02*
X174188571Y-117736952D01*
X174617142Y-117308380D02*
X174045714Y-117879809D01*
X174950476Y-117308380D02*
X175569523Y-117308380D01*
X175236190Y-117689333D01*
X175379047Y-117689333D01*
X175474285Y-117736952D01*
X175521904Y-117784571D01*
X175569523Y-117879809D01*
X175569523Y-118117904D01*
X175521904Y-118213142D01*
X175474285Y-118260761D01*
X175379047Y-118308380D01*
X175093333Y-118308380D01*
X174998095Y-118260761D01*
X174950476Y-118213142D01*
X176426666Y-117641714D02*
X176426666Y-118308380D01*
X176188571Y-117260761D02*
X175950476Y-117975047D01*
X176569523Y-117975047D01*
%TO.C,K32*%
X154995714Y-156408380D02*
X154995714Y-155408380D01*
X155567142Y-156408380D02*
X155138571Y-155836952D01*
X155567142Y-155408380D02*
X154995714Y-155979809D01*
X155900476Y-155408380D02*
X156519523Y-155408380D01*
X156186190Y-155789333D01*
X156329047Y-155789333D01*
X156424285Y-155836952D01*
X156471904Y-155884571D01*
X156519523Y-155979809D01*
X156519523Y-156217904D01*
X156471904Y-156313142D01*
X156424285Y-156360761D01*
X156329047Y-156408380D01*
X156043333Y-156408380D01*
X155948095Y-156360761D01*
X155900476Y-156313142D01*
X156900476Y-155503619D02*
X156948095Y-155456000D01*
X157043333Y-155408380D01*
X157281428Y-155408380D01*
X157376666Y-155456000D01*
X157424285Y-155503619D01*
X157471904Y-155598857D01*
X157471904Y-155694095D01*
X157424285Y-155836952D01*
X156852857Y-156408380D01*
X157471904Y-156408380D01*
%TO.C,K40*%
X193095714Y-156408380D02*
X193095714Y-155408380D01*
X193667142Y-156408380D02*
X193238571Y-155836952D01*
X193667142Y-155408380D02*
X193095714Y-155979809D01*
X194524285Y-155741714D02*
X194524285Y-156408380D01*
X194286190Y-155360761D02*
X194048095Y-156075047D01*
X194667142Y-156075047D01*
X195238571Y-155408380D02*
X195333809Y-155408380D01*
X195429047Y-155456000D01*
X195476666Y-155503619D01*
X195524285Y-155598857D01*
X195571904Y-155789333D01*
X195571904Y-156027428D01*
X195524285Y-156217904D01*
X195476666Y-156313142D01*
X195429047Y-156360761D01*
X195333809Y-156408380D01*
X195238571Y-156408380D01*
X195143333Y-156360761D01*
X195095714Y-156313142D01*
X195048095Y-156217904D01*
X195000476Y-156027428D01*
X195000476Y-155789333D01*
X195048095Y-155598857D01*
X195095714Y-155503619D01*
X195143333Y-155456000D01*
X195238571Y-155408380D01*
%TO.C,K31*%
X154995714Y-137358380D02*
X154995714Y-136358380D01*
X155567142Y-137358380D02*
X155138571Y-136786952D01*
X155567142Y-136358380D02*
X154995714Y-136929809D01*
X155900476Y-136358380D02*
X156519523Y-136358380D01*
X156186190Y-136739333D01*
X156329047Y-136739333D01*
X156424285Y-136786952D01*
X156471904Y-136834571D01*
X156519523Y-136929809D01*
X156519523Y-137167904D01*
X156471904Y-137263142D01*
X156424285Y-137310761D01*
X156329047Y-137358380D01*
X156043333Y-137358380D01*
X155948095Y-137310761D01*
X155900476Y-137263142D01*
X157471904Y-137358380D02*
X156900476Y-137358380D01*
X157186190Y-137358380D02*
X157186190Y-136358380D01*
X157090952Y-136501238D01*
X156995714Y-136596476D01*
X156900476Y-136644095D01*
%TO.C,K18*%
X97845714Y-118562380D02*
X97845714Y-117562380D01*
X98417142Y-118562380D02*
X97988571Y-117990952D01*
X98417142Y-117562380D02*
X97845714Y-118133809D01*
X99369523Y-118562380D02*
X98798095Y-118562380D01*
X99083809Y-118562380D02*
X99083809Y-117562380D01*
X98988571Y-117705238D01*
X98893333Y-117800476D01*
X98798095Y-117848095D01*
X99940952Y-117990952D02*
X99845714Y-117943333D01*
X99798095Y-117895714D01*
X99750476Y-117800476D01*
X99750476Y-117752857D01*
X99798095Y-117657619D01*
X99845714Y-117610000D01*
X99940952Y-117562380D01*
X100131428Y-117562380D01*
X100226666Y-117610000D01*
X100274285Y-117657619D01*
X100321904Y-117752857D01*
X100321904Y-117800476D01*
X100274285Y-117895714D01*
X100226666Y-117943333D01*
X100131428Y-117990952D01*
X99940952Y-117990952D01*
X99845714Y-118038571D01*
X99798095Y-118086190D01*
X99750476Y-118181428D01*
X99750476Y-118371904D01*
X99798095Y-118467142D01*
X99845714Y-118514761D01*
X99940952Y-118562380D01*
X100131428Y-118562380D01*
X100226666Y-118514761D01*
X100274285Y-118467142D01*
X100321904Y-118371904D01*
X100321904Y-118181428D01*
X100274285Y-118086190D01*
X100226666Y-118038571D01*
X100131428Y-117990952D01*
%TO.C,K41*%
X212145714Y-99258380D02*
X212145714Y-98258380D01*
X212717142Y-99258380D02*
X212288571Y-98686952D01*
X212717142Y-98258380D02*
X212145714Y-98829809D01*
X213574285Y-98591714D02*
X213574285Y-99258380D01*
X213336190Y-98210761D02*
X213098095Y-98925047D01*
X213717142Y-98925047D01*
X214621904Y-99258380D02*
X214050476Y-99258380D01*
X214336190Y-99258380D02*
X214336190Y-98258380D01*
X214240952Y-98401238D01*
X214145714Y-98496476D01*
X214050476Y-98544095D01*
%TO.C,K39*%
X193095714Y-137358380D02*
X193095714Y-136358380D01*
X193667142Y-137358380D02*
X193238571Y-136786952D01*
X193667142Y-136358380D02*
X193095714Y-136929809D01*
X194000476Y-136358380D02*
X194619523Y-136358380D01*
X194286190Y-136739333D01*
X194429047Y-136739333D01*
X194524285Y-136786952D01*
X194571904Y-136834571D01*
X194619523Y-136929809D01*
X194619523Y-137167904D01*
X194571904Y-137263142D01*
X194524285Y-137310761D01*
X194429047Y-137358380D01*
X194143333Y-137358380D01*
X194048095Y-137310761D01*
X194000476Y-137263142D01*
X195095714Y-137358380D02*
X195286190Y-137358380D01*
X195381428Y-137310761D01*
X195429047Y-137263142D01*
X195524285Y-137120285D01*
X195571904Y-136929809D01*
X195571904Y-136548857D01*
X195524285Y-136453619D01*
X195476666Y-136406000D01*
X195381428Y-136358380D01*
X195190952Y-136358380D01*
X195095714Y-136406000D01*
X195048095Y-136453619D01*
X195000476Y-136548857D01*
X195000476Y-136786952D01*
X195048095Y-136882190D01*
X195095714Y-136929809D01*
X195190952Y-136977428D01*
X195381428Y-136977428D01*
X195476666Y-136929809D01*
X195524285Y-136882190D01*
X195571904Y-136786952D01*
%TO.C,K21*%
X116895714Y-99258380D02*
X116895714Y-98258380D01*
X117467142Y-99258380D02*
X117038571Y-98686952D01*
X117467142Y-98258380D02*
X116895714Y-98829809D01*
X117848095Y-98353619D02*
X117895714Y-98306000D01*
X117990952Y-98258380D01*
X118229047Y-98258380D01*
X118324285Y-98306000D01*
X118371904Y-98353619D01*
X118419523Y-98448857D01*
X118419523Y-98544095D01*
X118371904Y-98686952D01*
X117800476Y-99258380D01*
X118419523Y-99258380D01*
X119371904Y-99258380D02*
X118800476Y-99258380D01*
X119086190Y-99258380D02*
X119086190Y-98258380D01*
X118990952Y-98401238D01*
X118895714Y-98496476D01*
X118800476Y-98544095D01*
%TO.C,C2*%
X59107380Y-55201428D02*
X59107380Y-55772857D01*
X59107380Y-55487142D02*
X58107380Y-55487142D01*
X58250238Y-55582380D01*
X58345476Y-55677619D01*
X58393095Y-55772857D01*
X58535952Y-54630000D02*
X58488333Y-54725238D01*
X58440714Y-54772857D01*
X58345476Y-54820476D01*
X58297857Y-54820476D01*
X58202619Y-54772857D01*
X58155000Y-54725238D01*
X58107380Y-54630000D01*
X58107380Y-54439523D01*
X58155000Y-54344285D01*
X58202619Y-54296666D01*
X58297857Y-54249047D01*
X58345476Y-54249047D01*
X58440714Y-54296666D01*
X58488333Y-54344285D01*
X58535952Y-54439523D01*
X58535952Y-54630000D01*
X58583571Y-54725238D01*
X58631190Y-54772857D01*
X58726428Y-54820476D01*
X58916904Y-54820476D01*
X59012142Y-54772857D01*
X59059761Y-54725238D01*
X59107380Y-54630000D01*
X59107380Y-54439523D01*
X59059761Y-54344285D01*
X59012142Y-54296666D01*
X58916904Y-54249047D01*
X58726428Y-54249047D01*
X58631190Y-54296666D01*
X58583571Y-54344285D01*
X58535952Y-54439523D01*
X58440714Y-53820476D02*
X59440714Y-53820476D01*
X58488333Y-53820476D02*
X58440714Y-53725238D01*
X58440714Y-53534761D01*
X58488333Y-53439523D01*
X58535952Y-53391904D01*
X58631190Y-53344285D01*
X58916904Y-53344285D01*
X59012142Y-53391904D01*
X59059761Y-53439523D01*
X59107380Y-53534761D01*
X59107380Y-53725238D01*
X59059761Y-53820476D01*
X58583571Y-52582380D02*
X58583571Y-52915714D01*
X59107380Y-52915714D02*
X58107380Y-52915714D01*
X58107380Y-52439523D01*
%TO.C,K37*%
X193095714Y-99258380D02*
X193095714Y-98258380D01*
X193667142Y-99258380D02*
X193238571Y-98686952D01*
X193667142Y-98258380D02*
X193095714Y-98829809D01*
X194000476Y-98258380D02*
X194619523Y-98258380D01*
X194286190Y-98639333D01*
X194429047Y-98639333D01*
X194524285Y-98686952D01*
X194571904Y-98734571D01*
X194619523Y-98829809D01*
X194619523Y-99067904D01*
X194571904Y-99163142D01*
X194524285Y-99210761D01*
X194429047Y-99258380D01*
X194143333Y-99258380D01*
X194048095Y-99210761D01*
X194000476Y-99163142D01*
X194952857Y-98258380D02*
X195619523Y-98258380D01*
X195190952Y-99258380D01*
%TO.C,K3*%
X22121904Y-137358380D02*
X22121904Y-136358380D01*
X22693333Y-137358380D02*
X22264761Y-136786952D01*
X22693333Y-136358380D02*
X22121904Y-136929809D01*
X23026666Y-136358380D02*
X23645714Y-136358380D01*
X23312380Y-136739333D01*
X23455238Y-136739333D01*
X23550476Y-136786952D01*
X23598095Y-136834571D01*
X23645714Y-136929809D01*
X23645714Y-137167904D01*
X23598095Y-137263142D01*
X23550476Y-137310761D01*
X23455238Y-137358380D01*
X23169523Y-137358380D01*
X23074285Y-137310761D01*
X23026666Y-137263142D01*
%TO.C,K24*%
X116895714Y-156408380D02*
X116895714Y-155408380D01*
X117467142Y-156408380D02*
X117038571Y-155836952D01*
X117467142Y-155408380D02*
X116895714Y-155979809D01*
X117848095Y-155503619D02*
X117895714Y-155456000D01*
X117990952Y-155408380D01*
X118229047Y-155408380D01*
X118324285Y-155456000D01*
X118371904Y-155503619D01*
X118419523Y-155598857D01*
X118419523Y-155694095D01*
X118371904Y-155836952D01*
X117800476Y-156408380D01*
X118419523Y-156408380D01*
X119276666Y-155741714D02*
X119276666Y-156408380D01*
X119038571Y-155360761D02*
X118800476Y-156075047D01*
X119419523Y-156075047D01*
%TO.C,C1*%
X54262380Y-55261428D02*
X54262380Y-55832857D01*
X54262380Y-55547142D02*
X53262380Y-55547142D01*
X53405238Y-55642380D01*
X53500476Y-55737619D01*
X53548095Y-55832857D01*
X53690952Y-54690000D02*
X53643333Y-54785238D01*
X53595714Y-54832857D01*
X53500476Y-54880476D01*
X53452857Y-54880476D01*
X53357619Y-54832857D01*
X53310000Y-54785238D01*
X53262380Y-54690000D01*
X53262380Y-54499523D01*
X53310000Y-54404285D01*
X53357619Y-54356666D01*
X53452857Y-54309047D01*
X53500476Y-54309047D01*
X53595714Y-54356666D01*
X53643333Y-54404285D01*
X53690952Y-54499523D01*
X53690952Y-54690000D01*
X53738571Y-54785238D01*
X53786190Y-54832857D01*
X53881428Y-54880476D01*
X54071904Y-54880476D01*
X54167142Y-54832857D01*
X54214761Y-54785238D01*
X54262380Y-54690000D01*
X54262380Y-54499523D01*
X54214761Y-54404285D01*
X54167142Y-54356666D01*
X54071904Y-54309047D01*
X53881428Y-54309047D01*
X53786190Y-54356666D01*
X53738571Y-54404285D01*
X53690952Y-54499523D01*
X53595714Y-53880476D02*
X54595714Y-53880476D01*
X53643333Y-53880476D02*
X53595714Y-53785238D01*
X53595714Y-53594761D01*
X53643333Y-53499523D01*
X53690952Y-53451904D01*
X53786190Y-53404285D01*
X54071904Y-53404285D01*
X54167142Y-53451904D01*
X54214761Y-53499523D01*
X54262380Y-53594761D01*
X54262380Y-53785238D01*
X54214761Y-53880476D01*
X53738571Y-52642380D02*
X53738571Y-52975714D01*
X54262380Y-52975714D02*
X53262380Y-52975714D01*
X53262380Y-52499523D01*
%TO.C,K1*%
X22121904Y-99258380D02*
X22121904Y-98258380D01*
X22693333Y-99258380D02*
X22264761Y-98686952D01*
X22693333Y-98258380D02*
X22121904Y-98829809D01*
X23645714Y-99258380D02*
X23074285Y-99258380D01*
X23360000Y-99258380D02*
X23360000Y-98258380D01*
X23264761Y-98401238D01*
X23169523Y-98496476D01*
X23074285Y-98544095D01*
%TO.C,K42*%
X212145714Y-118308380D02*
X212145714Y-117308380D01*
X212717142Y-118308380D02*
X212288571Y-117736952D01*
X212717142Y-117308380D02*
X212145714Y-117879809D01*
X213574285Y-117641714D02*
X213574285Y-118308380D01*
X213336190Y-117260761D02*
X213098095Y-117975047D01*
X213717142Y-117975047D01*
X214050476Y-117403619D02*
X214098095Y-117356000D01*
X214193333Y-117308380D01*
X214431428Y-117308380D01*
X214526666Y-117356000D01*
X214574285Y-117403619D01*
X214621904Y-117498857D01*
X214621904Y-117594095D01*
X214574285Y-117736952D01*
X214002857Y-118308380D01*
X214621904Y-118308380D01*
%TO.C,K19*%
X97845714Y-137612380D02*
X97845714Y-136612380D01*
X98417142Y-137612380D02*
X97988571Y-137040952D01*
X98417142Y-136612380D02*
X97845714Y-137183809D01*
X99369523Y-137612380D02*
X98798095Y-137612380D01*
X99083809Y-137612380D02*
X99083809Y-136612380D01*
X98988571Y-136755238D01*
X98893333Y-136850476D01*
X98798095Y-136898095D01*
X99845714Y-137612380D02*
X100036190Y-137612380D01*
X100131428Y-137564761D01*
X100179047Y-137517142D01*
X100274285Y-137374285D01*
X100321904Y-137183809D01*
X100321904Y-136802857D01*
X100274285Y-136707619D01*
X100226666Y-136660000D01*
X100131428Y-136612380D01*
X99940952Y-136612380D01*
X99845714Y-136660000D01*
X99798095Y-136707619D01*
X99750476Y-136802857D01*
X99750476Y-137040952D01*
X99798095Y-137136190D01*
X99845714Y-137183809D01*
X99940952Y-137231428D01*
X100131428Y-137231428D01*
X100226666Y-137183809D01*
X100274285Y-137136190D01*
X100321904Y-137040952D01*
%TO.C,K35*%
X174045714Y-137358380D02*
X174045714Y-136358380D01*
X174617142Y-137358380D02*
X174188571Y-136786952D01*
X174617142Y-136358380D02*
X174045714Y-136929809D01*
X174950476Y-136358380D02*
X175569523Y-136358380D01*
X175236190Y-136739333D01*
X175379047Y-136739333D01*
X175474285Y-136786952D01*
X175521904Y-136834571D01*
X175569523Y-136929809D01*
X175569523Y-137167904D01*
X175521904Y-137263142D01*
X175474285Y-137310761D01*
X175379047Y-137358380D01*
X175093333Y-137358380D01*
X174998095Y-137310761D01*
X174950476Y-137263142D01*
X176474285Y-136358380D02*
X175998095Y-136358380D01*
X175950476Y-136834571D01*
X175998095Y-136786952D01*
X176093333Y-136739333D01*
X176331428Y-136739333D01*
X176426666Y-136786952D01*
X176474285Y-136834571D01*
X176521904Y-136929809D01*
X176521904Y-137167904D01*
X176474285Y-137263142D01*
X176426666Y-137310761D01*
X176331428Y-137358380D01*
X176093333Y-137358380D01*
X175998095Y-137310761D01*
X175950476Y-137263142D01*
%TO.C,K11*%
X59745714Y-137358380D02*
X59745714Y-136358380D01*
X60317142Y-137358380D02*
X59888571Y-136786952D01*
X60317142Y-136358380D02*
X59745714Y-136929809D01*
X61269523Y-137358380D02*
X60698095Y-137358380D01*
X60983809Y-137358380D02*
X60983809Y-136358380D01*
X60888571Y-136501238D01*
X60793333Y-136596476D01*
X60698095Y-136644095D01*
X62221904Y-137358380D02*
X61650476Y-137358380D01*
X61936190Y-137358380D02*
X61936190Y-136358380D01*
X61840952Y-136501238D01*
X61745714Y-136596476D01*
X61650476Y-136644095D01*
%TO.C,K22*%
X116895714Y-118308380D02*
X116895714Y-117308380D01*
X117467142Y-118308380D02*
X117038571Y-117736952D01*
X117467142Y-117308380D02*
X116895714Y-117879809D01*
X117848095Y-117403619D02*
X117895714Y-117356000D01*
X117990952Y-117308380D01*
X118229047Y-117308380D01*
X118324285Y-117356000D01*
X118371904Y-117403619D01*
X118419523Y-117498857D01*
X118419523Y-117594095D01*
X118371904Y-117736952D01*
X117800476Y-118308380D01*
X118419523Y-118308380D01*
X118800476Y-117403619D02*
X118848095Y-117356000D01*
X118943333Y-117308380D01*
X119181428Y-117308380D01*
X119276666Y-117356000D01*
X119324285Y-117403619D01*
X119371904Y-117498857D01*
X119371904Y-117594095D01*
X119324285Y-117736952D01*
X118752857Y-118308380D01*
X119371904Y-118308380D01*
%TO.C,K4*%
X22121904Y-156408380D02*
X22121904Y-155408380D01*
X22693333Y-156408380D02*
X22264761Y-155836952D01*
X22693333Y-155408380D02*
X22121904Y-155979809D01*
X23550476Y-155741714D02*
X23550476Y-156408380D01*
X23312380Y-155360761D02*
X23074285Y-156075047D01*
X23693333Y-156075047D01*
%TO.C,K30*%
X154995714Y-118308380D02*
X154995714Y-117308380D01*
X155567142Y-118308380D02*
X155138571Y-117736952D01*
X155567142Y-117308380D02*
X154995714Y-117879809D01*
X155900476Y-117308380D02*
X156519523Y-117308380D01*
X156186190Y-117689333D01*
X156329047Y-117689333D01*
X156424285Y-117736952D01*
X156471904Y-117784571D01*
X156519523Y-117879809D01*
X156519523Y-118117904D01*
X156471904Y-118213142D01*
X156424285Y-118260761D01*
X156329047Y-118308380D01*
X156043333Y-118308380D01*
X155948095Y-118260761D01*
X155900476Y-118213142D01*
X157138571Y-117308380D02*
X157233809Y-117308380D01*
X157329047Y-117356000D01*
X157376666Y-117403619D01*
X157424285Y-117498857D01*
X157471904Y-117689333D01*
X157471904Y-117927428D01*
X157424285Y-118117904D01*
X157376666Y-118213142D01*
X157329047Y-118260761D01*
X157233809Y-118308380D01*
X157138571Y-118308380D01*
X157043333Y-118260761D01*
X156995714Y-118213142D01*
X156948095Y-118117904D01*
X156900476Y-117927428D01*
X156900476Y-117689333D01*
X156948095Y-117498857D01*
X156995714Y-117403619D01*
X157043333Y-117356000D01*
X157138571Y-117308380D01*
D11*
%TO.C,J5*%
X22770000Y-69550000D02*
X22770000Y-68500000D01*
X21720000Y-68500000D02*
X22770000Y-68500000D01*
X16670000Y-77900000D02*
X7870000Y-77900000D01*
X7870000Y-77900000D02*
X7870000Y-68700000D01*
X22570000Y-75200000D02*
X22570000Y-77900000D01*
X22570000Y-77900000D02*
X20670000Y-77900000D01*
X7870000Y-68700000D02*
X22570000Y-68700000D01*
X22570000Y-68700000D02*
X22570000Y-71300000D01*
%TO.C,C6*%
X23650000Y-85060000D02*
X23650000Y-82220000D01*
X23650000Y-82220000D02*
X19610000Y-82220000D01*
X19610000Y-82220000D02*
X19610000Y-85060000D01*
X19610000Y-85060000D02*
X23650000Y-85060000D01*
X24340000Y-83640000D02*
X23650000Y-83640000D01*
X18920000Y-83640000D02*
X19610000Y-83640000D01*
%TO.C,C5*%
X17280000Y-56060000D02*
X17280000Y-56750000D01*
X17280000Y-61480000D02*
X17280000Y-60790000D01*
X15860000Y-56750000D02*
X15860000Y-60790000D01*
X18700000Y-56750000D02*
X15860000Y-56750000D01*
X18700000Y-60790000D02*
X18700000Y-56750000D01*
X15860000Y-60790000D02*
X18700000Y-60790000D01*
%TO.C,C4*%
X79740000Y-54840000D02*
X82580000Y-54840000D01*
X82580000Y-54840000D02*
X82580000Y-50800000D01*
X82580000Y-50800000D02*
X79740000Y-50800000D01*
X79740000Y-50800000D02*
X79740000Y-54840000D01*
X81160000Y-55530000D02*
X81160000Y-54840000D01*
X81160000Y-50110000D02*
X81160000Y-50800000D01*
%TO.C,J2*%
X72453000Y-59066000D02*
X68333000Y-59066000D01*
X72453000Y-63126000D02*
X72453000Y-59066000D01*
X68333000Y-65186000D02*
X68333000Y-59066000D01*
X72453000Y-63126000D02*
X70393000Y-63126000D01*
X70393000Y-63126000D02*
X70393000Y-65186000D01*
X70393000Y-65186000D02*
X68333000Y-65186000D01*
X72453000Y-64126000D02*
X72453000Y-65186000D01*
X72453000Y-65186000D02*
X71393000Y-65186000D01*
%TO.C,K27*%
X130175000Y-151765000D02*
X130175000Y-137795000D01*
X144145000Y-137795000D02*
X144145000Y-151765000D01*
X144145000Y-151765000D02*
X130175000Y-151765000D01*
X130175000Y-137795000D02*
X144145000Y-137795000D01*
%TO.C,K6*%
X34925000Y-132715000D02*
X34925000Y-118745000D01*
X48895000Y-118745000D02*
X48895000Y-132715000D01*
X34925000Y-118745000D02*
X48895000Y-118745000D01*
X48895000Y-132715000D02*
X34925000Y-132715000D01*
%TO.C,K26*%
X130175000Y-118745000D02*
X144145000Y-118745000D01*
X130175000Y-132715000D02*
X130175000Y-118745000D01*
X144145000Y-118745000D02*
X144145000Y-132715000D01*
X144145000Y-132715000D02*
X130175000Y-132715000D01*
%TO.C,K25*%
X144145000Y-113665000D02*
X130175000Y-113665000D01*
X130175000Y-99695000D02*
X144145000Y-99695000D01*
X130175000Y-113665000D02*
X130175000Y-99695000D01*
X144145000Y-99695000D02*
X144145000Y-113665000D01*
%TO.C,U1*%
X38335000Y-67375000D02*
X38335000Y-85275000D01*
X38395000Y-69865000D02*
X38395000Y-82785000D01*
X89315000Y-82785000D02*
X89315000Y-77325000D01*
X38335000Y-85275000D02*
X89375000Y-85275000D01*
X89375000Y-85275000D02*
X89375000Y-67375000D01*
X89315000Y-69865000D02*
X38395000Y-69865000D01*
X89315000Y-75325000D02*
X89315000Y-69865000D01*
X89375000Y-67375000D02*
X38335000Y-67375000D01*
X38395000Y-82785000D02*
X89315000Y-82785000D01*
X89315000Y-75325000D02*
G75*
G03*
X89315000Y-77325000I0J-1000000D01*
G01*
%TO.C,K44*%
X206375000Y-156845000D02*
X220345000Y-156845000D01*
X206375000Y-170815000D02*
X206375000Y-156845000D01*
X220345000Y-170815000D02*
X206375000Y-170815000D01*
X220345000Y-156845000D02*
X220345000Y-170815000D01*
%TO.C,K33*%
X168275000Y-113665000D02*
X168275000Y-99695000D01*
X182245000Y-113665000D02*
X168275000Y-113665000D01*
X182245000Y-99695000D02*
X182245000Y-113665000D01*
X168275000Y-99695000D02*
X182245000Y-99695000D01*
%TO.C,K2*%
X29845000Y-118745000D02*
X29845000Y-132715000D01*
X29845000Y-132715000D02*
X15875000Y-132715000D01*
X15875000Y-118745000D02*
X29845000Y-118745000D01*
X15875000Y-132715000D02*
X15875000Y-118745000D01*
%TO.C,C3*%
X61690000Y-87570000D02*
X62380000Y-87570000D01*
X62380000Y-86150000D02*
X62380000Y-88990000D01*
X66420000Y-86150000D02*
X62380000Y-86150000D01*
X67110000Y-87570000D02*
X66420000Y-87570000D01*
X66420000Y-88990000D02*
X66420000Y-86150000D01*
X62380000Y-88990000D02*
X66420000Y-88990000D01*
%TO.C,K36*%
X168275000Y-170815000D02*
X168275000Y-156845000D01*
X182245000Y-170815000D02*
X168275000Y-170815000D01*
X182245000Y-156845000D02*
X182245000Y-170815000D01*
X168275000Y-156845000D02*
X182245000Y-156845000D01*
%TO.C,K8*%
X48895000Y-170815000D02*
X34925000Y-170815000D01*
X34925000Y-156845000D02*
X48895000Y-156845000D01*
X48895000Y-156845000D02*
X48895000Y-170815000D01*
X34925000Y-170815000D02*
X34925000Y-156845000D01*
%TO.C,K12*%
X67945000Y-170815000D02*
X53975000Y-170815000D01*
X67945000Y-156845000D02*
X67945000Y-170815000D01*
X53975000Y-170815000D02*
X53975000Y-156845000D01*
X53975000Y-156845000D02*
X67945000Y-156845000D01*
%TO.C,K5*%
X34925000Y-99695000D02*
X48895000Y-99695000D01*
X48895000Y-99695000D02*
X48895000Y-113665000D01*
X48895000Y-113665000D02*
X34925000Y-113665000D01*
X34925000Y-113665000D02*
X34925000Y-99695000D01*
%TO.C,K14*%
X86995000Y-118745000D02*
X86995000Y-132715000D01*
X73025000Y-132715000D02*
X73025000Y-118745000D01*
X73025000Y-118745000D02*
X86995000Y-118745000D01*
X86995000Y-132715000D02*
X73025000Y-132715000D01*
%TO.C,K38*%
X187325000Y-118745000D02*
X201295000Y-118745000D01*
X201295000Y-118745000D02*
X201295000Y-132715000D01*
X201295000Y-132715000D02*
X187325000Y-132715000D01*
X187325000Y-132715000D02*
X187325000Y-118745000D01*
%TO.C,K23*%
X111125000Y-137795000D02*
X125095000Y-137795000D01*
X111125000Y-151765000D02*
X111125000Y-137795000D01*
X125095000Y-151765000D02*
X111125000Y-151765000D01*
X125095000Y-137795000D02*
X125095000Y-151765000D01*
%TO.C,K16*%
X73025000Y-156845000D02*
X86995000Y-156845000D01*
X86995000Y-156845000D02*
X86995000Y-170815000D01*
X86995000Y-170815000D02*
X73025000Y-170815000D01*
X73025000Y-170815000D02*
X73025000Y-156845000D01*
%TO.C,K10*%
X53975000Y-118745000D02*
X67945000Y-118745000D01*
X53975000Y-132715000D02*
X53975000Y-118745000D01*
X67945000Y-132715000D02*
X53975000Y-132715000D01*
X67945000Y-118745000D02*
X67945000Y-132715000D01*
%TO.C,K43*%
X206375000Y-137795000D02*
X220345000Y-137795000D01*
X206375000Y-151765000D02*
X206375000Y-137795000D01*
X220345000Y-151765000D02*
X206375000Y-151765000D01*
X220345000Y-137795000D02*
X220345000Y-151765000D01*
%TO.C,K48*%
X239395000Y-137795000D02*
X239395000Y-151765000D01*
X239395000Y-151765000D02*
X225425000Y-151765000D01*
X225425000Y-151765000D02*
X225425000Y-137795000D01*
X225425000Y-137795000D02*
X239395000Y-137795000D01*
%TO.C,J4*%
X86719000Y-63298000D02*
X87779000Y-63298000D01*
X85719000Y-63298000D02*
X79659000Y-63298000D01*
X85719000Y-65418000D02*
X79659000Y-65418000D01*
X79659000Y-63298000D02*
X79659000Y-65418000D01*
X87779000Y-63298000D02*
X87779000Y-64358000D01*
X85719000Y-63298000D02*
X85719000Y-65418000D01*
%TO.C,K13*%
X73025000Y-99695000D02*
X86995000Y-99695000D01*
X73025000Y-113665000D02*
X73025000Y-99695000D01*
X86995000Y-113665000D02*
X73025000Y-113665000D01*
X86995000Y-99695000D02*
X86995000Y-113665000D01*
%TO.C,K29*%
X163195000Y-113665000D02*
X149225000Y-113665000D01*
X149225000Y-113665000D02*
X149225000Y-99695000D01*
X149225000Y-99695000D02*
X163195000Y-99695000D01*
X163195000Y-99695000D02*
X163195000Y-113665000D01*
%TO.C,K15*%
X86995000Y-151765000D02*
X73025000Y-151765000D01*
X73025000Y-151765000D02*
X73025000Y-137795000D01*
X86995000Y-137795000D02*
X86995000Y-151765000D01*
X73025000Y-137795000D02*
X86995000Y-137795000D01*
%TO.C,K7*%
X35052000Y-151765000D02*
X35052000Y-137795000D01*
X35052000Y-137795000D02*
X49022000Y-137795000D01*
X49022000Y-151765000D02*
X35052000Y-151765000D01*
X49022000Y-137795000D02*
X49022000Y-151765000D01*
%TO.C,K47*%
X239395000Y-118745000D02*
X239395000Y-132715000D01*
X225425000Y-118745000D02*
X239395000Y-118745000D01*
X239395000Y-132715000D02*
X225425000Y-132715000D01*
X225425000Y-132715000D02*
X225425000Y-118745000D01*
%TO.C,K28*%
X144145000Y-156845000D02*
X144145000Y-170815000D01*
X130175000Y-156845000D02*
X144145000Y-156845000D01*
X130175000Y-170815000D02*
X130175000Y-156845000D01*
X144145000Y-170815000D02*
X130175000Y-170815000D01*
%TO.C,K46*%
X225425000Y-113665000D02*
X225425000Y-99695000D01*
X239395000Y-113665000D02*
X225425000Y-113665000D01*
X225425000Y-99695000D02*
X239395000Y-99695000D01*
X239395000Y-99695000D02*
X239395000Y-113665000D01*
%TO.C,K9*%
X67945000Y-99695000D02*
X67945000Y-113665000D01*
X53975000Y-113665000D02*
X53975000Y-99695000D01*
X67945000Y-113665000D02*
X53975000Y-113665000D01*
X53975000Y-99695000D02*
X67945000Y-99695000D01*
%TO.C,K20*%
X106045000Y-156845000D02*
X106045000Y-170815000D01*
X92075000Y-170815000D02*
X92075000Y-156845000D01*
X106045000Y-170815000D02*
X92075000Y-170815000D01*
X92075000Y-156845000D02*
X106045000Y-156845000D01*
%TO.C,K45*%
X225425000Y-170815000D02*
X225425000Y-156845000D01*
X239395000Y-156845000D02*
X239395000Y-170815000D01*
X225425000Y-156845000D02*
X239395000Y-156845000D01*
X239395000Y-170815000D02*
X225425000Y-170815000D01*
%TO.C,J1*%
X26391667Y-50482500D02*
X48148333Y-50482500D01*
X48148333Y-50482500D02*
X48148333Y-46742500D01*
X26151667Y-48482500D02*
X26151667Y-50722500D01*
X26151667Y-50722500D02*
X30345000Y-50722500D01*
X26391667Y-46742500D02*
X26391667Y-50482500D01*
%TO.C,K17*%
X92075000Y-99695000D02*
X106045000Y-99695000D01*
X92075000Y-113665000D02*
X92075000Y-99695000D01*
X106045000Y-113665000D02*
X92075000Y-113665000D01*
X106045000Y-99695000D02*
X106045000Y-113665000D01*
%TO.C,K34*%
X168275000Y-118745000D02*
X182245000Y-118745000D01*
X168275000Y-132715000D02*
X168275000Y-118745000D01*
X182245000Y-132715000D02*
X168275000Y-132715000D01*
X182245000Y-118745000D02*
X182245000Y-132715000D01*
%TO.C,K32*%
X163195000Y-170815000D02*
X149225000Y-170815000D01*
X149225000Y-156845000D02*
X163195000Y-156845000D01*
X163195000Y-156845000D02*
X163195000Y-170815000D01*
X149225000Y-170815000D02*
X149225000Y-156845000D01*
%TO.C,K40*%
X187325000Y-170815000D02*
X187325000Y-156845000D01*
X201295000Y-170815000D02*
X187325000Y-170815000D01*
X187325000Y-156845000D02*
X201295000Y-156845000D01*
X201295000Y-156845000D02*
X201295000Y-170815000D01*
%TO.C,K31*%
X163195000Y-137795000D02*
X163195000Y-151765000D01*
X149225000Y-137795000D02*
X163195000Y-137795000D01*
X163195000Y-151765000D02*
X149225000Y-151765000D01*
X149225000Y-151765000D02*
X149225000Y-137795000D01*
%TO.C,K18*%
X92075000Y-118745000D02*
X106045000Y-118745000D01*
X92075000Y-132715000D02*
X92075000Y-118745000D01*
X106045000Y-132715000D02*
X92075000Y-132715000D01*
X106045000Y-118745000D02*
X106045000Y-132715000D01*
%TO.C,K41*%
X220345000Y-99695000D02*
X220345000Y-113665000D01*
X206375000Y-99695000D02*
X220345000Y-99695000D01*
X220345000Y-113665000D02*
X206375000Y-113665000D01*
X206375000Y-113665000D02*
X206375000Y-99695000D01*
%TO.C,K39*%
X187325000Y-151765000D02*
X187325000Y-137795000D01*
X187325000Y-137795000D02*
X201295000Y-137795000D01*
X201295000Y-151765000D02*
X187325000Y-151765000D01*
X201295000Y-137795000D02*
X201295000Y-151765000D01*
%TO.C,K21*%
X125095000Y-99695000D02*
X125095000Y-113665000D01*
X111125000Y-113665000D02*
X111125000Y-99695000D01*
X125095000Y-113665000D02*
X111125000Y-113665000D01*
X111125000Y-99695000D02*
X125095000Y-99695000D01*
%TO.C,C2*%
X59655000Y-52110000D02*
X59655000Y-56150000D01*
X62495000Y-56150000D02*
X62495000Y-52110000D01*
X61075000Y-56840000D02*
X61075000Y-56150000D01*
X62495000Y-52110000D02*
X59655000Y-52110000D01*
X59655000Y-56150000D02*
X62495000Y-56150000D01*
X61075000Y-51420000D02*
X61075000Y-52110000D01*
%TO.C,K37*%
X201295000Y-113665000D02*
X187325000Y-113665000D01*
X187325000Y-113665000D02*
X187325000Y-99695000D01*
X187325000Y-99695000D02*
X201295000Y-99695000D01*
X201295000Y-99695000D02*
X201295000Y-113665000D01*
%TO.C,K3*%
X29845000Y-151765000D02*
X15875000Y-151765000D01*
X29845000Y-137795000D02*
X29845000Y-151765000D01*
X15875000Y-151765000D02*
X15875000Y-137795000D01*
X15875000Y-137795000D02*
X29845000Y-137795000D01*
%TO.C,K24*%
X125095000Y-170815000D02*
X111125000Y-170815000D01*
X111125000Y-170815000D02*
X111125000Y-156845000D01*
X125095000Y-156845000D02*
X125095000Y-170815000D01*
X111125000Y-156845000D02*
X125095000Y-156845000D01*
%TO.C,C1*%
X57650000Y-52170000D02*
X54810000Y-52170000D01*
X54810000Y-52170000D02*
X54810000Y-56210000D01*
X57650000Y-56210000D02*
X57650000Y-52170000D01*
X56230000Y-51480000D02*
X56230000Y-52170000D01*
X56230000Y-56900000D02*
X56230000Y-56210000D01*
X54810000Y-56210000D02*
X57650000Y-56210000D01*
%TO.C,K1*%
X15875000Y-113665000D02*
X15875000Y-99695000D01*
X15875000Y-99695000D02*
X29845000Y-99695000D01*
X29845000Y-113665000D02*
X15875000Y-113665000D01*
X29845000Y-99695000D02*
X29845000Y-113665000D01*
%TO.C,J3*%
X72920000Y-86440000D02*
X73980000Y-86440000D01*
X71920000Y-88560000D02*
X69860000Y-88560000D01*
X69860000Y-86440000D02*
X69860000Y-88560000D01*
X71920000Y-86440000D02*
X69860000Y-86440000D01*
X73980000Y-86440000D02*
X73980000Y-87500000D01*
X71920000Y-86440000D02*
X71920000Y-88560000D01*
%TO.C,K42*%
X220345000Y-132715000D02*
X206375000Y-132715000D01*
X206375000Y-132715000D02*
X206375000Y-118745000D01*
X206375000Y-118745000D02*
X220345000Y-118745000D01*
X220345000Y-118745000D02*
X220345000Y-132715000D01*
%TO.C,K19*%
X106045000Y-151765000D02*
X92075000Y-151765000D01*
X106045000Y-137795000D02*
X106045000Y-151765000D01*
X92075000Y-151765000D02*
X92075000Y-137795000D01*
X92075000Y-137795000D02*
X106045000Y-137795000D01*
%TO.C,K35*%
X168275000Y-137795000D02*
X182245000Y-137795000D01*
X168275000Y-151765000D02*
X168275000Y-137795000D01*
X182245000Y-151765000D02*
X168275000Y-151765000D01*
X182245000Y-137795000D02*
X182245000Y-151765000D01*
%TO.C,K11*%
X53975000Y-137795000D02*
X67945000Y-137795000D01*
X67945000Y-137795000D02*
X67945000Y-151765000D01*
X67945000Y-151765000D02*
X53975000Y-151765000D01*
X53975000Y-151765000D02*
X53975000Y-137795000D01*
%TO.C,K22*%
X111125000Y-118745000D02*
X125095000Y-118745000D01*
X125095000Y-118745000D02*
X125095000Y-132715000D01*
X111125000Y-132715000D02*
X111125000Y-118745000D01*
X125095000Y-132715000D02*
X111125000Y-132715000D01*
%TO.C,K4*%
X29845000Y-170815000D02*
X15875000Y-170815000D01*
X29845000Y-156845000D02*
X29845000Y-170815000D01*
X15875000Y-156845000D02*
X29845000Y-156845000D01*
X15875000Y-170815000D02*
X15875000Y-156845000D01*
%TO.C,Y1*%
X61760000Y-64930000D02*
X55510000Y-64930000D01*
X61760000Y-59880000D02*
X55510000Y-59880000D01*
X61760000Y-64930000D02*
G75*
G03*
X61760000Y-59880000I0J2525000D01*
G01*
X55510000Y-59880000D02*
G75*
G03*
X55510000Y-64930000I0J-2525000D01*
G01*
%TO.C,K30*%
X149225000Y-132715000D02*
X149225000Y-118745000D01*
X149225000Y-118745000D02*
X163195000Y-118745000D01*
X163195000Y-132715000D02*
X149225000Y-132715000D01*
X163195000Y-118745000D02*
X163195000Y-132715000D01*
%TD*%
M02*
