M48
; DRILL file {KiCad (6.0.0-0)} date Thursday, September 22, 2022 at 12:13:07 AM
; FORMAT={-:-/ absolute / inch / decimal}
; #@! TF.CreationDate,2022-09-22T00:13:07-04:00
; #@! TF.GenerationSoftware,Kicad,Pcbnew,(6.0.0-0)
; #@! TF.FileFunction,NonPlated,1,2,NPTH
FMAT,2
INCH
; #@! TA.AperFunction,NonPlated,NPTH,ComponentDrill
T1C0.0669
; #@! TA.AperFunction,NonPlated,NPTH,ComponentDrill
T2C0.0866
; #@! TA.AperFunction,NonPlated,NPTH,ComponentDrill
T3C0.1575
%
G90
G05
T1
X0.7Y-4.2
X0.7Y-4.95
X0.7Y-5.7
X0.7Y-6.45
X1.1Y-4.2
X1.1Y-4.95
X1.1Y-5.7
X1.1Y-6.45
X1.45Y-4.2
X1.45Y-4.95
X1.45Y-6.45
X1.455Y-5.7
X1.85Y-4.2
X1.85Y-4.95
X1.85Y-6.45
X1.855Y-5.7
X2.2Y-4.2
X2.2Y-4.95
X2.2Y-5.7
X2.2Y-6.45
X2.6Y-4.2
X2.6Y-4.95
X2.6Y-5.7
X2.6Y-6.45
X2.95Y-4.2
X2.95Y-4.95
X2.95Y-5.7
X2.95Y-6.45
X3.35Y-4.2
X3.35Y-4.95
X3.35Y-5.7
X3.35Y-6.45
X3.7Y-4.2
X3.7Y-4.95
X3.7Y-5.7
X3.7Y-6.45
X4.1Y-4.2
X4.1Y-4.95
X4.1Y-5.7
X4.1Y-6.45
X4.45Y-4.2
X4.45Y-4.95
X4.45Y-5.7
X4.45Y-6.45
X4.85Y-4.2
X4.85Y-4.95
X4.85Y-5.7
X4.85Y-6.45
X5.2Y-2.95
X5.2Y-4.2
X5.2Y-4.95
X5.2Y-5.7
X5.2Y-6.45
X5.6Y-2.95
X5.6Y-4.2
X5.6Y-4.95
X5.6Y-5.7
X5.6Y-6.45
X5.95Y-4.2
X5.95Y-4.95
X5.95Y-5.7
X5.95Y-6.45
X6.35Y-4.2
X6.35Y-4.95
X6.35Y-5.7
X6.35Y-6.45
X6.7Y-4.2
X6.7Y-4.95
X6.7Y-5.7
X6.7Y-6.45
X7.1Y-4.2
X7.1Y-4.95
X7.1Y-5.7
X7.1Y-6.45
X7.45Y-4.2
X7.45Y-4.95
X7.45Y-5.7
X7.45Y-6.45
X7.85Y-4.2
X7.85Y-4.95
X7.85Y-5.7
X7.85Y-6.45
X8.2Y-4.2
X8.2Y-4.95
X8.2Y-5.7
X8.2Y-6.45
X8.6Y-4.2
X8.6Y-4.95
X8.6Y-5.7
X8.6Y-6.45
X8.95Y-4.2
X8.95Y-4.95
X8.95Y-5.7
X8.95Y-6.45
X9.35Y-4.2
X9.35Y-4.95
X9.35Y-5.7
X9.35Y-6.45
T2
X0.55Y-6.975
X0.5705Y-2.0
X5.35Y-2.1
X5.35Y-6.975
X9.5Y-3.65
X9.5512Y-6.975
T3
X0.9Y-4.2
X0.9Y-4.95
X0.9Y-5.7
X0.9Y-6.45
X1.65Y-4.2
X1.65Y-4.95
X1.65Y-6.45
X1.655Y-5.7
X2.4Y-4.2
X2.4Y-4.95
X2.4Y-5.7
X2.4Y-6.45
X3.15Y-4.2
X3.15Y-4.95
X3.15Y-5.7
X3.15Y-6.45
X3.9Y-4.2
X3.9Y-4.95
X3.9Y-5.7
X3.9Y-6.45
X4.65Y-4.2
X4.65Y-4.95
X4.65Y-5.7
X4.65Y-6.45
X5.4Y-2.95
X5.4Y-4.2
X5.4Y-4.95
X5.4Y-5.7
X5.4Y-6.45
X6.15Y-4.2
X6.15Y-4.95
X6.15Y-5.7
X6.15Y-6.45
X6.9Y-4.2
X6.9Y-4.95
X6.9Y-5.7
X6.9Y-6.45
X7.65Y-4.2
X7.65Y-4.95
X7.65Y-5.7
X7.65Y-6.45
X8.4Y-4.2
X8.4Y-4.95
X8.4Y-5.7
X8.4Y-6.45
X9.15Y-4.2
X9.15Y-4.95
X9.15Y-5.7
X9.15Y-6.45
T0
M30
