%TF.GenerationSoftware,KiCad,Pcbnew,(6.0.0-0)*%
%TF.CreationDate,2022-09-22T00:13:09-04:00*%
%TF.ProjectId,justin-freetracing,6a757374-696e-42d6-9672-656574726163,rev?*%
%TF.SameCoordinates,Original*%
%TF.FileFunction,Legend,Bot*%
%TF.FilePolarity,Positive*%
%FSLAX46Y46*%
G04 Gerber Fmt 4.6, Leading zero omitted, Abs format (unit mm)*
G04 Created by KiCad (PCBNEW (6.0.0-0)) date 2022-09-22 00:13:09*
%MOMM*%
%LPD*%
G01*
G04 APERTURE LIST*
%ADD10C,0.150000*%
%ADD11C,0.120000*%
G04 APERTURE END LIST*
D10*
X100505238Y-62932380D02*
X101076666Y-62932380D01*
X100790952Y-62932380D02*
X100790952Y-61932380D01*
X100886190Y-62075238D01*
X100981428Y-62170476D01*
X101076666Y-62218095D01*
X99886190Y-61932380D02*
X99790952Y-61932380D01*
X99695714Y-61980000D01*
X99648095Y-62027619D01*
X99600476Y-62122857D01*
X99552857Y-62313333D01*
X99552857Y-62551428D01*
X99600476Y-62741904D01*
X99648095Y-62837142D01*
X99695714Y-62884761D01*
X99790952Y-62932380D01*
X99886190Y-62932380D01*
X99981428Y-62884761D01*
X100029047Y-62837142D01*
X100076666Y-62741904D01*
X100124285Y-62551428D01*
X100124285Y-62313333D01*
X100076666Y-62122857D01*
X100029047Y-62027619D01*
X99981428Y-61980000D01*
X99886190Y-61932380D01*
X99124285Y-62932380D02*
X99124285Y-61932380D01*
X99029047Y-62551428D02*
X98743333Y-62932380D01*
X98743333Y-62265714D02*
X99124285Y-62646666D01*
%TO.C,D45*%
X233624285Y-152287380D02*
X233624285Y-151287380D01*
X233386190Y-151287380D01*
X233243333Y-151335000D01*
X233148095Y-151430238D01*
X233100476Y-151525476D01*
X233052857Y-151715952D01*
X233052857Y-151858809D01*
X233100476Y-152049285D01*
X233148095Y-152144523D01*
X233243333Y-152239761D01*
X233386190Y-152287380D01*
X233624285Y-152287380D01*
X232195714Y-151620714D02*
X232195714Y-152287380D01*
X232433809Y-151239761D02*
X232671904Y-151954047D01*
X232052857Y-151954047D01*
X231195714Y-151287380D02*
X231671904Y-151287380D01*
X231719523Y-151763571D01*
X231671904Y-151715952D01*
X231576666Y-151668333D01*
X231338571Y-151668333D01*
X231243333Y-151715952D01*
X231195714Y-151763571D01*
X231148095Y-151858809D01*
X231148095Y-152096904D01*
X231195714Y-152192142D01*
X231243333Y-152239761D01*
X231338571Y-152287380D01*
X231576666Y-152287380D01*
X231671904Y-152239761D01*
X231719523Y-152192142D01*
%TO.C,D17*%
X100274285Y-95137380D02*
X100274285Y-94137380D01*
X100036190Y-94137380D01*
X99893333Y-94185000D01*
X99798095Y-94280238D01*
X99750476Y-94375476D01*
X99702857Y-94565952D01*
X99702857Y-94708809D01*
X99750476Y-94899285D01*
X99798095Y-94994523D01*
X99893333Y-95089761D01*
X100036190Y-95137380D01*
X100274285Y-95137380D01*
X98750476Y-95137380D02*
X99321904Y-95137380D01*
X99036190Y-95137380D02*
X99036190Y-94137380D01*
X99131428Y-94280238D01*
X99226666Y-94375476D01*
X99321904Y-94423095D01*
X98417142Y-94137380D02*
X97750476Y-94137380D01*
X98179047Y-95137380D01*
X103131904Y-95507380D02*
X103131904Y-94507380D01*
X102560476Y-95507380D02*
X102989047Y-94935952D01*
X102560476Y-94507380D02*
X103131904Y-95078809D01*
%TO.C,D25*%
X138374285Y-95137380D02*
X138374285Y-94137380D01*
X138136190Y-94137380D01*
X137993333Y-94185000D01*
X137898095Y-94280238D01*
X137850476Y-94375476D01*
X137802857Y-94565952D01*
X137802857Y-94708809D01*
X137850476Y-94899285D01*
X137898095Y-94994523D01*
X137993333Y-95089761D01*
X138136190Y-95137380D01*
X138374285Y-95137380D01*
X137421904Y-94232619D02*
X137374285Y-94185000D01*
X137279047Y-94137380D01*
X137040952Y-94137380D01*
X136945714Y-94185000D01*
X136898095Y-94232619D01*
X136850476Y-94327857D01*
X136850476Y-94423095D01*
X136898095Y-94565952D01*
X137469523Y-95137380D01*
X136850476Y-95137380D01*
X135945714Y-94137380D02*
X136421904Y-94137380D01*
X136469523Y-94613571D01*
X136421904Y-94565952D01*
X136326666Y-94518333D01*
X136088571Y-94518333D01*
X135993333Y-94565952D01*
X135945714Y-94613571D01*
X135898095Y-94708809D01*
X135898095Y-94946904D01*
X135945714Y-95042142D01*
X135993333Y-95089761D01*
X136088571Y-95137380D01*
X136326666Y-95137380D01*
X136421904Y-95089761D01*
X136469523Y-95042142D01*
X141231904Y-95507380D02*
X141231904Y-94507380D01*
X140660476Y-95507380D02*
X141089047Y-94935952D01*
X140660476Y-94507380D02*
X141231904Y-95078809D01*
%TO.C,D23*%
X119324285Y-133237380D02*
X119324285Y-132237380D01*
X119086190Y-132237380D01*
X118943333Y-132285000D01*
X118848095Y-132380238D01*
X118800476Y-132475476D01*
X118752857Y-132665952D01*
X118752857Y-132808809D01*
X118800476Y-132999285D01*
X118848095Y-133094523D01*
X118943333Y-133189761D01*
X119086190Y-133237380D01*
X119324285Y-133237380D01*
X118371904Y-132332619D02*
X118324285Y-132285000D01*
X118229047Y-132237380D01*
X117990952Y-132237380D01*
X117895714Y-132285000D01*
X117848095Y-132332619D01*
X117800476Y-132427857D01*
X117800476Y-132523095D01*
X117848095Y-132665952D01*
X118419523Y-133237380D01*
X117800476Y-133237380D01*
X117467142Y-132237380D02*
X116848095Y-132237380D01*
X117181428Y-132618333D01*
X117038571Y-132618333D01*
X116943333Y-132665952D01*
X116895714Y-132713571D01*
X116848095Y-132808809D01*
X116848095Y-133046904D01*
X116895714Y-133142142D01*
X116943333Y-133189761D01*
X117038571Y-133237380D01*
X117324285Y-133237380D01*
X117419523Y-133189761D01*
X117467142Y-133142142D01*
X122181904Y-133607380D02*
X122181904Y-132607380D01*
X121610476Y-133607380D02*
X122039047Y-133035952D01*
X121610476Y-132607380D02*
X122181904Y-133178809D01*
%TO.C,D7*%
X42648095Y-133237380D02*
X42648095Y-132237380D01*
X42410000Y-132237380D01*
X42267142Y-132285000D01*
X42171904Y-132380238D01*
X42124285Y-132475476D01*
X42076666Y-132665952D01*
X42076666Y-132808809D01*
X42124285Y-132999285D01*
X42171904Y-133094523D01*
X42267142Y-133189761D01*
X42410000Y-133237380D01*
X42648095Y-133237380D01*
X41743333Y-132237380D02*
X41076666Y-132237380D01*
X41505238Y-133237380D01*
X45981904Y-133607380D02*
X45981904Y-132607380D01*
X45410476Y-133607380D02*
X45839047Y-133035952D01*
X45410476Y-132607380D02*
X45981904Y-133178809D01*
%TO.C,D37*%
X195524285Y-95137380D02*
X195524285Y-94137380D01*
X195286190Y-94137380D01*
X195143333Y-94185000D01*
X195048095Y-94280238D01*
X195000476Y-94375476D01*
X194952857Y-94565952D01*
X194952857Y-94708809D01*
X195000476Y-94899285D01*
X195048095Y-94994523D01*
X195143333Y-95089761D01*
X195286190Y-95137380D01*
X195524285Y-95137380D01*
X194619523Y-94137380D02*
X194000476Y-94137380D01*
X194333809Y-94518333D01*
X194190952Y-94518333D01*
X194095714Y-94565952D01*
X194048095Y-94613571D01*
X194000476Y-94708809D01*
X194000476Y-94946904D01*
X194048095Y-95042142D01*
X194095714Y-95089761D01*
X194190952Y-95137380D01*
X194476666Y-95137380D01*
X194571904Y-95089761D01*
X194619523Y-95042142D01*
X193667142Y-94137380D02*
X193000476Y-94137380D01*
X193429047Y-95137380D01*
X198381904Y-95507380D02*
X198381904Y-94507380D01*
X197810476Y-95507380D02*
X198239047Y-94935952D01*
X197810476Y-94507380D02*
X198381904Y-95078809D01*
%TO.C,D41*%
X214574285Y-95137380D02*
X214574285Y-94137380D01*
X214336190Y-94137380D01*
X214193333Y-94185000D01*
X214098095Y-94280238D01*
X214050476Y-94375476D01*
X214002857Y-94565952D01*
X214002857Y-94708809D01*
X214050476Y-94899285D01*
X214098095Y-94994523D01*
X214193333Y-95089761D01*
X214336190Y-95137380D01*
X214574285Y-95137380D01*
X213145714Y-94470714D02*
X213145714Y-95137380D01*
X213383809Y-94089761D02*
X213621904Y-94804047D01*
X213002857Y-94804047D01*
X212098095Y-95137380D02*
X212669523Y-95137380D01*
X212383809Y-95137380D02*
X212383809Y-94137380D01*
X212479047Y-94280238D01*
X212574285Y-94375476D01*
X212669523Y-94423095D01*
%TO.C,D28*%
X138374285Y-152287380D02*
X138374285Y-151287380D01*
X138136190Y-151287380D01*
X137993333Y-151335000D01*
X137898095Y-151430238D01*
X137850476Y-151525476D01*
X137802857Y-151715952D01*
X137802857Y-151858809D01*
X137850476Y-152049285D01*
X137898095Y-152144523D01*
X137993333Y-152239761D01*
X138136190Y-152287380D01*
X138374285Y-152287380D01*
X137421904Y-151382619D02*
X137374285Y-151335000D01*
X137279047Y-151287380D01*
X137040952Y-151287380D01*
X136945714Y-151335000D01*
X136898095Y-151382619D01*
X136850476Y-151477857D01*
X136850476Y-151573095D01*
X136898095Y-151715952D01*
X137469523Y-152287380D01*
X136850476Y-152287380D01*
X136279047Y-151715952D02*
X136374285Y-151668333D01*
X136421904Y-151620714D01*
X136469523Y-151525476D01*
X136469523Y-151477857D01*
X136421904Y-151382619D01*
X136374285Y-151335000D01*
X136279047Y-151287380D01*
X136088571Y-151287380D01*
X135993333Y-151335000D01*
X135945714Y-151382619D01*
X135898095Y-151477857D01*
X135898095Y-151525476D01*
X135945714Y-151620714D01*
X135993333Y-151668333D01*
X136088571Y-151715952D01*
X136279047Y-151715952D01*
X136374285Y-151763571D01*
X136421904Y-151811190D01*
X136469523Y-151906428D01*
X136469523Y-152096904D01*
X136421904Y-152192142D01*
X136374285Y-152239761D01*
X136279047Y-152287380D01*
X136088571Y-152287380D01*
X135993333Y-152239761D01*
X135945714Y-152192142D01*
X135898095Y-152096904D01*
X135898095Y-151906428D01*
X135945714Y-151811190D01*
X135993333Y-151763571D01*
X136088571Y-151715952D01*
X141231904Y-152657380D02*
X141231904Y-151657380D01*
X140660476Y-152657380D02*
X141089047Y-152085952D01*
X140660476Y-151657380D02*
X141231904Y-152228809D01*
%TO.C,D11*%
X62174285Y-133237380D02*
X62174285Y-132237380D01*
X61936190Y-132237380D01*
X61793333Y-132285000D01*
X61698095Y-132380238D01*
X61650476Y-132475476D01*
X61602857Y-132665952D01*
X61602857Y-132808809D01*
X61650476Y-132999285D01*
X61698095Y-133094523D01*
X61793333Y-133189761D01*
X61936190Y-133237380D01*
X62174285Y-133237380D01*
X60650476Y-133237380D02*
X61221904Y-133237380D01*
X60936190Y-133237380D02*
X60936190Y-132237380D01*
X61031428Y-132380238D01*
X61126666Y-132475476D01*
X61221904Y-132523095D01*
X59698095Y-133237380D02*
X60269523Y-133237380D01*
X59983809Y-133237380D02*
X59983809Y-132237380D01*
X60079047Y-132380238D01*
X60174285Y-132475476D01*
X60269523Y-132523095D01*
X65031904Y-133607380D02*
X65031904Y-132607380D01*
X64460476Y-133607380D02*
X64889047Y-133035952D01*
X64460476Y-132607380D02*
X65031904Y-133178809D01*
%TO.C,D43*%
X214574285Y-133110380D02*
X214574285Y-132110380D01*
X214336190Y-132110380D01*
X214193333Y-132158000D01*
X214098095Y-132253238D01*
X214050476Y-132348476D01*
X214002857Y-132538952D01*
X214002857Y-132681809D01*
X214050476Y-132872285D01*
X214098095Y-132967523D01*
X214193333Y-133062761D01*
X214336190Y-133110380D01*
X214574285Y-133110380D01*
X213145714Y-132443714D02*
X213145714Y-133110380D01*
X213383809Y-132062761D02*
X213621904Y-132777047D01*
X213002857Y-132777047D01*
X212717142Y-132110380D02*
X212098095Y-132110380D01*
X212431428Y-132491333D01*
X212288571Y-132491333D01*
X212193333Y-132538952D01*
X212145714Y-132586571D01*
X212098095Y-132681809D01*
X212098095Y-132919904D01*
X212145714Y-133015142D01*
X212193333Y-133062761D01*
X212288571Y-133110380D01*
X212574285Y-133110380D01*
X212669523Y-133062761D01*
X212717142Y-133015142D01*
X217431904Y-133480380D02*
X217431904Y-132480380D01*
X216860476Y-133480380D02*
X217289047Y-132908952D01*
X216860476Y-132480380D02*
X217431904Y-133051809D01*
%TO.C,D21*%
X119324285Y-95137380D02*
X119324285Y-94137380D01*
X119086190Y-94137380D01*
X118943333Y-94185000D01*
X118848095Y-94280238D01*
X118800476Y-94375476D01*
X118752857Y-94565952D01*
X118752857Y-94708809D01*
X118800476Y-94899285D01*
X118848095Y-94994523D01*
X118943333Y-95089761D01*
X119086190Y-95137380D01*
X119324285Y-95137380D01*
X118371904Y-94232619D02*
X118324285Y-94185000D01*
X118229047Y-94137380D01*
X117990952Y-94137380D01*
X117895714Y-94185000D01*
X117848095Y-94232619D01*
X117800476Y-94327857D01*
X117800476Y-94423095D01*
X117848095Y-94565952D01*
X118419523Y-95137380D01*
X117800476Y-95137380D01*
X116848095Y-95137380D02*
X117419523Y-95137380D01*
X117133809Y-95137380D02*
X117133809Y-94137380D01*
X117229047Y-94280238D01*
X117324285Y-94375476D01*
X117419523Y-94423095D01*
X122181904Y-95507380D02*
X122181904Y-94507380D01*
X121610476Y-95507380D02*
X122039047Y-94935952D01*
X121610476Y-94507380D02*
X122181904Y-95078809D01*
%TO.C,D27*%
X138374285Y-133237380D02*
X138374285Y-132237380D01*
X138136190Y-132237380D01*
X137993333Y-132285000D01*
X137898095Y-132380238D01*
X137850476Y-132475476D01*
X137802857Y-132665952D01*
X137802857Y-132808809D01*
X137850476Y-132999285D01*
X137898095Y-133094523D01*
X137993333Y-133189761D01*
X138136190Y-133237380D01*
X138374285Y-133237380D01*
X137421904Y-132332619D02*
X137374285Y-132285000D01*
X137279047Y-132237380D01*
X137040952Y-132237380D01*
X136945714Y-132285000D01*
X136898095Y-132332619D01*
X136850476Y-132427857D01*
X136850476Y-132523095D01*
X136898095Y-132665952D01*
X137469523Y-133237380D01*
X136850476Y-133237380D01*
X136517142Y-132237380D02*
X135850476Y-132237380D01*
X136279047Y-133237380D01*
X141231904Y-133607380D02*
X141231904Y-132607380D01*
X140660476Y-133607380D02*
X141089047Y-133035952D01*
X140660476Y-132607380D02*
X141231904Y-133178809D01*
%TO.C,D35*%
X176474285Y-133237380D02*
X176474285Y-132237380D01*
X176236190Y-132237380D01*
X176093333Y-132285000D01*
X175998095Y-132380238D01*
X175950476Y-132475476D01*
X175902857Y-132665952D01*
X175902857Y-132808809D01*
X175950476Y-132999285D01*
X175998095Y-133094523D01*
X176093333Y-133189761D01*
X176236190Y-133237380D01*
X176474285Y-133237380D01*
X175569523Y-132237380D02*
X174950476Y-132237380D01*
X175283809Y-132618333D01*
X175140952Y-132618333D01*
X175045714Y-132665952D01*
X174998095Y-132713571D01*
X174950476Y-132808809D01*
X174950476Y-133046904D01*
X174998095Y-133142142D01*
X175045714Y-133189761D01*
X175140952Y-133237380D01*
X175426666Y-133237380D01*
X175521904Y-133189761D01*
X175569523Y-133142142D01*
X174045714Y-132237380D02*
X174521904Y-132237380D01*
X174569523Y-132713571D01*
X174521904Y-132665952D01*
X174426666Y-132618333D01*
X174188571Y-132618333D01*
X174093333Y-132665952D01*
X174045714Y-132713571D01*
X173998095Y-132808809D01*
X173998095Y-133046904D01*
X174045714Y-133142142D01*
X174093333Y-133189761D01*
X174188571Y-133237380D01*
X174426666Y-133237380D01*
X174521904Y-133189761D01*
X174569523Y-133142142D01*
X179331904Y-133607380D02*
X179331904Y-132607380D01*
X178760476Y-133607380D02*
X179189047Y-133035952D01*
X178760476Y-132607380D02*
X179331904Y-133178809D01*
%TO.C,D16*%
X81224285Y-152287380D02*
X81224285Y-151287380D01*
X80986190Y-151287380D01*
X80843333Y-151335000D01*
X80748095Y-151430238D01*
X80700476Y-151525476D01*
X80652857Y-151715952D01*
X80652857Y-151858809D01*
X80700476Y-152049285D01*
X80748095Y-152144523D01*
X80843333Y-152239761D01*
X80986190Y-152287380D01*
X81224285Y-152287380D01*
X79700476Y-152287380D02*
X80271904Y-152287380D01*
X79986190Y-152287380D02*
X79986190Y-151287380D01*
X80081428Y-151430238D01*
X80176666Y-151525476D01*
X80271904Y-151573095D01*
X78843333Y-151287380D02*
X79033809Y-151287380D01*
X79129047Y-151335000D01*
X79176666Y-151382619D01*
X79271904Y-151525476D01*
X79319523Y-151715952D01*
X79319523Y-152096904D01*
X79271904Y-152192142D01*
X79224285Y-152239761D01*
X79129047Y-152287380D01*
X78938571Y-152287380D01*
X78843333Y-152239761D01*
X78795714Y-152192142D01*
X78748095Y-152096904D01*
X78748095Y-151858809D01*
X78795714Y-151763571D01*
X78843333Y-151715952D01*
X78938571Y-151668333D01*
X79129047Y-151668333D01*
X79224285Y-151715952D01*
X79271904Y-151763571D01*
X79319523Y-151858809D01*
X84081904Y-152657380D02*
X84081904Y-151657380D01*
X83510476Y-152657380D02*
X83939047Y-152085952D01*
X83510476Y-151657380D02*
X84081904Y-152228809D01*
%TO.C,D19*%
X100274285Y-133237380D02*
X100274285Y-132237380D01*
X100036190Y-132237380D01*
X99893333Y-132285000D01*
X99798095Y-132380238D01*
X99750476Y-132475476D01*
X99702857Y-132665952D01*
X99702857Y-132808809D01*
X99750476Y-132999285D01*
X99798095Y-133094523D01*
X99893333Y-133189761D01*
X100036190Y-133237380D01*
X100274285Y-133237380D01*
X98750476Y-133237380D02*
X99321904Y-133237380D01*
X99036190Y-133237380D02*
X99036190Y-132237380D01*
X99131428Y-132380238D01*
X99226666Y-132475476D01*
X99321904Y-132523095D01*
X98274285Y-133237380D02*
X98083809Y-133237380D01*
X97988571Y-133189761D01*
X97940952Y-133142142D01*
X97845714Y-132999285D01*
X97798095Y-132808809D01*
X97798095Y-132427857D01*
X97845714Y-132332619D01*
X97893333Y-132285000D01*
X97988571Y-132237380D01*
X98179047Y-132237380D01*
X98274285Y-132285000D01*
X98321904Y-132332619D01*
X98369523Y-132427857D01*
X98369523Y-132665952D01*
X98321904Y-132761190D01*
X98274285Y-132808809D01*
X98179047Y-132856428D01*
X97988571Y-132856428D01*
X97893333Y-132808809D01*
X97845714Y-132761190D01*
X97798095Y-132665952D01*
X103131904Y-133607380D02*
X103131904Y-132607380D01*
X102560476Y-133607380D02*
X102989047Y-133035952D01*
X102560476Y-132607380D02*
X103131904Y-133178809D01*
%TO.C,D42*%
X214574285Y-114187380D02*
X214574285Y-113187380D01*
X214336190Y-113187380D01*
X214193333Y-113235000D01*
X214098095Y-113330238D01*
X214050476Y-113425476D01*
X214002857Y-113615952D01*
X214002857Y-113758809D01*
X214050476Y-113949285D01*
X214098095Y-114044523D01*
X214193333Y-114139761D01*
X214336190Y-114187380D01*
X214574285Y-114187380D01*
X213145714Y-113520714D02*
X213145714Y-114187380D01*
X213383809Y-113139761D02*
X213621904Y-113854047D01*
X213002857Y-113854047D01*
X212669523Y-113282619D02*
X212621904Y-113235000D01*
X212526666Y-113187380D01*
X212288571Y-113187380D01*
X212193333Y-113235000D01*
X212145714Y-113282619D01*
X212098095Y-113377857D01*
X212098095Y-113473095D01*
X212145714Y-113615952D01*
X212717142Y-114187380D01*
X212098095Y-114187380D01*
X217431904Y-114557380D02*
X217431904Y-113557380D01*
X216860476Y-114557380D02*
X217289047Y-113985952D01*
X216860476Y-113557380D02*
X217431904Y-114128809D01*
%TO.C,D31*%
X157424285Y-133237380D02*
X157424285Y-132237380D01*
X157186190Y-132237380D01*
X157043333Y-132285000D01*
X156948095Y-132380238D01*
X156900476Y-132475476D01*
X156852857Y-132665952D01*
X156852857Y-132808809D01*
X156900476Y-132999285D01*
X156948095Y-133094523D01*
X157043333Y-133189761D01*
X157186190Y-133237380D01*
X157424285Y-133237380D01*
X156519523Y-132237380D02*
X155900476Y-132237380D01*
X156233809Y-132618333D01*
X156090952Y-132618333D01*
X155995714Y-132665952D01*
X155948095Y-132713571D01*
X155900476Y-132808809D01*
X155900476Y-133046904D01*
X155948095Y-133142142D01*
X155995714Y-133189761D01*
X156090952Y-133237380D01*
X156376666Y-133237380D01*
X156471904Y-133189761D01*
X156519523Y-133142142D01*
X154948095Y-133237380D02*
X155519523Y-133237380D01*
X155233809Y-133237380D02*
X155233809Y-132237380D01*
X155329047Y-132380238D01*
X155424285Y-132475476D01*
X155519523Y-132523095D01*
X160281904Y-133607380D02*
X160281904Y-132607380D01*
X159710476Y-133607380D02*
X160139047Y-133035952D01*
X159710476Y-132607380D02*
X160281904Y-133178809D01*
%TO.C,D38*%
X195524285Y-114187380D02*
X195524285Y-113187380D01*
X195286190Y-113187380D01*
X195143333Y-113235000D01*
X195048095Y-113330238D01*
X195000476Y-113425476D01*
X194952857Y-113615952D01*
X194952857Y-113758809D01*
X195000476Y-113949285D01*
X195048095Y-114044523D01*
X195143333Y-114139761D01*
X195286190Y-114187380D01*
X195524285Y-114187380D01*
X194619523Y-113187380D02*
X194000476Y-113187380D01*
X194333809Y-113568333D01*
X194190952Y-113568333D01*
X194095714Y-113615952D01*
X194048095Y-113663571D01*
X194000476Y-113758809D01*
X194000476Y-113996904D01*
X194048095Y-114092142D01*
X194095714Y-114139761D01*
X194190952Y-114187380D01*
X194476666Y-114187380D01*
X194571904Y-114139761D01*
X194619523Y-114092142D01*
X193429047Y-113615952D02*
X193524285Y-113568333D01*
X193571904Y-113520714D01*
X193619523Y-113425476D01*
X193619523Y-113377857D01*
X193571904Y-113282619D01*
X193524285Y-113235000D01*
X193429047Y-113187380D01*
X193238571Y-113187380D01*
X193143333Y-113235000D01*
X193095714Y-113282619D01*
X193048095Y-113377857D01*
X193048095Y-113425476D01*
X193095714Y-113520714D01*
X193143333Y-113568333D01*
X193238571Y-113615952D01*
X193429047Y-113615952D01*
X193524285Y-113663571D01*
X193571904Y-113711190D01*
X193619523Y-113806428D01*
X193619523Y-113996904D01*
X193571904Y-114092142D01*
X193524285Y-114139761D01*
X193429047Y-114187380D01*
X193238571Y-114187380D01*
X193143333Y-114139761D01*
X193095714Y-114092142D01*
X193048095Y-113996904D01*
X193048095Y-113806428D01*
X193095714Y-113711190D01*
X193143333Y-113663571D01*
X193238571Y-113615952D01*
X198381904Y-114557380D02*
X198381904Y-113557380D01*
X197810476Y-114557380D02*
X198239047Y-113985952D01*
X197810476Y-113557380D02*
X198381904Y-114128809D01*
%TO.C,D15*%
X81224285Y-133237380D02*
X81224285Y-132237380D01*
X80986190Y-132237380D01*
X80843333Y-132285000D01*
X80748095Y-132380238D01*
X80700476Y-132475476D01*
X80652857Y-132665952D01*
X80652857Y-132808809D01*
X80700476Y-132999285D01*
X80748095Y-133094523D01*
X80843333Y-133189761D01*
X80986190Y-133237380D01*
X81224285Y-133237380D01*
X79700476Y-133237380D02*
X80271904Y-133237380D01*
X79986190Y-133237380D02*
X79986190Y-132237380D01*
X80081428Y-132380238D01*
X80176666Y-132475476D01*
X80271904Y-132523095D01*
X78795714Y-132237380D02*
X79271904Y-132237380D01*
X79319523Y-132713571D01*
X79271904Y-132665952D01*
X79176666Y-132618333D01*
X78938571Y-132618333D01*
X78843333Y-132665952D01*
X78795714Y-132713571D01*
X78748095Y-132808809D01*
X78748095Y-133046904D01*
X78795714Y-133142142D01*
X78843333Y-133189761D01*
X78938571Y-133237380D01*
X79176666Y-133237380D01*
X79271904Y-133189761D01*
X79319523Y-133142142D01*
X84081904Y-133607380D02*
X84081904Y-132607380D01*
X83510476Y-133607380D02*
X83939047Y-133035952D01*
X83510476Y-132607380D02*
X84081904Y-133178809D01*
%TO.C,D34*%
X176474285Y-114187380D02*
X176474285Y-113187380D01*
X176236190Y-113187380D01*
X176093333Y-113235000D01*
X175998095Y-113330238D01*
X175950476Y-113425476D01*
X175902857Y-113615952D01*
X175902857Y-113758809D01*
X175950476Y-113949285D01*
X175998095Y-114044523D01*
X176093333Y-114139761D01*
X176236190Y-114187380D01*
X176474285Y-114187380D01*
X175569523Y-113187380D02*
X174950476Y-113187380D01*
X175283809Y-113568333D01*
X175140952Y-113568333D01*
X175045714Y-113615952D01*
X174998095Y-113663571D01*
X174950476Y-113758809D01*
X174950476Y-113996904D01*
X174998095Y-114092142D01*
X175045714Y-114139761D01*
X175140952Y-114187380D01*
X175426666Y-114187380D01*
X175521904Y-114139761D01*
X175569523Y-114092142D01*
X174093333Y-113520714D02*
X174093333Y-114187380D01*
X174331428Y-113139761D02*
X174569523Y-113854047D01*
X173950476Y-113854047D01*
X179331904Y-114557380D02*
X179331904Y-113557380D01*
X178760476Y-114557380D02*
X179189047Y-113985952D01*
X178760476Y-113557380D02*
X179331904Y-114128809D01*
%TO.C,D10*%
X62174285Y-114187380D02*
X62174285Y-113187380D01*
X61936190Y-113187380D01*
X61793333Y-113235000D01*
X61698095Y-113330238D01*
X61650476Y-113425476D01*
X61602857Y-113615952D01*
X61602857Y-113758809D01*
X61650476Y-113949285D01*
X61698095Y-114044523D01*
X61793333Y-114139761D01*
X61936190Y-114187380D01*
X62174285Y-114187380D01*
X60650476Y-114187380D02*
X61221904Y-114187380D01*
X60936190Y-114187380D02*
X60936190Y-113187380D01*
X61031428Y-113330238D01*
X61126666Y-113425476D01*
X61221904Y-113473095D01*
X60031428Y-113187380D02*
X59936190Y-113187380D01*
X59840952Y-113235000D01*
X59793333Y-113282619D01*
X59745714Y-113377857D01*
X59698095Y-113568333D01*
X59698095Y-113806428D01*
X59745714Y-113996904D01*
X59793333Y-114092142D01*
X59840952Y-114139761D01*
X59936190Y-114187380D01*
X60031428Y-114187380D01*
X60126666Y-114139761D01*
X60174285Y-114092142D01*
X60221904Y-113996904D01*
X60269523Y-113806428D01*
X60269523Y-113568333D01*
X60221904Y-113377857D01*
X60174285Y-113282619D01*
X60126666Y-113235000D01*
X60031428Y-113187380D01*
X65031904Y-114557380D02*
X65031904Y-113557380D01*
X64460476Y-114557380D02*
X64889047Y-113985952D01*
X64460476Y-113557380D02*
X65031904Y-114128809D01*
%TO.C,D40*%
X195524285Y-152287380D02*
X195524285Y-151287380D01*
X195286190Y-151287380D01*
X195143333Y-151335000D01*
X195048095Y-151430238D01*
X195000476Y-151525476D01*
X194952857Y-151715952D01*
X194952857Y-151858809D01*
X195000476Y-152049285D01*
X195048095Y-152144523D01*
X195143333Y-152239761D01*
X195286190Y-152287380D01*
X195524285Y-152287380D01*
X194095714Y-151620714D02*
X194095714Y-152287380D01*
X194333809Y-151239761D02*
X194571904Y-151954047D01*
X193952857Y-151954047D01*
X193381428Y-151287380D02*
X193286190Y-151287380D01*
X193190952Y-151335000D01*
X193143333Y-151382619D01*
X193095714Y-151477857D01*
X193048095Y-151668333D01*
X193048095Y-151906428D01*
X193095714Y-152096904D01*
X193143333Y-152192142D01*
X193190952Y-152239761D01*
X193286190Y-152287380D01*
X193381428Y-152287380D01*
X193476666Y-152239761D01*
X193524285Y-152192142D01*
X193571904Y-152096904D01*
X193619523Y-151906428D01*
X193619523Y-151668333D01*
X193571904Y-151477857D01*
X193524285Y-151382619D01*
X193476666Y-151335000D01*
X193381428Y-151287380D01*
X198381904Y-152657380D02*
X198381904Y-151657380D01*
X197810476Y-152657380D02*
X198239047Y-152085952D01*
X197810476Y-151657380D02*
X198381904Y-152228809D01*
%TO.C,D13*%
X81224285Y-95137380D02*
X81224285Y-94137380D01*
X80986190Y-94137380D01*
X80843333Y-94185000D01*
X80748095Y-94280238D01*
X80700476Y-94375476D01*
X80652857Y-94565952D01*
X80652857Y-94708809D01*
X80700476Y-94899285D01*
X80748095Y-94994523D01*
X80843333Y-95089761D01*
X80986190Y-95137380D01*
X81224285Y-95137380D01*
X79700476Y-95137380D02*
X80271904Y-95137380D01*
X79986190Y-95137380D02*
X79986190Y-94137380D01*
X80081428Y-94280238D01*
X80176666Y-94375476D01*
X80271904Y-94423095D01*
X79367142Y-94137380D02*
X78748095Y-94137380D01*
X79081428Y-94518333D01*
X78938571Y-94518333D01*
X78843333Y-94565952D01*
X78795714Y-94613571D01*
X78748095Y-94708809D01*
X78748095Y-94946904D01*
X78795714Y-95042142D01*
X78843333Y-95089761D01*
X78938571Y-95137380D01*
X79224285Y-95137380D01*
X79319523Y-95089761D01*
X79367142Y-95042142D01*
X84081904Y-95507380D02*
X84081904Y-94507380D01*
X83510476Y-95507380D02*
X83939047Y-94935952D01*
X83510476Y-94507380D02*
X84081904Y-95078809D01*
%TO.C,D29*%
X157424285Y-95137380D02*
X157424285Y-94137380D01*
X157186190Y-94137380D01*
X157043333Y-94185000D01*
X156948095Y-94280238D01*
X156900476Y-94375476D01*
X156852857Y-94565952D01*
X156852857Y-94708809D01*
X156900476Y-94899285D01*
X156948095Y-94994523D01*
X157043333Y-95089761D01*
X157186190Y-95137380D01*
X157424285Y-95137380D01*
X156471904Y-94232619D02*
X156424285Y-94185000D01*
X156329047Y-94137380D01*
X156090952Y-94137380D01*
X155995714Y-94185000D01*
X155948095Y-94232619D01*
X155900476Y-94327857D01*
X155900476Y-94423095D01*
X155948095Y-94565952D01*
X156519523Y-95137380D01*
X155900476Y-95137380D01*
X155424285Y-95137380D02*
X155233809Y-95137380D01*
X155138571Y-95089761D01*
X155090952Y-95042142D01*
X154995714Y-94899285D01*
X154948095Y-94708809D01*
X154948095Y-94327857D01*
X154995714Y-94232619D01*
X155043333Y-94185000D01*
X155138571Y-94137380D01*
X155329047Y-94137380D01*
X155424285Y-94185000D01*
X155471904Y-94232619D01*
X155519523Y-94327857D01*
X155519523Y-94565952D01*
X155471904Y-94661190D01*
X155424285Y-94708809D01*
X155329047Y-94756428D01*
X155138571Y-94756428D01*
X155043333Y-94708809D01*
X154995714Y-94661190D01*
X154948095Y-94565952D01*
X160281904Y-95507380D02*
X160281904Y-94507380D01*
X159710476Y-95507380D02*
X160139047Y-94935952D01*
X159710476Y-94507380D02*
X160281904Y-95078809D01*
%TO.C,D6*%
X42648095Y-114187380D02*
X42648095Y-113187380D01*
X42410000Y-113187380D01*
X42267142Y-113235000D01*
X42171904Y-113330238D01*
X42124285Y-113425476D01*
X42076666Y-113615952D01*
X42076666Y-113758809D01*
X42124285Y-113949285D01*
X42171904Y-114044523D01*
X42267142Y-114139761D01*
X42410000Y-114187380D01*
X42648095Y-114187380D01*
X41219523Y-113187380D02*
X41410000Y-113187380D01*
X41505238Y-113235000D01*
X41552857Y-113282619D01*
X41648095Y-113425476D01*
X41695714Y-113615952D01*
X41695714Y-113996904D01*
X41648095Y-114092142D01*
X41600476Y-114139761D01*
X41505238Y-114187380D01*
X41314761Y-114187380D01*
X41219523Y-114139761D01*
X41171904Y-114092142D01*
X41124285Y-113996904D01*
X41124285Y-113758809D01*
X41171904Y-113663571D01*
X41219523Y-113615952D01*
X41314761Y-113568333D01*
X41505238Y-113568333D01*
X41600476Y-113615952D01*
X41648095Y-113663571D01*
X41695714Y-113758809D01*
X45981904Y-114557380D02*
X45981904Y-113557380D01*
X45410476Y-114557380D02*
X45839047Y-113985952D01*
X45410476Y-113557380D02*
X45981904Y-114128809D01*
%TO.C,D5*%
X42648095Y-95137380D02*
X42648095Y-94137380D01*
X42410000Y-94137380D01*
X42267142Y-94185000D01*
X42171904Y-94280238D01*
X42124285Y-94375476D01*
X42076666Y-94565952D01*
X42076666Y-94708809D01*
X42124285Y-94899285D01*
X42171904Y-94994523D01*
X42267142Y-95089761D01*
X42410000Y-95137380D01*
X42648095Y-95137380D01*
X41171904Y-94137380D02*
X41648095Y-94137380D01*
X41695714Y-94613571D01*
X41648095Y-94565952D01*
X41552857Y-94518333D01*
X41314761Y-94518333D01*
X41219523Y-94565952D01*
X41171904Y-94613571D01*
X41124285Y-94708809D01*
X41124285Y-94946904D01*
X41171904Y-95042142D01*
X41219523Y-95089761D01*
X41314761Y-95137380D01*
X41552857Y-95137380D01*
X41648095Y-95089761D01*
X41695714Y-95042142D01*
X45981904Y-95507380D02*
X45981904Y-94507380D01*
X45410476Y-95507380D02*
X45839047Y-94935952D01*
X45410476Y-94507380D02*
X45981904Y-95078809D01*
%TO.C,D12*%
X62174285Y-152287380D02*
X62174285Y-151287380D01*
X61936190Y-151287380D01*
X61793333Y-151335000D01*
X61698095Y-151430238D01*
X61650476Y-151525476D01*
X61602857Y-151715952D01*
X61602857Y-151858809D01*
X61650476Y-152049285D01*
X61698095Y-152144523D01*
X61793333Y-152239761D01*
X61936190Y-152287380D01*
X62174285Y-152287380D01*
X60650476Y-152287380D02*
X61221904Y-152287380D01*
X60936190Y-152287380D02*
X60936190Y-151287380D01*
X61031428Y-151430238D01*
X61126666Y-151525476D01*
X61221904Y-151573095D01*
X60269523Y-151382619D02*
X60221904Y-151335000D01*
X60126666Y-151287380D01*
X59888571Y-151287380D01*
X59793333Y-151335000D01*
X59745714Y-151382619D01*
X59698095Y-151477857D01*
X59698095Y-151573095D01*
X59745714Y-151715952D01*
X60317142Y-152287380D01*
X59698095Y-152287380D01*
%TO.C,D32*%
X157424285Y-152287380D02*
X157424285Y-151287380D01*
X157186190Y-151287380D01*
X157043333Y-151335000D01*
X156948095Y-151430238D01*
X156900476Y-151525476D01*
X156852857Y-151715952D01*
X156852857Y-151858809D01*
X156900476Y-152049285D01*
X156948095Y-152144523D01*
X157043333Y-152239761D01*
X157186190Y-152287380D01*
X157424285Y-152287380D01*
X156519523Y-151287380D02*
X155900476Y-151287380D01*
X156233809Y-151668333D01*
X156090952Y-151668333D01*
X155995714Y-151715952D01*
X155948095Y-151763571D01*
X155900476Y-151858809D01*
X155900476Y-152096904D01*
X155948095Y-152192142D01*
X155995714Y-152239761D01*
X156090952Y-152287380D01*
X156376666Y-152287380D01*
X156471904Y-152239761D01*
X156519523Y-152192142D01*
X155519523Y-151382619D02*
X155471904Y-151335000D01*
X155376666Y-151287380D01*
X155138571Y-151287380D01*
X155043333Y-151335000D01*
X154995714Y-151382619D01*
X154948095Y-151477857D01*
X154948095Y-151573095D01*
X154995714Y-151715952D01*
X155567142Y-152287380D01*
X154948095Y-152287380D01*
X160281904Y-152657380D02*
X160281904Y-151657380D01*
X159710476Y-152657380D02*
X160139047Y-152085952D01*
X159710476Y-151657380D02*
X160281904Y-152228809D01*
%TO.C,D44*%
X214574285Y-152287380D02*
X214574285Y-151287380D01*
X214336190Y-151287380D01*
X214193333Y-151335000D01*
X214098095Y-151430238D01*
X214050476Y-151525476D01*
X214002857Y-151715952D01*
X214002857Y-151858809D01*
X214050476Y-152049285D01*
X214098095Y-152144523D01*
X214193333Y-152239761D01*
X214336190Y-152287380D01*
X214574285Y-152287380D01*
X213145714Y-151620714D02*
X213145714Y-152287380D01*
X213383809Y-151239761D02*
X213621904Y-151954047D01*
X213002857Y-151954047D01*
X212193333Y-151620714D02*
X212193333Y-152287380D01*
X212431428Y-151239761D02*
X212669523Y-151954047D01*
X212050476Y-151954047D01*
X217431904Y-152657380D02*
X217431904Y-151657380D01*
X216860476Y-152657380D02*
X217289047Y-152085952D01*
X216860476Y-151657380D02*
X217431904Y-152228809D01*
%TO.C,D8*%
X42648095Y-152287380D02*
X42648095Y-151287380D01*
X42410000Y-151287380D01*
X42267142Y-151335000D01*
X42171904Y-151430238D01*
X42124285Y-151525476D01*
X42076666Y-151715952D01*
X42076666Y-151858809D01*
X42124285Y-152049285D01*
X42171904Y-152144523D01*
X42267142Y-152239761D01*
X42410000Y-152287380D01*
X42648095Y-152287380D01*
X41505238Y-151715952D02*
X41600476Y-151668333D01*
X41648095Y-151620714D01*
X41695714Y-151525476D01*
X41695714Y-151477857D01*
X41648095Y-151382619D01*
X41600476Y-151335000D01*
X41505238Y-151287380D01*
X41314761Y-151287380D01*
X41219523Y-151335000D01*
X41171904Y-151382619D01*
X41124285Y-151477857D01*
X41124285Y-151525476D01*
X41171904Y-151620714D01*
X41219523Y-151668333D01*
X41314761Y-151715952D01*
X41505238Y-151715952D01*
X41600476Y-151763571D01*
X41648095Y-151811190D01*
X41695714Y-151906428D01*
X41695714Y-152096904D01*
X41648095Y-152192142D01*
X41600476Y-152239761D01*
X41505238Y-152287380D01*
X41314761Y-152287380D01*
X41219523Y-152239761D01*
X41171904Y-152192142D01*
X41124285Y-152096904D01*
X41124285Y-151906428D01*
X41171904Y-151811190D01*
X41219523Y-151763571D01*
X41314761Y-151715952D01*
X45981904Y-152657380D02*
X45981904Y-151657380D01*
X45410476Y-152657380D02*
X45839047Y-152085952D01*
X45410476Y-151657380D02*
X45981904Y-152228809D01*
%TO.C,D9*%
X61698095Y-95137380D02*
X61698095Y-94137380D01*
X61460000Y-94137380D01*
X61317142Y-94185000D01*
X61221904Y-94280238D01*
X61174285Y-94375476D01*
X61126666Y-94565952D01*
X61126666Y-94708809D01*
X61174285Y-94899285D01*
X61221904Y-94994523D01*
X61317142Y-95089761D01*
X61460000Y-95137380D01*
X61698095Y-95137380D01*
X60650476Y-95137380D02*
X60460000Y-95137380D01*
X60364761Y-95089761D01*
X60317142Y-95042142D01*
X60221904Y-94899285D01*
X60174285Y-94708809D01*
X60174285Y-94327857D01*
X60221904Y-94232619D01*
X60269523Y-94185000D01*
X60364761Y-94137380D01*
X60555238Y-94137380D01*
X60650476Y-94185000D01*
X60698095Y-94232619D01*
X60745714Y-94327857D01*
X60745714Y-94565952D01*
X60698095Y-94661190D01*
X60650476Y-94708809D01*
X60555238Y-94756428D01*
X60364761Y-94756428D01*
X60269523Y-94708809D01*
X60221904Y-94661190D01*
X60174285Y-94565952D01*
X65031904Y-95507380D02*
X65031904Y-94507380D01*
X64460476Y-95507380D02*
X64889047Y-94935952D01*
X64460476Y-94507380D02*
X65031904Y-95078809D01*
%TO.C,D14*%
X81224285Y-114187380D02*
X81224285Y-113187380D01*
X80986190Y-113187380D01*
X80843333Y-113235000D01*
X80748095Y-113330238D01*
X80700476Y-113425476D01*
X80652857Y-113615952D01*
X80652857Y-113758809D01*
X80700476Y-113949285D01*
X80748095Y-114044523D01*
X80843333Y-114139761D01*
X80986190Y-114187380D01*
X81224285Y-114187380D01*
X79700476Y-114187380D02*
X80271904Y-114187380D01*
X79986190Y-114187380D02*
X79986190Y-113187380D01*
X80081428Y-113330238D01*
X80176666Y-113425476D01*
X80271904Y-113473095D01*
X78843333Y-113520714D02*
X78843333Y-114187380D01*
X79081428Y-113139761D02*
X79319523Y-113854047D01*
X78700476Y-113854047D01*
X84081904Y-114557380D02*
X84081904Y-113557380D01*
X83510476Y-114557380D02*
X83939047Y-113985952D01*
X83510476Y-113557380D02*
X84081904Y-114128809D01*
%TO.C,D20*%
X100274285Y-152287380D02*
X100274285Y-151287380D01*
X100036190Y-151287380D01*
X99893333Y-151335000D01*
X99798095Y-151430238D01*
X99750476Y-151525476D01*
X99702857Y-151715952D01*
X99702857Y-151858809D01*
X99750476Y-152049285D01*
X99798095Y-152144523D01*
X99893333Y-152239761D01*
X100036190Y-152287380D01*
X100274285Y-152287380D01*
X99321904Y-151382619D02*
X99274285Y-151335000D01*
X99179047Y-151287380D01*
X98940952Y-151287380D01*
X98845714Y-151335000D01*
X98798095Y-151382619D01*
X98750476Y-151477857D01*
X98750476Y-151573095D01*
X98798095Y-151715952D01*
X99369523Y-152287380D01*
X98750476Y-152287380D01*
X98131428Y-151287380D02*
X98036190Y-151287380D01*
X97940952Y-151335000D01*
X97893333Y-151382619D01*
X97845714Y-151477857D01*
X97798095Y-151668333D01*
X97798095Y-151906428D01*
X97845714Y-152096904D01*
X97893333Y-152192142D01*
X97940952Y-152239761D01*
X98036190Y-152287380D01*
X98131428Y-152287380D01*
X98226666Y-152239761D01*
X98274285Y-152192142D01*
X98321904Y-152096904D01*
X98369523Y-151906428D01*
X98369523Y-151668333D01*
X98321904Y-151477857D01*
X98274285Y-151382619D01*
X98226666Y-151335000D01*
X98131428Y-151287380D01*
X103131904Y-152657380D02*
X103131904Y-151657380D01*
X102560476Y-152657380D02*
X102989047Y-152085952D01*
X102560476Y-151657380D02*
X103131904Y-152228809D01*
%TO.C,D46*%
X233624285Y-95137380D02*
X233624285Y-94137380D01*
X233386190Y-94137380D01*
X233243333Y-94185000D01*
X233148095Y-94280238D01*
X233100476Y-94375476D01*
X233052857Y-94565952D01*
X233052857Y-94708809D01*
X233100476Y-94899285D01*
X233148095Y-94994523D01*
X233243333Y-95089761D01*
X233386190Y-95137380D01*
X233624285Y-95137380D01*
X232195714Y-94470714D02*
X232195714Y-95137380D01*
X232433809Y-94089761D02*
X232671904Y-94804047D01*
X232052857Y-94804047D01*
X231243333Y-94137380D02*
X231433809Y-94137380D01*
X231529047Y-94185000D01*
X231576666Y-94232619D01*
X231671904Y-94375476D01*
X231719523Y-94565952D01*
X231719523Y-94946904D01*
X231671904Y-95042142D01*
X231624285Y-95089761D01*
X231529047Y-95137380D01*
X231338571Y-95137380D01*
X231243333Y-95089761D01*
X231195714Y-95042142D01*
X231148095Y-94946904D01*
X231148095Y-94708809D01*
X231195714Y-94613571D01*
X231243333Y-94565952D01*
X231338571Y-94518333D01*
X231529047Y-94518333D01*
X231624285Y-94565952D01*
X231671904Y-94613571D01*
X231719523Y-94708809D01*
X236481904Y-95507380D02*
X236481904Y-94507380D01*
X235910476Y-95507380D02*
X236339047Y-94935952D01*
X235910476Y-94507380D02*
X236481904Y-95078809D01*
%TO.C,D18*%
X100274285Y-114187380D02*
X100274285Y-113187380D01*
X100036190Y-113187380D01*
X99893333Y-113235000D01*
X99798095Y-113330238D01*
X99750476Y-113425476D01*
X99702857Y-113615952D01*
X99702857Y-113758809D01*
X99750476Y-113949285D01*
X99798095Y-114044523D01*
X99893333Y-114139761D01*
X100036190Y-114187380D01*
X100274285Y-114187380D01*
X98750476Y-114187380D02*
X99321904Y-114187380D01*
X99036190Y-114187380D02*
X99036190Y-113187380D01*
X99131428Y-113330238D01*
X99226666Y-113425476D01*
X99321904Y-113473095D01*
X98179047Y-113615952D02*
X98274285Y-113568333D01*
X98321904Y-113520714D01*
X98369523Y-113425476D01*
X98369523Y-113377857D01*
X98321904Y-113282619D01*
X98274285Y-113235000D01*
X98179047Y-113187380D01*
X97988571Y-113187380D01*
X97893333Y-113235000D01*
X97845714Y-113282619D01*
X97798095Y-113377857D01*
X97798095Y-113425476D01*
X97845714Y-113520714D01*
X97893333Y-113568333D01*
X97988571Y-113615952D01*
X98179047Y-113615952D01*
X98274285Y-113663571D01*
X98321904Y-113711190D01*
X98369523Y-113806428D01*
X98369523Y-113996904D01*
X98321904Y-114092142D01*
X98274285Y-114139761D01*
X98179047Y-114187380D01*
X97988571Y-114187380D01*
X97893333Y-114139761D01*
X97845714Y-114092142D01*
X97798095Y-113996904D01*
X97798095Y-113806428D01*
X97845714Y-113711190D01*
X97893333Y-113663571D01*
X97988571Y-113615952D01*
X103131904Y-114557380D02*
X103131904Y-113557380D01*
X102560476Y-114557380D02*
X102989047Y-113985952D01*
X102560476Y-113557380D02*
X103131904Y-114128809D01*
%TO.C,D47*%
X233624285Y-114187380D02*
X233624285Y-113187380D01*
X233386190Y-113187380D01*
X233243333Y-113235000D01*
X233148095Y-113330238D01*
X233100476Y-113425476D01*
X233052857Y-113615952D01*
X233052857Y-113758809D01*
X233100476Y-113949285D01*
X233148095Y-114044523D01*
X233243333Y-114139761D01*
X233386190Y-114187380D01*
X233624285Y-114187380D01*
X232195714Y-113520714D02*
X232195714Y-114187380D01*
X232433809Y-113139761D02*
X232671904Y-113854047D01*
X232052857Y-113854047D01*
X231767142Y-113187380D02*
X231100476Y-113187380D01*
X231529047Y-114187380D01*
X236481904Y-114557380D02*
X236481904Y-113557380D01*
X235910476Y-114557380D02*
X236339047Y-113985952D01*
X235910476Y-113557380D02*
X236481904Y-114128809D01*
%TO.C,D24*%
X119324285Y-152287380D02*
X119324285Y-151287380D01*
X119086190Y-151287380D01*
X118943333Y-151335000D01*
X118848095Y-151430238D01*
X118800476Y-151525476D01*
X118752857Y-151715952D01*
X118752857Y-151858809D01*
X118800476Y-152049285D01*
X118848095Y-152144523D01*
X118943333Y-152239761D01*
X119086190Y-152287380D01*
X119324285Y-152287380D01*
X118371904Y-151382619D02*
X118324285Y-151335000D01*
X118229047Y-151287380D01*
X117990952Y-151287380D01*
X117895714Y-151335000D01*
X117848095Y-151382619D01*
X117800476Y-151477857D01*
X117800476Y-151573095D01*
X117848095Y-151715952D01*
X118419523Y-152287380D01*
X117800476Y-152287380D01*
X116943333Y-151620714D02*
X116943333Y-152287380D01*
X117181428Y-151239761D02*
X117419523Y-151954047D01*
X116800476Y-151954047D01*
X122181904Y-152657380D02*
X122181904Y-151657380D01*
X121610476Y-152657380D02*
X122039047Y-152085952D01*
X121610476Y-151657380D02*
X122181904Y-152228809D01*
%TO.C,D22*%
X119324285Y-114187380D02*
X119324285Y-113187380D01*
X119086190Y-113187380D01*
X118943333Y-113235000D01*
X118848095Y-113330238D01*
X118800476Y-113425476D01*
X118752857Y-113615952D01*
X118752857Y-113758809D01*
X118800476Y-113949285D01*
X118848095Y-114044523D01*
X118943333Y-114139761D01*
X119086190Y-114187380D01*
X119324285Y-114187380D01*
X118371904Y-113282619D02*
X118324285Y-113235000D01*
X118229047Y-113187380D01*
X117990952Y-113187380D01*
X117895714Y-113235000D01*
X117848095Y-113282619D01*
X117800476Y-113377857D01*
X117800476Y-113473095D01*
X117848095Y-113615952D01*
X118419523Y-114187380D01*
X117800476Y-114187380D01*
X117419523Y-113282619D02*
X117371904Y-113235000D01*
X117276666Y-113187380D01*
X117038571Y-113187380D01*
X116943333Y-113235000D01*
X116895714Y-113282619D01*
X116848095Y-113377857D01*
X116848095Y-113473095D01*
X116895714Y-113615952D01*
X117467142Y-114187380D01*
X116848095Y-114187380D01*
X122181904Y-114557380D02*
X122181904Y-113557380D01*
X121610476Y-114557380D02*
X122039047Y-113985952D01*
X121610476Y-113557380D02*
X122181904Y-114128809D01*
%TO.C,D4*%
X23598095Y-152287380D02*
X23598095Y-151287380D01*
X23360000Y-151287380D01*
X23217142Y-151335000D01*
X23121904Y-151430238D01*
X23074285Y-151525476D01*
X23026666Y-151715952D01*
X23026666Y-151858809D01*
X23074285Y-152049285D01*
X23121904Y-152144523D01*
X23217142Y-152239761D01*
X23360000Y-152287380D01*
X23598095Y-152287380D01*
X22169523Y-151620714D02*
X22169523Y-152287380D01*
X22407619Y-151239761D02*
X22645714Y-151954047D01*
X22026666Y-151954047D01*
X26931904Y-152657380D02*
X26931904Y-151657380D01*
X26360476Y-152657380D02*
X26789047Y-152085952D01*
X26360476Y-151657380D02*
X26931904Y-152228809D01*
%TO.C,D3*%
X23598095Y-133237380D02*
X23598095Y-132237380D01*
X23360000Y-132237380D01*
X23217142Y-132285000D01*
X23121904Y-132380238D01*
X23074285Y-132475476D01*
X23026666Y-132665952D01*
X23026666Y-132808809D01*
X23074285Y-132999285D01*
X23121904Y-133094523D01*
X23217142Y-133189761D01*
X23360000Y-133237380D01*
X23598095Y-133237380D01*
X22693333Y-132237380D02*
X22074285Y-132237380D01*
X22407619Y-132618333D01*
X22264761Y-132618333D01*
X22169523Y-132665952D01*
X22121904Y-132713571D01*
X22074285Y-132808809D01*
X22074285Y-133046904D01*
X22121904Y-133142142D01*
X22169523Y-133189761D01*
X22264761Y-133237380D01*
X22550476Y-133237380D01*
X22645714Y-133189761D01*
X22693333Y-133142142D01*
X26931904Y-133607380D02*
X26931904Y-132607380D01*
X26360476Y-133607380D02*
X26789047Y-133035952D01*
X26360476Y-132607380D02*
X26931904Y-133178809D01*
%TO.C,D1*%
X23598095Y-95137380D02*
X23598095Y-94137380D01*
X23360000Y-94137380D01*
X23217142Y-94185000D01*
X23121904Y-94280238D01*
X23074285Y-94375476D01*
X23026666Y-94565952D01*
X23026666Y-94708809D01*
X23074285Y-94899285D01*
X23121904Y-94994523D01*
X23217142Y-95089761D01*
X23360000Y-95137380D01*
X23598095Y-95137380D01*
X22074285Y-95137380D02*
X22645714Y-95137380D01*
X22360000Y-95137380D02*
X22360000Y-94137380D01*
X22455238Y-94280238D01*
X22550476Y-94375476D01*
X22645714Y-94423095D01*
X26931904Y-95507380D02*
X26931904Y-94507380D01*
X26360476Y-95507380D02*
X26789047Y-94935952D01*
X26360476Y-94507380D02*
X26931904Y-95078809D01*
%TO.C,D33*%
X176474285Y-95137380D02*
X176474285Y-94137380D01*
X176236190Y-94137380D01*
X176093333Y-94185000D01*
X175998095Y-94280238D01*
X175950476Y-94375476D01*
X175902857Y-94565952D01*
X175902857Y-94708809D01*
X175950476Y-94899285D01*
X175998095Y-94994523D01*
X176093333Y-95089761D01*
X176236190Y-95137380D01*
X176474285Y-95137380D01*
X175569523Y-94137380D02*
X174950476Y-94137380D01*
X175283809Y-94518333D01*
X175140952Y-94518333D01*
X175045714Y-94565952D01*
X174998095Y-94613571D01*
X174950476Y-94708809D01*
X174950476Y-94946904D01*
X174998095Y-95042142D01*
X175045714Y-95089761D01*
X175140952Y-95137380D01*
X175426666Y-95137380D01*
X175521904Y-95089761D01*
X175569523Y-95042142D01*
X174617142Y-94137380D02*
X173998095Y-94137380D01*
X174331428Y-94518333D01*
X174188571Y-94518333D01*
X174093333Y-94565952D01*
X174045714Y-94613571D01*
X173998095Y-94708809D01*
X173998095Y-94946904D01*
X174045714Y-95042142D01*
X174093333Y-95089761D01*
X174188571Y-95137380D01*
X174474285Y-95137380D01*
X174569523Y-95089761D01*
X174617142Y-95042142D01*
X179331904Y-95507380D02*
X179331904Y-94507380D01*
X178760476Y-95507380D02*
X179189047Y-94935952D01*
X178760476Y-94507380D02*
X179331904Y-95078809D01*
%TO.C,D2*%
X23598095Y-114187380D02*
X23598095Y-113187380D01*
X23360000Y-113187380D01*
X23217142Y-113235000D01*
X23121904Y-113330238D01*
X23074285Y-113425476D01*
X23026666Y-113615952D01*
X23026666Y-113758809D01*
X23074285Y-113949285D01*
X23121904Y-114044523D01*
X23217142Y-114139761D01*
X23360000Y-114187380D01*
X23598095Y-114187380D01*
X22645714Y-113282619D02*
X22598095Y-113235000D01*
X22502857Y-113187380D01*
X22264761Y-113187380D01*
X22169523Y-113235000D01*
X22121904Y-113282619D01*
X22074285Y-113377857D01*
X22074285Y-113473095D01*
X22121904Y-113615952D01*
X22693333Y-114187380D01*
X22074285Y-114187380D01*
X26931904Y-114557380D02*
X26931904Y-113557380D01*
X26360476Y-114557380D02*
X26789047Y-113985952D01*
X26360476Y-113557380D02*
X26931904Y-114128809D01*
%TO.C,D39*%
X195524285Y-133237380D02*
X195524285Y-132237380D01*
X195286190Y-132237380D01*
X195143333Y-132285000D01*
X195048095Y-132380238D01*
X195000476Y-132475476D01*
X194952857Y-132665952D01*
X194952857Y-132808809D01*
X195000476Y-132999285D01*
X195048095Y-133094523D01*
X195143333Y-133189761D01*
X195286190Y-133237380D01*
X195524285Y-133237380D01*
X194619523Y-132237380D02*
X194000476Y-132237380D01*
X194333809Y-132618333D01*
X194190952Y-132618333D01*
X194095714Y-132665952D01*
X194048095Y-132713571D01*
X194000476Y-132808809D01*
X194000476Y-133046904D01*
X194048095Y-133142142D01*
X194095714Y-133189761D01*
X194190952Y-133237380D01*
X194476666Y-133237380D01*
X194571904Y-133189761D01*
X194619523Y-133142142D01*
X193524285Y-133237380D02*
X193333809Y-133237380D01*
X193238571Y-133189761D01*
X193190952Y-133142142D01*
X193095714Y-132999285D01*
X193048095Y-132808809D01*
X193048095Y-132427857D01*
X193095714Y-132332619D01*
X193143333Y-132285000D01*
X193238571Y-132237380D01*
X193429047Y-132237380D01*
X193524285Y-132285000D01*
X193571904Y-132332619D01*
X193619523Y-132427857D01*
X193619523Y-132665952D01*
X193571904Y-132761190D01*
X193524285Y-132808809D01*
X193429047Y-132856428D01*
X193238571Y-132856428D01*
X193143333Y-132808809D01*
X193095714Y-132761190D01*
X193048095Y-132665952D01*
X198381904Y-133607380D02*
X198381904Y-132607380D01*
X197810476Y-133607380D02*
X198239047Y-133035952D01*
X197810476Y-132607380D02*
X198381904Y-133178809D01*
%TO.C,D26*%
X138374285Y-114187380D02*
X138374285Y-113187380D01*
X138136190Y-113187380D01*
X137993333Y-113235000D01*
X137898095Y-113330238D01*
X137850476Y-113425476D01*
X137802857Y-113615952D01*
X137802857Y-113758809D01*
X137850476Y-113949285D01*
X137898095Y-114044523D01*
X137993333Y-114139761D01*
X138136190Y-114187380D01*
X138374285Y-114187380D01*
X137421904Y-113282619D02*
X137374285Y-113235000D01*
X137279047Y-113187380D01*
X137040952Y-113187380D01*
X136945714Y-113235000D01*
X136898095Y-113282619D01*
X136850476Y-113377857D01*
X136850476Y-113473095D01*
X136898095Y-113615952D01*
X137469523Y-114187380D01*
X136850476Y-114187380D01*
X135993333Y-113187380D02*
X136183809Y-113187380D01*
X136279047Y-113235000D01*
X136326666Y-113282619D01*
X136421904Y-113425476D01*
X136469523Y-113615952D01*
X136469523Y-113996904D01*
X136421904Y-114092142D01*
X136374285Y-114139761D01*
X136279047Y-114187380D01*
X136088571Y-114187380D01*
X135993333Y-114139761D01*
X135945714Y-114092142D01*
X135898095Y-113996904D01*
X135898095Y-113758809D01*
X135945714Y-113663571D01*
X135993333Y-113615952D01*
X136088571Y-113568333D01*
X136279047Y-113568333D01*
X136374285Y-113615952D01*
X136421904Y-113663571D01*
X136469523Y-113758809D01*
X141231904Y-114557380D02*
X141231904Y-113557380D01*
X140660476Y-114557380D02*
X141089047Y-113985952D01*
X140660476Y-113557380D02*
X141231904Y-114128809D01*
%TO.C,D48*%
X233624285Y-133237380D02*
X233624285Y-132237380D01*
X233386190Y-132237380D01*
X233243333Y-132285000D01*
X233148095Y-132380238D01*
X233100476Y-132475476D01*
X233052857Y-132665952D01*
X233052857Y-132808809D01*
X233100476Y-132999285D01*
X233148095Y-133094523D01*
X233243333Y-133189761D01*
X233386190Y-133237380D01*
X233624285Y-133237380D01*
X232195714Y-132570714D02*
X232195714Y-133237380D01*
X232433809Y-132189761D02*
X232671904Y-132904047D01*
X232052857Y-132904047D01*
X231529047Y-132665952D02*
X231624285Y-132618333D01*
X231671904Y-132570714D01*
X231719523Y-132475476D01*
X231719523Y-132427857D01*
X231671904Y-132332619D01*
X231624285Y-132285000D01*
X231529047Y-132237380D01*
X231338571Y-132237380D01*
X231243333Y-132285000D01*
X231195714Y-132332619D01*
X231148095Y-132427857D01*
X231148095Y-132475476D01*
X231195714Y-132570714D01*
X231243333Y-132618333D01*
X231338571Y-132665952D01*
X231529047Y-132665952D01*
X231624285Y-132713571D01*
X231671904Y-132761190D01*
X231719523Y-132856428D01*
X231719523Y-133046904D01*
X231671904Y-133142142D01*
X231624285Y-133189761D01*
X231529047Y-133237380D01*
X231338571Y-133237380D01*
X231243333Y-133189761D01*
X231195714Y-133142142D01*
X231148095Y-133046904D01*
X231148095Y-132856428D01*
X231195714Y-132761190D01*
X231243333Y-132713571D01*
X231338571Y-132665952D01*
X236481904Y-133607380D02*
X236481904Y-132607380D01*
X235910476Y-133607380D02*
X236339047Y-133035952D01*
X235910476Y-132607380D02*
X236481904Y-133178809D01*
%TO.C,D36*%
X176474285Y-152287380D02*
X176474285Y-151287380D01*
X176236190Y-151287380D01*
X176093333Y-151335000D01*
X175998095Y-151430238D01*
X175950476Y-151525476D01*
X175902857Y-151715952D01*
X175902857Y-151858809D01*
X175950476Y-152049285D01*
X175998095Y-152144523D01*
X176093333Y-152239761D01*
X176236190Y-152287380D01*
X176474285Y-152287380D01*
X175569523Y-151287380D02*
X174950476Y-151287380D01*
X175283809Y-151668333D01*
X175140952Y-151668333D01*
X175045714Y-151715952D01*
X174998095Y-151763571D01*
X174950476Y-151858809D01*
X174950476Y-152096904D01*
X174998095Y-152192142D01*
X175045714Y-152239761D01*
X175140952Y-152287380D01*
X175426666Y-152287380D01*
X175521904Y-152239761D01*
X175569523Y-152192142D01*
X174093333Y-151287380D02*
X174283809Y-151287380D01*
X174379047Y-151335000D01*
X174426666Y-151382619D01*
X174521904Y-151525476D01*
X174569523Y-151715952D01*
X174569523Y-152096904D01*
X174521904Y-152192142D01*
X174474285Y-152239761D01*
X174379047Y-152287380D01*
X174188571Y-152287380D01*
X174093333Y-152239761D01*
X174045714Y-152192142D01*
X173998095Y-152096904D01*
X173998095Y-151858809D01*
X174045714Y-151763571D01*
X174093333Y-151715952D01*
X174188571Y-151668333D01*
X174379047Y-151668333D01*
X174474285Y-151715952D01*
X174521904Y-151763571D01*
X174569523Y-151858809D01*
X179331904Y-152657380D02*
X179331904Y-151657380D01*
X178760476Y-152657380D02*
X179189047Y-152085952D01*
X178760476Y-151657380D02*
X179331904Y-152228809D01*
%TO.C,D30*%
X157424285Y-114187380D02*
X157424285Y-113187380D01*
X157186190Y-113187380D01*
X157043333Y-113235000D01*
X156948095Y-113330238D01*
X156900476Y-113425476D01*
X156852857Y-113615952D01*
X156852857Y-113758809D01*
X156900476Y-113949285D01*
X156948095Y-114044523D01*
X157043333Y-114139761D01*
X157186190Y-114187380D01*
X157424285Y-114187380D01*
X156519523Y-113187380D02*
X155900476Y-113187380D01*
X156233809Y-113568333D01*
X156090952Y-113568333D01*
X155995714Y-113615952D01*
X155948095Y-113663571D01*
X155900476Y-113758809D01*
X155900476Y-113996904D01*
X155948095Y-114092142D01*
X155995714Y-114139761D01*
X156090952Y-114187380D01*
X156376666Y-114187380D01*
X156471904Y-114139761D01*
X156519523Y-114092142D01*
X155281428Y-113187380D02*
X155186190Y-113187380D01*
X155090952Y-113235000D01*
X155043333Y-113282619D01*
X154995714Y-113377857D01*
X154948095Y-113568333D01*
X154948095Y-113806428D01*
X154995714Y-113996904D01*
X155043333Y-114092142D01*
X155090952Y-114139761D01*
X155186190Y-114187380D01*
X155281428Y-114187380D01*
X155376666Y-114139761D01*
X155424285Y-114092142D01*
X155471904Y-113996904D01*
X155519523Y-113806428D01*
X155519523Y-113568333D01*
X155471904Y-113377857D01*
X155424285Y-113282619D01*
X155376666Y-113235000D01*
X155281428Y-113187380D01*
X160281904Y-114557380D02*
X160281904Y-113557380D01*
X159710476Y-114557380D02*
X160139047Y-113985952D01*
X159710476Y-113557380D02*
X160281904Y-114128809D01*
D11*
%TO.C,D45*%
X229690000Y-152835000D02*
X229690000Y-152965000D01*
X235130000Y-152835000D02*
X229690000Y-152835000D01*
X234230000Y-152835000D02*
X234230000Y-155775000D01*
X234110000Y-152835000D02*
X234110000Y-155775000D01*
X235130000Y-152965000D02*
X235130000Y-152835000D01*
X234350000Y-152835000D02*
X234350000Y-155775000D01*
X235130000Y-155645000D02*
X235130000Y-155775000D01*
X229690000Y-155775000D02*
X229690000Y-155645000D01*
X235130000Y-155775000D02*
X229690000Y-155775000D01*
%TO.C,D17*%
X101780000Y-98625000D02*
X96340000Y-98625000D01*
X101780000Y-95685000D02*
X96340000Y-95685000D01*
X96340000Y-98625000D02*
X96340000Y-98495000D01*
X101780000Y-95815000D02*
X101780000Y-95685000D01*
X96340000Y-95685000D02*
X96340000Y-95815000D01*
X101000000Y-95685000D02*
X101000000Y-98625000D01*
X100760000Y-95685000D02*
X100760000Y-98625000D01*
X101780000Y-98495000D02*
X101780000Y-98625000D01*
X100880000Y-95685000D02*
X100880000Y-98625000D01*
%TO.C,D25*%
X139880000Y-95685000D02*
X134440000Y-95685000D01*
X139100000Y-95685000D02*
X139100000Y-98625000D01*
X139880000Y-98625000D02*
X134440000Y-98625000D01*
X139880000Y-95815000D02*
X139880000Y-95685000D01*
X139880000Y-98495000D02*
X139880000Y-98625000D01*
X134440000Y-98625000D02*
X134440000Y-98495000D01*
X138860000Y-95685000D02*
X138860000Y-98625000D01*
X134440000Y-95685000D02*
X134440000Y-95815000D01*
X138980000Y-95685000D02*
X138980000Y-98625000D01*
%TO.C,D23*%
X115390000Y-136725000D02*
X115390000Y-136595000D01*
X119810000Y-133785000D02*
X119810000Y-136725000D01*
X120050000Y-133785000D02*
X120050000Y-136725000D01*
X120830000Y-136725000D02*
X115390000Y-136725000D01*
X120830000Y-136595000D02*
X120830000Y-136725000D01*
X120830000Y-133915000D02*
X120830000Y-133785000D01*
X119930000Y-133785000D02*
X119930000Y-136725000D01*
X115390000Y-133785000D02*
X115390000Y-133915000D01*
X120830000Y-133785000D02*
X115390000Y-133785000D01*
%TO.C,D7*%
X43610000Y-133785000D02*
X43610000Y-136725000D01*
X39190000Y-136725000D02*
X39190000Y-136595000D01*
X43850000Y-133785000D02*
X43850000Y-136725000D01*
X43730000Y-133785000D02*
X43730000Y-136725000D01*
X44630000Y-133915000D02*
X44630000Y-133785000D01*
X39190000Y-133785000D02*
X39190000Y-133915000D01*
X44630000Y-133785000D02*
X39190000Y-133785000D01*
X44630000Y-136595000D02*
X44630000Y-136725000D01*
X44630000Y-136725000D02*
X39190000Y-136725000D01*
%TO.C,D37*%
X197030000Y-98495000D02*
X197030000Y-98625000D01*
X197030000Y-95685000D02*
X191590000Y-95685000D01*
X196010000Y-95685000D02*
X196010000Y-98625000D01*
X197030000Y-98625000D02*
X191590000Y-98625000D01*
X196130000Y-95685000D02*
X196130000Y-98625000D01*
X191590000Y-98625000D02*
X191590000Y-98495000D01*
X191590000Y-95685000D02*
X191590000Y-95815000D01*
X196250000Y-95685000D02*
X196250000Y-98625000D01*
X197030000Y-95815000D02*
X197030000Y-95685000D01*
%TO.C,D41*%
X216080000Y-95815000D02*
X216080000Y-95685000D01*
X216080000Y-95685000D02*
X210640000Y-95685000D01*
X210640000Y-98625000D02*
X210640000Y-98495000D01*
X215300000Y-95685000D02*
X215300000Y-98625000D01*
X210640000Y-95685000D02*
X210640000Y-95815000D01*
X216080000Y-98495000D02*
X216080000Y-98625000D01*
X216080000Y-98625000D02*
X210640000Y-98625000D01*
X215180000Y-95685000D02*
X215180000Y-98625000D01*
X215060000Y-95685000D02*
X215060000Y-98625000D01*
%TO.C,D28*%
X139880000Y-152835000D02*
X134440000Y-152835000D01*
X139880000Y-152965000D02*
X139880000Y-152835000D01*
X134440000Y-155775000D02*
X134440000Y-155645000D01*
X138980000Y-152835000D02*
X138980000Y-155775000D01*
X139880000Y-155645000D02*
X139880000Y-155775000D01*
X138860000Y-152835000D02*
X138860000Y-155775000D01*
X139880000Y-155775000D02*
X134440000Y-155775000D01*
X139100000Y-152835000D02*
X139100000Y-155775000D01*
X134440000Y-152835000D02*
X134440000Y-152965000D01*
%TO.C,D11*%
X62900000Y-133785000D02*
X62900000Y-136725000D01*
X58240000Y-133785000D02*
X58240000Y-133915000D01*
X63680000Y-136725000D02*
X58240000Y-136725000D01*
X62660000Y-133785000D02*
X62660000Y-136725000D01*
X62780000Y-133785000D02*
X62780000Y-136725000D01*
X63680000Y-133785000D02*
X58240000Y-133785000D01*
X63680000Y-136595000D02*
X63680000Y-136725000D01*
X63680000Y-133915000D02*
X63680000Y-133785000D01*
X58240000Y-136725000D02*
X58240000Y-136595000D01*
%TO.C,D43*%
X215180000Y-133658000D02*
X215180000Y-136598000D01*
X210640000Y-133658000D02*
X210640000Y-133788000D01*
X216080000Y-133658000D02*
X210640000Y-133658000D01*
X216080000Y-136468000D02*
X216080000Y-136598000D01*
X210640000Y-136598000D02*
X210640000Y-136468000D01*
X216080000Y-136598000D02*
X210640000Y-136598000D01*
X215060000Y-133658000D02*
X215060000Y-136598000D01*
X215300000Y-133658000D02*
X215300000Y-136598000D01*
X216080000Y-133788000D02*
X216080000Y-133658000D01*
%TO.C,D21*%
X115390000Y-98625000D02*
X115390000Y-98495000D01*
X120830000Y-95685000D02*
X115390000Y-95685000D01*
X120830000Y-98625000D02*
X115390000Y-98625000D01*
X115390000Y-95685000D02*
X115390000Y-95815000D01*
X120050000Y-95685000D02*
X120050000Y-98625000D01*
X120830000Y-98495000D02*
X120830000Y-98625000D01*
X120830000Y-95815000D02*
X120830000Y-95685000D01*
X119810000Y-95685000D02*
X119810000Y-98625000D01*
X119930000Y-95685000D02*
X119930000Y-98625000D01*
%TO.C,D27*%
X139880000Y-133915000D02*
X139880000Y-133785000D01*
X139880000Y-133785000D02*
X134440000Y-133785000D01*
X134440000Y-136725000D02*
X134440000Y-136595000D01*
X139880000Y-136725000D02*
X134440000Y-136725000D01*
X139880000Y-136595000D02*
X139880000Y-136725000D01*
X139100000Y-133785000D02*
X139100000Y-136725000D01*
X138980000Y-133785000D02*
X138980000Y-136725000D01*
X138860000Y-133785000D02*
X138860000Y-136725000D01*
X134440000Y-133785000D02*
X134440000Y-133915000D01*
%TO.C,D35*%
X176960000Y-133785000D02*
X176960000Y-136725000D01*
X177980000Y-136725000D02*
X172540000Y-136725000D01*
X177080000Y-133785000D02*
X177080000Y-136725000D01*
X177200000Y-133785000D02*
X177200000Y-136725000D01*
X177980000Y-136595000D02*
X177980000Y-136725000D01*
X172540000Y-133785000D02*
X172540000Y-133915000D01*
X177980000Y-133785000D02*
X172540000Y-133785000D01*
X172540000Y-136725000D02*
X172540000Y-136595000D01*
X177980000Y-133915000D02*
X177980000Y-133785000D01*
%TO.C,D16*%
X82730000Y-152835000D02*
X77290000Y-152835000D01*
X77290000Y-155775000D02*
X77290000Y-155645000D01*
X82730000Y-152965000D02*
X82730000Y-152835000D01*
X81950000Y-152835000D02*
X81950000Y-155775000D01*
X77290000Y-152835000D02*
X77290000Y-152965000D01*
X82730000Y-155775000D02*
X77290000Y-155775000D01*
X81710000Y-152835000D02*
X81710000Y-155775000D01*
X81830000Y-152835000D02*
X81830000Y-155775000D01*
X82730000Y-155645000D02*
X82730000Y-155775000D01*
%TO.C,D19*%
X96340000Y-136725000D02*
X96340000Y-136595000D01*
X96340000Y-133785000D02*
X96340000Y-133915000D01*
X100760000Y-133785000D02*
X100760000Y-136725000D01*
X100880000Y-133785000D02*
X100880000Y-136725000D01*
X101780000Y-136595000D02*
X101780000Y-136725000D01*
X101780000Y-133915000D02*
X101780000Y-133785000D01*
X101000000Y-133785000D02*
X101000000Y-136725000D01*
X101780000Y-136725000D02*
X96340000Y-136725000D01*
X101780000Y-133785000D02*
X96340000Y-133785000D01*
%TO.C,D42*%
X215300000Y-114735000D02*
X215300000Y-117675000D01*
X216080000Y-117675000D02*
X210640000Y-117675000D01*
X215060000Y-114735000D02*
X215060000Y-117675000D01*
X210640000Y-117675000D02*
X210640000Y-117545000D01*
X215180000Y-114735000D02*
X215180000Y-117675000D01*
X210640000Y-114735000D02*
X210640000Y-114865000D01*
X216080000Y-114865000D02*
X216080000Y-114735000D01*
X216080000Y-117545000D02*
X216080000Y-117675000D01*
X216080000Y-114735000D02*
X210640000Y-114735000D01*
%TO.C,D31*%
X153490000Y-136725000D02*
X153490000Y-136595000D01*
X158930000Y-136595000D02*
X158930000Y-136725000D01*
X157910000Y-133785000D02*
X157910000Y-136725000D01*
X158030000Y-133785000D02*
X158030000Y-136725000D01*
X153490000Y-133785000D02*
X153490000Y-133915000D01*
X158930000Y-133785000D02*
X153490000Y-133785000D01*
X158930000Y-133915000D02*
X158930000Y-133785000D01*
X158150000Y-133785000D02*
X158150000Y-136725000D01*
X158930000Y-136725000D02*
X153490000Y-136725000D01*
%TO.C,D38*%
X191590000Y-114735000D02*
X191590000Y-114865000D01*
X197030000Y-114735000D02*
X191590000Y-114735000D01*
X197030000Y-117545000D02*
X197030000Y-117675000D01*
X196250000Y-114735000D02*
X196250000Y-117675000D01*
X191590000Y-117675000D02*
X191590000Y-117545000D01*
X197030000Y-114865000D02*
X197030000Y-114735000D01*
X196130000Y-114735000D02*
X196130000Y-117675000D01*
X196010000Y-114735000D02*
X196010000Y-117675000D01*
X197030000Y-117675000D02*
X191590000Y-117675000D01*
%TO.C,D15*%
X81830000Y-133785000D02*
X81830000Y-136725000D01*
X81710000Y-133785000D02*
X81710000Y-136725000D01*
X82730000Y-133785000D02*
X77290000Y-133785000D01*
X77290000Y-133785000D02*
X77290000Y-133915000D01*
X81950000Y-133785000D02*
X81950000Y-136725000D01*
X82730000Y-136725000D02*
X77290000Y-136725000D01*
X77290000Y-136725000D02*
X77290000Y-136595000D01*
X82730000Y-133915000D02*
X82730000Y-133785000D01*
X82730000Y-136595000D02*
X82730000Y-136725000D01*
%TO.C,D34*%
X172540000Y-114735000D02*
X172540000Y-114865000D01*
X176960000Y-114735000D02*
X176960000Y-117675000D01*
X177980000Y-114735000D02*
X172540000Y-114735000D01*
X177980000Y-117545000D02*
X177980000Y-117675000D01*
X177200000Y-114735000D02*
X177200000Y-117675000D01*
X177980000Y-114865000D02*
X177980000Y-114735000D01*
X177980000Y-117675000D02*
X172540000Y-117675000D01*
X172540000Y-117675000D02*
X172540000Y-117545000D01*
X177080000Y-114735000D02*
X177080000Y-117675000D01*
%TO.C,D10*%
X58240000Y-114735000D02*
X58240000Y-114865000D01*
X63680000Y-114735000D02*
X58240000Y-114735000D01*
X62660000Y-114735000D02*
X62660000Y-117675000D01*
X62780000Y-114735000D02*
X62780000Y-117675000D01*
X63680000Y-117545000D02*
X63680000Y-117675000D01*
X63680000Y-114865000D02*
X63680000Y-114735000D01*
X62900000Y-114735000D02*
X62900000Y-117675000D01*
X58240000Y-117675000D02*
X58240000Y-117545000D01*
X63680000Y-117675000D02*
X58240000Y-117675000D01*
%TO.C,D40*%
X197030000Y-152835000D02*
X191590000Y-152835000D01*
X196250000Y-152835000D02*
X196250000Y-155775000D01*
X196010000Y-152835000D02*
X196010000Y-155775000D01*
X191590000Y-152835000D02*
X191590000Y-152965000D01*
X191590000Y-155775000D02*
X191590000Y-155645000D01*
X196130000Y-152835000D02*
X196130000Y-155775000D01*
X197030000Y-155645000D02*
X197030000Y-155775000D01*
X197030000Y-152965000D02*
X197030000Y-152835000D01*
X197030000Y-155775000D02*
X191590000Y-155775000D01*
%TO.C,D13*%
X77290000Y-98625000D02*
X77290000Y-98495000D01*
X81710000Y-95685000D02*
X81710000Y-98625000D01*
X82730000Y-95685000D02*
X77290000Y-95685000D01*
X81830000Y-95685000D02*
X81830000Y-98625000D01*
X77290000Y-95685000D02*
X77290000Y-95815000D01*
X82730000Y-95815000D02*
X82730000Y-95685000D01*
X81950000Y-95685000D02*
X81950000Y-98625000D01*
X82730000Y-98495000D02*
X82730000Y-98625000D01*
X82730000Y-98625000D02*
X77290000Y-98625000D01*
%TO.C,D29*%
X157910000Y-95685000D02*
X157910000Y-98625000D01*
X153490000Y-95685000D02*
X153490000Y-95815000D01*
X158930000Y-95815000D02*
X158930000Y-95685000D01*
X158930000Y-98625000D02*
X153490000Y-98625000D01*
X158150000Y-95685000D02*
X158150000Y-98625000D01*
X158930000Y-95685000D02*
X153490000Y-95685000D01*
X158030000Y-95685000D02*
X158030000Y-98625000D01*
X158930000Y-98495000D02*
X158930000Y-98625000D01*
X153490000Y-98625000D02*
X153490000Y-98495000D01*
%TO.C,D6*%
X44630000Y-117545000D02*
X44630000Y-117675000D01*
X43730000Y-114735000D02*
X43730000Y-117675000D01*
X43610000Y-114735000D02*
X43610000Y-117675000D01*
X43850000Y-114735000D02*
X43850000Y-117675000D01*
X39190000Y-117675000D02*
X39190000Y-117545000D01*
X44630000Y-114735000D02*
X39190000Y-114735000D01*
X39190000Y-114735000D02*
X39190000Y-114865000D01*
X44630000Y-117675000D02*
X39190000Y-117675000D01*
X44630000Y-114865000D02*
X44630000Y-114735000D01*
%TO.C,D5*%
X39190000Y-98625000D02*
X39190000Y-98495000D01*
X39190000Y-95685000D02*
X39190000Y-95815000D01*
X43730000Y-95685000D02*
X43730000Y-98625000D01*
X44630000Y-95685000D02*
X39190000Y-95685000D01*
X43610000Y-95685000D02*
X43610000Y-98625000D01*
X44630000Y-98625000D02*
X39190000Y-98625000D01*
X43850000Y-95685000D02*
X43850000Y-98625000D01*
X44630000Y-95815000D02*
X44630000Y-95685000D01*
X44630000Y-98495000D02*
X44630000Y-98625000D01*
%TO.C,D12*%
X62660000Y-152835000D02*
X62660000Y-155775000D01*
X58240000Y-152835000D02*
X58240000Y-152965000D01*
X62900000Y-152835000D02*
X62900000Y-155775000D01*
X63680000Y-152965000D02*
X63680000Y-152835000D01*
X63680000Y-155645000D02*
X63680000Y-155775000D01*
X62780000Y-152835000D02*
X62780000Y-155775000D01*
X63680000Y-152835000D02*
X58240000Y-152835000D01*
X58240000Y-155775000D02*
X58240000Y-155645000D01*
X63680000Y-155775000D02*
X58240000Y-155775000D01*
%TO.C,D32*%
X158930000Y-152835000D02*
X153490000Y-152835000D01*
X158930000Y-155775000D02*
X153490000Y-155775000D01*
X158030000Y-152835000D02*
X158030000Y-155775000D01*
X158150000Y-152835000D02*
X158150000Y-155775000D01*
X153490000Y-152835000D02*
X153490000Y-152965000D01*
X158930000Y-152965000D02*
X158930000Y-152835000D01*
X157910000Y-152835000D02*
X157910000Y-155775000D01*
X158930000Y-155645000D02*
X158930000Y-155775000D01*
X153490000Y-155775000D02*
X153490000Y-155645000D01*
%TO.C,D44*%
X215300000Y-152835000D02*
X215300000Y-155775000D01*
X215060000Y-152835000D02*
X215060000Y-155775000D01*
X216080000Y-155775000D02*
X210640000Y-155775000D01*
X210640000Y-152835000D02*
X210640000Y-152965000D01*
X216080000Y-152965000D02*
X216080000Y-152835000D01*
X215180000Y-152835000D02*
X215180000Y-155775000D01*
X216080000Y-152835000D02*
X210640000Y-152835000D01*
X216080000Y-155645000D02*
X216080000Y-155775000D01*
X210640000Y-155775000D02*
X210640000Y-155645000D01*
%TO.C,D8*%
X44630000Y-152965000D02*
X44630000Y-152835000D01*
X43850000Y-152835000D02*
X43850000Y-155775000D01*
X44630000Y-152835000D02*
X39190000Y-152835000D01*
X44630000Y-155775000D02*
X39190000Y-155775000D01*
X43730000Y-152835000D02*
X43730000Y-155775000D01*
X39190000Y-155775000D02*
X39190000Y-155645000D01*
X39190000Y-152835000D02*
X39190000Y-152965000D01*
X44630000Y-155645000D02*
X44630000Y-155775000D01*
X43610000Y-152835000D02*
X43610000Y-155775000D01*
%TO.C,D9*%
X58240000Y-95685000D02*
X58240000Y-95815000D01*
X62900000Y-95685000D02*
X62900000Y-98625000D01*
X63680000Y-95815000D02*
X63680000Y-95685000D01*
X63680000Y-98625000D02*
X58240000Y-98625000D01*
X63680000Y-98495000D02*
X63680000Y-98625000D01*
X63680000Y-95685000D02*
X58240000Y-95685000D01*
X62780000Y-95685000D02*
X62780000Y-98625000D01*
X58240000Y-98625000D02*
X58240000Y-98495000D01*
X62660000Y-95685000D02*
X62660000Y-98625000D01*
%TO.C,D14*%
X77290000Y-117675000D02*
X77290000Y-117545000D01*
X82730000Y-114865000D02*
X82730000Y-114735000D01*
X82730000Y-117545000D02*
X82730000Y-117675000D01*
X81950000Y-114735000D02*
X81950000Y-117675000D01*
X81830000Y-114735000D02*
X81830000Y-117675000D01*
X82730000Y-114735000D02*
X77290000Y-114735000D01*
X77290000Y-114735000D02*
X77290000Y-114865000D01*
X81710000Y-114735000D02*
X81710000Y-117675000D01*
X82730000Y-117675000D02*
X77290000Y-117675000D01*
%TO.C,D20*%
X96340000Y-155775000D02*
X96340000Y-155645000D01*
X101000000Y-152835000D02*
X101000000Y-155775000D01*
X101780000Y-155645000D02*
X101780000Y-155775000D01*
X101780000Y-152835000D02*
X96340000Y-152835000D01*
X100880000Y-152835000D02*
X100880000Y-155775000D01*
X101780000Y-155775000D02*
X96340000Y-155775000D01*
X101780000Y-152965000D02*
X101780000Y-152835000D01*
X100760000Y-152835000D02*
X100760000Y-155775000D01*
X96340000Y-152835000D02*
X96340000Y-152965000D01*
%TO.C,D46*%
X235130000Y-98625000D02*
X229690000Y-98625000D01*
X234230000Y-95685000D02*
X234230000Y-98625000D01*
X235130000Y-95815000D02*
X235130000Y-95685000D01*
X229690000Y-95685000D02*
X229690000Y-95815000D01*
X235130000Y-98495000D02*
X235130000Y-98625000D01*
X234110000Y-95685000D02*
X234110000Y-98625000D01*
X229690000Y-98625000D02*
X229690000Y-98495000D01*
X235130000Y-95685000D02*
X229690000Y-95685000D01*
X234350000Y-95685000D02*
X234350000Y-98625000D01*
%TO.C,D18*%
X100760000Y-114735000D02*
X100760000Y-117675000D01*
X101000000Y-114735000D02*
X101000000Y-117675000D01*
X101780000Y-117545000D02*
X101780000Y-117675000D01*
X100880000Y-114735000D02*
X100880000Y-117675000D01*
X96340000Y-117675000D02*
X96340000Y-117545000D01*
X101780000Y-114865000D02*
X101780000Y-114735000D01*
X101780000Y-114735000D02*
X96340000Y-114735000D01*
X96340000Y-114735000D02*
X96340000Y-114865000D01*
X101780000Y-117675000D02*
X96340000Y-117675000D01*
%TO.C,D47*%
X234110000Y-114735000D02*
X234110000Y-117675000D01*
X235130000Y-114865000D02*
X235130000Y-114735000D01*
X234350000Y-114735000D02*
X234350000Y-117675000D01*
X235130000Y-117545000D02*
X235130000Y-117675000D01*
X229690000Y-114735000D02*
X229690000Y-114865000D01*
X234230000Y-114735000D02*
X234230000Y-117675000D01*
X229690000Y-117675000D02*
X229690000Y-117545000D01*
X235130000Y-114735000D02*
X229690000Y-114735000D01*
X235130000Y-117675000D02*
X229690000Y-117675000D01*
%TO.C,D24*%
X115390000Y-152835000D02*
X115390000Y-152965000D01*
X120830000Y-155775000D02*
X115390000Y-155775000D01*
X120830000Y-152835000D02*
X115390000Y-152835000D01*
X120830000Y-152965000D02*
X120830000Y-152835000D01*
X115390000Y-155775000D02*
X115390000Y-155645000D01*
X119930000Y-152835000D02*
X119930000Y-155775000D01*
X120830000Y-155645000D02*
X120830000Y-155775000D01*
X119810000Y-152835000D02*
X119810000Y-155775000D01*
X120050000Y-152835000D02*
X120050000Y-155775000D01*
%TO.C,D22*%
X120830000Y-117675000D02*
X115390000Y-117675000D01*
X119810000Y-114735000D02*
X119810000Y-117675000D01*
X120050000Y-114735000D02*
X120050000Y-117675000D01*
X119930000Y-114735000D02*
X119930000Y-117675000D01*
X115390000Y-114735000D02*
X115390000Y-114865000D01*
X120830000Y-114735000D02*
X115390000Y-114735000D01*
X115390000Y-117675000D02*
X115390000Y-117545000D01*
X120830000Y-117545000D02*
X120830000Y-117675000D01*
X120830000Y-114865000D02*
X120830000Y-114735000D01*
%TO.C,D4*%
X24560000Y-152835000D02*
X24560000Y-155775000D01*
X20140000Y-155775000D02*
X20140000Y-155645000D01*
X25580000Y-152965000D02*
X25580000Y-152835000D01*
X24680000Y-152835000D02*
X24680000Y-155775000D01*
X25580000Y-155775000D02*
X20140000Y-155775000D01*
X25580000Y-152835000D02*
X20140000Y-152835000D01*
X20140000Y-152835000D02*
X20140000Y-152965000D01*
X24800000Y-152835000D02*
X24800000Y-155775000D01*
X25580000Y-155645000D02*
X25580000Y-155775000D01*
%TO.C,D3*%
X20140000Y-136725000D02*
X20140000Y-136595000D01*
X25580000Y-136725000D02*
X20140000Y-136725000D01*
X25580000Y-133785000D02*
X20140000Y-133785000D01*
X24560000Y-133785000D02*
X24560000Y-136725000D01*
X24800000Y-133785000D02*
X24800000Y-136725000D01*
X20140000Y-133785000D02*
X20140000Y-133915000D01*
X25580000Y-136595000D02*
X25580000Y-136725000D01*
X25580000Y-133915000D02*
X25580000Y-133785000D01*
X24680000Y-133785000D02*
X24680000Y-136725000D01*
%TO.C,D1*%
X25580000Y-98495000D02*
X25580000Y-98625000D01*
X24560000Y-95685000D02*
X24560000Y-98625000D01*
X24800000Y-95685000D02*
X24800000Y-98625000D01*
X20140000Y-98625000D02*
X20140000Y-98495000D01*
X25580000Y-95685000D02*
X20140000Y-95685000D01*
X25580000Y-95815000D02*
X25580000Y-95685000D01*
X24680000Y-95685000D02*
X24680000Y-98625000D01*
X20140000Y-95685000D02*
X20140000Y-95815000D01*
X25580000Y-98625000D02*
X20140000Y-98625000D01*
%TO.C,D33*%
X177980000Y-95815000D02*
X177980000Y-95685000D01*
X177980000Y-98495000D02*
X177980000Y-98625000D01*
X177980000Y-95685000D02*
X172540000Y-95685000D01*
X177200000Y-95685000D02*
X177200000Y-98625000D01*
X177080000Y-95685000D02*
X177080000Y-98625000D01*
X177980000Y-98625000D02*
X172540000Y-98625000D01*
X176960000Y-95685000D02*
X176960000Y-98625000D01*
X172540000Y-98625000D02*
X172540000Y-98495000D01*
X172540000Y-95685000D02*
X172540000Y-95815000D01*
%TO.C,D2*%
X24560000Y-114735000D02*
X24560000Y-117675000D01*
X24800000Y-114735000D02*
X24800000Y-117675000D01*
X24680000Y-114735000D02*
X24680000Y-117675000D01*
X25580000Y-117675000D02*
X20140000Y-117675000D01*
X20140000Y-117675000D02*
X20140000Y-117545000D01*
X25580000Y-117545000D02*
X25580000Y-117675000D01*
X25580000Y-114735000D02*
X20140000Y-114735000D01*
X25580000Y-114865000D02*
X25580000Y-114735000D01*
X20140000Y-114735000D02*
X20140000Y-114865000D01*
%TO.C,D39*%
X196130000Y-133785000D02*
X196130000Y-136725000D01*
X197030000Y-136595000D02*
X197030000Y-136725000D01*
X191590000Y-136725000D02*
X191590000Y-136595000D01*
X197030000Y-136725000D02*
X191590000Y-136725000D01*
X197030000Y-133915000D02*
X197030000Y-133785000D01*
X191590000Y-133785000D02*
X191590000Y-133915000D01*
X197030000Y-133785000D02*
X191590000Y-133785000D01*
X196010000Y-133785000D02*
X196010000Y-136725000D01*
X196250000Y-133785000D02*
X196250000Y-136725000D01*
%TO.C,D26*%
X138860000Y-114735000D02*
X138860000Y-117675000D01*
X139880000Y-117675000D02*
X134440000Y-117675000D01*
X139880000Y-114865000D02*
X139880000Y-114735000D01*
X139880000Y-114735000D02*
X134440000Y-114735000D01*
X134440000Y-114735000D02*
X134440000Y-114865000D01*
X139880000Y-117545000D02*
X139880000Y-117675000D01*
X139100000Y-114735000D02*
X139100000Y-117675000D01*
X138980000Y-114735000D02*
X138980000Y-117675000D01*
X134440000Y-117675000D02*
X134440000Y-117545000D01*
%TO.C,G3*%
G36*
X79748113Y-82384726D02*
G01*
X79736574Y-82466530D01*
X79667853Y-82515205D01*
X79627783Y-82508256D01*
X79580867Y-82453792D01*
X79584256Y-82434449D01*
X79634469Y-82425506D01*
X79669103Y-82426405D01*
X79714728Y-82356440D01*
X79719701Y-82338236D01*
X79738402Y-82305809D01*
X79748113Y-82384726D01*
G37*
G36*
X83756210Y-77441004D02*
G01*
X83727214Y-77470000D01*
X83698219Y-77441004D01*
X83727214Y-77412009D01*
X83756210Y-77441004D01*
G37*
G36*
X79870821Y-82718173D02*
G01*
X79841826Y-82747169D01*
X79812831Y-82718173D01*
X79841826Y-82689178D01*
X79870821Y-82718173D01*
G37*
G36*
X81702710Y-81483738D02*
G01*
X81714887Y-81560653D01*
X81723355Y-81719431D01*
X81726529Y-81935296D01*
X81725938Y-82022581D01*
X81719394Y-82218196D01*
X81707145Y-82346489D01*
X81691113Y-82383138D01*
X81684761Y-82369829D01*
X81670873Y-82267015D01*
X81663732Y-82097422D01*
X81663082Y-81897541D01*
X81668662Y-81703863D01*
X81680217Y-81552879D01*
X81697488Y-81481080D01*
X81702710Y-81483738D01*
G37*
G36*
X88956767Y-81559647D02*
G01*
X88969167Y-81692541D01*
X88973624Y-81930464D01*
X88973265Y-82022291D01*
X88966873Y-82217548D01*
X88954191Y-82344905D01*
X88937167Y-82380333D01*
X88918568Y-82343941D01*
X88892560Y-82210018D01*
X88877672Y-82022915D01*
X88875121Y-81822917D01*
X88886127Y-81650306D01*
X88911908Y-81545366D01*
X88934696Y-81520998D01*
X88956767Y-81559647D01*
G37*
G36*
X89246012Y-75981567D02*
G01*
X89255084Y-75999010D01*
X89207351Y-76020228D01*
X89176651Y-76016043D01*
X89168691Y-75981567D01*
X89177190Y-75974627D01*
X89246012Y-75981567D01*
G37*
G36*
X83935713Y-80311552D02*
G01*
X83962180Y-80422728D01*
X83982393Y-80558013D01*
X83968994Y-80617824D01*
X83878358Y-80659497D01*
X83851753Y-80658731D01*
X83802065Y-80637913D01*
X83797265Y-80566004D01*
X83831678Y-80413036D01*
X83850480Y-80341068D01*
X83883742Y-80238529D01*
X83908149Y-80232596D01*
X83935713Y-80311552D01*
G37*
G36*
X86679321Y-74499713D02*
G01*
X86651048Y-74637238D01*
X86637720Y-74660148D01*
X86548323Y-74734350D01*
X86425272Y-74713032D01*
X86254762Y-74594714D01*
X86176768Y-74523534D01*
X86115484Y-74429277D01*
X86131616Y-74342639D01*
X86144129Y-74309497D01*
X86423790Y-74309497D01*
X86452785Y-74338493D01*
X86481780Y-74309497D01*
X86452785Y-74280502D01*
X86423790Y-74309497D01*
X86144129Y-74309497D01*
X86154112Y-74283058D01*
X86131384Y-74185265D01*
X86123826Y-74168425D01*
X86186017Y-74151551D01*
X86347572Y-74161884D01*
X86396304Y-74167907D01*
X86544523Y-74199089D01*
X86621529Y-74256065D01*
X86642790Y-74309497D01*
X86663595Y-74361781D01*
X86679321Y-74499713D01*
G37*
G36*
X90681396Y-79108263D02*
G01*
X90715114Y-79175898D01*
X90703180Y-79221025D01*
X90623295Y-79267717D01*
X90559932Y-79234243D01*
X90569669Y-79164754D01*
X90646250Y-79107034D01*
X90681396Y-79108263D01*
G37*
G36*
X84408607Y-78707393D02*
G01*
X84418444Y-78727529D01*
X84336118Y-78736642D01*
X84256345Y-78728559D01*
X84263630Y-78707393D01*
X84289879Y-78699733D01*
X84408607Y-78707393D01*
G37*
G36*
X88859406Y-75208356D02*
G01*
X88855221Y-75239056D01*
X88820745Y-75247016D01*
X88813805Y-75238517D01*
X88820745Y-75169695D01*
X88838188Y-75160623D01*
X88859406Y-75208356D01*
G37*
G36*
X85524346Y-78396908D02*
G01*
X85530091Y-78427313D01*
X85470363Y-78455844D01*
X85441084Y-78454710D01*
X85382517Y-78427317D01*
X85433938Y-78371335D01*
X85454848Y-78363454D01*
X85524346Y-78396908D01*
G37*
G36*
X84684064Y-81065433D02*
G01*
X84679878Y-81096134D01*
X84645403Y-81104094D01*
X84638463Y-81095594D01*
X84645403Y-81026773D01*
X84662846Y-81017700D01*
X84684064Y-81065433D01*
G37*
G36*
X85101268Y-76838078D02*
G01*
X85147990Y-76890091D01*
X85124662Y-76924422D01*
X85028586Y-76948082D01*
X84962778Y-76935735D01*
X84945022Y-76890091D01*
X84965694Y-76867443D01*
X85064427Y-76832100D01*
X85101268Y-76838078D01*
G37*
G36*
X85090000Y-74367488D02*
G01*
X85061004Y-74396484D01*
X85032009Y-74367488D01*
X85061004Y-74338493D01*
X85090000Y-74367488D01*
G37*
G36*
X85476605Y-74415814D02*
G01*
X85485678Y-74433257D01*
X85437945Y-74454475D01*
X85407245Y-74450289D01*
X85399284Y-74415814D01*
X85407784Y-74408874D01*
X85476605Y-74415814D01*
G37*
G36*
X83539471Y-80668359D02*
G01*
X83553242Y-80717488D01*
X83541356Y-80735033D01*
X83495251Y-80775479D01*
X83486863Y-80772750D01*
X83437260Y-80717488D01*
X83432615Y-80686774D01*
X83495251Y-80659497D01*
X83539471Y-80668359D01*
G37*
G36*
X89820966Y-72330561D02*
G01*
X89845251Y-72424794D01*
X89834376Y-72492206D01*
X89787260Y-72540776D01*
X89753554Y-72519027D01*
X89729269Y-72424794D01*
X89740143Y-72357383D01*
X89787260Y-72308812D01*
X89820966Y-72330561D01*
G37*
G36*
X82615554Y-80690629D02*
G01*
X82622372Y-80722539D01*
X82704228Y-80749926D01*
X82874685Y-80776856D01*
X83147306Y-80807400D01*
X83339320Y-80826067D01*
X83594860Y-80844217D01*
X83774664Y-80843923D01*
X83903396Y-80824553D01*
X84005718Y-80785477D01*
X84045200Y-80766248D01*
X84215404Y-80692804D01*
X84407340Y-80620011D01*
X84588830Y-80558904D01*
X84727695Y-80520521D01*
X84791756Y-80515896D01*
X84797360Y-80524800D01*
X84757852Y-80543516D01*
X84718481Y-80551600D01*
X84599055Y-80629432D01*
X84474249Y-80760029D01*
X84375968Y-80906456D01*
X84347665Y-80995462D01*
X84336118Y-81031774D01*
X84339365Y-81100902D01*
X84367418Y-81152420D01*
X84369341Y-81155952D01*
X84455803Y-81175270D01*
X84628391Y-81173201D01*
X84731134Y-81173369D01*
X84892170Y-81190751D01*
X84982430Y-81224622D01*
X84983293Y-81225475D01*
X85074558Y-81253423D01*
X85231933Y-81207945D01*
X85338826Y-81174088D01*
X85574177Y-81169428D01*
X85775812Y-81258551D01*
X85829256Y-81287234D01*
X85895692Y-81249406D01*
X85964554Y-81217458D01*
X86122968Y-81192364D01*
X86340531Y-81176722D01*
X86588129Y-81170641D01*
X86836647Y-81174231D01*
X87056969Y-81187602D01*
X87219981Y-81210862D01*
X87296568Y-81244123D01*
X87336483Y-81283784D01*
X87419712Y-81258551D01*
X87456153Y-81233343D01*
X87644775Y-81168574D01*
X87853315Y-81171374D01*
X88040420Y-81236242D01*
X88164740Y-81357675D01*
X88173157Y-81378838D01*
X88197811Y-81512184D01*
X88215031Y-81716062D01*
X88219973Y-81898904D01*
X88221506Y-81955607D01*
X88221506Y-82447468D01*
X87995696Y-82626314D01*
X87861161Y-82713832D01*
X87662102Y-82791571D01*
X87475308Y-82815698D01*
X87329506Y-82783639D01*
X87253418Y-82692822D01*
X87242629Y-82658450D01*
X87214026Y-82631187D01*
X87351643Y-82631187D01*
X87374077Y-82672940D01*
X87471924Y-82693929D01*
X87617285Y-82672757D01*
X87776917Y-82615478D01*
X87917577Y-82528143D01*
X87996744Y-82459000D01*
X88059039Y-82382042D01*
X88091694Y-82284163D01*
X88104200Y-82133679D01*
X88106047Y-81898904D01*
X88102547Y-81686409D01*
X88082396Y-81498420D01*
X88033724Y-81382349D01*
X87944743Y-81313583D01*
X87803667Y-81267509D01*
X87746075Y-81256837D01*
X87624179Y-81278243D01*
X87493378Y-81382353D01*
X87454579Y-81422320D01*
X87392144Y-81505248D01*
X87360788Y-81603134D01*
X87353090Y-81749540D01*
X87355696Y-81819315D01*
X87361623Y-81978029D01*
X87379338Y-82197367D01*
X87411927Y-82371815D01*
X87454770Y-82443264D01*
X87507671Y-82475879D01*
X87516507Y-82540076D01*
X87438630Y-82573196D01*
X87398614Y-82579739D01*
X87351643Y-82631187D01*
X87214026Y-82631187D01*
X87191217Y-82609447D01*
X87081099Y-82634831D01*
X87067204Y-82639964D01*
X86853971Y-82685087D01*
X86663956Y-82670396D01*
X86536730Y-82598527D01*
X86514527Y-82572567D01*
X86459342Y-82537753D01*
X86424855Y-82580900D01*
X86410766Y-82598527D01*
X86382890Y-82627137D01*
X86263862Y-82672450D01*
X86106285Y-82690509D01*
X85959689Y-82678190D01*
X85873610Y-82632374D01*
X85841094Y-82608357D01*
X85739708Y-82626200D01*
X85700124Y-82640851D01*
X85553683Y-82677889D01*
X85339947Y-82721467D01*
X85090000Y-82764946D01*
X84940594Y-82788244D01*
X84729520Y-82816180D01*
X84596983Y-82822483D01*
X84519780Y-82807386D01*
X84474702Y-82771120D01*
X84464101Y-82759100D01*
X84353000Y-82700716D01*
X84223143Y-82695369D01*
X84133150Y-82747169D01*
X84081662Y-82791157D01*
X83967045Y-82794844D01*
X83841314Y-82736994D01*
X83739897Y-82636681D01*
X83698219Y-82512981D01*
X83690528Y-82489204D01*
X83825240Y-82489204D01*
X83874503Y-82604977D01*
X83881836Y-82613691D01*
X83963271Y-82682220D01*
X84007157Y-82645914D01*
X84014351Y-82558698D01*
X84105009Y-82558698D01*
X84152910Y-82568858D01*
X84272367Y-82573196D01*
X84377038Y-82561375D01*
X84447604Y-82499809D01*
X84498337Y-82355730D01*
X84556095Y-82138264D01*
X84562088Y-82355730D01*
X84562664Y-82374959D01*
X84577167Y-82507877D01*
X84627535Y-82562563D01*
X84742054Y-82573196D01*
X84916027Y-82573196D01*
X84916027Y-82252206D01*
X85090000Y-82252206D01*
X85113613Y-82411212D01*
X85202169Y-82513165D01*
X85321850Y-82553228D01*
X85488835Y-82573196D01*
X85520443Y-82572288D01*
X85671550Y-82528247D01*
X85771557Y-82409241D01*
X85826867Y-82203088D01*
X85843881Y-81897607D01*
X85843772Y-81841975D01*
X85837966Y-81640412D01*
X85816316Y-81514450D01*
X85769181Y-81430837D01*
X85686916Y-81356319D01*
X85584941Y-81297397D01*
X85955939Y-81297397D01*
X85971786Y-81897607D01*
X85972398Y-81920799D01*
X85988858Y-82544201D01*
X86148333Y-82562550D01*
X86307808Y-82580900D01*
X86307808Y-81844168D01*
X86481780Y-81844168D01*
X86484565Y-82065729D01*
X86498459Y-82274373D01*
X86526863Y-82405843D01*
X86572909Y-82482067D01*
X86608890Y-82511699D01*
X86774520Y-82567468D01*
X86961600Y-82548542D01*
X87119680Y-82457214D01*
X87136771Y-82439205D01*
X87187546Y-82361614D01*
X87217615Y-82250793D01*
X87231984Y-82079206D01*
X87235662Y-81819315D01*
X87235662Y-81297397D01*
X86887716Y-81297397D01*
X86887716Y-81819315D01*
X86887074Y-81905650D01*
X86877334Y-82134948D01*
X86857512Y-82286488D01*
X86829726Y-82341233D01*
X86820133Y-82335451D01*
X86794655Y-82247788D01*
X86777817Y-82069396D01*
X86771735Y-81819315D01*
X86771728Y-81773271D01*
X86769970Y-81542440D01*
X86760794Y-81401755D01*
X86737999Y-81328899D01*
X86695387Y-81301553D01*
X86626758Y-81297397D01*
X86603808Y-81297513D01*
X86544459Y-81305722D01*
X86508364Y-81342685D01*
X86489740Y-81430210D01*
X86482807Y-81590101D01*
X86481780Y-81844168D01*
X86307808Y-81844168D01*
X86307808Y-81297397D01*
X85955939Y-81297397D01*
X85584941Y-81297397D01*
X85546508Y-81275190D01*
X85382788Y-81269786D01*
X85220701Y-81330442D01*
X85118949Y-81442080D01*
X85090000Y-81623447D01*
X85095980Y-81732675D01*
X85135668Y-81803396D01*
X85234977Y-81819315D01*
X85298022Y-81815160D01*
X85364350Y-81769675D01*
X85379954Y-81645342D01*
X85379958Y-81643178D01*
X85397228Y-81521762D01*
X85437945Y-81471370D01*
X85440664Y-81471776D01*
X85469262Y-81534401D01*
X85488740Y-81687150D01*
X85495936Y-81906301D01*
X85495881Y-81926697D01*
X85487531Y-82141179D01*
X85467165Y-82287265D01*
X85437945Y-82341233D01*
X85399805Y-82305238D01*
X85379954Y-82196255D01*
X85379342Y-82169538D01*
X85345334Y-82075230D01*
X85234977Y-82051278D01*
X85150833Y-82060375D01*
X85101093Y-82115830D01*
X85090000Y-82252206D01*
X84916027Y-82252206D01*
X84916027Y-81297397D01*
X84742054Y-81297397D01*
X84639299Y-81305031D01*
X84578557Y-81355729D01*
X84562162Y-81485867D01*
X84556241Y-81674338D01*
X84495782Y-81485867D01*
X84481660Y-81445239D01*
X84409158Y-81329872D01*
X84298734Y-81297397D01*
X84211049Y-81305013D01*
X84171092Y-81345594D01*
X84182863Y-81444057D01*
X84242058Y-81625293D01*
X84273365Y-81723952D01*
X84291119Y-81850533D01*
X84272059Y-81993162D01*
X84213917Y-82197995D01*
X84162979Y-82362590D01*
X84121319Y-82500324D01*
X84121212Y-82500707D01*
X84105009Y-82558698D01*
X84014351Y-82558698D01*
X84019134Y-82500707D01*
X83998121Y-82362654D01*
X83930976Y-82312237D01*
X83910284Y-82314492D01*
X83840196Y-82376677D01*
X83825240Y-82489204D01*
X83690528Y-82489204D01*
X83678076Y-82450710D01*
X83585483Y-82383269D01*
X83562720Y-82378231D01*
X83487180Y-82397264D01*
X83455004Y-82506985D01*
X83437260Y-82660182D01*
X82828356Y-82660182D01*
X82728890Y-82660090D01*
X82490113Y-82657410D01*
X82339228Y-82647839D01*
X82255013Y-82627161D01*
X82216242Y-82591154D01*
X82201693Y-82535599D01*
X82198727Y-82515024D01*
X82181108Y-82449114D01*
X82139475Y-82459912D01*
X82044854Y-82550097D01*
X82019754Y-82573104D01*
X81840545Y-82667802D01*
X81632605Y-82697282D01*
X81437154Y-82661072D01*
X81295411Y-82558698D01*
X81275142Y-82532138D01*
X81225090Y-82482018D01*
X81228527Y-82529703D01*
X81235281Y-82586531D01*
X81199369Y-82631187D01*
X81178047Y-82636850D01*
X81178059Y-82693131D01*
X81193869Y-82708508D01*
X81202589Y-82716989D01*
X81295606Y-82724659D01*
X81332707Y-82715680D01*
X81401091Y-82736670D01*
X81408933Y-82740735D01*
X81430282Y-82751802D01*
X81549237Y-82770821D01*
X81722527Y-82777631D01*
X81882528Y-82782542D01*
X81976376Y-82806012D01*
X81988117Y-82853396D01*
X81979083Y-82880880D01*
X81974965Y-82907277D01*
X81958493Y-83012870D01*
X81956078Y-83023723D01*
X81925629Y-83046422D01*
X81850760Y-83063910D01*
X81719548Y-83076814D01*
X81520065Y-83085760D01*
X81240386Y-83091374D01*
X80868586Y-83094283D01*
X80392739Y-83095114D01*
X80183359Y-83094795D01*
X79706940Y-83091061D01*
X79328640Y-83083262D01*
X79052912Y-83071562D01*
X78884210Y-83056128D01*
X78826986Y-83037123D01*
X78842567Y-83017836D01*
X78941838Y-82989313D01*
X79102443Y-82977288D01*
X79345251Y-82950830D01*
X79512145Y-82865805D01*
X79596370Y-82716727D01*
X79606271Y-82681306D01*
X79623227Y-82664621D01*
X79632131Y-82758244D01*
X79645413Y-82840167D01*
X79693412Y-82938081D01*
X79753037Y-82976948D01*
X79799743Y-82931409D01*
X79838234Y-82890545D01*
X79855488Y-82886105D01*
X81742235Y-82886105D01*
X81743133Y-82905901D01*
X81818348Y-82916563D01*
X81875350Y-82907277D01*
X81853384Y-82881527D01*
X81819850Y-82872262D01*
X81742235Y-82886105D01*
X79855488Y-82886105D01*
X79948143Y-82862262D01*
X79966989Y-82861958D01*
X80031381Y-82848856D01*
X79990606Y-82808737D01*
X79975943Y-82785986D01*
X80050665Y-82767492D01*
X80236431Y-82766132D01*
X80376890Y-82764940D01*
X80478002Y-82753222D01*
X80889273Y-82753222D01*
X80905011Y-82772142D01*
X80999831Y-82781963D01*
X81085044Y-82771751D01*
X81113649Y-82740735D01*
X81076792Y-82718177D01*
X80976056Y-82716270D01*
X80889273Y-82753222D01*
X80478002Y-82753222D01*
X80522457Y-82748070D01*
X80570811Y-82725951D01*
X80692951Y-82725951D01*
X80740685Y-82747169D01*
X80771385Y-82742984D01*
X80779345Y-82708508D01*
X80770846Y-82701568D01*
X80702024Y-82708508D01*
X80692951Y-82725951D01*
X80570811Y-82725951D01*
X80587815Y-82718173D01*
X80573337Y-82694664D01*
X80468951Y-82669473D01*
X80283999Y-82660182D01*
X79957808Y-82660182D01*
X79939737Y-82441502D01*
X79935298Y-82398125D01*
X79911246Y-82281935D01*
X79881746Y-82247494D01*
X79866002Y-82233674D01*
X79846899Y-82136078D01*
X79837767Y-81973252D01*
X79829332Y-81676741D01*
X79810587Y-81408029D01*
X79808550Y-81394439D01*
X79940485Y-81394439D01*
X79945475Y-81519803D01*
X79967936Y-81722849D01*
X80006286Y-82022283D01*
X80073790Y-82544201D01*
X80273644Y-82544201D01*
X80369554Y-82540720D01*
X80448203Y-82510561D01*
X80496822Y-82424716D01*
X80542212Y-82254246D01*
X80558139Y-82188394D01*
X80591500Y-82071117D01*
X80609914Y-82057051D01*
X80618606Y-82138264D01*
X80632291Y-82284722D01*
X80661254Y-82442717D01*
X80672668Y-82477478D01*
X80741821Y-82552886D01*
X80884838Y-82573196D01*
X81073456Y-82573196D01*
X81139034Y-82061848D01*
X81141364Y-82043663D01*
X81154069Y-81940806D01*
X81321481Y-81940806D01*
X81323057Y-82096178D01*
X81336877Y-82283923D01*
X81369543Y-82401439D01*
X81426643Y-82477222D01*
X81471864Y-82510732D01*
X81646257Y-82566655D01*
X81832700Y-82551805D01*
X81978500Y-82467146D01*
X81984409Y-82460352D01*
X82037364Y-82356628D01*
X82065598Y-82188505D01*
X82073586Y-81930730D01*
X82073464Y-81905929D01*
X82066288Y-81689987D01*
X82050397Y-81520214D01*
X82028913Y-81431504D01*
X82010329Y-81407278D01*
X82193112Y-81407278D01*
X82209752Y-81572854D01*
X82226166Y-81708964D01*
X82251710Y-81930730D01*
X82255402Y-81962784D01*
X82283048Y-82213787D01*
X82322105Y-82579263D01*
X82531063Y-82561732D01*
X82544623Y-82560563D01*
X82677278Y-82536233D01*
X82741309Y-82470449D01*
X82775164Y-82326094D01*
X82811320Y-82158296D01*
X82847507Y-82076776D01*
X82875263Y-82091444D01*
X82886347Y-82210843D01*
X82895923Y-82358142D01*
X82921546Y-82481467D01*
X82987738Y-82544744D01*
X83146019Y-82573196D01*
X83335293Y-82573196D01*
X83374007Y-82210753D01*
X83391492Y-82050526D01*
X83421090Y-81789788D01*
X83446959Y-81572854D01*
X83460649Y-81452344D01*
X83459498Y-81346134D01*
X83420905Y-81304549D01*
X83332302Y-81297397D01*
X83316745Y-81297551D01*
X83227610Y-81316117D01*
X83180250Y-81387746D01*
X83151634Y-81543858D01*
X83120505Y-81779871D01*
X83097378Y-81934719D01*
X83082731Y-81994417D01*
X83073899Y-81969389D01*
X83068217Y-81870057D01*
X83065330Y-81802915D01*
X83042902Y-81554538D01*
X82999941Y-81399588D01*
X82928619Y-81319921D01*
X82821107Y-81297397D01*
X82811307Y-81297424D01*
X82706372Y-81310797D01*
X82661139Y-81371930D01*
X82648603Y-81514863D01*
X82648166Y-81528332D01*
X82629818Y-81718317D01*
X82596392Y-81877306D01*
X82589205Y-81899028D01*
X82564242Y-81948355D01*
X82550685Y-81902696D01*
X82544182Y-81751569D01*
X82533389Y-81552031D01*
X82499052Y-81396735D01*
X82431895Y-81318773D01*
X82321758Y-81297397D01*
X82259309Y-81299750D01*
X82205543Y-81326298D01*
X82193112Y-81407278D01*
X82010329Y-81407278D01*
X82008234Y-81404547D01*
X81869302Y-81314864D01*
X81691760Y-81277080D01*
X81534262Y-81306070D01*
X81462875Y-81347514D01*
X81404552Y-81402388D01*
X81387649Y-81418292D01*
X81345155Y-81522431D01*
X81326172Y-81687435D01*
X81321481Y-81940806D01*
X81154069Y-81940806D01*
X81178859Y-81740104D01*
X81198595Y-81532388D01*
X81198809Y-81402388D01*
X81177740Y-81331974D01*
X81133623Y-81303020D01*
X81064697Y-81297397D01*
X80991302Y-81306354D01*
X80939810Y-81352348D01*
X80903771Y-81461486D01*
X80869119Y-81659840D01*
X80841481Y-81831165D01*
X80822489Y-81915489D01*
X80811656Y-81899347D01*
X80805273Y-81790319D01*
X80805066Y-81784545D01*
X80786694Y-81540977D01*
X80746450Y-81392125D01*
X80674235Y-81317697D01*
X80559948Y-81297397D01*
X80465484Y-81303040D01*
X80415098Y-81339056D01*
X80395836Y-81433981D01*
X80392739Y-81616347D01*
X80387570Y-81747608D01*
X80366506Y-81882864D01*
X80334748Y-81935296D01*
X80322549Y-81930204D01*
X80289870Y-81851570D01*
X80276758Y-81708076D01*
X80274426Y-81600819D01*
X80247119Y-81419624D01*
X80181388Y-81324797D01*
X80067585Y-81297397D01*
X80046162Y-81297359D01*
X79989247Y-81301924D01*
X79954548Y-81328049D01*
X79940485Y-81394439D01*
X79808550Y-81394439D01*
X79783548Y-81227597D01*
X79749687Y-81149235D01*
X79699919Y-81151350D01*
X79578444Y-81201256D01*
X79426030Y-81286594D01*
X79277613Y-81387295D01*
X79168129Y-81483291D01*
X79097350Y-81548487D01*
X79020215Y-81587351D01*
X78944060Y-81601341D01*
X78813619Y-81658810D01*
X78701371Y-81735757D01*
X78653466Y-81804817D01*
X78648069Y-81831795D01*
X78580525Y-81877548D01*
X78529824Y-81889077D01*
X78394360Y-81941721D01*
X78222751Y-82022525D01*
X78107398Y-82077057D01*
X77940984Y-82141951D01*
X77831313Y-82167260D01*
X77773268Y-82176761D01*
X77725159Y-82225251D01*
X77715346Y-82251928D01*
X77638173Y-82283242D01*
X77633303Y-82283049D01*
X77598420Y-82261843D01*
X77574763Y-82193486D01*
X77560335Y-82060783D01*
X77553141Y-81846537D01*
X77551187Y-81533550D01*
X77551187Y-81112436D01*
X79813250Y-81112436D01*
X79820613Y-81132162D01*
X79877691Y-81158125D01*
X80004257Y-81173053D01*
X80215739Y-81178302D01*
X80527565Y-81175228D01*
X80538991Y-81175022D01*
X80817868Y-81173269D01*
X81055281Y-81177686D01*
X81226410Y-81187430D01*
X81306435Y-81201660D01*
X81334651Y-81212351D01*
X81407883Y-81180924D01*
X81418987Y-81157467D01*
X81416077Y-81154640D01*
X83251353Y-81154640D01*
X83285366Y-81168298D01*
X83419089Y-81156801D01*
X83445790Y-81154095D01*
X83581040Y-81157020D01*
X83611920Y-81200741D01*
X83608560Y-81215221D01*
X83592821Y-81329027D01*
X83580052Y-81452344D01*
X83573359Y-81516978D01*
X83553616Y-81746826D01*
X83539932Y-82000677D01*
X83546951Y-82168727D01*
X83576432Y-82225251D01*
X83602540Y-82212840D01*
X83603208Y-82138264D01*
X83595247Y-82093461D01*
X83634024Y-82051278D01*
X83664769Y-82040162D01*
X83698219Y-81960869D01*
X83706564Y-81919448D01*
X83756210Y-81906301D01*
X83778673Y-81915362D01*
X83814200Y-81880728D01*
X83824043Y-81852438D01*
X83901187Y-81819315D01*
X83939672Y-81829905D01*
X83993340Y-81918590D01*
X83993228Y-82071213D01*
X83996969Y-82090148D01*
X84058849Y-82095736D01*
X84112967Y-82040034D01*
X84151466Y-81916682D01*
X84155144Y-81878843D01*
X84142849Y-81795865D01*
X84078977Y-81796879D01*
X84023652Y-81804292D01*
X83988173Y-81740353D01*
X83976920Y-81694872D01*
X83907053Y-81680111D01*
X83866865Y-81687451D01*
X83787648Y-81649296D01*
X83796280Y-81606446D01*
X83897764Y-81587351D01*
X83995467Y-81570131D01*
X84046164Y-81501815D01*
X84044860Y-81484390D01*
X83999582Y-81440609D01*
X83872191Y-81451073D01*
X83836228Y-81456835D01*
X83724623Y-81446462D01*
X83695325Y-81394306D01*
X83765170Y-81320855D01*
X83797578Y-81306745D01*
X83790743Y-81346428D01*
X83779008Y-81376912D01*
X83813737Y-81413379D01*
X83825971Y-81410399D01*
X83892729Y-81341629D01*
X83962915Y-81210411D01*
X83978300Y-81175976D01*
X83992715Y-81152420D01*
X84046164Y-81152420D01*
X84075159Y-81181415D01*
X84104155Y-81152420D01*
X84162146Y-81152420D01*
X84191141Y-81181415D01*
X84220137Y-81152420D01*
X84191141Y-81123424D01*
X84162146Y-81152420D01*
X84104155Y-81152420D01*
X84075159Y-81123424D01*
X84046164Y-81152420D01*
X83992715Y-81152420D01*
X84051755Y-81055940D01*
X84116531Y-81007443D01*
X84155542Y-80995462D01*
X84115753Y-80937854D01*
X84055488Y-80898124D01*
X83976575Y-80937854D01*
X83958121Y-80951604D01*
X83836360Y-80991429D01*
X83668709Y-81007443D01*
X83627004Y-81008677D01*
X83447778Y-81037957D01*
X83317864Y-81093982D01*
X83301849Y-81106394D01*
X83251353Y-81154640D01*
X81416077Y-81154640D01*
X81397392Y-81136485D01*
X81384294Y-81138743D01*
X81320593Y-81098005D01*
X81351660Y-81053015D01*
X81466339Y-80982659D01*
X81639543Y-80903785D01*
X81809451Y-80831609D01*
X81951208Y-80763131D01*
X82016484Y-80720434D01*
X82037684Y-80698513D01*
X82132465Y-80646110D01*
X82168539Y-80626193D01*
X82153551Y-80587906D01*
X82053762Y-80550063D01*
X81889029Y-80517297D01*
X81679207Y-80494240D01*
X81444153Y-80485525D01*
X81438228Y-80485526D01*
X81195401Y-80491146D01*
X81024764Y-80514424D01*
X80883622Y-80565438D01*
X80729276Y-80654267D01*
X80623836Y-80715608D01*
X80378574Y-80835400D01*
X80138434Y-80929723D01*
X79995849Y-80984321D01*
X79864206Y-81055106D01*
X79813250Y-81112436D01*
X77551187Y-81112436D01*
X77551187Y-80783859D01*
X77855639Y-80813645D01*
X77968336Y-80821760D01*
X78152803Y-80809945D01*
X78276073Y-80753309D01*
X78328137Y-80711189D01*
X78354229Y-80670935D01*
X78290570Y-80661342D01*
X78219813Y-80651968D01*
X78192617Y-80612914D01*
X78258119Y-80556332D01*
X78406552Y-80496137D01*
X78422062Y-80491467D01*
X78576873Y-80461461D01*
X78643348Y-80486407D01*
X78690819Y-80518859D01*
X78808449Y-80539291D01*
X78949256Y-80540489D01*
X79067375Y-80522538D01*
X79116940Y-80485525D01*
X79123595Y-80475305D01*
X79213756Y-80450123D01*
X79394732Y-80433520D01*
X79647882Y-80427534D01*
X79822224Y-80426495D01*
X80025151Y-80417665D01*
X80163790Y-80394297D01*
X80222883Y-80369543D01*
X80508721Y-80369543D01*
X80529807Y-80411344D01*
X80618196Y-80420957D01*
X80740685Y-80369543D01*
X80766377Y-80351096D01*
X80769438Y-80321099D01*
X80668196Y-80312440D01*
X80558737Y-80327744D01*
X80508721Y-80369543D01*
X80222883Y-80369543D01*
X80269865Y-80349862D01*
X80375099Y-80277827D01*
X80421234Y-80243372D01*
X80522607Y-80181583D01*
X80629062Y-80152781D01*
X80777289Y-80150596D01*
X81003975Y-80168659D01*
X81233513Y-80184385D01*
X81386689Y-80178193D01*
X81436575Y-80146721D01*
X81443460Y-80129568D01*
X81524855Y-80071313D01*
X81668538Y-80014746D01*
X81812449Y-79961514D01*
X81883664Y-79893598D01*
X81900502Y-79783878D01*
X81915795Y-79665518D01*
X81958493Y-79586666D01*
X81967009Y-79576322D01*
X81992843Y-79476656D01*
X82011645Y-79299852D01*
X82019826Y-79075824D01*
X82020186Y-79040587D01*
X82028726Y-78780641D01*
X82045445Y-78540745D01*
X82067133Y-78368858D01*
X82111099Y-78136895D01*
X82155310Y-78325020D01*
X82157118Y-78332491D01*
X82210979Y-78473779D01*
X82277291Y-78556983D01*
X82309729Y-78581442D01*
X82374243Y-78686427D01*
X82450985Y-78831722D01*
X82634063Y-78966887D01*
X82756328Y-79032321D01*
X82618369Y-79304824D01*
X82605446Y-79330744D01*
X82541598Y-79482765D01*
X82503540Y-79641721D01*
X82485177Y-79843882D01*
X82480411Y-80125513D01*
X82481317Y-80317240D01*
X82481443Y-80321099D01*
X82487249Y-80498635D01*
X82501607Y-80594467D01*
X82527690Y-80622461D01*
X82568798Y-80600343D01*
X82626854Y-80565626D01*
X82697598Y-80567400D01*
X82706243Y-80596537D01*
X82681803Y-80626193D01*
X82654329Y-80659531D01*
X82615554Y-80690629D01*
G37*
G36*
X79084224Y-72348343D02*
G01*
X79108392Y-72453426D01*
X79116940Y-72653335D01*
X79110687Y-72813447D01*
X79089768Y-72951826D01*
X79058949Y-73004703D01*
X79035409Y-72977377D01*
X79010589Y-72862774D01*
X79000958Y-72689176D01*
X79005637Y-72562465D01*
X79026691Y-72411428D01*
X79058949Y-72337808D01*
X79084224Y-72348343D01*
G37*
G36*
X84220137Y-77498995D02*
G01*
X84191141Y-77527991D01*
X84162146Y-77498995D01*
X84191141Y-77470000D01*
X84220137Y-77498995D01*
G37*
G36*
X85592587Y-79634992D02*
G01*
X85601660Y-79652435D01*
X85553927Y-79673653D01*
X85523226Y-79669468D01*
X85515266Y-79634992D01*
X85523766Y-79628052D01*
X85592587Y-79634992D01*
G37*
G36*
X84548751Y-78359193D02*
G01*
X84557824Y-78376636D01*
X84510091Y-78397854D01*
X84479391Y-78393668D01*
X84471430Y-78359193D01*
X84479930Y-78352253D01*
X84548751Y-78359193D01*
G37*
G36*
X88028204Y-76213531D02*
G01*
X88037276Y-76230973D01*
X87989543Y-76252191D01*
X87958843Y-76248006D01*
X87950882Y-76213531D01*
X87959382Y-76206590D01*
X88028204Y-76213531D01*
G37*
G36*
X84278127Y-79847625D02*
G01*
X84273942Y-79878325D01*
X84239467Y-79886286D01*
X84232526Y-79877786D01*
X84239467Y-79808965D01*
X84256909Y-79799892D01*
X84278127Y-79847625D01*
G37*
G36*
X83930182Y-77498995D02*
G01*
X83901187Y-77527991D01*
X83872191Y-77498995D01*
X83901187Y-77470000D01*
X83930182Y-77498995D01*
G37*
G36*
X88730431Y-75376056D02*
G01*
X88790300Y-75435970D01*
X88786603Y-75468886D01*
X88714429Y-75498310D01*
X88666551Y-75488848D01*
X88638557Y-75435970D01*
X88646433Y-75418777D01*
X88714429Y-75373630D01*
X88730431Y-75376056D01*
G37*
G36*
X79696849Y-81442374D02*
G01*
X79667853Y-81471370D01*
X79638858Y-81442374D01*
X79667853Y-81413379D01*
X79696849Y-81442374D01*
G37*
G36*
X86527326Y-80152083D02*
G01*
X86481780Y-80195570D01*
X86431603Y-80221214D01*
X86307808Y-80248597D01*
X86271444Y-80235121D01*
X86336803Y-80195570D01*
X86377168Y-80179099D01*
X86485164Y-80146592D01*
X86527326Y-80152083D01*
G37*
G36*
X84954688Y-79750974D02*
G01*
X84963760Y-79768416D01*
X84916027Y-79789634D01*
X84885327Y-79785449D01*
X84877366Y-79750974D01*
X84885866Y-79744033D01*
X84954688Y-79750974D01*
G37*
G36*
X83824989Y-78404951D02*
G01*
X83872191Y-78455844D01*
X83870629Y-78469603D01*
X83817623Y-78513835D01*
X83801353Y-78511623D01*
X83727214Y-78455844D01*
X83721759Y-78425967D01*
X83781783Y-78397854D01*
X83824989Y-78404951D01*
G37*
G36*
X89774823Y-79201410D02*
G01*
X89783540Y-79214381D01*
X89874242Y-79252417D01*
X90024056Y-79267717D01*
X90071720Y-79268853D01*
X90199794Y-79286476D01*
X90251187Y-79318654D01*
X90279924Y-79359464D01*
X90397686Y-79405311D01*
X90578213Y-79435295D01*
X90790882Y-79444908D01*
X91005068Y-79429643D01*
X91036796Y-79425486D01*
X91266384Y-79406827D01*
X91548303Y-79397033D01*
X91828795Y-79398161D01*
X92097027Y-79398975D01*
X92303825Y-79380238D01*
X92405804Y-79339949D01*
X92447846Y-79304074D01*
X92524429Y-79267717D01*
X92525091Y-79267787D01*
X92542873Y-79325695D01*
X92557411Y-79476436D01*
X92567222Y-79697656D01*
X92570821Y-79967002D01*
X92570821Y-80666287D01*
X91802443Y-80656549D01*
X91797564Y-80656489D01*
X91481084Y-80657756D01*
X91195742Y-80668347D01*
X90969790Y-80686673D01*
X90831478Y-80711145D01*
X90747193Y-80732507D01*
X90534496Y-80765093D01*
X90309561Y-80779835D01*
X90300510Y-80779985D01*
X90076217Y-80793145D01*
X89798852Y-80821749D01*
X89526301Y-80859884D01*
X89463012Y-80870209D01*
X89251169Y-80904750D01*
X89093059Y-80930500D01*
X89019048Y-80942514D01*
X88987540Y-80930960D01*
X88887207Y-80861290D01*
X88753256Y-80748468D01*
X88668223Y-80659868D01*
X88566830Y-80504720D01*
X88521270Y-80362237D01*
X88537783Y-80257813D01*
X88622610Y-80216841D01*
X88710073Y-80215965D01*
X88909974Y-80208211D01*
X89017588Y-80188545D01*
X89050743Y-80151437D01*
X89027271Y-80091359D01*
X89019168Y-80079243D01*
X88918455Y-79978063D01*
X88782344Y-79885865D01*
X88650932Y-79825996D01*
X88564318Y-79821803D01*
X88546236Y-79829254D01*
X88511461Y-79793057D01*
X88524341Y-79762289D01*
X88606552Y-79731643D01*
X88721205Y-79685853D01*
X88817302Y-79561566D01*
X88857562Y-79398196D01*
X88863268Y-79340010D01*
X88900550Y-79292311D01*
X88997477Y-79271981D01*
X89182168Y-79267717D01*
X89310574Y-79262975D01*
X89501638Y-79238940D01*
X89628825Y-79201410D01*
X89729536Y-79164105D01*
X89774823Y-79201410D01*
G37*
G36*
X84480511Y-77469054D02*
G01*
X84486255Y-77499459D01*
X84426527Y-77527991D01*
X84397248Y-77526856D01*
X84338681Y-77499463D01*
X84390102Y-77443481D01*
X84411012Y-77435600D01*
X84480511Y-77469054D01*
G37*
G36*
X91056023Y-74599452D02*
G01*
X91061686Y-74641854D01*
X91063957Y-74658863D01*
X91087347Y-74773424D01*
X91105718Y-74863403D01*
X91149268Y-74994458D01*
X91176398Y-75057846D01*
X91176326Y-75121370D01*
X91176260Y-75179501D01*
X91082232Y-75239352D01*
X90900993Y-75231034D01*
X90887341Y-75228321D01*
X90774308Y-75215621D01*
X90733223Y-75259846D01*
X90733220Y-75324338D01*
X90733216Y-75390298D01*
X90737630Y-75469315D01*
X90744109Y-75585296D01*
X90251187Y-75647115D01*
X90171520Y-75656606D01*
X89939546Y-75677411D01*
X89772614Y-75681897D01*
X89683302Y-75671126D01*
X89684186Y-75646157D01*
X89787844Y-75608051D01*
X89870255Y-75578644D01*
X89869792Y-75562082D01*
X89832842Y-75511308D01*
X89832509Y-75469315D01*
X90483150Y-75469315D01*
X90512146Y-75498310D01*
X90541141Y-75469315D01*
X90512146Y-75440319D01*
X90483150Y-75469315D01*
X89832509Y-75469315D01*
X89831873Y-75389196D01*
X89835281Y-75362241D01*
X89830892Y-75324338D01*
X90019223Y-75324338D01*
X90021583Y-75340232D01*
X90080637Y-75382328D01*
X90101612Y-75377775D01*
X90106210Y-75324338D01*
X90094307Y-75306983D01*
X90044796Y-75266347D01*
X90039009Y-75267854D01*
X90019223Y-75324338D01*
X89830892Y-75324338D01*
X89819260Y-75223898D01*
X89727050Y-75165741D01*
X89549090Y-75180723D01*
X89371741Y-75219676D01*
X89502408Y-75358764D01*
X89513450Y-75370862D01*
X89583229Y-75475007D01*
X89586246Y-75541575D01*
X89563250Y-75553335D01*
X89513529Y-75512808D01*
X89470017Y-75470521D01*
X89351525Y-75443131D01*
X89213694Y-75453665D01*
X89109513Y-75503363D01*
X89065081Y-75534930D01*
X89006579Y-75501863D01*
X89023247Y-75439681D01*
X89133565Y-75379145D01*
X89209019Y-75347129D01*
X89284203Y-75267185D01*
X89305897Y-75121370D01*
X89961232Y-75121370D01*
X89990228Y-75150365D01*
X90019223Y-75121370D01*
X90193196Y-75121370D01*
X90222191Y-75150365D01*
X90251187Y-75121370D01*
X90222191Y-75092374D01*
X90193196Y-75121370D01*
X90019223Y-75121370D01*
X89990228Y-75092374D01*
X89961232Y-75121370D01*
X89305897Y-75121370D01*
X89306148Y-75119686D01*
X89306148Y-75119685D01*
X89290514Y-74967798D01*
X89230607Y-74918401D01*
X89194343Y-74909560D01*
X89149360Y-74834838D01*
X89162598Y-74786031D01*
X89977368Y-74786031D01*
X90007712Y-74788821D01*
X90029645Y-74773424D01*
X90251187Y-74773424D01*
X90280182Y-74802420D01*
X90309178Y-74773424D01*
X90280182Y-74744429D01*
X90251187Y-74773424D01*
X90029645Y-74773424D01*
X90109624Y-74717278D01*
X90148810Y-74686585D01*
X90183901Y-74641854D01*
X90126912Y-74630291D01*
X90077844Y-74639834D01*
X89998252Y-74715433D01*
X89977368Y-74786031D01*
X89162598Y-74786031D01*
X89172117Y-74750934D01*
X89230614Y-74712739D01*
X89284806Y-74758565D01*
X89303999Y-74785106D01*
X89318755Y-74729931D01*
X89308199Y-74675579D01*
X89240254Y-74628447D01*
X89237032Y-74628414D01*
X89179371Y-74608341D01*
X89174067Y-74599452D01*
X90541141Y-74599452D01*
X90570137Y-74628447D01*
X90599132Y-74599452D01*
X90570137Y-74570456D01*
X90541141Y-74599452D01*
X89174067Y-74599452D01*
X89136617Y-74536689D01*
X89111035Y-74433257D01*
X90261445Y-74433257D01*
X90309178Y-74454475D01*
X90339878Y-74450289D01*
X90347838Y-74415814D01*
X90339339Y-74408874D01*
X90270517Y-74415814D01*
X90261445Y-74433257D01*
X89111035Y-74433257D01*
X89100856Y-74392102D01*
X89076517Y-74233595D01*
X89323333Y-74233595D01*
X89348927Y-74253781D01*
X89452249Y-74273384D01*
X89592381Y-74280549D01*
X89722956Y-74273592D01*
X89797605Y-74250827D01*
X89834280Y-74238096D01*
X89961083Y-74219946D01*
X90140717Y-74207002D01*
X90230259Y-74202105D01*
X90372877Y-74183365D01*
X90438393Y-74145505D01*
X90454155Y-74077203D01*
X90450647Y-74035538D01*
X90422504Y-73996216D01*
X90346699Y-73976683D01*
X90200515Y-73972408D01*
X89961232Y-73978856D01*
X89810970Y-73985659D01*
X89597124Y-74006151D01*
X89466005Y-74039960D01*
X89395821Y-74091424D01*
X89354944Y-74153370D01*
X89323333Y-74233595D01*
X89076517Y-74233595D01*
X89064176Y-74153227D01*
X89027233Y-73880974D01*
X89218776Y-73850952D01*
X89295676Y-73841140D01*
X89489970Y-73822219D01*
X89742830Y-73801714D01*
X90019223Y-73782617D01*
X90202250Y-73770927D01*
X90452013Y-73754399D01*
X90648738Y-73740696D01*
X90761062Y-73731958D01*
X90783492Y-73730587D01*
X90918546Y-73771823D01*
X90981221Y-73903561D01*
X90982087Y-73910107D01*
X90992612Y-74008473D01*
X90999371Y-74077203D01*
X91009854Y-74183803D01*
X91030547Y-74403020D01*
X91031774Y-74415814D01*
X91032477Y-74423139D01*
X91056023Y-74599452D01*
G37*
G36*
X83736879Y-74647777D02*
G01*
X83745952Y-74665220D01*
X83698219Y-74686438D01*
X83667519Y-74682253D01*
X83659558Y-74647777D01*
X83668058Y-74640837D01*
X83736879Y-74647777D01*
G37*
G36*
X89033379Y-73613607D02*
G01*
X89004383Y-73642602D01*
X88975388Y-73613607D01*
X89004383Y-73584612D01*
X89033379Y-73613607D01*
G37*
G36*
X83698219Y-81558356D02*
G01*
X83669223Y-81587351D01*
X83640228Y-81558356D01*
X83669223Y-81529360D01*
X83698219Y-81558356D01*
G37*
G36*
X84220137Y-78020913D02*
G01*
X84191141Y-78049908D01*
X84162146Y-78020913D01*
X84191141Y-77991917D01*
X84220137Y-78020913D01*
G37*
G36*
X86151199Y-79108242D02*
G01*
X86216662Y-79219359D01*
X86290007Y-79267717D01*
X86295221Y-79268018D01*
X86347897Y-79330809D01*
X86365799Y-79499680D01*
X86364320Y-79551677D01*
X86344122Y-79680197D01*
X86307808Y-79731643D01*
X86274102Y-79753392D01*
X86249817Y-79847625D01*
X86238943Y-79915037D01*
X86191826Y-79963607D01*
X86121711Y-79932768D01*
X86017853Y-79847625D01*
X85901872Y-79731643D01*
X86046849Y-79731643D01*
X86059474Y-79731561D01*
X86146588Y-79715555D01*
X86183913Y-79649130D01*
X86191826Y-79499680D01*
X86190347Y-79447683D01*
X86170149Y-79319163D01*
X86133835Y-79267717D01*
X86095674Y-79223808D01*
X86082013Y-79108242D01*
X86088183Y-78948767D01*
X86151199Y-79108242D01*
G37*
G36*
X77841141Y-82573196D02*
G01*
X77836956Y-82603896D01*
X77802481Y-82611857D01*
X77795540Y-82603357D01*
X77802481Y-82534535D01*
X77819923Y-82525463D01*
X77841141Y-82573196D01*
G37*
G36*
X84084825Y-77779284D02*
G01*
X84093897Y-77796727D01*
X84046164Y-77817945D01*
X84015464Y-77813760D01*
X84007503Y-77779284D01*
X84016003Y-77772344D01*
X84084825Y-77779284D01*
G37*
G36*
X83640228Y-81906301D02*
G01*
X83611232Y-81935296D01*
X83582237Y-81906301D01*
X83611232Y-81877306D01*
X83640228Y-81906301D01*
G37*
G36*
X85539463Y-79764301D02*
G01*
X85677726Y-79855443D01*
X85743647Y-79926417D01*
X85763945Y-79985649D01*
X85706721Y-80032297D01*
X85706325Y-80032519D01*
X85621406Y-80105281D01*
X85628437Y-80161509D01*
X85703662Y-80191658D01*
X85823327Y-80186183D01*
X85963675Y-80135539D01*
X85969120Y-80132651D01*
X86053446Y-80105947D01*
X86075844Y-80159702D01*
X86082200Y-80196660D01*
X86148333Y-80273309D01*
X86186886Y-80305724D01*
X86135515Y-80361975D01*
X86099711Y-80389423D01*
X86065906Y-80442881D01*
X86114277Y-80460044D01*
X86223688Y-80439370D01*
X86373001Y-80379316D01*
X86450551Y-80344030D01*
X86592424Y-80296708D01*
X86674327Y-80294036D01*
X86695543Y-80303505D01*
X86695044Y-80270221D01*
X86694337Y-80257117D01*
X86755729Y-80218914D01*
X86879411Y-80183930D01*
X87026018Y-80159447D01*
X87156186Y-80152752D01*
X87230549Y-80171127D01*
X87236392Y-80178169D01*
X87217246Y-80238301D01*
X87096896Y-80308878D01*
X86887301Y-80384430D01*
X86600417Y-80459484D01*
X86330870Y-80531340D01*
X86123176Y-80617800D01*
X85978456Y-80724179D01*
X85934268Y-80766908D01*
X85819842Y-80862477D01*
X85749392Y-80881534D01*
X85698904Y-80833470D01*
X85694322Y-80802696D01*
X85757146Y-80775479D01*
X85810250Y-80756552D01*
X85845156Y-80670998D01*
X85829868Y-80550937D01*
X85771709Y-80434746D01*
X85678003Y-80360802D01*
X85664890Y-80356033D01*
X85582177Y-80336984D01*
X85555176Y-80381064D01*
X85564874Y-80514020D01*
X85571492Y-80591083D01*
X85557131Y-80690330D01*
X85495936Y-80717488D01*
X85461696Y-80712362D01*
X85422904Y-80655603D01*
X85426939Y-80514520D01*
X85428167Y-80503418D01*
X85426169Y-80363309D01*
X85386298Y-80311552D01*
X85385465Y-80311567D01*
X85340587Y-80363403D01*
X85321963Y-80485525D01*
X85321959Y-80487689D01*
X85304689Y-80609105D01*
X85263972Y-80659497D01*
X85224018Y-80614917D01*
X85205981Y-80498490D01*
X85205672Y-80465661D01*
X85189666Y-80380307D01*
X85125143Y-80351587D01*
X84978918Y-80359137D01*
X84945532Y-80361589D01*
X84771592Y-80354211D01*
X84645470Y-80318939D01*
X84635185Y-80312796D01*
X84601049Y-80278150D01*
X84654561Y-80260809D01*
X84809800Y-80255325D01*
X84875146Y-80254520D01*
X85079731Y-80239786D01*
X85197409Y-80195406D01*
X85251162Y-80106303D01*
X85263972Y-79957403D01*
X85263982Y-79948637D01*
X85273345Y-79806126D01*
X85314616Y-79744774D01*
X85408949Y-79731643D01*
X85539463Y-79764301D01*
G37*
G36*
X86799098Y-76511634D02*
G01*
X86693627Y-76628307D01*
X86588872Y-76688165D01*
X86452785Y-76716118D01*
X86432096Y-76718633D01*
X86113905Y-76740272D01*
X85827467Y-76730274D01*
X85613039Y-76689899D01*
X85587655Y-76680818D01*
X85436718Y-76606990D01*
X85298534Y-76513066D01*
X85203668Y-76422551D01*
X85182685Y-76358951D01*
X85189186Y-76342799D01*
X85151413Y-76310182D01*
X85134852Y-76308559D01*
X85090888Y-76266689D01*
X85097772Y-76222829D01*
X85185814Y-76118619D01*
X85500119Y-76118619D01*
X85547684Y-76136210D01*
X85573794Y-76140675D01*
X85586936Y-76187705D01*
X85585748Y-76189898D01*
X85617393Y-76232620D01*
X85728491Y-76264648D01*
X85731691Y-76265115D01*
X85851993Y-76278365D01*
X85901872Y-76275391D01*
X85889518Y-76259333D01*
X85805604Y-76209855D01*
X85723292Y-76172983D01*
X85912130Y-76172983D01*
X85959863Y-76194201D01*
X85990563Y-76190015D01*
X85998523Y-76155540D01*
X85990024Y-76148600D01*
X85921202Y-76155540D01*
X85912130Y-76172983D01*
X85723292Y-76172983D01*
X85682156Y-76154556D01*
X85566472Y-76113553D01*
X85505852Y-76106963D01*
X85500119Y-76118619D01*
X85185814Y-76118619D01*
X85189180Y-76114635D01*
X85379954Y-76049223D01*
X85397541Y-76045896D01*
X85540400Y-76001452D01*
X85621766Y-75946301D01*
X85623787Y-75943052D01*
X85662322Y-75901962D01*
X85704851Y-75931954D01*
X85775574Y-76049223D01*
X85818911Y-76106874D01*
X85842117Y-76089294D01*
X85851514Y-76057942D01*
X85916369Y-76050101D01*
X85938726Y-76053337D01*
X85934475Y-76049223D01*
X86017853Y-76049223D01*
X86046849Y-76078219D01*
X86075844Y-76049223D01*
X86046849Y-76020228D01*
X86017853Y-76049223D01*
X85934475Y-76049223D01*
X85887374Y-76003638D01*
X85799022Y-75916613D01*
X85812460Y-75879641D01*
X85930867Y-75890053D01*
X86027408Y-75893477D01*
X86075844Y-75853016D01*
X86067172Y-75824377D01*
X85992280Y-75788264D01*
X85956948Y-75783076D01*
X85867231Y-75721139D01*
X85859769Y-75681053D01*
X85936297Y-75682860D01*
X85979862Y-75690066D01*
X86036961Y-75655988D01*
X86059779Y-75532520D01*
X86078685Y-75381908D01*
X86147151Y-75209078D01*
X86276853Y-75118555D01*
X86485155Y-75092374D01*
X86612014Y-75098855D01*
X86830068Y-75162490D01*
X86961843Y-75298609D01*
X87014384Y-75512808D01*
X87017465Y-75551779D01*
X87040788Y-75678969D01*
X87073542Y-75730274D01*
X87108588Y-75747006D01*
X87123404Y-75839463D01*
X87089072Y-75990691D01*
X87064791Y-76049223D01*
X87020687Y-76155540D01*
X87012462Y-76175368D01*
X86954350Y-76275391D01*
X86900445Y-76368173D01*
X86799098Y-76511634D01*
G37*
G36*
X85567337Y-78806018D02*
G01*
X85611917Y-78861780D01*
X85611253Y-78874904D01*
X85586344Y-78919771D01*
X85577042Y-78917103D01*
X85524931Y-78861780D01*
X85515870Y-78839317D01*
X85550504Y-78803790D01*
X85567337Y-78806018D01*
G37*
G36*
X91642968Y-79175898D02*
G01*
X91631034Y-79221025D01*
X91551149Y-79267717D01*
X91507524Y-79258008D01*
X91482285Y-79198852D01*
X91539609Y-79122518D01*
X91609164Y-79112392D01*
X91642968Y-79175898D01*
G37*
G36*
X84145002Y-78129416D02*
G01*
X84154896Y-78159857D01*
X84104155Y-78223881D01*
X84032681Y-78254018D01*
X83989465Y-78231608D01*
X84034566Y-78154292D01*
X84074493Y-78126082D01*
X84145002Y-78129416D01*
G37*
G36*
X78259925Y-82749381D02*
G01*
X78334064Y-82805159D01*
X78339519Y-82835037D01*
X78279495Y-82863150D01*
X78236289Y-82856053D01*
X78189086Y-82805159D01*
X78190648Y-82791401D01*
X78243655Y-82747169D01*
X78259925Y-82749381D01*
G37*
G36*
X85843881Y-73555616D02*
G01*
X85814885Y-73584612D01*
X85785890Y-73555616D01*
X85814885Y-73526621D01*
X85843881Y-73555616D01*
G37*
G36*
X79754840Y-82776164D02*
G01*
X79725844Y-82805159D01*
X79696849Y-82776164D01*
X79725844Y-82747169D01*
X79754840Y-82776164D01*
G37*
G36*
X82306438Y-82776164D02*
G01*
X82277443Y-82805159D01*
X82248447Y-82776164D01*
X82277443Y-82747169D01*
X82306438Y-82776164D01*
G37*
G36*
X90193196Y-71931872D02*
G01*
X90164200Y-71960867D01*
X90135205Y-71931872D01*
X90164200Y-71902876D01*
X90193196Y-71931872D01*
G37*
G36*
X90811765Y-75807595D02*
G01*
X90820838Y-75825037D01*
X90773105Y-75846255D01*
X90742404Y-75842070D01*
X90734444Y-75807595D01*
X90742944Y-75800654D01*
X90811765Y-75807595D01*
G37*
G36*
X84684064Y-79006758D02*
G01*
X84655068Y-79035753D01*
X84626073Y-79006758D01*
X84655068Y-78977762D01*
X84684064Y-79006758D01*
G37*
G36*
X79812831Y-82051278D02*
G01*
X79808646Y-82081978D01*
X79774170Y-82089939D01*
X79767230Y-82081439D01*
X79774170Y-82012618D01*
X79791613Y-82003545D01*
X79812831Y-82051278D01*
G37*
G36*
X84345812Y-80328095D02*
G01*
X84481095Y-80369543D01*
X84542384Y-80404512D01*
X84510091Y-80419382D01*
X84442406Y-80410991D01*
X84307123Y-80369543D01*
X84245834Y-80334574D01*
X84278127Y-80319704D01*
X84345812Y-80328095D01*
G37*
G36*
X85785890Y-75701278D02*
G01*
X85756895Y-75730274D01*
X85727899Y-75701278D01*
X85756895Y-75672283D01*
X85785890Y-75701278D01*
G37*
G36*
X90166836Y-82546837D02*
G01*
X90142644Y-82569272D01*
X89944960Y-82670942D01*
X89719767Y-82681959D01*
X89510209Y-82598903D01*
X89447796Y-82558563D01*
X89359132Y-82540268D01*
X89252439Y-82598903D01*
X89224217Y-82617183D01*
X89009645Y-82686163D01*
X88785795Y-82661574D01*
X88595811Y-82546837D01*
X88590787Y-82541784D01*
X88518185Y-82453979D01*
X88476665Y-82351929D01*
X88457877Y-82201775D01*
X88453470Y-81969656D01*
X88453507Y-81954952D01*
X88454096Y-81940806D01*
X88570340Y-81940806D01*
X88571916Y-82096178D01*
X88585735Y-82283923D01*
X88618402Y-82401439D01*
X88675502Y-82477222D01*
X88742403Y-82524144D01*
X88920247Y-82572334D01*
X89099406Y-82544802D01*
X89233058Y-82444311D01*
X89255286Y-82401200D01*
X89275441Y-82319976D01*
X89440350Y-82319976D01*
X89530443Y-82482067D01*
X89597222Y-82528541D01*
X89770503Y-82569913D01*
X89955705Y-82548960D01*
X90097222Y-82467146D01*
X90153768Y-82390471D01*
X90196368Y-82253656D01*
X90159856Y-82150218D01*
X90048219Y-82109269D01*
X89937220Y-82134302D01*
X89903242Y-82225251D01*
X89890028Y-82298048D01*
X89831218Y-82339955D01*
X89756854Y-82280960D01*
X89762524Y-82237104D01*
X89832697Y-82132859D01*
X89956400Y-82004234D01*
X90112236Y-81827057D01*
X90196080Y-81634514D01*
X90179654Y-81463904D01*
X90060782Y-81329291D01*
X89982617Y-81293360D01*
X89813047Y-81271047D01*
X89649441Y-81299187D01*
X89542922Y-81373425D01*
X89494847Y-81499828D01*
X89527133Y-81604748D01*
X89642283Y-81645342D01*
X89736848Y-81628317D01*
X89787260Y-81558356D01*
X89793802Y-81518340D01*
X89845251Y-81471370D01*
X89889705Y-81482936D01*
X89896786Y-81551309D01*
X89821870Y-81669906D01*
X89705585Y-81790319D01*
X89671278Y-81825844D01*
X89571720Y-81929955D01*
X89455181Y-82130944D01*
X89440350Y-82319976D01*
X89275441Y-82319976D01*
X89296834Y-82233761D01*
X89320129Y-82010102D01*
X89323521Y-81790319D01*
X89439315Y-81790319D01*
X89468310Y-81819315D01*
X89497306Y-81790319D01*
X89468310Y-81761324D01*
X89439315Y-81790319D01*
X89323521Y-81790319D01*
X89323809Y-81771665D01*
X89306511Y-81559896D01*
X89266872Y-81416237D01*
X89236249Y-81372343D01*
X89098399Y-81288094D01*
X88921733Y-81271553D01*
X88746721Y-81321461D01*
X88613833Y-81436558D01*
X88610504Y-81442878D01*
X88590448Y-81543144D01*
X88576086Y-81720408D01*
X88570340Y-81940806D01*
X88454096Y-81940806D01*
X88463229Y-81721352D01*
X88486820Y-81518910D01*
X88519454Y-81389998D01*
X88542825Y-81347074D01*
X88685078Y-81217725D01*
X88878483Y-81160653D01*
X89087677Y-81180840D01*
X89277296Y-81283266D01*
X89308021Y-81308574D01*
X89385699Y-81337151D01*
X89469909Y-81275087D01*
X89482061Y-81263732D01*
X89646121Y-81184852D01*
X89853985Y-81167227D01*
X90057295Y-81208745D01*
X90207694Y-81307295D01*
X90286679Y-81468227D01*
X90304972Y-81680179D01*
X90251030Y-81877599D01*
X90224428Y-81945167D01*
X90251030Y-82022186D01*
X90302571Y-82100794D01*
X90307023Y-82245328D01*
X90304591Y-82253656D01*
X90259541Y-82407950D01*
X90166836Y-82546837D01*
G37*
G36*
X77728058Y-82749744D02*
G01*
X77789325Y-82863455D01*
X77791133Y-82869877D01*
X77821078Y-82943925D01*
X77835361Y-82906643D01*
X77835652Y-82902348D01*
X77871328Y-82819697D01*
X77927722Y-82814403D01*
X77957123Y-82892146D01*
X77957163Y-82896090D01*
X77988250Y-82970998D01*
X78044972Y-82962980D01*
X78079832Y-82877648D01*
X78081954Y-82847358D01*
X78091039Y-82806178D01*
X78113079Y-82877648D01*
X78114753Y-82883590D01*
X78158645Y-82942137D01*
X78262635Y-82971250D01*
X78454297Y-82979132D01*
X78581608Y-82984119D01*
X78716600Y-83005181D01*
X78768995Y-83037123D01*
X78752656Y-83052204D01*
X78641567Y-83075045D01*
X78438806Y-83089847D01*
X78160091Y-83095114D01*
X78001738Y-83093558D01*
X77761910Y-83082978D01*
X77606487Y-83063667D01*
X77551187Y-83037123D01*
X77561001Y-83010445D01*
X77638173Y-82979132D01*
X77678290Y-82971851D01*
X77725159Y-82914937D01*
X77712650Y-82886673D01*
X77638173Y-82884121D01*
X77577889Y-82885329D01*
X77551187Y-82799087D01*
X77575648Y-82717808D01*
X77645599Y-82698159D01*
X77728058Y-82749744D01*
G37*
G36*
X86945707Y-71931872D02*
G01*
X86916712Y-71960867D01*
X86887716Y-71931872D01*
X86916712Y-71902876D01*
X86945707Y-71931872D01*
G37*
G36*
X85205981Y-78600822D02*
G01*
X85176986Y-78629817D01*
X85147990Y-78600822D01*
X85176986Y-78571826D01*
X85205981Y-78600822D01*
G37*
G36*
X84639483Y-73354877D02*
G01*
X84684064Y-73410639D01*
X84683399Y-73423763D01*
X84658491Y-73468630D01*
X84649188Y-73465961D01*
X84597077Y-73410639D01*
X84588016Y-73388175D01*
X84622650Y-73352648D01*
X84639483Y-73354877D01*
G37*
G36*
X84385343Y-78992565D02*
G01*
X84489430Y-79017722D01*
X84500265Y-79064621D01*
X84408607Y-79106840D01*
X84297087Y-79126050D01*
X84206478Y-79118115D01*
X84200093Y-79062332D01*
X84249849Y-79017705D01*
X84368536Y-78992260D01*
X84385343Y-78992565D01*
G37*
G36*
X84057268Y-77591332D02*
G01*
X84090031Y-77605663D01*
X84017169Y-77643972D01*
X83911717Y-77687478D01*
X83878463Y-77688874D01*
X83901187Y-77643972D01*
X83930479Y-77616656D01*
X84035089Y-77590057D01*
X84057268Y-77591332D01*
G37*
G36*
X88633227Y-75571615D02*
G01*
X88648472Y-75643136D01*
X88651758Y-75724152D01*
X88709532Y-75763511D01*
X88775696Y-75724972D01*
X88779012Y-75720252D01*
X88844617Y-75719632D01*
X88953676Y-75820033D01*
X88998773Y-75874603D01*
X89078912Y-76002409D01*
X89065246Y-76065431D01*
X88957820Y-76066210D01*
X88861967Y-76066572D01*
X88752565Y-76117440D01*
X88715167Y-76142493D01*
X88599507Y-76176091D01*
X88453509Y-76192917D01*
X88313285Y-76191977D01*
X88214948Y-76172274D01*
X88194609Y-76132815D01*
X88263247Y-76100255D01*
X88393647Y-76106812D01*
X88404620Y-76109143D01*
X88530671Y-76111563D01*
X88593058Y-76042355D01*
X88593078Y-75943218D01*
X88513332Y-75877227D01*
X88380981Y-75880483D01*
X88380121Y-75880747D01*
X88303695Y-75865695D01*
X88277194Y-75785253D01*
X88301227Y-75678675D01*
X88376402Y-75585215D01*
X88434055Y-75554467D01*
X88547809Y-75539090D01*
X88633227Y-75571615D01*
G37*
G36*
X80952797Y-72344807D02*
G01*
X80972648Y-72453790D01*
X80958250Y-72549139D01*
X80914657Y-72598767D01*
X80876517Y-72562772D01*
X80856666Y-72453790D01*
X80871064Y-72358440D01*
X80914657Y-72308812D01*
X80952797Y-72344807D01*
G37*
G36*
X83794870Y-74125860D02*
G01*
X83803943Y-74143302D01*
X83756210Y-74164520D01*
X83725509Y-74160335D01*
X83717549Y-74125860D01*
X83726049Y-74118919D01*
X83794870Y-74125860D01*
G37*
G36*
X83930182Y-81181415D02*
G01*
X83925997Y-81212115D01*
X83891522Y-81220076D01*
X83884581Y-81211576D01*
X83891522Y-81142755D01*
X83908964Y-81133682D01*
X83930182Y-81181415D01*
G37*
G36*
X79696849Y-81210411D02*
G01*
X79667853Y-81239406D01*
X79638858Y-81210411D01*
X79667853Y-81181415D01*
X79696849Y-81210411D01*
G37*
G36*
X84104155Y-77904931D02*
G01*
X84075159Y-77933927D01*
X84046164Y-77904931D01*
X84075159Y-77875936D01*
X84104155Y-77904931D01*
G37*
G36*
X85128660Y-78185220D02*
G01*
X85137733Y-78202663D01*
X85090000Y-78223881D01*
X85059299Y-78219696D01*
X85051339Y-78185220D01*
X85059839Y-78178280D01*
X85128660Y-78185220D01*
G37*
G36*
X84316788Y-79692983D02*
G01*
X84325860Y-79710426D01*
X84278127Y-79731643D01*
X84247427Y-79727458D01*
X84239467Y-79692983D01*
X84247966Y-79686043D01*
X84316788Y-79692983D01*
G37*
G36*
X86249817Y-76919086D02*
G01*
X86220821Y-76948082D01*
X86191826Y-76919086D01*
X86220821Y-76890091D01*
X86249817Y-76919086D01*
G37*
G36*
X86203760Y-78528333D02*
G01*
X86180785Y-78697685D01*
X86140480Y-78781788D01*
X86070005Y-78803790D01*
X86008167Y-78813860D01*
X85959863Y-78861780D01*
X85948692Y-78898285D01*
X85885727Y-78915961D01*
X85815936Y-78863481D01*
X85831906Y-78815210D01*
X85928495Y-78770208D01*
X86023132Y-78726343D01*
X86075844Y-78623530D01*
X86062626Y-78549751D01*
X85998000Y-78519273D01*
X85891516Y-78589569D01*
X85856742Y-78620470D01*
X85746850Y-78688475D01*
X85652181Y-78715511D01*
X85611917Y-78687808D01*
X85599647Y-78664771D01*
X85524931Y-78666837D01*
X85481117Y-78678259D01*
X85437945Y-78660875D01*
X85454318Y-78621596D01*
X85524931Y-78534546D01*
X85573651Y-78471202D01*
X85611917Y-78362896D01*
X85602039Y-78320036D01*
X85596146Y-78314290D01*
X85959863Y-78314290D01*
X85961370Y-78320077D01*
X86017853Y-78339863D01*
X86033748Y-78337503D01*
X86075844Y-78278449D01*
X86071291Y-78257474D01*
X86017853Y-78252876D01*
X86000499Y-78264779D01*
X85959863Y-78314290D01*
X85596146Y-78314290D01*
X85524931Y-78244852D01*
X85484701Y-78220323D01*
X85437945Y-78131795D01*
X85393976Y-78066367D01*
X85278470Y-78013561D01*
X85139083Y-77963847D01*
X84974018Y-77874250D01*
X84846059Y-77800713D01*
X84713059Y-77751635D01*
X84651474Y-77725165D01*
X84586875Y-77632347D01*
X84587186Y-77523124D01*
X84660853Y-77446809D01*
X84667011Y-77444683D01*
X84792907Y-77439173D01*
X84952057Y-77472321D01*
X85105047Y-77505542D01*
X85247658Y-77475661D01*
X85293739Y-77446113D01*
X85294794Y-77420633D01*
X85191484Y-77413772D01*
X85180174Y-77413555D01*
X85064881Y-77385726D01*
X85032009Y-77299449D01*
X85040637Y-77233027D01*
X85085538Y-77153807D01*
X85085936Y-77153557D01*
X85135090Y-77077472D01*
X85178287Y-76942160D01*
X85200855Y-76858070D01*
X85250926Y-76793710D01*
X85342223Y-76804704D01*
X85344460Y-76805430D01*
X85491841Y-76833529D01*
X85669908Y-76844322D01*
X85872876Y-76842833D01*
X85684406Y-76903846D01*
X85560468Y-76957155D01*
X85507175Y-77037321D01*
X85495936Y-77188434D01*
X85497102Y-77233020D01*
X85517062Y-77360688D01*
X85553927Y-77412009D01*
X85578154Y-77419345D01*
X85611917Y-77491746D01*
X85630097Y-77532175D01*
X85741604Y-77590905D01*
X85937781Y-77629861D01*
X86199075Y-77643972D01*
X86219042Y-77644154D01*
X86369565Y-77664838D01*
X86421860Y-77716461D01*
X86400895Y-77784658D01*
X86323335Y-77902497D01*
X86223529Y-78005675D01*
X86139037Y-78049908D01*
X86090872Y-78066809D01*
X86084311Y-78132519D01*
X86151609Y-78206502D01*
X86160651Y-78213106D01*
X86187490Y-78278449D01*
X86204339Y-78319470D01*
X86203760Y-78528333D01*
G37*
G36*
X89265342Y-75668860D02*
G01*
X89263114Y-75685693D01*
X89207351Y-75730274D01*
X89194227Y-75729609D01*
X89149360Y-75704701D01*
X89152029Y-75695398D01*
X89207351Y-75643287D01*
X89229815Y-75634226D01*
X89265342Y-75668860D01*
G37*
G36*
X83200699Y-74864964D02*
G01*
X83205296Y-74918401D01*
X83193394Y-74935756D01*
X83143883Y-74976392D01*
X83138096Y-74974885D01*
X83118310Y-74918401D01*
X83120670Y-74902507D01*
X83179723Y-74860411D01*
X83200699Y-74864964D01*
G37*
G36*
X84896487Y-79909818D02*
G01*
X85001974Y-79954981D01*
X85102927Y-80042643D01*
X85147990Y-80129475D01*
X85136857Y-80161153D01*
X85057582Y-80195570D01*
X85016316Y-80186566D01*
X85005398Y-80133721D01*
X85005310Y-80076367D01*
X84936332Y-79990588D01*
X84880222Y-79937211D01*
X84887032Y-79909305D01*
X84896487Y-79909818D01*
G37*
G36*
X91538007Y-74982935D02*
G01*
X91584977Y-75034383D01*
X91575163Y-75061061D01*
X91497990Y-75092374D01*
X91457974Y-75085832D01*
X91411004Y-75034383D01*
X91420818Y-75007706D01*
X91497990Y-74976392D01*
X91538007Y-74982935D01*
G37*
G36*
X87641598Y-72598767D02*
G01*
X87668285Y-72648570D01*
X87698701Y-72758242D01*
X87694902Y-72785029D01*
X87641598Y-72830730D01*
X87602038Y-72786969D01*
X87584495Y-72671255D01*
X87585783Y-72620510D01*
X87601405Y-72559539D01*
X87641598Y-72598767D01*
G37*
G36*
X88305119Y-75296227D02*
G01*
X88300312Y-75346849D01*
X88222830Y-75454817D01*
X88209259Y-75471683D01*
X88113532Y-75572935D01*
X88048068Y-75614292D01*
X87980520Y-75605763D01*
X87865147Y-75550500D01*
X87815570Y-75470146D01*
X87861569Y-75400931D01*
X87979325Y-75330717D01*
X88124200Y-75282323D01*
X88251447Y-75275709D01*
X88305119Y-75296227D01*
G37*
G36*
X84664733Y-76735449D02*
G01*
X84673806Y-76752891D01*
X84626073Y-76774109D01*
X84595372Y-76769924D01*
X84587412Y-76735449D01*
X84595912Y-76728508D01*
X84664733Y-76735449D01*
G37*
G36*
X87760299Y-81471776D02*
G01*
X87788897Y-81534401D01*
X87808375Y-81687150D01*
X87815570Y-81906301D01*
X87815516Y-81926697D01*
X87807166Y-82141179D01*
X87786800Y-82287265D01*
X87757579Y-82341233D01*
X87754860Y-82340826D01*
X87726262Y-82278201D01*
X87706784Y-82125452D01*
X87699589Y-81906301D01*
X87699643Y-81885905D01*
X87707993Y-81671423D01*
X87728359Y-81525337D01*
X87757579Y-81471370D01*
X87760299Y-81471776D01*
G37*
G36*
X82538401Y-82776164D02*
G01*
X82509406Y-82805159D01*
X82480411Y-82776164D01*
X82509406Y-82747169D01*
X82538401Y-82776164D01*
G37*
G36*
X92516320Y-75536529D02*
G01*
X92495619Y-75575417D01*
X92428728Y-75584059D01*
X92272096Y-75588491D01*
X92058114Y-75587729D01*
X91815671Y-75582619D01*
X91573656Y-75574010D01*
X91360956Y-75562747D01*
X91206461Y-75549678D01*
X91139059Y-75535649D01*
X91146108Y-75476908D01*
X91203483Y-75368420D01*
X91219335Y-75345323D01*
X91321335Y-75259015D01*
X91469076Y-75253989D01*
X91592645Y-75255283D01*
X91642968Y-75214938D01*
X91644560Y-75191993D01*
X91679014Y-75148499D01*
X91732272Y-75182251D01*
X91769414Y-75276302D01*
X91788819Y-75347029D01*
X91846619Y-75418906D01*
X91905782Y-75414061D01*
X91923875Y-75353333D01*
X92106895Y-75353333D01*
X92135890Y-75382328D01*
X92164885Y-75353333D01*
X92135890Y-75324338D01*
X92106895Y-75353333D01*
X91923875Y-75353333D01*
X91932922Y-75322966D01*
X91950331Y-75237832D01*
X92019908Y-75229327D01*
X92064197Y-75239109D01*
X92106895Y-75211279D01*
X92110840Y-75177412D01*
X92142094Y-75068122D01*
X92143471Y-75000593D01*
X92055108Y-74976392D01*
X91972797Y-74956296D01*
X91932922Y-74860411D01*
X91926661Y-74799891D01*
X91875862Y-74746916D01*
X91783663Y-74800902D01*
X91772378Y-74809180D01*
X91665622Y-74831375D01*
X91510273Y-74822175D01*
X91429161Y-74807423D01*
X91347738Y-74777002D01*
X91294502Y-74715825D01*
X91260222Y-74602670D01*
X91235665Y-74416311D01*
X91211599Y-74135525D01*
X91199754Y-73966171D01*
X91198480Y-73835412D01*
X91215072Y-73791981D01*
X91251516Y-73820169D01*
X91296004Y-73866649D01*
X91398725Y-73935418D01*
X91488520Y-73960471D01*
X91526986Y-73926924D01*
X91511597Y-73845436D01*
X91413526Y-73692798D01*
X91251847Y-73573164D01*
X91127619Y-73534341D01*
X90914407Y-73516014D01*
X90608369Y-73525265D01*
X90437633Y-73534181D01*
X90244198Y-73534509D01*
X90132042Y-73515927D01*
X90080450Y-73476523D01*
X90036077Y-73435307D01*
X89910896Y-73437205D01*
X89838959Y-73474762D01*
X89818836Y-73530796D01*
X89826583Y-73549688D01*
X89790682Y-73584612D01*
X89754166Y-73577364D01*
X89735278Y-73517160D01*
X89801758Y-73415719D01*
X89824090Y-73390735D01*
X89827467Y-73360927D01*
X89736505Y-73381338D01*
X89643421Y-73397624D01*
X89638443Y-73358861D01*
X89632426Y-73314005D01*
X89529723Y-73294657D01*
X89453546Y-73288197D01*
X89392782Y-73237360D01*
X89374463Y-73106187D01*
X89367601Y-72917717D01*
X89330709Y-73091689D01*
X89298022Y-73195614D01*
X89224970Y-73258477D01*
X89076611Y-73283660D01*
X88859406Y-73301658D01*
X88859406Y-73051697D01*
X88859091Y-72999771D01*
X88847420Y-72868654D01*
X88805318Y-72813190D01*
X88714429Y-72801735D01*
X88603646Y-72826629D01*
X88568660Y-72917717D01*
X88564828Y-73021676D01*
X88527680Y-73190677D01*
X88439538Y-73274808D01*
X88286219Y-73292911D01*
X88246709Y-73291446D01*
X88034389Y-73289342D01*
X87815570Y-73293769D01*
X87554611Y-73304118D01*
X87633536Y-73338784D01*
X87731553Y-73381836D01*
X87898495Y-73439634D01*
X87908529Y-73443108D01*
X88108494Y-73487775D01*
X88128811Y-73490682D01*
X88265827Y-73512571D01*
X88337488Y-73527997D01*
X88441386Y-73555616D01*
X88444399Y-73556417D01*
X88644590Y-73575779D01*
X88806714Y-73584612D01*
X88772420Y-74367488D01*
X88511461Y-74352772D01*
X88376895Y-74342597D01*
X88077105Y-74304065D01*
X87788071Y-74248293D01*
X87536019Y-74181731D01*
X87347177Y-74110827D01*
X87247774Y-74042032D01*
X87216435Y-73999039D01*
X86995573Y-73779029D01*
X86751691Y-73667196D01*
X86696149Y-73652025D01*
X86540394Y-73585147D01*
X86493040Y-73555616D01*
X86539771Y-73555616D01*
X86568767Y-73584612D01*
X86597762Y-73555616D01*
X86568767Y-73526621D01*
X86539771Y-73555616D01*
X86493040Y-73555616D01*
X86399194Y-73497092D01*
X86336566Y-73439634D01*
X86481780Y-73439634D01*
X86510776Y-73468630D01*
X86539771Y-73439634D01*
X86510776Y-73410639D01*
X86481780Y-73439634D01*
X86336566Y-73439634D01*
X86303562Y-73409354D01*
X86284512Y-73343426D01*
X86286174Y-73340672D01*
X86285768Y-73317612D01*
X87367349Y-73317612D01*
X87368247Y-73337408D01*
X87443462Y-73348070D01*
X87500464Y-73338784D01*
X87478498Y-73313034D01*
X87444964Y-73303768D01*
X87367349Y-73317612D01*
X86285768Y-73317612D01*
X86285417Y-73297628D01*
X86213626Y-73312241D01*
X86096365Y-73379596D01*
X86089708Y-73383239D01*
X86008398Y-73427738D01*
X85943452Y-73432889D01*
X85903469Y-73425488D01*
X85803489Y-73459211D01*
X85794364Y-73463896D01*
X85683159Y-73479639D01*
X85552061Y-73407208D01*
X85532015Y-73393337D01*
X85678413Y-73393337D01*
X85692424Y-73443082D01*
X85779263Y-73414735D01*
X85815229Y-73383239D01*
X85796088Y-73329956D01*
X85770147Y-73320539D01*
X85697104Y-73355560D01*
X85678413Y-73393337D01*
X85532015Y-73393337D01*
X85470529Y-73350790D01*
X85356389Y-73309155D01*
X85554815Y-73309155D01*
X85567839Y-73340908D01*
X85632062Y-73346575D01*
X85698904Y-73294657D01*
X85708711Y-73271114D01*
X85695077Y-73172484D01*
X85643041Y-73156485D01*
X85583928Y-73213104D01*
X85567144Y-73268477D01*
X85554815Y-73309155D01*
X85356389Y-73309155D01*
X85327450Y-73298599D01*
X85238319Y-73347240D01*
X85238241Y-73372846D01*
X85254824Y-73373235D01*
X85307385Y-73374468D01*
X85396165Y-73387280D01*
X85510532Y-73447862D01*
X85616259Y-73531698D01*
X85681739Y-73613561D01*
X85679865Y-73629648D01*
X85675371Y-73668222D01*
X85671078Y-73671063D01*
X85670892Y-73671598D01*
X85642200Y-73753923D01*
X85701940Y-73901659D01*
X85851614Y-74117627D01*
X85951065Y-74250992D01*
X86007898Y-74348984D01*
X85988932Y-74374608D01*
X85895646Y-74335161D01*
X85813647Y-74303364D01*
X85714560Y-74328636D01*
X85665617Y-74356276D01*
X85549595Y-74337516D01*
X85425453Y-74242334D01*
X85321963Y-74088339D01*
X85275233Y-74001823D01*
X85184068Y-73922525D01*
X85034970Y-73903561D01*
X84944427Y-73907806D01*
X84845741Y-73947208D01*
X84797872Y-74048538D01*
X84754725Y-74141155D01*
X84702443Y-74170140D01*
X84689057Y-74177561D01*
X84646224Y-74192381D01*
X84654497Y-74293543D01*
X84661653Y-74319802D01*
X84669737Y-74380021D01*
X84633025Y-74340172D01*
X84593573Y-74300880D01*
X84529421Y-74299832D01*
X84518611Y-74332063D01*
X84569276Y-74397222D01*
X84618204Y-74416933D01*
X84704102Y-74399642D01*
X84723342Y-74389625D01*
X84833919Y-74389115D01*
X84991342Y-74425479D01*
X84994541Y-74426218D01*
X85039131Y-74440175D01*
X85234589Y-74497041D01*
X85394452Y-74537732D01*
X85402863Y-74539691D01*
X85518212Y-74601423D01*
X85546740Y-74670010D01*
X85555098Y-74690105D01*
X85498468Y-74771859D01*
X85475454Y-74801254D01*
X85477923Y-74897116D01*
X85484479Y-74949359D01*
X85431897Y-75039348D01*
X85358588Y-75077497D01*
X85288918Y-75085572D01*
X85292968Y-75034383D01*
X85302029Y-75011920D01*
X85267395Y-74976392D01*
X85244722Y-74981511D01*
X85205093Y-75048881D01*
X85197823Y-75089901D01*
X85160070Y-75051942D01*
X85130315Y-75023285D01*
X85038018Y-75030669D01*
X85029259Y-75036298D01*
X84998574Y-75085726D01*
X85068544Y-75147968D01*
X85116662Y-75179100D01*
X85142536Y-75203390D01*
X85070759Y-75183739D01*
X85007758Y-75166517D01*
X84907862Y-75150365D01*
X84886695Y-75142884D01*
X84893122Y-75082519D01*
X84905252Y-75044927D01*
X84847268Y-75048360D01*
X84835812Y-75051400D01*
X84728420Y-75027657D01*
X84598700Y-74943890D01*
X84586350Y-74933445D01*
X84446200Y-74831825D01*
X84328185Y-74770906D01*
X84269385Y-74741163D01*
X84248204Y-74687940D01*
X84248781Y-74671403D01*
X84190503Y-74602103D01*
X84161439Y-74581656D01*
X84885497Y-74581656D01*
X84886007Y-74607774D01*
X84957019Y-74653714D01*
X84968021Y-74657842D01*
X85026129Y-74670010D01*
X84989482Y-74621251D01*
X84946843Y-74588161D01*
X84885497Y-74581656D01*
X84161439Y-74581656D01*
X84068060Y-74515961D01*
X84021455Y-74488115D01*
X83933257Y-74425479D01*
X84394109Y-74425479D01*
X84423105Y-74454475D01*
X84452100Y-74425479D01*
X84423105Y-74396484D01*
X84394109Y-74425479D01*
X83933257Y-74425479D01*
X83919827Y-74415941D01*
X83900913Y-74360148D01*
X83949231Y-74291493D01*
X83996383Y-74220239D01*
X83988557Y-74107150D01*
X83970120Y-74062568D01*
X83994306Y-73954162D01*
X84020356Y-73918758D01*
X84032075Y-73861316D01*
X83977032Y-73856974D01*
X83879595Y-73901759D01*
X83764135Y-73991697D01*
X83716253Y-74036387D01*
X83608760Y-74128044D01*
X83550500Y-74164520D01*
X83537802Y-74169793D01*
X83462530Y-74232713D01*
X83353853Y-74343919D01*
X83240969Y-74502714D01*
X83221466Y-74643655D01*
X83223810Y-74652875D01*
X83225737Y-74732405D01*
X83160086Y-74728362D01*
X83125664Y-74721294D01*
X83059147Y-74765103D01*
X82998229Y-74907051D01*
X82934230Y-75084545D01*
X82867828Y-75194556D01*
X82797125Y-75211449D01*
X82708494Y-75146485D01*
X82656774Y-75087543D01*
X82611569Y-74991777D01*
X82606747Y-74865362D01*
X82642710Y-74682423D01*
X82719860Y-74417090D01*
X82768847Y-74250694D01*
X82806733Y-74070551D01*
X82808441Y-73925452D01*
X82790552Y-73835862D01*
X84109021Y-73835862D01*
X84128326Y-73900451D01*
X84195388Y-74039629D01*
X84253228Y-74149366D01*
X84299708Y-74213517D01*
X84303302Y-74170140D01*
X84262970Y-74019543D01*
X84252909Y-73988599D01*
X84199166Y-73866181D01*
X84152416Y-73816575D01*
X84131991Y-73817410D01*
X84109021Y-73835862D01*
X82790552Y-73835862D01*
X82777851Y-73772250D01*
X82763390Y-73714784D01*
X82754534Y-73671598D01*
X84046164Y-73671598D01*
X84075159Y-73700593D01*
X84104155Y-73671598D01*
X85147990Y-73671598D01*
X85176986Y-73700593D01*
X85205981Y-73671598D01*
X85176986Y-73642602D01*
X85147990Y-73671598D01*
X84104155Y-73671598D01*
X84075159Y-73642602D01*
X84046164Y-73671598D01*
X82754534Y-73671598D01*
X82726964Y-73537163D01*
X82726531Y-73533384D01*
X84186462Y-73533384D01*
X84191141Y-73584612D01*
X84220189Y-73612164D01*
X84325043Y-73641714D01*
X84338230Y-73641518D01*
X84390462Y-73629648D01*
X84336118Y-73584612D01*
X84255611Y-73541898D01*
X84186462Y-73533384D01*
X82726531Y-73533384D01*
X82716114Y-73442456D01*
X84425432Y-73442456D01*
X84442619Y-73468630D01*
X84471262Y-73474393D01*
X84481095Y-73526621D01*
X84473117Y-73552556D01*
X84521166Y-73589048D01*
X84559954Y-73592418D01*
X84690789Y-73611772D01*
X84788192Y-73612957D01*
X84877816Y-73554731D01*
X84881661Y-73446550D01*
X84869284Y-73406953D01*
X84890184Y-73368806D01*
X84995679Y-73384984D01*
X85100230Y-73397508D01*
X85147990Y-73373235D01*
X85142144Y-73358849D01*
X85062352Y-73327851D01*
X84918694Y-73316036D01*
X84749126Y-73322588D01*
X84591607Y-73346690D01*
X84484096Y-73387525D01*
X84425432Y-73442456D01*
X82716114Y-73442456D01*
X82712374Y-73409807D01*
X82699383Y-73343879D01*
X82675518Y-73329857D01*
X84336118Y-73329857D01*
X84352191Y-73351461D01*
X84418660Y-73343394D01*
X84480685Y-73295321D01*
X84485979Y-73268477D01*
X84426117Y-73272530D01*
X84381607Y-73292613D01*
X84336118Y-73329857D01*
X82675518Y-73329857D01*
X82632289Y-73304458D01*
X82480411Y-73294657D01*
X82248447Y-73294657D01*
X82248447Y-72692040D01*
X82248548Y-72584405D01*
X82250598Y-72409662D01*
X82320279Y-72409662D01*
X82320296Y-72656758D01*
X82320397Y-72675961D01*
X82323265Y-72916399D01*
X82332673Y-73064592D01*
X82354576Y-73142837D01*
X82394931Y-73173432D01*
X82459692Y-73178675D01*
X82536155Y-73169728D01*
X82585099Y-73113442D01*
X82596392Y-72975707D01*
X82596893Y-72949071D01*
X82616053Y-72823718D01*
X82654383Y-72772739D01*
X82661994Y-72774492D01*
X82697809Y-72841552D01*
X82712374Y-72975707D01*
X82716165Y-73067336D01*
X82748419Y-73155971D01*
X82828356Y-73178675D01*
X82874086Y-73173621D01*
X82912179Y-73141084D01*
X82933315Y-73058811D01*
X82942400Y-72904727D01*
X82944337Y-72656758D01*
X82943539Y-72510460D01*
X83087064Y-72510460D01*
X83109902Y-72582608D01*
X83209137Y-72598767D01*
X83232033Y-72598279D01*
X83326047Y-72564427D01*
X83350274Y-72453790D01*
X83364671Y-72358440D01*
X83408264Y-72308812D01*
X83436567Y-72354919D01*
X83458128Y-72490853D01*
X83464927Y-72656758D01*
X83466255Y-72689176D01*
X83461136Y-72865723D01*
X83441302Y-73001933D01*
X83408264Y-73033698D01*
X83376902Y-72996313D01*
X83350274Y-72885299D01*
X83331647Y-72814144D01*
X83234292Y-72772739D01*
X83204195Y-72776855D01*
X83132518Y-72843923D01*
X83112742Y-72960910D01*
X83145264Y-73085815D01*
X83230479Y-73176635D01*
X83329949Y-73218728D01*
X83506158Y-73224894D01*
X83640506Y-73129496D01*
X83726142Y-72939257D01*
X83756210Y-72660900D01*
X83752370Y-72590591D01*
X83872191Y-72590591D01*
X83872568Y-72660900D01*
X83872582Y-72663438D01*
X83883649Y-72904337D01*
X83912677Y-73057614D01*
X83963320Y-73145538D01*
X84091100Y-73220455D01*
X84263426Y-73221916D01*
X84414117Y-73130616D01*
X84425627Y-73116841D01*
X84475459Y-73011148D01*
X84502160Y-72840448D01*
X84508065Y-72646320D01*
X84626073Y-72646320D01*
X84626948Y-72820667D01*
X84633937Y-73006577D01*
X84652145Y-73115364D01*
X84686532Y-73170505D01*
X84742054Y-73195478D01*
X84783595Y-73203500D01*
X84833020Y-73184849D01*
X84856246Y-73101082D01*
X84864892Y-72926785D01*
X84871747Y-72627762D01*
X84929156Y-72903219D01*
X84932779Y-72920109D01*
X84992496Y-73101123D01*
X85060312Y-73172427D01*
X85126455Y-73138488D01*
X85181155Y-73003770D01*
X85214642Y-72772739D01*
X85222130Y-72738931D01*
X85238771Y-72784123D01*
X85258927Y-72918914D01*
X85261666Y-72941782D01*
X85290217Y-73106161D01*
X85330491Y-73180961D01*
X85394452Y-73190119D01*
X85416320Y-73183881D01*
X85457490Y-73146548D01*
X85466748Y-73113584D01*
X85843881Y-73113584D01*
X85854465Y-73176908D01*
X85912119Y-73271114D01*
X85922048Y-73287338D01*
X85952889Y-73308600D01*
X85991891Y-73292527D01*
X86005156Y-73178457D01*
X85991037Y-73056456D01*
X85926989Y-73004703D01*
X85880465Y-73023489D01*
X85843881Y-73113584D01*
X85466748Y-73113584D01*
X85481666Y-73060463D01*
X85493072Y-72903243D01*
X85495936Y-72652506D01*
X85495936Y-72134840D01*
X85328167Y-72134840D01*
X85197046Y-72159917D01*
X85115676Y-72256260D01*
X85082366Y-72444035D01*
X85079630Y-72468203D01*
X85063079Y-72467375D01*
X85038872Y-72366803D01*
X85009943Y-72249097D01*
X84945700Y-72173688D01*
X84814543Y-72145663D01*
X84626073Y-72127491D01*
X84626073Y-72646320D01*
X84508065Y-72646320D01*
X84510091Y-72579703D01*
X84509447Y-72412114D01*
X84502502Y-72254567D01*
X84481380Y-72171945D01*
X84438208Y-72140090D01*
X84365114Y-72134840D01*
X84301229Y-72138362D01*
X84254544Y-72164665D01*
X84228746Y-72237054D01*
X84216257Y-72378823D01*
X84209502Y-72613264D01*
X84198868Y-73091689D01*
X84166009Y-72627762D01*
X84156991Y-72506933D01*
X84137360Y-72320701D01*
X84110601Y-72214610D01*
X84068456Y-72164273D01*
X84002671Y-72145304D01*
X83952586Y-72140863D01*
X83907465Y-72158550D01*
X83883447Y-72224311D01*
X83873900Y-72360780D01*
X83872191Y-72590591D01*
X83752370Y-72590591D01*
X83745048Y-72456546D01*
X83690498Y-72268556D01*
X83582261Y-72165953D01*
X83411223Y-72134840D01*
X83279575Y-72154477D01*
X83161672Y-72250618D01*
X83096591Y-72441093D01*
X83087064Y-72510460D01*
X82943539Y-72510460D01*
X82943214Y-72450972D01*
X82935984Y-72279552D01*
X82917701Y-72184440D01*
X82883460Y-72143561D01*
X82828356Y-72134840D01*
X82801798Y-72136223D01*
X82731422Y-72179586D01*
X82712374Y-72305390D01*
X82696164Y-72433386D01*
X82654383Y-72511780D01*
X82646467Y-72515150D01*
X82610129Y-72473181D01*
X82596392Y-72341230D01*
X82589726Y-72220671D01*
X82550898Y-72150696D01*
X82456996Y-72134840D01*
X82448403Y-72134857D01*
X82385457Y-72141140D01*
X82347016Y-72174163D01*
X82327238Y-72256234D01*
X82320279Y-72409662D01*
X82250598Y-72409662D01*
X82251295Y-72350285D01*
X82261209Y-72202848D01*
X82282787Y-72120458D01*
X82320527Y-72081474D01*
X82378927Y-72064258D01*
X82452744Y-72054418D01*
X82624266Y-72047720D01*
X82807810Y-72053726D01*
X82960772Y-72070407D01*
X83040547Y-72095737D01*
X83086132Y-72104268D01*
X83190032Y-72069500D01*
X83322431Y-72037887D01*
X83515855Y-72052306D01*
X83544721Y-72058059D01*
X83694042Y-72079453D01*
X83785205Y-72079050D01*
X83802335Y-72076413D01*
X83917629Y-72069043D01*
X84117884Y-72061392D01*
X84380797Y-72054224D01*
X84684064Y-72048300D01*
X85006441Y-72046017D01*
X85304469Y-72052886D01*
X85490800Y-72070624D01*
X85567536Y-72099354D01*
X85581787Y-72137095D01*
X85603236Y-72272565D01*
X85612874Y-72453790D01*
X85614976Y-72573946D01*
X85622877Y-72652506D01*
X85625085Y-72674458D01*
X85651204Y-72687241D01*
X85702028Y-72629426D01*
X85703558Y-72626597D01*
X85972253Y-72626597D01*
X85979193Y-72695418D01*
X85996636Y-72704491D01*
X86017853Y-72656758D01*
X86013668Y-72626057D01*
X85979193Y-72618097D01*
X85972253Y-72626597D01*
X85703558Y-72626597D01*
X85750251Y-72540243D01*
X85752281Y-72519558D01*
X85912130Y-72519558D01*
X85959863Y-72540776D01*
X85990563Y-72536591D01*
X85998523Y-72502115D01*
X85990024Y-72495175D01*
X85921202Y-72502115D01*
X85912130Y-72519558D01*
X85752281Y-72519558D01*
X85759994Y-72440956D01*
X85753239Y-72408198D01*
X85787710Y-72366803D01*
X85822881Y-72338196D01*
X85841572Y-72250822D01*
X85959863Y-72250822D01*
X85973682Y-72318393D01*
X86033172Y-72366803D01*
X86075158Y-72407503D01*
X86092128Y-72502115D01*
X86098693Y-72538718D01*
X86102207Y-72656758D01*
X86105660Y-72772733D01*
X86105662Y-72850052D01*
X86110258Y-73031538D01*
X86128045Y-73130039D01*
X86167055Y-73170701D01*
X86233503Y-73178457D01*
X86235319Y-73178669D01*
X86259956Y-73178186D01*
X86318385Y-73162759D01*
X86334022Y-73135182D01*
X86485856Y-73135182D01*
X86487908Y-73225442D01*
X86511644Y-73292943D01*
X86558088Y-73251164D01*
X86563914Y-73203414D01*
X86536591Y-73091689D01*
X86512785Y-73037667D01*
X86492892Y-73032886D01*
X86485856Y-73135182D01*
X86334022Y-73135182D01*
X86350114Y-73106804D01*
X86362706Y-72989987D01*
X86602905Y-72989987D01*
X86688891Y-73145538D01*
X86787606Y-73203414D01*
X86816671Y-73220455D01*
X86988997Y-73221916D01*
X87065206Y-73175743D01*
X87307160Y-73175743D01*
X87341558Y-73198903D01*
X87438350Y-73192257D01*
X87537873Y-73149172D01*
X87583607Y-73087656D01*
X87589483Y-73051379D01*
X87641598Y-73004703D01*
X87668275Y-73014517D01*
X87699589Y-73091689D01*
X87727053Y-73147772D01*
X87840920Y-73178675D01*
X87923712Y-73170573D01*
X87963699Y-73119382D01*
X87957994Y-73033698D01*
X88047534Y-73033698D01*
X88076529Y-73062694D01*
X88105525Y-73033698D01*
X88076529Y-73004703D01*
X88047534Y-73033698D01*
X87957994Y-73033698D01*
X87955098Y-72990205D01*
X87943378Y-72907430D01*
X87915149Y-72702814D01*
X87908934Y-72656758D01*
X87989543Y-72656758D01*
X88005688Y-72724393D01*
X88076529Y-72772739D01*
X88079883Y-72772803D01*
X88143401Y-72821859D01*
X88163516Y-72969503D01*
X88171405Y-73033698D01*
X88179552Y-73099992D01*
X88194122Y-73119382D01*
X88252515Y-73197091D01*
X88380981Y-73194296D01*
X88390680Y-73188848D01*
X88426415Y-73109223D01*
X88446919Y-72933437D01*
X88453470Y-72651925D01*
X88453470Y-72134840D01*
X88221506Y-72134840D01*
X88087618Y-72141406D01*
X88008995Y-72174942D01*
X87989543Y-72250822D01*
X88005688Y-72318457D01*
X88076529Y-72366803D01*
X88117096Y-72376907D01*
X88163516Y-72453790D01*
X88153412Y-72494356D01*
X88076529Y-72540776D01*
X88025803Y-72562303D01*
X87989543Y-72656758D01*
X87908934Y-72656758D01*
X87885457Y-72482785D01*
X87883955Y-72471518D01*
X87856701Y-72294604D01*
X87821788Y-72203154D01*
X87757806Y-72168965D01*
X87643350Y-72163835D01*
X87443731Y-72163835D01*
X87438700Y-72196253D01*
X87407901Y-72394730D01*
X87367702Y-72653787D01*
X87354328Y-72742107D01*
X87325280Y-72953580D01*
X87308456Y-73107628D01*
X87307160Y-73175743D01*
X87065206Y-73175743D01*
X87139688Y-73130616D01*
X87184989Y-73073090D01*
X87235861Y-72948300D01*
X87208229Y-72862367D01*
X87105182Y-72841195D01*
X87024051Y-72867483D01*
X86974703Y-72927382D01*
X86973511Y-72944283D01*
X86931210Y-73038531D01*
X86905109Y-73041924D01*
X86887716Y-72969291D01*
X86890359Y-72947399D01*
X86949405Y-72829222D01*
X87061689Y-72703899D01*
X87185003Y-72559536D01*
X87238202Y-72394730D01*
X87199698Y-72255938D01*
X87076848Y-72165407D01*
X86877007Y-72145381D01*
X86787373Y-72158640D01*
X86699241Y-72209534D01*
X86687323Y-72250822D01*
X86666399Y-72323310D01*
X86666124Y-72325731D01*
X86673763Y-72446742D01*
X86740707Y-72482785D01*
X86786866Y-72473098D01*
X86866618Y-72396132D01*
X86891497Y-72357406D01*
X86958723Y-72345852D01*
X86966416Y-72370646D01*
X86918573Y-72456598D01*
X86807669Y-72574526D01*
X86798754Y-72583227D01*
X86758282Y-72622728D01*
X86626684Y-72812599D01*
X86602905Y-72989987D01*
X86362706Y-72989987D01*
X86363224Y-72985178D01*
X86365799Y-72772739D01*
X86366690Y-72683467D01*
X86481780Y-72683467D01*
X86483155Y-72763383D01*
X86493540Y-72894809D01*
X86510776Y-72946712D01*
X86529031Y-72916765D01*
X86539771Y-72813333D01*
X86550348Y-72722752D01*
X86592914Y-72624863D01*
X86611174Y-72583227D01*
X86563918Y-72494996D01*
X86552534Y-72485046D01*
X86507630Y-72467539D01*
X86486844Y-72527258D01*
X86481780Y-72683467D01*
X86366690Y-72683467D01*
X86367067Y-72645653D01*
X86378475Y-72476516D01*
X86405524Y-72390676D01*
X86452785Y-72366803D01*
X86503511Y-72345277D01*
X86539771Y-72250822D01*
X86538531Y-72223995D01*
X86510471Y-72166865D01*
X86423733Y-72140946D01*
X86249817Y-72134840D01*
X86182751Y-72135336D01*
X86039925Y-72146560D01*
X85975128Y-72181255D01*
X85959863Y-72250822D01*
X85841572Y-72250822D01*
X85844673Y-72236324D01*
X85845826Y-72195549D01*
X85858658Y-72100961D01*
X87267473Y-72100961D01*
X87271526Y-72160823D01*
X87290244Y-72202977D01*
X87333008Y-72248944D01*
X87351643Y-72196253D01*
X87349582Y-72180502D01*
X87294317Y-72106255D01*
X87267473Y-72100961D01*
X85858658Y-72100961D01*
X85868816Y-72026085D01*
X85912366Y-71896523D01*
X85964806Y-71844886D01*
X85985253Y-71857038D01*
X85980834Y-71931872D01*
X85976680Y-71944689D01*
X85990616Y-71990890D01*
X86077260Y-72014860D01*
X86258110Y-72023722D01*
X86363824Y-72025576D01*
X86638211Y-72031479D01*
X86896693Y-72038220D01*
X87035763Y-72037353D01*
X87158406Y-72022383D01*
X87192185Y-71995400D01*
X87186696Y-71973613D01*
X87240492Y-71992848D01*
X87288584Y-72006552D01*
X87438951Y-72022059D01*
X87657273Y-72029960D01*
X87914720Y-72028721D01*
X87920172Y-72028592D01*
X88196333Y-72022709D01*
X88378017Y-72030997D01*
X88486376Y-72068726D01*
X88542557Y-72151171D01*
X88567712Y-72293604D01*
X88582990Y-72511298D01*
X88587797Y-72565780D01*
X88610498Y-72651925D01*
X88625081Y-72707263D01*
X88699931Y-72762012D01*
X88759282Y-72759092D01*
X88801415Y-72686583D01*
X88791325Y-72639037D01*
X88734464Y-72633300D01*
X88702343Y-72647367D01*
X88708410Y-72608506D01*
X88712530Y-72600117D01*
X88720360Y-72492862D01*
X88693772Y-72341208D01*
X88680144Y-72286392D01*
X88673348Y-72150171D01*
X88685519Y-72134840D01*
X88755586Y-72134840D01*
X88865487Y-72487952D01*
X88913285Y-72658435D01*
X88958089Y-72863663D01*
X88975388Y-73009870D01*
X88976205Y-73045910D01*
X89005476Y-73150313D01*
X89091369Y-73178675D01*
X89138996Y-73173447D01*
X89193295Y-73119805D01*
X89207351Y-72982998D01*
X89208938Y-72941313D01*
X89233822Y-72776414D01*
X89505738Y-72776414D01*
X89508554Y-72984015D01*
X89523882Y-73106211D01*
X89557604Y-73168426D01*
X89615603Y-73196084D01*
X89634021Y-73200473D01*
X89695811Y-73195382D01*
X89723123Y-73127465D01*
X89729269Y-72970278D01*
X89731700Y-72897197D01*
X89752370Y-72766513D01*
X89787260Y-72714749D01*
X89800259Y-72720663D01*
X89832389Y-72801456D01*
X89845251Y-72946712D01*
X89851817Y-73080601D01*
X89885353Y-73159223D01*
X89961232Y-73178675D01*
X90006963Y-73173621D01*
X90045056Y-73141084D01*
X90056008Y-73098453D01*
X90193196Y-73098453D01*
X90194270Y-73109527D01*
X90257893Y-73161826D01*
X90425159Y-73178675D01*
X90657123Y-73178675D01*
X90657123Y-72198000D01*
X90776209Y-72198000D01*
X90777577Y-72316695D01*
X90796741Y-72526792D01*
X90810582Y-72662502D01*
X90842157Y-72910596D01*
X90878760Y-73069007D01*
X90928891Y-73156092D01*
X91001052Y-73190207D01*
X91103744Y-73189708D01*
X91183208Y-73178798D01*
X91261122Y-73144750D01*
X91311312Y-73067197D01*
X91346972Y-72922184D01*
X91381296Y-72685753D01*
X91394259Y-72591939D01*
X91424421Y-72400218D01*
X91450448Y-72265319D01*
X91458355Y-72225899D01*
X91440996Y-72152350D01*
X91337553Y-72134840D01*
X91259216Y-72150815D01*
X91185253Y-72229892D01*
X91138519Y-72390490D01*
X91111597Y-72649509D01*
X91103317Y-72683502D01*
X91087330Y-72627062D01*
X91068104Y-72482785D01*
X91055058Y-72373330D01*
X91025536Y-72236072D01*
X90977419Y-72169600D01*
X90895590Y-72144257D01*
X90851665Y-72138822D01*
X90798838Y-72146708D01*
X90776209Y-72198000D01*
X90657123Y-72198000D01*
X90657123Y-72127839D01*
X90440139Y-72145837D01*
X90422465Y-72147446D01*
X90265713Y-72186047D01*
X90203924Y-72265319D01*
X90212475Y-72335556D01*
X90304926Y-72366803D01*
X90376405Y-72383047D01*
X90425159Y-72453790D01*
X90415842Y-72494222D01*
X90344377Y-72540776D01*
X90304689Y-72546458D01*
X90234706Y-72607695D01*
X90233895Y-72656758D01*
X90233265Y-72694847D01*
X90308938Y-72755874D01*
X90326214Y-72761112D01*
X90412769Y-72832029D01*
X90407106Y-72922604D01*
X90309178Y-72987900D01*
X90241782Y-73020560D01*
X90193196Y-73098453D01*
X90056008Y-73098453D01*
X90066192Y-73058811D01*
X90075276Y-72904727D01*
X90077214Y-72656758D01*
X90077214Y-72134840D01*
X89852351Y-72134840D01*
X89814972Y-72135806D01*
X89661181Y-72160251D01*
X89568927Y-72207328D01*
X89564247Y-72214510D01*
X89561134Y-72226173D01*
X89536243Y-72319426D01*
X89515478Y-72500462D01*
X89506152Y-72723088D01*
X89505738Y-72776414D01*
X89233822Y-72776414D01*
X89238732Y-72743875D01*
X89294337Y-72540776D01*
X89350195Y-72368567D01*
X89375583Y-72226173D01*
X89347747Y-72154537D01*
X89265342Y-72134840D01*
X89192023Y-72152917D01*
X89149360Y-72247399D01*
X89140086Y-72314004D01*
X89091369Y-72395799D01*
X89051787Y-72381904D01*
X89033379Y-72283239D01*
X89032759Y-72255668D01*
X88999814Y-72159562D01*
X88894482Y-72134840D01*
X88755586Y-72134840D01*
X88685519Y-72134840D01*
X88735442Y-72071957D01*
X88880929Y-72041953D01*
X89124309Y-72050362D01*
X89363288Y-72065605D01*
X89691778Y-72070367D01*
X89961596Y-72054218D01*
X90158610Y-72019014D01*
X90268690Y-71966613D01*
X90277706Y-71898869D01*
X90313927Y-71881835D01*
X90454935Y-71866431D01*
X90691485Y-71854800D01*
X91012940Y-71847449D01*
X91408663Y-71844886D01*
X92572983Y-71844886D01*
X92572403Y-72127839D01*
X92572202Y-72225899D01*
X92569189Y-73696665D01*
X92567298Y-74183895D01*
X92562993Y-74637271D01*
X92556077Y-74990695D01*
X92546215Y-75252695D01*
X92538831Y-75353333D01*
X92533074Y-75431798D01*
X92516320Y-75536529D01*
G37*
G36*
X82939555Y-75522724D02*
G01*
X82958378Y-75541758D01*
X83076615Y-75708144D01*
X83144849Y-75882551D01*
X83146423Y-75890760D01*
X83191362Y-76023092D01*
X83251720Y-76040867D01*
X83252232Y-76040569D01*
X83270522Y-76046955D01*
X83218331Y-76117927D01*
X83171263Y-76175425D01*
X83148657Y-76245089D01*
X83205235Y-76310131D01*
X83253498Y-76357923D01*
X83272794Y-76406992D01*
X83277790Y-76429113D01*
X83338153Y-76516550D01*
X83445722Y-76642414D01*
X83453338Y-76650788D01*
X83591153Y-76842969D01*
X83626087Y-77003297D01*
X83624606Y-77020452D01*
X83644464Y-77127884D01*
X83741712Y-77169581D01*
X83771626Y-77174944D01*
X83861778Y-77220291D01*
X83848699Y-77271613D01*
X83734315Y-77296027D01*
X83631170Y-77314203D01*
X83535234Y-77369327D01*
X83494725Y-77436239D01*
X83536323Y-77488941D01*
X83580657Y-77521699D01*
X83532553Y-77574318D01*
X83491334Y-77615199D01*
X83518055Y-77669141D01*
X83539601Y-77685867D01*
X83582237Y-77767284D01*
X83568052Y-77792244D01*
X83479522Y-77791616D01*
X83329399Y-77737755D01*
X83140461Y-77637360D01*
X83130949Y-77631729D01*
X82962238Y-77558273D01*
X82807013Y-77527991D01*
X82704195Y-77510988D01*
X82654383Y-77463236D01*
X82678267Y-77429748D01*
X82773679Y-77429678D01*
X82800259Y-77436257D01*
X82858550Y-77436426D01*
X82824569Y-77378451D01*
X82820249Y-77373400D01*
X82726299Y-77309076D01*
X82636472Y-77302296D01*
X82596392Y-77357292D01*
X82578674Y-77366110D01*
X82496488Y-77324154D01*
X82369957Y-77228453D01*
X82300991Y-77169041D01*
X82199000Y-77058894D01*
X82159466Y-76949523D01*
X82159956Y-76794579D01*
X82162995Y-76762689D01*
X82214774Y-76552618D01*
X82303072Y-76372900D01*
X82323406Y-76342860D01*
X82386601Y-76217296D01*
X82393669Y-76136605D01*
X82384049Y-76114180D01*
X82412554Y-76078219D01*
X82432764Y-76073012D01*
X82464832Y-76005730D01*
X82467119Y-75876292D01*
X82504179Y-75763618D01*
X82589143Y-75730274D01*
X82679545Y-75687763D01*
X82734725Y-75546030D01*
X82771574Y-75361787D01*
X82939555Y-75522724D01*
G37*
G36*
X82574068Y-75356712D02*
G01*
X82596392Y-75436897D01*
X82585063Y-75507585D01*
X82538401Y-75556301D01*
X82512834Y-75547687D01*
X82480411Y-75472737D01*
X82485042Y-75437239D01*
X82538401Y-75353333D01*
X82574068Y-75356712D01*
G37*
G36*
X89597686Y-75980041D02*
G01*
X89607657Y-75982910D01*
X89616242Y-76000561D01*
X89526301Y-76008923D01*
X89512568Y-76009002D01*
X89421786Y-76001227D01*
X89423713Y-75982190D01*
X89471364Y-75971551D01*
X89597686Y-75980041D01*
G37*
G36*
X84511877Y-80031541D02*
G01*
X84587830Y-80094086D01*
X84618980Y-80134935D01*
X84672400Y-80087895D01*
X84708296Y-80051277D01*
X84764162Y-80068444D01*
X84772778Y-80096721D01*
X84727918Y-80157044D01*
X84658518Y-80181635D01*
X84579522Y-80177313D01*
X84477682Y-80110428D01*
X84435887Y-80077666D01*
X84402944Y-80034378D01*
X84461765Y-80023442D01*
X84511877Y-80031541D01*
G37*
G36*
X85553927Y-71873881D02*
G01*
X85524931Y-71902876D01*
X85495936Y-71873881D01*
X85524931Y-71844886D01*
X85553927Y-71873881D01*
G37*
G36*
X87177671Y-71873881D02*
G01*
X87148675Y-71902876D01*
X87119680Y-71873881D01*
X87148675Y-71844886D01*
X87177671Y-71873881D01*
G37*
G36*
X79754840Y-82602191D02*
G01*
X79725844Y-82631187D01*
X79696849Y-82602191D01*
X79725844Y-82573196D01*
X79754840Y-82602191D01*
G37*
G36*
X84684064Y-76223196D02*
G01*
X84655068Y-76252191D01*
X84626073Y-76223196D01*
X84655068Y-76194201D01*
X84684064Y-76223196D01*
G37*
G36*
X82863231Y-80372212D02*
G01*
X82915342Y-80427534D01*
X82924403Y-80449997D01*
X82889769Y-80485525D01*
X82872936Y-80483296D01*
X82828356Y-80427534D01*
X82829021Y-80414410D01*
X82853929Y-80369543D01*
X82863231Y-80372212D01*
G37*
G36*
X81320593Y-82660182D02*
G01*
X81291598Y-82689178D01*
X81262602Y-82660182D01*
X81291598Y-82631187D01*
X81320593Y-82660182D01*
G37*
G36*
X85843881Y-77441004D02*
G01*
X85814885Y-77470000D01*
X85785890Y-77441004D01*
X85814885Y-77412009D01*
X85843881Y-77441004D01*
G37*
G36*
X84858036Y-74251507D02*
G01*
X84829041Y-74280502D01*
X84800045Y-74251507D01*
X84829041Y-74222511D01*
X84858036Y-74251507D01*
G37*
G36*
X83814200Y-77035068D02*
G01*
X83785205Y-77064064D01*
X83756210Y-77035068D01*
X83785205Y-77006073D01*
X83814200Y-77035068D01*
G37*
G36*
X86075844Y-80862465D02*
G01*
X86046849Y-80891461D01*
X86017853Y-80862465D01*
X86046849Y-80833470D01*
X86075844Y-80862465D01*
G37*
G36*
X84548751Y-78475175D02*
G01*
X84557824Y-78492617D01*
X84510091Y-78513835D01*
X84479391Y-78509650D01*
X84471430Y-78475175D01*
X84479930Y-78468234D01*
X84548751Y-78475175D01*
G37*
G36*
X84699937Y-75133142D02*
G01*
X84742054Y-75211778D01*
X84738992Y-75244300D01*
X84708733Y-75257974D01*
X84661937Y-75176348D01*
X84651774Y-75131114D01*
X84684728Y-75121780D01*
X84699937Y-75133142D01*
G37*
G36*
X81998746Y-72643578D02*
G01*
X82026277Y-72755544D01*
X82043510Y-72787031D01*
X82055067Y-72921164D01*
X82021003Y-73082635D01*
X81950168Y-73217702D01*
X81949903Y-73218017D01*
X81857577Y-73254971D01*
X81662750Y-73278267D01*
X81378175Y-73286373D01*
X80863174Y-73286373D01*
X80845422Y-73073532D01*
X80844635Y-73064552D01*
X80806406Y-72904771D01*
X80726187Y-72841458D01*
X80668301Y-72844397D01*
X80633562Y-72906919D01*
X80624703Y-73058442D01*
X80624703Y-73294657D01*
X79708447Y-73294657D01*
X79638690Y-73294568D01*
X79254115Y-73289591D01*
X78977649Y-73276659D01*
X78802681Y-73255307D01*
X78722602Y-73225068D01*
X78715384Y-73216313D01*
X78678114Y-73102359D01*
X78657280Y-72915522D01*
X78654655Y-72791201D01*
X78733989Y-72791201D01*
X78735032Y-72980290D01*
X78754575Y-73106187D01*
X78768814Y-73121092D01*
X78864160Y-73152762D01*
X79011796Y-73174475D01*
X79170183Y-73183212D01*
X79297779Y-73175953D01*
X79353046Y-73149680D01*
X79354217Y-73130793D01*
X79355111Y-73085485D01*
X79464885Y-73085485D01*
X79479688Y-73142679D01*
X79576453Y-73194708D01*
X79769337Y-73191076D01*
X79928812Y-73170972D01*
X79928812Y-73084929D01*
X80044794Y-73084929D01*
X80046484Y-73098585D01*
X80112898Y-73164261D01*
X80138680Y-73170972D01*
X80246621Y-73199069D01*
X80407237Y-73191161D01*
X80428828Y-73184800D01*
X80470119Y-73147090D01*
X80494381Y-73060755D01*
X80505840Y-72903368D01*
X80508721Y-72652506D01*
X80508721Y-72444232D01*
X80624703Y-72444232D01*
X80640353Y-72583292D01*
X80680417Y-72652506D01*
X80721890Y-72724153D01*
X80868264Y-72772739D01*
X80905231Y-72777235D01*
X80958134Y-72833425D01*
X80972648Y-72975707D01*
X80976439Y-73067336D01*
X81008693Y-73155971D01*
X81088630Y-73178675D01*
X81134360Y-73173621D01*
X81172453Y-73141084D01*
X81193589Y-73058811D01*
X81198906Y-72968631D01*
X81337642Y-72968631D01*
X81409694Y-73123021D01*
X81504210Y-73195256D01*
X81639543Y-73236666D01*
X81640181Y-73236665D01*
X81787685Y-73187795D01*
X81908457Y-73070578D01*
X81958493Y-72927648D01*
X81935626Y-72859756D01*
X81857849Y-72831348D01*
X81764645Y-72866976D01*
X81698151Y-72961210D01*
X81677459Y-73022155D01*
X81652259Y-73052562D01*
X81627060Y-72979385D01*
X81626418Y-72976817D01*
X81649684Y-72856829D01*
X81778707Y-72718426D01*
X81890526Y-72598072D01*
X81958501Y-72433268D01*
X81940985Y-72284301D01*
X81842742Y-72176412D01*
X81668538Y-72134840D01*
X81564387Y-72147645D01*
X81428207Y-72231037D01*
X81378584Y-72378401D01*
X81396760Y-72441351D01*
X81494566Y-72482785D01*
X81562201Y-72466640D01*
X81610548Y-72395799D01*
X81617090Y-72355783D01*
X81668538Y-72308812D01*
X81708643Y-72318272D01*
X81725217Y-72380659D01*
X81669924Y-72479506D01*
X81573837Y-72569771D01*
X81553378Y-72588990D01*
X81501615Y-72630768D01*
X81481149Y-72656758D01*
X81370106Y-72797769D01*
X81337642Y-72968631D01*
X81198906Y-72968631D01*
X81202673Y-72904727D01*
X81204611Y-72656758D01*
X81204611Y-72569771D01*
X81320593Y-72569771D01*
X81349589Y-72598767D01*
X81378584Y-72569771D01*
X81349589Y-72540776D01*
X81320593Y-72569771D01*
X81204611Y-72569771D01*
X81204611Y-72134840D01*
X81026826Y-72134840D01*
X81003512Y-72135063D01*
X80788053Y-72170922D01*
X80664288Y-72272051D01*
X80624703Y-72444232D01*
X80508721Y-72444232D01*
X80508721Y-72134840D01*
X80282187Y-72134840D01*
X80137492Y-72142373D01*
X80081079Y-72175686D01*
X80085982Y-72250822D01*
X80118642Y-72318217D01*
X80196535Y-72366803D01*
X80233812Y-72376830D01*
X80276758Y-72453790D01*
X80266654Y-72494356D01*
X80189771Y-72540776D01*
X80139045Y-72562303D01*
X80102785Y-72656758D01*
X80118930Y-72724393D01*
X80189771Y-72772739D01*
X80240498Y-72794266D01*
X80261917Y-72850061D01*
X80276758Y-72888721D01*
X80257696Y-72963697D01*
X80160776Y-73004703D01*
X80093121Y-73019868D01*
X80044794Y-73084929D01*
X79928812Y-73084929D01*
X79928812Y-72867503D01*
X80055052Y-72867503D01*
X80102785Y-72888721D01*
X80133485Y-72884536D01*
X80141446Y-72850061D01*
X80132946Y-72843120D01*
X80064124Y-72850061D01*
X80055052Y-72867503D01*
X79928812Y-72867503D01*
X79928812Y-72453790D01*
X80044794Y-72453790D01*
X80073790Y-72482785D01*
X80102785Y-72453790D01*
X80073790Y-72424794D01*
X80044794Y-72453790D01*
X79928812Y-72453790D01*
X79928812Y-72134840D01*
X79732049Y-72134840D01*
X79711009Y-72135310D01*
X79573707Y-72166036D01*
X79495063Y-72227884D01*
X79491797Y-72297101D01*
X79580628Y-72349938D01*
X79620063Y-72365079D01*
X79686839Y-72433587D01*
X79686670Y-72444124D01*
X79685668Y-72506703D01*
X79609863Y-72540776D01*
X79559136Y-72562303D01*
X79522876Y-72656758D01*
X79528304Y-72679497D01*
X79539021Y-72724393D01*
X79609863Y-72772739D01*
X79660589Y-72794266D01*
X79682008Y-72850061D01*
X79696849Y-72888721D01*
X79677788Y-72963697D01*
X79580867Y-73004703D01*
X79513205Y-73019977D01*
X79464885Y-73085485D01*
X79355111Y-73085485D01*
X79356345Y-73022976D01*
X79357148Y-72867503D01*
X79475143Y-72867503D01*
X79522876Y-72888721D01*
X79553576Y-72884536D01*
X79561537Y-72850061D01*
X79553037Y-72843120D01*
X79484216Y-72850061D01*
X79475143Y-72867503D01*
X79357148Y-72867503D01*
X79357188Y-72859726D01*
X79357381Y-72679497D01*
X79356384Y-72461567D01*
X79475143Y-72461567D01*
X79522876Y-72482785D01*
X79553576Y-72478600D01*
X79561537Y-72444124D01*
X79553037Y-72437184D01*
X79484216Y-72444124D01*
X79475143Y-72461567D01*
X79356384Y-72461567D01*
X79356261Y-72434683D01*
X79348102Y-72276569D01*
X79326851Y-72186342D01*
X79286458Y-72145187D01*
X79220872Y-72134291D01*
X79124041Y-72134840D01*
X79113597Y-72134917D01*
X78937183Y-72161161D01*
X78824923Y-72224311D01*
X78809367Y-72252171D01*
X78774407Y-72386404D01*
X78748198Y-72579660D01*
X78733989Y-72791201D01*
X78654655Y-72791201D01*
X78652563Y-72692088D01*
X78663644Y-72468344D01*
X78690203Y-72280577D01*
X78731922Y-72165074D01*
X78771290Y-72124040D01*
X78833178Y-72094611D01*
X78935557Y-72076019D01*
X79097289Y-72066266D01*
X79337240Y-72063355D01*
X79674274Y-72065287D01*
X79798037Y-72066399D01*
X80109791Y-72068735D01*
X80383245Y-72070151D01*
X80592509Y-72070534D01*
X80711689Y-72069773D01*
X81011442Y-72066751D01*
X81291598Y-72072649D01*
X81301344Y-72072978D01*
X81444316Y-72065405D01*
X81619364Y-72042862D01*
X81692596Y-72033078D01*
X81836305Y-72046690D01*
X81952811Y-72129159D01*
X82024844Y-72226473D01*
X82071466Y-72414815D01*
X82066138Y-72433268D01*
X82018913Y-72596822D01*
X81998746Y-72643578D01*
G37*
%TO.C,D48*%
X229690000Y-133785000D02*
X229690000Y-133915000D01*
X234230000Y-133785000D02*
X234230000Y-136725000D01*
X235130000Y-133785000D02*
X229690000Y-133785000D01*
X235130000Y-136595000D02*
X235130000Y-136725000D01*
X235130000Y-136725000D02*
X229690000Y-136725000D01*
X235130000Y-133915000D02*
X235130000Y-133785000D01*
X229690000Y-136725000D02*
X229690000Y-136595000D01*
X234110000Y-133785000D02*
X234110000Y-136725000D01*
X234350000Y-133785000D02*
X234350000Y-136725000D01*
%TO.C,D36*%
X176960000Y-152835000D02*
X176960000Y-155775000D01*
X172540000Y-152835000D02*
X172540000Y-152965000D01*
X177980000Y-155645000D02*
X177980000Y-155775000D01*
X177980000Y-155775000D02*
X172540000Y-155775000D01*
X177980000Y-152965000D02*
X177980000Y-152835000D01*
X177980000Y-152835000D02*
X172540000Y-152835000D01*
X177080000Y-152835000D02*
X177080000Y-155775000D01*
X177200000Y-152835000D02*
X177200000Y-155775000D01*
X172540000Y-155775000D02*
X172540000Y-155645000D01*
%TO.C,D30*%
X153490000Y-117675000D02*
X153490000Y-117545000D01*
X158930000Y-117545000D02*
X158930000Y-117675000D01*
X158930000Y-114735000D02*
X153490000Y-114735000D01*
X158150000Y-114735000D02*
X158150000Y-117675000D01*
X158930000Y-117675000D02*
X153490000Y-117675000D01*
X157910000Y-114735000D02*
X157910000Y-117675000D01*
X158930000Y-114865000D02*
X158930000Y-114735000D01*
X153490000Y-114735000D02*
X153490000Y-114865000D01*
X158030000Y-114735000D02*
X158030000Y-117675000D01*
%TD*%
M02*
