M48
; DRILL file {KiCad (6.0.0-0)} date Friday, June 17, 2022 at 11:46:39 PM
; FORMAT={-:-/ absolute / inch / decimal}
; #@! TF.CreationDate,2022-06-17T23:46:39-04:00
; #@! TF.GenerationSoftware,Kicad,Pcbnew,(6.0.0-0)
; #@! TF.FileFunction,Plated,1,2,PTH
FMAT,2
INCH
; #@! TA.AperFunction,Plated,PTH,ViaDrill
T1C0.0157
; #@! TA.AperFunction,Plated,PTH,ComponentDrill
T2C0.0276
; #@! TA.AperFunction,Plated,PTH,ComponentDrill
T3C0.0315
; #@! TA.AperFunction,Plated,PTH,ComponentDrill
T4C0.0394
; #@! TA.AperFunction,Plated,PTH,ComponentDrill
T5C0.0433
; #@! TA.AperFunction,Plated,PTH,ComponentDrill
T6C0.0591
%
G90
G05
T1
X2.8323Y-4.7522
X3.0737Y-4.6924
T2
X1.1652Y-2.175
X1.1652Y-2.375
X1.2652Y-2.175
X1.2652Y-2.375
X1.4402Y-2.175
X1.4402Y-2.375
X1.5402Y-2.175
X1.5402Y-2.375
X1.6902Y-2.175
X1.6902Y-2.375
X1.7902Y-2.175
X1.7902Y-2.375
T3
X0.6803Y-2.1661
X0.6803Y-2.4614
X0.7039Y-3.2929
X0.9992Y-3.2929
X1.564Y-2.7049
X1.564Y-3.3049
X1.664Y-2.7049
X1.664Y-3.3049
X1.764Y-2.7049
X1.764Y-3.3049
X1.864Y-2.7049
X1.864Y-3.3049
X1.964Y-2.7049
X1.964Y-3.3049
X2.064Y-2.7049
X2.064Y-3.3049
X2.164Y-2.7049
X2.164Y-3.3049
X2.2124Y-2.4569
X2.2138Y-1.9858
X2.2138Y-2.2811
X2.264Y-2.7049
X2.264Y-3.3049
X2.364Y-2.7049
X2.364Y-3.3049
X2.3878Y-3.4476
X2.4045Y-1.9835
X2.4045Y-2.2787
X2.4045Y-2.4569
X2.464Y-2.7049
X2.464Y-3.3049
X2.564Y-2.7049
X2.564Y-3.3049
X2.664Y-2.7049
X2.664Y-3.3049
X2.6831Y-3.4476
X2.732Y-2.3672
X2.732Y-2.4459
X2.732Y-2.5246
X2.764Y-2.7049
X2.764Y-3.3049
X2.7921Y-3.4449
X2.8107Y-2.3672
X2.8107Y-2.4459
X2.8107Y-2.5246
X2.864Y-2.7049
X2.864Y-3.3049
X2.8709Y-3.4449
X2.964Y-2.7049
X2.964Y-3.3049
X3.064Y-2.7049
X3.064Y-3.3049
X3.164Y-2.7049
X3.164Y-3.3049
X3.1779Y-2.5338
X3.1953Y-1.9319
X3.1953Y-2.2272
X3.2567Y-2.5338
X3.264Y-2.7049
X3.264Y-3.3049
X3.3354Y-2.5338
X3.364Y-2.7049
X3.364Y-3.3049
X3.4141Y-2.5338
X3.464Y-2.7049
X3.464Y-3.3049
T5
X0.75Y-3.825
X0.75Y-4.575
X0.75Y-5.325
X0.75Y-6.075
X1.05Y-3.825
X1.05Y-4.575
X1.05Y-5.325
X1.05Y-6.075
X1.5Y-3.825
X1.5Y-4.575
X1.5Y-5.325
X1.5Y-6.075
X1.8Y-3.825
X1.8Y-4.575
X1.8Y-5.325
X1.8Y-6.075
X2.25Y-3.825
X2.25Y-4.575
X2.25Y-5.325
X2.25Y-6.075
X2.55Y-3.825
X2.55Y-4.575
X2.55Y-5.325
X2.55Y-6.075
X3.0Y-3.825
X3.0Y-4.575
X3.0Y-5.325
X3.0Y-6.075
X3.3Y-3.825
X3.3Y-4.575
X3.3Y-5.325
X3.3Y-6.075
X3.75Y-3.825
X3.75Y-4.575
X3.75Y-5.325
X3.75Y-6.075
X4.05Y-3.825
X4.05Y-4.575
X4.05Y-5.325
X4.05Y-6.075
X4.5Y-3.825
X4.5Y-4.575
X4.5Y-5.325
X4.5Y-6.075
X4.8Y-3.825
X4.8Y-4.575
X4.8Y-5.325
X4.8Y-6.075
X5.25Y-3.825
X5.25Y-4.575
X5.25Y-5.325
X5.25Y-6.075
X5.55Y-3.825
X5.55Y-4.575
X5.55Y-5.325
X5.55Y-6.075
X6.0Y-3.825
X6.0Y-4.575
X6.0Y-5.325
X6.0Y-6.075
X6.3Y-3.825
X6.3Y-4.575
X6.3Y-5.325
X6.3Y-6.075
X6.75Y-3.825
X6.75Y-4.575
X6.75Y-5.325
X6.75Y-6.075
X7.05Y-3.825
X7.05Y-4.575
X7.05Y-5.325
X7.05Y-6.075
X7.5Y-3.825
X7.5Y-4.575
X7.5Y-5.325
X7.5Y-6.075
X7.8Y-3.825
X7.8Y-4.575
X7.8Y-5.325
X7.8Y-6.075
X8.25Y-3.825
X8.25Y-4.575
X8.25Y-5.32
X8.25Y-6.075
X8.55Y-3.825
X8.55Y-4.575
X8.55Y-5.32
X8.55Y-6.075
X9.0Y-3.825
X9.0Y-4.575
X9.0Y-5.325
X9.0Y-6.075
X9.3Y-3.825
X9.3Y-4.575
X9.3Y-5.325
X9.3Y-6.075
T6
X0.75Y-4.1
X0.75Y-4.85
X0.75Y-5.6
X0.75Y-6.35
X1.0Y-4.0
X1.0Y-4.75
X1.0Y-5.5
X1.0Y-6.25
X1.5Y-4.1
X1.5Y-4.85
X1.5Y-6.35
X1.505Y-5.6
X1.75Y-4.0
X1.75Y-4.75
X1.75Y-6.25
X1.755Y-5.5
X2.25Y-4.1
X2.25Y-4.85
X2.25Y-5.6
X2.25Y-6.35
X2.5Y-4.0
X2.5Y-4.75
X2.5Y-5.5
X2.5Y-6.25
X3.0Y-4.1
X3.0Y-4.85
X3.0Y-5.6
X3.0Y-6.35
X3.25Y-4.0
X3.25Y-4.75
X3.25Y-5.5
X3.25Y-6.25
X3.75Y-4.1
X3.75Y-4.85
X3.75Y-5.6
X3.75Y-6.35
X4.0Y-4.0
X4.0Y-4.75
X4.0Y-5.5
X4.0Y-6.25
X4.5Y-4.1
X4.5Y-4.85
X4.5Y-5.6
X4.5Y-6.35
X4.75Y-4.0
X4.75Y-4.75
X4.75Y-5.5
X4.75Y-6.25
X5.25Y-4.1
X5.25Y-4.85
X5.25Y-5.6
X5.25Y-6.35
X5.5Y-4.0
X5.5Y-4.75
X5.5Y-5.5
X5.5Y-6.25
X6.0Y-4.1
X6.0Y-4.85
X6.0Y-5.6
X6.0Y-6.35
X6.25Y-4.0
X6.25Y-4.75
X6.25Y-5.5
X6.25Y-6.25
X6.75Y-4.1
X6.75Y-4.85
X6.75Y-5.6
X6.75Y-6.35
X7.0Y-4.0
X7.0Y-4.75
X7.0Y-5.5
X7.0Y-6.25
X7.5Y-4.1
X7.5Y-4.85
X7.5Y-5.6
X7.5Y-6.35
X7.75Y-4.0
X7.75Y-4.75
X7.75Y-5.5
X7.75Y-6.25
X8.25Y-4.1
X8.25Y-4.85
X8.25Y-5.6
X8.25Y-6.35
X8.5Y-4.0
X8.5Y-4.75
X8.5Y-5.5
X8.5Y-6.25
X9.0Y-4.1
X9.0Y-4.85
X9.0Y-5.6
X9.0Y-6.35
X9.25Y-4.0
X9.25Y-4.75
X9.25Y-5.5
X9.25Y-6.25
T4
G00X0.6169Y-2.8465
M15
G01X0.6169Y-2.9252
M16
G05
G00X0.6957Y-3.0709
M15
G01X0.7744Y-3.0709
M16
G05
G00X0.8531Y-2.8465
M15
G01X0.8531Y-2.9252
M16
G05
T0
M30
