%TF.GenerationSoftware,KiCad,Pcbnew,(6.0.0-0)*%
%TF.CreationDate,2022-06-17T23:46:41-04:00*%
%TF.ProjectId,justin-freetracing,6a757374-696e-42d6-9672-656574726163,rev?*%
%TF.SameCoordinates,Original*%
%TF.FileFunction,Copper,L2,Bot*%
%TF.FilePolarity,Positive*%
%FSLAX46Y46*%
G04 Gerber Fmt 4.6, Leading zero omitted, Abs format (unit mm)*
G04 Created by KiCad (PCBNEW (6.0.0-0)) date 2022-06-17 23:46:41*
%MOMM*%
%LPD*%
G01*
G04 APERTURE LIST*
G04 Aperture macros list*
%AMRoundRect*
0 Rectangle with rounded corners*
0 $1 Rounding radius*
0 $2 $3 $4 $5 $6 $7 $8 $9 X,Y pos of 4 corners*
0 Add a 4 corners polygon primitive as box body*
4,1,4,$2,$3,$4,$5,$6,$7,$8,$9,$2,$3,0*
0 Add four circle primitives for the rounded corners*
1,1,$1+$1,$2,$3*
1,1,$1+$1,$4,$5*
1,1,$1+$1,$6,$7*
1,1,$1+$1,$8,$9*
0 Add four rect primitives between the rounded corners*
20,1,$1+$1,$2,$3,$4,$5,0*
20,1,$1+$1,$4,$5,$6,$7,0*
20,1,$1+$1,$6,$7,$8,$9,0*
20,1,$1+$1,$8,$9,$2,$3,0*%
G04 Aperture macros list end*
%TA.AperFunction,ComponentPad*%
%ADD10R,3.500000X3.500000*%
%TD*%
%TA.AperFunction,ComponentPad*%
%ADD11RoundRect,0.750000X-0.750000X-1.000000X0.750000X-1.000000X0.750000X1.000000X-0.750000X1.000000X0*%
%TD*%
%TA.AperFunction,ComponentPad*%
%ADD12RoundRect,0.875000X-0.875000X-0.875000X0.875000X-0.875000X0.875000X0.875000X-0.875000X0.875000X0*%
%TD*%
%TA.AperFunction,ComponentPad*%
%ADD13C,1.600000*%
%TD*%
%TA.AperFunction,ComponentPad*%
%ADD14O,1.600000X1.600000*%
%TD*%
%TA.AperFunction,ComponentPad*%
%ADD15R,1.350000X1.350000*%
%TD*%
%TA.AperFunction,ComponentPad*%
%ADD16O,1.350000X1.350000*%
%TD*%
%TA.AperFunction,ComponentPad*%
%ADD17C,2.200000*%
%TD*%
%TA.AperFunction,ComponentPad*%
%ADD18R,1.600000X1.600000*%
%TD*%
%TA.AperFunction,SMDPad,CuDef*%
%ADD19R,1.846667X3.480000*%
%TD*%
%TA.AperFunction,ComponentPad*%
%ADD20C,1.500000*%
%TD*%
%TA.AperFunction,ComponentPad*%
%ADD21R,2.200000X2.200000*%
%TD*%
%TA.AperFunction,ComponentPad*%
%ADD22O,2.200000X2.200000*%
%TD*%
%TA.AperFunction,ComponentPad*%
%ADD23C,1.400000*%
%TD*%
%TA.AperFunction,ComponentPad*%
%ADD24O,1.400000X1.400000*%
%TD*%
%TA.AperFunction,ViaPad*%
%ADD25C,0.800000*%
%TD*%
%TA.AperFunction,Conductor*%
%ADD26C,0.250000*%
%TD*%
G04 APERTURE END LIST*
D10*
%TO.P,J5,1*%
%TO.N,VCC*%
X21670000Y-73300000D03*
D11*
%TO.P,J5,2*%
%TO.N,unconnected-(J5-Pad2)*%
X15670000Y-73300000D03*
D12*
%TO.P,J5,3*%
%TO.N,GND*%
X18670000Y-78000000D03*
%TD*%
D13*
%TO.P,C6,1*%
%TO.N,VCC*%
X25380000Y-83640000D03*
D14*
%TO.P,C6,2*%
%TO.N,GND*%
X17880000Y-83640000D03*
%TD*%
%TO.P,C5,2*%
%TO.N,GND*%
X17280000Y-55020000D03*
D13*
%TO.P,C5,1*%
%TO.N,VCC*%
X17280000Y-62520000D03*
%TD*%
%TO.P,C4,1*%
%TO.N,VCC*%
X81160000Y-56570000D03*
D14*
%TO.P,C4,2*%
%TO.N,GND*%
X81160000Y-49070000D03*
%TD*%
D15*
%TO.P,J2,1,Pin_1*%
%TO.N,/MISO*%
X71393000Y-64126000D03*
D16*
%TO.P,J2,2,Pin_2*%
%TO.N,VCC*%
X69393000Y-64126000D03*
%TO.P,J2,3,Pin_3*%
%TO.N,/PB7*%
X71393000Y-62126000D03*
%TO.P,J2,4,Pin_4*%
%TO.N,/MOSI*%
X69393000Y-62126000D03*
%TO.P,J2,5,Pin_5*%
%TO.N,/~RESET*%
X71393000Y-60126000D03*
%TO.P,J2,6,Pin_6*%
%TO.N,GND*%
X69393000Y-60126000D03*
%TD*%
D17*
%TO.P,K27,1,1*%
%TO.N,/KR2*%
X139700000Y-139700000D03*
%TO.P,K27,2,2*%
%TO.N,Net-(D27-Pad2)*%
X133350000Y-142240000D03*
%TD*%
%TO.P,K6,1,1*%
%TO.N,/KR5*%
X44450000Y-120650000D03*
%TO.P,K6,2,2*%
%TO.N,Net-(D6-Pad2)*%
X38100000Y-123190000D03*
%TD*%
%TO.P,K26,1,1*%
%TO.N,/KR1*%
X139700000Y-120650000D03*
%TO.P,K26,2,2*%
%TO.N,Net-(D26-Pad2)*%
X133350000Y-123190000D03*
%TD*%
%TO.P,K25,1,1*%
%TO.N,/KR0*%
X139700000Y-101600000D03*
%TO.P,K25,2,2*%
%TO.N,Net-(D25-Pad2)*%
X133350000Y-104140000D03*
%TD*%
D18*
%TO.P,U1,1,PB0*%
%TO.N,/PB0*%
X87985000Y-68705000D03*
D14*
%TO.P,U1,2,PB1*%
%TO.N,/PB1*%
X85445000Y-68705000D03*
%TO.P,U1,3,PB2*%
%TO.N,/PB2*%
X82905000Y-68705000D03*
%TO.P,U1,4,PB3*%
%TO.N,/PB3*%
X80365000Y-68705000D03*
%TO.P,U1,5,PB4*%
%TO.N,/PB4*%
X77825000Y-68705000D03*
%TO.P,U1,6,PB5*%
%TO.N,/MOSI*%
X75285000Y-68705000D03*
%TO.P,U1,7,PB6*%
%TO.N,/MISO*%
X72745000Y-68705000D03*
%TO.P,U1,8,PB7*%
%TO.N,/PB7*%
X70205000Y-68705000D03*
%TO.P,U1,9,~{RESET}*%
%TO.N,/~RESET*%
X67665000Y-68705000D03*
%TO.P,U1,10,VCC*%
%TO.N,VCC*%
X65125000Y-68705000D03*
%TO.P,U1,11,GND*%
%TO.N,GND*%
X62585000Y-68705000D03*
%TO.P,U1,12,XTAL2*%
%TO.N,Net-(C2-Pad2)*%
X60045000Y-68705000D03*
%TO.P,U1,13,XTAL1*%
%TO.N,Net-(C1-Pad2)*%
X57505000Y-68705000D03*
%TO.P,U1,14,PD0*%
%TO.N,Net-(R50-Pad2)*%
X54965000Y-68705000D03*
%TO.P,U1,15,PD1*%
%TO.N,Net-(R54-Pad2)*%
X52425000Y-68705000D03*
%TO.P,U1,16,PD2*%
%TO.N,Net-(R49-Pad2)*%
X49885000Y-68705000D03*
%TO.P,U1,17,PD3*%
%TO.N,Net-(R52-Pad2)*%
X47345000Y-68705000D03*
%TO.P,U1,18,PD4*%
%TO.N,Net-(R51-Pad2)*%
X44805000Y-68705000D03*
%TO.P,U1,19,PD5*%
%TO.N,Net-(R53-Pad2)*%
X42265000Y-68705000D03*
%TO.P,U1,20,PD6*%
%TO.N,/VSYNC*%
X39725000Y-68705000D03*
%TO.P,U1,21,PD7*%
%TO.N,/HSYNC*%
X39725000Y-83945000D03*
%TO.P,U1,22,PC0*%
%TO.N,/KC0*%
X42265000Y-83945000D03*
%TO.P,U1,23,PC1*%
%TO.N,/KC1*%
X44805000Y-83945000D03*
%TO.P,U1,24,PC2*%
%TO.N,/KC2*%
X47345000Y-83945000D03*
%TO.P,U1,25,PC3*%
%TO.N,/KC3*%
X49885000Y-83945000D03*
%TO.P,U1,26,PC4*%
%TO.N,/KC4*%
X52425000Y-83945000D03*
%TO.P,U1,27,PC5*%
%TO.N,/KC5*%
X54965000Y-83945000D03*
%TO.P,U1,28,PC6*%
%TO.N,/KC6*%
X57505000Y-83945000D03*
%TO.P,U1,29,PC7*%
%TO.N,/KC7*%
X60045000Y-83945000D03*
%TO.P,U1,30,AVCC*%
%TO.N,VCC*%
X62585000Y-83945000D03*
%TO.P,U1,31,GND*%
%TO.N,GND*%
X65125000Y-83945000D03*
%TO.P,U1,32,AREF*%
%TO.N,Net-(C3-Pad2)*%
X67665000Y-83945000D03*
%TO.P,U1,33,PA7*%
%TO.N,/PA7*%
X70205000Y-83945000D03*
%TO.P,U1,34,PA6*%
%TO.N,/PA6*%
X72745000Y-83945000D03*
%TO.P,U1,35,PA5*%
%TO.N,/KR5*%
X75285000Y-83945000D03*
%TO.P,U1,36,PA4*%
%TO.N,/KR4*%
X77825000Y-83945000D03*
%TO.P,U1,37,PA3*%
%TO.N,/KR3*%
X80365000Y-83945000D03*
%TO.P,U1,38,PA2*%
%TO.N,/KR2*%
X82905000Y-83945000D03*
%TO.P,U1,39,PA1*%
%TO.N,/KR1*%
X85445000Y-83945000D03*
%TO.P,U1,40,PA0*%
%TO.N,/KR0*%
X87985000Y-83945000D03*
%TD*%
D17*
%TO.P,K44,1,1*%
%TO.N,/KR1*%
X215900000Y-158750000D03*
%TO.P,K44,2,2*%
%TO.N,Net-(D44-Pad2)*%
X209550000Y-161290000D03*
%TD*%
%TO.P,K33,1,1*%
%TO.N,/KR2*%
X177800000Y-101600000D03*
%TO.P,K33,2,2*%
%TO.N,Net-(D33-Pad2)*%
X171450000Y-104140000D03*
%TD*%
%TO.P,K2,1,1*%
%TO.N,/KR1*%
X25400000Y-120650000D03*
%TO.P,K2,2,2*%
%TO.N,Net-(D2-Pad2)*%
X19050000Y-123190000D03*
%TD*%
D14*
%TO.P,C3,2*%
%TO.N,Net-(C3-Pad2)*%
X68150000Y-87570000D03*
D13*
%TO.P,C3,1*%
%TO.N,GND*%
X60650000Y-87570000D03*
%TD*%
D17*
%TO.P,K36,1,1*%
%TO.N,/KR5*%
X177800000Y-158750000D03*
%TO.P,K36,2,2*%
%TO.N,Net-(D36-Pad2)*%
X171450000Y-161290000D03*
%TD*%
%TO.P,K8,1,1*%
%TO.N,/KR1*%
X44450000Y-158750000D03*
%TO.P,K8,2,2*%
%TO.N,Net-(D8-Pad2)*%
X38100000Y-161290000D03*
%TD*%
%TO.P,K12,1,1*%
%TO.N,/KR5*%
X63500000Y-158750000D03*
%TO.P,K12,2,2*%
%TO.N,Net-(D12-Pad2)*%
X57150000Y-161290000D03*
%TD*%
%TO.P,K5,1,1*%
%TO.N,/KR4*%
X44450000Y-101600000D03*
%TO.P,K5,2,2*%
%TO.N,Net-(D5-Pad2)*%
X38100000Y-104140000D03*
%TD*%
%TO.P,K14,1,1*%
%TO.N,/KR1*%
X82550000Y-120650000D03*
%TO.P,K14,2,2*%
%TO.N,Net-(D14-Pad2)*%
X76200000Y-123190000D03*
%TD*%
%TO.P,K38,1,1*%
%TO.N,/KR1*%
X196850000Y-120650000D03*
%TO.P,K38,2,2*%
%TO.N,Net-(D38-Pad2)*%
X190500000Y-123190000D03*
%TD*%
%TO.P,K23,1,1*%
%TO.N,/KR4*%
X120650000Y-139700000D03*
%TO.P,K23,2,2*%
%TO.N,Net-(D23-Pad2)*%
X114300000Y-142240000D03*
%TD*%
%TO.P,K16,1,1*%
%TO.N,/KR3*%
X82550000Y-158750000D03*
%TO.P,K16,2,2*%
%TO.N,Net-(D16-Pad2)*%
X76200000Y-161290000D03*
%TD*%
%TO.P,K10,1,1*%
%TO.N,/KR3*%
X63500000Y-120650000D03*
%TO.P,K10,2,2*%
%TO.N,Net-(D10-Pad2)*%
X57150000Y-123190000D03*
%TD*%
%TO.P,K43,1,1*%
%TO.N,/KR0*%
X215900000Y-139700000D03*
%TO.P,K43,2,2*%
%TO.N,Net-(D43-Pad2)*%
X209550000Y-142240000D03*
%TD*%
%TO.P,K48,1,1*%
%TO.N,/KR5*%
X234950000Y-139700000D03*
%TO.P,K48,2,2*%
%TO.N,Net-(D48-Pad2)*%
X228600000Y-142240000D03*
%TD*%
D15*
%TO.P,J4,1,Pin_1*%
%TO.N,/PB0*%
X86719000Y-64358000D03*
D16*
%TO.P,J4,2,Pin_2*%
%TO.N,/PB1*%
X84719000Y-64358000D03*
%TO.P,J4,3,Pin_3*%
%TO.N,/PB2*%
X82719000Y-64358000D03*
%TO.P,J4,4,Pin_4*%
%TO.N,/PB3*%
X80719000Y-64358000D03*
%TD*%
D17*
%TO.P,K13,1,1*%
%TO.N,/KR0*%
X82550000Y-101600000D03*
%TO.P,K13,2,2*%
%TO.N,Net-(D13-Pad2)*%
X76200000Y-104140000D03*
%TD*%
%TO.P,K29,1,1*%
%TO.N,/KR4*%
X158750000Y-101600000D03*
%TO.P,K29,2,2*%
%TO.N,Net-(D29-Pad2)*%
X152400000Y-104140000D03*
%TD*%
%TO.P,K15,1,1*%
%TO.N,/KR2*%
X82550000Y-139700000D03*
%TO.P,K15,2,2*%
%TO.N,Net-(D15-Pad2)*%
X76200000Y-142240000D03*
%TD*%
%TO.P,K7,1,1*%
%TO.N,/KR0*%
X44577000Y-139700000D03*
%TO.P,K7,2,2*%
%TO.N,Net-(D7-Pad2)*%
X38227000Y-142240000D03*
%TD*%
%TO.P,K47,1,1*%
%TO.N,/KR4*%
X234950000Y-120650000D03*
%TO.P,K47,2,2*%
%TO.N,Net-(D47-Pad2)*%
X228600000Y-123190000D03*
%TD*%
%TO.P,K28,1,1*%
%TO.N,/KR3*%
X139700000Y-158750000D03*
%TO.P,K28,2,2*%
%TO.N,Net-(D28-Pad2)*%
X133350000Y-161290000D03*
%TD*%
%TO.P,K46,1,1*%
%TO.N,/KR3*%
X234950000Y-101600000D03*
%TO.P,K46,2,2*%
%TO.N,Net-(D46-Pad2)*%
X228600000Y-104140000D03*
%TD*%
%TO.P,K9,1,1*%
%TO.N,/KR2*%
X63500000Y-101600000D03*
%TO.P,K9,2,2*%
%TO.N,Net-(D9-Pad2)*%
X57150000Y-104140000D03*
%TD*%
%TO.P,K20,1,1*%
%TO.N,/KR1*%
X101600000Y-158750000D03*
%TO.P,K20,2,2*%
%TO.N,Net-(D20-Pad2)*%
X95250000Y-161290000D03*
%TD*%
%TO.P,K45,1,1*%
%TO.N,/KR2*%
X234950000Y-158750000D03*
%TO.P,K45,2,2*%
%TO.N,Net-(D45-Pad2)*%
X228600000Y-161290000D03*
%TD*%
D19*
%TO.P,J1,9*%
%TO.N,GND*%
X28960000Y-48482500D03*
%TO.P,J1,10*%
X31730000Y-48482500D03*
%TO.P,J1,11*%
%TO.N,unconnected-(J1-Pad11)*%
X34500000Y-48482500D03*
%TO.P,J1,12*%
%TO.N,unconnected-(J1-Pad12)*%
X37270000Y-48482500D03*
%TO.P,J1,13*%
%TO.N,/HSYNC*%
X40040000Y-48482500D03*
%TO.P,J1,14*%
%TO.N,/VSYNC*%
X42810000Y-48482500D03*
%TO.P,J1,15*%
%TO.N,unconnected-(J1-Pad15)*%
X45580000Y-48482500D03*
%TD*%
D17*
%TO.P,K17,1,1*%
%TO.N,/KR4*%
X101600000Y-101600000D03*
%TO.P,K17,2,2*%
%TO.N,Net-(D17-Pad2)*%
X95250000Y-104140000D03*
%TD*%
%TO.P,K34,1,1*%
%TO.N,/KR3*%
X177800000Y-120650000D03*
%TO.P,K34,2,2*%
%TO.N,Net-(D34-Pad2)*%
X171450000Y-123190000D03*
%TD*%
%TO.P,K32,1,1*%
%TO.N,/KR1*%
X158750000Y-158750000D03*
%TO.P,K32,2,2*%
%TO.N,Net-(D32-Pad2)*%
X152400000Y-161290000D03*
%TD*%
%TO.P,K40,1,1*%
%TO.N,/KR3*%
X196850000Y-158750000D03*
%TO.P,K40,2,2*%
%TO.N,Net-(D40-Pad2)*%
X190500000Y-161290000D03*
%TD*%
%TO.P,K31,1,1*%
%TO.N,/KR0*%
X158750000Y-139700000D03*
%TO.P,K31,2,2*%
%TO.N,Net-(D31-Pad2)*%
X152400000Y-142240000D03*
%TD*%
%TO.P,K18,1,1*%
%TO.N,/KR5*%
X101600000Y-120650000D03*
%TO.P,K18,2,2*%
%TO.N,Net-(D18-Pad2)*%
X95250000Y-123190000D03*
%TD*%
%TO.P,K41,1,1*%
%TO.N,/KR4*%
X215900000Y-101600000D03*
%TO.P,K41,2,2*%
%TO.N,Net-(D41-Pad2)*%
X209550000Y-104140000D03*
%TD*%
%TO.P,K39,1,1*%
%TO.N,/KR2*%
X196850000Y-139700000D03*
%TO.P,K39,2,2*%
%TO.N,Net-(D39-Pad2)*%
X190500000Y-142240000D03*
%TD*%
%TO.P,K21,1,1*%
%TO.N,/KR2*%
X120650000Y-101600000D03*
%TO.P,K21,2,2*%
%TO.N,Net-(D21-Pad2)*%
X114300000Y-104140000D03*
%TD*%
D14*
%TO.P,C2,2*%
%TO.N,Net-(C2-Pad2)*%
X61075000Y-57880000D03*
D13*
%TO.P,C2,1*%
%TO.N,GND*%
X61075000Y-50380000D03*
%TD*%
D17*
%TO.P,K37,1,1*%
%TO.N,/KR0*%
X196850000Y-101600000D03*
%TO.P,K37,2,2*%
%TO.N,Net-(D37-Pad2)*%
X190500000Y-104140000D03*
%TD*%
%TO.P,K3,1,1*%
%TO.N,/KR2*%
X25400000Y-139700000D03*
%TO.P,K3,2,2*%
%TO.N,Net-(D3-Pad2)*%
X19050000Y-142240000D03*
%TD*%
%TO.P,K24,1,1*%
%TO.N,/KR5*%
X120650000Y-158750000D03*
%TO.P,K24,2,2*%
%TO.N,Net-(D24-Pad2)*%
X114300000Y-161290000D03*
%TD*%
D14*
%TO.P,C1,2*%
%TO.N,Net-(C1-Pad2)*%
X56230000Y-57940000D03*
D13*
%TO.P,C1,1*%
%TO.N,GND*%
X56230000Y-50440000D03*
%TD*%
D17*
%TO.P,K1,1,1*%
%TO.N,/KR0*%
X25400000Y-101600000D03*
%TO.P,K1,2,2*%
%TO.N,Net-(D1-Pad2)*%
X19050000Y-104140000D03*
%TD*%
D15*
%TO.P,J3,1,Pin_1*%
%TO.N,/PA6*%
X72920000Y-87500000D03*
D16*
%TO.P,J3,2,Pin_2*%
%TO.N,/PA7*%
X70920000Y-87500000D03*
%TD*%
D17*
%TO.P,K42,1,1*%
%TO.N,/KR5*%
X215900000Y-120650000D03*
%TO.P,K42,2,2*%
%TO.N,Net-(D42-Pad2)*%
X209550000Y-123190000D03*
%TD*%
%TO.P,K19,1,1*%
%TO.N,/KR0*%
X101600000Y-139700000D03*
%TO.P,K19,2,2*%
%TO.N,Net-(D19-Pad2)*%
X95250000Y-142240000D03*
%TD*%
%TO.P,K35,1,1*%
%TO.N,/KR4*%
X177800000Y-139700000D03*
%TO.P,K35,2,2*%
%TO.N,Net-(D35-Pad2)*%
X171450000Y-142240000D03*
%TD*%
%TO.P,K11,1,1*%
%TO.N,/KR4*%
X63500000Y-139700000D03*
%TO.P,K11,2,2*%
%TO.N,Net-(D11-Pad2)*%
X57150000Y-142240000D03*
%TD*%
%TO.P,K22,1,1*%
%TO.N,/KR3*%
X120650000Y-120650000D03*
%TO.P,K22,2,2*%
%TO.N,Net-(D22-Pad2)*%
X114300000Y-123190000D03*
%TD*%
%TO.P,K4,1,1*%
%TO.N,/KR3*%
X25400000Y-158750000D03*
%TO.P,K4,2,2*%
%TO.N,Net-(D4-Pad2)*%
X19050000Y-161290000D03*
%TD*%
D20*
%TO.P,Y1,1,1*%
%TO.N,Net-(C2-Pad2)*%
X61075000Y-62405000D03*
%TO.P,Y1,2,2*%
%TO.N,Net-(C1-Pad2)*%
X56195000Y-62405000D03*
%TD*%
D17*
%TO.P,K30,1,1*%
%TO.N,/KR5*%
X158750000Y-120650000D03*
%TO.P,K30,2,2*%
%TO.N,Net-(D30-Pad2)*%
X152400000Y-123190000D03*
%TD*%
D21*
%TO.P,D45,1,K*%
%TO.N,/KC7*%
X236220000Y-154305000D03*
D22*
%TO.P,D45,2,A*%
%TO.N,Net-(D45-Pad2)*%
X228600000Y-154305000D03*
%TD*%
D21*
%TO.P,D17,1,K*%
%TO.N,/KC2*%
X102870000Y-97155000D03*
D22*
%TO.P,D17,2,A*%
%TO.N,Net-(D17-Pad2)*%
X95250000Y-97155000D03*
%TD*%
D21*
%TO.P,D25,1,K*%
%TO.N,/KC4*%
X140970000Y-97155000D03*
D22*
%TO.P,D25,2,A*%
%TO.N,Net-(D25-Pad2)*%
X133350000Y-97155000D03*
%TD*%
D21*
%TO.P,D23,1,K*%
%TO.N,/KC3*%
X121920000Y-135255000D03*
D22*
%TO.P,D23,2,A*%
%TO.N,Net-(D23-Pad2)*%
X114300000Y-135255000D03*
%TD*%
D21*
%TO.P,D7,1,K*%
%TO.N,/KC1*%
X45720000Y-135255000D03*
D22*
%TO.P,D7,2,A*%
%TO.N,Net-(D7-Pad2)*%
X38100000Y-135255000D03*
%TD*%
D23*
%TO.P,R50,1*%
%TO.N,/RED*%
X29595000Y-55245000D03*
D24*
%TO.P,R50,2*%
%TO.N,Net-(R50-Pad2)*%
X29595000Y-60325000D03*
%TD*%
D21*
%TO.P,D37,1,K*%
%TO.N,/KC6*%
X198120000Y-97155000D03*
D22*
%TO.P,D37,2,A*%
%TO.N,Net-(D37-Pad2)*%
X190500000Y-97155000D03*
%TD*%
D21*
%TO.P,D41,1,K*%
%TO.N,/KC6*%
X217170000Y-97155000D03*
D22*
%TO.P,D41,2,A*%
%TO.N,Net-(D41-Pad2)*%
X209550000Y-97155000D03*
%TD*%
D21*
%TO.P,D28,1,K*%
%TO.N,/KC4*%
X140970000Y-154305000D03*
D22*
%TO.P,D28,2,A*%
%TO.N,Net-(D28-Pad2)*%
X133350000Y-154305000D03*
%TD*%
D21*
%TO.P,D11,1,K*%
%TO.N,/KC1*%
X64770000Y-135255000D03*
D22*
%TO.P,D11,2,A*%
%TO.N,Net-(D11-Pad2)*%
X57150000Y-135255000D03*
%TD*%
D21*
%TO.P,D43,1,K*%
%TO.N,/KC7*%
X217170000Y-135128000D03*
D22*
%TO.P,D43,2,A*%
%TO.N,Net-(D43-Pad2)*%
X209550000Y-135128000D03*
%TD*%
D23*
%TO.P,R52,1*%
%TO.N,/GREEN*%
X39120000Y-55245000D03*
D24*
%TO.P,R52,2*%
%TO.N,Net-(R52-Pad2)*%
X39120000Y-60325000D03*
%TD*%
D21*
%TO.P,D21,1,K*%
%TO.N,/KC3*%
X121920000Y-97155000D03*
D22*
%TO.P,D21,2,A*%
%TO.N,Net-(D21-Pad2)*%
X114300000Y-97155000D03*
%TD*%
D21*
%TO.P,D27,1,K*%
%TO.N,/KC4*%
X140970000Y-135255000D03*
D22*
%TO.P,D27,2,A*%
%TO.N,Net-(D27-Pad2)*%
X133350000Y-135255000D03*
%TD*%
D21*
%TO.P,D35,1,K*%
%TO.N,/KC5*%
X179070000Y-135255000D03*
D22*
%TO.P,D35,2,A*%
%TO.N,Net-(D35-Pad2)*%
X171450000Y-135255000D03*
%TD*%
D21*
%TO.P,D16,1,K*%
%TO.N,/KC2*%
X83820000Y-154305000D03*
D22*
%TO.P,D16,2,A*%
%TO.N,Net-(D16-Pad2)*%
X76200000Y-154305000D03*
%TD*%
D21*
%TO.P,D19,1,K*%
%TO.N,/KC3*%
X102870000Y-135255000D03*
D22*
%TO.P,D19,2,A*%
%TO.N,Net-(D19-Pad2)*%
X95250000Y-135255000D03*
%TD*%
D21*
%TO.P,D42,1,K*%
%TO.N,/KC6*%
X217170000Y-116205000D03*
D22*
%TO.P,D42,2,A*%
%TO.N,Net-(D42-Pad2)*%
X209550000Y-116205000D03*
%TD*%
D21*
%TO.P,D31,1,K*%
%TO.N,/KC5*%
X160020000Y-135255000D03*
D22*
%TO.P,D31,2,A*%
%TO.N,Net-(D31-Pad2)*%
X152400000Y-135255000D03*
%TD*%
D21*
%TO.P,D38,1,K*%
%TO.N,/KC6*%
X198120000Y-116205000D03*
D22*
%TO.P,D38,2,A*%
%TO.N,Net-(D38-Pad2)*%
X190500000Y-116205000D03*
%TD*%
D21*
%TO.P,D15,1,K*%
%TO.N,/KC2*%
X83820000Y-135255000D03*
D22*
%TO.P,D15,2,A*%
%TO.N,Net-(D15-Pad2)*%
X76200000Y-135255000D03*
%TD*%
D21*
%TO.P,D34,1,K*%
%TO.N,/KC5*%
X179070000Y-116205000D03*
D22*
%TO.P,D34,2,A*%
%TO.N,Net-(D34-Pad2)*%
X171450000Y-116205000D03*
%TD*%
D21*
%TO.P,D10,1,K*%
%TO.N,/KC1*%
X64770000Y-116205000D03*
D22*
%TO.P,D10,2,A*%
%TO.N,Net-(D10-Pad2)*%
X57150000Y-116205000D03*
%TD*%
D23*
%TO.P,R53,1*%
%TO.N,/BLUE*%
X42930000Y-55245000D03*
D24*
%TO.P,R53,2*%
%TO.N,Net-(R53-Pad2)*%
X42930000Y-60325000D03*
%TD*%
D21*
%TO.P,D40,1,K*%
%TO.N,/KC6*%
X198120000Y-154305000D03*
D22*
%TO.P,D40,2,A*%
%TO.N,Net-(D40-Pad2)*%
X190500000Y-154305000D03*
%TD*%
D21*
%TO.P,D13,1,K*%
%TO.N,/KC2*%
X83820000Y-97155000D03*
D22*
%TO.P,D13,2,A*%
%TO.N,Net-(D13-Pad2)*%
X76200000Y-97155000D03*
%TD*%
D21*
%TO.P,D29,1,K*%
%TO.N,/KC4*%
X160020000Y-97155000D03*
D22*
%TO.P,D29,2,A*%
%TO.N,Net-(D29-Pad2)*%
X152400000Y-97155000D03*
%TD*%
D21*
%TO.P,D6,1,K*%
%TO.N,/KC0*%
X45720000Y-116205000D03*
D22*
%TO.P,D6,2,A*%
%TO.N,Net-(D6-Pad2)*%
X38100000Y-116205000D03*
%TD*%
D21*
%TO.P,D5,1,K*%
%TO.N,/KC0*%
X45720000Y-97155000D03*
D22*
%TO.P,D5,2,A*%
%TO.N,Net-(D5-Pad2)*%
X38100000Y-97155000D03*
%TD*%
D21*
%TO.P,D12,1,K*%
%TO.N,/KC1*%
X64770000Y-154305000D03*
D22*
%TO.P,D12,2,A*%
%TO.N,Net-(D12-Pad2)*%
X57150000Y-154305000D03*
%TD*%
D21*
%TO.P,D32,1,K*%
%TO.N,/KC5*%
X160020000Y-154305000D03*
D22*
%TO.P,D32,2,A*%
%TO.N,Net-(D32-Pad2)*%
X152400000Y-154305000D03*
%TD*%
D21*
%TO.P,D44,1,K*%
%TO.N,/KC7*%
X217170000Y-154305000D03*
D22*
%TO.P,D44,2,A*%
%TO.N,Net-(D44-Pad2)*%
X209550000Y-154305000D03*
%TD*%
D23*
%TO.P,R54,1*%
%TO.N,/RED*%
X32135000Y-55245000D03*
D24*
%TO.P,R54,2*%
%TO.N,Net-(R54-Pad2)*%
X32135000Y-60325000D03*
%TD*%
D21*
%TO.P,D8,1,K*%
%TO.N,/KC1*%
X45720000Y-154305000D03*
D22*
%TO.P,D8,2,A*%
%TO.N,Net-(D8-Pad2)*%
X38100000Y-154305000D03*
%TD*%
D21*
%TO.P,D9,1,K*%
%TO.N,/KC1*%
X64770000Y-97155000D03*
D22*
%TO.P,D9,2,A*%
%TO.N,Net-(D9-Pad2)*%
X57150000Y-97155000D03*
%TD*%
D21*
%TO.P,D14,1,K*%
%TO.N,/KC2*%
X83820000Y-116205000D03*
D22*
%TO.P,D14,2,A*%
%TO.N,Net-(D14-Pad2)*%
X76200000Y-116205000D03*
%TD*%
D21*
%TO.P,D20,1,K*%
%TO.N,/KC3*%
X102870000Y-154305000D03*
D22*
%TO.P,D20,2,A*%
%TO.N,Net-(D20-Pad2)*%
X95250000Y-154305000D03*
%TD*%
D21*
%TO.P,D46,1,K*%
%TO.N,/KC7*%
X236220000Y-97155000D03*
D22*
%TO.P,D46,2,A*%
%TO.N,Net-(D46-Pad2)*%
X228600000Y-97155000D03*
%TD*%
D21*
%TO.P,D18,1,K*%
%TO.N,/KC2*%
X102870000Y-116205000D03*
D22*
%TO.P,D18,2,A*%
%TO.N,Net-(D18-Pad2)*%
X95250000Y-116205000D03*
%TD*%
D21*
%TO.P,D47,1,K*%
%TO.N,/KC7*%
X236220000Y-116205000D03*
D22*
%TO.P,D47,2,A*%
%TO.N,Net-(D47-Pad2)*%
X228600000Y-116205000D03*
%TD*%
D21*
%TO.P,D24,1,K*%
%TO.N,/KC3*%
X121920000Y-154305000D03*
D22*
%TO.P,D24,2,A*%
%TO.N,Net-(D24-Pad2)*%
X114300000Y-154305000D03*
%TD*%
D21*
%TO.P,D22,1,K*%
%TO.N,/KC3*%
X121920000Y-116205000D03*
D22*
%TO.P,D22,2,A*%
%TO.N,Net-(D22-Pad2)*%
X114300000Y-116205000D03*
%TD*%
D23*
%TO.P,R49,1*%
%TO.N,/GREEN*%
X36580000Y-55245000D03*
D24*
%TO.P,R49,2*%
%TO.N,Net-(R49-Pad2)*%
X36580000Y-60325000D03*
%TD*%
D21*
%TO.P,D4,1,K*%
%TO.N,/KC0*%
X26670000Y-154305000D03*
D22*
%TO.P,D4,2,A*%
%TO.N,Net-(D4-Pad2)*%
X19050000Y-154305000D03*
%TD*%
D21*
%TO.P,D3,1,K*%
%TO.N,/KC0*%
X26670000Y-135255000D03*
D22*
%TO.P,D3,2,A*%
%TO.N,Net-(D3-Pad2)*%
X19050000Y-135255000D03*
%TD*%
D23*
%TO.P,R51,1*%
%TO.N,/BLUE*%
X45470000Y-55245000D03*
D24*
%TO.P,R51,2*%
%TO.N,Net-(R51-Pad2)*%
X45470000Y-60325000D03*
%TD*%
D21*
%TO.P,D1,1,K*%
%TO.N,/KC0*%
X26670000Y-97155000D03*
D22*
%TO.P,D1,2,A*%
%TO.N,Net-(D1-Pad2)*%
X19050000Y-97155000D03*
%TD*%
D21*
%TO.P,D33,1,K*%
%TO.N,/KC5*%
X179070000Y-97155000D03*
D22*
%TO.P,D33,2,A*%
%TO.N,Net-(D33-Pad2)*%
X171450000Y-97155000D03*
%TD*%
D21*
%TO.P,D2,1,K*%
%TO.N,/KC0*%
X26670000Y-116205000D03*
D22*
%TO.P,D2,2,A*%
%TO.N,Net-(D2-Pad2)*%
X19050000Y-116205000D03*
%TD*%
D21*
%TO.P,D39,1,K*%
%TO.N,/KC6*%
X198120000Y-135255000D03*
D22*
%TO.P,D39,2,A*%
%TO.N,Net-(D39-Pad2)*%
X190500000Y-135255000D03*
%TD*%
D21*
%TO.P,D26,1,K*%
%TO.N,/KC4*%
X140970000Y-116205000D03*
D22*
%TO.P,D26,2,A*%
%TO.N,Net-(D26-Pad2)*%
X133350000Y-116205000D03*
%TD*%
D21*
%TO.P,D48,1,K*%
%TO.N,/KC7*%
X236220000Y-135255000D03*
D22*
%TO.P,D48,2,A*%
%TO.N,Net-(D48-Pad2)*%
X228600000Y-135255000D03*
%TD*%
D21*
%TO.P,D36,1,K*%
%TO.N,/KC5*%
X179070000Y-154305000D03*
D22*
%TO.P,D36,2,A*%
%TO.N,Net-(D36-Pad2)*%
X171450000Y-154305000D03*
%TD*%
D21*
%TO.P,D30,1,K*%
%TO.N,/KC4*%
X160020000Y-116205000D03*
D22*
%TO.P,D30,2,A*%
%TO.N,Net-(D30-Pad2)*%
X152400000Y-116205000D03*
%TD*%
D25*
%TO.N,/KR3*%
X78071900Y-119186000D03*
%TO.N,/KR5*%
X71939400Y-120705000D03*
%TD*%
D26*
%TO.N,/KR1*%
X44450000Y-156948000D02*
X44450000Y-158750000D01*
X34393400Y-146891000D02*
X44450000Y-156948000D01*
X34393400Y-129643000D02*
X34393400Y-146891000D01*
X25400000Y-120650000D02*
X34393400Y-129643000D01*
X204660000Y-128460000D02*
X196850000Y-120650000D01*
X204660000Y-139365000D02*
X204660000Y-128460000D01*
X211035000Y-145740000D02*
X204660000Y-139365000D01*
X211035000Y-153885000D02*
X211035000Y-145740000D01*
X215900000Y-158750000D02*
X211035000Y-153885000D01*
X85445000Y-88506900D02*
X85445000Y-83945000D01*
X81123000Y-92828900D02*
X85445000Y-88506900D01*
X81123000Y-104353000D02*
X81123000Y-92828900D01*
X82394700Y-105625000D02*
X81123000Y-104353000D01*
X82394700Y-120495000D02*
X82394700Y-105625000D01*
X82550000Y-120650000D02*
X82394700Y-120495000D01*
X140580000Y-121530000D02*
X139700000Y-120650000D01*
X140580000Y-125733000D02*
X140580000Y-121530000D01*
X143396000Y-128548000D02*
X140580000Y-125733000D01*
X143396000Y-135252000D02*
X143396000Y-128548000D01*
X153885000Y-145740000D02*
X143396000Y-135252000D01*
X153885000Y-153885000D02*
X153885000Y-145740000D01*
X158750000Y-158750000D02*
X153885000Y-153885000D01*
%TO.N,/KR2*%
X182361000Y-106161000D02*
X177800000Y-101600000D01*
X182361000Y-124574000D02*
X182361000Y-106161000D01*
X196850000Y-139063000D02*
X182361000Y-124574000D01*
X196850000Y-139700000D02*
X196850000Y-139063000D01*
X67383400Y-105483000D02*
X63500000Y-101600000D01*
X67383400Y-124398000D02*
X67383400Y-105483000D01*
X82550000Y-139564000D02*
X67383400Y-124398000D01*
X82550000Y-139700000D02*
X82550000Y-139564000D01*
X67338500Y-97761500D02*
X63500000Y-101600000D01*
X67338500Y-95176900D02*
X67338500Y-97761500D01*
X74015000Y-88500400D02*
X67338500Y-95176900D01*
X74015000Y-83614800D02*
X74015000Y-88500400D01*
X74837500Y-82792300D02*
X74015000Y-83614800D01*
X75724000Y-82792300D02*
X74837500Y-82792300D01*
X76555000Y-83623300D02*
X75724000Y-82792300D01*
X76555000Y-84272500D02*
X76555000Y-83623300D01*
X77359000Y-85076500D02*
X76555000Y-84272500D01*
X81773500Y-85076500D02*
X77359000Y-85076500D01*
X82905000Y-83945000D02*
X81773500Y-85076500D01*
X139700000Y-137890000D02*
X139700000Y-139700000D01*
X129548000Y-127738000D02*
X139700000Y-137890000D01*
X129548000Y-110498000D02*
X129548000Y-127738000D01*
X120650000Y-101600000D02*
X129548000Y-110498000D01*
%TO.N,/KR3*%
X139700000Y-155721000D02*
X139700000Y-158750000D01*
X120462000Y-136483000D02*
X139700000Y-155721000D01*
X120462000Y-120838000D02*
X120462000Y-136483000D01*
X120650000Y-120650000D02*
X120462000Y-120838000D01*
X186170000Y-129020000D02*
X177800000Y-120650000D01*
X186170000Y-139926000D02*
X186170000Y-129020000D01*
X191985000Y-145740000D02*
X186170000Y-139926000D01*
X191985000Y-153885000D02*
X191985000Y-145740000D01*
X196850000Y-158750000D02*
X191985000Y-153885000D01*
X82335500Y-123450000D02*
X78071900Y-119186000D01*
X82335500Y-137456000D02*
X82335500Y-123450000D01*
X83993000Y-139114000D02*
X82335500Y-137456000D01*
X83993000Y-143449000D02*
X83993000Y-139114000D01*
X82394600Y-145047000D02*
X83993000Y-143449000D01*
X82394600Y-158595000D02*
X82394600Y-145047000D01*
X82550000Y-158750000D02*
X82394600Y-158595000D01*
X81490300Y-83945000D02*
X80365000Y-83945000D01*
X81490300Y-83663700D02*
X81490300Y-83945000D01*
X82357100Y-82796900D02*
X81490300Y-83663700D01*
X83388400Y-82796900D02*
X82357100Y-82796900D01*
X84101100Y-83509600D02*
X83388400Y-82796900D01*
X84101100Y-85499300D02*
X84101100Y-83509600D01*
X74765600Y-94834800D02*
X84101100Y-85499300D01*
X74765600Y-104853000D02*
X74765600Y-94834800D01*
X78071900Y-108160000D02*
X74765600Y-104853000D01*
X78071900Y-119186000D02*
X78071900Y-108160000D01*
%TO.N,/KR4*%
X158595000Y-101755000D02*
X158750000Y-101600000D01*
X158595000Y-118436000D02*
X158595000Y-101755000D01*
X177800000Y-137642000D02*
X158595000Y-118436000D01*
X177800000Y-139700000D02*
X177800000Y-137642000D01*
X78950300Y-83945000D02*
X77825000Y-83945000D01*
X78950300Y-83663700D02*
X78950300Y-83945000D01*
X80267500Y-82346500D02*
X78950300Y-83663700D01*
X88036700Y-82346500D02*
X80267500Y-82346500D01*
X101385000Y-95695200D02*
X88036700Y-82346500D01*
X101385000Y-101385000D02*
X101385000Y-95695200D01*
X101600000Y-101600000D02*
X101385000Y-101385000D01*
X101445000Y-101755000D02*
X101600000Y-101600000D01*
X101445000Y-118436000D02*
X101445000Y-101755000D01*
X120650000Y-137642000D02*
X101445000Y-118436000D01*
X120650000Y-139700000D02*
X120650000Y-137642000D01*
X234950000Y-120503000D02*
X234950000Y-120650000D01*
X216047000Y-101600000D02*
X234950000Y-120503000D01*
X215900000Y-101600000D02*
X216047000Y-101600000D01*
X58634600Y-111167000D02*
X49067500Y-101600000D01*
X58634600Y-134835000D02*
X58634600Y-111167000D01*
X63500000Y-139700000D02*
X58634600Y-134835000D01*
X44450000Y-101600000D02*
X49067500Y-101600000D01*
X76220400Y-82340400D02*
X77825000Y-83945000D01*
X67600600Y-82340400D02*
X76220400Y-82340400D01*
X66395000Y-83546000D02*
X67600600Y-82340400D01*
X66395000Y-84272500D02*
X66395000Y-83546000D01*
X49067500Y-101600000D02*
X66395000Y-84272500D01*
%TO.N,/KR5*%
X234950000Y-139553000D02*
X234950000Y-139700000D01*
X216047000Y-120650000D02*
X234950000Y-139553000D01*
X215900000Y-120650000D02*
X216047000Y-120650000D01*
X101600000Y-124981000D02*
X101600000Y-120650000D01*
X104865000Y-128246000D02*
X101600000Y-124981000D01*
X104865000Y-140388000D02*
X104865000Y-128246000D01*
X120650000Y-156173000D02*
X104865000Y-140388000D01*
X120650000Y-158750000D02*
X120650000Y-156173000D01*
X48851800Y-125052000D02*
X44450000Y-120650000D01*
X48851800Y-135958000D02*
X48851800Y-125052000D01*
X58634600Y-145740000D02*
X48851800Y-135958000D01*
X58634600Y-153885000D02*
X58634600Y-145740000D01*
X63500000Y-158750000D02*
X58634600Y-153885000D01*
X168503000Y-130403000D02*
X168503000Y-152828000D01*
X158750000Y-120650000D02*
X168503000Y-130403000D01*
X172003000Y-152828000D02*
X168503000Y-152828000D01*
X177800000Y-158625000D02*
X172003000Y-152828000D01*
X177800000Y-158750000D02*
X177800000Y-158625000D01*
X128794000Y-158750000D02*
X120650000Y-158750000D01*
X132825000Y-162781000D02*
X128794000Y-158750000D01*
X134769000Y-162781000D02*
X132825000Y-162781000D01*
X136086000Y-161464000D02*
X134769000Y-162781000D01*
X150559000Y-161464000D02*
X136086000Y-161464000D01*
X151875000Y-162781000D02*
X150559000Y-161464000D01*
X153819000Y-162781000D02*
X151875000Y-162781000D01*
X156203000Y-160397000D02*
X153819000Y-162781000D01*
X160934000Y-160397000D02*
X156203000Y-160397000D01*
X168503000Y-152828000D02*
X160934000Y-160397000D01*
X71939400Y-92505700D02*
X71939400Y-120705000D01*
X75285000Y-89160100D02*
X71939400Y-92505700D01*
X75285000Y-83945000D02*
X75285000Y-89160100D01*
%TO.N,/PA6*%
X72745000Y-86324700D02*
X72745000Y-83945000D01*
X72920000Y-86499700D02*
X72745000Y-86324700D01*
X72920000Y-87500000D02*
X72920000Y-86499700D01*
%TO.N,/PA7*%
X70205000Y-85784700D02*
X70205000Y-83945000D01*
X70920000Y-86499700D02*
X70205000Y-85784700D01*
X70920000Y-87500000D02*
X70920000Y-86499700D01*
%TO.N,/PB7*%
X72393400Y-63126400D02*
X71393000Y-62126000D01*
X72393400Y-65391300D02*
X72393400Y-63126400D01*
X70205000Y-67579700D02*
X72393400Y-65391300D01*
X70205000Y-68705000D02*
X70205000Y-67579700D01*
%TO.N,GND*%
X31730000Y-50547800D02*
X28960000Y-50547800D01*
X31730000Y-48482500D02*
X31730000Y-50547800D01*
X28960000Y-48482500D02*
X28960000Y-50547800D01*
X63999700Y-83945000D02*
X64562400Y-83945000D01*
X63999700Y-84220300D02*
X63999700Y-83945000D01*
X60650000Y-87570000D02*
X63999700Y-84220300D01*
X69393000Y-58698000D02*
X69393000Y-60126000D01*
X61075000Y-50380000D02*
X69393000Y-58698000D01*
X62585000Y-66934000D02*
X62585000Y-68705000D01*
X69393000Y-60126000D02*
X62585000Y-66934000D01*
X64562400Y-71807700D02*
X64562400Y-83945000D01*
X62585000Y-69830300D02*
X64562400Y-71807700D01*
X62585000Y-68705000D02*
X62585000Y-69830300D01*
X65125000Y-83945000D02*
X64562400Y-83945000D01*
X22877500Y-50547800D02*
X28960000Y-50547800D01*
X18405300Y-55020000D02*
X22877500Y-50547800D01*
X17280000Y-55020000D02*
X18405300Y-55020000D01*
%TO.N,VCC*%
X65125000Y-67579700D02*
X65125000Y-68705000D01*
X68392700Y-64312000D02*
X65125000Y-67579700D01*
X68392700Y-64126000D02*
X68392700Y-64312000D01*
X69393000Y-64126000D02*
X68392700Y-64126000D01*
X21670000Y-66910000D02*
X17280000Y-62520000D01*
X21670000Y-73300000D02*
X21670000Y-66910000D01*
%TO.N,Net-(R53-Pad2)*%
X42930000Y-66914700D02*
X42930000Y-60325000D01*
X42265000Y-67579700D02*
X42930000Y-66914700D01*
X42265000Y-68705000D02*
X42265000Y-67579700D01*
%TO.N,Net-(R52-Pad2)*%
X39120000Y-61350300D02*
X39120000Y-60325000D01*
X38586400Y-61883900D02*
X39120000Y-61350300D01*
X38586400Y-69252700D02*
X38586400Y-61883900D01*
X39164000Y-69830300D02*
X38586400Y-69252700D01*
X45375800Y-69830300D02*
X39164000Y-69830300D01*
X46219700Y-68986400D02*
X45375800Y-69830300D01*
X46219700Y-68705000D02*
X46219700Y-68986400D01*
X47345000Y-68705000D02*
X46219700Y-68705000D01*
%TO.N,/KC4*%
X140970000Y-144259000D02*
X140970000Y-154305000D01*
X141152000Y-144076000D02*
X140970000Y-144259000D01*
X141152000Y-136863000D02*
X141152000Y-144076000D01*
X140970000Y-136680000D02*
X141152000Y-136863000D01*
X140970000Y-135255000D02*
X140970000Y-136680000D01*
X140970000Y-117630000D02*
X140970000Y-116205000D01*
X140703000Y-117630000D02*
X140970000Y-117630000D01*
X138222000Y-120111000D02*
X140703000Y-117630000D01*
X138222000Y-123374000D02*
X138222000Y-120111000D01*
X139971000Y-125123000D02*
X138222000Y-123374000D01*
X139971000Y-132831000D02*
X139971000Y-125123000D01*
X140970000Y-133830000D02*
X139971000Y-132831000D01*
X140970000Y-135255000D02*
X140970000Y-133830000D01*
X160020000Y-104575000D02*
X160020000Y-116205000D01*
X160194000Y-104401000D02*
X160020000Y-104575000D01*
X160194000Y-98754700D02*
X160194000Y-104401000D01*
X160020000Y-98580300D02*
X160194000Y-98754700D01*
X160020000Y-97155000D02*
X160020000Y-98580300D01*
%TO.N,Net-(R51-Pad2)*%
X45470000Y-66914700D02*
X45470000Y-60325000D01*
X44805000Y-67579700D02*
X45470000Y-66914700D01*
X44805000Y-68705000D02*
X44805000Y-67579700D01*
%TO.N,/KC2*%
X102870000Y-104575000D02*
X102870000Y-116205000D01*
X103044000Y-104401000D02*
X102870000Y-104575000D01*
X103044000Y-98754700D02*
X103044000Y-104401000D01*
X102870000Y-98580300D02*
X103044000Y-98754700D01*
X102870000Y-97155000D02*
X102870000Y-98580300D01*
X83820000Y-117630000D02*
X83820000Y-116205000D01*
X83993300Y-117804000D02*
X83820000Y-117630000D01*
X83993300Y-122385000D02*
X83993300Y-117804000D01*
X83820000Y-122559000D02*
X83993300Y-122385000D01*
X83820000Y-135255000D02*
X83820000Y-122559000D01*
X83820000Y-144259000D02*
X83820000Y-154305000D01*
X84454900Y-143624000D02*
X83820000Y-144259000D01*
X84454900Y-137315000D02*
X84454900Y-143624000D01*
X83820000Y-136680000D02*
X84454900Y-137315000D01*
X83820000Y-135255000D02*
X83820000Y-136680000D01*
%TO.N,Net-(C3-Pad2)*%
X67665000Y-85959700D02*
X67665000Y-83945000D01*
X68150000Y-86444700D02*
X67665000Y-85959700D01*
X68150000Y-87570000D02*
X68150000Y-86444700D01*
%TO.N,/~RESET*%
X72872900Y-61605900D02*
X71393000Y-60126000D01*
X72872900Y-66955500D02*
X72872900Y-61605900D01*
X71475000Y-68353400D02*
X72872900Y-66955500D01*
X71475000Y-69035400D02*
X71475000Y-68353400D01*
X70645700Y-69864700D02*
X71475000Y-69035400D01*
X69668700Y-69864700D02*
X70645700Y-69864700D01*
X68790300Y-68986300D02*
X69668700Y-69864700D01*
X68790300Y-68705000D02*
X68790300Y-68986300D01*
X67665000Y-68705000D02*
X68790300Y-68705000D01*
%TO.N,Net-(C2-Pad2)*%
X61075000Y-62405000D02*
X61075000Y-57880000D01*
X60045000Y-63435000D02*
X60045000Y-68705000D01*
X61075000Y-62405000D02*
X60045000Y-63435000D01*
%TO.N,/KR0*%
X147510000Y-109410000D02*
X139700000Y-101600000D01*
X147510000Y-127649000D02*
X147510000Y-109410000D01*
X158750000Y-138890000D02*
X147510000Y-127649000D01*
X158750000Y-139700000D02*
X158750000Y-138890000D01*
X201922000Y-106672000D02*
X196850000Y-101600000D01*
X201922000Y-117578000D02*
X201922000Y-106672000D01*
X211035000Y-126690000D02*
X201922000Y-117578000D01*
X211035000Y-134835000D02*
X211035000Y-126690000D01*
X215900000Y-139700000D02*
X211035000Y-134835000D01*
X35654600Y-111855000D02*
X25400000Y-101600000D01*
X35654600Y-130778000D02*
X35654600Y-111855000D01*
X44577000Y-139700000D02*
X35654600Y-130778000D01*
X89229800Y-108280000D02*
X82550000Y-101600000D01*
X89229800Y-119215000D02*
X89229800Y-108280000D01*
X96734600Y-126719000D02*
X89229800Y-119215000D01*
X96734600Y-134835000D02*
X96734600Y-126719000D01*
X101600000Y-139700000D02*
X96734600Y-134835000D01*
X87985000Y-96165000D02*
X87985000Y-83945000D01*
X82550000Y-101600000D02*
X87985000Y-96165000D01*
%TO.N,Net-(C1-Pad2)*%
X56230000Y-62370000D02*
X56230000Y-57940000D01*
X56195000Y-62405000D02*
X56230000Y-62370000D01*
X57505000Y-63715000D02*
X57505000Y-68705000D01*
X56195000Y-62405000D02*
X57505000Y-63715000D01*
%TO.N,/PB3*%
X80365000Y-65712300D02*
X80365000Y-68705000D01*
X80719000Y-65358300D02*
X80365000Y-65712300D01*
X80719000Y-64358000D02*
X80719000Y-65358300D01*
%TO.N,/PB2*%
X82719000Y-67393700D02*
X82719000Y-64358000D01*
X82905000Y-67579700D02*
X82719000Y-67393700D01*
X82905000Y-68705000D02*
X82905000Y-67579700D01*
%TO.N,/PB1*%
X84719000Y-66853700D02*
X84719000Y-64358000D01*
X85445000Y-67579700D02*
X84719000Y-66853700D01*
X85445000Y-68705000D02*
X85445000Y-67579700D01*
%TO.N,/PB0*%
X87985000Y-66624300D02*
X87985000Y-68705000D01*
X86719000Y-65358300D02*
X87985000Y-66624300D01*
X86719000Y-64358000D02*
X86719000Y-65358300D01*
%TO.N,/VSYNC*%
X42810000Y-50547800D02*
X42810000Y-48482500D01*
X40850300Y-52507500D02*
X42810000Y-50547800D01*
X40850300Y-66454400D02*
X40850300Y-52507500D01*
X39725000Y-67579700D02*
X40850300Y-66454400D01*
X39725000Y-68705000D02*
X39725000Y-67579700D01*
%TO.N,/HSYNC*%
X40040000Y-50669300D02*
X40040000Y-48482500D01*
X38084400Y-52624900D02*
X40040000Y-50669300D01*
X38084400Y-81179100D02*
X38084400Y-52624900D01*
X39725000Y-82819700D02*
X38084400Y-81179100D01*
X39725000Y-83945000D02*
X39725000Y-82819700D01*
%TO.N,Net-(D48-Pad2)*%
X228600000Y-135255000D02*
X228600000Y-142240000D01*
%TO.N,Net-(D47-Pad2)*%
X228600000Y-116205000D02*
X228600000Y-123190000D01*
%TO.N,Net-(D46-Pad2)*%
X228600000Y-97155000D02*
X228600000Y-104140000D01*
%TO.N,Net-(D45-Pad2)*%
X228600000Y-154305000D02*
X228600000Y-161290000D01*
%TO.N,Net-(D44-Pad2)*%
X209550000Y-154305000D02*
X209550000Y-161290000D01*
%TO.N,Net-(D43-Pad2)*%
X209550000Y-135128000D02*
X209550000Y-142240000D01*
%TO.N,/KC7*%
X236220000Y-144259000D02*
X236220000Y-154305000D01*
X236375000Y-144103000D02*
X236220000Y-144259000D01*
X236375000Y-136836000D02*
X236375000Y-144103000D01*
X236220000Y-136680000D02*
X236375000Y-136836000D01*
X236220000Y-135255000D02*
X236220000Y-136680000D01*
X217170000Y-142675000D02*
X217170000Y-154305000D01*
X217344000Y-142501000D02*
X217170000Y-142675000D01*
X217344000Y-136728000D02*
X217344000Y-142501000D01*
X217170000Y-136553000D02*
X217344000Y-136728000D01*
X217170000Y-135128000D02*
X217170000Y-136553000D01*
X236220000Y-104333000D02*
X236220000Y-116205000D01*
X236383000Y-104170000D02*
X236220000Y-104333000D01*
X236383000Y-98743400D02*
X236383000Y-104170000D01*
X236220000Y-98580300D02*
X236383000Y-98743400D01*
X236220000Y-97155000D02*
X236220000Y-98580300D01*
%TO.N,Net-(D42-Pad2)*%
X209550000Y-116205000D02*
X209550000Y-123190000D01*
%TO.N,Net-(D41-Pad2)*%
X209550000Y-97155000D02*
X209550000Y-104140000D01*
%TO.N,Net-(D40-Pad2)*%
X190500000Y-154305000D02*
X190500000Y-161290000D01*
%TO.N,Net-(D39-Pad2)*%
X190500000Y-135255000D02*
X190500000Y-142240000D01*
%TO.N,Net-(D38-Pad2)*%
X190500000Y-116205000D02*
X190500000Y-123190000D01*
%TO.N,Net-(D37-Pad2)*%
X190500000Y-97155000D02*
X190500000Y-104140000D01*
%TO.N,/KC6*%
X198120000Y-117630000D02*
X198120000Y-116205000D01*
X197853000Y-117630000D02*
X198120000Y-117630000D01*
X195398000Y-120086000D02*
X197853000Y-117630000D01*
X195398000Y-123378000D02*
X195398000Y-120086000D01*
X198120000Y-126100000D02*
X195398000Y-123378000D01*
X198120000Y-135255000D02*
X198120000Y-126100000D01*
X198120000Y-144259000D02*
X198120000Y-154305000D01*
X198303000Y-144076000D02*
X198120000Y-144259000D01*
X198303000Y-136863000D02*
X198303000Y-144076000D01*
X198120000Y-136680000D02*
X198303000Y-136863000D01*
X198120000Y-135255000D02*
X198120000Y-136680000D01*
X217170000Y-98580300D02*
X217170000Y-97155000D01*
X215599000Y-100151000D02*
X217170000Y-98580300D01*
X214567000Y-100151000D02*
X215599000Y-100151000D01*
X214434000Y-100285000D02*
X214567000Y-100151000D01*
X214434000Y-104314000D02*
X214434000Y-100285000D01*
X217170000Y-107050000D02*
X214434000Y-104314000D01*
X217170000Y-116205000D02*
X217170000Y-107050000D01*
X199545000Y-97155000D02*
X198120000Y-97155000D01*
X200971000Y-95729700D02*
X199545000Y-97155000D01*
X210145000Y-95729700D02*
X200971000Y-95729700D01*
X214567000Y-100151000D02*
X210145000Y-95729700D01*
%TO.N,Net-(D36-Pad2)*%
X171450000Y-154305000D02*
X171450000Y-161290000D01*
%TO.N,Net-(D35-Pad2)*%
X171450000Y-135255000D02*
X171450000Y-142240000D01*
%TO.N,Net-(D34-Pad2)*%
X171450000Y-116205000D02*
X171450000Y-123190000D01*
%TO.N,Net-(D33-Pad2)*%
X171450000Y-97155000D02*
X171450000Y-104140000D01*
%TO.N,Net-(D32-Pad2)*%
X152400000Y-154305000D02*
X152400000Y-161290000D01*
%TO.N,Net-(D31-Pad2)*%
X152400000Y-135255000D02*
X152400000Y-142240000D01*
%TO.N,/KC5*%
X179070000Y-142675000D02*
X179070000Y-154305000D01*
X179244000Y-142501000D02*
X179070000Y-142675000D01*
X179244000Y-136855000D02*
X179244000Y-142501000D01*
X179070000Y-136680000D02*
X179244000Y-136855000D01*
X179070000Y-135255000D02*
X179070000Y-136680000D01*
X160020000Y-142675000D02*
X160020000Y-154305000D01*
X160194000Y-142501000D02*
X160020000Y-142675000D01*
X160194000Y-136855000D02*
X160194000Y-142501000D01*
X160020000Y-136680000D02*
X160194000Y-136855000D01*
X160020000Y-135255000D02*
X160020000Y-136680000D01*
X179070000Y-117630000D02*
X179070000Y-116205000D01*
X178803000Y-117630000D02*
X179070000Y-117630000D01*
X176321000Y-120112000D02*
X178803000Y-117630000D01*
X176321000Y-123373000D02*
X176321000Y-120112000D01*
X179070000Y-126122000D02*
X176321000Y-123373000D01*
X179070000Y-135255000D02*
X179070000Y-126122000D01*
X179070000Y-107050000D02*
X179070000Y-116205000D01*
X176334000Y-104314000D02*
X179070000Y-107050000D01*
X176334000Y-101050000D02*
X176334000Y-104314000D01*
X178803000Y-98580300D02*
X176334000Y-101050000D01*
X179070000Y-98580300D02*
X178803000Y-98580300D01*
X179070000Y-97155000D02*
X179070000Y-98580300D01*
%TO.N,Net-(D30-Pad2)*%
X152400000Y-116205000D02*
X152400000Y-123190000D01*
%TO.N,Net-(D29-Pad2)*%
X152400000Y-97155000D02*
X152400000Y-104140000D01*
%TO.N,Net-(D28-Pad2)*%
X133350000Y-154305000D02*
X133350000Y-161290000D01*
%TO.N,Net-(D27-Pad2)*%
X133350000Y-135255000D02*
X133350000Y-142240000D01*
%TO.N,Net-(D26-Pad2)*%
X133350000Y-116205000D02*
X133350000Y-123190000D01*
%TO.N,Net-(D25-Pad2)*%
X133350000Y-97155000D02*
X133350000Y-104140000D01*
%TO.N,Net-(D24-Pad2)*%
X114300000Y-154305000D02*
X114300000Y-161290000D01*
%TO.N,Net-(D23-Pad2)*%
X114300000Y-135255000D02*
X114300000Y-142240000D01*
%TO.N,Net-(D22-Pad2)*%
X114300000Y-116205000D02*
X114300000Y-123190000D01*
%TO.N,Net-(D21-Pad2)*%
X114300000Y-97155000D02*
X114300000Y-104140000D01*
%TO.N,Net-(D20-Pad2)*%
X95250000Y-154305000D02*
X95250000Y-161290000D01*
%TO.N,Net-(D19-Pad2)*%
X95250000Y-135255000D02*
X95250000Y-142240000D01*
%TO.N,/KC3*%
X102870000Y-144259000D02*
X102870000Y-154305000D01*
X103027000Y-144102000D02*
X102870000Y-144259000D01*
X103027000Y-136837000D02*
X103027000Y-144102000D01*
X102870000Y-136680000D02*
X103027000Y-136837000D01*
X102870000Y-135255000D02*
X102870000Y-136680000D01*
X121920000Y-98580300D02*
X121920000Y-97155000D01*
X121653000Y-98580300D02*
X121920000Y-98580300D01*
X119184000Y-101050000D02*
X121653000Y-98580300D01*
X119184000Y-104314000D02*
X119184000Y-101050000D01*
X121920000Y-107050000D02*
X119184000Y-104314000D01*
X121920000Y-116205000D02*
X121920000Y-107050000D01*
X121920000Y-124890000D02*
X121920000Y-135255000D01*
X122088000Y-124723000D02*
X121920000Y-124890000D01*
X122088000Y-117798000D02*
X122088000Y-124723000D01*
X121920000Y-117630000D02*
X122088000Y-117798000D01*
X121920000Y-116205000D02*
X121920000Y-117630000D01*
%TO.N,Net-(D18-Pad2)*%
X95250000Y-116205000D02*
X95250000Y-123190000D01*
%TO.N,Net-(D17-Pad2)*%
X95250000Y-97155000D02*
X95250000Y-104140000D01*
%TO.N,Net-(D16-Pad2)*%
X76200000Y-154305000D02*
X76200000Y-161290000D01*
%TO.N,Net-(D15-Pad2)*%
X76200000Y-135255000D02*
X76200000Y-142240000D01*
%TO.N,Net-(D14-Pad2)*%
X76200000Y-116205000D02*
X76200000Y-123190000D01*
%TO.N,Net-(D13-Pad2)*%
X76200000Y-97155000D02*
X76200000Y-104140000D01*
%TO.N,Net-(D12-Pad2)*%
X57150000Y-154305000D02*
X57150000Y-161290000D01*
%TO.N,Net-(D11-Pad2)*%
X57150000Y-135255000D02*
X57150000Y-142240000D01*
%TO.N,Net-(D10-Pad2)*%
X57150000Y-116205000D02*
X57150000Y-123190000D01*
%TO.N,Net-(D9-Pad2)*%
X57150000Y-97155000D02*
X57150000Y-104140000D01*
%TO.N,Net-(D8-Pad2)*%
X38100000Y-154305000D02*
X38100000Y-161290000D01*
%TO.N,Net-(D7-Pad2)*%
X38227000Y-136807000D02*
X38227000Y-142240000D01*
X38100000Y-136680000D02*
X38227000Y-136807000D01*
X38100000Y-135255000D02*
X38100000Y-136680000D01*
%TO.N,/KC1*%
X45720000Y-142802000D02*
X45720000Y-154305000D01*
X46030500Y-142492000D02*
X45720000Y-142802000D01*
X46030500Y-136991000D02*
X46030500Y-142492000D01*
X45720000Y-136680000D02*
X46030500Y-136991000D01*
X45720000Y-135255000D02*
X45720000Y-136680000D01*
X64770000Y-136680000D02*
X64770000Y-135255000D01*
X64944400Y-136855000D02*
X64770000Y-136680000D01*
X64944400Y-142501000D02*
X64944400Y-136855000D01*
X64770000Y-142675000D02*
X64944400Y-142501000D01*
X64770000Y-154305000D02*
X64770000Y-142675000D01*
X64770000Y-107072000D02*
X64770000Y-116205000D01*
X62193700Y-104496000D02*
X64770000Y-107072000D01*
X62193700Y-100882000D02*
X62193700Y-104496000D01*
X64495900Y-98580300D02*
X62193700Y-100882000D01*
X64770000Y-98580300D02*
X64495900Y-98580300D01*
X64770000Y-97155000D02*
X64770000Y-98580300D01*
X64770000Y-125209000D02*
X64770000Y-135255000D01*
X64925400Y-125053000D02*
X64770000Y-125209000D01*
X64925400Y-117786000D02*
X64925400Y-125053000D01*
X64770000Y-117630000D02*
X64925400Y-117786000D01*
X64770000Y-116205000D02*
X64770000Y-117630000D01*
%TO.N,Net-(D6-Pad2)*%
X38100000Y-116205000D02*
X38100000Y-123190000D01*
%TO.N,Net-(D5-Pad2)*%
X38100000Y-97155000D02*
X38100000Y-104140000D01*
%TO.N,Net-(D4-Pad2)*%
X19050000Y-154305000D02*
X19050000Y-161290000D01*
%TO.N,Net-(D3-Pad2)*%
X19050000Y-135255000D02*
X19050000Y-142240000D01*
%TO.N,Net-(D2-Pad2)*%
X19050000Y-116205000D02*
X19050000Y-123190000D01*
%TO.N,Net-(D1-Pad2)*%
X19050000Y-97155000D02*
X19050000Y-104140000D01*
%TO.N,/KC0*%
X26670000Y-144259000D02*
X26670000Y-154305000D01*
X26825500Y-144103000D02*
X26670000Y-144259000D01*
X26825500Y-136836000D02*
X26825500Y-144103000D01*
X26670000Y-136680000D02*
X26825500Y-136836000D01*
X26670000Y-135255000D02*
X26670000Y-136680000D01*
X45720000Y-88525300D02*
X45720000Y-97155000D01*
X42265000Y-85070300D02*
X45720000Y-88525300D01*
X42265000Y-83945000D02*
X42265000Y-85070300D01*
%TD*%
M02*
